<?xml version="1.0" encoding="UTF-8" standalone="no"?>
<!-- Created with Inkscape (http://www.inkscape.org/) -->

<svg
   xmlns:dc="http://purl.org/dc/elements/1.1/"
   xmlns:cc="http://creativecommons.org/ns#"
   xmlns:rdf="http://www.w3.org/1999/02/22-rdf-syntax-ns#"
   xmlns:svg="http://www.w3.org/2000/svg"
   xmlns="http://www.w3.org/2000/svg"
   version="1.1"
   width="100"
   height="100"
   id="svg2">
  <defs
     id="defs4" />
  <metadata
     id="metadata7">
    <rdf:RDF>
      <cc:Work
         rdf:about="">
        <dc:format>image/svg+xml</dc:format>
        <dc:type
           rdf:resource="http://purl.org/dc/dcmitype/StillImage" />
        <dc:title></dc:title>
        <dc:creator>
          <cc:Agent>
            <dc:title>T. Gantt</dc:title>
          </cc:Agent>
        </dc:creator>
        <cc:license
           rdf:resource="" />
      </cc:Work>
    </rdf:RDF>
  </metadata>
  <g
     transform="translate(0,-952.36218)"
     id="layer1"
     style="display:inline">
    <path
       d="m 50.000001,0 c 5.877853,1.5749647e-7 45.736469,28.958982 47.552825,34.549152 1.816356,5.59017 -13.408282,52.446784 -18.163564,55.901699 -4.755283,3.454914 -54.023243,3.454913 -58.778526,-2e-6 C 15.855454,86.995934 0.63081813,40.139319 2.4471746,34.549149 4.2635311,28.958979 44.122149,-1.5749643e-7 50.000001,0 z"
       transform="matrix(0.63639611,-0.63639612,0.63639612,0.63639611,-13.63961,1002.3622)"
       id="path4672"
       style="color:#000000;fill:#000000;fill-opacity:1;fill-rule:nonzero;stroke:none;stroke-width:10;marker:none;visibility:visible;display:inline;overflow:visible;enable-background:accumulate" />
    <path
       d="M 66.15625,11.53125 C 55.16063,11.312994 22.948557,16.738943 19.84375,19.84375 16.295399,23.392101 9.7218187,64.935067 12,69.40625 c 2.278181,4.471183 39.762406,23.597508 44.71875,22.8125 4.956344,-0.785008 34.714992,-30.543656 35.5,-35.5 C 93.003758,51.762406 73.877433,14.278182 69.40625,12 c -0.558898,-0.284773 -1.679197,-0.437571 -3.25,-0.46875 z M 65.375,13.5 c 1.492226,0.02962 2.59406,0.166973 3.125,0.4375 1.965561,1.001504 6.899037,9.17172 11.5625,18.125 l -4.90625,0 c -0.64406,0 -1.1875,0.51219 -1.1875,1.15625 l 0,25.28125 0.375,1.15625 c 0.207212,0.192141 0.506321,0.28125 0.8125,0.28125 l 12.96875,0 C 85.814241,63.082838 81.764017,67.608069 77.25,72.25 L 74.625,64.375 72,56.53125 c -0.0072,-0.02148 -0.02351,-0.0414 -0.03125,-0.0625 L 70.125,50.875 C 69.747528,49.740014 68.54124,49.122524 67.40625,49.5 l -0.34375,0.125 c -0.819259,0.27247 -1.370535,0.980354 -1.46875,1.78125 l -0.03125,-0.125 c -0.377472,-1.134986 -1.58376,-1.752475 -2.71875,-1.375 L 62.5,50.0625 C 61.628593,50.352312 61.043131,51.13734 61,52 60.47127,51.219084 59.503468,50.812053 58.5625,51.125 l -0.375,0.15625 c -0.806961,0.268378 -1.296314,0.96389 -1.40625,1.75 l -3.09375,-9.25 c -0.283109,-0.85124 -1.036025,-1.403278 -1.875,-1.46875 -0.139828,-0.01091 -0.263998,-0.01902 -0.40625,0 -0.142252,0.01902 -0.295626,0.04656 -0.4375,0.09375 L 50.625,42.5625 c -1.13499,0.377475 -1.752472,1.583764 -1.375,2.71875 l 3.15625,9.5625 C 52.086695,54.79906 51.76553,54.8284 51.4375,54.9375 l -0.34375,0.09375 c -1.13499,0.377475 -1.752472,1.615014 -1.375,2.75 l 2.625,7.90625 c 0.0043,0.01315 0.02666,0.01824 0.03125,0.03125 l 0.5625,1.75 c 0.536375,1.612741 2.730258,2.901363 4.125,2.4375 l 0.34375,-0.125 5.375,16.125 C 59.861039,88.334859 57.512432,89.954747 56.4375,90.125 51.729088,90.870739 16.101719,72.74752 13.9375,68.5 13.401946,67.448915 13.393818,64.22207 13.71875,59.9375 l 11.125,0 c 0.64406,0 1.1875,-0.51219 1.1875,-1.15625 l 0,-25.5625 c 0,-0.64406 -0.54344,-1.15625 -1.1875,-1.15625 l -6.90625,0 C 19.147529,26.594256 20.409246,22.403254 21.40625,21.40625 24.355745,18.456756 54.929416,13.292662 65.375,13.5 z M 41.8125,27.5625 c -3.496326,0 -6.3125,2.816174 -6.3125,6.3125 l 0,24.25 c 0,3.496326 2.816174,6.3125 6.3125,6.3125 l 8.8125,0 -0.78125,-2.34375 -7.46875,0 c -2.57624,0 -4.625,-2.04876 -4.625,-4.625 l 0,-22.9375 c 0,-2.57624 2.04876,-4.625 4.625,-4.625 l 15.25,0 c 2.57624,0 4.625,2.04876 4.625,4.625 l 0,14.28125 0.125,-0.0625 a 1.250125,1.250125 0 0 1 0.0625,0 c 0.702296,-0.23357 1.411659,-0.19458 2.0625,0.03125 l 0,-14.90625 c 0,-3.496326 -2.816174,-6.3125 -6.3125,-6.3125 l -16.375,0 z m -0.65625,4.5 c -0.64406,0 -1.1875,0.51219 -1.1875,1.15625 l 0,25.5625 c 0,0.64406 0.54344,1.15625 1.1875,1.15625 l 7.96875,0 -0.59375,-1.75 c -0.04221,-0.126907 -0.0672,-0.246554 -0.09375,-0.375 l -6.28125,0 0,-2 6.46875,0 c 0.362438,-0.900479 1.081545,-1.642504 2.0625,-1.96875 a 1.250125,1.250125 0 0 1 0.03125,0 l 0.03125,0 0,-0.03125 -8.59375,0 0,-2 7.9375,0 -0.65625,-2 -7.28125,0 0,-2 6.625,0 -0.71875,-2.15625 -4.75,0 c -0.64406,0 -1.15625,-0.54344 -1.15625,-1.1875 l 0,-9.125 c 0,-0.64406 0.51219,-1.15625 1.15625,-1.15625 l 13.375,0 c 0.64406,0 1.15625,0.51219 1.15625,1.15625 l 0,9.125 c 0,0.64406 -0.51219,1.1875 -1.15625,1.1875 l -1.0625,0 0.71875,2.15625 1.5,0 0,2 -0.84375,0 0.21875,0.6875 c 0.188157,-0.113891 0.31709,-0.29857 0.53125,-0.375 l 0.0625,-0.03125 0.28125,-0.125 a 1.250125,1.250125 0 0 1 0.0625,-0.03125 c 0.643028,-0.213859 1.270028,-0.174566 1.875,0 l 0,-16.71875 c 0,-0.64406 -0.54344,-1.15625 -1.1875,-1.15625 l -17.6875,0 z M 17.5,34.1875 l 5.1875,0 c 0.64406,0 1.15625,0.51219 1.15625,1.15625 l 0,9.125 c 0,0.64406 -0.51219,1.1875 -1.15625,1.1875 l -7.25,0 C 16.048399,41.700072 16.761139,37.754695 17.5,34.1875 z m 59.8125,0 3.84375,0 c 2.010473,3.950086 3.90048,7.943871 5.4375,11.46875 l -9.28125,0 c -0.64406,0 -1.15625,-0.54344 -1.15625,-1.1875 l 0,-9.125 c 0,-0.64406 0.51219,-1.15625 1.15625,-1.15625 z M 48.90625,36.0625 46.6875,37.03125 49.625,40.75 48.90625,36.0625 z M 52.4375,36.09375 51.75,40.78125 54.65625,37.0625 52.4375,36.09375 z M 44.375,39.6875 43.65625,42 l 4.71875,0.25 -4,-2.5625 z m -29.25,8.125 8.71875,0 0,2 -9,0 c 0.09114,-0.664962 0.183249,-1.326806 0.28125,-2 z m 61.03125,0 11.375,0 c 0.295551,0.712476 0.559631,1.347889 0.8125,2 l -12.1875,0 0,-2 z m -61.59375,4 9.28125,0 0,2 -9.5,0 c 0.07788,-0.65952 0.13193,-1.322009 0.21875,-2 z m 61.59375,0 12.90625,0 c 0.249857,0.716604 0.491639,1.414316 0.65625,2 l -13.5625,0 0,-2 z m -62.0625,4 9.75,0 0,2 -9.9375,0 c 0.06154,-0.659311 0.113397,-1.306584 0.1875,-2 z m 62.0625,0 14,0 c 0.0195,0.241611 -0.0048,0.458164 -0.03125,0.625 -0.05324,0.336158 -0.247599,0.817581 -0.5625,1.375 l -13.40625,0 0,-2 z"
       transform="translate(0,952.36218)"
       id="path4672-8-8"
       style="color:#000000;fill:#ffffff;fill-opacity:1;fill-rule:nonzero;stroke:none;stroke-width:10;marker:none;visibility:visible;display:inline;overflow:visible;enable-background:accumulate" />
  </g>
</svg>
