<?xml version="1.0" encoding="UTF-8" standalone="no"?>
<!-- Created with Inkscape (http://www.inkscape.org/) -->

<svg
   xmlns:dc="http://purl.org/dc/elements/1.1/"
   xmlns:cc="http://creativecommons.org/ns#"
   xmlns:rdf="http://www.w3.org/1999/02/22-rdf-syntax-ns#"
   xmlns:svg="http://www.w3.org/2000/svg"
   xmlns="http://www.w3.org/2000/svg"
   version="1.1"
   width="100"
   height="100"
   id="svg2">
  <defs
     id="defs4" />
  <metadata
     id="metadata7">
    <rdf:RDF>
      <cc:Work
         rdf:about="">
        <dc:format>image/svg+xml</dc:format>
        <dc:type
           rdf:resource="http://purl.org/dc/dcmitype/StillImage" />
        <dc:title></dc:title>
        <dc:creator>
          <cc:Agent>
            <dc:title>T. Gantt</dc:title>
          </cc:Agent>
        </dc:creator>
        <cc:license
           rdf:resource="" />
      </cc:Work>
    </rdf:RDF>
  </metadata>
  <g
     transform="translate(0,-952.36218)"
     id="layer1">
    <path
       d="m 50.000001,0 c 5.877853,1.5749647e-7 45.736469,28.958982 47.552825,34.549152 1.816356,5.59017 -13.408282,52.446784 -18.163564,55.901699 -4.755283,3.454914 -54.023243,3.454913 -58.778526,-2e-6 C 15.855454,86.995934 0.63081813,40.139319 2.4471746,34.549149 4.2635311,28.958979 44.122149,-1.5749643e-7 50.000001,0 z"
       transform="matrix(0.63639611,-0.63639612,0.63639612,0.63639611,-13.63961,1002.3622)"
       id="path4672"
       style="color:#000000;fill:#000000;fill-opacity:1;fill-rule:nonzero;stroke:none;stroke-width:10;marker:none;visibility:visible;display:inline;overflow:visible;enable-background:accumulate" />
    <path
       d="M 66.15625,11.53125 C 55.16063,11.312994 22.948557,16.738943 19.84375,19.84375 16.295399,23.392101 9.7218187,64.935067 12,69.40625 c 2.278181,4.471183 39.762406,23.597508 44.71875,22.8125 4.956344,-0.785008 34.714992,-30.543656 35.5,-35.5 C 93.003758,51.762406 73.877433,14.278182 69.40625,12 c -0.558898,-0.284773 -1.679197,-0.437571 -3.25,-0.46875 z M 65.375,13.5 c 1.492226,0.02962 2.59406,0.166973 3.125,0.4375 4.24752,2.16422 22.370739,37.791588 21.625,42.5 C 89.379261,61.145912 61.145912,89.379261 56.4375,90.125 51.729088,90.870739 16.101719,72.74752 13.9375,68.5 11.773281,64.25248 18.035399,24.777101 21.40625,21.40625 24.355745,18.456756 54.929416,13.292662 65.375,13.5 z M 37.6875,24.34375 C 37.391566,24.3588 37.175524,24.4107 37.09375,24.5 c -0.654193,0.714421 1.991697,9.009413 2.9375,9.21875 0.295563,0.06542 1.07861,-0.545605 2,-1.40625 3.347085,3.208806 5.3125,7.055959 5.3125,11.25 l 0,0.78125 5.625,0 0,-0.78125 0,-0.75 c 0,-3.964811 1.732021,-7.617191 4.75,-10.71875 1.027366,0.986835 1.928345,1.696193 2.25,1.625 0.945803,-0.209337 3.591693,-8.504329 2.9375,-9.21875 -0.654193,-0.714421 -9.17714,1.138742 -9.46875,2.0625 -0.08922,0.282636 0.438322,1.128104 1.1875,2.09375 -1.911393,1.657754 -3.524088,3.453518 -4.71875,5.40625 -1.245406,-1.845637 -2.851696,-3.563102 -4.75,-5.125 0.874454,-1.091957 1.504166,-2.064823 1.40625,-2.375 -0.255159,-0.808288 -6.803462,-2.32411 -8.875,-2.21875 z M 31.25,50.03125 c -0.685159,0 -1.25,0.369447 -1.25,0.8125 l 0,11.3125 c 0,0.443053 0.564841,0.8125 1.25,0.8125 l 37.5,0 c 0.685159,0 1.25,-0.369447 1.25,-0.8125 l 0,-11.3125 c 0,-0.443053 -0.564841,-0.8125 -1.25,-0.8125 l -37.5,0 z m 2.15625,1.375 33.1875,0 c 0.685159,0 1.21875,0.338197 1.21875,0.78125 l 0,8.59375 c 0,0.443053 -0.533591,0.8125 -1.21875,0.8125 l -33.1875,0 c -0.685159,0 -1.21875,-0.369447 -1.21875,-0.8125 l 0,-8.59375 c 0,-0.443053 0.533591,-0.78125 1.21875,-0.78125 z m 1.5625,1.375 c -0.685159,0 -1.21875,0.338197 -1.21875,0.78125 l 0,5.875 c 0,0.443053 0.533591,0.78125 1.21875,0.78125 l 11.125,0 c -1.621476,-0.844984 -2.6875,-2.189672 -2.6875,-3.71875 0,-1.529078 1.066024,-2.873766 2.6875,-3.71875 l -11.125,0 z m 18.9375,0 c 1.621476,0.844984 2.6875,2.189672 2.6875,3.71875 0,1.529078 -1.066024,2.873766 -2.6875,3.71875 l 11.125,0 c 0.685159,0 1.21875,-0.338197 1.21875,-0.78125 l 0,-5.875 c 0,-0.443053 -0.533591,-0.78125 -1.21875,-0.78125 l -11.125,0 z M 30,62.9375 l 0,1.21875 c 0,0.4431 0.564841,0.8125 1.25,0.8125 l 37.5,0 c 0.685159,0 1.25,-0.3694 1.25,-0.8125 l 0,-1.21875 c 0,0.443 -0.564841,0.78125 -1.25,0.78125 l -37.5,0 C 30.564841,63.71875 30,63.3805 30,62.9375 z m 0,2 0,1.21875 c 0,0.4431 0.564841,0.8125 1.25,0.8125 l 37.5,0 c 0.685159,0 1.25,-0.3694 1.25,-0.8125 l 0,-1.21875 c 0,0.443 -0.564841,0.78125 -1.25,0.78125 l -37.5,0 C 30.564841,65.71875 30,65.3805 30,64.9375 z m 0,2 0,1.21875 c 0,0.4431 0.564841,0.8125 1.25,0.8125 l 37.5,0 c 0.685159,0 1.25,-0.3694 1.25,-0.8125 l 0,-1.21875 c 0,0.443 -0.564841,0.78125 -1.25,0.78125 l -37.5,0 C 30.564841,67.71875 30,67.3805 30,66.9375 z m 0,2 0,1.21875 c 0,0.4431 0.564841,0.8125 1.25,0.8125 l 37.5,0 c 0.685159,0 1.25,-0.3694 1.25,-0.8125 l 0,-1.21875 c 0,0.443 -0.564841,0.78125 -1.25,0.78125 l -37.5,0 C 30.564841,69.71875 30,69.3805 30,68.9375 z"
       transform="translate(0,952.36218)"
       id="path4672-8-8"
       style="color:#000000;fill:#ffffff;fill-opacity:1;fill-rule:nonzero;stroke:none;stroke-width:10;marker:none;visibility:visible;display:inline;overflow:visible;enable-background:accumulate" />
  </g>
</svg>
