<?xml version="1.0" encoding="UTF-8" standalone="no"?>
<!-- Created with Inkscape (http://www.inkscape.org/) -->

<svg
   xmlns:dc="http://purl.org/dc/elements/1.1/"
   xmlns:cc="http://creativecommons.org/ns#"
   xmlns:rdf="http://www.w3.org/1999/02/22-rdf-syntax-ns#"
   xmlns:svg="http://www.w3.org/2000/svg"
   xmlns="http://www.w3.org/2000/svg"
   version="1.1"
   width="100"
   height="100"
   id="svg2">
  <defs
     id="defs4" />
  <metadata
     id="metadata7">
    <rdf:RDF>
      <cc:Work
         rdf:about="">
        <dc:format>image/svg+xml</dc:format>
        <dc:type
           rdf:resource="http://purl.org/dc/dcmitype/StillImage" />
        <dc:title></dc:title>
        <dc:creator>
          <cc:Agent>
            <dc:title>T. Gantt</dc:title>
          </cc:Agent>
        </dc:creator>
        <cc:license
           rdf:resource="" />
      </cc:Work>
    </rdf:RDF>
  </metadata>
  <g
     transform="translate(0,-952.36218)"
     id="layer1"
     style="display:inline">
    <path
       d="m 50.000001,0 c 5.877853,1.5749647e-7 45.736469,28.958982 47.552825,34.549152 1.816356,5.59017 -13.408282,52.446784 -18.163564,55.901699 -4.755283,3.454914 -54.023243,3.454913 -58.778526,-2e-6 C 15.855454,86.995934 0.63081813,40.139319 2.4471746,34.549149 4.2635311,28.958979 44.122149,-1.5749643e-7 50.000001,0 z"
       transform="matrix(0.84572337,-0.30781813,0.30781813,0.84572337,-7.6770743,975.46692)"
       id="path4672"
       style="color:#000000;fill:#000000;fill-opacity:1;fill-rule:nonzero;stroke:none;stroke-width:10;marker:none;visibility:visible;display:inline;overflow:visible;enable-background:accumulate" />
    <path
       d="M 36.71875,9.78125 C 36.16283,9.78965 35.700968,9.830231 35.40625,9.9375 30.690754,11.6538 7.1998701,46.516181 7.375,51.53125 c 0.1751299,5.015069 26.051268,38.179317 30.875,39.5625 4.823732,1.383183 44.350149,-12.996035 47.15625,-17.15625 2.806101,-4.160215 1.339467,-46.201913 -1.75,-50.15625 -2.896375,-3.707191 -38.598705,-14.1259741 -46.9375,-14 z m 0.6875,2.0625 c 6.741092,-0.101838 32.239542,7.067988 41.40625,11.375 L 59,43 56.90625,40.90625 C 53.370716,37.370716 47,45.125 47,45.125 l -6.9375,6.9375 c -0.783474,0.783474 -0.783474,2.029026 0,2.8125 l 0.71875,0.71875 c 0.783474,0.783474 2.029026,0.783474 2.8125,0 l 5.90625,-5.875 1.40625,1.40625 6.5625,6.5625 7.5625,7.5625 5.09375,-5.0625 0.90625,-0.90625 13.75,-13.75 c 0.575114,11.959201 0.345224,25.070302 -1.125,27.25 C 80.99052,76.733358 43.457434,90.407742 38.875,89.09375 34.292566,87.779758 9.6663694,56.295449 9.5,51.53125 9.457648,50.318433 10.884694,47.246091 13.09375,43.34375 L 28.6875,58.9375 c 0.05972,0.05972 0.124233,0.102603 0.1875,0.15625 0.05365,0.06327 0.09653,0.127784 0.15625,0.1875 l 6,5.96875 0.71875,-0.71875 c 0.618318,-0.618318 1.440725,-0.96875 2.28125,-0.96875 0.840525,0 1.662932,0.350432 2.28125,0.96875 L 41.03125,65.25 c 0.241087,0.241087 0.414271,0.522024 0.5625,0.8125 1.20668,-0.60363 2.682749,-0.425581 3.6875,0.5625 0.0064,0.0063 0.02495,-0.0063 0.03125,0 l 0.3125,0.28125 0.40625,0.375 c 1.3e-4,0.01042 1.3e-4,0.02083 0,0.03125 0.377945,0.377945 0.629136,0.831965 0.78125,1.3125 0.974419,-0.133437 1.979789,0.104789 2.71875,0.84375 l 0.21875,0.21875 0.5,0.5 c 0.401275,0.401275 0.637225,0.889831 0.78125,1.40625 0.921152,-0.07214 1.865317,0.209067 2.5625,0.90625 l 0.6875,0.6875 c 1.095236,1.095236 1.240845,2.806513 0.4375,4.0625 0.572342,0.05009 1.157078,-0.157078 1.59375,-0.59375 L 57,75.9375 c 0.783474,-0.783474 0.783474,-2.029026 0,-2.8125 l 0.3125,0.28125 c 0.783474,0.783474 2.060276,0.783474 2.84375,0 l 0.6875,-0.6875 c 0.783474,-0.783474 0.783474,-2.060276 0,-2.84375 0.783474,0.783474 2.060276,0.783474 2.84375,0 l 0.6875,-0.6875 c 0.783474,-0.783474 0.783474,-2.060276 0,-2.84375 L 56.59375,58.5625 49.5,51.46875 l -5.03125,5 c -1.257857,1.257857 -3.335894,1.257857 -4.59375,0 l -0.6875,-0.6875 C 38.59131,55.18506 38.281035,54.415034 38.25,53.625 c -0.0015,-0.03156 5.88e-4,-0.0622 0,-0.09375 -5.12e-4,-0.05214 -0.0019,-0.104143 0,-0.15625 0.0062,-0.167107 0.03098,-0.335362 0.0625,-0.5 0.03515,-0.183553 0.05843,-0.38636 0.125,-0.5625 0.0081,-0.02161 0.02264,-0.04104 0.03125,-0.0625 0.0085,-0.02123 0.02226,-0.04143 0.03125,-0.0625 0.07468,-0.175064 0.174027,-0.337999 0.28125,-0.5 0.117924,-0.179659 0.249018,-0.342768 0.40625,-0.5 l 1.46875,-1.5 L 42,48.34375 42.46875,47.875 43.6875,46.65625 43.75,46.625 46.03125,44.34375 c 0,0 0.09115,-0.09055 0.09375,-0.09375 0.02804,-0.0342 0.216796,-0.254297 0.5,-0.5625 0.266649,-0.299745 0.556689,-0.599552 1.0625,-1.09375 l 0,-0.03125 c 0.30851,-0.300838 0.652234,-0.608334 1.03125,-0.9375 0.08629,-0.07494 0.192262,-0.143123 0.28125,-0.21875 -1.16153,-0.79566 -2.405403,-1.427514 -3.59375,-1.4375 -0.68473,-0.0057 -1.342337,0.214077 -1.9375,0.6875 -0.113188,0.07403 -0.214566,0.152066 -0.3125,0.25 L 41.0625,43 24.1875,26.15625 C 29.338354,18.864819 34.288977,12.679631 36.15625,12 c 0.279976,-0.101903 0.721889,-0.148272 1.25,-0.15625 z m 9.0625,10.34375 c -2.193354,0 -3.715213,2.09169 -3.96875,3.9375 -0.692863,5.04419 7.5,10.5 7.5,10.5 0,0 8.192863,-5.45581 7.5,-10.5 -0.253537,-1.84581 -1.775396,-3.9375 -3.96875,-3.9375 -1.520508,0 -2.863904,0.87003 -3.53125,2.125 -0.667346,-1.25497 -2.010742,-2.125 -3.53125,-2.125 z m -8.4375,42.625 c -0.511238,0 -1.014513,0.202013 -1.40625,0.59375 l -0.9375,0.9375 c -0.783474,0.783474 -0.783474,2.060276 0,2.84375 l 0.6875,0.6875 c 0.783474,0.783474 2.060276,0.783474 2.84375,0 -0.783474,0.783474 -0.783474,2.060276 0,2.84375 l 0.6875,0.71875 c 0.783474,0.783474 2.060276,0.783474 2.84375,0 l 0.53125,-0.53125 c -0.67879,0.787458 -0.653727,1.971273 0.09375,2.71875 l 0.71875,0.71875 c 0.783474,0.783474 2.029026,0.783474 2.8125,0 l 0.90625,-0.875 C 47.298345,76.245783 47.40821,77.31446 48.09375,78 l 0.6875,0.6875 c 0.783474,0.783474 2.060276,0.783474 2.84375,0 l 1.78125,-1.78125 c 0.783474,-0.783474 0.783474,-2.060276 0,-2.84375 l -0.6875,-0.6875 c -0.783474,-0.783474 -2.060276,-0.783474 -2.84375,0 l -0.5,0.5 c 0.783474,-0.783474 0.783474,-2.029026 0,-2.8125 l -0.71875,-0.71875 c -0.783474,-0.783474 -2.029026,-0.783474 -2.8125,0 L 45.1875,71 c 0.751523,-0.785484 0.741475,-2.039775 -0.03125,-2.8125 L 44.4375,67.5 c -0.783474,-0.783474 -2.029026,-0.783474 -2.8125,0 l -1.46875,1.4375 c 0.783474,-0.783474 0.783474,-2.029026 0,-2.8125 L 39.4375,65.40625 C 39.045763,65.014513 38.542488,64.8125 38.03125,64.8125 z"
       transform="translate(0,952.36218)"
       id="rect3759-7-6"
       style="color:#000000;fill:#ffffff;fill-opacity:1;fill-rule:nonzero;stroke:none;stroke-width:2;marker:none;visibility:visible;display:inline;overflow:visible;enable-background:accumulate" />
  </g>
</svg>
