<?xml version="1.0" encoding="UTF-8" standalone="no"?>
<!-- Created with Inkscape (http://www.inkscape.org/) -->

<svg
   xmlns:dc="http://purl.org/dc/elements/1.1/"
   xmlns:cc="http://creativecommons.org/ns#"
   xmlns:rdf="http://www.w3.org/1999/02/22-rdf-syntax-ns#"
   xmlns:svg="http://www.w3.org/2000/svg"
   xmlns="http://www.w3.org/2000/svg"
   version="1.1"
   width="107.84375"
   height="78.90625"
   id="svg2">
  <defs
     id="defs4" />
  <metadata
     id="metadata7">
    <rdf:RDF>
      <cc:Work
         rdf:about="">
        <dc:format>image/svg+xml</dc:format>
        <dc:type
           rdf:resource="http://purl.org/dc/dcmitype/StillImage" />
        <dc:title></dc:title>
        <dc:creator>
          <cc:Agent>
            <dc:title>T. Gantt</dc:title>
          </cc:Agent>
        </dc:creator>
        <cc:license
           rdf:resource="" />
      </cc:Work>
    </rdf:RDF>
  </metadata>
  <g
     transform="translate(6.8482742,-960.24426)"
     id="layer1"
     style="display:inline">
    <path
       d="m 26.3125,8.9375 0,2 81.53125,0 0,-2 -81.53125,0 z m 0,10 0,2 11.53125,0 0,-2 -11.53125,0 z m 0,18 0,2 47.53125,0 0,-2 -47.53125,0 z m 0,10 0,2 11.53125,0 0,-2 -11.53125,0 z m 0,18 0,2 81.53125,0 0,-2 -81.53125,0 z m 0,4 0,2 21.53125,0 0,-2 -21.53125,0 z m 0,6 0,2 11.53125,0 0,-2 -11.53125,0 z"
       transform="translate(-6.8482742,960.24426)"
       id="path3807"
       style="font-size:medium;font-style:normal;font-variant:normal;font-weight:normal;font-stretch:normal;text-indent:0;text-align:start;text-decoration:none;line-height:normal;letter-spacing:normal;word-spacing:normal;text-transform:none;direction:ltr;block-progression:tb;writing-mode:lr-tb;text-anchor:start;baseline-shift:baseline;color:#000000;fill:#555555;fill-opacity:1;stroke:none;stroke-width:2;marker:none;visibility:visible;display:inline;overflow:visible;enable-background:accumulate;font-family:Sans;-inkscape-font-specification:Sans" />
    <path
       d="M 2.6875,28 C 1.2027518,28 0,29.20275 0,30.6875 l 0,17.5 c 0,1.4847 1.2027518,2.71875 2.6875,2.71875 l 16.9375,0 c 1.484748,0 2.6875,-1.23405 2.6875,-2.71875 l 0,-17.5 C 22.3125,29.20275 21.109748,28 19.625,28 L 2.6875,28 z m 1.53125,2.0625 13.875,0 c 1.217372,0 2.21875,1.00138 2.21875,2.21875 l 0,14.34375 c 0,1.2173 -1.001378,2.21875 -2.21875,2.21875 l -13.875,0 C 3.0013786,48.84375 2,47.8423 2,46.625 L 2,32.28125 C 2,31.06388 3.0013786,30.0625 4.21875,30.0625 z"
       transform="translate(-6.8482742,960.24426)"
       id="rect3758-4"
       style="font-size:medium;font-style:normal;font-variant:normal;font-weight:normal;font-stretch:normal;text-indent:0;text-align:start;text-decoration:none;line-height:normal;letter-spacing:normal;word-spacing:normal;text-transform:none;direction:ltr;block-progression:tb;writing-mode:lr-tb;text-anchor:start;baseline-shift:baseline;color:#000000;fill:#ff3fac;fill-opacity:1;fill-rule:nonzero;stroke:none;stroke-width:1.5;marker:none;visibility:visible;display:inline;overflow:visible;enable-background:accumulate;font-family:Sans;-inkscape-font-specification:Sans" />
    <path
       d="M 2.6875,0 C 1.2027518,0 0,1.20275 0,2.6875 l 0,17.5 c 0,1.48475 1.2027518,2.71875 2.6875,2.71875 l 16.9375,0 c 1.484748,0 2.6875,-1.234 2.6875,-2.71875 l 0,-17.5 C 22.3125,1.20275 21.109748,0 19.625,0 L 2.6875,0 z m 23.625,1.53125 0,5.40625 13.1875,0 0,-5.40625 -13.1875,0 z m -17.78125,2.9375 5.34375,0 c 0.223069,-1.177e-4 0.406132,0.1831824 0.40625,0.40625 1.06e-4,0.2016188 -0.150842,0.3448213 -0.34375,0.375 0.0056,0.087613 0.02648,0.2436449 0.0625,0.375 0.04498,0.1640383 0.08306,0.3060614 0.125,0.46875 0.08278,-0.2902 0.236069,-0.564665 0.40625,-0.78125 0.340362,-0.43316 0.890264,-0.68721 1.4375,-0.6875 1.255532,-5.9e-4 2.124302,1.14549 2.125,2.46875 3.53e-4,0.64967 -0.286067,1.25835 -0.71875,1.625 -0.387829,0.3286 -0.876443,0.50057 -1.28125,0.71875 -0.438804,0.23646 -0.789227,0.49227 -1.0625,0.78125 -0.273272,0.28898 -0.220553,0.46542 -0.21875,1 0.0011,0.33054 -0.202666,0.46866 -0.4375,0.46875 -0.220662,0 -0.359779,-0.181152 -0.375,-0.3125 -0.519183,0.709488 -1.286776,1.215837 -2.1875,1.375 l 0.03125,1.46875 c 0.197048,0.1069 0.312404,0.35656 0.3125,0.53125 8.7e-5,0.16861 -0.127065,0.331663 -0.3125,0.4375 l 0,0.5 c 0.197048,0.1069 0.312411,0.35662 0.3125,0.53125 1.6e-5,0.02982 -0.02426,0.06518 -0.03125,0.09375 1.000024,0.237915 1.718384,0.87795 1.71875,1.59375 l 0,0.53125 -5.28125,0 0,-0.53125 c -3.802e-4,-0.721008 0.7408912,-1.327452 1.75,-1.5625 -0.01368,-0.03934 -0.06248,-0.08304 -0.0625,-0.125 -9.5e-5,-0.17469 0.146816,-0.42411 0.34375,-0.53125 l 0,-0.46875 C 10.390079,15.112684 10.250094,14.927892 10.25,14.75 c -9.1e-5,-0.17463 0.146812,-0.42413 0.34375,-0.53125 l 0,-1.46875 c -0.9214883,-0.163246 -1.7313072,-0.670743 -2.25,-1.40625 0.00189,0.12909 -0.140171,0.3436 -0.375,0.34375 C 7.7339165,11.68762 7.4992341,11.54934 7.5,11.21875 7.50124,10.6842 7.55483,10.50744 7.28125,10.21875 7.0076708,9.93005 6.6890525,9.70471 6.25,9.46875 5.8449637,9.25101 5.3569223,9.04697 4.96875,8.71875 4.5356768,8.35259 4.2191035,7.77466 4.21875,7.125 4.2180524,5.80174 5.0882176,4.62559 6.34375,4.625 6.8909856,4.62471 7.4716813,4.8797 7.8125,5.3125 8.0287825,5.5871679 8.1734289,5.9597274 8.25,6.34375 8.3088534,6.105764 8.3402083,5.8981238 8.40625,5.65625 8.439913,5.5329585 8.4621814,5.379727 8.46875,5.28125 8.2758103,5.2512749 8.1251064,5.0766188 8.125,4.875 8.1248823,4.6519324 8.3081813,4.4688677 8.53125,4.46875 z m -2.1875,0.75 C 5.5840305,5.21915 4.9369403,6.05079 4.9375,7.125 4.9377795,7.65393 5.089811,7.98501 5.375,8.28125 5.6601898,8.57749 6.0706733,8.81726 6.46875,9.03125 6.9141228,9.27064 7.3436709,9.51215 7.6875,9.875 7.717733,9.906904 7.7519528,9.9352658 7.78125,9.96875 7.7425629,9.7611839 7.718864,9.5625189 7.71875,9.34375 7.7185126,8.8956434 7.83314,8.1503975 8,7.34375 7.8534935,7.3431583 7.499188,7.3524816 7.5,7 7.5012417,6.46248 7.6096696,6.08768 7.34375,5.75 7.077831,5.4123 6.7236096,5.21862 6.34375,5.21875 z m 9.625,0 c -0.37986,1.3e-4 -0.734437,0.19328 -1,0.53125 -0.265562,0.33797 -0.158059,0.71248 -0.15625,1.25 10e-4,0.2974063 -0.238248,0.3325488 -0.40625,0.34375 0.169216,0.8041286 0.281022,1.5215535 0.28125,1.96875 10e-5,0.1885656 -0.03375,0.3820294 -0.0625,0.5625 0.343443,-0.36319 0.773627,-0.60391 1.21875,-0.84375 0.397851,-0.21441 0.808875,-0.45344 1.09375,-0.75 0.284874,-0.29656 0.469029,-0.65857 0.46875,-1.1875 -5.6e-4,-1.07421 -0.677781,-1.8754 -1.4375,-1.875 z m -12.4375,24.3125 c -1.082221,0 -1.96875,0.855279 -1.96875,1.9375 l 0,15.96875 c 0,1.082221 0.886529,1.9375 1.96875,1.9375 l 15.28125,0 c 1.082221,0 1.9375,-0.855279 1.9375,-1.9375 l 0,-15.96875 c 0,-1.082221 -0.855279,-1.9375 -1.9375,-1.9375 l -15.28125,0 z m 22.78125,0 0,5.40625 20.78125,0 0,-5.40625 -20.78125,0 z m -17.78125,2.9375 5.34375,0 c 0.223069,-1.18e-4 0.406132,0.183182 0.40625,0.40625 1.06e-4,0.201619 -0.150842,0.344821 -0.34375,0.375 0.0056,0.08761 0.02648,0.243645 0.0625,0.375 0.04498,0.164038 0.08306,0.306061 0.125,0.46875 0.08278,-0.2902 0.236069,-0.564665 0.40625,-0.78125 0.340362,-0.43316 0.890264,-0.68721 1.4375,-0.6875 1.255532,-5.9e-4 2.124302,1.14549 2.125,2.46875 3.53e-4,0.64967 -0.286067,1.25835 -0.71875,1.625 -0.387829,0.3286 -0.876443,0.50057 -1.28125,0.71875 -0.438804,0.23646 -0.789227,0.49227 -1.0625,0.78125 -0.273272,0.28898 -0.220553,0.46542 -0.21875,1 0.0011,0.33054 -0.202666,0.46866 -0.4375,0.46875 -0.220662,0 -0.359779,-0.181152 -0.375,-0.3125 -0.519183,0.709491 -1.286776,1.215837 -2.1875,1.375 l 0.03125,1.46875 c 0.197048,0.1069 0.312404,0.35655 0.3125,0.53125 8.7e-5,0.168594 -0.127065,0.331656 -0.3125,0.4375 l 0,0.5 c 0.197048,0.1069 0.312411,0.35655 0.3125,0.53125 2.2e-5,0.04196 -0.04886,0.08563 -0.0625,0.125 1.015349,0.232855 1.749631,0.839768 1.75,1.5625 l 0,0.53125 -5.28125,0 0,-0.53125 c -3.802e-4,-0.721016 0.7408912,-1.327448 1.75,-1.5625 -0.01368,-0.03935 -0.06248,-0.08303 -0.0625,-0.125 -9.5e-5,-0.1746 0.146816,-0.42415 0.34375,-0.53125 l 0,-0.46875 C 10.390079,43.112683 10.250094,42.927876 10.25,42.75 c -9.1e-5,-0.1747 0.146812,-0.42405 0.34375,-0.53125 l 0,-1.46875 c -0.9214883,-0.163247 -1.7313072,-0.670741 -2.25,-1.40625 0.00189,0.12909 -0.140171,0.3436 -0.375,0.34375 C 7.7339165,39.68762 7.4992341,39.54934 7.5,39.21875 c 0.00124,-0.53455 0.05483,-0.71131 -0.21875,-1 -0.2735792,-0.2887 -0.5921975,-0.51404 -1.03125,-0.75 -0.4050363,-0.21774 -0.8930777,-0.42178 -1.28125,-0.75 -0.4330732,-0.36616 -0.7496465,-0.94409 -0.75,-1.59375 -6.976e-4,-1.32326 0.8694676,-2.49941 2.125,-2.5 0.5472356,-2.9e-4 1.1279313,0.2547 1.46875,0.6875 0.2162825,0.274668 0.3609289,0.647227 0.4375,1.03125 0.058853,-0.237986 0.090208,-0.445626 0.15625,-0.6875 0.033663,-0.123292 0.055931,-0.276523 0.0625,-0.375 C 8.2758103,33.251275 8.1251064,33.076619 8.125,32.875 8.1248823,32.651932 8.3081813,32.468868 8.53125,32.46875 z m -2.1875,0.75 c -0.7597195,4e-4 -1.4068097,0.83204 -1.40625,1.90625 2.795e-4,0.52893 0.152311,0.86001 0.4375,1.15625 0.2851898,0.29624 0.6956733,0.53601 1.09375,0.75 0.4453728,0.23939 0.8749209,0.4809 1.21875,0.84375 0.030233,0.0319 0.064453,0.06027 0.09375,0.09375 C 7.742563,37.761184 7.718864,37.562519 7.71875,37.34375 7.7185126,36.895643 7.83314,36.150398 8,35.34375 7.8534935,35.343158 7.499188,35.352482 7.5,35 7.50124,34.46248 7.6096696,34.08768 7.34375,33.75 c -0.265919,-0.3377 -0.6201404,-0.53138 -1,-0.53125 z m 9.625,0 c -0.37986,1.3e-4 -0.734437,0.19328 -1,0.53125 -0.265562,0.33797 -0.158059,0.71248 -0.15625,1.25 10e-4,0.297406 -0.238248,0.332549 -0.40625,0.34375 0.169216,0.804129 0.281022,1.521554 0.28125,1.96875 10e-5,0.188566 -0.03375,0.382029 -0.0625,0.5625 0.343443,-0.36319 0.773627,-0.60391 1.21875,-0.84375 0.397851,-0.21441 0.808875,-0.45344 1.09375,-0.75 0.284874,-0.29656 0.469029,-0.65857 0.46875,-1.1875 -5.6e-4,-1.07421 -0.677781,-1.8754 -1.4375,-1.875 z M 2.6875,56 C 1.2027518,56 0,57.2028 0,58.6875 l 0,17.5 c 0,1.4847 1.2027518,2.71875 2.6875,2.71875 l 16.9375,0 c 1.484748,0 2.6875,-1.23405 2.6875,-2.71875 l 0,-17.5 C 22.3125,57.2028 21.109748,56 19.625,56 L 2.6875,56 z m 23.625,1.53125 0,5.40625 16,0 0,-5.40625 -16,0 z m -17.78125,2.9375 5.34375,0 c 0.223069,-1.18e-4 0.406132,0.183182 0.40625,0.40625 1.06e-4,0.201619 -0.150842,0.344821 -0.34375,0.375 0.0056,0.08761 0.02648,0.243629 0.0625,0.375 0.04498,0.164033 0.08306,0.306065 0.125,0.46875 0.08278,-0.2902 0.236069,-0.5647 0.40625,-0.78125 0.340362,-0.4332 0.890264,-0.6872 1.4375,-0.6875 1.255532,-5e-4 2.124302,1.14545 2.125,2.46875 3.53e-4,0.6496 -0.286067,1.2583 -0.71875,1.625 -0.387829,0.3286 -0.876443,0.50055 -1.28125,0.71875 -0.438804,0.2365 -0.789227,0.49225 -1.0625,0.78125 -0.273272,0.289 -0.220553,0.4654 -0.21875,1 0.0011,0.3306 -0.202666,0.46865 -0.4375,0.46875 -0.220662,0 -0.359779,-0.181136 -0.375,-0.3125 -0.519183,0.709475 -1.286776,1.21584 -2.1875,1.375 l 0.03125,1.46875 c 0.197048,0.1069 0.312404,0.35655 0.3125,0.53125 8.7e-5,0.168647 -0.127065,0.33167 -0.3125,0.4375 l 0,0.5 c 0.197048,0.1069 0.312411,0.35665 0.3125,0.53125 2.2e-5,0.04197 -0.04886,0.08563 -0.0625,0.125 1.015349,0.232859 1.749631,0.839689 1.75,1.5625 l 0,0.53125 -5.28125,0 0,-0.53125 c -3.802e-4,-0.721016 0.7408912,-1.327475 1.75,-1.5625 -0.01368,-0.03934 -0.06248,-0.08304 -0.0625,-0.125 -9.5e-5,-0.1747 0.146816,-0.42405 0.34375,-0.53125 l 0,-0.46875 C 10.390079,71.112689 10.250094,70.927931 10.25,70.75 c -9.1e-5,-0.1746 0.146812,-0.42415 0.34375,-0.53125 l 0,-1.46875 c -0.9214883,-0.163212 -1.7313072,-0.670734 -2.25,-1.40625 0.00189,0.1291 -0.140171,0.34365 -0.375,0.34375 -0.2348335,1e-4 -0.4695159,-0.13815 -0.46875,-0.46875 0.00124,-0.5345 0.05483,-0.7113 -0.21875,-1 -0.2735792,-0.2887 -0.5921975,-0.514 -1.03125,-0.75 -0.4050363,-0.2177 -0.8930777,-0.4218 -1.28125,-0.75 -0.4330732,-0.3661 -0.7496465,-0.94415 -0.75,-1.59375 -6.976e-4,-1.3233 0.8694676,-2.4994 2.125,-2.5 0.5472356,-3e-4 1.1279313,0.2547 1.46875,0.6875 0.2162825,0.274662 0.3609289,0.647226 0.4375,1.03125 0.058853,-0.237988 0.090208,-0.445623 0.15625,-0.6875 0.033663,-0.123254 0.055931,-0.276522 0.0625,-0.375 C 8.2758103,61.251275 8.1251064,61.076619 8.125,60.875 8.1248823,60.651932 8.3081813,60.468868 8.53125,60.46875 z m -2.1875,0.75 c -0.7597195,4e-4 -1.4068097,0.83205 -1.40625,1.90625 2.795e-4,0.5289 0.152311,0.85995 0.4375,1.15625 0.2851898,0.2962 0.6956733,0.536 1.09375,0.75 0.4453728,0.2394 0.8749209,0.48095 1.21875,0.84375 0.030233,0.0319 0.064453,0.06027 0.09375,0.09375 C 7.742563,65.761182 7.718864,65.56252 7.71875,65.34375 7.7185126,64.895643 7.83314,64.150402 8,63.34375 7.8534935,63.343101 7.499188,63.352539 7.5,63 7.50124,62.4625 7.6096696,62.0877 7.34375,61.75 c -0.265919,-0.3376 -0.6201404,-0.53135 -1,-0.53125 z m 9.625,0 c -0.37986,1e-4 -0.734437,0.19335 -1,0.53125 -0.265562,0.338 -0.158059,0.7125 -0.15625,1.25 10e-4,0.297374 -0.238248,0.332522 -0.40625,0.34375 0.169216,0.804132 0.281022,1.521536 0.28125,1.96875 10e-5,0.188561 -0.03375,0.382034 -0.0625,0.5625 0.343443,-0.3632 0.773627,-0.60385 1.21875,-0.84375 0.397851,-0.2144 0.808875,-0.4535 1.09375,-0.75 0.284874,-0.2966 0.469029,-0.6585 0.46875,-1.1875 -5.6e-4,-1.0742 -0.677781,-1.8754 -1.4375,-1.875 z"
       transform="translate(-6.8482742,960.24426)"
       id="rect3805"
       style="color:#000000;fill:#000000;fill-opacity:1;fill-rule:nonzero;stroke:none;stroke-width:1;marker:none;visibility:visible;display:inline;overflow:visible;enable-background:accumulate" />
  </g>
</svg>
