<?xml version="1.0" encoding="UTF-8" standalone="no"?>
<!-- Created with Inkscape (http://www.inkscape.org/) -->

<svg
   xmlns:dc="http://purl.org/dc/elements/1.1/"
   xmlns:cc="http://creativecommons.org/ns#"
   xmlns:rdf="http://www.w3.org/1999/02/22-rdf-syntax-ns#"
   xmlns:svg="http://www.w3.org/2000/svg"
   xmlns="http://www.w3.org/2000/svg"
   version="1.1"
   width="100"
   height="100"
   id="svg2">
  <defs
     id="defs4" />
  <metadata
     id="metadata7">
    <rdf:RDF>
      <cc:Work
         rdf:about="">
        <dc:format>image/svg+xml</dc:format>
        <dc:type
           rdf:resource="http://purl.org/dc/dcmitype/StillImage" />
        <dc:title></dc:title>
        <dc:creator>
          <cc:Agent>
            <dc:title>T. Gantt</dc:title>
          </cc:Agent>
        </dc:creator>
        <cc:license
           rdf:resource="" />
      </cc:Work>
    </rdf:RDF>
  </metadata>
  <g
     transform="translate(0,-952.36218)"
     id="layer1"
     style="display:inline">
    <path
       d="m 50.000001,0 c 5.877853,1.5749647e-7 45.736469,28.958982 47.552825,34.549152 1.816356,5.59017 -13.408282,52.446784 -18.163564,55.901699 -4.755283,3.454914 -54.023243,3.454913 -58.778526,-2e-6 C 15.855454,86.995934 0.63081813,40.139319 2.4471746,34.549149 4.2635311,28.958979 44.122149,-1.5749643e-7 50.000001,0 z"
       transform="matrix(0.38035643,-0.81567702,0.81567702,0.38035643,-9.8016709,1024.1282)"
       id="path4672"
       style="color:#000000;fill:#000000;fill-opacity:1;fill-rule:nonzero;stroke:none;stroke-width:10;marker:none;visibility:visible;display:inline;overflow:visible;enable-background:accumulate" />
    <path
       d="M 54.6875,7.65625 C 47.99948,8.3006423 13.429478,27.594157 11.375,32 c -2.1207518,4.547967 5.892475,45.827646 9.5625,49.25 3.670025,3.422354 45.423548,8.557836 49.8125,6.125 4.388952,-2.432836 22.176253,-40.574071 21.21875,-45.5 C 91.011247,36.949071 60.230722,8.2678058 55.25,7.65625 c -0.155648,-0.019111 -0.346757,-0.020787 -0.5625,0 z M 54.53125,9.8125 c 0.20495,-0.019747 0.352138,-0.018155 0.5,0 4.73157,0.580964 33.965394,27.820482 34.875,32.5 C 90.815856,46.992018 73.919402,83.220113 69.75,85.53125 65.580598,87.842387 25.923938,82.969907 22.4375,79.71875 18.951062,76.467593 11.329085,37.226713 13.34375,32.90625 15.295457,28.720802 48.177786,10.424658 54.53125,9.8125 z m -12.09375,15 c -8.300995,0 -15.03125,5.156452 -15.03125,11.53125 0,3.8017 2.401114,7.178163 6.09375,9.28125 0.0035,0.09667 0.03125,0.183269 0.03125,0.28125 0,2.456751 -1.054291,4.66713 -2.75,6.1875 2.787652,-0.517922 5.072976,-2.437112 6.125,-5 1.714362,0.522313 3.574729,0.8125 5.53125,0.8125 8.300995,0 15.03125,-5.187702 15.03125,-11.5625 0,-6.374798 -6.730255,-11.53125 -15.03125,-11.53125 z m -8.625,6.53125 17.28125,0 0,2 -17.28125,0 0,-2 z m 0,4 17.28125,0 0,2 -17.28125,0 0,-2 z m 0,4 12.0625,0 0,2 -12.0625,0 0,-2 z m 23.75,8.5625 c -8.300995,0 -15.03125,5.156452 -15.03125,11.53125 0,6.374798 6.730255,11.5625 15.03125,11.5625 1.956521,0 3.816888,-0.290187 5.53125,-0.8125 1.052024,2.562888 3.337348,4.482078 6.125,5 -1.695709,-1.52037 -2.75,-3.730749 -2.75,-6.1875 0,-0.09501 0.02795,-0.187468 0.03125,-0.28125 3.696752,-2.102801 6.09375,-5.477063 6.09375,-9.28125 0,-6.374798 -6.730255,-11.53125 -15.03125,-11.53125 z m -8.65625,8.53125 17.28125,0 0,2 -17.28125,0 0,-2 z m 0,4 13.28125,0 0,2 -13.28125,0 0,-2 z"
       transform="translate(0,952.36218)"
       id="path4672-8-8"
       style="color:#000000;fill:#ffffff;fill-opacity:1;fill-rule:nonzero;stroke:none;stroke-width:10;marker:none;visibility:visible;display:inline;overflow:visible;enable-background:accumulate" />
  </g>
</svg>
