<?xml version="1.0" encoding="UTF-8" standalone="no"?>
<!-- Created with Inkscape (http://www.inkscape.org/) -->

<svg
   xmlns:dc="http://purl.org/dc/elements/1.1/"
   xmlns:cc="http://creativecommons.org/ns#"
   xmlns:rdf="http://www.w3.org/1999/02/22-rdf-syntax-ns#"
   xmlns:svg="http://www.w3.org/2000/svg"
   xmlns="http://www.w3.org/2000/svg"
   version="1.1"
   width="100"
   height="100"
   id="svg2">
  <defs
     id="defs4" />
  <metadata
     id="metadata7">
    <rdf:RDF>
      <cc:Work
         rdf:about="">
        <dc:format>image/svg+xml</dc:format>
        <dc:type
           rdf:resource="http://purl.org/dc/dcmitype/StillImage" />
        <dc:title></dc:title>
        <dc:creator>
          <cc:Agent>
            <dc:title>T. Gantt</dc:title>
          </cc:Agent>
        </dc:creator>
        <cc:license
           rdf:resource="" />
      </cc:Work>
    </rdf:RDF>
  </metadata>
  <g
     transform="translate(0,-952.36218)"
     id="layer1">
    <path
       d="m 50.000001,0 c 5.877853,1.5749647e-7 45.736469,28.958982 47.552825,34.549152 1.816356,5.59017 -13.408282,52.446784 -18.163564,55.901699 -4.755283,3.454914 -54.023243,3.454913 -58.778526,-2e-6 C 15.855454,86.995934 0.63081813,40.139319 2.4471746,34.549149 4.2635311,28.958979 44.122149,-1.5749643e-7 50.000001,0 z"
       transform="matrix(0.81567702,-0.38035644,0.38035644,0.81567702,-9.8016722,980.59615)"
       id="path4672"
       style="color:#000000;fill:#000000;fill-opacity:1;fill-rule:nonzero;stroke:none;stroke-width:10;marker:none;visibility:visible;display:inline;overflow:visible;enable-background:accumulate" />
    <path
       d="M 34.15625,11.03125 C 33.145515,11.063663 32.426372,11.17618 32,11.375 27.452033,13.495751 7.0446945,50.269278 7.65625,55.25 8.2678055,60.230722 36.949071,91.011246 41.875,91.96875 46.800929,92.926254 84.942164,75.138952 87.375,70.75 89.807836,66.361048 84.672353,24.607525 81.25,20.9375 78.148492,17.61154 43.926688,10.717922 34.15625,11.03125 z m 0.84375,2 c 9.28169,-0.297654 41.77239,6.246665 44.71875,9.40625 3.251156,3.486439 8.123638,43.143098 5.8125,47.3125 C 83.220112,73.919402 46.992018,90.815856 42.3125,89.90625 37.632982,88.996644 10.393464,59.76282 9.8125,55.03125 9.2315364,50.29968 28.585787,15.358415 32.90625,13.34375 33.311293,13.154875 34.039825,13.062042 35,13.03125 z m -0.1875,16.0625 c -1.564146,0 -2.84375,1.248354 -2.84375,2.8125 l 0,18.625 c 0,1.564146 1.279604,2.8125 2.84375,2.8125 l 30.375,0 c 1.564146,0 2.84375,-1.248354 2.84375,-2.8125 l 0,-18.625 c 0,-1.564146 -1.279604,-2.8125 -2.84375,-2.8125 l -30.375,0 z m 2.21875,2 25.9375,0 c 1.564146,0 2.84375,1.248354 2.84375,2.8125 l 0,14.625 c 0,1.564146 -1.279604,2.8125 -2.84375,2.8125 l -25.9375,0 c -1.564146,0 -2.84375,-1.248354 -2.84375,-2.8125 l 0,-14.625 c 0,-1.564146 1.279604,-2.8125 2.84375,-2.8125 z M 46.71875,37.5 c -0.0677,0.01422 -0.127084,0.03333 -0.15625,0.0625 -0.466654,0.466654 1.081288,6.204193 1.71875,6.375 0.248242,0.06652 1.046021,-0.521881 1.90625,-1.3125 l 2.25,2.25 c 0.277,0.277 0.723,0.277 1,0 l 0.4375,-0.4375 c 0.277,-0.277 0.277,-0.723 0,-1 l -2.25,-2.25 c 0.790619,-0.860229 1.379016,-1.658008 1.3125,-1.90625 C 52.777368,38.68363 47.734189,37.286712 46.71875,37.5 z M 34.8125,55.34375 c -1.564146,0 -2.84375,1.248354 -2.84375,2.8125 l 0,9.9375 c 0,1.564146 1.279604,2.8125 2.84375,2.8125 l 30.375,0 c 1.564146,0 2.84375,-1.248354 2.84375,-2.8125 l 0,-9.9375 c 0,-1.564146 -1.279604,-2.8125 -2.84375,-2.8125 l -30.375,0 z m 0,1.65625 2.1875,0 0,2 -2.1875,0 0,-2 z M 39,57 l 2,0 0,2 -2,0 0,-2 z m 4,0 2,0 0,2 -2,0 0,-2 z m 4,0 2,0 0,2 -2,0 0,-2 z m 4,0 2,0 0,2 -2,0 0,-2 z m 4,0 2,0 0,2 -2,0 0,-2 z m 4,0 2,0 0,2 -2,0 0,-2 z m 4,0 2.1875,0 0,2 L 63,59 63,57 z m -28.1875,3.03125 2.1875,0 0,2 -2.1875,0 0,-2 z m 4.1875,0 2,0 0,2 -2,0 0,-2 z m 4,0 2,0 0,2 -2,0 0,-2 z m 4,0 2,0 0,2 -2,0 0,-2 z m 4,0 2,0 0,2 -2,0 0,-2 z m 4,0 2,0 0,2 -2,0 0,-2 z m 4,0 2,0 0,2 -2,0 0,-2 z m 4,0 2.1875,0 0,2 -2.1875,0 0,-2 z m -28.1875,3.03125 2.1875,0 0,2 -2.1875,0 0,-2 z m 4.1875,0 2,0 0,2 -2,0 0,-2 z m 4,0 14,0 0,2 -14,0 0,-2 z m 16,0 2,0 0,2 -2,0 0,-2 z m 4,0 2.1875,0 0,2 -2.1875,0 0,-2 z m -16.9375,3.03125 7.875,0 c 0.460043,0 0.84375,0.383707 0.84375,0.84375 l 0,1.34375 c 0,0.460043 -0.383707,0.8125 -0.84375,0.8125 l -7.875,0 c -0.460043,0 -0.84375,-0.352457 -0.84375,-0.8125 l 0,-1.34375 c 0,-0.460043 0.383707,-0.84375 0.84375,-0.84375 z"
       transform="translate(0,952.36218)"
       id="path4672-8-8"
       style="color:#000000;fill:#ffffff;fill-opacity:1;fill-rule:nonzero;stroke:none;stroke-width:10;marker:none;visibility:visible;display:inline;overflow:visible;enable-background:accumulate" />
  </g>
</svg>
