<?xml version="1.0" encoding="UTF-8" standalone="no"?>
<!-- Created with Inkscape (http://www.inkscape.org/) -->

<svg
   xmlns:dc="http://purl.org/dc/elements/1.1/"
   xmlns:cc="http://creativecommons.org/ns#"
   xmlns:rdf="http://www.w3.org/1999/02/22-rdf-syntax-ns#"
   xmlns:svg="http://www.w3.org/2000/svg"
   xmlns="http://www.w3.org/2000/svg"
   version="1.1"
   width="156.1875"
   height="116.125"
   id="svg2">
  <defs
     id="defs4" />
  <metadata
     id="metadata7">
    <rdf:RDF>
      <cc:Work
         rdf:about="">
        <dc:format>image/svg+xml</dc:format>
        <dc:type
           rdf:resource="http://purl.org/dc/dcmitype/StillImage" />
        <dc:title></dc:title>
        <dc:creator>
          <cc:Agent>
            <dc:title>T. Gantt</dc:title>
          </cc:Agent>
        </dc:creator>
        <cc:license
           rdf:resource="" />
      </cc:Work>
    </rdf:RDF>
  </metadata>
  <g
     transform="translate(6.84205,-960.23702)"
     id="layer1"
     style="display:inline">
    <path
       d="M 7.0625,3.21875 C 5.0985356,3.21875 3.5,4.81729 3.5,6.78125 l 0,109 c 0,1.9639 1.5985356,3.5625 3.5625,3.5625 l 149.03125,0 c 1.96396,0 3.59375,-1.5986 3.59375,-3.5625 l 0,-109 c 0,-1.96396 -1.62979,-3.5625 -3.59375,-3.5625 l -149.03125,0 z M 5,14.3125 l 153.1875,0 0,101.46875 c 0,1.1589 -0.93484,2.0625 -2.09375,2.0625 l -149.03125,0 C 5.9035899,117.84375 5,116.94015 5,115.78125 L 5,14.3125 z M 16.625,20.5 c -2.261689,0 -4.125,1.86331 -4.125,4.125 l 0,13.25 c 0,2.26169 1.863311,4.125 4.125,4.125 l 19.125,0 c 2.261689,0 4.125,-1.86331 4.125,-4.125 l 0,-13.25 c 0,-2.26169 -1.863311,-4.125 -4.125,-4.125 l -19.125,0 z m 36.9375,0 c -2.261689,0 -4.125,1.86331 -4.125,4.125 l 0,13.25 c 0,2.26169 1.863311,4.125 4.125,4.125 l 19.125,0 c 2.261689,0 4.125,-1.86331 4.125,-4.125 l 0,-13.25 c 0,-2.26169 -1.863311,-4.125 -4.125,-4.125 l -19.125,0 z m 36.90625,0 c -2.261689,0 -4.09375,1.86331 -4.09375,4.125 l 0,13.25 c 0,2.26169 1.832061,4.125 4.09375,4.125 l 19.15625,0 c 2.26169,0 4.09375,-1.86331 4.09375,-4.125 l 0,-13.25 c 0,-2.26169 -1.83206,-4.125 -4.09375,-4.125 l -19.15625,0 z m 36.9375,0 c -2.26169,0 -4.09375,1.86331 -4.09375,4.125 l 0,13.25 c 0,2.26169 1.83206,4.125 4.09375,4.125 l 19.15625,0 c 2.26169,0 4.09375,-1.86331 4.09375,-4.125 l 0,-13.25 c 0,-2.26169 -1.83206,-4.125 -4.09375,-4.125 l -19.15625,0 z M 16.625,22 35.75,22 c 1.456635,0 2.625,1.16836 2.625,2.625 l 0,13.25 c 0,1.45663 -1.168365,2.625 -2.625,2.625 l -19.125,0 C 15.168365,40.5 14,39.33163 14,37.875 l 0,-13.25 C 14,23.16836 15.168365,22 16.625,22 z m 36.9375,0 19.125,0 c 1.456635,0 2.625,1.16836 2.625,2.625 l 0,13.25 c 0,1.45663 -1.168365,2.625 -2.625,2.625 l -19.125,0 c -1.456635,0 -2.625,-1.16837 -2.625,-2.625 l 0,-13.25 c 0,-1.45664 1.168365,-2.625 2.625,-2.625 z m 36.90625,0 19.15625,0 c 1.45663,0 2.59375,1.16836 2.59375,2.625 l 0,13.25 c 0,1.45663 -1.13712,2.625 -2.59375,2.625 l -19.15625,0 C 89.012115,40.5 87.875,39.33163 87.875,37.875 l 0,-13.25 C 87.875,23.16836 89.012115,22 90.46875,22 z m 36.9375,0 19.15625,0 c 1.45663,0 2.59375,1.16836 2.59375,2.625 l 0,13.25 c 0,1.45663 -1.13712,2.625 -2.59375,2.625 l -19.15625,0 c -1.45663,0 -2.59375,-1.16837 -2.59375,-2.625 l 0,-13.25 c 0,-1.45664 1.13712,-2.625 2.59375,-2.625 z M 16.625,52.34375 c -2.261689,0 -4.125,1.83205 -4.125,4.09375 l 0,13.28125 c 0,2.2617 1.863311,4.09375 4.125,4.09375 l 19.125,0 c 2.261689,0 4.125,-1.83205 4.125,-4.09375 l 0,-13.28125 c 0,-2.2617 -1.863311,-4.09375 -4.125,-4.09375 l -19.125,0 z m 73.84375,0 c -2.261689,0 -4.09375,1.83205 -4.09375,4.09375 l 0,13.28125 c 0,2.2617 1.832061,4.09375 4.09375,4.09375 l 19.15625,0 c 2.26169,0 4.09375,-1.83205 4.09375,-4.09375 l 0,-13.28125 c 0,-2.2617 -1.83206,-4.09375 -4.09375,-4.09375 l -19.15625,0 z m 36.9375,0 c -2.26169,0 -4.09375,1.83205 -4.09375,4.09375 l 0,13.28125 c 0,2.2617 1.83206,4.09375 4.09375,4.09375 l 19.15625,0 c 2.26169,0 4.09375,-1.83205 4.09375,-4.09375 l 0,-13.28125 c 0,-2.2617 -1.83206,-4.09375 -4.09375,-4.09375 l -19.15625,0 z m -110.78125,1.5 19.125,0 c 1.456635,0 2.625,1.13715 2.625,2.59375 l 0,13.28125 c 0,1.4566 -1.168365,2.59375 -2.625,2.59375 l -19.125,0 C 15.168365,72.3125 14,71.17535 14,69.71875 L 14,56.4375 c 0,-1.4566 1.168365,-2.59375 2.625,-2.59375 z m 73.84375,0 19.15625,0 c 1.45663,0 2.59375,1.13715 2.59375,2.59375 l 0,13.28125 c 0,1.4566 -1.13712,2.59375 -2.59375,2.59375 l -19.15625,0 c -1.456635,0 -2.59375,-1.13715 -2.59375,-2.59375 l 0,-13.28125 c 0,-1.4566 1.137115,-2.59375 2.59375,-2.59375 z m 36.9375,0 19.15625,0 c 1.45663,0 2.59375,1.13715 2.59375,2.59375 l 0,13.28125 c 0,1.4566 -1.13712,2.59375 -2.59375,2.59375 l -19.15625,0 c -1.45663,0 -2.59375,-1.13715 -2.59375,-2.59375 l 0,-13.28125 c 0,-1.4566 1.13712,-2.59375 2.59375,-2.59375 z M 16.625,84.15625 c -2.261689,0 -4.125,1.8633 -4.125,4.125 l 0,13.28125 c 0,2.2617 1.863311,4.09375 4.125,4.09375 l 19.125,0 c 2.261689,0 4.125,-1.83205 4.125,-4.09375 l 0,-13.28125 c 0,-2.2617 -1.863311,-4.125 -4.125,-4.125 l -19.125,0 z m 36.9375,0 c -2.261689,0 -4.125,1.8633 -4.125,4.125 l 0,13.28125 c 0,2.2617 1.863311,4.09375 4.125,4.09375 l 19.125,0 c 2.261689,0 4.125,-1.83205 4.125,-4.09375 l 0,-13.28125 c 0,-2.2617 -1.863311,-4.125 -4.125,-4.125 l -19.125,0 z m 36.90625,0 c -2.261689,0 -4.09375,1.8633 -4.09375,4.125 l 0,13.28125 c 0,2.2617 1.832061,4.09375 4.09375,4.09375 l 19.15625,0 c 2.26169,0 4.09375,-1.83205 4.09375,-4.09375 l 0,-13.28125 c 0,-2.2617 -1.83206,-4.125 -4.09375,-4.125 l -19.15625,0 z m 36.9375,0 c -2.26169,0 -4.09375,1.8633 -4.09375,4.125 l 0,13.28125 c 0,2.2617 1.83206,4.09375 4.09375,4.09375 l 19.15625,0 c 2.26169,0 4.09375,-1.83205 4.09375,-4.09375 l 0,-13.28125 c 0,-2.2617 -1.83206,-4.125 -4.09375,-4.125 l -19.15625,0 z m -110.78125,1.5 19.125,0 c 1.456635,0 2.625,1.1683 2.625,2.625 l 0,13.28125 c 0,1.4567 -1.168365,2.59375 -2.625,2.59375 l -19.125,0 c -1.456635,0 -2.625,-1.13705 -2.625,-2.59375 l 0,-13.28125 c 0,-1.4567 1.168365,-2.625 2.625,-2.625 z m 36.9375,0 19.125,0 c 1.456635,0 2.625,1.1683 2.625,2.625 l 0,13.28125 c 0,1.4567 -1.168365,2.59375 -2.625,2.59375 l -19.125,0 c -1.456635,0 -2.625,-1.13705 -2.625,-2.59375 l 0,-13.28125 c 0,-1.4567 1.168365,-2.625 2.625,-2.625 z m 36.90625,0 19.15625,0 c 1.45663,0 2.59375,1.1683 2.59375,2.625 l 0,13.28125 c 0,1.4567 -1.13712,2.59375 -2.59375,2.59375 l -19.15625,0 c -1.456635,0 -2.59375,-1.13705 -2.59375,-2.59375 l 0,-13.28125 c 0,-1.4567 1.137115,-2.625 2.59375,-2.625 z m 36.9375,0 19.15625,0 c 1.45663,0 2.59375,1.1683 2.59375,2.625 l 0,13.28125 c 0,1.4567 -1.13712,2.59375 -2.59375,2.59375 l -19.15625,0 c -1.45663,0 -2.59375,-1.13705 -2.59375,-2.59375 l 0,-13.28125 c 0,-1.4567 1.13712,-2.625 2.59375,-2.625 z"
       transform="translate(-10.34205,957.01827)"
       id="rect3758"
       style="font-size:medium;font-style:normal;font-variant:normal;font-weight:normal;font-stretch:normal;text-indent:0;text-align:start;text-decoration:none;line-height:normal;letter-spacing:normal;word-spacing:normal;text-transform:none;direction:ltr;block-progression:tb;writing-mode:lr-tb;text-anchor:start;baseline-shift:baseline;color:#000000;fill:#000000;fill-opacity:1;stroke:none;stroke-width:1.5;marker:none;visibility:visible;display:inline;overflow:visible;enable-background:accumulate;font-family:Sans;-inkscape-font-specification:Sans" />
    <path
       d="m 15.84375,45.25 0,2 20.6875,0 0,-2 -20.6875,0 z m 36.9375,0 0,2 20.6875,0 0,-2 -20.6875,0 z m 36.9375,0 0,2 20.6875,0 0,-2 -20.6875,0 z m 36.9375,0 0,2 20.65625,0 0,-2 -20.65625,0 z m -110.8125,31.8125 0,2 20.6875,0 0,-2 -20.6875,0 z m 36.9375,0 0,2 20.6875,0 0,-2 -20.6875,0 z m 36.9375,0 0,2 20.6875,0 0,-2 -20.6875,0 z m 36.9375,0 0,2 20.65625,0 0,-2 -20.65625,0 z m -110.8125,31.84375 0,2 20.6875,0 0,-2 -20.6875,0 z m 36.9375,0 0,2 20.6875,0 0,-2 -20.6875,0 z m 36.9375,0 0,2 20.6875,0 0,-2 -20.6875,0 z m 36.9375,0 0,2 20.65625,0 0,-2 -20.65625,0 z"
       transform="translate(-10.34205,957.01827)"
       id="path3878"
       style="font-size:medium;font-style:normal;font-variant:normal;font-weight:normal;font-stretch:normal;text-indent:0;text-align:start;text-decoration:none;line-height:normal;letter-spacing:normal;word-spacing:normal;text-transform:none;direction:ltr;block-progression:tb;writing-mode:lr-tb;text-anchor:start;baseline-shift:baseline;color:#000000;fill:#555555;fill-opacity:1;stroke:none;stroke-width:2;marker:none;visibility:visible;display:inline;overflow:visible;enable-background:accumulate;font-family:Sans;-inkscape-font-specification:Sans" />
    <path
       d="m 53.5625,52.34375 c -2.261689,0 -4.125,1.83205 -4.125,4.09375 l 0,13.28125 c 0,2.2617 1.863311,4.09375 4.125,4.09375 l 19.125,0 c 2.261689,0 4.125,-1.83205 4.125,-4.09375 l 0,-13.28125 c 0,-2.2617 -1.863311,-4.09375 -4.125,-4.09375 l -19.125,0 z M 59.25,57.0625 c 1.942605,0.102913 10.4375,4.910156 10.4375,6.03125 0,1.195834 -9.647112,6.566667 -10.71875,5.96875 -1.071638,-0.597917 -1.071638,-11.370833 0,-11.96875 0.06698,-0.03737 0.151743,-0.03811 0.28125,-0.03125 z"
       transform="translate(-10.34205,957.01827)"
       id="rect3827-4-4"
       style="font-size:medium;font-style:normal;font-variant:normal;font-weight:normal;font-stretch:normal;text-indent:0;text-align:start;text-decoration:none;line-height:normal;letter-spacing:normal;word-spacing:normal;text-transform:none;direction:ltr;block-progression:tb;writing-mode:lr-tb;text-anchor:start;baseline-shift:baseline;color:#000000;fill:#ff3fac;fill-opacity:1;fill-rule:nonzero;stroke:none;stroke-width:1.5;marker:none;visibility:visible;display:inline;overflow:visible;enable-background:accumulate;font-family:Sans;-inkscape-font-specification:Sans" />
  </g>
</svg>
