<?xml version="1.0" encoding="UTF-8" standalone="no"?>
<!-- Created with Inkscape (http://www.inkscape.org/) -->

<svg
   xmlns:dc="http://purl.org/dc/elements/1.1/"
   xmlns:cc="http://creativecommons.org/ns#"
   xmlns:rdf="http://www.w3.org/1999/02/22-rdf-syntax-ns#"
   xmlns:svg="http://www.w3.org/2000/svg"
   xmlns="http://www.w3.org/2000/svg"
   version="1.1"
   width="127.125"
   height="138.86038"
   id="svg2">
  <defs
     id="defs4" />
  <metadata
     id="metadata7">
    <rdf:RDF>
      <cc:Work
         rdf:about="">
        <dc:format>image/svg+xml</dc:format>
        <dc:type
           rdf:resource="http://purl.org/dc/dcmitype/StillImage" />
        <dc:title></dc:title>
        <dc:creator>
          <cc:Agent>
            <dc:title>T. Gantt</dc:title>
          </cc:Agent>
        </dc:creator>
        <cc:license
           rdf:resource="" />
      </cc:Work>
    </rdf:RDF>
  </metadata>
  <g
     transform="translate(2.8098414,-955.55651)"
     id="layer1"
     style="display:inline">
    <path
       d="m 3.8125,955.5625 a 0.75007506,0.75007506 0 0 0 -0.65625,0.78125 l 0,137.31245 a 0.75007506,0.75007506 0 1 0 1.5,0 l 0,-137.31245 A 0.75007506,0.75007506 0 0 0 3.8125,955.5625 z"
       id="path3755"
       style="font-size:medium;font-style:normal;font-variant:normal;font-weight:normal;font-stretch:normal;text-indent:0;text-align:start;text-decoration:none;line-height:normal;letter-spacing:normal;word-spacing:normal;text-transform:none;direction:ltr;block-progression:tb;writing-mode:lr-tb;text-anchor:start;baseline-shift:baseline;color:#000000;fill:#555555;fill-opacity:1;stroke:none;stroke-width:1.50000012;marker:none;visibility:visible;display:inline;overflow:visible;enable-background:accumulate;font-family:Sans;-inkscape-font-specification:Sans" />
    <path
       d="m 8.4375,4.65625 c -1.3649441,0 -2.46875,1.10381 -2.46875,2.46875 l 0,15.34375 c 0,1.36494 1.1038059,2.5 2.46875,2.5 l 116.1875,0 c 1.36494,0 2.5,-1.13506 2.5,-2.5 l 0,-15.34375 c 0,-1.36494 -1.13506,-2.46875 -2.5,-2.46875 l -116.1875,0 z m 4,41.15625 c -1.364944,0 -2.46875,1.1351 -2.46875,2.5 l 0,55.875 c 0,1.365 1.103806,2.5 2.46875,2.5 l 112.1875,0 c 1.36494,0 2.5,-1.135 2.5,-2.5 l 0,-55.875 c 0,-1.3649 -1.13506,-2.5 -2.5,-2.5 l -112.1875,0 z m 0,69.21875 c -1.364944,0 -2.46875,1.10375 -2.46875,2.46875 l 0,12.6875 c 0,1.365 1.103806,2.5 2.46875,2.5 l 12.6875,0 c 1.364944,0 2.5,-1.135 2.5,-2.5 l 0,-12.6875 c 0,-1.365 -1.135056,-2.46875 -2.5,-2.46875 l -12.6875,0 z m 20.1875,0 c -1.364944,0 -2.5,1.10375 -2.5,2.46875 l 0,12.6875 c 0,1.365 1.135056,2.5 2.5,2.5 l 12.6875,0 c 1.364944,0 2.46875,-1.135 2.46875,-2.5 l 0,-12.6875 c 0,-1.365 -1.103806,-2.46875 -2.46875,-2.46875 l -12.6875,0 z m 20.15625,0 c -1.364944,0 -2.5,1.10375 -2.5,2.46875 l 0,12.6875 c 0,1.365 1.135056,2.5 2.5,2.5 l 12.6875,0 c 1.364944,0 2.46875,-1.135 2.46875,-2.5 l 0,-12.6875 c 0,-1.365 -1.103806,-2.46875 -2.46875,-2.46875 l -12.6875,0 z m 59.15625,0 c -1.36494,0 -2.5,1.10375 -2.5,2.46875 l 0,12.6875 c 0,1.365 1.13506,2.5 2.5,2.5 l 12.6875,0 c 1.36494,0 2.5,-1.135 2.5,-2.5 l 0,-12.6875 c 0,-1.365 -1.13506,-2.46875 -2.5,-2.46875 l -12.6875,0 z m -99.5,1.5 12.6875,0 c 0.55989,0 1,0.40885 1,0.96875 l 0,12.6875 c 0,0.5599 -0.44011,1 -1,1 l -12.6875,0 c -0.55989,0 -0.96875,-0.4401 -0.96875,-1 l 0,-12.6875 c 0,-0.5599 0.40886,-0.96875 0.96875,-0.96875 z m 20.1875,0 12.6875,0 c 0.55989,0 0.96875,0.40885 0.96875,0.96875 l 0,12.6875 c 0,0.5599 -0.40886,1 -0.96875,1 l -12.6875,0 c -0.55989,0 -1,-0.4401 -1,-1 l 0,-12.6875 c 0,-0.5599 0.44011,-0.96875 1,-0.96875 z m 20.15625,0 12.6875,0 c 0.55989,0 0.96875,0.40885 0.96875,0.96875 l 0,12.6875 c 0,0.5599 -0.40886,1 -0.96875,1 l -12.6875,0 c -0.55989,0 -1,-0.4401 -1,-1 l 0,-12.6875 c 0,-0.5599 0.44011,-0.96875 1,-0.96875 z m 59.15625,0 12.6875,0 c 0.55989,0 1,0.40885 1,0.96875 l 0,12.6875 c 0,0.5599 -0.44011,1 -1,1 l -12.6875,0 c -0.55989,0 -1,-0.4401 -1,-1 l 0,-12.6875 c 0,-0.5599 0.44011,-0.96875 1,-0.96875 z m -95.625,1.6875 c -1.371543,0 -2.46875,1.1446 -2.46875,2.5 l 0,4.90625 c 0,1.3553 1.097155,2.5 2.46875,2.5 l 0.90625,0 c 0.172868,0.2507 0.368423,0.4946 0.53125,0.6875 0.121236,0.1437 0.238084,0.29195 0.375,0.40625 0.136916,0.1143 0.243267,0.28125 0.65625,0.28125 0.412983,0 0.552825,-0.1959 0.6875,-0.3125 0.134675,-0.1165 0.258708,-0.2317 0.375,-0.375 0.155056,-0.1909 0.333535,-0.4419 0.5,-0.6875 l 0.875,0 c 1.371595,0 2.5,-1.1285 2.5,-2.5 l 0,-4.90625 c 0,-1.3716 -1.128457,-2.5 -2.5,-2.5 l -4.90625,0 z m 42.25,0.21875 c -0.07567,-0.005 -0.148364,0.002 -0.1875,0.0312 -0.245346,0.18369 -0.384417,1.60927 -0.4375,3.28125 -2.437042,0.27812 -4.34375,2.33225 -4.34375,4.84375 0,0.5597 0.108179,1.1242 0.28125,1.625 0.609206,-1.73243 2.181049,-3.03125 4.0625,-3.25 0.06336,1.48575 0.212638,2.70664 0.4375,2.875 0.62617,0.46882 6.25,-3.74987 6.25,-4.6875 0,-0.87903 -4.927414,-4.63806 -6.0625,-4.71875 z m 59.71875,0.96875 c -2.67221,0 -4.96042,1.7494 -5.71875,4.1875 a 0.750075,0.750075 0 0 0 -0.0312,0.21875 0.750075,0.750075 0 0 0 0.0312,0.125 0.750075,0.750075 0 0 0 0,0.0312 c 0.004,0.031 -0.009,0.0275 0,0.0625 a 0.750075,0.750075 0 0 0 0,0.0312 c 0.75786,2.4366 3.04142,4.21875 5.71875,4.21875 2.67733,0 4.96242,-1.78705 5.71875,-4.21875 a 0.750075,0.750075 0 0 0 0.0312,-0.21875 c 0.002,-0.013 -5.6e-4,-0.0415 0,-0.0625 a 0.750075,0.750075 0 0 0 -0.0312,-0.0625 0.750075,0.750075 0 0 0 0,-0.0312 c -0.005,-0.032 0.011,0.007 0,-0.0312 a 0.750075,0.750075 0 0 0 0,-0.0312 c -0.75681,-2.4342 -3.04654,-4.21875 -5.71875,-4.21875 z m -101.96875,0.3125 4.90625,0 c 0.553291,0 1,0.4466 1,1 l 0,4.90625 c 0,0.5532 -0.446761,1 -1,1 l -1.28125,0 a 0.75007494,0.75007494 0 0 0 -0.625,0.34375 c -0.203709,0.3147 -0.375075,0.5451 -0.53125,0.75 -0.162583,-0.2044 -0.325975,-0.4329 -0.53125,-0.75 A 0.75007494,0.75007494 0 0 0 17.59375,126.625 l -1.28125,0 c -0.553239,0 -0.96875,-0.4306 -0.96875,-1 l 0,-4.90625 c 0,-0.5696 0.415459,-1 0.96875,-1 z M 114.96875,122.5 c 0.0835,1.75613 1.53504,3.125 3.3125,3.125 1.77745,0 3.22767,-1.36887 3.3125,-3.125 0.3368,0.40158 0.6232,0.84562 0.8125,1.34375 -0.64116,1.6855 -2.21288,2.9375 -4.125,2.9375 -1.91212,0 -3.4829,-1.2558 -4.125,-2.9375 0.18976,-0.49665 0.47558,-0.94229 0.8125,-1.34375 z"
       transform="translate(-2.8098414,955.57861)"
       id="rect3758"
       style="font-size:medium;font-style:normal;font-variant:normal;font-weight:normal;font-stretch:normal;text-indent:0;text-align:start;text-decoration:none;line-height:normal;letter-spacing:normal;word-spacing:normal;text-transform:none;direction:ltr;block-progression:tb;writing-mode:lr-tb;text-anchor:start;baseline-shift:baseline;color:#000000;fill:#000000;fill-opacity:1;fill-rule:nonzero;stroke:none;stroke-width:1.5;marker:none;visibility:visible;display:inline;overflow:visible;enable-background:accumulate;font-family:Sans;-inkscape-font-specification:Sans" />
    <path
       d="m 104.28125,7.46875 c -1.36494,0 -2.5,1.10381 -2.5,2.46875 l 0,9.71875 c 0,1.36494 1.13506,2.5 2.5,2.5 l 17.53125,0 c 1.36494,0 2.5,-1.13506 2.5,-2.5 l 0,-9.71875 c 0,-1.36494 -1.13506,-2.46875 -2.5,-2.46875 l -17.53125,0 z M 14.1875,9.4375 l 0,2 14.0625,0 0,-2 -14.0625,0 z m 18.0625,0 0,2 14.03125,0 0,-2 -14.03125,0 z m -21.53125,18.9375 0,2 69.53125,0 0,-2 -69.53125,0 z m 73.53125,0 0,2 42.125,0 0,-2 -42.125,0 z m -73.53125,4 0,2 26.21875,0 0,-2 -26.21875,0 z m 0,4 0,2 54.3125,0 0,-2 -54.3125,0 z m 58.3125,0 0,2 57.34375,0 0,-2 -57.34375,0 z m -58.3125,4 0,2 42.53125,0 0,-2 -42.53125,0 z"
       transform="translate(-2.8098414,955.57861)"
       id="path3775"
       style="font-size:medium;font-style:normal;font-variant:normal;font-weight:normal;font-stretch:normal;text-indent:0;text-align:start;text-decoration:none;line-height:normal;letter-spacing:normal;word-spacing:normal;text-transform:none;direction:ltr;block-progression:tb;writing-mode:lr-tb;text-anchor:start;baseline-shift:baseline;color:#000000;fill:#555555;fill-opacity:1;stroke:none;stroke-width:2;marker:none;visibility:visible;display:inline;overflow:visible;enable-background:accumulate;font-family:Sans;-inkscape-font-specification:Sans" />
    <path
       d="M 5.96875,4.65625 C 2.6762676,4.65625 0,7.3325176 0,10.625 c 0,3.292482 2.6762676,5.96875 5.96875,5.96875 3.2924824,0 5.96875,-2.676268 5.96875,-5.96875 0,-3.2924824 -2.6762676,-5.96875 -5.96875,-5.96875 z M 36.375,118.59375 c -1.602797,0 -2.720977,1.5262 -2.90625,2.875 -0.506311,3.6861 5.5,7.6875 5.5,7.6875 0,0 5.975061,-4.0014 5.46875,-7.6875 -0.185273,-1.3488 -1.303453,-2.875 -2.90625,-2.875 -1.111113,0 -2.074836,0.61425 -2.5625,1.53125 -0.487664,-0.917 -1.482637,-1.53125 -2.59375,-1.53125 z"
       transform="translate(-2.8098414,955.57861)"
       id="path3981"
       style="color:#000000;fill:#ff3fac;fill-opacity:1;fill-rule:nonzero;stroke:none;stroke-width:2;marker:none;visibility:visible;display:inline;overflow:visible;enable-background:accumulate" />
  </g>
</svg>
