<?xml version="1.0" encoding="UTF-8" standalone="no"?>
<!-- Created with Inkscape (http://www.inkscape.org/) -->

<svg
   xmlns:dc="http://purl.org/dc/elements/1.1/"
   xmlns:cc="http://creativecommons.org/ns#"
   xmlns:rdf="http://www.w3.org/1999/02/22-rdf-syntax-ns#"
   xmlns:svg="http://www.w3.org/2000/svg"
   xmlns="http://www.w3.org/2000/svg"
   version="1.1"
   width="100"
   height="100"
   id="svg2">
  <defs
     id="defs4" />
  <metadata
     id="metadata7">
    <rdf:RDF>
      <cc:Work
         rdf:about="">
        <dc:format>image/svg+xml</dc:format>
        <dc:type
           rdf:resource="http://purl.org/dc/dcmitype/StillImage" />
        <dc:title></dc:title>
        <dc:creator>
          <cc:Agent>
            <dc:title>T. Gantt</dc:title>
          </cc:Agent>
        </dc:creator>
        <cc:license
           rdf:resource="" />
      </cc:Work>
    </rdf:RDF>
  </metadata>
  <g
     transform="translate(0,-952.36218)"
     id="layer1"
     style="display:inline">
    <path
       d="m 50.000001,0 c 5.877853,1.5749647e-7 45.736469,28.958982 47.552825,34.549152 1.816356,5.59017 -13.408282,52.446784 -18.163564,55.901699 -4.755283,3.454914 -54.023243,3.454913 -58.778526,-2e-6 C 15.855454,86.995934 0.63081813,40.139319 2.4471746,34.549149 4.2635311,28.958979 44.122149,-1.5749643e-7 50.000001,0 z"
       transform="matrix(0.81567702,-0.38035644,0.38035644,0.81567702,-9.8016722,980.59615)"
       id="path4672"
       style="color:#000000;fill:#000000;fill-opacity:1;fill-rule:nonzero;stroke:none;stroke-width:10;marker:none;visibility:visible;display:inline;overflow:visible;enable-background:accumulate" />
    <path
       d="M 34.15625,11.03125 C 33.145515,11.063663 32.426372,11.17618 32,11.375 27.452033,13.495751 7.0446945,50.269278 7.65625,55.25 8.2678055,60.230722 36.949071,91.011246 41.875,91.96875 46.800929,92.926254 84.942164,75.138952 87.375,70.75 89.807836,66.361048 84.672353,24.607525 81.25,20.9375 78.148492,17.61154 43.926688,10.717922 34.15625,11.03125 z m 0.84375,2 c 9.28169,-0.297654 41.77239,6.246665 44.71875,9.40625 3.251156,3.486439 8.123638,43.143098 5.8125,47.3125 C 83.220112,73.919402 46.992018,90.815856 42.3125,89.90625 37.632982,88.996644 10.393464,59.76282 9.8125,55.03125 9.2315364,50.29968 28.585787,15.358415 32.90625,13.34375 33.311293,13.154875 34.039825,13.062042 35,13.03125 z M 34.0625,25.6875 c -2.723746,0.277106 -4.84375,2.578901 -4.84375,5.375 0,1.962882 1.058476,3.679638 2.625,4.625 -2.359504,0.995536 -4.114127,3.262959 -4.65625,6 l 14.875,0 c -0.55054,-2.742553 -2.315774,-5.011066 -4.6875,-6 1.58605,-0.940811 2.625,-2.647337 2.625,-4.625 0,-2.982506 -2.423666,-5.375 -5.40625,-5.375 -0.186411,0 -0.349667,-0.01847 -0.53125,0 z m 16.28125,0 c -1.431317,0 -2.59375,1.131183 -2.59375,2.5625 l 0,1.34375 c -1.55389,0.832161 -3.3125,1.994178 -3.3125,2.375 0,0.380822 1.75861,1.511588 3.3125,2.34375 l 0,10.09375 C 47.75,45.837567 48.912433,47 50.34375,47 l 19.0625,0 c 1.431317,0 2.5625,-1.162433 2.5625,-2.59375 l 0,-16.15625 c 0,-1.431317 -1.131183,-2.5625 -2.5625,-2.5625 l -19.0625,0 z m 1.78125,5.65625 15.5,0 0,2 -15.5,0 0,-2 z m 0,4 15.5,0 0,2 -15.5,0 0,-2 z m 0,4 8.40625,0 0,2 -8.40625,0 0,-2 z m -17.53125,11.3125 c -2.982582,0 -5.375,2.423744 -5.375,5.40625 0,1.962882 1.058476,3.679638 2.625,4.625 -2.359504,0.995536 -4.114127,3.262959 -4.65625,6 l 14.875,0 c -0.55054,-2.742553 -2.315774,-5.011066 -4.6875,-6 C 38.96105,59.746689 40,58.040163 40,56.0625 40,53.079994 37.576334,50.65625 34.59375,50.65625 z m 15.75,0 c -1.431317,0 -2.59375,1.162433 -2.59375,2.59375 l 0,1.3125 c -1.556176,0.832492 -3.3125,1.993441 -3.3125,2.375 0,0.381559 1.756324,1.542508 3.3125,2.375 l 0,10.09375 c 0,1.431317 1.162433,2.5625 2.59375,2.5625 l 19.0625,0 c 1.431317,0 2.5625,-1.131183 2.5625,-2.5625 l 0,-16.15625 c 0,-1.431317 -1.131183,-2.59375 -2.5625,-2.59375 l -19.0625,0 z m 1.78125,5.65625 15.5,0 0,2 -15.5,0 0,-2 z m 0,4 15.5,0 0,2 -15.5,0 0,-2 z m 0,4 11.96875,0 0,2 -11.96875,0 0,-2 z"
       transform="translate(0,952.36218)"
       id="path4672-8-8"
       style="color:#000000;fill:#ffffff;fill-opacity:1;fill-rule:nonzero;stroke:none;stroke-width:10;marker:none;visibility:visible;display:inline;overflow:visible;enable-background:accumulate" />
  </g>
</svg>
