<?xml version="1.0" encoding="UTF-8" standalone="no"?>
<!-- Created with Inkscape (http://www.inkscape.org/) -->

<svg
   xmlns:dc="http://purl.org/dc/elements/1.1/"
   xmlns:cc="http://creativecommons.org/ns#"
   xmlns:rdf="http://www.w3.org/1999/02/22-rdf-syntax-ns#"
   xmlns:svg="http://www.w3.org/2000/svg"
   xmlns="http://www.w3.org/2000/svg"
   version="1.1"
   width="100"
   height="100"
   id="svg2">
  <defs
     id="defs4" />
  <metadata
     id="metadata7">
    <rdf:RDF>
      <cc:Work
         rdf:about="">
        <dc:format>image/svg+xml</dc:format>
        <dc:type
           rdf:resource="http://purl.org/dc/dcmitype/StillImage" />
        <dc:title></dc:title>
        <dc:creator>
          <cc:Agent>
            <dc:title>T. Gantt</dc:title>
          </cc:Agent>
        </dc:creator>
        <cc:license
           rdf:resource="" />
      </cc:Work>
    </rdf:RDF>
  </metadata>
  <g
     transform="translate(0,-952.36218)"
     id="layer1">
    <path
       d="m 50.000001,0 c 5.877853,1.5749647e-7 45.736469,28.958982 47.552825,34.549152 1.816356,5.59017 -13.408282,52.446784 -18.163564,55.901699 -4.755283,3.454914 -54.023243,3.454913 -58.778526,-2e-6 C 15.855454,86.995934 0.63081813,40.139319 2.4471746,34.549149 4.2635311,28.958979 44.122149,-1.5749643e-7 50.000001,0 z"
       transform="matrix(0.63639611,-0.63639612,0.63639612,0.63639611,-13.63961,1002.3622)"
       id="path4672"
       style="color:#000000;fill:#000000;fill-opacity:1;fill-rule:nonzero;stroke:none;stroke-width:10;marker:none;visibility:visible;display:inline;overflow:visible;enable-background:accumulate" />
    <path
       d="M 66.15625,11.53125 C 55.16063,11.312994 22.948557,16.738943 19.84375,19.84375 16.295399,23.392101 9.7218187,64.935067 12,69.40625 c 2.278181,4.471183 39.762406,23.597508 44.71875,22.8125 4.956344,-0.785008 34.714992,-30.543656 35.5,-35.5 C 93.003758,51.762406 73.877433,14.278182 69.40625,12 c -0.558898,-0.284773 -1.679197,-0.437571 -3.25,-0.46875 z M 65.375,13.5 c 1.492226,0.02962 2.59406,0.166973 3.125,0.4375 4.24752,2.16422 22.370739,37.791588 21.625,42.5 -0.285093,1.800006 -4.592976,7.048853 -10.0625,12.875 -1.381205,-3.432278 -3.283539,-6.231226 -5.53125,-8.03125 1.321773,-0.82121 2.488103,-1.912787 3.375,-3.1875 0.21263,0.03507 0.433685,0.0625 0.65625,0.0625 2.201369,0 3.96875,-1.767381 3.96875,-3.96875 0,-1.741723 -1.099422,-3.207551 -2.65625,-3.75 C 79.278019,44.715829 74.44218,40.25 68.5625,40.25 c -5.87968,0 -10.715519,4.465829 -11.3125,10.1875 -1.556828,0.542449 -2.6875,2.008277 -2.6875,3.75 0,2.201369 1.798631,3.96875 4,3.96875 0.222565,0 0.44362,-0.02743 0.65625,-0.0625 0.895072,1.286463 2.037686,2.394878 3.375,3.21875 -4.667546,3.742877 -7.90625,11.683874 -7.90625,20.9375 0,2.755424 0.314863,5.388428 0.84375,7.84375 -1.651439,-0.219397 -4.64232,-1.281345 -8.28125,-2.8125 0.215162,-1.622887 0.34375,-3.297355 0.34375,-5.03125 0,-9.253626 -3.238704,-17.194623 -7.90625,-20.9375 1.337314,-0.823872 2.479928,-1.932287 3.375,-3.21875 0.220622,0.03786 0.424826,0.0625 0.65625,0.0625 2.201369,0 4,-1.767381 4,-3.96875 0,-1.731156 -1.114194,-3.199551 -2.65625,-3.75 C 44.465637,44.715705 39.598518,40.25 33.71875,40.25 c -5.879768,0 -10.715637,4.465705 -11.3125,10.1875 -1.542056,0.550449 -2.65625,2.018844 -2.65625,3.75 0,2.201369 1.767381,3.96875 3.96875,3.96875 0.222565,0 0.44362,-0.02743 0.65625,-0.0625 0.895072,1.286463 2.068936,2.394878 3.40625,3.21875 -3.153513,2.528783 -5.648109,6.996464 -6.9375,12.46875 C 17.125772,71.496543 14.478555,69.56188 13.9375,68.5 11.773281,64.25248 18.035399,24.777101 21.40625,21.40625 24.355745,18.456756 54.929416,13.292662 65.375,13.5 z M 47.59375,24.28125 c -2.193354,0 -3.683963,2.12294 -3.9375,3.96875 -0.692863,5.04419 7.5,10.5 7.5,10.5 0,0 8.161613,-5.45581 7.46875,-10.5 -0.253537,-1.84581 -1.744146,-3.96875 -3.9375,-3.96875 -1.520508,0 -2.863904,0.90128 -3.53125,2.15625 -0.667346,-1.25497 -2.041992,-2.15625 -3.5625,-2.15625 z M 27.5625,50.5 c 1.100684,0 2,0.899316 2,2 0,1.100684 -0.899316,2 -2,2 -1.100684,0 -2,-0.899316 -2,-2 0,-1.100684 0.899316,-2 2,-2 z m 12.34375,0 c 1.100684,0 1.96875,0.899316 1.96875,2 0,1.100684 -0.868066,2 -1.96875,2 -1.100684,0 -2,-0.899316 -2,-2 0,-1.100684 0.899316,-2 2,-2 z m 22.5,0 c 1.100684,0 1.96875,0.899316 1.96875,2 0,1.100684 -0.868066,2 -1.96875,2 -1.100684,0 -2,-0.899316 -2,-2 0,-1.100684 0.899316,-2 2,-2 z m 12.3125,0 c 1.100684,0 2,0.899316 2,2 0,1.100684 -0.899316,2 -2,2 -1.100684,0 -2,-0.899316 -2,-2 0,-1.100684 0.899316,-2 2,-2 z M 37.5,55.21875 a 1.0000999,1.0000999 0 0 1 0.03125,0 1.0000999,1.0000999 0 0 1 0.0625,0 1.0000999,1.0000999 0 0 1 0.9375,1.5625 c -0.844793,1.5925 -2.684852,2.53125 -4.78125,2.53125 -2.096398,0 -3.996186,-0.93355 -4.84375,-2.53125 a 1.0000999,1.0000999 0 0 1 0.78125,-1.46875 1.0000999,1.0000999 0 0 1 1,0.53125 c 0.390528,0.7361 1.583238,1.46875 3.0625,1.46875 1.479262,0 2.637951,-0.72745 3.03125,-1.46875 A 1.0000999,1.0000999 0 0 1 37.5,55.21875 z m 26.9375,0.09375 a 1.0000999,1.0000999 0 0 1 0.09375,0 1.0000999,1.0000999 0 0 1 0.96875,0.53125 c 0.390528,0.7361 1.583238,1.46875 3.0625,1.46875 1.479262,0 2.637951,-0.72745 3.03125,-1.46875 a 1.0064489,1.0064489 0 1 1 1.78125,0.9375 c -0.844793,1.5925 -2.716102,2.53125 -4.8125,2.53125 -2.096398,0 -3.964936,-0.93355 -4.8125,-2.53125 a 1.0000999,1.0000999 0 0 1 0.6875,-1.46875 z"
       transform="translate(0,952.36218)"
       id="path4672-8-8"
       style="color:#000000;fill:#ffffff;fill-opacity:1;fill-rule:nonzero;stroke:none;stroke-width:10;marker:none;visibility:visible;display:inline;overflow:visible;enable-background:accumulate" />
  </g>
</svg>
