<?xml version="1.0" encoding="UTF-8" standalone="no"?>
<!-- Created with Inkscape (http://www.inkscape.org/) -->

<svg
   xmlns:dc="http://purl.org/dc/elements/1.1/"
   xmlns:cc="http://creativecommons.org/ns#"
   xmlns:rdf="http://www.w3.org/1999/02/22-rdf-syntax-ns#"
   xmlns:svg="http://www.w3.org/2000/svg"
   xmlns="http://www.w3.org/2000/svg"
   version="1.1"
   width="100"
   height="100"
   id="svg2">
  <defs
     id="defs4" />
  <metadata
     id="metadata7">
    <rdf:RDF>
      <cc:Work
         rdf:about="">
        <dc:format>image/svg+xml</dc:format>
        <dc:type
           rdf:resource="http://purl.org/dc/dcmitype/StillImage" />
        <dc:title></dc:title>
        <dc:creator>
          <cc:Agent>
            <dc:title>T. Gantt</dc:title>
          </cc:Agent>
        </dc:creator>
        <cc:license
           rdf:resource="" />
      </cc:Work>
    </rdf:RDF>
  </metadata>
  <g
     transform="translate(0,-952.36218)"
     id="layer1">
    <path
       d="m 50.000001,0 c 5.877853,1.5749647e-7 45.736469,28.958982 47.552825,34.549152 1.816356,5.59017 -13.408282,52.446784 -18.163564,55.901699 -4.755283,3.454914 -54.023243,3.454913 -58.778526,-2e-6 C 15.855454,86.995934 0.63081813,40.139319 2.4471746,34.549149 4.2635311,28.958979 44.122149,-1.5749643e-7 50.000001,0 z"
       transform="matrix(0.45,-0.77942288,0.77942288,0.45,-11.471142,1018.8333)"
       id="path4672"
       style="color:#000000;fill:#000000;fill-opacity:1;fill-rule:nonzero;stroke:none;stroke-width:10;marker:none;visibility:visible;display:inline;overflow:visible;enable-background:accumulate" />
    <path
       d="M 58.375,8.21875 C 51.656267,8.277791 15.524405,24.477483 13.09375,28.6875 c -2.509063,4.345824 1.892218,46.177056 5.25,49.90625 3.357782,3.729194 44.478214,12.478556 49.0625,10.4375 C 71.990536,86.990194 93.024537,50.553136 92.5,45.5625 91.975463,40.571864 63.845968,9.3245772 58.9375,8.28125 58.78411,8.248646 58.591733,8.2168455 58.375,8.21875 z M 58,10.34375 c 0.205892,-0.0018 0.385533,0.03153 0.53125,0.0625 4.66293,0.991137 31.407952,30.665262 31.90625,35.40625 0.498298,4.740988 -19.488785,39.342295 -23.84375,41.28125 -4.354965,1.938955 -43.435186,-6.363602 -46.625,-9.90625 -3.189814,-3.542648 -7.383552,-43.277818 -5,-47.40625 C 17.277816,25.781831 51.61736,10.399837 58,10.34375 z m -7.1875,8.6875 a 1.0001,1.0001 0 0 0 -0.125,0.03125 1.0001,1.0001 0 0 0 -0.5,1.71875 c 0,0 1.248336,1.24688 2.25,3.125 1.001664,1.87812 1.709492,4.24189 0.78125,6.5625 -0.51739,1.29347 -2.048984,2.60346 -3.5625,4.28125 -1.513516,1.67779 -2.96875,3.8622 -2.96875,6.875 0,1.558324 0.393846,2.929726 0.96875,4.125 l 2.3125,0 c -0.732101,-1.154244 -1.28125,-2.536785 -1.28125,-4.125 0,-2.37546 1.077987,-3.98954 2.46875,-5.53125 1.390763,-1.54171 3.10893,-2.8817 3.90625,-4.875 1.227063,-3.06766 0.309891,-6.08692 -0.84375,-8.25 -1.153641,-2.16308 -2.59375,-3.625 -2.59375,-3.625 a 1.0001,1.0001 0 0 0 -0.8125,-0.3125 z M 34.28125,44.84375 C 33.63719,44.84375 33.125,45.35594 33.125,46 l 0,1 -0.1875,0 c -1.696104,0 -2.856586,1.375414 -3.03125,3.0625 L 27.75,70.875 c -0.174664,1.687086 1.366396,3.0625 3.0625,3.0625 l 2.46875,0 c 1.696104,0 2.167529,-1.621738 3.0625,-3.0625 l 3.78125,-6.09375 17.25,0 3.78125,6.09375 c 0.894971,1.440762 1.366396,3.0625 3.0625,3.0625 l 2.46875,0 c 1.696104,0 3.237164,-1.375414 3.0625,-3.0625 L 67.59375,50.0625 C 67.419086,48.375414 66.258604,47 64.5625,47 l -0.1875,0 0,-1 c 0,-0.64406 -0.51219,-1.15625 -1.15625,-1.15625 l -6.125,0 c -0.64406,0 -1.15625,0.51219 -1.15625,1.15625 l 0,1 -9.71875,0 -4.65625,0 0,-1 c 0,-0.64406 -0.51219,-1.15625 -1.15625,-1.15625 l -6.125,0 z m 26.03125,6.4375 c 0.209236,-0.0016 0.419525,0.03989 0.625,0.125 0.821898,0.340441 1.215441,1.303102 0.875,2.125 -0.340441,0.821898 -1.271852,1.184191 -2.09375,0.84375 -0.821898,-0.340441 -1.215441,-1.271852 -0.875,-2.09375 0.255331,-0.616424 0.841042,-0.995326 1.46875,-1 z m -22.21875,0.1875 a 1.0001,1.0001 0 0 1 0.09375,0 1.0001,1.0001 0 0 1 1.09375,1 l 0,2.40625 2.40625,0 a 1.0001,1.0001 0 1 1 0,2 l -2.40625,0 0,2.4375 a 1.0001,1.0001 0 1 1 -2,0 l 0,-2.4375 -2.40625,0 a 1.0001,1.0001 0 1 1 0,-2 l 2.40625,0 0,-2.40625 a 1.0001,1.0001 0 0 1 0.8125,-1 z m 18,1.5625 c 0.209236,-0.0016 0.419525,0.03989 0.625,0.125 0.821898,0.340441 1.215441,1.303102 0.875,2.125 -0.340441,0.821898 -1.271852,1.184191 -2.09375,0.84375 -0.821898,-0.340441 -1.215441,-1.271852 -0.875,-2.09375 0.255331,-0.616424 0.841042,-0.995326 1.46875,-1 z M 62.0625,55.5 c 0.209236,-0.0016 0.419525,0.03989 0.625,0.125 0.821898,0.340441 1.215441,1.303102 0.875,2.125 -0.340441,0.821898 -1.271852,1.215441 -2.09375,0.875 -0.821898,-0.340441 -1.215441,-1.303102 -0.875,-2.125 0.255331,-0.616424 0.841042,-0.995326 1.46875,-1 z m -4.21875,1.75 c 0.209236,-0.0016 0.419525,0.03989 0.625,0.125 0.821898,0.340441 1.215441,1.303102 0.875,2.125 -0.340441,0.821898 -1.271852,1.215441 -2.09375,0.875 -0.821898,-0.340441 -1.215441,-1.303102 -0.875,-2.125 0.255331,-0.616424 0.841042,-0.995326 1.46875,-1 z"
       transform="translate(0,952.36218)"
       id="path4672-8-8"
       style="color:#000000;fill:#ffffff;fill-opacity:1;fill-rule:nonzero;stroke:none;stroke-width:10;marker:none;visibility:visible;display:inline;overflow:visible;enable-background:accumulate" />
  </g>
</svg>
