<?xml version="1.0" encoding="UTF-8" standalone="no"?>
<!-- Created with Inkscape (http://www.inkscape.org/) -->

<svg
   xmlns:dc="http://purl.org/dc/elements/1.1/"
   xmlns:cc="http://creativecommons.org/ns#"
   xmlns:rdf="http://www.w3.org/1999/02/22-rdf-syntax-ns#"
   xmlns:svg="http://www.w3.org/2000/svg"
   xmlns="http://www.w3.org/2000/svg"
   version="1.1"
   width="109.23057"
   height="101.15881"
   id="svg2">
  <defs
     id="defs4" />
  <metadata
     id="metadata7">
    <rdf:RDF>
      <cc:Work
         rdf:about="">
        <dc:format>image/svg+xml</dc:format>
        <dc:type
           rdf:resource="http://purl.org/dc/dcmitype/StillImage" />
        <dc:title></dc:title>
        <dc:creator>
          <cc:Agent>
            <dc:title>T. Gantt</dc:title>
          </cc:Agent>
        </dc:creator>
        <cc:license
           rdf:resource="" />
      </cc:Work>
    </rdf:RDF>
  </metadata>
  <g
     transform="translate(-3.2527349,-967.05981)"
     id="layer1"
     style="display:inline">
    <path
       d="M 2.8125,0 C 1.2510627,0 0,1.2510627 0,2.8125 l 0,10.125 C 0,14.498937 1.2510627,15.75 2.8125,15.75 l 10.125,0 c 1.561437,0 2.8125,-1.251063 2.8125,-2.8125 l 0,-10.125 C 15.75,1.2510627 14.498937,0 12.9375,0 L 2.8125,0 z m 16.9375,0 0,4.21875 11.78125,0 L 31.53125,0 19.75,0 z M 7.875,3.625 c 1.896752,0 3.4375,1.540748 3.4375,3.4375 0,1.257779 -0.678862,2.339206 -1.6875,2.9375 1.508283,0.628886 2.649888,2.06839 3,3.8125 -0.389296,0.20239 -0.810523,0.34375 -1.28125,0.34375 l -6.90625,0 c -0.470727,0 -0.891954,-0.14136 -1.28125,-0.34375 C 3.501009,12.071902 4.624491,10.633043 6.125,10 5.128781,9.398772 4.4375,8.310933 4.4375,7.0625 4.4375,5.165748 5.978248,3.625 7.875,3.625 z m 14.6875,30.03125 c -1.561437,0 -2.8125,1.251063 -2.8125,2.8125 l 0,10.125 c 0,1.561437 1.251063,2.8125 2.8125,2.8125 l 10.125,0 c 1.561437,0 2.8125,-1.251063 2.8125,-2.8125 l 0,-10.125 c 0,-1.561437 -1.251063,-2.8125 -2.8125,-2.8125 l -10.125,0 z m 16.9375,0 0,4.21875 16.34375,0 0,-4.21875 -16.34375,0 z m -11.875,3.625 c 1.896752,0 3.4375,1.5408 3.4375,3.4375 0,1.2578 -0.678863,2.3392 -1.6875,2.9375 1.508282,0.6289 2.649888,2.0684 3,3.8125 -0.389296,0.2024 -0.810523,0.34375 -1.28125,0.34375 l -6.90625,0 c -0.470727,0 -0.891954,-0.14135 -1.28125,-0.34375 0.344759,-1.7406 1.468241,-3.1794 2.96875,-3.8125 -0.996219,-0.6012 -1.6875,-1.6891 -1.6875,-2.9375 0,-1.8967 1.540748,-3.4375 3.4375,-3.4375 z m -5.0625,20.125 c -1.561437,0 -2.8125,1.251063 -2.8125,2.8125 l 0,10.125 c 0,1.561437 1.251063,2.8125 2.8125,2.8125 l 10.125,0 c 1.561437,0 2.8125,-1.251063 2.8125,-2.8125 l 0,-10.125 c 0,-1.561437 -1.251063,-2.8125 -2.8125,-2.8125 l -10.125,0 z m 5.0625,3.625 c 1.896752,0 3.4375,1.5407 3.4375,3.4375 0,1.2577 -0.678863,2.3392 -1.6875,2.9375 1.508282,0.6289 2.649888,2.0684 3,3.8125 -0.389296,0.2024 -0.810523,0.34375 -1.28125,0.34375 l -6.90625,0 c -0.470727,0 -0.891954,-0.14135 -1.28125,-0.34375 0.344759,-1.7406 1.468241,-3.1795 2.96875,-3.8125 -0.996219,-0.6013 -1.6875,-1.6891 -1.6875,-2.9375 0,-1.8968 1.540748,-3.4375 3.4375,-3.4375 z m 19.96875,14.9375 C 45.361083,75.96875 43.5,77.7673 43.5,80 l 0,13.125 c 0,2.2327 1.861083,4.03125 4.09375,4.03125 l 18.875,0 c 2.232659,0 4.0625,-1.79855 4.0625,-4.03125 l 0,-13.125 c 0,-2.2327 -1.829841,-4.03125 -4.0625,-4.03125 l -18.875,0 z M 53.1875,80.625 c 1.917678,0.1016 10.3125,4.8308 10.3125,5.9375 0,1.1804 -9.504613,6.49655 -10.5625,5.90625 -1.057887,-0.5902 -1.057887,-11.2222 0,-11.8125 0.06612,-0.037 0.122155,-0.03825 0.25,-0.03125 z"
       transform="translate(3.2527349,967.05981)"
       id="rect3858"
       style="color:#000000;fill:#000000;stroke:none;stroke-width:1.5;marker:none;visibility:visible;display:inline;overflow:visible;enable-background:accumulate" />
    <path
       d="m 35.53125,2.71875 0,1.5 11.5625,0 0,-1.5 -11.5625,0 z M 19.75,8.90625 l 0,1.5 40.84375,0 0,-1.5 -40.84375,0 z m 44.6875,0 0,1.5 20.09375,0 0,-1.5 -20.09375,0 z m -44.6875,4 0,1.5 22.125,0 0,-1.5 -22.125,0 z m 0,8 0,1.5 30.53125,0 0,-1.5 -30.53125,0 z m 34.53125,0 0,1.5 37.90625,0 0,-1.5 -37.90625,0 z m 41.90625,0 0,1.5 12.28125,0 0,-1.5 -12.28125,0 z m -76.4375,4 0,1.5 52.0625,0 0,-1.5 -52.0625,0 z m 40.09375,11.46875 0,1.5 11.5625,0 0,-1.5 -11.5625,0 z m -20.3125,6.1875 0,1.5 21.9375,0 0,-1.5 -21.9375,0 z m 25.9375,0 0,1.5 38.21875,0 0,-1.5 -38.21875,0 z m -25.9375,4 0,1.5 51.625,0 0,-1.5 -51.625,0 z m 22.65625,21.15625 0,3.25 1.5,0 0,-3.25 -1.5,0 z"
       transform="translate(3.2527349,967.05981)"
       id="path3862"
       style="font-size:medium;font-style:normal;font-variant:normal;font-weight:normal;font-stretch:normal;text-indent:0;text-align:start;text-decoration:none;line-height:normal;letter-spacing:normal;word-spacing:normal;text-transform:none;direction:ltr;block-progression:tb;writing-mode:lr-tb;text-anchor:start;baseline-shift:baseline;color:#000000;fill:#555555;fill-opacity:1;stroke:none;stroke-width:1.5;marker:none;visibility:visible;display:inline;overflow:visible;enable-background:accumulate;font-family:Sans;-inkscape-font-specification:Sans" />
    <path
       d="m 43.09375,57.40625 c -1.963964,0 -3.5625,1.5986 -3.5625,3.5625 l 0,36.625 c 0,1.964 1.598536,3.5625 3.5625,3.5625 l 62.5625,0 c 1.96396,0 3.5625,-1.5985 3.5625,-3.5625 l 0,-36.625 c 0,-1.9639 -1.59854,-3.5625 -3.5625,-3.5625 l -62.5625,0 z m 0,1.5 62.5625,0 c 1.15891,0 2.0625,0.9036 2.0625,2.0625 l 0,36.625 c 0,1.159 -0.90359,2.0625 -2.0625,2.0625 l -62.5625,0 c -1.15891,0 -2.0625,-0.9035 -2.0625,-2.0625 l 0,-36.625 c 0,-1.1589 0.90359,-2.0625 2.0625,-2.0625 z m 1.1875,2.5 0,1.5 32.71875,0 0,-1.5 -32.71875,0 z m 36.71875,0 0,1.5 10.65625,0 0,-1.5 -10.65625,0 z m -36.71875,4 0,1.5 59.5625,0 0,-1.5 -59.5625,0 z m 0,4 0,1.5 16.65625,0 0,-1.5 -16.65625,0 z"
       transform="translate(3.2527349,967.05981)"
       id="rect4139"
       style="font-size:medium;font-style:normal;font-variant:normal;font-weight:normal;font-stretch:normal;text-indent:0;text-align:start;text-decoration:none;line-height:normal;letter-spacing:normal;word-spacing:normal;text-transform:none;direction:ltr;block-progression:tb;writing-mode:lr-tb;text-anchor:start;baseline-shift:baseline;color:#000000;fill:#ff3fac;fill-opacity:1;stroke:none;stroke-width:1.5;marker:none;visibility:visible;display:inline;overflow:visible;enable-background:accumulate;font-family:Sans;-inkscape-font-specification:Sans" />
  </g>
</svg>
