<?xml version="1.0" encoding="UTF-8" standalone="no"?>
<!-- Created with Inkscape (http://www.inkscape.org/) -->

<svg
   xmlns:dc="http://purl.org/dc/elements/1.1/"
   xmlns:cc="http://creativecommons.org/ns#"
   xmlns:rdf="http://www.w3.org/1999/02/22-rdf-syntax-ns#"
   xmlns:svg="http://www.w3.org/2000/svg"
   xmlns="http://www.w3.org/2000/svg"
   version="1.1"
   width="100"
   height="100"
   id="svg2">
  <defs
     id="defs4" />
  <metadata
     id="metadata7">
    <rdf:RDF>
      <cc:Work
         rdf:about="">
        <dc:format>image/svg+xml</dc:format>
        <dc:type
           rdf:resource="http://purl.org/dc/dcmitype/StillImage" />
        <dc:title></dc:title>
        <dc:creator>
          <cc:Agent>
            <dc:title>T. Gantt</dc:title>
          </cc:Agent>
        </dc:creator>
        <cc:license
           rdf:resource="" />
      </cc:Work>
    </rdf:RDF>
  </metadata>
  <g
     transform="translate(0,-952.36218)"
     id="layer1"
     style="display:inline">
    <path
       d="m 50.000001,0 c 5.877853,1.5749647e-7 45.736469,28.958982 47.552825,34.549152 1.816356,5.59017 -13.408282,52.446784 -18.163564,55.901699 -4.755283,3.454914 -54.023243,3.454913 -58.778526,-2e-6 C 15.855454,86.995934 0.63081813,40.139319 2.4471746,34.549149 4.2635311,28.958979 44.122149,-1.5749643e-7 50.000001,0 z"
       transform="matrix(0.15628335,-0.88632698,0.88632698,0.15628335,-2.1305153,1038.8643)"
       id="path4672"
       style="color:#000000;fill:#000000;fill-opacity:1;fill-rule:nonzero;stroke:none;stroke-width:10;marker:none;visibility:visible;display:inline;overflow:visible;enable-background:accumulate" />
    <path
       d="M 44.6875,7.71875 C 44.471427,7.7017315 44.28029,7.7281754 44.125,7.75 39.15571,8.448388 8.9026386,37.651861 8.03125,42.59375 c -0.8713886,4.941889 17.569258,42.737882 22,45.09375 4.430742,2.355868 46.077762,-3.482867 49.6875,-6.96875 C 83.328488,77.232867 90.637301,35.822762 88.4375,31.3125 86.306442,26.943184 51.385748,8.2463225 44.6875,7.71875 z M 45,9.84375 C 51.36318,10.344932 84.538045,28.099251 86.5625,32.25 88.65226,36.534644 81.710417,75.875992 78.28125,79.1875 74.852083,82.499008 35.271602,88.050519 31.0625,85.8125 26.853398,83.574481 9.3597011,47.66343 10.1875,42.96875 11.015299,38.27407 39.74804,10.538452 44.46875,9.875 44.616272,9.8542671 44.794736,9.8275829 45,9.84375 z m 5.34375,17.96875 c -10.089607,0 -18.25,8.191643 -18.25,18.28125 0,10.089607 8.160393,18.25 18.25,18.25 10.089607,0 18.28125,-8.160393 18.28125,-18.25 0,-10.089607 -8.191643,-18.28125 -18.28125,-18.28125 z m 0,2.65625 c 0.887037,0 1.625,0.737963 1.625,1.625 0,0.887037 -0.737963,1.59375 -1.625,1.59375 -0.887037,0 -1.59375,-0.706713 -1.59375,-1.59375 0,-0.887037 0.706713,-1.625 1.59375,-1.625 z m 0.03125,5.5625 c 5.534872,0 10.03125,4.52763 10.03125,10.0625 0,5.53484 -4.496378,10.03125 -10.03125,10.03125 -5.534871,0 -10.0625,-4.49641 -10.0625,-10.03125 0,-5.53487 4.527629,-10.0625 10.0625,-10.0625 z m 0,2 c -4.453991,0 -8.0625,3.60851 -8.0625,8.0625 0,4.45404 3.608509,8.03125 8.0625,8.03125 4.453992,0 8,-3.57721 8,-8.03125 0,-4.45399 -3.546008,-8.0625 -8,-8.0625 z m -0.03125,2.15625 c 3.252188,0 5.90625,2.654062 5.90625,5.90625 0,3.252188 -2.654062,5.875 -5.90625,5.875 -3.252188,0 -5.875,-2.622812 -5.875,-5.875 0,-3.252188 2.622812,-5.90625 5.875,-5.90625 z M 48.25,41.71875 c -1.233163,0 -2.25,1.016837 -2.25,2.25 0,1.233163 1.016837,2.21875 2.25,2.21875 1.233163,0 2.21875,-0.985587 2.21875,-2.21875 0,-1.233163 -0.985587,-2.25 -2.21875,-2.25 z m -8.90625,20.4375 c -3.8061,2.723725 -6.520845,5.951679 -5.96875,7.15625 0.833411,1.818352 7.547519,-1.15625 16.96875,-1.15625 9.421231,0 16.135339,2.974602 16.96875,1.15625 0.551384,-1.203019 -2.13916,-4.403534 -5.9375,-7.125 -3.130527,2.14179 -6.922696,3.40625 -11,3.40625 -4.093003,0 -7.888142,-1.280599 -11.03125,-3.4375 z"
       transform="translate(0,952.36218)"
       id="path4672-8-8"
       style="color:#000000;fill:#ffffff;fill-opacity:1;fill-rule:nonzero;stroke:none;stroke-width:10;marker:none;visibility:visible;display:inline;overflow:visible;enable-background:accumulate" />
  </g>
</svg>
