<?xml version="1.0" encoding="UTF-8" standalone="no"?>
<!-- Created with Inkscape (http://www.inkscape.org/) -->

<svg
   xmlns:dc="http://purl.org/dc/elements/1.1/"
   xmlns:cc="http://creativecommons.org/ns#"
   xmlns:rdf="http://www.w3.org/1999/02/22-rdf-syntax-ns#"
   xmlns:svg="http://www.w3.org/2000/svg"
   xmlns="http://www.w3.org/2000/svg"
   version="1.1"
   width="156.18152"
   height="116.10851"
   id="svg2">
  <defs
     id="defs4" />
  <metadata
     id="metadata7">
    <rdf:RDF>
      <cc:Work
         rdf:about="">
        <dc:format>image/svg+xml</dc:format>
        <dc:type
           rdf:resource="http://purl.org/dc/dcmitype/StillImage" />
        <dc:title></dc:title>
        <dc:creator>
          <cc:Agent>
            <dc:title>T. Gantt</dc:title>
          </cc:Agent>
        </dc:creator>
        <cc:license
           rdf:resource="" />
      </cc:Work>
    </rdf:RDF>
  </metadata>
  <g
     transform="translate(6.8482747,-960.24426)"
     id="layer1"
     style="display:inline">
    <path
       d="M 3.5625,0 C 1.5985356,0 0,1.59854 0,3.5625 l 0,109 c 0,1.9639 1.5985356,3.5625 3.5625,3.5625 l 149.03125,0 c 1.96396,0 3.59375,-1.5986 3.59375,-3.5625 l 0,-109 C 156.1875,1.59854 154.55771,0 152.59375,0 L 3.5625,0 z m 34.59375,11.0625 116.53125,0 0,101.5 c 0,1.1589 -0.93484,2.0625 -2.09375,2.0625 l -114.4375,0 0,-103.5625 z m 11.90625,6.21875 c -2.261689,0 -4.125,1.86331 -4.125,4.125 l 0,13.25 c 0,2.26169 1.863311,4.125 4.125,4.125 l 19.125,0 c 2.261689,0 4.125,-1.86331 4.125,-4.125 l 0,-13.25 c 0,-2.26169 -1.863311,-4.125 -4.125,-4.125 l -19.125,0 z m 36.90625,0 c -2.261689,0 -4.09375,1.86331 -4.09375,4.125 l 0,13.25 c 0,2.26169 1.832061,4.125 4.09375,4.125 l 19.15625,0 c 2.26169,0 4.09375,-1.86331 4.09375,-4.125 l 0,-13.25 c 0,-2.26169 -1.83206,-4.125 -4.09375,-4.125 l -19.15625,0 z m 36.9375,0 c -2.26169,0 -4.09375,1.86331 -4.09375,4.125 l 0,13.25 c 0,2.26169 1.83206,4.125 4.09375,4.125 l 19.15625,0 c 2.26169,0 4.09375,-1.86331 4.09375,-4.125 l 0,-13.25 c 0,-2.26169 -1.83206,-4.125 -4.09375,-4.125 l -19.15625,0 z m -73.84375,1.5 19.125,0 c 1.456635,0 2.625,1.16836 2.625,2.625 l 0,13.25 c 0,1.45663 -1.168365,2.625 -2.625,2.625 l -19.125,0 c -1.456635,0 -2.625,-1.16837 -2.625,-2.625 l 0,-13.25 c 0,-1.45664 1.168365,-2.625 2.625,-2.625 z m 36.90625,0 19.15625,0 c 1.45663,0 2.59375,1.16836 2.59375,2.625 l 0,13.25 c 0,1.45663 -1.13712,2.625 -2.59375,2.625 l -19.15625,0 c -1.456635,0 -2.59375,-1.16837 -2.59375,-2.625 l 0,-13.25 c 0,-1.45664 1.137115,-2.625 2.59375,-2.625 z m 36.9375,0 19.15625,0 c 1.45663,0 2.59375,1.16836 2.59375,2.625 l 0,13.25 c 0,1.45663 -1.13712,2.625 -2.59375,2.625 l -19.15625,0 c -1.45663,0 -2.59375,-1.16837 -2.59375,-2.625 l 0,-13.25 c 0,-1.45664 1.13712,-2.625 2.59375,-2.625 z M 50.0625,49.125 c -2.261689,0 -4.125,1.83205 -4.125,4.09375 l 0,13.28125 c 0,2.2617 1.863311,4.09375 4.125,4.09375 l 19.125,0 c 2.261689,0 4.125,-1.83205 4.125,-4.09375 l 0,-13.28125 c 0,-2.2617 -1.863311,-4.09375 -4.125,-4.09375 l -19.125,0 z m 73.84375,0 c -2.26169,0 -4.09375,1.83205 -4.09375,4.09375 l 0,13.28125 c 0,2.2617 1.83206,4.09375 4.09375,4.09375 l 19.15625,0 c 2.26169,0 4.09375,-1.83205 4.09375,-4.09375 l 0,-13.28125 c 0,-2.2617 -1.83206,-4.09375 -4.09375,-4.09375 l -19.15625,0 z m -73.84375,1.5 19.125,0 c 1.456635,0 2.625,1.13715 2.625,2.59375 l 0,13.28125 c 0,1.4566 -1.168365,2.59375 -2.625,2.59375 l -19.125,0 c -1.456635,0 -2.625,-1.13715 -2.625,-2.59375 l 0,-13.28125 c 0,-1.4566 1.168365,-2.59375 2.625,-2.59375 z m 73.84375,0 19.15625,0 c 1.45663,0 2.59375,1.13715 2.59375,2.59375 l 0,13.28125 c 0,1.4566 -1.13712,2.59375 -2.59375,2.59375 l -19.15625,0 c -1.45663,0 -2.59375,-1.13715 -2.59375,-2.59375 l 0,-13.28125 c 0,-1.4566 1.13712,-2.59375 2.59375,-2.59375 z M 50.0625,80.9375 c -2.261689,0 -4.125,1.8633 -4.125,4.125 l 0,13.28125 c 0,2.2617 1.863311,4.09375 4.125,4.09375 l 19.125,0 c 2.261689,0 4.125,-1.83205 4.125,-4.09375 l 0,-13.28125 c 0,-2.2617 -1.863311,-4.125 -4.125,-4.125 l -19.125,0 z m 36.90625,0 c -2.261689,0 -4.09375,1.8633 -4.09375,4.125 l 0,13.28125 c 0,2.2617 1.832061,4.09375 4.09375,4.09375 l 19.15625,0 c 2.26169,0 4.09375,-1.83205 4.09375,-4.09375 l 0,-13.28125 c 0,-2.2617 -1.83206,-4.125 -4.09375,-4.125 l -19.15625,0 z m 36.9375,0 c -2.26169,0 -4.09375,1.8633 -4.09375,4.125 l 0,13.28125 c 0,2.2617 1.83206,4.09375 4.09375,4.09375 l 19.15625,0 c 2.26169,0 4.09375,-1.83205 4.09375,-4.09375 l 0,-13.28125 c 0,-2.2617 -1.83206,-4.125 -4.09375,-4.125 l -19.15625,0 z m -73.84375,1.5 19.125,0 c 1.456635,0 2.625,1.1683 2.625,2.625 l 0,13.28125 c 0,1.4567 -1.168365,2.59375 -2.625,2.59375 l -19.125,0 c -1.456635,0 -2.625,-1.13705 -2.625,-2.59375 l 0,-13.28125 c 0,-1.4567 1.168365,-2.625 2.625,-2.625 z m 36.90625,0 19.15625,0 c 1.45663,0 2.59375,1.1683 2.59375,2.625 l 0,13.28125 c 0,1.4567 -1.13712,2.59375 -2.59375,2.59375 l -19.15625,0 c -1.456635,0 -2.59375,-1.13705 -2.59375,-2.59375 l 0,-13.28125 c 0,-1.4567 1.137115,-2.625 2.59375,-2.625 z m 36.9375,0 19.15625,0 c 1.45663,0 2.59375,1.1683 2.59375,2.625 l 0,13.28125 c 0,1.4567 -1.13712,2.59375 -2.59375,2.59375 l -19.15625,0 c -1.45663,0 -2.59375,-1.13705 -2.59375,-2.59375 l 0,-13.28125 c 0,-1.4567 1.13712,-2.625 2.59375,-2.625 z"
       transform="translate(-6.8482747,960.24426)"
       id="rect3758"
       style="font-size:medium;font-style:normal;font-variant:normal;font-weight:normal;font-stretch:normal;text-indent:0;text-align:start;text-decoration:none;line-height:normal;letter-spacing:normal;word-spacing:normal;text-transform:none;direction:ltr;block-progression:tb;writing-mode:lr-tb;text-anchor:start;baseline-shift:baseline;color:#000000;fill:#000000;fill-opacity:1;stroke:none;stroke-width:1.5;marker:none;visibility:visible;display:inline;overflow:visible;enable-background:accumulate;font-family:Sans;-inkscape-font-specification:Sans" />
    <path
       d="m 4.03125,11.09375 0,2 15.40625,0 0,-2 -15.40625,0 z m 0,4 0,2 18.34375,0 0,-2 -18.34375,0 z m 0,4 0,2 22.875,0 0,-2 -22.875,0 z m 0,4 0,2 16.5,0 0,-2 -16.5,0 z m 0,6 0,2 12.75,0 0,-2 -12.75,0 z m 0,4 0,2 21,0 0,-2 -21,0 z m 0,4 0,2 23.6875,0 0,-2 -23.6875,0 z m 0,4 0,2 23.15625,0 0,-2 -23.15625,0 z m 45.25,0.9375 0,2 20.6875,0 0,-2 -20.6875,0 z m 36.9375,0 0,2 20.6875,0 0,-2 -20.6875,0 z m 36.9375,0 0,2 20.65625,0 0,-2 -20.65625,0 z m -119.125,5.0625 0,2 12.75,0 0,-2 -12.75,0 z m 0,4 0,2 22.0625,0 0,-2 -22.0625,0 z m 0,8 0,2 26.09375,0 0,-2 -26.09375,0 z m 0,4 0,2 17.3125,0 0,-2 -17.3125,0 z m 0,4 0,2 30.15625,0 0,-2 -30.15625,0 z m 45.25,6.75 0,2 20.6875,0 0,-2 -20.6875,0 z m 36.9375,0 0,2 20.6875,0 0,-2 -20.6875,0 z m 36.9375,0 0,2 20.65625,0 0,-2 -20.65625,0 z m -73.875,31.84375 0,2 20.6875,0 0,-2 -20.6875,0 z m 36.9375,0 0,2 20.6875,0 0,-2 -20.6875,0 z m 36.9375,0 0,2 20.65625,0 0,-2 -20.65625,0 z"
       transform="translate(-6.8482747,960.24426)"
       id="path3878-8"
       style="font-size:medium;font-style:normal;font-variant:normal;font-weight:normal;font-stretch:normal;text-indent:0;text-align:start;text-decoration:none;line-height:normal;letter-spacing:normal;word-spacing:normal;text-transform:none;direction:ltr;block-progression:tb;writing-mode:lr-tb;text-anchor:start;baseline-shift:baseline;color:#000000;fill:#555555;fill-opacity:1;stroke:none;stroke-width:2;marker:none;visibility:visible;display:inline;overflow:visible;enable-background:accumulate;font-family:Sans;-inkscape-font-specification:Sans" />
    <path
       d="m 86.96875,49.125 c -2.261689,0 -4.09375,1.83205 -4.09375,4.09375 l 0,13.28125 c 0,2.2617 1.832061,4.09375 4.09375,4.09375 l 19.15625,0 c 2.26169,0 4.09375,-1.83205 4.09375,-4.09375 l 0,-13.28125 c 0,-2.2617 -1.83206,-4.09375 -4.09375,-4.09375 l -19.15625,0 z m 8.71875,4.40625 0.09375,0 1.5,0 c 0.523584,1e-4 0.999948,0.4764 1,1 l 0,3.59375 3.4375,0 c 0.52358,1e-4 0.99995,0.4764 1,1 l 0,1.5 c -5e-5,0.5236 -0.47642,0.9999 -1,1 l -3.4375,0 0,3.5625 c -5.2e-5,0.5236 -0.476416,0.9999 -1,1 l -1.5,0 c -0.523584,-1e-4 -0.999948,-0.4764 -1,-1 l 0,-3.5625 -3.40625,0 c -0.523584,-1e-4 -0.999948,-0.4764 -1,-1 l 0,-1.5 c 5.2e-5,-0.5236 0.476416,-0.9999 1,-1 l 3.40625,0 0,-3.59375 c -0.0021,-0.4938 0.414666,-0.954 0.90625,-1 z m -91.65625,1.5625 0,2 30.15625,0 0,-2 -30.15625,0 z"
       transform="translate(-6.8482747,960.24426)"
       id="rect3827-4-4"
       style="font-size:medium;font-style:normal;font-variant:normal;font-weight:normal;font-stretch:normal;text-indent:0;text-align:start;text-decoration:none;line-height:normal;letter-spacing:normal;word-spacing:normal;text-transform:none;direction:ltr;block-progression:tb;writing-mode:lr-tb;text-anchor:start;baseline-shift:baseline;color:#000000;fill:#ff3fac;fill-opacity:1;fill-rule:nonzero;stroke:none;stroke-width:1.5;marker:none;visibility:visible;display:inline;overflow:visible;enable-background:accumulate;font-family:Sans;-inkscape-font-specification:Sans" />
  </g>
</svg>
