<?xml version="1.0" encoding="UTF-8" standalone="no"?>
<!-- Created with Inkscape (http://www.inkscape.org/) -->

<svg
   xmlns:dc="http://purl.org/dc/elements/1.1/"
   xmlns:cc="http://creativecommons.org/ns#"
   xmlns:rdf="http://www.w3.org/1999/02/22-rdf-syntax-ns#"
   xmlns:svg="http://www.w3.org/2000/svg"
   xmlns="http://www.w3.org/2000/svg"
   version="1.1"
   width="156.18152"
   height="88.468773"
   id="svg2">
  <defs
     id="defs4" />
  <metadata
     id="metadata7">
    <rdf:RDF>
      <cc:Work
         rdf:about="">
        <dc:format>image/svg+xml</dc:format>
        <dc:type
           rdf:resource="http://purl.org/dc/dcmitype/StillImage" />
        <dc:title></dc:title>
        <dc:creator>
          <cc:Agent>
            <dc:title>T. Gantt</dc:title>
          </cc:Agent>
        </dc:creator>
        <cc:license
           rdf:resource="" />
      </cc:Work>
    </rdf:RDF>
  </metadata>
  <g
     transform="translate(6.8482747,-957.01825)"
     id="layer1"
     style="display:inline">
    <path
       d="m 115.46875,0 c -1.32177,0 -2.40625,1.08448 -2.40625,2.40625 l 0,10.8125 -109.5,0 C 1.5985361,13.21875 0,14.81728 0,16.78125 L 0,72.4375 C 0,74.4014 1.5985169,76 3.5625,76 l 36.65625,0 c 0.0047,0.947232 0.400026,1.89095 1.15625,2.5625 l 6.15625,5.5 c 0.03685,0.036 0.02673,2.5e-4 0.0625,0.03125 0.03577,0.03 0.02817,0.01025 0.0625,0.03125 L 49,85.34375 c 0.938032,0.8329 2.147477,1.14215 3.3125,1.15625 0.862438,0.011 1.691243,-0.25115 2.4375,-0.71875 l 3.03125,2.6875 1.84375,0 -4.78125,-4.25 -0.25,0.25 c -0.975932,1.0991 -3.510385,1.0659 -4.78125,-0.0625 L 48.46875,83.1875 c -0.01048,-0.014 -0.05228,-0.02125 -0.0625,-0.03125 l -6.21875,-5.5 C 41.2931,76.86205 41.20582,75.48815 42,74.59375 l 0.25,-0.28125 c 0.229582,-0.2584 0.513257,-0.4417 0.8125,-0.5625 L 35.53125,67.03125 C 34.636849,66.23705 34.54957,64.8944 35.34375,64 l 0.25,-0.28125 c 0.198583,-0.2235 0.403061,-0.41045 0.65625,-0.53125 0.759324,-0.3627 1.70417,-0.25195 2.375,0.34375 L 45.90625,70 c -0.297843,-0.7357 -0.189649,-1.58285 0.375,-2.21875 L 46.5,67.46875 c 0.658402,-0.7415 1.714156,-0.9119 2.5625,-0.5 -0.393948,-0.7686 -0.297261,-1.71955 0.3125,-2.40625 l 0.25,-0.28125 c 0.79418,-0.8944 2.136799,-0.9817 3.03125,-0.1875 l 0.0625,0.09375 c -0.315393,-0.7427 -0.166999,-1.6044 0.40625,-2.25 l 0.21875,-0.3125 c 0.39709,-0.4472 0.953249,-0.68665 1.5,-0.71875 0.546751,-0.0321 1.08405,0.1654 1.53125,0.5625 l 4.4375,3.90625 c 0.0172,0.015 0.04527,0.01625 0.0625,0.03125 l 6.15625,5.5 19.78125,17.5625 1.90625,0 L 74.6875,76 l 77.90625,0 c 1.96398,0 3.59375,-1.5986 3.59375,-3.5625 l 0,-55.65625 c 0,-1.96397 -1.62979,-3.5625 -3.59375,-3.5625 l -0.40625,0 0,-10.8125 C 152.1875,1.08448 151.10302,0 149.78125,0 l -34.3125,0 z M 3.5625,14.71875 l 109.5,0 0,12.28125 c 0,1.32177 1.08448,2.40625 2.40625,2.40625 l 34.3125,0 c 1.32177,0 2.40625,-1.08448 2.40625,-2.40625 l 0,-12.28125 0.40625,0 c 1.1589,0 2.09375,0.90359 2.09375,2.0625 l 0,55.65625 c 0,1.1588 -0.93487,2.0625 -2.09375,2.0625 L 73,74.5 l -5.125,-4.5625 -0.03125,0 -6.15625,-5.46875 C 61.65015,64.43623 61.6393,64.44707 61.625,64.4375 61.60482,64.419 61.58826,64.40709 61.59375,64.40625 L 57.21875,60.5 C 56.524074,59.8832 55.621,59.60505 54.75,59.65625 c -0.871,0.051 -1.726458,0.4298 -2.34375,1.125 a 1.250125,1.250125 0 0 0 -0.03125,0.0625 l -0.1875,0.25 -0.03125,0.03125 c -0.313888,0.3627 -0.424447,0.8125 -0.5625,1.25 -1.05969,-0.1136 -2.153613,0.2148 -2.90625,1.0625 a 1.250125,1.250125 0 0 0 -0.0625,0.03125 l -0.1875,0.25 c -0.01637,0.018 -0.01534,0.0445 -0.03125,0.0625 -0.450372,0.5297 -0.705539,1.1584 -0.78125,1.8125 -0.770274,0.1071 -1.507966,0.40675 -2.0625,1.03125 a 1.250125,1.250125 0 0 0 -0.03125,0.0625 l -0.1875,0.25 -0.03125,0.03125 c -0.148752,0.172 -0.142392,0.40205 -0.25,0.59375 l -0.8125,-0.71875 0,-8.625 c 0,-1.3217 -1.084446,-2.40625 -2.40625,-2.40625 l -35.4375,0 C 5.0844462,55.8125 4,56.89705 4,58.21875 l 0,11.375 C 4,70.91555 5.0845005,72 6.40625,72 l 32.8125,0 1.90625,1.6875 -0.03125,0.03125 A 1.250125,1.250125 0 0 0 41.0625,73.75 c -0.206508,0.232569 -0.370031,0.483242 -0.5,0.75 l -37,0 C 2.4036085,74.5 1.5,73.5963 1.5,72.4375 l 0,-55.65625 c 0,-1.15891 0.9035893,-2.0625 2.0625,-2.0625 z M 4.53125,51.8125 a 0.7579333,0.7579333 0 0 0 0.21875,1.5 l 146.6875,0 a 0.750075,0.750075 0 1 0 0,-1.5 l -146.6875,0 a 0.750075,0.750075 0 0 0 -0.15625,0 0.75405803,0.75405803 0 0 0 -0.0625,0 z"
       transform="translate(-6.8482747,957.01825)"
       id="rect3758"
       style="font-size:medium;font-style:normal;font-variant:normal;font-weight:normal;font-stretch:normal;text-indent:0;text-align:start;text-decoration:none;line-height:normal;letter-spacing:normal;word-spacing:normal;text-transform:none;direction:ltr;block-progression:tb;writing-mode:lr-tb;text-anchor:start;baseline-shift:baseline;color:#000000;fill:#000000;fill-opacity:1;stroke:none;stroke-width:1.5;marker:none;visibility:visible;display:inline;overflow:visible;enable-background:accumulate;font-family:Sans;-inkscape-font-specification:Sans" />
    <path
       d="m 136.9375,10.25 c -0.83186,0 -1.58553,0.28525 -2.125,0.84375 -0.54502,0.56426 -0.78125,1.32965 -0.78125,2.21875 0,0.81744 0.21608,1.51976 0.71875,2.03125 0.49734,0.50607 1.19188,0.78125 1.96875,0.78125 0.37299,0 0.73302,-0.0976 1.0625,-0.21875 -0.0949,0.27368 -0.11234,0.70813 -0.25,0.875 -0.32564,0.39475 -0.76533,0.59375 -1.5,0.59375 -0.31363,0 -0.59273,-0.02235 -0.8125,-0.09375 -0.28936,-0.0748 -0.61581,0.17001 -0.625,0.46875 l 0,0.75 c 0.003,0.20673 0.14735,0.40414 0.34375,0.46875 0.31122,0.0915 0.66008,0.125 1.09375,0.125 1.26663,0 2.32179,-0.43613 3,-1.3125 0.65267,-0.84336 0.9472,-2.0204 0.96875,-3.5 3.2e-4,-0.0104 3.2e-4,-0.02085 0,-0.03125 4.1e-4,-0.0354 0.0311,-0.05805 0.0312,-0.09375 3.2e-4,-0.0104 3.2e-4,-0.02085 0,-0.03125 -1e-5,-0.74492 -0.13547,-1.41512 -0.375,-2 -0.23906,-0.58367 -0.58501,-1.07863 -1.0625,-1.40625 C 138.11885,10.39294 137.5432,10.25 136.9375,10.25 z m 7.03125,0 c -0.83186,0 -1.58553,0.28525 -2.125,0.84375 -0.54502,0.56426 -0.81251,1.32964 -0.8125,2.21875 -1e-5,0.81744 0.24733,1.51976 0.75,2.03125 0.49734,0.50608 1.19189,0.78125 1.96875,0.78125 0.38401,0 0.72495,-0.12147 1.0625,-0.25 -0.0963,0.28644 -0.1078,0.73387 -0.25,0.90625 -0.32564,0.39475 -0.79658,0.59375 -1.53125,0.59375 -0.31363,0 -0.56148,-0.02235 -0.78125,-0.09375 -0.29705,-0.0977 -0.65233,0.15607 -0.65625,0.46875 l 0,0.75 c 0.003,0.20673 0.14735,0.40414 0.34375,0.46875 0.31123,0.0915 0.69134,0.125 1.125,0.125 1.26663,0 2.32179,-0.43613 3,-1.3125 0.65266,-0.84334 0.91594,-2.02043 0.9375,-3.5 3.5e-4,-0.0239 0.031,-0.0385 0.0312,-0.0625 10e-5,-0.0114 -6e-5,-0.01985 0,-0.03125 10e-4,-0.0208 10e-4,-0.0417 0,-0.0625 -1e-5,-0.74492 -0.10422,-1.41512 -0.34375,-2 -0.23906,-0.58367 -0.61626,-1.07863 -1.09375,-1.40625 -0.4749,-0.32581 -1.0193,-0.46875 -1.625,-0.46875 z m -17,0.0625 c -0.10037,0.0339 -0.18935,0.10064 -0.25,0.1875 l -3.65625,5.1875 c -0.0476,0.085 -0.0697,0.1841 -0.0625,0.28125 l 0,0.78125 c 3e-5,0.26179 0.23821,0.49997 0.5,0.5 l 3.21875,0 0,1.25 c 3e-5,0.26179 0.23821,0.49997 0.5,0.5 l 0.8125,0 c 0.26179,-3e-5 0.49997,-0.23821 0.5,-0.5 l 0,-1.25 0.65625,0 c 0.26179,-3e-5 0.49997,-0.23821 0.5,-0.5 l 0,-0.8125 c -3e-5,-0.26179 -0.23821,-0.49997 -0.5,-0.5 l -0.65625,0 0,-4.625 c -3e-5,-0.26179 -0.23821,-0.49997 -0.5,-0.5 l -0.90625,0 c -0.0517,-0.008 -0.10459,-0.008 -0.15625,0 z m -6.34375,0.03125 a 0.50005,0.50005 0 0 0 -0.1875,0.09375 L 118.40625,12 a 0.50005,0.50005 0 0 0 -0.0937,0.71875 l 0.46875,0.59375 a 0.50005,0.50005 0 0 0 0.6875,0.09375 c 0.38027,-0.30852 0.44844,-0.36111 0.65625,-0.53125 -4.1e-4,0.0546 0,0.10103 0,0.15625 l 0,5.46875 a 0.50005,0.50005 0 0 0 0.5,0.5 l 0.84375,0 a 0.50005,0.50005 0 0 0 0.5,-0.5 l 0,-7.65625 a 0.50005,0.50005 0 0 0 -0.5,-0.5 l -0.75,0 a 0.50005,0.50005 0 0 0 -0.0937,0 z m 16.3125,1.625 c 0.24214,0 0.42005,0.067 0.59375,0.1875 0.18043,0.1252 0.32669,0.29073 0.4375,0.53125 0.11185,0.24287 0.15624,0.51107 0.15625,0.8125 -1e-5,0.13961 -0.0196,0.25296 -0.125,0.40625 -0.10245,0.14901 -0.23837,0.2787 -0.4375,0.375 -0.19714,0.0953 -0.4064,0.12501 -0.65625,0.125 -0.41961,10e-6 -0.64077,-0.089 -0.78125,-0.25 -0.15658,-0.17941 -0.25,-0.4244 -0.25,-0.84375 0,-0.49322 0.10373,-0.82187 0.28125,-1.03125 0.17481,-0.20619 0.38929,-0.3125 0.78125,-0.3125 z m 7.03125,0 c 0.24214,0 0.42005,0.067 0.59375,0.1875 0.18043,0.12521 0.29545,0.29074 0.40625,0.53125 0.11185,0.24287 0.18749,0.51107 0.1875,0.8125 -1e-5,0.13962 -0.0509,0.25297 -0.15625,0.40625 -0.10245,0.14901 -0.23837,0.2787 -0.4375,0.375 -0.19714,0.0953 -0.4064,0.12501 -0.65625,0.125 -0.41961,10e-6 -0.60952,-0.089 -0.75,-0.25 -0.15658,-0.17941 -0.28125,-0.4244 -0.28125,-0.84375 0,-0.49322 0.13498,-0.82187 0.3125,-1.03125 0.17481,-0.20619 0.38929,-0.3125 0.78125,-0.3125 z m -17.25,1.5 0,1.96875 -1.40625,0 1.40625,-1.96875 z m 5.125,3.25 c -0.29984,0 -0.6349,0.13877 -0.84375,0.375 -0.21296,0.24082 -0.28125,0.53405 -0.28125,0.84375 0,0.32888 0.0883,0.66605 0.34375,0.90625 0.20916,0.19664 0.50024,0.3125 0.78125,0.3125 0.30131,0 0.62998,-0.11701 0.84375,-0.34375 0.22118,-0.23458 0.3125,-0.56348 0.3125,-0.875 0,-0.31473 -0.0883,-0.63698 -0.3125,-0.875 -0.21526,-0.22852 -0.54218,-0.34375 -0.84375,-0.34375 z M 10,59.375 c -1.3830148,0 -2.3401328,1.30495 -2.5,2.46875 -0.4368833,3.1806 4.71875,6.625 4.71875,6.625 0,0 5.155633,-3.4444 4.71875,-6.625 -0.159867,-1.1638 -1.085735,-2.46875 -2.46875,-2.46875 -0.958753,0 -1.829206,0.55235 -2.25,1.34375 C 11.797956,59.92735 10.958753,59.375 10,59.375 z"
       transform="translate(-6.8482747,957.01825)"
       id="path3019"
       style="color:#000000;fill:#ff3fac;fill-opacity:1;fill-rule:nonzero;stroke:none;stroke-width:2.5;marker:none;visibility:visible;display:inline;overflow:visible;enable-background:accumulate" />
    <path
       d="m 4,17.21875 0,9.125 33.40625,0 0,-9.125 -33.40625,0 z m 0,13.125 0,9.125 9.125,0 0,-9.125 -9.125,0 z m 13.125,7.09375 0,2 24.28125,0 0,-2 -24.28125,0 z m 28.28125,0 0,2 24.28125,0 0,-2 -24.28125,0 z M 4,43.46875 l 0,4.5625 28.8125,0 0,-4.5625 -28.8125,0 z M 122.625,62 l 0,4.5625 28.8125,0 0,-4.5625 -28.8125,0 z"
       transform="translate(-6.8482747,957.01825)"
       id="rect3807-9"
       style="color:#000000;fill:#555555;fill-opacity:1;fill-rule:nonzero;stroke:none;stroke-width:1.5;marker:none;visibility:visible;display:inline;overflow:visible;enable-background:accumulate" />
  </g>
</svg>
