<?xml version="1.0" encoding="UTF-8" standalone="no"?>
<!-- Created with Inkscape (http://www.inkscape.org/) -->

<svg
   width="512"
   height="512"
   viewBox="0 0 512 512"
   version="1.1"
   id="svg5"
   xmlns:xlink="http://www.w3.org/1999/xlink"
   xmlns="http://www.w3.org/2000/svg"
   xmlns:svg="http://www.w3.org/2000/svg">
  <defs
     id="defs2">
    <linearGradient
       id="linearGradient8263">
      <stop
         style="stop-color:#3e3e3e;stop-opacity:0;"
         offset="0"
         id="stop8261" />
      <stop
         style="stop-color:#3e3e3e;stop-opacity:0;"
         offset="0.5"
         id="stop10439" />
      <stop
         style="stop-color:#3e3e3e;stop-opacity:1;"
         offset="1"
         id="stop8259" />
    </linearGradient>
    <radialGradient
       xlink:href="#linearGradient8263"
       id="radialGradient8093"
       cx="256"
       cy="301.64355"
       fx="256"
       fy="301.64355"
       r="103.28906"
       gradientTransform="matrix(2.4570757,2.5785522e-8,0,1.1941041,-373.01141,-86.920374)"
       gradientUnits="userSpaceOnUse" />
  </defs>
  <g
     id="layer1"
     style="display:inline">
    <path
       id="rect248426"
       style="display:inline;fill:#292929;fill-opacity:1;stroke:none;stroke-width:1;stroke-linecap:round;stroke-linejoin:round;stop-color:#000000"
       d="m 202,79.066406 c -0.8881,0 -1.77713,0.318889 -2.48047,0.957032 l -3.85742,3.501953 c -1.57904,1.432674 -2.47852,3.465539 -2.47852,5.597656 v 35.000003 c -3.83032,1.66724 -7.54305,3.62073 -11.05859,5.93164 l -18.55859,12.20117 c -11.51898,7.57188 -18.4375,20.32572 -18.4375,33.98437 v 76.29688 h 0.004 a 110.87179,26.219832 0 0 0 -0.004,0.0176 A 110.87179,26.219832 0 0 0 256,278.77344 a 110.87179,26.219832 0 0 0 110.87109,-26.21875 110.87179,26.219832 0 0 0 -0.002,-0.0176 h 0.002 v -76.29688 c 0,-13.65865 -6.91851,-26.41249 -18.4375,-33.98437 L 329.875,130.05469 c -3.51571,-2.31102 -7.22807,-4.26436 -11.05859,-5.93164 V 89.123047 c 0,-2.132117 -0.89948,-4.16498 -2.47852,-5.597656 l -3.85742,-3.501953 c -1.40668,-1.276286 -3.55426,-1.276286 -4.96094,0 l -3.85742,3.501953 c -1.57904,1.432674 -2.47852,3.465539 -2.47852,5.597656 v 29.806643 c -3.91986,-0.63758 -7.89691,-0.99414 -11.90429,-0.99414 h -66.5586 c -4.00738,0 -7.98443,0.35656 -11.90429,0.99414 V 89.123047 c 0,-2.132117 -0.89948,-4.16498 -2.47852,-5.597656 l -3.85742,-3.501953 C 203.77713,79.385295 202.8881,79.066406 202,79.066406 Z m -8.2207,213.171874 c -1.43778,0 -2.59571,1.15793 -2.59571,2.5957 v 63.45118 c 0,1.43777 1.15793,2.5957 2.59571,2.5957 h 16.4414 c 1.43778,0 2.59571,-1.15793 2.59571,-2.5957 v -63.45118 c 0,-1.43777 -1.15793,-2.5957 -2.59571,-2.5957 z m 107.8789,0 c -1.43777,0 -2.5957,1.15793 -2.5957,2.5957 v 63.45118 c 0,1.43777 1.15793,2.5957 2.5957,2.5957 h 16.6836 c 1.43777,0 2.5957,-1.15793 2.5957,-2.5957 v -63.45118 c 0,-1.43777 -1.15793,-2.5957 -2.5957,-2.5957 z" />
  </g>
  <g
     id="layer2"
     style="display:inline">
    <path
       id="rect9463-4-4-4"
       style="display:inline;fill:#3e3e3e;fill-opacity:1;stroke:none;stroke-width:0.999999;stroke-linecap:round;stroke-linejoin:round;stop-color:#000000"
       d="m 138.17773,338.82031 c -9.48882,0 -17.12695,7.64009 -17.12695,17.12891 v 71.15039 c 0,9.48882 7.63813,17.12695 17.12695,17.12695 h 28.75196 v 6.76172 c 0,9.48882 7.63813,17.12695 17.12695,17.12695 h 143.88672 c 9.48882,0 17.12695,-7.63813 17.12695,-17.12695 v -6.76172 h 28.75196 c 9.48882,0 17.12695,-7.63813 17.12695,-17.12695 v -71.15039 c 0,-9.48882 -7.63813,-17.12891 -17.12695,-17.12891 h -53.00586 v 16.11133 h -21.63282 v -16.11133 h -86.36718 v 16.11133 h -21.63282 v -16.11133 z" />
    <path
       id="path305080-6"
       style="display:inline;fill:url(#radialGradient8093);fill-opacity:1;stroke:none;stroke-width:5;stroke-linecap:round;stroke-linejoin:round;stroke-miterlimit:4;stroke-dasharray:none;stroke-opacity:1;stop-color:#000000"
       d="m 223.85804,120.68555 c -13.95256,0 -27.59418,4.0722 -39.20653,11.70546 l -17.92368,11.78241 c -11.12508,7.31295 -17.80826,19.6307 -17.80826,32.82228 v 73.68917 h 0.004 a 107.08042,25.323219 0 0 0 -0.004,0.0162 107.08042,25.323219 0 0 0 107.08042,25.32239 107.08042,25.323219 0 0 0 107.08042,-25.32236 107.08042,25.323219 0 0 0 -0.002,-0.0162 h 0.002 v -73.68917 c 0,-13.19158 -6.68318,-25.50933 -17.80826,-32.82228 l -17.92368,-11.78241 c -11.61235,-7.63326 -25.25397,-11.70546 -39.20653,-11.70546 z" />
  </g>
  <g
     id="layer3"
     style="display:inline">
    <path
       id="path248422-8-9"
       style="display:inline;fill:#555555;fill-opacity:1;stroke-width:0.999994;stroke-linecap:round;stroke-linejoin:round;stop-color:#000000"
       d="m 221.84766,114.43555 c -14.82532,0 -29.31949,4.38487 -41.65821,12.60351 l -19.04492,12.68555 c -11.82097,7.87378 -18.92187,21.13661 -18.92187,35.33984 v 73.76758 h 10.48828 v -71.08008 c 0,-12.72451 6.44655,-24.60613 17.17773,-31.66015 l 17.28906,-11.36524 c 11.2012,-7.36299 24.35981,-11.29101 37.81836,-11.29101 h 62.00782 c 13.45855,0 26.61716,3.92802 37.81836,11.29101 l 17.28906,11.36524 c 10.73118,7.05402 17.17773,18.93564 17.17773,31.66015 v 71.08008 h 10.48828 v -73.76758 c 0,-14.20323 -7.1009,-27.46607 -18.92187,-35.33984 l -19.04492,-12.68555 c -12.33872,-8.21863 -26.83289,-12.60351 -41.65821,-12.60351 z m -80,220.10351 a 25.080048,25.080048 0 0 0 -25.08008,25.08008 v 5.82422 a 6.1170848,6.1170848 0 0 0 6.11719,6.11523 h 39.08398 l 0.62109,5.46094 10.46094,3.20508 a 25.080048,25.080048 0 0 0 20.79688,11.33398 h 124.30468 a 25.080048,25.080048 0 0 0 20.79688,-11.33398 l 9.5,-3.51563 0.58789,-5.15039 h 40.07812 a 6.1170848,6.1170848 0 0 0 6.11719,-6.11523 v -5.82422 a 25.080048,25.080048 0 0 0 -25.08008,-25.08008 h -49.33593 v 16.83985 l -1.97071,1.43164 c -0.35661,1.00648 -1.49134,1.72851 -2.62304,1.72851 h -12.44532 c -1.19748,0 -2.44036,-0.74469 -2.74218,-1.84375 l -1.85157,-1.46875 v -16.6875 h -86.36718 v 15.98242 l -1.85547,1.7129 c -0.13825,1.30569 -1.39474,2.30468 -2.73828,2.30468 h -12.44532 c -0.97657,0 -2.06278,-0.54085 -2.50586,-1.33398 l -2.08789,-1.33399 v -17.33203 z" />
  </g>
  <g
     id="layer4"
     style="display:inline">
    <path
       id="rect248410"
       style="display:inline;fill:#2f7f6f;fill-opacity:1;stroke:none;stroke-linecap:round;stroke-linejoin:round;stop-color:#000000"
       d="m 147.4668,245.39453 c -2.89632,1.3e-4 -5.24414,1.53911 -5.24414,3.4375 v 199.90625 c 0,29.14424 23.46318,52.60742 52.60742,52.60742 h 122.33984 c 29.14424,0 52.60742,-23.46318 52.60742,-52.60742 V 248.83203 c 0,-1.89839 -2.34782,-3.43737 -5.24414,-3.4375 -2.89632,1.3e-4 -5.24414,1.53911 -5.24414,3.4375 h -0.002 c 6.6e-4,0.005 9.5e-4,0.0104 0.002,0.0156 -0.002,13.49012 -46.24546,24.42578 -103.28906,24.42578 -57.0436,0 -103.28712,-10.93566 -103.28906,-24.42578 0.001,-0.005 0.003,-0.0104 0.004,-0.0156 h -0.004 c 0,-1.89839 -2.34782,-3.43737 -5.24414,-3.4375 z m 48.31054,53.18555 h 12.44532 c 1.43777,0 2.59375,1.15793 2.59375,2.5957 v 50.76758 c 0,1.43777 -1.15564,2.5957 -2.59341,2.5957 l 95.554,-6e-5 c -1.43777,0 -2.59341,-1.15787 -2.59341,-2.59564 v -50.76758 c 0,-1.43777 1.15598,-2.5957 2.59375,-2.5957 h 12.44532 c 1.43777,0 2.59375,1.15793 2.59375,2.5957 v 50.76758 c 0,1.43777 -1.15564,2.59564 -2.59341,2.59564 l 20.89223,6e-5 c 3.37845,-6e-5 6.11725,2.73874 6.11719,6.11719 v 5.82227 c -0.0535,4.90217 -1.54288,9.68156 -4.28342,13.74648 l 2.2e-4,66.87461 c 3e-5,9.48882 -7.63813,17.12695 -17.12695,17.12695 H 190.17773 c -9.48882,0 -17.12698,-7.63813 -17.12695,-17.12695 L 173.051,380.225 c -2.74054,-4.06492 -4.22987,-8.84431 -4.28342,-13.74648 v -5.82227 c -6e-5,-3.37845 2.73874,-6.11725 6.11719,-6.11719 l 20.89223,-6e-5 c -1.43777,0 -2.59341,-1.15787 -2.59341,-2.59564 v -50.76758 c 0,-1.43777 1.15598,-2.5957 2.59375,-2.5957 z" />
  </g>
  <g
     id="layer5"
     style="display:inline">
    <path
       style="color:#000000;fill:#ccff00;stroke-linecap:round;stroke-linejoin:round;-inkscape-stroke:none"
       d="m 193.7207,287.69922 c -2.78003,0 -5.0957,2.31566 -5.0957,5.0957 v 16.5586 c 0,2.78004 2.31566,5.0957 5.0957,5.0957 h 16.5586 c 2.78004,0 5.0957,-2.31566 5.0957,-5.0957 v -16.5586 c 0,-2.78004 -2.31567,-5.0957 -5.0957,-5.0957 z m 108,0 c -2.78003,0 -5.0957,2.31566 -5.0957,5.0957 v 16.5586 c 0,2.78004 2.31566,5.0957 5.0957,5.0957 h 16.5586 c 2.78004,0 5.0957,-2.31566 5.0957,-5.0957 v -16.5586 c 0,-2.78004 -2.31567,-5.0957 -5.0957,-5.0957 z m -108,5 h 16.5586 c 0.0955,0 0.0957,1.9e-4 0.0957,0.0957 v 16.5586 c 0,0.0955 -2.1e-4,0.0957 -0.0957,0.0957 h -16.5586 c -0.0955,0 -0.0957,-2.1e-4 -0.0957,-0.0957 v -16.5586 c 0,-0.0955 2e-4,-0.0957 0.0957,-0.0957 z m 108,0 h 16.5586 c 0.0955,0 0.0957,1.9e-4 0.0957,0.0957 v 16.5586 c 0,0.0955 -2.1e-4,0.0957 -0.0957,0.0957 h -16.5586 c -0.0955,0 -0.0957,-2.1e-4 -0.0957,-0.0957 v -16.5586 c 0,-0.0955 2e-4,-0.0957 0.0957,-0.0957 z"
       id="rect248436" />
  </g>
</svg>
