<?xml version="1.0" encoding="UTF-8" standalone="no"?>
<svg
   xmlns:dc="http://purl.org/dc/elements/1.1/"
   xmlns:cc="http://creativecommons.org/ns#"
   xmlns:rdf="http://www.w3.org/1999/02/22-rdf-syntax-ns#"
   xmlns:svg="http://www.w3.org/2000/svg"
   xmlns="http://www.w3.org/2000/svg"
   id="svg5827"
   version="1.1"
   viewBox="0 0 21.166666 4.2333335"
   height="16"
   width="80">
  <defs
     id="defs5821" />
  <metadata
     id="metadata5824">
    <rdf:RDF>
      <cc:Work
         rdf:about="">
        <dc:format>image/svg+xml</dc:format>
        <dc:type
           rdf:resource="http://purl.org/dc/dcmitype/StillImage" />
        <dc:title></dc:title>
        <dc:creator>
          <cc:Agent>
            <dc:title>T. Gantt</dc:title>
          </cc:Agent>
        </dc:creator>
      </cc:Work>
    </rdf:RDF>
  </metadata>
  <g
     style="display:inline"
     id="layer1">
    <path
       id="path942"
       transform="scale(0.26458333)"
       d="m 20,0 v 1 h -1 v 1 l 1,1 2,-2 -1,-1 z m 6,0 -1,1 2,2 1,-1 V 1 H 27 V 0 Z m 4,0 v 1 l 1,1 1,-1 -1,-1 z m 22,0 v 1 l 1,1 1,-1 -1,-1 z m 7,0 -1,1 2,2 1,-1 V 1 H 60 V 0 Z m 4,0 v 1 l 1,1 1,-1 -1,-1 z m -52,2 -1,1 1,1 v 2 h 3 V 4 L 15,3 14,2 H 13 V 3 L 13.425781,3.4628906 13,4 H 12 L 11.320312,3.5566406 12,3 V 2 Z m 11,0 -1,1 1,1 h 1 V 3 Z m 3,0 -1,1 v 1 h 1 l 1,-1 z m 11,0 -1,1 1,1 h 1 V 3 Z m 19,0 -1,1 1,1 h 1 V 3 Z m 3,0 -1,1 v 1 h 1 l 1,-1 z m 8,0 -1,1 1,1 h 1 V 3 Z m -6,4 -2,2 h -4 l -2,2 v 1 L 52.660156,11.402344 52,12 v 1 L 52.693359,13.519531 52,14 v 2 h 3 V 14 L 54.414062,13.486328 55,13 V 12 L 54.480469,11.568359 55,11 v -1 h 2 v 2 h 1 v 1 L 58.681641,13.552734 58,14 v 2 h 3 V 14 L 60.5,13.585938 61,13 V 12 L 60.400391,11.46875 61,11 V 9 H 60 V 8 h 1 V 7 Z M 10,8 8,10 v 1 L 8.46875,11.402344 8,12 v 1 L 8.5351562,13.519531 8,14 v 2 h 3 V 14 L 10.486328,13.453125 11,13 V 12 L 10.320312,11.402344 11,11 v -1 h 1 L 12.404297,10.443359 12,11 v 1 h 1 V 11 L 12.701172,10.509766 13,10 h 1 v 1 L 14.621094,11.599609 14,12 v 1 L 14.554688,13.486328 14,14 v 2 h 3 V 14 L 16.40625,13.486328 17,13 V 12 L 16.339844,11.501953 17,11 V 10 L 15,8 Z m 11,0 -2,2 v 1 L 19.748047,11.369141 19,12 v 1 L 19.681641,13.419922 19,14 v 2 h 3 V 14 L 21.5,13.552734 22,13 V 12 L 21.335938,11.435547 22,11 v -1 h 1 V 9 L 23.583984,8.4257812 24,9 v 1 h 1 v 1 L 25.701172,11.435547 25,12 v 1 L 25.767578,13.453125 25,14 v 2 h 3 V 14 L 27.189453,13.552734 28,13 V 12 L 27.289062,11.535156 28,11 V 10 L 26,8 Z m 44,0 -2,2 v 1 L 63.775391,11.535156 63,12 v 1 L 63.642578,13.386719 63,14 v 2 h 9 V 14 L 71.316406,13.519531 72,13 V 12 H 66 L 65.429688,11.369141 66,11 v -1 h 1 V 9 L 66,8 Z m -31,1 -1,1 v 1 L 33.541016,11.501953 33,12 v 1 L 33.607422,13.585938 33,14 v 2 h 3 V 14 L 35.294922,13.486328 36,13 V 12 L 35.261719,11.435547 36,11 V 10 L 35,9 Z m 8,0 -1,1 v 1 L 41.744141,11.535156 41,12 v 1 L 41.777344,13.519531 41,14 v 1 h 1 v 1 h 7 v -1 h 1 V 14 L 49.386719,13.419922 50,13 V 12 L 49.353516,11.435547 50,11 V 10 L 49,9 h -1 l -1,1 v 1 L 47.666016,11.435547 47,12 H 44 L 43.265625,11.46875 44,11 V 10 L 43,9 Z"
       style="color:#000000;display:inline;overflow:visible;visibility:visible;opacity:1;vector-effect:none;fill:#2f7f6f;fill-opacity:1;fill-rule:nonzero;stroke:none;stroke-width:41.71699905;stroke-linecap:round;stroke-linejoin:round;stroke-miterlimit:4;stroke-dasharray:none;stroke-dashoffset:0;stroke-opacity:1;marker:none;enable-background:accumulate" />
    <path
       id="rect831"
       transform="scale(0.26458333)"
       d="m 8,0 v 10 h 3 V 9 h 1 v 2 h 1 V 9 h 1 v 1 h 3 V 0 H 14 V 3 H 13 V 5 H 12 V 3 H 11 V 0 Z m 13,0 v 1 h -1 v 1 h -1 v 8 h 3 V 9 h 3 v 1 h 3 V 2 H 27 V 1 H 26 V 0 Z m 10,0 v 1 h -1 v 2 h 3 v 7 h 3 V 3 h 3 V 0 Z m 10,0 v 10 h 3 V 0 Z m 6,0 v 10 h 3 V 0 Z m 6,0 v 1 h -1 v 9 h 3 V 9 h 2 v 1 h 3 V 9 H 59 V 8 h 1 V 7 h 1 V 2 H 60 V 1 H 59 V 0 Z m 11,0 v 1 h -1 v 9 h 3 V 9 h 6 V 6 H 66 V 3 h 6 V 0 Z M 22,3 h 3 v 3 h -3 z m 33,0 h 3 V 6 H 55 Z M 8,11 v 1 h 3 v -1 z m 6,0 v 1 h 3 v -1 z m 5,0 v 1 h 3 v -1 z m 6,0 v 1 h 3 v -1 z m 8,0 v 1 h 3 v -1 z m 8,0 v 1 h 3 v -1 z m 6,0 v 1 h 3 v -1 z m 5,0 v 1 h 3 v -1 z m 6,0 v 1 h 3 v -1 z m 5,0 v 1 h 3 V 11 Z M 8,13 v 1 h 3 v -1 z m 6,0 v 1 h 3 v -1 z m 5,0 v 1 h 3 v -1 z m 6,0 v 1 h 3 v -1 z m 8,0 v 1 h 3 v -1 z m 8,0 v 1 h 9 v -1 z m 11,0 v 1 h 3 v -1 z m 6,0 v 1 h 3 v -1 z m 5,0 v 1 h 9 v -1 z"
       style="color:#000000;display:inline;overflow:visible;visibility:visible;opacity:1;vector-effect:none;fill:#ccff00;fill-opacity:1;fill-rule:nonzero;stroke:none;stroke-width:41.71699905;stroke-linecap:round;stroke-linejoin:round;stroke-miterlimit:4;stroke-dasharray:none;stroke-dashoffset:0;stroke-opacity:1;marker:none;enable-background:accumulate" />
  </g>
</svg>
