<?xml version="1.0" encoding="UTF-8" standalone="no"?>
<svg
   xmlns:dc="http://purl.org/dc/elements/1.1/"
   xmlns:cc="http://creativecommons.org/ns#"
   xmlns:rdf="http://www.w3.org/1999/02/22-rdf-syntax-ns#"
   xmlns:svg="http://www.w3.org/2000/svg"
   xmlns="http://www.w3.org/2000/svg"
   version="1.1"
   id="svg3815"
   height="8"
   width="76">
  <defs
     id="defs3817" />
  <metadata
     id="metadata3820">
    <rdf:RDF>
      <cc:Work
         rdf:about="">
        <dc:format>image/svg+xml</dc:format>
        <dc:type
           rdf:resource="http://purl.org/dc/dcmitype/StillImage" />
        <dc:title></dc:title>
        <dc:creator>
          <cc:Agent>
            <dc:title>T. Gantt</dc:title>
          </cc:Agent>
        </dc:creator>
      </cc:Work>
    </rdf:RDF>
  </metadata>
  <g
     style="display:inline"
     transform="translate(0,-1044.3622)"
     id="layer1">
    <path
       id="path3767-2-9-8-7-0"
       transform="translate(0,1044.3622)"
       d="m 15,0 -1,1 v 1 4 1 l 1,1 H 15.96875 17 17.03125 C 17.5672,8 18,7.554 18,7 V 6 2 1 C 18,0.446 17.5672,0 17.03125,0 H 17 15.96875 Z m 21,0 -1,1 1,1 h 1 V 0 Z m 3,0 v 2 h 1 L 41,1 40,0 Z M 58.96875,0 C 58.4328,0 58,0.446 58,1 v 1 1 1 c 0,0.554 0.4328,1 0.96875,1 H 59 60.03125 61 L 62,4 V 3 2 1 L 61,0 H 60.03125 Z M 23,1 v 6 h 1 L 25,6 V 2 L 24,1 Z m 29,0 -1,1 v 1 l 1,1 -1,1 v 3 h 1 L 53,7 V 4 1 Z M 4,3 3,4 V 7 H 5 L 6,6 V 3 Z m 32,0 -1,1 v 3 h -1 l 0.96875,1 H 35 36 36.03125 C 36.5672,8 37,7.554 37,7 V 6 3 Z m 3,0 v 5 h 1 L 41,7 V 4 L 40,3 Z m 32,1 -1,1 v 1 l 1,1 h 2 V 4 Z M 58,6 v 1 c 0,0.554 0.4328,1 0.96875,1 H 59 60.03125 61 L 62,7 60,6 Z"
       style="color:#000000;display:inline;overflow:visible;visibility:visible;fill:#31d6ff;fill-opacity:1;fill-rule:nonzero;stroke:none;stroke-width:8;marker:none;enable-background:accumulate" />
    <path
       id="path3767-2-9-8-7"
       transform="translate(0,1044.3622)"
       d="M 0.96875,0 C 0.43280004,0 0,0.446 0,1 v 1 h 4 3 5 V 6 H 4 V 3 H 0 V 6 7 C 0,7.554 0.43280004,8 0.96875,8 H 1 2.03125 13.96875 15 15.03125 C 15.5672,8 16,7.554 16,7 V 6 2 1 C 16,0.446 15.5672,0 15.03125,0 H 15 13.96875 2.03125 Z m 20,0 C 20.4328,0 20,0.446 20,1 v 1 4 1 c 0,0.554 0.4328,1 0.96875,1 H 21 22.03125 33.96875 35 35.03125 C 35.5672,8 36,7.554 36,7 V 6 3 h -8 v 2 h 4 V 6 H 24 V 2 H 36 V 0 H 22.03125 Z M 40,0 v 2 h 4 2 6 v 1 h -6 -2 -4 v 5 h 4 V 5 h 8 v 3 h 1.96875 1.0625 H 56 V 7 6 C 56,5.446 55.5672,5 55.03125,5 H 55 V 4 h 0.03125 C 55.5672,4 56,3.554 56,3 V 1 C 56,0.446 55.5672,0 55.03125,0 H 55 53.96875 Z M 60.96875,0 C 60.4328,0 60,0.446 60,1 v 1 1 1 c 0,0.554 0.4328,1 0.96875,1 H 61 62.03125 72 v 1 h -9 -3 v 1 c 0,0.554 0.4328,1 0.96875,1 H 61 62.03125 73.96875 75 75.03125 C 75.5672,8 76,7.554 76,7 V 6 5 4 C 76,3.446 75.5672,3 75.03125,3 H 75 73.96875 64 V 2 h 9 3 V 1 C 76,0.446 75.5672,0 75.03125,0 H 75 73.96875 62.03125 Z"
       style="color:#000000;display:inline;overflow:visible;visibility:visible;fill:#ffffff;fill-opacity:1;fill-rule:nonzero;stroke:none;stroke-width:8;marker:none;enable-background:accumulate" />
  </g>
</svg>
