<?xml version="1.0" encoding="UTF-8" standalone="no"?>
<svg
   xmlns:dc="http://purl.org/dc/elements/1.1/"
   xmlns:cc="http://creativecommons.org/ns#"
   xmlns:rdf="http://www.w3.org/1999/02/22-rdf-syntax-ns#"
   xmlns:svg="http://www.w3.org/2000/svg"
   xmlns="http://www.w3.org/2000/svg"
   id="svg5827"
   version="1.1"
   viewBox="0 0 21.166666 4.2333335"
   height="16"
   width="80">
  <defs
     id="defs5821" />
  <metadata
     id="metadata5824">
    <rdf:RDF>
      <cc:Work
         rdf:about="">
        <dc:format>image/svg+xml</dc:format>
        <dc:type
           rdf:resource="http://purl.org/dc/dcmitype/StillImage" />
        <dc:title></dc:title>
        <dc:creator>
          <cc:Agent>
            <dc:title>T. Gantt</dc:title>
          </cc:Agent>
        </dc:creator>
      </cc:Work>
    </rdf:RDF>
  </metadata>
  <g
     id="layer1">
    <path
       id="path911"
       transform="scale(0.26458333)"
       d="m 19,0 v 1 l 1,1 1,-1 -1,-1 z m 11,0 v 1 l 1,1 1,-1 -1,-1 z m 11,0 v 1 l 1,1 1,-1 -1,-1 z m -16,2 -1,1 1,1 h 1 V 3 Z m 8,0 -1,1 1,1 h 1 V 3 Z m 11,0 -1,1 1,1 h 1 V 3 Z m 11,0 -1,1 1,1 1,-1 V 2 Z m 1,2 -1,1 1,1 1,-1 V 4 Z m 1,2 -1,1 1,1 1,-1 V 6 Z m 0,2 h -3 v 1 h -1 l -1,1 v 1 L 52.59375,11.501953 52,12 v 1 L 52.496094,13.453125 52,14 v 2 h 3 V 14 L 54.380859,13.453125 55,13 V 12 L 54.248047,11.535156 55,11 v -1 h 1 v 2 h 1 v 2 h 1 v 2 h 3 V 14 L 60.333984,13.486328 61,13 V 12 L 60.333984,11.501953 61,11 V 10 L 59,8 Z M 33,8 32,9 h -1 l -1,1 v 1 L 30.730469,11.402344 30,12 v 1 L 30.53125,13.585938 30,14 v 2 h 9 V 14 L 38.271484,13.552734 39,13 V 12 H 33 L 32.382812,11.501953 33,11 v -1 h 1 V 9 Z m 11,0 -1,1 h -1 l -1,1 v 1 L 41.730469,11.402344 41,12 v 1 L 41.53125,13.585938 41,14 v 2 h 9 V 14 L 49.271484,13.552734 50,13 V 12 H 44 L 43.382812,11.501953 44,11 v -1 h 1 V 9 Z m -21,1 -1,1 v 1 L 22.591797,11.501953 22,12 v 1 L 22.591797,13.453125 22,14 v 2 h 3 V 14 L 24.478516,13.419922 25,13 V 12 L 24.412109,11.435547 25,11 V 10 L 24,9 Z"
       style="color:#000000;display:inline;overflow:visible;visibility:visible;opacity:1;vector-effect:none;fill:#2f7f6f;fill-opacity:1;fill-rule:nonzero;stroke:none;stroke-width:41.71699905;stroke-linecap:round;stroke-linejoin:round;stroke-miterlimit:4;stroke-dasharray:none;stroke-dashoffset:0;stroke-opacity:1;marker:none;enable-background:accumulate" />
    <path
       id="rect831"
       transform="scale(0.26458333)"
       d="m 20,0 v 1 h -1 v 2 h 3 v 7 h 3 V 3 h 3 V 0 Z m 11,0 v 1 h -1 v 9 h 3 V 9 h 6 V 6 H 33 V 3 h 6 V 0 Z m 11,0 v 1 h -1 v 9 h 3 V 9 h 6 V 6 H 44 V 3 h 6 V 0 Z m 10,0 v 10 h 3 V 9 h 1 v 1 h 5 V 0 H 58 V 7 H 57 V 5 H 56 V 3 H 55 V 0 Z M 22,11 v 1 h 3 v -1 z m 8,0 v 1 h 3 v -1 z m 11,0 v 1 h 3 v -1 z m 11,0 v 1 h 3 v -1 z m 5,0 v 1 h 4 v -1 z m -35,2 v 1 h 3 v -1 z m 8,0 v 1 h 9 v -1 z m 11,0 v 1 h 9 v -1 z m 11,0 v 1 h 3 v -1 z m 6,0 v 1 h 3 v -1 z"
       style="color:#000000;display:inline;overflow:visible;visibility:visible;opacity:1;vector-effect:none;fill:#ccff00;fill-opacity:1;fill-rule:nonzero;stroke:none;stroke-width:41.71699905;stroke-linecap:round;stroke-linejoin:round;stroke-miterlimit:4;stroke-dasharray:none;stroke-dashoffset:0;stroke-opacity:1;marker:none;enable-background:accumulate" />
  </g>
</svg>
