<?xml version="1.0" encoding="UTF-8" standalone="no"?>
<!-- Created with Inkscape (http://www.inkscape.org/) -->

<svg
   width="512"
   height="512"
   viewBox="0 0 512 512"
   version="1.1"
   id="svg5"
   xmlns="http://www.w3.org/2000/svg"
   xmlns:svg="http://www.w3.org/2000/svg">
  <defs
     id="defs2" />
  <g
     id="layer2"
     style="display:inline">
    <path
       id="rect36518"
       style="display:inline;fill:#292929;fill-opacity:1;stroke:none;stroke-width:0.999998;stroke-linecap:round;stroke-linejoin:round;stop-color:#000000"
       d="m 256,147.375 c -4.61134,0 -8.46521,4.74588 -11.56641,11.10156 3.54665,-1.80198 7.40072,-2.86719 11.56641,-2.86718 4.16569,0 8.01976,1.0652 11.56641,2.86718 C 264.46521,152.12088 260.61134,147.375 256,147.375 Z m -60.22266,32.98828 c -1.43777,0 -2.59375,1.15793 -2.59375,2.5957 v 0.72266 l -2.99414,3.12891 -0.50586,193.00586 h 24.63282 l -1.07618,-192.93946 -2.42382,-3.19531 v -0.72266 c 0,-1.43777 -1.15598,-2.5957 -2.59375,-2.5957 z m 108,0 c -1.43777,0 -2.59375,1.15793 -2.59375,2.5957 v 0.72266 l -3.8125,4.63086 -2.55078,191.22266 h 30.35938 L 322.06641,188.5 l -3.25,-4.81836 v -0.72266 c 0,-1.43777 -1.15598,-2.5957 -2.59375,-2.5957 z" />
  </g>
  <g
     id="layer3"
     style="display:inline">
    <path
       id="rect9463-4-4"
       style="display:inline;fill:#3e3e3e;fill-opacity:1;stroke:none;stroke-width:0.999999;stroke-linecap:round;stroke-linejoin:round;stop-color:#000000"
       d="m 256,145.54102 c -23.46958,0 -35.2793,40.71484 -35.2793,40.71484 h 16.00977 c 2.25016,-11.02536 8.67575,-37.04492 19.26953,-37.04492 10.59378,0 17.01937,26.01956 19.26953,37.04492 h 16.00977 c 0,0 -11.80972,-40.71484 -35.2793,-40.71484 z M 185.75,193 v 15 l 7.43359,-2 h 17.63282 l 7.43359,2 v -15 l -7.43359,2 h -17.63282 z m 108,0 v 15 l 7.43359,-2 h 17.63282 l 7.43359,2 v -15 l -7.43359,2 h -17.63282 z m -108,72 v 15 l 7.43359,-2 h 17.63282 l 7.43359,2 v -15 l -7.43359,2 h -17.63282 z m 108,0 v 15 l 7.43359,-2 h 17.63282 l 7.43359,2 v -15 l -7.43359,2 h -17.63282 z m -155.57227,73.82031 c -9.48882,0 -17.12695,7.64009 -17.12695,17.12891 v 71.15039 c 0,9.48882 7.63813,17.12695 17.12695,17.12695 h 25.58204 l -0.25586,1.88672 c -1.42638,10.48423 8.5188,25.09961 19.09961,25.09961 h 146.79296 c 10.58081,0 20.52599,-14.61538 19.09961,-25.09961 l -0.25586,-1.88672 h 25.58204 c 9.48882,0 17.12695,-7.63813 17.12695,-17.12695 v -71.15039 c 0,-9.48882 -7.63813,-17.12891 -17.12695,-17.12891 H 324.5625 v 40.54297 h -31.11328 v -40.54297 h -76.7207 v 20 H 216.5 v 21.25 h -28 V 358.9043 c -0.3809,0.0367 -0.74846,0.10074 -1.11719,0.16211 v -20.2461 z" />
  </g>
  <g
     id="layer4"
     style="display:inline">
    <path
       id="rect9463-4-8-3"
       style="display:inline;fill:#555555;fill-opacity:1;stroke-width:1;stroke-linecap:round;stroke-linejoin:round;stop-color:#000000"
       d="m 168.99805,247.48828 -33.10352,8.96094 v 6 a 44.822715,44.822715 0 0 0 6.32617,22.59766 l 0.002,0.008 14.75586,34.20312 21.5664,7.19141 14.63867,-4.85742 v -6 L 179.25195,276.83203 Z M 364.75,252.25 l -19.25,23 -26.68359,40.3418 v 6 L 330.5,329 l 26.76562,-18.22656 10.69532,-14.14258 1.8164,-11.57617 v -0.002 a 44.822715,44.822715 0 0 0 6.32813,-22.60351 v -6 z m -130.18555,41.90625 -23.74804,25.62109 v 6 l 7.67968,16.73633 3.91797,-0.20312 -11.59765,12.22851 v 8.65235 c 2.4e-4,2.13193 -0.89988,4.16481 -2.47852,5.59765 l -3.05273,2.76953 -0.80469,0.73047 c -1.40695,1.27741 -3.55399,1.27741 -4.96094,0 l -0.80469,-0.73047 -3.05273,-2.76953 c -1.57864,-1.43284 -2.47876,-3.46572 -2.47852,-5.59765 v -8.65235 L 180,347.5 178.4668,334.53906 h -36.61914 a 25.080048,25.080048 0 0 0 -25.08008,25.08008 v 5.82422 a 6.1170848,6.1170848 0 0 0 6.11719,6.11523 H 159.75 v 8.85938 h 13.30078 l 0.21289,-0.0899 a 25.080048,25.080048 0 0 0 20.58399,11.23047 h 124.30468 a 25.080048,25.080048 0 0 0 20.65235,-11.27929 l 0.14453,0.1875 H 355.25 v -8.90821 h 33.86523 a 6.1170848,6.1170848 0 0 0 6.11719,-6.11523 v -5.82422 a 25.080048,25.080048 0 0 0 -25.08008,-25.08008 h -29.52539 l -21.81054,20 v 8.65235 c 2.4e-4,2.13193 -0.89988,4.16481 -2.47852,5.59765 l -3.05273,2.76953 -0.80469,0.73047 c -1.40695,1.27741 -3.55399,1.27741 -4.96094,0 l -0.80469,-0.73047 -3.05273,-2.76953 c -1.57864,-1.43284 -2.47876,-3.46572 -2.47852,-5.59765 v -8.65235 L 279.5,340.25 l 1.00781,-0.94727 11.52735,-0.59765 9.14843,-12.92774 v -6 l -23.74804,-24.20703 z" />
  </g>
  <g
     id="layer5"
     style="display:inline">
    <path
       id="rect4110-1"
       style="display:inline;fill:#2f7f6f;fill-opacity:1;stroke:none;stroke-linecap:round;stroke-linejoin:round;stop-color:#000000"
       d="m 169.4082,183.68164 c -18.50912,-7e-5 -33.51374,15.00455 -33.51367,33.51367 v 39.25391 a 44.822715,44.822715 0 0 0 19.97461,37.30469 l 20.10352,13.39062 a 79.324196,79.324196 0 0 0 17.21093,8.44727 V 278 H 189.75 c -1.2465,0 -2.25,-1.0035 -2.25,-2.25 v -6.5 c 0,-1.2465 1.0035,-2.25 2.25,-2.25 h 3.43359 V 206 H 189.75 c -1.2465,0 -2.25,-1.0035 -2.25,-2.25 v -6.5 c 0,-1.2465 1.0035,-2.25 2.25,-2.25 h 3.43359 v -11.31836 z m 41.40821,0 V 195 H 214.25 c 1.2465,0 2.25,1.0035 2.25,2.25 v 6.5 c 0,1.2465 -1.0035,2.25 -2.25,2.25 h -3.43359 v 61 H 214.25 c 1.2465,0 2.25,1.0035 2.25,2.25 v 6.5 c 0,1.2465 -1.0035,2.25 -2.25,2.25 h -3.43359 v 41.77734 a 79.324196,79.324196 0 0 0 9.13086,0.67188 h 72.10546 a 79.324196,79.324196 0 0 0 9.13086,-0.67188 V 278 H 297.75 c -1.2465,0 -2.25,-1.0035 -2.25,-2.25 v -6.5 c 0,-1.2465 1.0035,-2.25 2.25,-2.25 h 3.43359 V 206 H 297.75 c -1.2465,0 -2.25,-1.0035 -2.25,-2.25 v -6.5 c 0,-1.2465 1.0035,-2.25 2.25,-2.25 h 3.43359 v -11.31836 z m 108,0 V 195 H 322.25 c 1.2465,0 2.25,1.0035 2.25,2.25 v 6.5 c 0,1.2465 -1.0035,2.25 -2.25,2.25 h -3.43359 v 61 H 322.25 c 1.2465,0 2.25,1.0035 2.25,2.25 v 6.5 c 0,1.2465 -1.0035,2.25 -2.25,2.25 h -3.43359 v 37.5918 a 79.324196,79.324196 0 0 0 17.21093,-8.44727 l 20.10352,-13.39062 a 44.822715,44.822715 0 0 0 19.97461,-37.30469 v -39.25391 c 7e-5,-18.50912 -15.00455,-33.51374 -33.51367,-33.51367 z m -182.92188,78.76758 c 0.0195,2.43238 0.30221,4.83533 0.71094,7.21484 a 44.822715,44.822715 0 0 1 -0.71094,-7.21484 z m 240.21094,0 a 44.822715,44.822715 0 0 1 -0.71094,7.21484 c 0.40873,-2.37951 0.69147,-4.78246 0.71094,-7.21484 z m -238.79102,10.58984 c 0.2838,1.1251 0.63945,2.22426 1.00977,3.32422 a 44.822715,44.822715 0 0 1 -1.00977,-3.32422 z m 237.3711,0 a 44.822715,44.822715 0 0 1 -1.00977,3.32422 c 0.37032,-1.09996 0.72597,-2.19912 1.00977,-3.32422 z m -232.46289,12.01563 v 163.68359 c 0,29.14424 23.46318,52.60742 52.60742,52.60742 h 122.33984 c 29.14424,0 52.60742,-23.46318 52.60742,-52.60742 V 285.05469 a 44.822715,44.822715 0 0 1 -13.64648,14.69922 l -20.10352,13.39062 a 79.324196,79.324196 0 0 1 -17.21093,8.44727 v 32.94726 h 18.29882 a 6.1170848,6.1170848 0 0 1 6.11719,6.11719 v 5.82227 a 25.080048,25.080048 0 0 1 -4.2832,13.98437 v 66.63672 c 0,9.48882 -7.63813,17.12695 -17.12695,17.12695 H 190.17773 c -9.48882,0 -17.12695,-7.63813 -17.12695,-17.12695 v -66.87695 a 25.080048,25.080048 0 0 1 -4.2832,-13.74414 v -5.82227 a 6.1170848,6.1170848 0 0 1 6.11719,-6.11719 h 18.29882 V 321.5918 a 79.324196,79.324196 0 0 1 -17.21093,-8.44727 l -20.10352,-13.39062 a 44.822715,44.822715 0 0 1 -13.64648,-14.69922 z m 68.59375,40.72265 v 28.76172 h 90.36718 v -28.76172 a 79.324196,79.324196 0 0 1 -9.13086,0.67188 h -72.10546 a 79.324196,79.324196 0 0 1 -9.13086,-0.67188 z" />
  </g>
  <g
     id="layer6"
     style="display:inline">
    <path
       id="rect108832"
       style="color:#000000;display:inline;fill:#ccff00;stroke-linecap:round;stroke-linejoin:round;-inkscape-stroke:none"
       d="m 247.96094,216.93555 -13.39649,26.79492 h 18.75586 l -8.03711,16.07617 29.47266,-29.47266 h -10.7168 l 13.39649,-13.39843 z m 2.67968,5.35937 h 14.73633 l -10.71679,12.05664 h 10.71679 l -10.04687,10.71875 3.34961,-5.35937 h -17.41602 z m -56.91992,65.4043 c -2.77952,0 -5.0957,2.31617 -5.0957,5.0957 v 16.5586 c 0,2.77952 2.31618,5.0957 5.0957,5.0957 h 16.5586 c 2.77952,0 5.0957,-2.31618 5.0957,-5.0957 v -16.5586 c 0,-2.77953 -2.31618,-5.0957 -5.0957,-5.0957 z m 108,0 c -2.77952,0 -5.0957,2.31617 -5.0957,5.0957 v 16.5586 c 0,2.77952 2.31618,5.0957 5.0957,5.0957 h 16.5586 c 2.77952,0 5.0957,-2.31618 5.0957,-5.0957 v -16.5586 c 0,-2.77953 -2.31618,-5.0957 -5.0957,-5.0957 z m -108,5 h 16.5586 c 0.096,0 0.0957,-3.1e-4 0.0957,0.0957 v 16.5586 c 0,0.096 3.1e-4,0.0957 -0.0957,0.0957 h -16.5586 c -0.096,0 -0.0957,3.1e-4 -0.0957,-0.0957 v -16.5586 c 0,-0.096 -3.1e-4,-0.0957 0.0957,-0.0957 z m 108,0 h 16.5586 c 0.096,0 0.0957,-3.1e-4 0.0957,0.0957 v 16.5586 c 0,0.096 3.1e-4,0.0957 -0.0957,0.0957 h -16.5586 c -0.096,0 -0.0957,3.1e-4 -0.0957,-0.0957 v -16.5586 c 0,-0.096 -3.1e-4,-0.0957 0.0957,-0.0957 z" />
  </g>
</svg>
