<?xml version="1.0" encoding="UTF-8" standalone="no"?>
<svg
   xmlns:dc="http://purl.org/dc/elements/1.1/"
   xmlns:cc="http://creativecommons.org/ns#"
   xmlns:rdf="http://www.w3.org/1999/02/22-rdf-syntax-ns#"
   xmlns:svg="http://www.w3.org/2000/svg"
   xmlns="http://www.w3.org/2000/svg"
   width="343.38745"
   height="212.03912"
   viewBox="0 0 90.85459 56.102017"
   version="1.1"
   id="svg8">
  <defs
     id="defs2" />
  <metadata
     id="metadata5">
    <rdf:RDF>
      <cc:Work
         rdf:about="">
        <dc:format>image/svg+xml</dc:format>
        <dc:type
           rdf:resource="http://purl.org/dc/dcmitype/StillImage" />
        <dc:title></dc:title>
        <dc:creator>
          <cc:Agent>
            <dc:title>T. Gantt</dc:title>
          </cc:Agent>
        </dc:creator>
      </cc:Work>
    </rdf:RDF>
  </metadata>
  <g
     transform="translate(-26.010674,-14.282314)"
     id="g1291"
     style="display:inline">
    <path
       id="path1153"
       transform="scale(0.26458333)"
       d="m 158.83984,148.02734 c -21.43616,0 -38.8125,25.31983 -38.8125,56.55469 0.005,3.38383 0.22393,6.75907 0.63868,10.08789 3.35105,26.89581 28.6098,29.35067 38.17382,29.34766 9.56403,-0.002 34.80543,-2.46112 38.16016,-29.34766 0.41532,-3.32879 0.64379,-6.70336 0.6543,-10.08789 0,-31.23486 -17.37829,-56.55469 -38.81446,-56.55469 z m 101.33204,68.91211 a 1.2816309,1.2816309 0 0 0 -1.28321,1.28125 1.2816309,1.2816309 0 0 0 1.28321,1.28125 1.2816309,1.2816309 0 0 0 1.28124,-1.28125 1.2816309,1.2816309 0 0 0 -1.28124,-1.28125 z m 23.86328,1.32813 a 1.1379614,1.1361463 89.999976 0 0 -0.19141,0.0234 1.1379614,1.1361463 89.999976 0 0 -0.89063,1.33984 1.1379614,1.1361463 89.999976 0 0 0.16211,0.39453 1.3005272,1.2984528 89.999889 0 0 -0.12695,0.86914 1.3005272,1.2984528 89.999889 0 0 1.5293,1.01758 1.3005272,1.2984528 89.999889 0 0 1.01562,-1.53125 1.3005272,1.2984528 89.999889 0 0 -0.36914,-0.67774 1.1379614,1.1361463 89.999976 0 0 0.0176,-0.52343 1.1379614,1.1361463 89.999976 0 0 -1.14648,-0.91211 z m -19.57813,0.79297 a 1.7677669,1.7677669 0 0 0 -1.74414,1.50195 1.9887378,1.9887378 0 0 0 -1.9668,1.99023 1.9887378,1.9887378 0 0 0 1.98829,1.98829 1.9887378,1.9887378 0 0 0 1.35351,-0.53516 1.3700194,1.3700194 0 0 0 0.67969,0.18164 1.3700194,1.3700194 0 0 0 1.36914,-1.37109 1.3700194,1.3700194 0 0 0 -0.3125,-0.86914 1.7677669,1.7677669 0 0 0 0.40234,-1.11915 1.7677669,1.7677669 0 0 0 -1.76953,-1.76757 z m 23.5918,2.34765 a 1.4066574,1.4089047 0 0 0 -1.40625,1.40821 1.4066574,1.4089047 0 0 0 0.23242,0.77343 1.8935773,1.8966025 0 0 0 -0.23242,0.90625 1.8935773,1.8966025 0 0 0 1.89258,1.89649 1.8935773,1.8966025 0 0 0 1.86132,-1.54492 1.5148619,1.517282 0 0 0 1.22266,-1.49024 1.5148619,1.517282 0 0 0 -1.51367,-1.51562 1.5148619,1.517282 0 0 0 -0.84766,0.25781 1.4066574,1.4089047 0 0 0 -1.20898,-0.69141 z"
       style="display:inline;opacity:1;vector-effect:none;fill:#c1c1c1;fill-opacity:1;fill-rule:nonzero;stroke:none;stroke-width:0.99999994;stroke-linecap:round;stroke-linejoin:round;stroke-miterlimit:4;stroke-dasharray:none;stroke-dashoffset:0;stroke-opacity:1" />
    <path
       id="rect1033"
       transform="scale(0.26458333)"
       d="m 216.86133,148.42383 c -5.62695,0 -10.15821,4.53159 -10.15821,10.16015 0,5.62857 4.53126,10.16016 10.15821,10.16016 h 106.75586 c 5.62694,0 10.15625,-4.53159 10.15625,-10.16016 0,-5.62856 -4.52931,-10.16015 -10.15625,-10.16015 z m 123.03125,9.51172 c -2.99306,0 -5.40235,2.41038 -5.40235,5.40429 0,2.99392 2.40929,5.4043 5.40235,5.4043 h 42.03515 c 2.99306,0 5.40235,-2.41038 5.40235,-5.4043 0,-2.99391 -2.40929,-5.40429 -5.40235,-5.40429 z m -181.06055,87.33203 a 57.267879,10.376026 0 0 0 -57.26758,10.37695 57.267879,10.376026 0 0 0 57.26758,10.375 57.267879,10.376026 0 0 0 57.26758,-10.375 57.267879,10.376026 0 0 0 -57.26758,-10.37695 z m 222.8125,0 a 57.267879,10.376026 0 0 0 -57.26758,10.37695 57.267879,10.376026 0 0 0 57.26758,10.375 57.267879,10.376026 0 0 0 57.26758,-10.375 57.267879,10.376026 0 0 0 -57.26758,-10.37695 z"
       style="display:inline;opacity:1;vector-effect:none;fill:#9d9d9d;fill-opacity:1;fill-rule:nonzero;stroke:none;stroke-width:0.99999982;stroke-linecap:round;stroke-linejoin:round;stroke-miterlimit:4;stroke-dasharray:none;stroke-dashoffset:0;stroke-opacity:1" />
    <rect
       style="display:inline;opacity:1;vector-effect:none;fill:#c1c1c1;fill-opacity:1;fill-rule:nonzero;stroke:none;stroke-width:0.26458332;stroke-linecap:round;stroke-linejoin:round;stroke-miterlimit:4;stroke-dasharray:none;stroke-dashoffset:0;stroke-opacity:1"
       id="rect1039"
       width="5.6034279"
       height="3.8034174"
       x="92.689095"
       y="32.721958"
       rx="0.75228077"
       ry="0.7524966" />
    <path
       id="ellipse1263"
       transform="scale(0.26458333)"
       d="m 274.97461,235.40039 c -1.34819,0 -2.6678,0.0258 -3.97266,0.0625 v 5.00977 c 1.3039,-0.0385 2.62272,-0.0664 3.97266,-0.0664 3.02437,0 5.94105,0.10459 8.69727,0.28906 v -5.01562 c -2.77318,-0.1779 -5.68093,-0.2793 -8.69727,-0.2793 z m -15.75195,0.94922 c -2.57184,0.3322 -4.95127,0.74038 -7.06446,1.22266 -2.98273,0.68071 -5.44712,1.47539 -7.375,2.51562 -0.96394,0.52012 -1.80826,1.10044 -2.50976,1.88281 -0.7015,0.78238 -1.27735,1.87926 -1.27735,3.11524 0,1.23597 0.57585,2.34067 1.27735,3.12304 0.7015,0.78237 1.54582,1.35488 2.50976,1.875 1.92788,1.04024 4.39227,1.84272 7.375,2.52344 5.96547,1.36144 13.96962,2.16406 22.81641,2.16406 8.84679,0 16.8529,-0.80262 22.81836,-2.16406 2.98273,-0.68072 5.44712,-1.4832 7.375,-2.52344 0.96394,-0.52012 1.80827,-1.09263 2.50976,-1.875 0.7015,-0.78237 1.27735,-1.88707 1.27735,-3.12304 0,-1.23598 -0.57585,-2.33286 -1.27735,-3.11524 -0.70149,-0.78237 -1.54582,-1.36269 -2.50976,-1.88281 -1.92788,-1.04023 -4.39227,-1.83491 -7.375,-2.51562 -0.74917,-0.17098 -1.53067,-0.3333 -2.3418,-0.48633 v 5.10351 c 0.41188,0.0841 0.83783,0.16519 1.22656,0.25391 2.7138,0.61935 4.85534,1.37398 6.11329,2.05273 0.45767,0.24696 0.64726,0.41887 0.84765,0.58985 -0.20031,0.17102 -0.38947,0.35042 -0.84765,0.59765 -1.25795,0.67876 -3.39949,1.42558 -6.11329,2.04493 -5.4276,1.23869 -13.16468,2.04492 -21.70312,2.04492 -8.53844,0 -16.27357,-0.80623 -21.70117,-2.04492 -2.71381,-0.61935 -4.85534,-1.36617 -6.11328,-2.04493 -0.45819,-0.24722 -0.6493,-0.42664 -0.84961,-0.59765 0.20039,-0.17099 0.39193,-0.34289 0.84961,-0.58985 1.25794,-0.67875 3.39947,-1.43338 6.11328,-2.05273 1.75418,-0.40034 3.76939,-0.74861 5.95508,-1.04492 -4.4e-4,-0.0226 -0.006,-0.0437 -0.006,-0.0664 z"
       style="color:#000000;font-style:normal;font-variant:normal;font-weight:normal;font-stretch:normal;font-size:medium;line-height:normal;font-family:sans-serif;font-variant-ligatures:normal;font-variant-position:normal;font-variant-caps:normal;font-variant-numeric:normal;font-variant-alternates:normal;font-feature-settings:normal;text-indent:0;text-align:start;text-decoration:none;text-decoration-line:none;text-decoration-style:solid;text-decoration-color:#000000;letter-spacing:normal;word-spacing:normal;text-transform:none;writing-mode:lr-tb;direction:ltr;text-orientation:mixed;dominant-baseline:auto;baseline-shift:baseline;text-anchor:start;white-space:normal;shape-padding:0;clip-rule:nonzero;display:inline;overflow:visible;visibility:visible;opacity:1;isolation:auto;mix-blend-mode:normal;color-interpolation:sRGB;color-interpolation-filters:linearRGB;solid-color:#000000;solid-opacity:1;vector-effect:none;fill:#666666;fill-opacity:1;fill-rule:nonzero;stroke:none;stroke-width:5.00000048;stroke-linecap:round;stroke-linejoin:round;stroke-miterlimit:4;stroke-dasharray:none;stroke-dashoffset:0;stroke-opacity:1;color-rendering:auto;image-rendering:auto;shape-rendering:auto;text-rendering:auto;enable-background:accumulate" />
    <path
       id="ellipse1035"
       transform="scale(0.26458333)"
       d="m 355.9707,126.69922 c -1.11337,0 -2.00976,0.88848 -2.00976,1.99023 v 1.01758 h -12.51953 c -2.55969,0 -4.61914,2.06262 -4.61914,4.62305 v 23.75781 c 0,2.56043 2.05945,4.62109 4.61914,4.62109 h 0.98828 a 2.5932623,2.5940066 0 0 0 2.58789,2.4375 2.5932623,2.5940066 0 0 0 2.58594,-2.4375 h 32.77539 c 2.55969,0 4.61914,-2.06066 4.61914,-4.62109 v -23.75781 c 0,-2.56043 -2.05945,-4.62305 -4.61914,-4.62305 h -12.51953 v -1.01758 c -10e-6,-1.10175 -0.8964,-1.99023 -2.00977,-1.99023 z M 127.28125,228.83984 c -14.36668,0 -25.93359,7.1341 -25.93359,15.9961 0,8.86199 11.56691,15.99609 25.93359,15.99609 h 63.10156 c 14.36668,0 25.9336,-7.1341 25.9336,-15.99609 0,-8.862 -11.56692,-15.9961 -25.9336,-15.9961 z m 222.8125,0 c -14.36668,0 -25.93359,7.1341 -25.93359,15.9961 0,8.86199 11.56691,15.99609 25.93359,15.99609 h 63.10352 c 14.36668,0 25.93164,-7.1341 25.93164,-15.99609 0,-8.862 -11.56496,-15.9961 -25.93164,-15.9961 z m -75.11914,7.56446 c -8.78512,0 -16.73781,0.80373 -22.5957,2.14062 -2.92895,0.66845 -5.32916,1.46175 -7.12305,2.42969 -0.89695,0.48397 -1.6477,1.01148 -2.23633,1.66797 -0.58863,0.65649 -1.01953,1.50339 -1.01953,2.44336 0,0.93997 0.4309,1.79468 1.01953,2.45117 0.58863,0.65649 1.33938,1.184 2.23633,1.66797 1.79389,0.96794 4.1941,1.76124 7.12305,2.42969 5.85789,1.33689 13.81058,2.14062 22.5957,2.14062 8.78512,0 16.73977,-0.80373 22.59766,-2.14062 2.92894,-0.66845 5.32915,-1.46175 7.12304,-2.42969 0.89694,-0.48397 1.6477,-1.01148 2.23633,-1.66797 0.58863,-0.65649 1.02539,-1.5112 1.02539,-2.45117 0,-0.93997 -0.43676,-1.78687 -1.02539,-2.44336 -0.58863,-0.65649 -1.33939,-1.184 -2.23633,-1.66797 -1.79389,-0.96794 -4.1941,-1.76124 -7.12304,-2.42969 -5.85789,-1.33689 -13.81254,-2.14062 -22.59766,-2.14062 z m 0,2.99804 c 8.60011,0 16.3906,0.80317 21.92578,2.06641 2.76759,0.63162 4.97721,1.38958 6.36914,2.14063 0.69597,0.37552 1.17576,0.75435 1.42578,1.0332 0.25002,0.27885 0.25782,0.39141 0.25781,0.44336 0,0.052 -0.008,0.17231 -0.25781,0.45117 -0.25001,0.27885 -0.72981,0.64986 -1.42578,1.02539 -1.39193,0.75105 -3.60155,1.50902 -6.36914,2.14062 -5.53518,1.26325 -13.32567,2.06641 -21.92578,2.06641 -8.60011,0 -16.38865,-0.80316 -21.92383,-2.06641 -2.76759,-0.6316 -4.97916,-1.38957 -6.37109,-2.14062 -0.69597,-0.37553 -1.17381,-0.74654 -1.42383,-1.02539 -0.25002,-0.27885 -0.25781,-0.39922 -0.25781,-0.45117 0,-0.0519 0.008,-0.16452 0.25781,-0.44336 0.25002,-0.27886 0.72786,-0.65769 1.42383,-1.0332 1.39193,-0.75105 3.6035,-1.50901 6.37109,-2.14063 5.53518,-1.26324 13.32372,-2.06641 21.92383,-2.06641 z"
       style="display:inline;opacity:1;vector-effect:none;fill:#9d9d9d;fill-opacity:1;fill-rule:nonzero;stroke:none;stroke-width:0.99999994;stroke-linecap:round;stroke-linejoin:round;stroke-miterlimit:4;stroke-dasharray:none;stroke-dashoffset:0;stroke-opacity:1" />
    <path
       id="path1053"
       transform="scale(0.26458333)"
       d="m 214.3457,54.480469 c -2.55969,0 -4.61914,2.060668 -4.61914,4.621093 v 96.800778 c 0,5.12084 4.12087,9.24414 9.24024,9.24414 h 102.54492 c 5.11937,0 9.24023,-4.1233 9.24023,-9.24414 V 59.101562 c 0,-2.560425 -2.0614,-4.621093 -4.62109,-4.621093 z M 344.63672,138.0918 v 6.41992 h 32.54687 v -6.41992 z m 2.70312,9.47656 c -1.50265,0 -2.71289,1.20981 -2.71289,2.71289 v 0.76367 c 0,1.50308 1.21024,2.71289 2.71289,2.71289 1.50265,0 2.71289,-1.20981 2.71289,-2.71289 v -0.76367 c 0,-1.50308 -1.21024,-2.71289 -2.71289,-2.71289 z m 9.04297,0 c -1.50265,0 -2.71093,1.20981 -2.71093,2.71289 v 0.76367 c 0,1.50308 1.20828,2.71289 2.71093,2.71289 1.50265,0 2.71289,-1.20981 2.71289,-2.71289 v -0.76367 c 0,-1.50308 -1.21024,-2.71289 -2.71289,-2.71289 z m -81.40625,90.33594 a 31.478746,7.1841052 0 0 0 -31.48047,7.18359 31.478746,7.1841052 0 0 0 31.48047,7.18555 31.478746,7.1841052 0 0 0 31.47852,-7.18555 31.478746,7.1841052 0 0 0 -31.47852,-7.18359 z m 47.79688,8.61914 a 1.5282473,1.5286858 0 0 0 -1.20117,2.41797 c 1.90178,2.72149 5.86681,3.86314 11.63281,4.70312 5.76599,0.83999 13.45623,1.16499 22.87695,1.15625 10.57539,-0.0102 21.20182,2.12408 33.16406,0.28906 18.47365,-2.83389 20.57555,-1.62789 28.93946,-1.71484 5.74548,-0.0597 15.96412,-0.49518 22.09179,-3.48438 a 1.5282473,1.5286858 0 1 0 -1.3457,-2.74414 c -4.9446,2.41206 -15.1924,3.10995 -20.77344,3.16797 -8.06112,0.0838 -10.73377,-1.10735 -29.37304,1.75196 -11.33526,1.73884 -21.73871,-0.32677 -32.71289,-0.31641 -9.34673,0.009 -16.93282,-0.3287 -22.42579,-1.12891 -5.49296,-0.80021 -8.76977,-2.2785 -9.57421,-3.42968 a 1.5282473,1.5286858 0 0 0 -1.29883,-0.66797 z m -222.41797,0.002 a 1.5282473,1.5286858 0 0 0 -0.1543,0.006 1.5282473,1.5286858 0 0 0 -0.568358,2.88086 c 7.372728,3.97329 21.727278,6.15034 34.074218,5.38867 11.44435,-0.706 22.66678,-0.2985 32.75781,0.30664 10.8944,0.65329 20.90862,-2.15594 29.16602,-1.74219 11.3657,0.5695 17.44279,-0.64332 22.29102,-3.52929 a 1.5282473,1.5286858 0 1 0 -1.5625,-2.62696 c -4.22548,2.51528 -9.47394,3.66167 -20.57422,3.10547 -9.03227,-0.45255 -18.89586,2.3564 -29.13868,1.74219 -10.14482,-0.60835 -21.49087,-1.02455 -33.1289,-0.30664 -11.8163,0.72894 -26.17159,-1.65565 -32.43164,-5.0293 a 1.5282473,1.5286858 0 0 0 -0.73047,-0.19531 z"
       style="display:inline;opacity:1;vector-effect:none;fill:#c1c1c1;fill-opacity:1;fill-rule:nonzero;stroke:none;stroke-width:0.99999994;stroke-linecap:round;stroke-linejoin:round;stroke-miterlimit:4;stroke-dasharray:none;stroke-dashoffset:0;stroke-opacity:1" />
    <path
       id="rect1075"
       transform="scale(0.26458333)"
       d="m 221.81641,63.957031 c -1.27985,0 -2.31055,1.030335 -2.31055,2.310547 v 73.333982 c 0,1.28022 1.0307,2.31055 2.31055,2.31055 h 86.47461 a 5.7452426,4.8613591 0 0 1 -0.0801,-0.81055 5.7452426,4.8613591 0 0 1 5.74414,-4.86133 5.7452426,4.8613591 0 0 1 5.74609,4.86133 5.7452426,4.8613591 0 0 1 -0.0449,0.57813 c 0.77698,-0.3714 1.31445,-1.15625 1.31445,-2.07813 V 89.228516 a 5.5684657,5.0823302 0 0 1 -1.18164,0.123046 5.5684657,5.0823302 0 0 1 -5.56836,-5.083984 5.5684657,5.0823302 0 0 1 5.56836,-5.082031 5.5684657,5.0823302 0 0 1 1.18164,0.119141 v -13.03711 c 0,-1.280212 -1.02875,-2.310547 -2.30859,-2.310547 z"
       style="opacity:1;vector-effect:none;fill:#9d9d9d;fill-opacity:1;fill-rule:nonzero;stroke:none;stroke-width:0.99999994;stroke-linecap:round;stroke-linejoin:round;stroke-miterlimit:4;stroke-dasharray:none;stroke-dashoffset:0;stroke-opacity:1" />
    <path
       style="display:inline;opacity:1;vector-effect:none;fill:#666666;fill-opacity:1;fill-rule:nonzero;stroke:none;stroke-width:1.32291675;stroke-linecap:round;stroke-linejoin:round;stroke-miterlimit:4;stroke-dasharray:none;stroke-dashoffset:0;stroke-opacity:1"
       d="m 58.68908,16.922019 c -0.338623,0 -0.611515,0.272971 -0.611515,0.611691 v 19.402262 c 0,0.33872 0.272892,0.61169 0.611515,0.61169 h 3.845984 L 68.06019,16.922019 Z"
       id="path1079" />
    <path
       style="opacity:1;vector-effect:none;fill:#c1c1c1;fill-opacity:1;fill-rule:nonzero;stroke:none;stroke-width:1.32291675;stroke-linecap:round;stroke-linejoin:round;stroke-miterlimit:4;stroke-dasharray:none;stroke-dashoffset:0;stroke-opacity:1"
       d="m 81.20337,16.922019 -5.525759,20.625643 h 8.635143 c 0.338626,0 0.610884,-0.27297 0.610884,-0.61169 V 17.53371 c 0,-0.33872 -0.272258,-0.611691 -0.610884,-0.611691 z"
       id="path1081" />
    <path
       id="path1275"
       transform="scale(0.26458333)"
       d="m 259.22266,226.91016 v 14.42187 c 0,1.91685 1.54269,3.46094 3.45898,3.46094 h 4.86133 c 1.91629,0 3.45898,-1.54409 3.45898,-3.46094 v -14.42187 z m 24.44922,1.79687 v 14.42383 c 0,1.91684 1.54269,3.45898 3.45898,3.45898 h 4.86133 c 1.91629,0 3.45898,-1.54214 3.45898,-3.45898 v -14.42383 z"
       style="display:inline;opacity:1;vector-effect:none;fill:#9d9d9d;fill-opacity:1;fill-rule:nonzero;stroke:none;stroke-width:0.99999994;stroke-linecap:round;stroke-linejoin:round;stroke-miterlimit:4;stroke-dasharray:none;stroke-dashoffset:0;stroke-opacity:1" />
    <path
       id="path1029"
       transform="scale(0.26458333)"
       d="m 214.3457,53.980469 c -0.88989,0 -1.72949,0.22643 -2.45898,0.625 -0.60055,0.315591 -0.10875,1.213217 0.48047,0.876953 0.58637,-0.320391 1.25753,-0.501953 1.97851,-0.501953 h 85.92969 c 0.67616,0.0096 0.67616,-1.00956 0,-1 z m 90.87891,0 c -0.67616,-0.0096 -0.67616,1.00956 0,1 h 20.90625 c 2.2913,0 4.12109,1.82891 4.12109,4.121093 v 96.800778 c 0,4.85261 -3.88925,8.74414 -8.74023,8.74414 H 218.9668 c -4.85098,0 -8.74024,-3.89153 -8.74024,-8.74414 v -23.03906 c 0.01,-0.67616 -1.00956,-0.67616 -1,0 v 23.03906 c 0,5.38908 4.35247,9.74414 9.74024,9.74414 h 102.54492 c 5.38776,0 9.74023,-4.35506 9.74023,-9.74414 v -4.71093 c 1.62703,0.49841 3.31321,0.95973 5.07032,1.37304 v 1.92774 c -0.01,0.67616 1.00956,0.67616 1,0 v -20.08594 c 0,-2.29215 1.82787,-4.12305 4.11914,-4.12305 h 38.9375 c 2.29126,0 4.11914,1.8309 4.11914,4.12305 v 2.95703 c -0.01,0.67616 1.00956,0.67616 1,0 v -2.95703 c 0,-2.82869 -2.29104,-5.12305 -5.11914,-5.12305 h -8.375 v -2.76562 c 0,-1.8439 -1.50211,-3.34375 -3.34571,-3.34375 h -15.49414 c -1.84359,0 -3.34375,1.49985 -3.34375,3.34375 v 2.76562 h -8.3789 c -2.82812,0 -5.11914,2.29436 -5.11914,5.12305 v 15.01563 c -1.77582,-0.61051 -3.46289,-1.26727 -5.07032,-1.95508 V 59.101562 c 0,-2.82866 -2.29301,-5.121093 -5.12109,-5.121093 z m -94.74414,2.058593 c -0.16448,0.0056 -0.31567,0.09179 -0.4043,0.230469 -0.34307,0.517803 -0.59564,1.102334 -0.73242,1.730469 -0.17039,0.668961 0.85305,0.892072 0.97656,0.212891 0.11006,-0.505304 0.31196,-0.974159 0.58789,-1.390625 0.2323,-0.337703 -0.018,-0.796107 -0.42773,-0.783204 z m -0.76172,7.136719 c -0.27615,0.0043 -0.49651,0.231667 -0.49219,0.507813 v 66.666016 c -0.01,0.67616 1.00956,0.67616 1,0 V 63.683594 c 0.004,-0.282266 -0.22554,-0.512228 -0.50781,-0.507813 z m 12.09766,0.28125 c -1.54828,0 -2.81055,1.262063 -2.81055,2.810547 v 73.333982 c 0,1.54849 1.26227,2.81055 2.81055,2.81055 h 89.66406 c 0.67616,0.01 0.67616,-1.00956 0,-1 h -89.66406 c -1.01143,0 -1.81055,-0.79861 -1.81055,-1.81055 V 66.267578 c 0,-1.011938 0.79912,-1.810547 1.81055,-1.810547 h 96.8457 c 1.01142,0 1.80859,0.798609 1.80859,1.810547 v 16.439453 c -0.01,0.676158 1.00956,0.676158 1,0 V 66.267578 c 0,-1.548484 -1.26031,-2.810547 -2.80859,-2.810547 z m 99.14843,21.613281 c -0.27614,0.0032 -0.49737,0.229721 -0.49414,0.50586 v 54.025388 c 0,1.01194 -0.79717,1.81055 -1.80859,1.81055 h -0.72852 c -0.67616,-0.01 -0.67616,1.00956 0,1 h 0.72852 c 1.54828,0 2.80859,-1.26206 2.80859,-2.81055 V 85.576172 c 0.003,-0.280727 -0.22513,-0.50914 -0.50586,-0.50586 z m -124.21875,8.46875 c -0.47425,-0.0087 -0.69303,0.586047 -0.32617,0.886719 l 4.75586,4.025391 c 0.50911,0.430993 1.1556,-0.332679 0.64649,-0.763672 l -4.75586,-4.025391 c -0.0889,-0.07751 -0.20238,-0.121097 -0.32032,-0.123047 z m 6.88086,5.824219 c -0.47425,-0.0087 -0.69303,0.586047 -0.32617,0.886719 l 2.08789,1.76758 c 0.50906,0.43036 1.15555,-0.33331 0.64649,-0.76367 l -2.08789,-1.767582 c -0.0889,-0.07751 -0.20238,-0.121097 -0.32032,-0.123047 z m -11.22851,4.474609 c -0.0163,5e-4 -0.0326,0.002 -0.0488,0.004 -0.61164,0.0338 -0.63789,0.92639 -0.0293,0.99609 l 11.56836,2.08789 c 0.70339,0.19228 0.90216,-0.91641 0.17578,-0.98047 l -11.5664,-2.09765 c -0.0328,-0.007 -0.0662,-0.01 -0.0996,-0.01 z m 12.23633,7.32227 c -0.062,-9.3e-4 -0.12356,0.01 -0.18165,0.0312 l -5.49804,1.97461 c -0.62868,0.22475 -0.29022,1.16774 0.33789,0.9414 l 5.49805,-1.97461 c 0.52946,-0.18288 0.40385,-0.9648 -0.15625,-0.97265 z m -7.99805,2.87304 c -0.062,-9.3e-4 -0.12355,0.0101 -0.18164,0.0312 l -3.06055,1.09961 c -0.67825,0.19984 -0.31227,1.2174 0.33789,0.93946 l 3.06055,-1.09766 c 0.52951,-0.18286 0.40389,-0.96484 -0.15625,-0.97266 z m 156.52734,10.13672 h 15.49414 c 1.30674,0 2.33985,1.04031 2.33985,2.34766 v 2.76562 h -2.63867 v -1.70312 c 0,-0.75609 -0.62282,-1.38086 -1.37891,-1.38086 h -8.74219 c -0.67616,-0.01 -0.67616,1.00956 0,1 h 8.74219 c 0.21925,0 0.3789,0.16131 0.37891,0.38086 v 1.70312 h -12.89844 v -1.70312 c 0,-0.21955 0.15965,-0.38086 0.3789,-0.38086 h 1.01172 c 0.67616,0.01 0.67616,-1.00956 0,-1 h -1.01172 c -0.75608,0 -1.3789,0.62477 -1.3789,1.38086 v 1.70312 h -2.63672 v -2.76562 c 0,-1.30735 1.0331,-2.34766 2.33984,-2.34766 z m -8.53711,13.41211 c -0.0163,-1.5e-4 -0.0326,4.5e-4 -0.0488,0.002 -0.0145,0.004 -0.0289,0.008 -0.043,0.0137 -0.003,-2e-5 -0.005,-2e-5 -0.008,0 -0.0301,0.007 -0.0596,0.0168 -0.0879,0.0293 -0.018,0.007 -0.0356,0.0146 -0.0527,0.0234 -0.0262,0.0147 -0.0511,0.0317 -0.0742,0.0508 -0.0266,0.0222 -0.0508,0.047 -0.0723,0.0742 -0.0103,0.0119 -0.0201,0.0243 -0.0293,0.0371 -2e-5,0.003 -2e-5,0.005 0,0.008 -0.008,0.012 -0.0162,0.0244 -0.0234,0.0371 -2e-5,0.003 -2e-5,0.005 0,0.008 -0.008,0.0121 -0.0149,0.0244 -0.0215,0.0371 -2e-5,0.003 -2e-5,0.005 0,0.008 -0.006,0.0141 -0.0111,0.0284 -0.0156,0.043 -2e-5,0.003 -2e-5,0.005 0,0.008 -0.0201,0.0698 -0.0248,0.14308 -0.0137,0.21484 v 6.33399 c -10e-4,0.27766 0.22429,0.50301 0.50195,0.50195 h 32.54688 c 0.27766,0.001 0.50301,-0.22429 0.50195,-0.50195 v -6.41602 c 0.001,-0.27766 -0.22429,-0.50301 -0.50195,-0.50195 h -32.45899 c -0.0328,-0.007 -0.0662,-0.01 -0.0996,-0.01 z m 0.50586,1.00586 h 31.55078 v 5.42578 h -31.55078 z m 39.85742,0.41797 c -0.27614,0.004 -0.4965,0.23167 -0.49218,0.50781 v 1.26758 c -0.01,0.67616 1.00956,0.67616 1,0 v -1.26758 c 0.004,-0.28227 -0.22555,-0.51223 -0.50782,-0.50781 z m -71.56445,2.40625 c -0.67616,-0.01 -0.67616,1.00956 0,1 H 314.75 c 0.67616,0.01 0.67616,-1.00956 0,-1 z m 71.56445,1.72266 c -0.27614,0.004 -0.4965,0.23167 -0.49218,0.50781 v 14.44531 c 0,2.29216 -1.82788,4.12109 -4.11914,4.12109 h -24.75782 c 0.95363,-3.2455 1.25097,-6.09916 1.31055,-8.00586 1.50916,-0.26197 2.66211,-1.57092 2.66211,-3.15429 v -0.76758 c 0,-1.77135 -1.43986,-3.21094 -3.21094,-3.21094 -1.77108,0 -3.21094,1.43959 -3.21093,3.21094 v 0.76758 c 0,1.61813 1.20568,2.9441 2.76367,3.16406 -0.0612,1.88856 -0.36486,4.74482 -1.35547,7.99609 h -7.8086 c 0.0408,-0.20925 0.0892,-0.42126 0.12696,-0.6289 0.52488,-2.89006 0.73402,-5.52002 0.82812,-7.35938 1.58714,-0.19345 2.82422,-1.53294 2.82422,-3.17187 v -0.76758 c 0,-1.77135 -1.43986,-3.21094 -3.21094,-3.21094 -1.77108,0 -3.21093,1.43959 -3.21093,3.21094 v 0.76758 c 0,1.56132 1.11951,2.86122 2.59765,3.14844 -0.0935,1.8065 -0.30006,4.38175 -0.8125,7.20312 -0.0487,0.26815 -0.11161,0.53896 -0.16601,0.80859 h -4.30664 c -2.29127,0 -4.11914,-1.82893 -4.11914,-4.12109 v -0.85547 c 0.01,-0.67616 -1.00956,-0.67616 -1,0 v 0.85547 c 0,2.8287 2.29102,5.12109 5.11914,5.12109 h 0.57226 c 0.29495,1.34527 1.45649,2.36639 2.8711,2.42774 -1.08897,3.53195 -2.76339,6.67626 -5.26563,7.92773 -2.30263,1.15166 -4.74229,0.6713 -7.48828,0.62696 -2.74599,-0.0443 -5.77975,0.44155 -8.86524,3.66406 -1.46831,1.53355 -2.12464,3.40774 -2.55468,5.34375 -0.43005,1.93601 -0.64698,3.95305 -1.19141,5.86133 -0.52082,1.82553 -1.33469,3.54287 -2.9043,5.05664 -1.35785,-0.0225 -3.12324,-0.25044 -5.62109,-0.78711 -6.21843,-1.33605 -10.2171,-1.50153 -12.61523,-0.9043 -1.19907,0.29862 -2.03297,0.80403 -2.45508,1.53711 -0.42211,0.73308 -0.35299,1.61637 0.0332,2.44531 0.50042,1.07423 1.59579,1.91022 3.05664,2.66016 0.39475,0.20265 0.82239,0.39757 1.27149,0.58789 -3.66581,0.64742 -6.9207,1.14319 -9.82032,1.66406 -4.58832,-1.25003 -10.25386,-1.70071 -15.84179,-0.71093 -0.67016,0.10739 -0.49013,1.11556 0.17578,0.98437 4.5798,-0.81121 9.28068,-0.63832 13.30664,0.1543 -0.0462,0.009 -0.13773,0.0238 -0.18359,0.0332 -2.51141,0.51012 -4.5658,1.07074 -6.125,1.87695 -1.55925,0.80622 -2.64308,1.90361 -3.02735,3.39844 -0.20825,0.81 -0.0155,1.61715 0.43945,2.29883 0.4549,0.68168 1.15373,1.26521 2.01172,1.77539 1.71601,1.02035 4.08858,1.75252 6.57422,2.12305 2.48565,0.3705 5.07996,0.37606 7.23828,-0.12696 2.15832,-0.503 3.94586,-1.54487 4.5586,-3.33984 0.55191,-1.61678 -0.031,-3.23654 -1.31641,-4.56445 -1.27254,-1.31452 -3.23243,-2.42173 -5.625,-3.28516 2.90984,-0.49094 5.9546,-0.95466 9.44531,-1.59375 0.73805,0.25743 1.5091,0.50855 2.33203,0.75 4.20187,1.23285 9.39543,2.29059 14.3086,3.43164 1.79274,0.41635 3.51391,0.85247 5.16797,1.30273 -1.77979,0.27519 -3.52347,0.64975 -5.13477,1.13086 -2.75642,0.82305 -5.13534,1.91499 -6.71289,3.2461 -0.78877,0.66555 -1.38323,1.39668 -1.69141,2.20898 -0.30818,0.81231 -0.30601,1.70579 0.0645,2.57032 0.48892,1.14111 1.39296,2.14649 2.55859,2.99218 0.54036,0.39193 1.12825,-0.41861 0.58789,-0.81054 -1.05881,-0.7682 -1.83085,-1.65064 -2.22656,-2.57422 -0.27791,-0.64865 -0.27503,-1.22806 -0.0488,-1.82422 0.22617,-0.59616 0.70007,-1.20791 1.40039,-1.79883 1.40065,-1.18184 3.6803,-2.25258 6.35352,-3.05078 2.26073,-0.67504 4.80404,-1.14131 7.34375,-1.37891 1.87484,0.58196 3.55735,1.20137 4.90429,1.88086 1.5074,0.76044 2.59353,1.59506 3.125,2.44727 0.53149,0.85221 0.59203,1.6998 0.006,2.82422 -1.78304,3.41848 -4.90318,5.22842 -8.35156,5.89453 -3.44838,0.66611 -7.20818,0.15409 -10.0957,-1.07813 -0.61328,-0.26172 -1.00586,0.6582 -0.39258,0.91992 3.0816,1.31505 7.00523,1.85003 10.67773,1.14063 3.67251,-0.7094 7.11025,-2.69739 9.04883,-6.41406 0.71015,-1.3615 0.6474,-2.70623 -0.0449,-3.81641 -0.69236,-1.11018 -1.93034,-2.00689 -3.52344,-2.81055 -0.80228,-0.40472 -1.69887,-0.78551 -2.66992,-1.14648 2.52581,-0.0573 4.9495,0.13872 6.96289,0.67578 2.35666,0.62862 3.29778,1.44998 3.59766,2.30664 0.29987,0.85667 -0.008,1.96745 -0.59961,3.24219 -0.59121,1.27474 -1.42894,2.66639 -1.96875,4.0957 -0.53981,1.42931 -0.78364,2.95854 -0.0469,4.3711 0.41539,0.79639 1.24889,1.24219 2.24805,1.44531 0.99916,0.20311 2.20703,0.18933 3.56445,0.0391 2.71485,-0.30059 6.02893,-1.16713 9.25977,-2.18555 6.46168,-2.03682 12.58203,-4.6914 12.58203,-4.6914 0.6282,-0.2578 0.22187,-1.19857 -0.39648,-0.91797 0,0 -6.08975,2.63994 -12.48633,4.65625 -3.19829,1.00815 -6.47512,1.85741 -9.06836,2.14453 -1.29662,0.14355 -2.42319,0.14383 -3.25586,-0.0254 -0.83267,-0.16929 -1.32763,-0.48119 -1.56055,-0.92773 -0.55986,-1.07337 -0.39772,-2.24814 0.0957,-3.55469 0.49344,-1.30656 1.31506,-2.68301 1.93945,-4.0293 0.62439,-1.34629 1.08645,-2.70745 0.63672,-3.99219 -0.44973,-1.28474 -1.7775,-2.27498 -4.28321,-2.94336 -2.50537,-0.66828 -5.51024,-0.86207 -8.57812,-0.68359 -0.4111,0.0239 -0.82402,0.0723 -1.23633,0.10937 -2.30978,-0.70817 -4.87516,-1.34934 -7.52539,-1.96484 -4.9316,-1.14533 -10.11769,-2.20438 -14.25391,-3.41797 -0.19271,-0.0565 -0.37056,-0.11462 -0.55859,-0.17187 1.29533,-0.25349 2.63839,-0.52808 4.09375,-0.85156 4.11879,-0.91556 6.86645,-2.29543 8.74024,-3.96876 0.61772,-0.009 1.17105,-0.06 1.66406,-0.16406 1.70309,-0.35947 2.71559,-1.31839 3.79101,-2.55859 2.15085,-2.4804 4.8357,-6.30272 15.24805,-10.70508 10.61439,-4.48779 15.45222,-11.993 17.59375,-18.34961 0.0177,-0.0527 0.0275,-0.10175 0.0449,-0.1543 h 25.05274 c 2.8281,0 5.11914,-2.29239 5.11914,-5.12109 v -14.44531 c 0.004,-0.28227 -0.22555,-0.51223 -0.50782,-0.50781 z m -82.9375,3.01953 c -0.0504,2.9e-4 -0.10042,0.008 -0.14843,0.0234 -2.07522,0.0832 -3.74219,1.78533 -3.74219,3.88086 0,2.14846 1.74841,3.90625 3.89648,3.90625 2.14808,0 3.90625,-1.75779 3.90625,-3.90625 0,-2.095 -1.67516,-3.79681 -3.75,-3.88086 -0.0524,-0.0167 -0.10715,-0.0246 -0.16211,-0.0234 z m -0.49609,1.0625 v 2.84179 c -0.005,0.6742 1.00885,0.6742 1.00391,0 v -2.84179 c 1.36606,0.23535 2.40039,1.40529 2.40039,2.84179 0,1.60817 -1.29487,2.90235 -2.90235,2.90235 -1.60747,0 -2.90039,-1.29418 -2.90039,-2.90235 0,-1.43594 1.03318,-2.60579 2.39844,-2.84179 z m -19.05078,0.0215 c -1.55132,0 -2.82031,1.26879 -2.82031,2.82031 0,1.55153 1.26899,2.82813 2.82031,2.82813 1.55131,0 2.8125,-1.2766 2.8125,-2.82813 0,-1.55152 -1.26119,-2.82031 -2.8125,-2.82031 z m 9.23437,0 c -1.55131,0 -2.82031,1.26879 -2.82031,2.82031 0,1.55153 1.269,2.82813 2.82031,2.82813 1.55132,0 2.81836,-1.2766 2.81836,-2.82813 0,-1.55152 -1.26704,-2.82031 -2.81836,-2.82031 z m 73.6875,0.33008 c -1.50265,0 -2.71289,1.20981 -2.71289,2.71289 v 0.002 c 0,1.50308 1.21024,2.71289 2.71289,2.71289 1.50265,0 2.71289,-1.20981 2.71289,-2.71289 v -0.002 c 0,-1.50308 -1.21024,-2.71289 -2.71289,-2.71289 z m -18.08789,0.49805 c 1.23422,0 2.21485,0.98003 2.21485,2.21484 v 0.76758 c 0,1.08716 -0.7611,1.96827 -1.78516,2.16406 0.0276,-0.81711 0.0391,-1.41406 0.0391,-1.41406 0.002,-0.28152 -0.22829,-0.50939 -0.50976,-0.50391 -0.27538,0.005 -0.49457,0.23241 -0.49024,0.50781 0,0 -0.0103,0.57837 -0.0371,1.3711 -0.95164,-0.24692 -1.64648,-1.08864 -1.64648,-2.125 v -0.76758 c 0,-1.23481 0.98062,-2.21484 2.21484,-2.21484 z m 9.04297,0 c 1.23422,0 2.21485,0.98003 2.21485,2.21484 v 0.76758 c 0,1.03722 -0.69558,1.88083 -1.64844,2.12695 -0.006,-0.87787 -0.0508,-1.42383 -0.0508,-1.42383 -0.0225,-0.26073 -0.24222,-0.46002 -0.50391,-0.45703 -0.29594,0.004 -0.52375,0.26258 -0.49023,0.55664 0,0 0.0414,0.52113 0.0469,1.36133 -1.02311,-0.19651 -1.7832,-1.07756 -1.7832,-2.16406 v -0.76758 c 0,-1.23481 0.98062,-2.21484 2.21484,-2.21484 z m -73.87695,0.17578 c 1.01072,0 1.81445,0.80516 1.81445,1.8164 0,1.01124 -0.80373,1.82422 -1.81445,1.82422 -1.01072,0 -1.82422,-0.81298 -1.82422,-1.82422 0,-1.01124 0.8135,-1.8164 1.82422,-1.8164 z m 9.23437,0 c 1.01072,0 1.82227,0.80516 1.82227,1.8164 0,1.01124 -0.81155,1.82422 -1.82227,1.82422 -1.01071,0 -1.8164,-0.81298 -1.8164,-1.82422 0,-1.01124 0.80569,-1.8164 1.8164,-1.8164 z m 39.51172,0.28515 c 1.60998,0.67981 3.29775,1.32706 5.07032,1.92969 v 1.08985 c -1.7587,-0.41762 -3.44536,-0.88361 -5.07032,-1.38672 z m -112.35742,3.89454 c -0.52737,-1e-5 -0.95493,0.42755 -0.95508,0.95507 1.4e-4,0.52753 0.42771,0.95509 0.95508,0.95508 0.52737,1e-5 0.95494,-0.42755 0.95508,-0.95508 -1.5e-4,-0.52752 -0.42771,-0.95508 -0.95508,-0.95507 z m 4.89063,0 c -0.52737,-1e-5 -0.95493,0.42755 -0.95508,0.95507 1.4e-4,0.52753 0.42771,0.95509 0.95508,0.95508 0.52737,1e-5 0.95493,-0.42756 0.95507,-0.95508 -1.5e-4,-0.52752 -0.4277,-0.95508 -0.95507,-0.95507 z m 4.88867,0 c -0.52737,-1e-5 -0.95493,0.42755 -0.95508,0.95507 1.4e-4,0.52753 0.42771,0.95509 0.95508,0.95508 0.52737,1e-5 0.95494,-0.42755 0.95508,-0.95508 -1.5e-4,-0.52752 -0.42771,-0.95508 -0.95508,-0.95507 z m 83.1289,0 c -0.52737,-1e-5 -0.95492,0.42755 -0.95507,0.95507 1.4e-4,0.52752 0.4277,0.95509 0.95507,0.95508 0.52737,1e-5 0.95494,-0.42755 0.95508,-0.95508 -1.5e-4,-0.52752 -0.42771,-0.95508 -0.95508,-0.95507 z m 4.89063,0 c -0.52737,-1e-5 -0.95493,0.42755 -0.95508,0.95507 1.4e-4,0.52753 0.42771,0.95509 0.95508,0.95508 0.52737,1e-5 0.95494,-0.42755 0.95508,-0.95508 -1.5e-4,-0.52752 -0.42771,-0.95508 -0.95508,-0.95507 z m 4.88867,0 c -0.52737,-1e-5 -0.95493,0.42755 -0.95508,0.95507 1.4e-4,0.52753 0.42771,0.95509 0.95508,0.95508 0.52737,1e-5 0.95494,-0.42755 0.95508,-0.95508 -1.5e-4,-0.52752 -0.42771,-0.95508 -0.95508,-0.95507 z m 93.92969,0.0703 c -0.015,-2e-5 -0.03,5.8e-4 -0.0449,0.002 -0.16655,0.0122 -0.31603,0.1067 -0.39844,0.25195 l -2.73828,4.56641 -2.56446,-1.53711 c -0.086,-0.0532 -0.1861,-0.0791 -0.2871,-0.0742 -0.49797,0.023 -0.6593,0.68079 -0.22852,0.93164 l 2.56445,1.53907 -2.74023,4.56835 c -0.34505,0.57161 0.51237,1.08919 0.85742,0.51758 l 2.74024,-4.57031 0.97656,0.58594 c 0.57388,0.34759 1.09238,-0.5166 0.51562,-0.85938 l -0.97851,-0.58594 2.74023,-4.57226 c 0.20424,-0.32901 -0.0269,-0.75532 -0.41406,-0.76367 z m -8.04102,2.0039 c -0.50164,0.02 -0.66419,0.68414 -0.22851,0.9336 l 0.72265,0.43359 c 0.57291,0.34375 1.08854,-0.51562 0.51563,-0.85937 l -0.72266,-0.4336 c -0.086,-0.0532 -0.1861,-0.0791 -0.28711,-0.0742 z m -191.02148,0.3711 c -0.52737,-1e-5 -0.95494,0.42755 -0.95508,0.95508 -9.4e-4,0.52829 0.42694,0.95704 0.95508,0.95703 0.52814,1e-5 0.95602,-0.42874 0.95508,-0.95703 -1.4e-4,-0.52753 -0.42771,-0.95509 -0.95508,-0.95508 z m 4.89062,0 c -0.52737,-1e-5 -0.95493,0.42756 -0.95507,0.95508 -9.4e-4,0.52828 0.42694,0.95704 0.95507,0.95703 0.52814,1e-5 0.95602,-0.42874 0.95508,-0.95703 -1.4e-4,-0.52753 -0.42771,-0.95509 -0.95508,-0.95508 z m 4.89063,0 c -0.52737,-1e-5 -0.95494,0.42755 -0.95508,0.95508 -9.4e-4,0.52829 0.42694,0.95704 0.95508,0.95703 0.52814,1e-5 0.95602,-0.42874 0.95508,-0.95703 -1.4e-4,-0.52753 -0.42771,-0.95509 -0.95508,-0.95508 z m 4.88867,0 c -0.52737,-1e-5 -0.95494,0.42755 -0.95508,0.95508 -9.4e-4,0.52829 0.42694,0.95704 0.95508,0.95703 0.52814,1e-5 0.95602,-0.42874 0.95508,-0.95703 -1.4e-4,-0.52753 -0.42771,-0.95509 -0.95508,-0.95508 z m 78.23828,0 c -0.52737,-1e-5 -0.95494,0.42755 -0.95508,0.95508 -9.4e-4,0.52829 0.42694,0.95704 0.95508,0.95703 0.52814,1e-5 0.95602,-0.42874 0.95508,-0.95703 -1.4e-4,-0.52753 -0.42771,-0.95509 -0.95508,-0.95508 z m 4.89063,0 c -0.52737,-1e-5 -0.95494,0.42755 -0.95508,0.95508 -9.4e-4,0.52829 0.42694,0.95704 0.95508,0.95703 0.52813,1e-5 0.95601,-0.42875 0.95507,-0.95703 -1.3e-4,-0.52752 -0.4277,-0.95509 -0.95507,-0.95508 z m 4.88867,0 c -0.52661,0.001 -0.95299,0.42832 -0.95313,0.95508 -9.4e-4,0.52753 0.42576,0.95597 0.95313,0.95703 0.52814,1e-5 0.95602,-0.42874 0.95508,-0.95703 -1.4e-4,-0.52753 -0.42771,-0.95509 -0.95508,-0.95508 z m 4.89062,0 c -0.52737,-1e-5 -0.95493,0.42756 -0.95507,0.95508 -9.4e-4,0.52828 0.42694,0.95704 0.95507,0.95703 0.52814,1e-5 0.95602,-0.42874 0.95508,-0.95703 -1.4e-4,-0.52753 -0.42771,-0.95509 -0.95508,-0.95508 z m -199.04101,0.21679 c -0.12979,0.007 -0.25169,0.0646 -0.33985,0.16016 l -0.90429,0.95313 c -0.50711,0.48374 0.26817,1.21932 0.72461,0.6875 l 0.90429,-0.95313 c 0.31654,-0.32611 0.0691,-0.87124 -0.38476,-0.84766 z m -8.24219,0.2168 c -0.45249,0.01 -0.66017,0.56781 -0.32422,0.8711 l 3.86719,3.66796 -3.66602,3.86524 c -0.50711,0.48374 0.26817,1.21932 0.72461,0.6875 l 3.66602,-3.86524 3.86719,3.66797 c 0.48177,0.46354 1.17708,-0.25911 0.69531,-0.72265 l -3.87305,-3.67188 1.08594,-1.14453 c 0.3174,-0.3268 0.0681,-0.87318 -0.38672,-0.84766 -0.12979,0.007 -0.25168,0.0646 -0.33984,0.16016 l -1.08399,1.14258 -3.87109,-3.66992 c -0.0966,-0.0936 -0.22687,-0.14426 -0.36133,-0.14063 z m 102.15039,2.01367 c -0.52737,-1e-5 -0.95494,0.42755 -0.95508,0.95508 1.4e-4,0.52753 0.42771,0.95509 0.95508,0.95508 0.52737,1e-5 0.95494,-0.42755 0.95508,-0.95508 -1.4e-4,-0.52753 -0.42771,-0.95509 -0.95508,-0.95508 z m 4.89063,0 c -0.52737,-1e-5 -0.95494,0.42755 -0.95508,0.95508 1.4e-4,0.52753 0.42771,0.95509 0.95508,0.95508 0.52737,1e-5 0.95493,-0.42756 0.95507,-0.95508 -1.4e-4,-0.52752 -0.4277,-0.95509 -0.95507,-0.95508 z m 4.88867,0 c -0.52737,-1e-5 -0.95494,0.42755 -0.95508,0.95508 1.4e-4,0.52753 0.42771,0.95509 0.95508,0.95508 0.52737,1e-5 0.95494,-0.42755 0.95508,-0.95508 -1.4e-4,-0.52753 -0.42771,-0.95509 -0.95508,-0.95508 z m 83.1289,0 c -0.52737,-1e-5 -0.95493,0.42756 -0.95507,0.95508 1.4e-4,0.52752 0.4277,0.95509 0.95507,0.95508 0.52737,1e-5 0.95494,-0.42755 0.95508,-0.95508 -1.4e-4,-0.52753 -0.42771,-0.95509 -0.95508,-0.95508 z m 4.89063,0 c -0.52737,-1e-5 -0.95494,0.42755 -0.95508,0.95508 1.4e-4,0.52753 0.42771,0.95509 0.95508,0.95508 0.52737,1e-5 0.95494,-0.42755 0.95508,-0.95508 -1.4e-4,-0.52753 -0.42771,-0.95509 -0.95508,-0.95508 z m 4.88867,0 c -0.52737,-1e-5 -0.95494,0.42755 -0.95508,0.95508 1.4e-4,0.52753 0.42771,0.95509 0.95508,0.95508 0.52737,1e-5 0.95494,-0.42755 0.95508,-0.95508 -1.4e-4,-0.52753 -0.42771,-0.95509 -0.95508,-0.95508 z m 94.33008,2.24805 c -0.49797,0.023 -0.6593,0.68079 -0.22852,0.93164 l 1.5586,0.93555 c 0.57292,0.34375 1.08854,-0.51563 0.51562,-0.85938 l -1.55859,-0.93359 c -0.086,-0.0532 -0.1861,-0.0791 -0.28711,-0.0742 z m -72.86523,3.64648 h 2.49414 c -0.10916,0.47719 -0.2348,0.95006 -0.36329,1.42188 -0.0543,0.004 -0.10662,0.0156 -0.16211,0.0156 -0.92874,0 -1.6956,-0.60336 -1.96874,-1.4375 z m 3.52148,0 h 0.41992 c -0.12424,0.37725 -0.34935,0.70363 -0.64648,0.95118 0.0774,-0.31812 0.15719,-0.63307 0.22656,-0.95118 z m 1.44726,0 h 6.25782 c -2.09956,6.11649 -6.721,13.24595 -16.97656,17.58204 -10.54986,4.46048 -13.5243,8.56362 -15.61329,10.97265 -1.04448,1.20452 -1.79781,1.92993 -3.24023,2.23438 -0.12729,0.0269 -0.26838,0.045 -0.4082,0.0644 1.25422,-1.46823 1.97834,-3.09176 2.44531,-4.72852 0.57562,-2.01759 0.79396,-4.05837 1.20703,-5.91796 0.41307,-1.8596 1.00842,-3.52145 2.29883,-4.86914 2.9003,-3.02913 5.50047,-3.39793 8.1289,-3.35547 2.62846,0.0424 5.30278,0.59216 7.95118,-0.73243 3.04968,-1.52527 4.84375,-5.12073 5.94336,-8.98828 1.00693,-0.34981 1.7741,-1.20344 2.00585,-2.26172 z m 71.57032,1.40625 c -0.43319,0.001 -0.66012,0.51503 -0.36914,0.83594 l 3.45898,4.05664 -0.23437,0.19922 c -0.55513,0.42782 0.13868,1.24077 0.64843,0.75977 l 0.23438,-0.19922 3.45898,4.05664 c 0.43359,0.50781 1.19531,-0.14258 0.76172,-0.65039 l -3.45898,-4.05664 4.05664,-3.45508 c 0.37085,-0.30669 0.13688,-0.9089 -0.34375,-0.88477 -0.11252,0.006 -0.21989,0.0489 -0.30469,0.12305 l -4.05664,3.45703 -3.45898,-4.05664 c -0.0958,-0.1184 -0.24029,-0.18671 -0.39258,-0.18555 z m -303.50196,3.46094 c -0.0182,-3.5e-4 -0.0365,2.6e-4 -0.0547,0.002 -0.18143,0.0156 -0.34004,0.12856 -0.41407,0.29493 l -2.24414,4.83789 -1.49414,-0.69336 c -0.0754,-0.0363 -0.15864,-0.0531 -0.24218,-0.0488 -0.52717,0.0253 -0.66067,0.74412 -0.17774,0.95703 l 1.49219,0.69141 -2.24219,4.83398 c -0.32431,0.6193 0.64114,1.06874 0.90625,0.42188 l 2.24414,-4.83399 4.83399,2.24219 c 0.61407,0.30906 1.05369,-0.63533 0.42187,-0.90625 l -4.83594,-2.24414 2.2461,-4.83594 c 0.15969,-0.32817 -0.0746,-0.71132 -0.43946,-0.71875 z m -7.79296,2.8418 c -0.52717,0.0253 -0.66067,0.74412 -0.17774,0.95703 l 1.74805,0.81055 c 0.60551,0.28006 1.02543,-0.62815 0.41992,-0.90821 l -1.74805,-0.81054 c -0.0754,-0.0363 -0.15864,-0.0531 -0.24218,-0.0488 z m 312.64648,0.20508 c -0.11252,0.006 -0.21989,0.0489 -0.30469,0.12304 l -2.01562,1.71875 c -0.55513,0.42782 0.13869,1.24077 0.64843,0.75977 l 2.01758,-1.7168 c 0.37181,-0.30729 0.13595,-0.91094 -0.3457,-0.88476 z m -119.16797,21.98437 c 2.20095,0.0224 5.17388,0.37577 9.01563,1.20117 1.89821,0.40784 3.41902,0.66048 4.68164,0.77149 -1.68773,1.23734 -4.04673,2.29858 -7.43946,3.05273 -2.08572,0.46363 -4.00328,0.84163 -5.83984,1.1836 -1.02122,-0.36428 -1.94674,-0.74236 -2.71875,-1.13868 -1.3658,-0.70114 -2.26543,-1.46145 -2.60547,-2.1914 -0.29843,-0.64061 -0.30653,-1.12002 -0.0742,-1.52344 0.23229,-0.40342 0.78586,-0.80781 1.83203,-1.06836 0.78465,-0.19541 1.82787,-0.30055 3.14844,-0.28711 z m -28.61523,7.81055 c -0.0454,-9.4e-4 -0.0908,0.004 -0.13477,0.0156 -0.72269,0.1646 -1.44019,0.35316 -2.15039,0.56836 -0.66097,0.1802 -0.36115,1.17286 0.28906,0.95703 0.68692,-0.20813 1.3833,-0.39118 2.08399,-0.55078 0.58586,-0.11748 0.50951,-0.97777 -0.0879,-0.99023 z m 17.26367,1.42578 c 0.60941,0.17068 1.27076,0.30595 1.83008,0.50586 2.32942,0.83262 4.18789,1.91069 5.30859,3.06836 1.1207,1.15767 1.5119,2.31052 1.08984,3.54687 -0.45691,1.33853 -1.85798,2.22758 -3.83984,2.68946 -1.98186,0.46188 -4.47813,0.46688 -6.86328,0.11132 -2.38516,-0.35552 -4.66542,-1.07515 -6.21094,-1.99414 -0.77276,-0.45947 -1.35659,-0.96896 -1.6914,-1.4707 -0.33483,-0.50174 -0.43833,-0.96863 -0.30274,-1.49609 0.30338,-1.18011 1.11136,-2.03074 2.51758,-2.75781 1.40622,-0.72711 3.39123,-1.28459 5.86523,-1.78711 0.56476,-0.11471 1.68223,-0.30467 2.29688,-0.41602 z m -22.96485,0.45508 c -0.0623,0.004 -0.12324,0.0202 -0.17968,0.0469 -5.25,2.37015 -8.3653,5.72259 -12.39258,8.81641 -4.02728,3.09382 -8.97905,5.98111 -18.04102,7.56055 -9.93917,1.73232 -23.08352,-0.57354 -33.71093,-3.33594 -0.59499,-0.15466 -1.14834,-0.31395 -1.72657,-0.4707 l 0.16016,0.70898 -0.54492,0.22461 c 0.62118,0.16889 1.21884,0.33936 1.85937,0.50586 10.6895,2.77853 23.90309,5.13486 34.13477,3.35156 9.20556,-1.60446 14.37373,-4.59664 18.47851,-7.75 4.10479,-3.15336 7.13336,-6.41592 12.19532,-8.70117 0.51223,-0.22452 0.32572,-0.99246 -0.23243,-0.95703 z m -7.27929,13.63867 c -0.97805,0 -1.78516,0.80711 -1.78516,1.78516 0,0.97804 0.80711,1.77929 1.78516,1.77929 0.97804,0 1.7793,-0.80125 1.77929,-1.77929 0,-0.97805 -0.80125,-1.78516 -1.77929,-1.78516 z m 0,1.00391 c 0.4376,0 0.77539,0.34365 0.77539,0.78125 0,0.4376 -0.33777,0.7832 -0.77539,0.7832 -0.43761,0 -0.78125,-0.34561 -0.78125,-0.7832 0,-0.43761 0.34365,-0.78125 0.78125,-0.78125 z m 23.83984,0.32617 c -0.0914,0.004 -0.18202,0.0163 -0.27148,0.0351 -0.87776,0.17897 -1.45482,1.04685 -1.2793,1.92579 l 0.002,0.002 c 0.0287,0.13992 0.0967,0.26524 0.16016,0.39258 -0.0881,0.28478 -0.18783,0.57333 -0.12891,0.86914 l 0.002,0.002 c 0.19498,0.96909 1.15056,1.60439 2.11914,1.4082 0.63855,-0.12888 1.15893,-0.59423 1.35742,-1.21484 0.20631,-0.63706 -0.75165,-0.94329 -0.95313,-0.30469 -0.0887,0.27742 -0.31915,0.48167 -0.60351,0.53907 -0.43725,0.0885 -0.85017,-0.18632 -0.93945,-0.625 -0.0363,-0.18248 -0.01,-0.3713 0.0781,-0.53516 0.0866,-0.16107 0.0784,-0.35656 -0.0215,-0.50977 -0.0436,-0.0667 -0.0736,-0.14258 -0.0899,-0.2207 -0.0682,-0.35006 0.14774,-0.67962 0.4961,-0.75 0.002,1e-5 0.004,1e-5 0.006,0 0.0333,-0.007 0.0675,-0.0122 0.10156,-0.0137 0.31287,-0.009 0.58046,0.2033 0.64258,0.51172 0.0155,0.0754 0.0178,0.1545 0.006,0.23047 -0.10417,0.65885 0.88411,0.8151 0.98828,0.15625 0.031,-0.19412 0.0252,-0.3914 -0.0137,-0.58399 v -0.002 c -0.13358,-0.6595 -0.68817,-1.08222 -1.32813,-1.20508 -0.0921,-0.0728 -0.20689,-0.11078 -0.32422,-0.10742 -0.002,-1e-5 -0.004,-1e-5 -0.006,0 z m -19.55469,0.79297 c -0.44848,3.9e-4 -0.873,0.13345 -1.22851,0.36328 -0.56659,0.36053 -0.0183,1.20852 0.54297,0.83984 0.19907,-0.12869 0.43259,-0.2029 0.68554,-0.20312 0.70598,8e-5 1.26751,0.56162 1.26758,1.26757 -0.001,0.29228 -0.10341,0.575 -0.28906,0.80079 -0.15258,0.18481 -0.15258,0.45191 0,0.63671 0.12809,0.15553 0.19895,0.3493 0.19922,0.55079 3.8e-4,0.48646 -0.38266,0.87077 -0.86914,0.87109 -0.15145,-2.2e-4 -0.30021,-0.0398 -0.43164,-0.11523 -0.19033,-0.10906 -0.42951,-0.0813 -0.58985,0.0684 -0.27462,0.25645 -0.63602,0.39921 -1.01171,0.4004 -0.82787,-1.9e-4 -1.48809,-0.66041 -1.48829,-1.48829 -6.3e-4,-0.78847 0.60114,-1.42699 1.37305,-1.48632 0.69834,-0.0207 0.61722,-1.08185 -0.0762,-0.9961 -1.28441,0.0987 -2.29793,1.17902 -2.29688,2.48242 3.3e-4,1.36814 1.12016,2.48797 2.48829,2.48829 0.50202,-9.5e-4 0.94359,-0.25516 1.35351,-0.53516 0.21989,0.0882 0.44117,0.1813 0.67969,0.18164 1.02696,-6.6e-4 1.86994,-0.84414 1.86914,-1.87109 -4.2e-4,-0.31688 -0.16117,-0.59483 -0.3125,-0.86914 0.20655,-0.34749 0.4015,-0.71084 0.40234,-1.11915 -1.1e-4,-1.10884 -0.85803,-1.92919 -1.91406,-2.12109 -0.0938,-0.0938 -0.22092,-0.14646 -0.35352,-0.14648 z m 23.58985,2.3457 c -1.04676,5.6e-4 -1.9057,0.86107 -1.90625,1.9082 -1.7e-4,0.25818 0.11679,0.49105 0.2168,0.72657 -0.0473,0.10764 -0.0998,0.21255 -0.13086,0.32617 -0.17578,0.64323 0.78906,0.9069 0.96484,0.26367 0.0287,-0.10473 0.0691,-0.20554 0.12109,-0.30078 0.0881,-0.16208 0.0799,-0.35952 -0.0215,-0.51367 -0.0977,-0.14865 -0.15051,-0.32187 -0.15039,-0.5 2.7e-4,-0.50795 0.40042,-0.90989 0.90625,-0.91016 0.32084,2.6e-4 0.61576,0.17008 0.77929,0.44727 0.14648,0.24838 0.47211,0.32173 0.71094,0.16015 0.16762,-0.11301 0.3645,-0.1739 0.56641,-0.17383 0.56589,5.1e-4 1.01406,0.45143 1.01367,1.01954 1.6e-4,0.49015 -0.34107,0.90419 -0.82031,0.99804 -0.20137,0.0389 -0.35854,0.19688 -0.39649,0.39844 -0.12476,0.66173 -0.69417,1.13478 -1.36523,1.13672 -0.41184,2e-5 -0.80323,-0.18187 -1.06836,-0.49805 -0.42533,-0.54235 -1.22599,0.12964 -0.76563,0.64258 0.4545,0.54203 1.12687,0.85551 1.83399,0.85547 1.04477,-0.002 1.88827,-0.72877 2.20312,-1.70313 0.78846,-0.28384 1.37919,-0.97151 1.37891,-1.83007 7.5e-4,-1.10761 -0.90655,-2.01853 -2.01367,-2.01954 -0.25168,-7e-5 -0.47489,0.12628 -0.70703,0.2168 -0.35592,-0.37991 -0.81758,-0.64995 -1.34961,-0.65039 z m -28.82617,5.50391 c -0.27613,3e-5 -0.49997,0.22387 -0.5,0.5 v 11.53125 c -1.53979,0.21043 -3.02224,0.44556 -4.40039,0.71679 -0.69172,0.10129 -0.48763,1.14677 0.1914,0.98047 1.31748,-0.25929 2.73492,-0.48562 4.20899,-0.68945 v 1.88281 c 0,2.18524 1.77415,3.96094 3.95898,3.96094 h 4.86133 c 2.18484,0 3.95898,-1.7757 3.95898,-3.96094 v -2.87109 c 1.15086,-0.0307 2.30558,-0.0566 3.47461,-0.0566 2.84322,0 5.57857,0.0973 8.19532,0.25976 v 1.5586 c -0.01,0.67616 1.00955,0.67616 1,0 v -3.6875 h 2.16601 c 0.67616,0.01 0.67616,-1.00956 0,-1 h -2.16601 v -1.44727 h 10.77929 v 1.44727 h -6.78906 c -0.67616,-0.01 -0.67616,1.00956 0,1 h 6.78906 v 6.5957 c 0,1.64845 -1.31125,2.95898 -2.95898,2.95898 h -4.86133 c -1.64176,0 -2.94947,-1.30166 -2.95898,-2.9414 0.005,-0.67535 -1.01265,-0.66953 -1,0.006 0.0125,2.17463 1.78206,3.93554 3.95898,3.93554 h 4.86133 c 2.18483,0 3.95898,-1.77374 3.95898,-3.95898 v -2.87695 c 0.39712,0.0792 0.79904,0.1571 1.17188,0.24218 2.82137,0.64391 5.09322,1.41299 6.61914,2.23633 0.76296,0.41168 1.33828,0.83746 1.70117,1.24219 0.36291,0.40473 0.51172,0.76533 0.51172,1.11328 0,0.34794 -0.14884,0.71055 -0.51172,1.11523 -0.36287,0.40474 -0.93821,0.83052 -1.70117,1.24219 -1.52592,0.82335 -3.79777,1.59243 -6.61914,2.23633 -5.64275,1.28779 -13.4847,2.0918 -22.14649,2.0918 -2.13098,0 -4.25727,-0.0501 -6.34375,-0.14844 -0.6936,-0.063 -0.74328,0.99573 -0.0469,0.99805 2.10259,0.0991 4.24413,0.15039 6.39062,0.15039 8.72346,0 16.61883,-0.80485 22.36914,-2.11719 2.87517,-0.65617 5.21315,-1.43639 6.87305,-2.33203 0.82995,-0.44782 1.49299,-0.92447 1.96875,-1.45508 0.47576,-0.53061 0.76758,-1.13729 0.76758,-1.78125 0,-0.64396 -0.29182,-1.25064 -0.76758,-1.78125 -0.47576,-0.53059 -1.1388,-1.00726 -1.96875,-1.45508 -1.6599,-0.89564 -3.99788,-1.6739 -6.87305,-2.33008 -0.44474,-0.1015 -0.92118,-0.1949 -1.39453,-0.28906 v -3.14258 c 0.004,-0.037 0.004,-0.0743 0,-0.11132 v -7.27149 c -3e-5,-0.27613 -0.22387,-0.49997 -0.5,-0.5 h -11.77929 c -0.27613,3e-5 -0.49998,0.22387 -0.5,0.5 v 7.22852 c -0.0144,0.0683 -0.0144,0.13878 0,0.20703 v 1.51953 c -2.61948,-0.16121 -5.35341,-0.25781 -8.19532,-0.25781 -1.16869,0 -2.32378,0.0261 -3.47461,0.0566 v -10.46875 c 0.01,-0.67616 -1.00956,-0.67616 -1,0 v 1.86133 h -10.77929 v -1.44336 h 4.74023 c 0.67616,0.01 0.67616,-1.00956 0,-1 z m 7.62695,0 c -0.67616,-0.01 -0.67616,1.00956 0,1 h 1.59961 c 0.67616,0.01 0.67616,-1.00956 0,-1 z m -139.56836,1.92968 c -5.77422,0 -11.10586,1.13578 -15.45313,3.08204 -0.61027,0.27178 -0.20151,1.18711 0.40821,0.91406 4.20124,-1.88088 9.40224,-2.9961 15.04492,-2.9961 h 63.10156 c 7.10058,0 13.50161,1.76818 18.0918,4.59961 4.59019,2.83143 7.3418,6.68301 7.3418,10.89649 0,0.76098 -0.0958,1.50896 -0.27149,2.24218 -4.03756,2.23845 -9.15781,3.26629 -19.73437,2.73633 -9.15372,-0.45863 -19.00202,2.3498 -29.13477,1.74219 -0.99256,-0.0595 -1.99686,-0.11692 -3.01172,-0.17187 -0.68681,-0.0608 -0.744,0.98344 -0.0547,0.99804 1.01269,0.0549 2.01502,0.11243 3.00585,0.17188 10.35289,0.62081 20.23371,-2.1867 29.14454,-1.74024 11.14244,0.55833 16.53096,-0.60156 20.85546,-3.17578 0.005,-0.003 0.009,-0.005 0.0137,-0.008 0.3366,-0.21445 0.59813,-0.22487 0.83593,-0.15234 0.23781,0.0725 0.45767,0.2553 0.59961,0.49414 0.14196,0.23882 0.19837,0.51994 0.14844,0.76367 -0.0499,0.24374 -0.18406,0.46875 -0.5332,0.66211 -0.005,0.003 -0.009,0.005 -0.0137,0.008 -4.74337,2.82356 -10.6884,4.02625 -22.00977,3.45898 -8.39056,-0.42042 -18.36952,2.39117 -29.16016,1.74415 -10.09974,-0.60569 -21.3441,-1.01656 -32.82031,-0.3086 -3.10312,0.1914 -6.33671,0.19731 -9.55469,0.0332 -0.69044,-0.0622 -0.74394,0.98982 -0.0508,0.99805 3.25296,0.16596 6.52325,0.16084 9.66797,-0.0332 11.41249,-0.70404 22.61495,-0.29606 32.69727,0.30859 10.99816,0.6595 21.04567,-2.14926 29.16992,-1.74219 7.35667,0.36862 12.54502,-0.0142 16.63476,-1.11914 -1.05568,1.08169 -2.31038,2.08672 -3.76562,2.98438 -4.59019,2.83143 -10.99122,4.60156 -18.0918,4.60156 h -4.06054 c -0.67616,-0.01 -0.67616,1.00956 0,1 h 4.06054 c 7.26611,0 13.83273,-1.79874 18.61719,-4.75 2.05125,-1.2653 3.77837,-2.75207 5.08398,-4.40234 1.48371,-0.52399 2.82289,-1.159 4.08008,-1.90625 l 0.002,-0.002 c 0.56836,-0.31578 0.91893,-0.81418 1.02539,-1.33398 0.10662,-0.52065 -0.0109,-1.04483 -0.26758,-1.47656 -0.25659,-0.43173 -0.65967,-0.7844 -1.16797,-0.93946 -0.3371,-0.10281 -0.71757,-0.0957 -1.0957,0.0156 0.0925,-0.55935 0.15625,-1.12456 0.15625,-1.70117 0,-4.64852 -3.03195,-8.79679 -7.81641,-11.74805 -4.78446,-2.95126 -11.35108,-4.74805 -18.61719,-4.74805 z m 222.8125,0 c -4.0221,0 -7.83073,0.55057 -11.24023,1.54297 -0.64068,0.18747 -0.35943,1.14841 0.28125,0.96094 3.31322,-0.96438 7.0285,-1.50391 10.95898,-1.50391 h 63.10156 c 7.39847,0 14.03749,1.92001 18.66016,4.96094 0.55991,0.37875 1.11897,-0.47276 0.54883,-0.83594 -4.82729,-3.17554 -11.63803,-5.125 -19.20899,-5.125 z m -65.92187,0.86719 h 10.77929 v 1.43945 h -10.77929 z m -24.44922,0.65039 h 10.77929 v 1.44727 h -10.77929 z m 76.25,1.03906 c -0.0625,0.002 -0.12407,0.0148 -0.18164,0.0391 -7.23719,2.89133 -12.13086,7.97741 -12.13086,13.90039 0,0.52487 0.0551,1.04026 0.13281,1.55078 -0.59194,-0.45905 -1.01865,-0.50806 -1.63672,-0.35742 -1.14385,0.27877 -1.91915,1.90245 -0.99219,3.20117 1.22856,1.75663 3.21372,2.86057 5.8418,3.65039 1.2193,1.36892 2.71705,2.61945 4.4707,3.70117 4.78446,2.95126 11.35108,4.75 18.61719,4.75 h 12.80664 c 0.67616,0.01 0.67616,-1.00956 0,-1 h -12.80664 c -7.10057,0 -13.50161,-1.77013 -18.0918,-4.60156 -1.16522,-0.71876 -2.19247,-1.51006 -3.09961,-2.35156 1.29094,0.29146 2.69808,0.5385 4.23047,0.76171 5.81059,0.84649 13.51678,1.16891 22.94922,1.16016 10.5078,-0.0102 21.17477,2.13376 33.23828,0.2832 13.56764,-2.08131 18.2313,-1.97895 23.10742,-1.81445 0.70118,0.0621 0.737,-1.01226 0.0332,-0.99805 -4.88413,-0.16475 -9.68419,-0.26309 -23.29102,1.82422 -11.86093,1.81948 -22.44686,-0.3052 -33.08984,-0.29492 -9.409,0.009 -17.08133,-0.31691 -22.80274,-1.15039 -5.73439,-0.83538 -9.54241,-1.98627 -11.29492,-4.49414 -0.001,-0.002 -0.003,-0.004 -0.004,-0.006 -0.4968,-0.69273 -0.0445,-1.60239 0.80664,-1.62695 h 0.002 c 0.34866,-0.008 0.67667,0.16066 0.87305,0.44922 6.4e-4,0.001 9.5e-4,0.003 0.002,0.004 0.52725,0.75451 1.60994,1.39643 3.26172,2.02735 1.65177,0.63091 3.87446,1.20693 6.65039,1.61132 4.10597,0.59814 9.34567,0.93817 15.5957,1.07032 0.66684,0.0144 0.68831,-0.98546 0.0215,-1 -6.22664,-0.13134 -11.43367,-0.47022 -15.47266,-1.0586 -2.71704,-0.39582 -4.87825,-0.96031 -6.43945,-1.55664 -1.0127,-0.38681 -1.74423,-0.80161 -2.26368,-1.16211 -0.2312,-0.83782 -0.35546,-1.69685 -0.35546,-2.57226 0,-5.36867 4.49483,-10.17324 11.50195,-12.97266 0.52318,-0.20077 0.37081,-0.97834 -0.18945,-0.9668 z m -51.80078,0.74805 h 10.77929 v 1.44531 h -10.77929 z m -24.44922,0.65625 h 10.77929 v 1.44727 h -10.77929 z m -152.67969,2.00977 c -0.11266,-2e-4 -0.22209,0.0376 -0.31055,0.10742 -3.64834,2.80466 -5.88476,6.43139 -5.88476,10.41797 0,0.43982 0.0374,0.87271 0.0918,1.30273 -0.25382,-0.08 -0.51551,-0.12942 -0.7832,-0.10547 -0.11031,0.0104 -0.214044,0.0571 -0.294922,0.13282 -0.791161,0.20726 -1.375794,0.78784 -1.515625,1.49609 -0.159194,0.80631 0.185161,1.74099 1.056641,2.19336 1.080256,0.58167 2.322826,1.1141 3.656246,1.61328 1.35118,1.93535 3.26451,3.66928 5.60547,5.11328 4.78446,2.95126 11.35108,4.75 18.61719,4.75 h 51.43945 c 0.67616,0.01 0.67616,-1.00956 0,-1 h -51.43945 c -7.10057,0 -13.50161,-1.77013 -18.0918,-4.60156 -1.7493,-1.07906 -3.20903,-2.31354 -4.37304,-3.65235 4.56497,1.48175 10.16147,2.52788 16.0039,3.03126 0.67908,0.0754 0.76794,-0.95405 0.0859,-0.9961 -8.35303,-0.71968 -16.26681,-2.57178 -21.037109,-5.14258 -0.0019,-6.6e-4 -0.0039,-9.5e-4 -0.0059,-0.002 -0.485129,-0.25183 -0.618778,-0.68974 -0.535156,-1.11328 0.0836,-0.42354 0.371645,-0.77774 0.916015,-0.82617 h 0.002 c 0.20671,-0.0185 0.41278,0.0272 0.59375,0.1289 0.003,0.001 0.005,0.003 0.008,0.004 6.45451,3.47845 20.79319,5.82053 32.70117,5.08594 9.63881,-0.59458 19.08363,-0.40876 27.81445,0.0195 0.69208,0.0626 0.74375,-0.99283 0.0488,-0.99805 -8.75194,-0.42923 -18.23417,-0.61728 -27.92578,-0.0195 -11.3002,0.69711 -25.03744,-1.53057 -31.44922,-4.61914 -0.11275,-0.59057 -0.18945,-1.18731 -0.18945,-1.79492 0,-3.61349 2.0181,-6.9528 5.49414,-9.625 0.38461,-0.28786 0.18157,-0.89962 -0.29883,-0.90039 z m 152.67969,0.43359 h 10.77929 v 6.58789 c 0,1.64844 -1.31124,2.96094 -2.95898,2.96094 h -4.86133 c -1.64773,0 -2.95898,-1.3125 -2.95898,-2.96094 z m 174.29687,0.0293 c -0.47485,-0.004 -0.68732,0.59411 -0.31641,0.89062 0.41643,0.34538 0.80931,0.70099 1.17774,1.06641 0.47397,0.48756 1.19589,-0.24239 0.70312,-0.71094 -0.39042,-0.38724 -0.80586,-0.76153 -1.24414,-1.125 -0.0892,-0.0768 -0.20262,-0.11968 -0.32031,-0.12109 z m -18.1582,0.68164 c -0.75208,-0.0158 -1.5702,-0.0142 -2.44922,0.0137 -5.27414,0.16687 -12.72559,1.26729 -21.04297,5.08984 -0.64903,0.26056 -0.20519,1.22951 0.41602,0.90821 10.90333,-5.01105 20.2795,-5.25456 25.05664,-4.92188 0.66573,0.0473 0.73605,-0.95075 0.0703,-0.99804 -0.61268,-0.0427 -1.2987,-0.076 -2.05078,-0.0918 z m 4.66406,0.3789 c -0.6211,0.01 -0.67096,0.91831 -0.0547,0.9961 0.49331,0.0765 0.74024,0.13086 0.74024,0.13086 0.65532,0.15127 0.87456,-0.83635 0.21679,-0.97656 0,0 -0.28724,-0.0626 -0.80273,-0.14258 -0.0329,-0.006 -0.0662,-0.009 -0.0996,-0.008 z m -296.53125,1.25391 c -2.20908,0.0348 -4.10919,0.16802 -5.63672,0.32227 -0.69236,0.0431 -0.58521,1.09194 0.10156,0.99414 5.86151,-0.59186 17.37216,-0.83778 30.67188,3.61914 -4.31717,-0.48402 -7.74784,-0.32809 -10.24805,0.0137 -3.27284,0.44733 -5.0039,1.21875 -5.0039,1.21875 -0.55972,0.29272 -0.17786,1.13968 0.41211,0.91406 0,0 1.5559,-0.70948 4.7246,-1.14258 3.16873,-0.4331 7.91596,-0.57588 14.18165,0.61914 0.67477,0.1519 0.86768,-0.88039 0.18359,-0.98242 -0.94666,-0.18055 -1.84906,-0.32117 -2.72852,-0.44531 0.24544,-0.26475 0.13803,-0.6944 -0.20312,-0.8125 -10.42426,-3.65476 -19.82785,-4.42306 -26.45508,-4.31836 z m 67.43359,0.0566 c -0.79756,-7.4e-4 -1.63792,0.01 -2.51757,0.0352 -7.03725,0.2047 -16.57629,1.35378 -26.58204,5.14648 -0.6459,0.22607 -0.28084,1.1942 0.35352,0.9375 19.74332,-7.48376 37.64063,-4.5625 37.64063,-4.5625 0.70827,0.18638 0.89271,-0.93137 0.16211,-0.98242 0,0 -3.47372,-0.56903 -9.05665,-0.57422 z m -75.87109,0.62695 c -0.0282,2.4e-4 -0.0563,0.003 -0.084,0.008 -0.87845,0.14014 -1.36133,0.24804 -1.36133,0.24804 -0.6524,0.14498 -0.43315,1.12375 0.21875,0.97657 0,0 0.44434,-0.0997 1.30078,-0.23633 0.62946,-0.0786 0.55991,-1.0117 -0.0742,-0.9961 z m 321.95313,1.01368 c -0.3787,0.0207 -0.59747,0.43887 -0.39844,0.76172 0.9877,1.65847 1.51758,3.43355 1.51758,5.28906 0,0.67927 -0.0971,1.3445 -0.23829,2.00195 -4.85973,2.19569 -14.80666,2.92013 -20.23437,2.97656 -8.01071,0.0833 -10.77841,-1.10574 -29.44531,1.75782 -11.23131,1.72289 -21.59952,-0.33266 -32.63672,-0.32227 -0.95774,8.9e-4 -1.89794,-0.002 -2.81836,-0.008 -0.67525,-0.0127 -0.68107,1.00473 -0.006,1 0.92276,0.006 1.86387,0.009 2.82422,0.008 10.91115,-0.0102 21.34982,2.06532 32.78906,0.31055 18.61157,-2.85507 21.19119,-1.66176 29.30274,-1.7461 5.61637,-0.0584 15.83315,-0.70401 20.98828,-3.21875 0.005,-0.003 0.009,-0.005 0.0137,-0.008 0.35263,-0.1861 0.61267,-0.17547 0.84375,-0.084 0.23093,0.0915 0.43644,0.29167 0.55859,0.54101 0.12208,0.24934 0.15552,0.53459 0.0859,0.77344 -0.0692,0.23887 -0.22111,0.45246 -0.58398,0.61719 -0.004,0.002 -0.008,0.004 -0.0117,0.006 -5.15789,2.51611 -13.52335,3.2138 -19.38086,3.38476 -0.66667,0.0208 -0.63537,1.02083 0.0312,1 4.35995,-0.12725 10.08076,-0.51852 14.98047,-1.78515 -1.16871,1.35288 -2.63927,2.6007 -4.4043,3.68945 -4.5902,2.83143 -10.9912,4.60156 -18.0918,4.60156 h -42.51562 c -0.67616,-0.01 -0.67616,1.00956 0,1 h 42.51562 c 7.26611,0 13.83272,-1.79874 18.61719,-4.75 2.29839,-1.41774 4.1828,-3.11485 5.5293,-5.00781 1.11988,-0.35327 2.18195,-0.75966 3.14843,-1.23047 0.59131,-0.26925 0.98117,-0.73678 1.12891,-1.24609 0.14778,-0.51015 0.0727,-1.04142 -0.14844,-1.49219 -0.22072,-0.45078 -0.59405,-0.83568 -1.08789,-1.03125 h -0.004 c -0.27185,-0.10767 -0.57931,-0.14196 -0.89649,-0.10742 0.0857,-0.53656 0.14649,-1.0784 0.14649,-1.63086 0,-2.04709 -0.59007,-4.00719 -1.65821,-5.80078 -0.0941,-0.16367 -0.27241,-0.26037 -0.46093,-0.25 z m -185.24219,0.83007 c -0.0454,-9.4e-4 -0.0908,0.004 -0.13477,0.0156 -2.83653,0.67546 -5.059,1.46098 -6.61328,2.34375 -1.55428,0.88277 -2.52344,1.90491 -2.52344,3.11328 0,1.03835 0.72943,1.93921 1.8711,2.71094 1.14165,0.77173 2.74955,1.46085 4.76953,2.07617 4.03996,1.23065 9.72615,2.15742 16.46094,2.60742 0.66536,0.0443 0.73176,-0.95378 0.0664,-0.99804 -6.68068,-0.4464 -12.31326,-1.37137 -16.23633,-2.56641 -1.96153,-0.59752 -3.49398,-1.26722 -4.5,-1.94727 -1.006,-0.68004 -1.43164,-1.32605 -1.43164,-1.88281 0,-0.64416 0.5999,-1.43896 2.01758,-2.24414 1.41768,-0.80518 3.57153,-1.57824 6.35156,-2.24023 0.57828,-0.1274 0.49433,-0.97652 -0.0976,-0.98829 z m 100.15625,0.10547 c -3.51097,0.009 -6.44804,0.25816 -8.62695,0.53125 -0.67013,0.0766 -0.54318,1.08424 0.125,0.99219 5.71493,-0.71629 16.77695,-1.26355 29.72656,2.39258 0.66664,0.22907 0.95943,-0.80731 0.27148,-0.96094 -6.55893,-1.85182 -12.6363,-2.64108 -17.80078,-2.875 -1.29112,-0.0585 -2.52499,-0.083 -3.69531,-0.0801 z m 54.05664,0.2168 c -2.47401,-0.0442 -5.31455,0.13606 -8.3457,0.75586 -0.65495,0.13281 -0.45574,1.11523 0.19921,0.98242 9.43544,-1.92932 16.94922,0.50195 16.94922,0.50195 0.63541,0.20573 0.94401,-0.74739 0.3086,-0.95312 0,0 -1.94085,-0.62925 -5.0918,-1.00977 -1.18161,-0.14269 -2.53512,-0.25081 -4.01953,-0.27734 z m -65.71289,0.78711 c -0.0282,8.8e-4 -0.0563,0.004 -0.084,0.01 -0.74587,0.14076 -1.15429,0.24023 -1.15429,0.24023 -0.67521,0.14151 -0.42571,1.15792 0.23828,0.9707 0,0 0.37508,-0.0914 1.10156,-0.22851 0.60968,-0.10833 0.51742,-1.00962 -0.10156,-0.99219 z m 75.27344,12.14453 c -0.66049,-0.002 -0.67208,0.98604 -0.0117,1 0.64051,0.009 1.31359,0.0114 2.03125,0.006 0.70915,0.0363 0.69637,-1.05104 -0.0117,-0.99805 -0.70819,0.006 -1.37123,0.001 -2.00391,-0.008 z M 182.43359,260.332 c -0.67616,-0.01 -0.67616,1.00956 0,1 h 1.5918 c 0.67616,0.01 0.67616,-1.00956 0,-1 z m 183.54102,0 c -0.67616,-0.01 -0.67616,1.00956 0,1 h 2.17578 c 0.67616,0.01 0.67616,-1.00956 0,-1 z"
       style="color:#000000;font-style:normal;font-variant:normal;font-weight:normal;font-stretch:normal;font-size:medium;line-height:normal;font-family:sans-serif;font-variant-ligatures:normal;font-variant-position:normal;font-variant-caps:normal;font-variant-numeric:normal;font-variant-alternates:normal;font-feature-settings:normal;text-indent:0;text-align:start;text-decoration:none;text-decoration-line:none;text-decoration-style:solid;text-decoration-color:#000000;letter-spacing:normal;word-spacing:normal;text-transform:none;writing-mode:lr-tb;direction:ltr;text-orientation:mixed;dominant-baseline:auto;baseline-shift:baseline;text-anchor:start;white-space:normal;shape-padding:0;clip-rule:nonzero;display:inline;overflow:visible;visibility:visible;opacity:1;isolation:auto;mix-blend-mode:normal;color-interpolation:sRGB;color-interpolation-filters:linearRGB;solid-color:#000000;solid-opacity:1;vector-effect:none;fill:#666666;fill-opacity:1;fill-rule:nonzero;stroke:none;stroke-width:0.99999994px;stroke-linecap:butt;stroke-linejoin:miter;stroke-miterlimit:4;stroke-dasharray:none;stroke-dashoffset:0;stroke-opacity:1;color-rendering:auto;image-rendering:auto;shape-rendering:auto;text-rendering:auto;enable-background:accumulate" />
    <path
       id="ellipse1107"
       transform="scale(0.26458333)"
       d="m 371.85742,145.78906 c -4.57144,0 -8.25195,3.68115 -8.25195,8.25391 v 9.34961 c -10.2786,1.27588 -18.18945,9.98119 -18.18945,20.61914 v 6.70703 c 0,8.88923 5.52208,16.43666 13.33398,19.42383 a 9.6074035,15.4725 70.715825 0 0 -3.94922,1.03125 9.6074035,15.4725 70.715825 0 0 -11.36328,14.19336 9.6074035,15.4725 70.715825 0 0 5.5918,4.63867 10.656376,7.1898543 12.720786 0 0 -0.87891,1.87305 10.656376,7.1898543 12.720786 0 0 8.7832,9.37109 10.656376,7.1898543 12.720786 0 0 12,-4.64453 10.656376,7.1898543 12.720786 0 0 -5.51953,-8.22461 9.6074035,15.4725 70.715825 0 0 9.20703,-13.30274 9.6074035,15.4725 70.715825 0 0 -3.10547,-3.5625 h 19.20313 a 15.4725,9.6074035 19.284175 0 0 -3.10547,3.5625 15.4725,9.6074035 19.284175 0 0 11.36328,14.19336 15.4725,9.6074035 19.284175 0 0 17.82032,-3.90429 15.4725,9.6074035 19.284175 0 0 -11.36329,-14.19336 15.4725,9.6074035 19.284175 0 0 -1.75195,-0.53321 c 8.57639,-2.56328 14.79492,-10.48757 14.79492,-19.92187 v -6.70703 c 0,-9.49857 -6.30762,-17.45785 -14.97461,-19.96484 v -10.00391 c 0,-4.57276 -3.6805,-8.25391 -8.25195,-8.25391 -4.57145,0 -8.25195,3.68115 -8.25195,8.25391 v 9.17187 h -4.88867 v -9.17187 c 0,-4.57276 -3.68051,-8.25391 -8.25196,-8.25391 z"
       style="display:inline;opacity:1;vector-effect:none;fill:#c1c1c1;fill-opacity:1;fill-rule:nonzero;stroke:none;stroke-width:1;stroke-linecap:round;stroke-linejoin:round;stroke-miterlimit:4;stroke-dasharray:none;stroke-dashoffset:0;stroke-opacity:1" />
    <path
       style="opacity:1;vector-effect:none;fill:#9d9d9d;fill-opacity:1;fill-rule:nonzero;stroke:none;stroke-width:0.26458332;stroke-linecap:round;stroke-linejoin:round;stroke-miterlimit:4;stroke-dasharray:none;stroke-dashoffset:0;stroke-opacity:1"
       d="m 93.03697,44.757791 c -1.015638,0.997281 -1.64566,2.385925 -1.64566,3.928604 v 0.394948 a 2.4014687,2.4021578 0 0 0 0.224264,0.01137 2.4014687,2.4021578 0 0 0 2.401214,-2.402533 2.4014687,2.4021578 0 0 0 -0.979818,-1.932391 z"
       id="path1129" />
    <path
       id="ellipse1139"
       transform="scale(0.26458333)"
       d="m 138.65039,142.52344 a 9.4217495,9.4244528 0 0 0 -9.42187,9.42578 9.4217495,9.4244528 0 0 0 5.35742,8.49219 c 3.89893,-4.55436 8.41381,-8.03199 13.33398,-10.13086 a 9.4217495,9.4244528 0 0 0 -9.26953,-7.78711 z m 58.66211,54.66015 c 0.2174,2.42288 0.3418,4.88917 0.3418,7.39844 -0.0105,3.38453 -0.23898,6.7591 -0.6543,10.08789 -0.51125,4.09746 -1.53674,7.62156 -2.93164,10.66211 a 22.931825,14.301286 19.511181 0 0 18.4375,-7.63672 22.931825,14.301286 19.511181 0 0 -15.19336,-20.51172 z m -77.21094,4.03711 a 14.301286,22.931825 70.488819 0 0 -7.95117,16.47461 14.301286,22.931825 70.488819 0 0 11.41797,7.57617 c -1.38054,-3.02716 -2.39516,-6.53089 -2.90234,-10.60156 -0.41475,-3.32882 -0.63414,-6.70406 -0.63868,-10.08789 0,-1.12937 0.0294,-2.24833 0.0742,-3.36133 z"
       style="opacity:1;vector-effect:none;fill:#212121;fill-opacity:1;fill-rule:nonzero;stroke:none;stroke-width:0.99999994;stroke-linecap:round;stroke-linejoin:round;stroke-miterlimit:4;stroke-dasharray:none;stroke-dashoffset:0;stroke-opacity:1" />
    <path
       id="ellipse1143"
       transform="scale(0.26458333)"
       d="m 187.04492,221.01367 a 9.0788944,13.398712 77.12147 0 0 -3.95117,0.48828 9.0788944,13.398712 77.12147 0 0 -11.03906,11.83594 9.0788944,13.398712 77.12147 0 0 15.08203,5.86523 9.0788944,13.398712 77.12147 0 0 8.1582,-4.22656 2.0078125,1.359375 0 0 1 -0.32617,-0.74218 2.0078125,1.359375 0 0 1 2.00781,-1.35938 2.0078125,1.359375 0 0 1 0.0664,0.002 9.0788944,13.398712 77.12147 0 0 1.13476,-5.50976 9.0788944,13.398712 77.12147 0 0 -11.13281,-6.35352 z"
       style="display:inline;opacity:1;vector-effect:none;fill:#c1c1c1;fill-opacity:1;fill-rule:nonzero;stroke:none;stroke-width:0.99999994;stroke-linecap:round;stroke-linejoin:round;stroke-miterlimit:4;stroke-dasharray:none;stroke-dashoffset:0;stroke-opacity:1" />
    <path
       style="display:inline;opacity:1;vector-effect:none;fill:#9d9d9d;fill-opacity:1;fill-rule:nonzero;stroke:none;stroke-width:0.26458332;stroke-linecap:round;stroke-linejoin:round;stroke-miterlimit:4;stroke-dasharray:none;stroke-dashoffset:0;stroke-opacity:1"
       d="m 52.441885,60.208698 a 2.4021241,3.5450757 77.121472 0 1 -2.928709,2.433496 2.4021241,3.5450757 77.121472 0 1 -3.990649,-1.551981 2.4021241,3.5450757 77.121472 0 1 -0.0076,-0.05118 2.4021241,3.5450757 77.121472 0 0 0.0076,0.698262 2.4021241,3.5450757 77.121472 0 0 3.990649,1.551981 2.4021241,3.5450757 77.121472 0 0 2.928709,-3.080575 z"
       id="path1145" />
    <path
       style="display:inline;opacity:1;vector-effect:none;fill:#212121;fill-opacity:1;fill-rule:nonzero;stroke:none;stroke-width:0.26458332;stroke-linecap:round;stroke-linejoin:round;stroke-miterlimit:4;stroke-dasharray:none;stroke-dashoffset:0;stroke-opacity:1"
       d="m 31.926,56.79826 c 0.886634,7.116183 7.570046,7.765743 10.100526,7.764947 2.530481,-6.47e-4 9.208698,-0.651216 10.096303,-7.764947 0,0 -3.334871,1.455927 -10.098414,1.455927 -6.763544,0 -10.098415,-1.455927 -10.098415,-1.455927 z"
       id="path1155" />
    <path
       id="path1163"
       d="m 31.914062,56.666016 a 0.13230489,0.13230489 0 0 0 -0.04102,0.253906 c 0,0 3.369815,1.466797 10.152344,1.466797 6.782527,0 10.15039,-1.466797 10.15039,-1.466797 a 0.13230489,0.13230489 0 1 0 -0.105469,-0.242188 c 0,0 -3.300363,1.44336 -10.044921,1.44336 -6.74456,0 -10.046875,-1.44336 -10.046875,-1.44336 a 0.13230489,0.13230489 0 0 0 -0.06445,-0.01172 z"
       style="color:#000000;font-style:normal;font-variant:normal;font-weight:normal;font-stretch:normal;font-size:medium;line-height:normal;font-family:sans-serif;font-variant-ligatures:normal;font-variant-position:normal;font-variant-caps:normal;font-variant-numeric:normal;font-variant-alternates:normal;font-feature-settings:normal;text-indent:0;text-align:start;text-decoration:none;text-decoration-line:none;text-decoration-style:solid;text-decoration-color:#000000;letter-spacing:normal;word-spacing:normal;text-transform:none;writing-mode:lr-tb;direction:ltr;text-orientation:mixed;dominant-baseline:auto;baseline-shift:baseline;text-anchor:start;white-space:normal;shape-padding:0;clip-rule:nonzero;display:inline;overflow:visible;visibility:visible;opacity:1;isolation:auto;mix-blend-mode:normal;color-interpolation:sRGB;color-interpolation-filters:linearRGB;solid-color:#000000;solid-opacity:1;vector-effect:none;fill:#212121;fill-opacity:1;fill-rule:nonzero;stroke:none;stroke-width:0.26458332;stroke-linecap:round;stroke-linejoin:round;stroke-miterlimit:4;stroke-dasharray:none;stroke-dashoffset:0;stroke-opacity:1;color-rendering:auto;image-rendering:auto;shape-rendering:auto;text-rendering:auto;enable-background:accumulate" />
    <path
       id="path1109"
       transform="scale(0.26458333)"
       d="m 345.41602,188.27148 v 2.44727 c 0,11.52191 9.27239,20.79687 20.79101,20.79687 h 29.47852 c 11.5186,0 20.79101,-9.27496 20.79101,-20.79687 v -2.44727 c 0,11.52191 -9.27241,15.90625 -20.79101,15.90625 h -29.47852 c -11.51862,0 -20.79101,-4.38434 -20.79101,-15.90625 z m 27.43164,27.67774 a 9.6074033,15.4725 70.715825 0 1 -11.58985,10.875 9.6074033,15.4725 70.715825 0 1 -17.82031,-3.90234 9.6074033,15.4725 70.715825 0 1 -0.22461,-0.8711 9.6074033,15.4725 70.715825 0 0 0.22461,3.31641 9.6074033,15.4725 70.715825 0 0 17.82031,3.90234 9.6074033,15.4725 70.715825 0 0 11.58985,-13.32031 z m 12.53906,0 a 15.4725,9.6074033 19.284175 0 0 11.58789,13.32031 15.4725,9.6074033 19.284175 0 0 17.82227,-3.90234 15.4725,9.6074033 19.284175 0 0 0.22656,-3.31641 15.4725,9.6074033 19.284175 0 1 -0.22656,0.8711 15.4725,9.6074033 19.284175 0 1 -17.82227,3.90234 15.4725,9.6074033 19.284175 0 1 -11.58789,-10.875 z m -37.20313,15.81445 a 10.656376,7.1898546 12.720786 0 0 -0.0332,0.11524 10.656376,7.1898546 12.720786 0 0 8.7832,9.37109 10.656376,7.1898546 12.720786 0 0 11.99805,-4.64258 10.656376,7.1898546 12.720786 0 0 -0.0312,-2.33398 10.656376,7.1898546 12.720786 0 1 -11.9668,4.53125 10.656376,7.1898546 12.720786 0 1 -8.75,-7.04102 z"
       style="display:inline;opacity:1;vector-effect:none;fill:#666666;fill-opacity:1;fill-rule:nonzero;stroke:none;stroke-width:0.99999994;stroke-linecap:round;stroke-linejoin:round;stroke-miterlimit:4;stroke-dasharray:none;stroke-dashoffset:0;stroke-opacity:1" />
    <path
       id="path1225"
       transform="scale(0.26458333)"
       d="m 248.53516,74.205078 c -1.15731,-0.03318 -2.21031,0.746469 -2.48438,1.919922 l -0.71289,3.052734 c -0.31322,1.341089 0.51281,2.673021 1.85352,2.986328 l 7.57617,1.769532 c 1.3407,0.313308 2.67311,-0.51438 2.98633,-1.855469 l 0.71289,-3.050781 c 0.31322,-1.341089 -0.51477,-2.67302 -1.85547,-2.986328 l -7.57617,-1.771485 c -0.16759,-0.03916 -0.33467,-0.05971 -0.5,-0.06445 z m 43.40625,0 c -0.16533,0.0047 -0.33242,0.02529 -0.5,0.06445 l -7.57618,1.771485 c -1.3407,0.313308 -2.16673,1.645239 -1.85351,2.986328 l 0.71289,3.050781 c 0.31322,1.341089 1.64367,2.168777 2.98437,1.855469 l 7.57618,-1.769532 c 1.3407,-0.313307 2.16868,-1.645239 1.85546,-2.986328 L 294.42773,76.125 c -0.27406,-1.173453 -1.32902,-1.953105 -2.48632,-1.919922 z m -51.80079,17.5 a 1.750175,1.750175 0 0 0 -0.31054,0.0293 h -1.6836 a 1.750175,1.750175 0 1 0 0,3.5 h 0.33985 c -8.7e-4,1.263976 -0.0629,3.451696 0.41406,6.968742 0.29938,2.20745 0.7509,4.43933 1.57227,6.30274 0.41068,0.93171 0.91375,1.78336 1.64648,2.48047 0.73273,0.69711 1.78312,1.21094 2.9082,1.21094 h 14.51172 c 1.11374,0 2.10053,-0.62627 2.70899,-1.35157 0.60846,-0.72529 0.99368,-1.56778 1.30664,-2.48632 0.62591,-1.83712 0.94368,-4.0457 1.14453,-6.23829 0.1427,-1.55789 0.20424,-3.03171 0.24023,-4.380853 0.9449,-0.59739 2.92793,-1.642578 5.29688,-1.642578 2.36638,0 4.35052,1.042898 5.29883,1.640625 0.0348,1.349617 0.0955,2.824146 0.23828,4.382806 0.20084,2.19259 0.52447,4.40117 1.15039,6.23829 0.31294,0.91854 0.69037,1.76103 1.29883,2.48632 0.60845,0.7253 1.60305,1.35157 2.71679,1.35157 h 14.51367 c 1.12509,0 2.16766,-0.51383 2.9004,-1.21094 0.73273,-0.69711 1.2358,-1.54876 1.64648,-2.48047 0.82136,-1.86341 1.27288,-4.09529 1.57227,-6.30274 0.47701,-3.517091 0.42078,-5.704808 0.41992,-6.968742 h 0.33984 a 1.750175,1.750175 0 1 0 0,-3.5 h -1.69726 a 1.750175,1.750175 0 0 0 -0.34766,-0.0293 1.750175,1.750175 0 0 0 -0.24219,0.0293 h -22.77344 a 1.750175,1.750175 0 0 0 -1.75,1.691406 c 0,0 -0.003,0.316269 -0.004,0.351563 -1.39023,-0.619519 -3.19219,-1.179688 -5.28125,-1.179688 -2.08708,0 -3.88726,0.558929 -5.27539,1.177735 -0.001,-0.03491 -0.002,-0.34961 -0.002,-0.34961 a 1.750175,1.750175 0 0 0 -1.75,-1.691406 h -22.76562 a 1.750175,1.750175 0 0 0 -0.30274,-0.0293 z m 1.84571,3.529297 h 19.42187 c 0.0219,1.218297 0.10496,3.311798 -0.19336,6.568355 -0.18769,2.04909 -0.51665,4.08164 -0.97461,5.42579 -0.229,0.67207 -0.49997,1.16461 -0.66992,1.36718 -0.069,0.0823 -0.0778,0.094 -0.082,0.10352 h -14.46094 c -0.16928,0 -0.25157,-0.0134 -0.49414,-0.24414 -0.24257,-0.23074 -0.56697,-0.70631 -0.85742,-1.36524 -0.58089,-1.31785 -1.03075,-3.32514 -1.30664,-5.35937 -0.43627,-3.216724 -0.38046,-5.268867 -0.38281,-6.496095 z m 37.08594,0 h 19.42187 c -0.002,1.227186 0.0457,3.279326 -0.39062,6.496095 -0.27591,2.03423 -0.71989,4.04152 -1.30079,5.35937 -0.29045,0.65893 -0.61291,1.13448 -0.85546,1.36524 -0.24257,0.23078 -0.32486,0.24414 -0.49415,0.24414 h -14.46679 c -0.006,-0.01 -0.0148,-0.0211 -0.084,-0.10352 -0.16992,-0.20258 -0.43508,-0.69511 -0.66406,-1.36718 -0.45796,-1.34416 -0.78691,-3.3767 -0.97461,-5.42579 -0.29832,-3.256557 -0.21333,-5.350058 -0.1914,-6.568355 z M 263.58594,118.5 c -1.53072,0.0338 -3.26898,1.13367 -4.78125,2.91992 -1.33322,1.57478 -6.375,1.83789 -6.375,1.83789 10.18091,6.94245 17.06532,-0.87273 13.07422,-4.10742 -0.56923,-0.46134 -1.22219,-0.66576 -1.91797,-0.65039 z m 13.30468,0 c -0.69577,-0.0154 -1.34874,0.18905 -1.91796,0.65039 -3.99111,3.23469 2.8933,11.04987 13.07422,4.10742 0,0 -5.0418,-0.2631 -6.375,-1.83789 -1.51227,-1.78625 -3.25053,-2.88611 -4.78126,-2.91992 z m -97.86132,24.02344 a 9.4217495,9.4244537 0 0 0 -9.42188,9.42578 9.4217495,9.4244537 0 0 0 9.42188,9.42383 9.4217495,9.4244537 0 0 0 9.42187,-9.42383 9.4217495,9.4244537 0 0 0 -9.42187,-9.42578 z m 188.13672,61.03515 c -7.66223,0 -13.83008,6.74595 -13.83008,15.12891 v 7.99805 2.3789 8.28321 c 0,5.38905 10.95561,7.28125 28.30859,7.28125 17.35302,0 28.30859,-1.8922 28.30859,-7.28125 v -8.28321 -2.3789 -7.99805 c 0,-8.38296 -6.16592,-15.12891 -13.82812,-15.12891 z"
       style="color:#000000;font-style:normal;font-variant:normal;font-weight:normal;font-stretch:normal;font-size:medium;line-height:normal;font-family:sans-serif;font-variant-ligatures:normal;font-variant-position:normal;font-variant-caps:normal;font-variant-numeric:normal;font-variant-alternates:normal;font-feature-settings:normal;text-indent:0;text-align:start;text-decoration:none;text-decoration-line:none;text-decoration-style:solid;text-decoration-color:#000000;letter-spacing:normal;word-spacing:normal;text-transform:none;writing-mode:lr-tb;direction:ltr;text-orientation:mixed;dominant-baseline:auto;baseline-shift:baseline;text-anchor:start;white-space:normal;shape-padding:0;clip-rule:nonzero;display:inline;overflow:visible;visibility:visible;opacity:1;isolation:auto;mix-blend-mode:normal;color-interpolation:sRGB;color-interpolation-filters:linearRGB;solid-color:#000000;solid-opacity:1;vector-effect:none;fill:#212121;fill-opacity:1;fill-rule:nonzero;stroke:none;stroke-width:3.5;stroke-linecap:round;stroke-linejoin:round;stroke-miterlimit:4;stroke-dasharray:none;stroke-dashoffset:0;stroke-opacity:1;color-rendering:auto;image-rendering:auto;shape-rendering:auto;text-rendering:auto;enable-background:accumulate" />
    <path
       id="ellipse1111"
       transform="scale(0.26458333)"
       d="m 371.85742,145.28906 c -4.83988,0 -8.75195,3.91287 -8.75195,8.75391 v 9.01953 a 0.50004998,0.50004998 0 1 0 1,0 v -9.01953 c 0,-4.30449 3.44893,-7.75391 7.75195,-7.75391 4.30302,0 7.75195,3.44942 7.75196,7.75391 v 9.17187 a 0.50004998,0.50004998 0 0 0 0.5,0.5 h 4.88867 a 0.50004998,0.50004998 0 0 0 0.5,-0.5 v -9.17187 c 0,-4.30449 3.44896,-7.75391 7.75195,-7.75391 4.30303,0 7.75195,3.44942 7.75195,7.75391 v 10.00391 a 0.50004998,0.50004998 0 0 0 0.36133,0.48046 c 2.74968,0.79536 5.25582,2.1525 7.38672,3.94141 a 0.50004998,0.50004998 0 1 0 0.64258,-0.76563 c -2.13782,-1.79473 -4.65312,-3.14292 -7.39063,-3.99023 v -9.66992 c 0,-4.84104 -3.91208,-8.75391 -8.75195,-8.75391 -4.83987,0 -8.75195,3.91287 -8.75195,8.75391 v 8.67187 h -3.88867 v -8.67187 c 0,-4.84104 -3.91208,-8.75391 -8.75196,-8.75391 z m -213.01758,2.23828 c -11.49483,0 -21.80568,7.15033 -28.96289,18.46094 a 0.50004998,0.50004998 0 1 0 0.84375,0.53516 c 7.02731,-11.10533 17.03897,-17.9961 28.11914,-17.9961 10.52121,0 20.07646,6.21092 27.03321,16.34766 6.95674,10.13674 11.28125,24.18232 11.28125,39.70703 -0.0106,3.3624 -0.23751,6.71804 -0.65039,10.02735 -1.65854,13.29224 -8.66814,20.44974 -16.48047,24.36914 -7.81234,3.91937 -16.44435,4.53807 -21.1836,4.53906 -4.73909,10e-4 -13.3766,-0.61433 -21.19336,-4.5332 -7.81675,-3.91888 -14.82767,-11.0782 -16.48437,-24.375 -0.4123,-3.30907 -0.6298,-6.66456 -0.63477,-10.02735 0,-11.43931 2.34575,-22.07623 6.36524,-30.9375 a 0.50004998,0.50004998 0 1 0 -0.91016,-0.41211 c -4.08335,9.00204 -6.45508,19.77366 -6.45508,31.34961 a 0.50004998,0.50004998 0 0 0 0,0.002 c 0.005,3.40488 0.22537,6.79985 0.64258,10.14844 1.69435,13.59901 8.98721,21.11464 17.0293,25.14649 8.04209,4.03183 16.81569,4.64019 21.64062,4.63867 4.77224,-0.001 13.40383,-0.60442 21.36914,-4.51953 2.17317,0.33446 4.58007,0.25529 7.03907,-0.30664 3.31875,-0.75842 6.33214,-2.32078 8.47656,-4.41797 a 0.50004997,0.50004997 0 0 0 -0.35156,-0.86328 0.50004997,0.50004997 0 0 0 -0.34766,0.14843 c -1.98597,1.94224 -4.84477,3.4352 -8,4.15625 -1.79036,0.40915 -3.54079,0.52871 -5.18164,0.42969 5.49276,-3.07237 10.49225,-7.88308 13.39648,-15.29492 1.25613,0.96976 2.12396,2.19621 2.45118,3.62891 0.37198,1.62871 0.0204,3.39802 -1.05664,5.10937 a 0.50018424,0.50018424 0 1 0 0.84765,0.53125 c 1.19179,-1.89363 1.62137,-3.94653 1.1836,-5.86328 -0.40819,-1.78718 -1.52108,-3.27108 -3.07422,-4.39063 0.86866,-2.43805 1.52951,-5.1291 1.90429,-8.13281 0.41768,-3.34763 0.64762,-6.74243 0.65821,-10.14844 a 0.50004998,0.50004998 0 0 0 0,-0.002 c 0,-15.71016 -4.36601,-29.94103 -11.45703,-40.27344 -7.09103,-10.3324 -16.94248,-16.78125 -27.85743,-16.78125 z m 201.40039,16.06446 a 0.50004998,0.50004998 0 0 0 -0.13281,0.0215 c -3.33321,0.98862 -6.31893,2.76951 -8.74414,5.12305 a 0.50004998,0.50004998 0 0 0 -0.16797,0.17578 c -3.87733,3.8497 -6.27929,9.18115 -6.27929,15.09961 v 1.45703 a 0.5004325,0.5004325 0 0 0 0,0.0742 v 5.17578 c 0,8.52834 4.97497,15.85866 12.1875,19.26367 -0.81888,0.19865 -1.64261,0.42944 -2.46875,0.7207 -4.10862,1.44854 -7.46983,3.78951 -9.59766,6.44727 -0.20474,0.25572 -0.39678,0.51415 -0.57813,0.77539 a 0.50005005,0.50005005 0 1 0 0.82032,0.57031 c 0.16792,-0.24189 0.34809,-0.48217 0.53906,-0.7207 1.98487,-2.4792 5.19807,-4.73616 9.14844,-6.12891 1.26214,-0.44497 2.51854,-0.76246 3.75,-0.98242 2.32886,0.87183 4.85152,1.35157 7.49023,1.35156 h 3.17188 c 1.32684,0.81788 2.29753,1.90222 2.77148,3.23047 0.81849,2.29381 0.0747,4.94463 -1.91016,7.42383 -1.98487,2.4792 -5.19806,4.73812 -9.14843,6.13086 -3.95038,1.39274 -7.87624,1.65095 -10.99024,0.96875 -3.114,-0.6822 -5.37487,-2.27651 -6.19336,-4.57031 -0.50905,-1.4266 -0.41502,-2.97751 0.20703,-4.5586 a 0.5003364,0.5003364 0 1 0 -0.93164,-0.36523 c -0.69205,1.75903 -0.8168,3.57825 -0.21679,5.25977 0.80301,2.25041 2.76166,3.85025 5.3164,4.74804 -0.27052,0.46345 -0.49837,0.94958 -0.62109,1.48438 -0.48887,2.13031 0.36131,4.31977 2.03125,6.10156 1.66994,1.78179 4.16668,3.19629 7.125,3.86914 2.95827,0.67284 5.83181,0.48073 8.11328,-0.40234 2.28151,-0.88306 4.00137,-2.48884 4.49024,-4.61914 0.48885,-2.13031 -0.36127,-4.31976 -2.03126,-6.10157 -0.78099,-0.83329 -1.75707,-1.57538 -2.86523,-2.20898 2.70062,-1.38214 4.93342,-3.15948 6.49609,-5.11133 2.12783,-2.65775 3.03506,-5.68111 2.07032,-8.38476 -0.40485,-1.13456 -1.11496,-2.09488 -2.03321,-2.89454 h 16.11914 c -0.91892,0.79986 -1.63032,1.75998 -2.03515,2.89454 -0.96476,2.70366 -0.0552,5.72745 2.07226,8.38476 2.12746,2.6573 5.4871,5.00265 9.59571,6.45117 4.10861,1.44853 8.19671,1.72899 11.5332,0.99805 3.33645,-0.73094 5.9591,-2.50923 6.92383,-5.21289 0.96476,-2.70367 0.0551,-5.72746 -2.07227,-8.38477 -2.12746,-2.65729 -5.48123,-4.99483 -9.58984,-6.44336 -0.0978,-0.0345 -0.19516,-0.0606 -0.29297,-0.0937 8.00126,-3.05919 13.66406,-10.79208 13.66406,-19.89063 v -6.70703 c 0,-4.18501 -1.19702,-8.08328 -3.26953,-11.36719 a 0.50004998,0.50004998 0 1 0 -0.8457,0.5332 c 1.97473,3.12908 3.11523,6.83961 3.11523,10.83399 v 6.70703 c 0,9.16072 -5.9905,16.85661 -14.28711,19.40234 -3.44921,-0.92088 -6.80638,-1.04089 -9.62304,-0.42382 -1.29245,0.28314 -2.4728,0.72778 -3.4961,1.31835 h -18.90429 c -1.02264,-0.59037 -2.20192,-1.03526 -3.49414,-1.31835 -1.66796,-0.36541 -3.5248,-0.47582 -5.47852,-0.31446 -0.61166,0.0505 -1.23549,0.13759 -1.86328,0.24219 -7.57157,-2.93958 -12.91406,-10.26265 -12.91406,-18.90625 v -4.68945 c 0.1153,0.005 0.23057,0.017 0.3457,0.0176 a 0.50004998,0.50004998 0 0 0 0.002,0 c 5.28326,-5.6e-4 9.577,-4.29554 9.57617,-9.58008 -1.8e-4,-0.10216 -0.003,-0.20457 -0.006,-0.30469 a 0.50004998,0.50004998 0 0 0 -0.52343,-0.49023 0.50004998,0.50004998 0 0 0 -0.47657,0.52148 c 0.003,0.092 0.006,0.18277 0.006,0.27344 7.4e-4,4.74356 -3.83248,8.5785 -8.57422,8.58008 -0.11708,-5.9e-4 -0.23301,-0.0123 -0.3496,-0.0176 v -1.01758 c 0,-5.53628 2.20245,-10.52194 5.76757,-14.16992 1.26902,1.03688 2.20625,2.3997 2.71485,3.92578 a 0.50028567,0.50028567 0 0 0 0.94922,-0.31641 c -0.55658,-1.67003 -1.57128,-3.16741 -2.94532,-4.3164 2.24804,-2.08232 4.96538,-3.66592 7.98828,-4.5625 a 0.50004998,0.50004998 0 0 0 -0.15039,-0.98047 z m -231.30078,4.43164 A 0.50004998,0.50004998 0 0 0 128.5,168.28125 c -0.24692,0.43437 -0.49042,0.87535 -0.72852,1.32031 a 0.50023472,0.50023472 0 1 0 0.88282,0.47071 c 0.2341,-0.43753 0.47218,-0.86804 0.71484,-1.29493 a 0.50004998,0.50004998 0 0 0 -0.42969,-0.7539 z m 281.7461,1.0625 a 0.50004998,0.50004998 0 0 0 -0.36328,0.85156 c 0.34771,0.36102 0.68178,0.73505 1.00195,1.12109 a 0.50004998,0.50004998 0 1 0 0.76953,-0.63867 c -0.336,-0.4051 -0.68609,-0.79698 -1.05078,-1.17578 a 0.50004998,0.50004998 0 0 0 -0.35742,-0.1582 z m -48.53321,41.23047 c 1.35457,-0.0192 2.63694,0.10355 3.80469,0.35937 0.43098,0.0944 0.84155,0.21105 1.23828,0.33984 h -0.98828 c -1.77214,0 -3.4892,-0.22636 -5.125,-0.64843 0.35999,-0.0243 0.71936,-0.0458 1.07031,-0.0508 z m 33.92578,0.002 c 1.09188,0.0157 2.23396,0.13581 3.39844,0.3418 -1.22809,0.23003 -2.49368,0.35546 -3.79101,0.35546 h -4.65039 c 0.39659,-0.12859 0.80737,-0.24349 1.23828,-0.33789 1.16753,-0.25578 2.4494,-0.37888 3.80468,-0.35937 z m 5.61329,0.83789 c 0.52396,0.14589 1.04961,0.3085 1.57617,0.49414 3.9504,1.39274 7.16129,3.6473 9.14648,6.12695 1.98524,2.47965 2.73256,5.12808 1.91406,7.42188 -0.81849,2.29379 -3.07993,3.89018 -6.19335,4.57226 -3.11339,0.68208 -7.03792,0.42204 -10.98829,-0.9707 -3.95036,-1.39274 -7.1671,-3.65121 -9.15234,-6.13086 -1.98523,-2.47966 -2.72861,-5.13394 -1.91016,-7.42773 0.47369,-1.3275 1.44077,-2.41045 2.76563,-3.22657 h 6.83594 c 2.08772,0 4.1015,-0.30302 6.00586,-0.85937 z m -44.51758,9.57813 a 0.50004998,0.50004998 0 0 0 -0.0606,0.006 0.50004998,0.50004998 0 0 0 -0.32422,0.19922 l -4.73242,6.11328 a 0.50004998,0.50004998 0 1 0 0.79102,0.61133 l 4.73046,-6.11133 a 0.50004998,0.50004998 0 0 0 -0.40429,-0.81835 z m 6.22461,8.20703 c 1.29754,0.65235 2.4166,1.45376 3.26172,2.35547 1.50878,1.60985 2.18248,3.45731 1.7832,5.19726 -0.39929,1.73996 -1.81367,3.11424 -3.875,3.91211 -2.06137,0.79788 -4.7449,0.98592 -7.52539,0.35352 -2.78053,-0.63241 -5.11034,-1.96045 -6.61914,-3.57032 -1.50882,-1.60988 -2.18248,-3.45926 -1.78321,-5.19922 0.11581,-0.5046 0.3192,-0.97693 0.59766,-1.41406 0.2159,0.0581 0.42588,0.12312 0.64844,0.17188 3.33591,0.73081 7.42849,0.44267 11.53711,-1.00586 0.68259,-0.24066 1.33551,-0.5135 1.97461,-0.80078 z"
       style="color:#000000;font-style:normal;font-variant:normal;font-weight:normal;font-stretch:normal;font-size:medium;line-height:normal;font-family:sans-serif;font-variant-ligatures:normal;font-variant-position:normal;font-variant-caps:normal;font-variant-numeric:normal;font-variant-alternates:normal;font-feature-settings:normal;text-indent:0;text-align:start;text-decoration:none;text-decoration-line:none;text-decoration-style:solid;text-decoration-color:#000000;letter-spacing:normal;word-spacing:normal;text-transform:none;writing-mode:lr-tb;direction:ltr;text-orientation:mixed;dominant-baseline:auto;baseline-shift:baseline;text-anchor:start;white-space:normal;shape-padding:0;clip-rule:nonzero;display:inline;overflow:visible;visibility:visible;opacity:1;isolation:auto;mix-blend-mode:normal;color-interpolation:sRGB;color-interpolation-filters:linearRGB;solid-color:#000000;solid-opacity:1;vector-effect:none;fill:#212121;fill-opacity:1;fill-rule:nonzero;stroke:none;stroke-width:1.00000095;stroke-linecap:round;stroke-linejoin:round;stroke-miterlimit:4;stroke-dasharray:none;stroke-dashoffset:0;stroke-opacity:1;color-rendering:auto;image-rendering:auto;shape-rendering:auto;text-rendering:auto;enable-background:accumulate" />
    <path
       id="ellipse1115"
       transform="scale(0.26458333)"
       d="m 370.13672,148.34961 a 2.4820284,2.4827407 0 0 0 -2.48242,2.48242 2.4820284,2.4827407 0 0 0 2.48242,2.48438 2.4820284,2.4827407 0 0 0 2.48242,-2.48438 2.4820284,2.4827407 0 0 0 -2.48242,-2.48242 z m 21.39258,0 a 2.4820284,2.4827407 0 0 0 -2.48242,2.48242 2.4820284,2.4827407 0 0 0 2.48242,2.48438 2.4820284,2.4827407 0 0 0 2.48242,-2.48438 2.4820284,2.4827407 0 0 0 -2.48242,-2.48242 z m -40.07618,67.12695 a 1.9136857,3.0692 46.338108 0 0 -2.4082,1.14649 1.9136857,3.0692 46.338108 0 0 -0.89844,3.5039 1.9136857,3.0692 46.338108 0 0 3.54297,-0.73437 1.9136857,3.0692 46.338108 0 0 0.89844,-3.50391 1.9136857,3.0692 46.338108 0 0 -1.13477,-0.41211 z"
       style="display:inline;opacity:1;vector-effect:none;fill:#cfcfcf;fill-opacity:1;fill-rule:nonzero;stroke:none;stroke-width:1.00000012;stroke-linecap:round;stroke-linejoin:round;stroke-miterlimit:4;stroke-dasharray:none;stroke-dashoffset:0;stroke-opacity:1" />
    <path
       id="ellipse1247"
       transform="scale(0.26458333)"
       d="m 141.0957,144.75391 a 2.4820284,2.4827407 0 0 0 -2.48242,2.48242 2.4820284,2.4827407 0 0 0 2.48242,2.48242 2.4820284,2.4827407 0 0 0 2.48242,-2.48242 2.4820284,2.4827407 0 0 0 -2.48242,-2.48242 z m 40.37891,0 a 2.4820284,2.4827407 0 0 0 -2.48242,2.48242 2.4820284,2.4827407 0 0 0 2.48242,2.48242 2.4820284,2.4827407 0 0 0 2.48242,-2.48242 2.4820284,2.4827407 0 0 0 -2.48242,-2.48242 z m 22.08984,58.69336 a 4.5983069,2.8671038 43.661892 0 0 -1.69922,0.61523 4.5983069,2.8671038 43.661892 0 0 1.34766,5.25 4.5983069,2.8671038 43.661892 0 0 5.30469,1.09961 4.5983069,2.8671038 43.661892 0 0 -1.3457,-5.24805 4.5983069,2.8671038 43.661892 0 0 -3.60743,-1.71679 z m -6.55859,10.71484 a 0.50004997,0.50004997 0 0 0 -0.0488,0.002 0.50004997,0.50004997 0 0 0 -0.45117,0.44141 c -0.50297,4.03108 -1.50882,7.49458 -2.87109,10.47656 a 0.50004997,0.50004997 0 1 0 0.9082,0.41211 c 1.40655,-3.07888 2.43665,-6.63804 2.95117,-10.76172 a 0.50004997,0.50004997 0 0 0 -0.48828,-0.57031 z m -76.36328,0.002 a 0.50004997,0.50004997 0 0 0 -0.47266,0.56836 c 0.51387,4.12432 1.54675,7.68257 2.95313,10.76172 a 0.50004997,0.50004997 0 1 0 0.9082,-0.41211 c -1.36223,-2.9825 -2.37075,-6.44508 -2.87305,-10.47656 a 0.50004997,0.50004997 0 0 0 -0.51562,-0.44141 z m 70.70312,5.50586 a 1.2501251,1.2501251 0 0 0 -1.20312,0.86328 c -1.18835,3.50348 -2.89699,6.32761 -4.92383,8.62305 a 1.2501251,1.2501251 0 1 0 1.875,1.65234 c 2.2396,-2.5364 4.12044,-5.66263 5.41211,-9.4707 a 1.2501251,1.2501251 0 0 0 -1.16016,-1.66797 z m -8.85742,12.47656 a 1.2501251,1.2501251 0 0 0 -0.7832,0.26563 c -0.45859,0.34979 -0.92774,0.68872 -1.40235,1.00391 a 1.2509435,1.2509435 0 1 0 1.38868,2.08007 c 0.5186,-0.34442 1.03195,-0.70798 1.53515,-1.09179 a 1.2501251,1.2501251 0 0 0 -0.73828,-2.25782 z"
       style="display:inline;opacity:1;vector-effect:none;fill:#9d9d9d;fill-opacity:1;fill-rule:nonzero;stroke:none;stroke-width:1.00000012;stroke-linecap:round;stroke-linejoin:round;stroke-miterlimit:4;stroke-dasharray:none;stroke-dashoffset:0;stroke-opacity:1" />
  </g>
</svg>
