<?xml version="1.0" encoding="UTF-8" standalone="no"?>
<!-- Created with Inkscape (http://www.inkscape.org/) -->

<svg
   xmlns:dc="http://purl.org/dc/elements/1.1/"
   xmlns:cc="http://creativecommons.org/ns#"
   xmlns:rdf="http://www.w3.org/1999/02/22-rdf-syntax-ns#"
   xmlns:svg="http://www.w3.org/2000/svg"
   xmlns="http://www.w3.org/2000/svg"
   version="1.1"
   width="17"
   height="18"
   viewBox="0 0 17 18"
   id="svg2">
  <defs
     id="defs4" />
  <metadata
     id="metadata7">
    <rdf:RDF>
      <cc:Work
         rdf:about="">
        <dc:format>image/svg+xml</dc:format>
        <dc:type
           rdf:resource="http://purl.org/dc/dcmitype/StillImage" />
        <dc:title></dc:title>
        <dc:creator>
          <cc:Agent>
            <dc:title>T. Gantt</dc:title>
          </cc:Agent>
        </dc:creator>
      </cc:Work>
    </rdf:RDF>
  </metadata>
  <g
     id="layer2"
     style="display:inline">
    <path
       d="m 14,1 0,1 -1,0 0,1 -1,0 0,1 -1,0 0,2 2,0 0,1 -1,0 0,1 -1,0 0,1 -1,0 0,1 -1,0 0,1 -1,0 0,1 -1,0 0,1 -1,0 0,1 -1,0 0,1 -1,0 0,2 0,1 1,0 0,-1 1,0 0,-1 1,0 0,-1 1,0 0,-1 1,0 0,-1 1,0 0,-1 1,0 0,-1 1,0 0,-1 1,0 0,-1 1,0 0,-1 1,0 0,-1 1,0 0,-1 -2,0 0,-2 1,0 0,-1 1,0 0,-1 1,0 0,-1 z M 1,9 1,11 7,11 7,9 z"
       id="rect3780"
       style="color:#000000;fill:#000000;fill-opacity:1;fill-rule:nonzero;stroke:none;stroke-width:5;marker:none;visibility:visible;display:inline;overflow:visible;enable-background:accumulate" />
    <path
       d="M 4,0 4,2 3,2 3,4 2,4 2,6 1,6 1,8 0,8 l 0,2 6,0 0,2 -1,0 0,2 -1,0 0,2 1,0 0,-1 1,0 0,-1 1,0 0,-1 1,0 0,-1 1,0 0,-1 1,0 0,-1 1,0 0,-1 1,0 0,-1 1,0 0,-1 1,0 0,-1 1,0 0,-1 -3,0 0,-1 1,0 0,-1 1,0 0,-1 1,0 0,-1 1,0 0,-1 z m 0,16 -1,0 0,1 1,0 z"
       id="rect3815"
       style="color:#000000;fill:#ffffff;fill-opacity:1;fill-rule:nonzero;stroke:none;stroke-width:5;marker:none;visibility:visible;display:inline;overflow:visible;enable-background:accumulate" />
    <path
       d="M 5,2 5,4 4,4 4,6 5,6 5,7 6,7 6,6 7,6 7,7 8,7 8,6 9,6 9,5 l 1,0 0,-1 1,0 0,-1 1,0 0,-1 z M 8,7 8,8 9,8 9,7 z M 7,7 6,7 6,8 7,8 z M 5,7 4,7 4,8 5,8 z M 4,7 4,6 3,6 3,7 z m 6,0 0,1 1,0 0,-1 z"
       id="rect3858"
       style="color:#000000;fill:#2f7f6f;fill-opacity:1;fill-rule:nonzero;stroke:none;stroke-width:5;marker:none;visibility:visible;display:inline;overflow:visible;enable-background:accumulate" />
    <path
       d="M 4,6 4,7 5,7 5,6 4,6 z M 5,7 5,8 6,8 6,7 5,7 z M 6,7 7,7 7,6 6,6 6,7 z M 7,7 7,8 8,8 8,7 7,7 z M 8,7 9,7 9,6 8,6 8,7 z M 9,7 9,8 8,8 8,10 9,10 9,9 10,9 10,7 9,7 z M 4,7 3,7 3,8 4,8 4,7 z"
       id="rect3881"
       style="color:#000000;fill:#ccff00;fill-opacity:1;fill-rule:nonzero;stroke:none;stroke-width:5;marker:none;visibility:visible;display:inline;overflow:visible;enable-background:accumulate" />
  </g>
</svg>
