<?xml version="1.0" encoding="UTF-8" standalone="no"?>
<svg
   xmlns:dc="http://purl.org/dc/elements/1.1/"
   xmlns:cc="http://creativecommons.org/ns#"
   xmlns:rdf="http://www.w3.org/1999/02/22-rdf-syntax-ns#"
   xmlns:svg="http://www.w3.org/2000/svg"
   xmlns="http://www.w3.org/2000/svg"
   width="282"
   height="123"
   viewBox="0 0 74.612498 32.543751"
   version="1.1"
   id="svg8">
  <defs
     id="defs2" />
  <metadata
     id="metadata5">
    <rdf:RDF>
      <cc:Work
         rdf:about="">
        <dc:format>image/svg+xml</dc:format>
        <dc:type
           rdf:resource="http://purl.org/dc/dcmitype/StillImage" />
        <dc:title></dc:title>
      </cc:Work>
    </rdf:RDF>
  </metadata>
  <g
     id="layer2"
     style="display:inline"
     transform="translate(-2.38125,-18.25625)">
    <path
       id="path856"
       style="fill:#0f0f0f;fill-opacity:1;stroke:none;stroke-width:1.00157"
       d="m 39,105 v 9 h 3 l 3,3 3,-3 -1,-3 1,-3 v -3 z m 27,0 v 6 3 l 2,2 H 50 v 11 h 20 v -11 l 2,-2 2,-3 1,-3 v -3 z m 200,26 v 5 h 5 v -5 z m -225,3 v 17 h 11 v -17 z m 27,0 v 24 H 40 v -8 l -4,-3 h -9 v 3 h -3 v 3 h -3 v 3 h -3 v 3 h -3 v 9 l 2,1 -2,2 v 3 h -3 v 3 H 9 v 12 h 3 v 3 h 87 v -3 h 3 v -3 l -1,-1 H 39 l -9,-14 v -3 h 3 v -3 h 3 v 6 l 3,4 h 36 l 3,-4 v -6 l 2,-2 1,2 v 3 h 3 v 3 l 3,3 h 6 l 3,-3 3,-3 v -9 h -3 v -3 h -3 v -3 h -3 v -3 h -3 v -3 h -9 v -3 l -2,-2 2,-1 v -3 l -2,-4 z m -12,12 v 5 h 8 v -5 z m 180,3 v 5 h 5 v -5 z m 18,0 v 5 h 5 v -5 z m 12,0 v 5 h 5 v -5 z m -36,3 v 5 h 5 v -5 z m 12,0 v 5 h 5 v -5 z m 21,3 v 5 h 5 v -5 z m -36,3 v 5 h 5 v -5 z m 6,6 v 5 h 8 v -5 z m 9,0 v 8 h 8 v -8 z m 9,0 v 5 h 8 v -5 z m 15,0 v 5 h 5 v -5 z m -39,3 v 5 h 5 v -5 z m 39,3 v 5 h 5 v -5 z m -58,3 -1,1 h -6 v 15 h 3 v 3 h 12 v -3 h 3 v -15 l -1,-1 z m 37,0 v 5 h 5 v -5 z m 15,0 v 5 h 5 v -5 z m -27,3 v 5 h 5 v -5 z m 21,0 v 5 h 5 v -5 z m -122,1 v 6 h 3 v 3 l -2,2 -1,-2 h -3 v 3 h -3 v 3 h 54 v -3 h -3 v -3 h -3 v -6 l -4,-3 z"
       transform="scale(0.26458333)" />
  </g>
  <g
     id="layer3"
     style="display:inline"
     transform="translate(-2.38125,-18.25625)">
    <path
       id="path992"
       style="fill:#3e3e3e;fill-opacity:1;stroke:none;stroke-width:1.00157"
       d="m 144,69 v 3 h -3 v 3 h -3 v 9 h -3 v 12 h 3 v 3 h 3 v 3 h 3 l 2,-1 1,1 v 3 h 3 l 1,2 -1,1 v 9 h 3 v 3 h 3 v 3 h -3 v 6 l 9,3 h 3 v -6 h 3 v -15 h -3 v -3 h 3 v -9 h 3 v -3 h 3 V 84 h -3 v -3 h -3 v -3 h -3 v -3 h -9 v -3 h -3 v -3 z m -97,41 -2,1 v 3 l 4,1 -1,-4 z m 26,0 -1,1 v 3 h 3 v -3 z m 188,19 -1,1 v 9 h 12 l 1,-1 h 3 v -3 h -3 v -6 z m -7,2 v 5 h 5 v -5 z m 13,1 h 3 v 3 h -3 z m -226,2 1,4 h 3 v -3 z m 11,0 -4,1 v 3 h 3 z m 16,0 1,4 h 3 v -3 z m 8,0 -1,1 v 3 h 3 v -3 z m 151,12 v 5 l 4,2 h 3 v 3 l 1,1 h 7 l 1,-1 v -3 h 3 v 3 l 1,1 h 16 l 1,-1 h 3 v 3 h -3 l -1,1 v 13 l 1,1 v 3 h -3 v -3 l -1,-1 h -10 l -1,1 v 3 h -3 v -3 l -1,-1 h -12 l -2,-2 h -3 l -1,1 v 7 l 1,1 1,1 h 4 l 1,-1 v -3 h 3 v 3 l 1,1 h 12 l 2,2 h 3 v 3 l 3,1 3,-1 v -3 h 9 v -3 h 3 v -15 l -1,-1 -2,1 v 3 h -3 v -3 h 3 l 4,-5 -1,-4 v -9 l -1,-1 h -12 l -2,4 v 3 h -3 v -3 h 3 l 1,-4 h -23 l 1,4 h 3 v 3 h -3 v -3 l -2,-4 z m -185,1 -1,4 4,-1 v -3 z m 6,0 v 3 l 4,1 -1,-4 z m 21,0 -1,4 4,-1 v -3 z m 6,0 v 3 l 1,1 2,-1 v -3 z m 192,3 h 3 v 3 h -3 z m -224,5 -4,1 v 6 h 3 v -3 z m -4,7 h -3 v 3 h 3 z m 188,-7 1,4 h 3 l 1,-1 -1,-2 z m -149,1 v 9 h 3 v -9 z m 150,6 -1,3 1,3 h 3 l 1,-3 -1,-3 z m -7,2 -3,6 1,4 h 3 v -3 h 4 v -7 z m -200,7 -1,4 4,2 h 3 l 1,-4 -4,-2 z m 15,0 -1,4 4,-1 v -3 z m 39,0 v 3 l 4,1 -1,-4 z m 192,0 h 3 v 3 h -3 z m -215,2 -4,1 h -3 l -1,4 6,3 h 5 v -5 z m 15,0 -4,1 h -3 l -1,4 6,3 h 5 v -5 z m 188,4 h 3 v 3 l -2,2 -1,-2 z m -231,3 -1,2 1,1 h 3 l 1,-1 -1,-2 z m 5,2 -2,4 h -3 v 3 h 75 v -3 h 3 v -3 l -1,-1 z m 129,0 1,4 h 3 v 3 h 3 v -3 l -2,-4 z m 82,0 -3,1 v 3 l 3,1 3,-1 v -3 z m -97,3 -2,1 h -3 v 3 h 6 v -3 z m 10,0 -3,1 v 3 h 6 v -3 z m -21,1 v 3 h 3 v -3 z m 36,0 v 3 h 6 v -3 z"
       transform="scale(0.26458333)" />
  </g>
  <g
     id="layer4"
     style="display:inline"
     transform="translate(-2.38125,-18.25625)">
    <path
       id="path1069"
       style="fill:#717171;fill-opacity:1;stroke:none;stroke-width:1.00157"
       d="m 144,75 v 3 h -3 v 3 h 9 v -3 h 3 v -3 z m 12,6 v 3 h -3 v 3 h -3 v -3 h -6 v 3 h -3 v 3 h -3 v 6 h 3 v 3 h 3 v 3 h 6 v 6 h 3 v -3 h 9 v 3 h 3 v -6 h -3 v -3 h -6 v 3 h -3 v -3 h 3 v -3 h 3 v -3 h -6 v 3 h -3 v 3 h -3 v -6 h 3 v -3 h 12 v 3 h 3 v 6 h 3 v -3 h 3 v -6 h -3 v -6 h -3 v -3 z m 0,30 v 3 h -3 v 3 h 3 v 3 h 9 v -6 h -3 v -3 z m 0,15 v 3 h -3 v 12 h 3 v -3 h 3 v -3 h 3 v -9 z m 69,3 v 6 h -3 v 3 h 3 l 1,1 h 37 l 1,-1 v -3 h -3 v -6 z m 30,3 h 3 v 3 h -3 z m -215,14 -4,1 v 3 h 3 l 1,1 -1,2 v 3 h 3 v 3 h 3 l 1,-4 -3,-3 h -2 z m 186,0 -1,1 v 15 h -6 v 3 h -9 v 3 h -3 v 6 h 12 v -3 h 3 v -6 h 3 v 15 h 3 v -24 l 1,-3 -1,-3 v -3 z m 2,34 v 3 h 24 v -3 z m 7,-34 -1,1 v 3 h 3 v -3 z m 15,0 -1,1 v 3 h 3 v -3 z m 9,0 -1,1 v 3 h 3 v -3 z m 23,4 v 3 h -6 v 3 h -3 v 3 h -3 v 6 h 12 v -3 h 6 v -3 h 3 v -9 z m -208,2 1,4 h 3 v -3 z m 18,6 -2,1 v 3 h 3 l 1,-2 -1,-1 z m -62,1 v 3 l 2,1 1,-1 1,-1 -1,-2 z m -3,12 -1,2 1,1 v 12 h 3 v -3 h 6 v 3 h 3 v -3 h 3 v 3 h 3 v -3 h 3 v 3 h 9 v -3 h 6 v 3 h 3 v -3 h 3 v 3 h 6 v -3 h 3 v 3 h 3 v -3 h 3 v 3 h 6 v -3 h 6 v 3 h 3 v -3 h 3 v -6 h -3 v -3 h -3 v -3 H 78 v 3 h -6 v -3 h -3 l -1,4 2,1 -1,4 h -3 v -3 h -6 v -3 h -3 v -3 h -3 l -1,4 2,1 -1,4 h -3 v -3 h -6 v -3 h -9 v -3 z m -7,2 -2,1 h -3 v 3 h -3 v 3 l 1,1 v 4 l -1,1 v 3 h 3 l 1,-1 h 4 v -3 l 1,1 h 3 v -12 h -3 z m 125,0 -4,1 h -6 v 6 h 3 v 3 h 3 v 3 h 18 v -3 l 2,-1 1,1 v 3 h 6 v -3 h 3 v -3 h 3 v -3 h -3 v -3 h -3 l -4,-1 -4,6 -15,-1 z m 60,6 -1,1 v 3 h 3 v -3 z m 50,1 v 3 h 3 v -3 z m -51,6 v 3 h 3 v -3 z m 33,0 v 3 h 3 v 3 h 3 v -6 z m 18,0 v 3 h 3 v 3 h 3 v -6 z"
       transform="scale(0.26458333)" />
  </g>
  <g
     id="layer5"
     style="display:inline"
     transform="translate(-2.38125,-18.25625)">
    <path
       id="path1118"
       style="fill:#b2b2b2;fill-opacity:1;stroke:none;stroke-width:1.00157"
       d="m 51,108 v 3 l 4,1 -1,-4 z m -9,6 v 3 h -3 v 6 h -3 v 24 h 3 v 6 h 3 v 3 h 3 v 3 h 6 l 1,-4 h -6 v -3 h -3 l -1,-2 v -6 l 1,-2 -1,-1 v -6 l 1,-1 v -13 h 3 v -6 l -1,-1 z m 198,18 v 3 h 3 v -3 z m -9,6 -1,1 v 3 h 42 v 4 l 1,1 h 3 v -6 h -3 v -3 h -36 l -1,1 -2,-1 z m -4,5 1,4 h 3 l 1,-4 z m 9,0 1,4 h 3 l 1,-4 z m 9,0 1,4 h 3 l 1,-4 z m 9,0 1,4 h 3 l 1,-4 z m 9,0 1,4 h 3 l 1,-4 z m -110,1 v 3 h -3 v 3 h -3 v 6 h 3 v 3 h -3 v 3 h -3 v 3 h -3 v 9 h 3 v 3 h -3 v 3 h 6 v 3 h 9 v -3 h 3 v 3 h 6 v -3 h 3 v -3 h -3 v -3 h 3 v -15 h -3 v -3 h -3 v -3 h -3 v -3 h -3 v -6 z m -78,6 -4,2 -3,3 1,4 h 3 v -3 h 3 v -3 h 3 v -3 z m 207,3 v 3 h 3 v -3 z m -51,3 v 3 l 2,1 v 3 h 5 v -5 h -3 l -1,-2 z m 30,0 -1,2 h -3 v 5 h 5 v -3 l 2,-1 v -3 z m -22,2 v 5 h 5 v -5 z m 6,0 v 5 h 5 v -5 z m 6,0 v 5 h 5 v -5 z m -178,3 -1,1 v 3 h 3 v -3 z m 128,1 v 6 h 3 v -6 z m 0,6 h -3 v 3 h 3 z m -3,3 h -6 v 3 h 6 z m 0,-3 v -3 h -3 v 3 z m 15,0 -1,2 1,1 h 3 v -3 z m 22,2 -4,1 v 3 h 3 z m 25,0 1,4 h 3 v -3 z m -212,1 v 3 h 3 v 3 h 3 l 1,-2 -1,-1 -3,-3 z m 15,0 v 3 h 3 v 3 h 3 l 1,-2 -1,-1 -3,-3 z m -48,6 v 3 h 6 v -3 z m 0,3 h -3 v 6 h 3 z m 0,6 v 3 h 6 v -6 h -3 v 3 z"
       transform="scale(0.26458333)" />
  </g>
  <g
     id="layer6"
     style="display:inline"
     transform="translate(-2.38125,-18.25625)">
    <path
       id="path1171"
       style="fill:#d7d7d7;fill-opacity:1;stroke:none;stroke-width:1.00157"
       d="m 45,108 v 3 h 3 v -3 z m 3,3 v 3 h -3 v 6 h -3 v 15 h 9 v 6 l -1,1 1,2 v 6 h -9 v 3 h 3 v 3 h 6 v 3 h 18 v -3 h 3 v -3 h 3 v -3 h -6 v -6 l 1,-1 -1,-2 v -6 h 9 v -12 h -3 v -6 h -3 v -3 h -3 v -3 h -6 v -3 h -9 v 3 z m 24,-3 v 3 h 3 v -3 z m -15,9 h 6 v 3 h -6 z m -6,3 h 3 v 6 h -3 z m 15,0 h 3 v 6 h -3 z m -9,3 h 6 v 3 h -6 z m 171,9 v 3 h 3 v -3 z m -3,6 v 3 h -3 v 6 h 6 v -3 h 3 v 3 h 6 v -3 h 3 v 3 h 6 v -3 h 3 v 3 h 6 v -3 h 3 v 3 h 6 v -3 h 3 v 3 h 6 v -6 h -36 v -3 h -3 v 3 h -3 v -3 z m -179,2 -1,1 -1,2 1,1 2,1 1,-1 1,-2 -1,-1 z m 26,1 -1,2 1,1 h 3 l 1,-1 -1,-2 z m -15,6 h 6 v 3 h -6 z m 171,3 v 6 h 3 v -6 z m -195,6 v 6 h 3 v -6 z m 0,6 h -3 v 3 h 3 z m 57,-6 v 3 h 3 v -3 z m 3,3 v 6 h 3 v -6 z m 141,-3 v 3 h 3 v 3 h -3 v -3 h -3 v 12 h 3 v 3 h 27 v -3 h 3 v -12 h -3 v 3 h -3 v -3 h 3 v -3 z m 45,0 v 3 h 3 v -3 z m -207,3 v 3 h 3 v -3 z m 168,0 h 3 v 3 h -3 z m 6,0 h 3 v 3 h -3 z m 6,0 h 3 v 3 h -3 z m -97,5 v 3 h -3 v 8 h 6 l 1,-1 1,-1 v -9 z m 79,1 h 6 v 3 h -6 z m 9,0 h 6 v 6 h -6 z m 9,0 h 6 v 3 h -6 z m -42,3 v 3 h 3 v -3 z m -159,3 v 3 h 3 v -3 z m 3,3 v 6 h 3 v -6 z m 12,-3 v 3 h 3 v -3 z m 3,3 v 6 h 3 v -6 z"
       transform="scale(0.26458333)" />
  </g>
  <g
     id="layer7"
     style="display:inline"
     transform="translate(-2.38125,-18.25625)">
    <path
       transform="matrix(0.26458333,0,0,0.26458333,2.38125,18.25625)"
       d="m 225,63 v 3 h 3 V 63 Z M 36,69 v 3 h 3 v -3 z m 3,3 v 3 h 3 v -3 z m 0,3 h -3 v 3 h 3 z m -3,0 v -3 h -3 v 3 z m 24,-3 v 3 h 3 v -3 z m 6,0 v 3 h 3 V 72 Z M 6,99 v 3 h 3 v -3 z m 3,3 v 3 h 3 v -3 z m 78,-3 v 3 h 3 v -3 z m -72,3 v 3 h 3 v -3 z m 180,6 v 3 h 3 v -3 z"
       style="fill:#ccff00;fill-opacity:1;stroke:none;stroke-width:1.00157"
       id="path869" />
  </g>
  <g
     id="layer1">
    <path
       id="path854"
       transform="matrix(0.26458333,0,0,0.26458333,-2.38125,-18.25625)"
       d="m 210,138 v 9 h -3 v 6 h 6 v -9 h 3 v -3 h -3 v -3 z"
       style="display:inline;fill:#2f7f6f;fill-opacity:1;stroke:none;stroke-width:1.00157" />
  </g>
  <g
     id="layer8"
     style="display:inline"
     transform="translate(-2.38125,-18.25625)">
    <path
       style="fill:#ccff00;fill-opacity:1;stroke:none;stroke-width:0.264999"
       d="m 42.068749,46.037499 v 0.79375 H 39.6875 v -0.79375 h -0.79375 v -2.38125 h 0.79375 v -0.79375 h 0.793749 v -2.38125 h 0.79375 v 0.79375 h 0.79375 v 0.79375 h 0.79375 v 0.79375 h 0.79375 v 2.38125 h -0.79375 v 0.79375 h -0.79375 v -2.38125 h -0.79375 v 0.79375 h -0.79375 v 1.5875 z"
       id="path1364" />
  </g>
</svg>
