<?xml version="1.0" encoding="UTF-8" standalone="no"?>
<svg
   xmlns:dc="http://purl.org/dc/elements/1.1/"
   xmlns:cc="http://creativecommons.org/ns#"
   xmlns:rdf="http://www.w3.org/1999/02/22-rdf-syntax-ns#"
   xmlns:svg="http://www.w3.org/2000/svg"
   xmlns="http://www.w3.org/2000/svg"
   version="1.1"
   id="svg3870"
   height="16px"
   width="16px">
  <defs
     id="defs3872" />
  <metadata
     id="metadata3875">
    <rdf:RDF>
      <cc:Work
         rdf:about="">
        <dc:format>image/svg+xml</dc:format>
        <dc:type
           rdf:resource="http://purl.org/dc/dcmitype/StillImage" />
        <dc:title></dc:title>
        <dc:creator>
          <cc:Agent>
            <dc:title>T. Gantt</dc:title>
          </cc:Agent>
        </dc:creator>
      </cc:Work>
    </rdf:RDF>
  </metadata>
  <g
     style="display:inline;opacity:1"
     id="layer2">
    <path
       id="rect815"
       d="M 2,1 C 1.446,1 1,1.446 1,2 v 12 c 0,0.554 0.446,1 1,1 h 12 c 0.554,0 1,-0.446 1,-1 V 2 C 15,1.446 14.554,1 14,1 Z m 2.5,4 h 1 C 5.777,5 6,5.223 6,5.5 v 1 C 6,6.777 5.777,7 5.5,7 h -1 C 4.223,7 4,6.777 4,6.5 v -1 C 4,5.223 4.223,5 4.5,5 Z m 6,0 h 1 C 11.777,5 12,5.223 12,5.5 v 1 C 12,6.777 11.777,7 11.5,7 h -1 C 10.223,7 10,6.777 10,6.5 v -1 C 10,5.223 10.223,5 10.5,5 Z M 4.375,8 h 7.25 C 11.83275,8 12,8.16725 12,8.375 V 11 c 0,0.554 -0.446,1 -1,1 H 5 C 4.446,12 4,11.554 4,11 V 8.375 C 4,8.16725 4.16725,8 4.375,8 Z M 5,9 v 1 h 6 V 9 Z"
       style="color:#000000;display:inline;overflow:visible;visibility:visible;opacity:1;vector-effect:none;fill:#000000;fill-opacity:1;fill-rule:nonzero;stroke:none;stroke-width:41.71699905;stroke-linecap:round;stroke-linejoin:round;stroke-miterlimit:4;stroke-dasharray:none;stroke-dashoffset:0;stroke-opacity:1;marker:none;enable-background:accumulate" />
  </g>
</svg>
