<?xml version="1.0" encoding="UTF-8" standalone="no"?>
<svg
   xmlns:dc="http://purl.org/dc/elements/1.1/"
   xmlns:cc="http://creativecommons.org/ns#"
   xmlns:rdf="http://www.w3.org/1999/02/22-rdf-syntax-ns#"
   xmlns:svg="http://www.w3.org/2000/svg"
   xmlns="http://www.w3.org/2000/svg"
   version="1.1"
   id="svg3870"
   height="16px"
   width="16px">
  <defs
     id="defs3872" />
  <metadata
     id="metadata3875">
    <rdf:RDF>
      <cc:Work
         rdf:about="">
        <dc:format>image/svg+xml</dc:format>
        <dc:type
           rdf:resource="http://purl.org/dc/dcmitype/StillImage" />
        <dc:title></dc:title>
        <dc:creator>
          <cc:Agent>
            <dc:title>T. Gantt</dc:title>
          </cc:Agent>
        </dc:creator>
      </cc:Work>
    </rdf:RDF>
  </metadata>
  <g
     style="opacity:1"
     id="layer2">
    <path
       id="rect815"
       d="M 1,0 C 0.446,0 0,0.446 0,1 v 12 c 0,0.554 0.446,1 1,1 h 5 l 2,2 2,-2 h 5 c 0.554,0 1,-0.446 1,-1 V 1 C 16,0.446 15.554,0 15,0 Z m 1.5,2 h 11 C 13.777,2 14,2.223 14,2.5 v 9 C 14,11.777 13.777,12 13.5,12 H 9 L 8,13 7,12 H 2.5 C 2.223,12 2,11.777 2,11.5 v -9 C 2,2.223 2.223,2 2.5,2 Z M 7.25,4 C 7.1115,4 7,4.1115 7,4.25 V 6 H 5.25 C 5.1115,6 5,6.1115 5,6.25 v 1.5 C 5,7.8885 5.1115,8 5.25,8 H 7 V 9.75 C 7,9.8885 7.1115,10 7.25,10 h 1.5 C 8.8885,10 9,9.8885 9,9.75 V 8 h 1.75 C 10.8885,8 11,7.8885 11,7.75 V 6.25 C 11,6.1115 10.8885,6 10.75,6 H 9 V 4.25 C 9,4.1115 8.8885,4 8.75,4 Z"
       style="color:#000000;display:inline;overflow:visible;visibility:visible;opacity:1;vector-effect:none;fill:#000000;fill-opacity:1;fill-rule:nonzero;stroke:none;stroke-width:41.71699905;stroke-linecap:round;stroke-linejoin:round;stroke-miterlimit:4;stroke-dasharray:none;stroke-dashoffset:0;stroke-opacity:1;marker:none;enable-background:accumulate" />
  </g>
</svg>
