<?xml version="1.0" encoding="UTF-8" standalone="no"?>
<svg
   xmlns:dc="http://purl.org/dc/elements/1.1/"
   xmlns:cc="http://creativecommons.org/ns#"
   xmlns:rdf="http://www.w3.org/1999/02/22-rdf-syntax-ns#"
   xmlns:svg="http://www.w3.org/2000/svg"
   xmlns="http://www.w3.org/2000/svg"
   version="1.1"
   id="svg3870"
   height="16px"
   width="16px">
  <defs
     id="defs3872" />
  <metadata
     id="metadata3875">
    <rdf:RDF>
      <cc:Work
         rdf:about="">
        <dc:format>image/svg+xml</dc:format>
        <dc:type
           rdf:resource="http://purl.org/dc/dcmitype/StillImage" />
        <dc:title></dc:title>
        <dc:creator>
          <cc:Agent>
            <dc:title>T. Gantt</dc:title>
          </cc:Agent>
        </dc:creator>
      </cc:Work>
    </rdf:RDF>
  </metadata>
  <g
     style="display:inline;opacity:1"
     id="layer2">
    <path
       id="rect815"
       d="M 2,1 C 1.446,1 1,1.446 1,2 v 12 c 0,0.554 0.446,1 1,1 h 12 c 0.554,0 1,-0.446 1,-1 V 2 C 15,1.446 14.554,1 14,1 Z m 1.5,2 h 9 C 12.777,3 13,3.223 13,3.5 v 9 c 0,0.277 -0.223,0.5 -0.5,0.5 h -9 C 3.223,13 3,12.777 3,12.5 v -9 C 3,3.223 3.223,3 3.5,3 Z M 7.25,5 C 7.1115,5 7,5.1115 7,5.25 V 7 H 5.25 C 5.1115,7 5,7.1115 5,7.25 v 1.5 C 5,8.8885 5.1115,9 5.25,9 H 7 v 1.75 C 7,10.8885 7.1115,11 7.25,11 h 1.5 C 8.8885,11 9,10.8885 9,10.75 V 9 h 1.75 C 10.8885,9 11,8.8885 11,8.75 V 7.25 C 11,7.1115 10.8885,7 10.75,7 H 9 V 5.25 C 9,5.1115 8.8885,5 8.75,5 Z"
       style="color:#000000;display:inline;overflow:visible;visibility:visible;opacity:1;vector-effect:none;fill:#000000;fill-opacity:1;fill-rule:nonzero;stroke:none;stroke-width:41.71699905;stroke-linecap:round;stroke-linejoin:round;stroke-miterlimit:4;stroke-dasharray:none;stroke-dashoffset:0;stroke-opacity:1;marker:none;enable-background:accumulate" />
  </g>
</svg>
