<?xml version="1.0" encoding="UTF-8" standalone="no"?>
<svg
   xmlns:dc="http://purl.org/dc/elements/1.1/"
   xmlns:cc="http://creativecommons.org/ns#"
   xmlns:rdf="http://www.w3.org/1999/02/22-rdf-syntax-ns#"
   xmlns:svg="http://www.w3.org/2000/svg"
   xmlns="http://www.w3.org/2000/svg"
   xml:space="preserve"
   id="svg5"
   version="1.1"
   viewBox="0 0 16 16"
   height="16"
   width="16"><metadata
     id="metadata12"><rdf:RDF><cc:Work
         rdf:about=""><dc:format>image/svg+xml</dc:format><dc:type
           rdf:resource="http://purl.org/dc/dcmitype/StillImage" /><dc:title></dc:title></cc:Work></rdf:RDF></metadata><defs
     id="defs2" /><g
     style="fill:#000000;stroke:none"
     id="layer1"><path
       d="M 5.4785155,0 C 5.3984747,-2.5623762e-4 5.3179038,0.01983005 5.2421874,0.06054687 4.9998947,0.19084078 4.9087684,0.49012922 5.0390624,0.73242188 L 5.5898437,1.7558594 C 4.3513004,2.5461454 3.5271794,3.9270249 3.5136718,5.5019531 H 12.486328 C 12.47282,3.9270249 11.6487,2.5461454 10.410156,1.7558594 L 10.960938,0.73242188 C 11.09123,0.49012922 11.000106,0.19084078 10.757812,0.06054687 10.515521,-0.06974702 10.21623,0.01942609 10.085938,0.26171875 L 9.517578,1.3183594 C 9.043426,1.1479358 8.5328318,1.0546875 7.9999999,1.0546875 c -0.5328318,0 -1.043426,0.093248 -1.5175781,0.2636719 L 5.9140624,0.26171875 C 5.8244854,0.09514256 5.6546055,5.6372279e-4 5.4785155,0 Z m 1.0351563,3.0273438 a 0.5,0.5 0 0 1 0.5,0.5 0.5,0.5 0 0 1 -0.5,0.5 0.5,0.5 0 0 1 -0.5,-0.5 0.5,0.5 0 0 1 0.5,-0.5 z m 2.9726562,0 a 0.5,0.5 0 0 1 0.5,0.5 0.5,0.5 0 0 1 -0.5,0.5 0.5,0.5 0 0 1 -0.5,-0.5 0.5,0.5 0 0 1 0.5,-0.5 z M 2.033203,6.0019531 c -0.5616286,0 -1.015625,0.4520433 -1.015625,1.0136719 v 3.947266 c 0,0.561627 0.4539964,1.013672 1.015625,1.013671 0.5616288,0 1.0136719,-0.452044 1.0136719,-1.013671 V 7.015625 c 0,-0.5616286 -0.4520431,-1.0136719 -1.0136719,-1.0136719 z m 1.4785157,0 v 5.4882809 a 1.486328,1.486328 0 0 0 1.4863281,1.486328 v 2.009766 C 4.9980468,15.547958 5.4500899,16 6.0117187,16 6.5733472,16 7.0253905,15.547958 7.0253905,14.986328 v -2.009766 h 1.9492189 v 2.009766 C 8.9746094,15.547958 9.4266527,16 9.9882811,16 10.549911,16 11.001953,15.547958 11.001953,14.986328 v -2.009766 a 1.486328,1.486328 0 0 0 1.486328,-1.486328 V 6.0019531 Z m 10.4550783,0 c -0.56163,0 -1.013672,0.4520433 -1.013672,1.0136719 v 3.947266 c 0,0.561627 0.452042,1.013672 1.013672,1.013671 0.561628,0 1.015625,-0.452044 1.015625,-1.013671 V 7.015625 c 0,-0.5616286 -0.453997,-1.0136719 -1.015625,-1.0136719 z"
       style="opacity:1;fill:#000000;stroke-width:9.99995041;stroke-linecap:round;stroke-linejoin:round"
       id="rect914" /></g></svg>