<?xml version="1.0" encoding="UTF-8" standalone="no"?>
<svg
   xmlns:dc="http://purl.org/dc/elements/1.1/"
   xmlns:cc="http://creativecommons.org/ns#"
   xmlns:rdf="http://www.w3.org/1999/02/22-rdf-syntax-ns#"
   xmlns:svg="http://www.w3.org/2000/svg"
   xmlns="http://www.w3.org/2000/svg"
   version="1.1"
   id="svg2985"
   height="16px"
   width="16px">
  <defs
     id="defs2987" />
  <metadata
     id="metadata2990">
    <rdf:RDF>
      <cc:Work
         rdf:about="">
        <dc:format>image/svg+xml</dc:format>
        <dc:type
           rdf:resource="http://purl.org/dc/dcmitype/StillImage" />
        <dc:title></dc:title>
        <dc:creator>
          <cc:Agent>
            <dc:title>T. Gantt</dc:title>
          </cc:Agent>
        </dc:creator>
      </cc:Work>
    </rdf:RDF>
  </metadata>
  <g
     style="display:inline;opacity:1"
     id="layer2">
    <path
       id="rect821"
       d="M 7.9980469,2 C 7.7422441,2.0001432 7.487135,2.0992225 7.2910156,2.2949219 L 2.2929688,7.2832031 C 2.0938184,7.481927 1.9970696,7.7408162 2,8 1.99706,8.2592033 2.0938028,8.5180579 2.2929688,8.7167969 l 4.9980468,4.9902341 c 0.3922387,0.391399 1.0222639,0.39096 1.4140625,0 0.3917988,-0.390959 0.3922387,-1.02071 0,-1.412109 L 5.4042969,9 H 13 C 13.554,9 14,8.554 14,8 14,7.446 13.554,7 13,7 H 5.4042969 L 8.7050781,3.7050781 c 0.3922387,-0.3913987 0.3917988,-1.0211497 0,-1.4121093 C 8.5091789,2.0974888 8.2538497,1.9998568 7.9980469,2 Z"
       style="color:#000000;display:inline;overflow:visible;visibility:visible;opacity:1;vector-effect:none;fill:#000000;fill-opacity:1;fill-rule:nonzero;stroke:none;stroke-width:1.00000072;stroke-linecap:round;stroke-linejoin:round;stroke-miterlimit:4;stroke-dasharray:none;stroke-dashoffset:0;stroke-opacity:1;marker:none;paint-order:normal;enable-background:accumulate" />
  </g>
</svg>
