<?xml version="1.0" encoding="UTF-8" standalone="no"?>
<svg
   xmlns:dc="http://purl.org/dc/elements/1.1/"
   xmlns:cc="http://creativecommons.org/ns#"
   xmlns:rdf="http://www.w3.org/1999/02/22-rdf-syntax-ns#"
   xmlns:svg="http://www.w3.org/2000/svg"
   xmlns="http://www.w3.org/2000/svg"
   version="1.1"
   id="svg2985"
   height="16px"
   width="16px">
  <defs
     id="defs2987" />
  <metadata
     id="metadata2990">
    <rdf:RDF>
      <cc:Work
         rdf:about="">
        <dc:format>image/svg+xml</dc:format>
        <dc:type
           rdf:resource="http://purl.org/dc/dcmitype/StillImage" />
        <dc:title></dc:title>
        <dc:creator>
          <cc:Agent>
            <dc:title>T. Gantt</dc:title>
          </cc:Agent>
        </dc:creator>
      </cc:Work>
    </rdf:RDF>
  </metadata>
  <g
     id="g923"
     style="display:inline;opacity:1">
    <path
       id="circle901"
       d="M 8,0 C 3.581722,0 0,3.581722 0,8 c 0,4.418278 3.581722,8 8,8 1.9450099,-0.0025 3.822493,-0.713494 5.28125,-2 H 8 C 4.6862915,14 2,11.313708 2,8 2,4.6862915 4.6862915,2 8,2 11.313708,2 14,4.6862915 14,8 13.9987,8.9424756 13.347276,9.7961187 12.417969,9.953125 12.31755,9.970091 12.230021,9.893898 12.167969,9.8320312 12.000302,9.6648648 12,9.3313802 12,8.9980469 V 4.25 C 12,4.1115 11.8885,4 11.75,4 h -1.5 C 10.1115,4 10,4.1115 10,4.25 V 4.5410156 C 9.3924193,4.1881535 8.702612,4.0015552 8,4 5.790861,4 4,5.790861 4,8 4,10.209139 5.790861,12 8,12 8.8567962,11.9971 9.690011,11.719104 10.376953,11.207031 10.642407,11.697447 11.115792,12 12,12 14.209139,12 16,10.209139 16,8 16,3.581722 12.418278,0 8,0 Z m 0,6 c 1.1045695,0 2,0.8954305 2,2 0,1.1045695 -0.8954305,2 -2,2 C 6.8954305,10 6,9.1045695 6,8 6,6.8954305 6.8954305,6 8,6 Z"
       style="color:#000000;display:inline;overflow:visible;visibility:visible;opacity:1;vector-effect:none;fill:#000000;fill-opacity:1;fill-rule:nonzero;stroke:none;stroke-width:41.71699905;stroke-linecap:round;stroke-linejoin:round;stroke-miterlimit:4;stroke-dasharray:none;stroke-dashoffset:0;stroke-opacity:1;marker:none;enable-background:accumulate" />
  </g>
</svg>
