<?xml version="1.0" encoding="UTF-8" standalone="no"?>
<svg
   xmlns:dc="http://purl.org/dc/elements/1.1/"
   xmlns:cc="http://creativecommons.org/ns#"
   xmlns:rdf="http://www.w3.org/1999/02/22-rdf-syntax-ns#"
   xmlns:svg="http://www.w3.org/2000/svg"
   xmlns="http://www.w3.org/2000/svg"
   version="1.1"
   id="svg2985"
   height="16px"
   width="16px">
  <defs
     id="defs2987" />
  <metadata
     id="metadata2990">
    <rdf:RDF>
      <cc:Work
         rdf:about="">
        <dc:format>image/svg+xml</dc:format>
        <dc:type
           rdf:resource="http://purl.org/dc/dcmitype/StillImage" />
        <dc:title></dc:title>
        <dc:creator>
          <cc:Agent>
            <dc:title>T. Gantt</dc:title>
          </cc:Agent>
        </dc:creator>
      </cc:Work>
    </rdf:RDF>
  </metadata>
  <g
     id="layer2">
    <path
       d="M 7.3080416,3.0097658 C 7.1384337,2.8573729 5.168723,4.5326832 3.6107759,6.0000002 h -1.84375 c -0.1385,0 -0.25,0.1115 -0.25,0.25 v 3.5 c 0,0.1385 0.1115,0.2499998 0.25,0.2499998 h 1.84375 c 1.5579471,1.467317 3.5276578,3.142627 3.6972657,2.990234 0.277712,-0.249525 0.277712,-9.7309434 0,-9.9804682 z m 2.1660156,2.0078125 c -0.063835,0 -0.1268678,0.023351 -0.1757813,0.072266 l -0.7089843,0.708984 c -0.097827,0.097829 -0.097827,0.2537333 0,0.3515625 L 10.438901,8.0000002 8.5892916,9.8496096 c -0.097827,0.097829 -0.097827,0.2537334 0,0.3515624 l 0.7089843,0.708984 c 0.097827,0.09783 0.2556886,0.09783 0.3535157,0 l 1.8476564,-1.8496089 1.849609,1.8496089 c 0.09783,0.09783 0.253736,0.09783 0.351563,0 l 0.708984,-0.708984 c 0.09783,-0.09783 0.09783,-0.2537332 0,-0.3515624 L 12.559995,8.0000002 14.409604,6.1503908 c 0.09783,-0.097829 0.09783,-0.2537333 0,-0.3515625 L 13.70062,5.089844 c -0.09783,-0.097829 -0.253736,-0.097829 -0.351563,0 L 11.499448,6.9394533 9.6517916,5.089844 C 9.6028779,5.0409293 9.537892,5.0175783 9.4740572,5.0175783 Z"
       style="color:#000000;display:inline;overflow:visible;visibility:visible;opacity:1;vector-effect:none;fill:#000000;fill-opacity:1;fill-rule:nonzero;stroke:none;stroke-width:0.769878;stroke-linecap:round;stroke-linejoin:round;stroke-miterlimit:4;stroke-dasharray:none;stroke-dashoffset:0;stroke-opacity:1;marker:none;paint-order:normal;enable-background:accumulate"
       id="path819" />
  </g>
</svg>
