<?xml version="1.0" encoding="UTF-8" standalone="no"?>
<!-- Created with Inkscape (http://www.inkscape.org/) -->

<svg
   width="16.0px"
   height="16.0px"
   viewBox="0 0 16.0 16.0"
   version="1.1"
   id="SVGRoot"
   xmlns="http://www.w3.org/2000/svg"
   xmlns:svg="http://www.w3.org/2000/svg">
  <defs
     id="defs132" />
  <g
     id="layer1">
    <path
       id="rect421"
       style="fill:#000000;stroke-width:1.5;stop-color:#000000"
       d="M 8,1 C 6.6582921,1 5.5546875,2.1036046 5.5546875,3.4453125 V 4 H 4 A 1,1 0 0 0 3,5 V 5.9179688 L 4.2441406,7.4121094 C 4.5549992,7.7851396 5.0144234,8 5.5,8 H 7.25 V 7.75 C 7.25,7.3345008 7.5845008,7 8,7 8.4154992,7 8.75,7.3345008 8.75,7.75 V 8 h 1.75 c 0.485577,-1e-7 0.945002,-0.2148605 1.255859,-0.5878906 L 13,5.9179688 V 5 A 1,1 0 0 0 12,4 H 10.445312 V 3.4453125 C 10.445312,2.1036046 9.3417079,1 8,1 Z m 0,1.5 c 0.5366508,0 0.9453125,0.4086617 0.9453125,0.9453125 V 4 H 7.0546875 V 3.4453125 C 7.0546875,2.9086617 7.4633492,2.5 8,2.5 Z M 3,7.4804688 V 13 a 2,2 0 0 0 2,2 h 6 a 2,2 0 0 0 2,-2 V 7.4804688 L 12.523438,8.0527344 C 12.023008,8.6532484 11.281694,8.9999998 10.5,9 H 8.75 V 9.25 C 8.75,9.6654992 8.4154992,10 8,10 7.5845008,10 7.25,9.6654992 7.25,9.25 V 9 H 5.5 C 4.7183058,9 3.9769909,8.6532485 3.4765625,8.0527344 Z" />
  </g>
</svg>
