<?xml version="1.0" encoding="UTF-8" standalone="no"?>
<svg
   xmlns:dc="http://purl.org/dc/elements/1.1/"
   xmlns:cc="http://creativecommons.org/ns#"
   xmlns:rdf="http://www.w3.org/1999/02/22-rdf-syntax-ns#"
   xmlns:svg="http://www.w3.org/2000/svg"
   xmlns="http://www.w3.org/2000/svg"
   id="SVGRoot"
   version="1.1"
   viewBox="0 0 16 16"
   height="16px"
   width="16px">
  <defs
     id="defs10" />
  <metadata
     id="metadata13">
    <rdf:RDF>
      <cc:Work
         rdf:about="">
        <dc:format>image/svg+xml</dc:format>
        <dc:type
           rdf:resource="http://purl.org/dc/dcmitype/StillImage" />
        <dc:title></dc:title>
      </cc:Work>
    </rdf:RDF>
  </metadata>
  <g
     style="display:inline"
     id="layer1">
    <path
       id="path832-6"
       d="M 7.9999985,0 C 6.9044722,0 6.0002899,0.90431401 6.0002899,2 c 0,0.1363312 0.033443,0.2637119 0.060538,0.3925781 C 4.2655885,3.1518399 3.0007269,4.9309199 3.0007269,7 v 3.523438 L 2.1258544,11.833984 A 0.74985436,0.750075 0 0 0 2.7507633,13 H 5.570665 c -0.03593,0.162727 -0.070302,0.326709 -0.070302,0.5 0,1.371828 1.1280074,2.5 2.4996358,2.5 1.3716285,0 2.4996372,-1.128172 2.4996372,-2.5 0,-0.173291 -0.03438,-0.337273 -0.0703,-0.5 h 2.819901 a 0.74985436,0.750075 0 0 0 0.624909,-1.166016 L 12.999273,10.523438 V 7 c 0,-2.0690801 -1.264861,-3.8481601 -3.0601014,-4.6074219 C 9.9662644,2.2637119 9.9997075,2.1363312 9.9997075,2 c 0,-1.09568599 -0.9041826,-2 -1.999709,-2 z m 0,1.5 c 0.2849844,0 0.4999272,0.2149741 0.4999272,0.5 0,0.00903 -0.00348,0.016507 -0.00391,0.025391 C 8.3325572,2.0091816 8.1676533,2 7.9999985,2 7.8323437,2 7.66744,2.0091816 7.503977,2.0253906 7.5035503,2.0165071 7.5000714,2.0090287 7.5000714,2 c 0,-0.2850259 0.2149428,-0.5 0.4999271,-0.5 z m 0,2 c 1.9513987,0 3.4994905,1.5480271 3.4994905,3.5 v 3.75 a 0.74985436,0.750075 0 0 0 0.124982,0.416016 L 11.847094,11.5 H 4.1529028 L 4.3755266,11.166016 A 0.74985436,0.750075 0 0 0 4.5005084,10.75 V 7 c 0,-1.9519729 1.5480913,-3.5 3.4994901,-3.5 z M 7.1485601,13 H 8.851437 c 0.086124,0.148356 0.1484159,0.312545 0.1484159,0.5 0,0.561168 -0.4387678,1 -0.9998544,1 -0.5610865,0 -0.9998543,-0.438832 -0.9998543,-1 0,-0.187455 0.062291,-0.351644 0.1484159,-0.5 z"
       style="color:#000000;font-style:normal;font-variant:normal;font-weight:normal;font-stretch:normal;font-size:medium;line-height:normal;font-family:sans-serif;font-variant-ligatures:normal;font-variant-position:normal;font-variant-caps:normal;font-variant-numeric:normal;font-variant-alternates:normal;font-feature-settings:normal;text-indent:0;text-align:start;text-decoration:none;text-decoration-line:none;text-decoration-style:solid;text-decoration-color:#000000;letter-spacing:normal;word-spacing:normal;text-transform:none;writing-mode:lr-tb;direction:ltr;text-orientation:mixed;dominant-baseline:auto;baseline-shift:baseline;text-anchor:start;white-space:normal;shape-padding:0;clip-rule:nonzero;display:inline;overflow:visible;visibility:visible;opacity:1;isolation:auto;mix-blend-mode:normal;color-interpolation:sRGB;color-interpolation-filters:linearRGB;solid-color:#000000;solid-opacity:1;vector-effect:none;fill:#000000;fill-opacity:1;fill-rule:nonzero;stroke:none;stroke-width:1.49999976;stroke-linecap:round;stroke-linejoin:round;stroke-miterlimit:4;stroke-dasharray:none;stroke-dashoffset:0;stroke-opacity:1;color-rendering:auto;image-rendering:auto;shape-rendering:auto;text-rendering:auto;enable-background:accumulate" />
  </g>
</svg>
