<?xml version="1.0" encoding="UTF-8" standalone="no"?>
<svg
   xmlns:dc="http://purl.org/dc/elements/1.1/"
   xmlns:cc="http://creativecommons.org/ns#"
   xmlns:rdf="http://www.w3.org/1999/02/22-rdf-syntax-ns#"
   xmlns:svg="http://www.w3.org/2000/svg"
   xmlns="http://www.w3.org/2000/svg"
   id="SVGRoot"
   version="1.1"
   viewBox="0 0 16 16"
   height="16px"
   width="16px">
  <defs
     id="defs1974" />
  <metadata
     id="metadata1977">
    <rdf:RDF>
      <cc:Work
         rdf:about="">
        <dc:format>image/svg+xml</dc:format>
        <dc:type
           rdf:resource="http://purl.org/dc/dcmitype/StillImage" />
        <dc:title></dc:title>
        <dc:creator>
          <cc:Agent>
            <dc:title>T. Gantt</dc:title>
          </cc:Agent>
        </dc:creator>
      </cc:Work>
    </rdf:RDF>
  </metadata>
  <g
     id="layer2">
    <path
       id="path829"
       d="m 5.1796875,4.2421875 c -0.064456,0.00808 -0.1277134,0.027982 -0.1875,0.0625 C 3.1390476,5.3783177 1.9986873,7.3583167 2,9.5 2,10.885 3.115,12 4.5,12 5.885,12 7,10.885 7,9.5 7,8.115 5.885,7 4.5,7 4.1703225,7 3.8579968,7.0666847 3.5703125,7.1816406 4.0096659,6.3443815 4.6773778,5.6487911 5.4960938,5.1757812 5.735199,5.0376391 5.8138524,4.7254744 5.6757812,4.4863281 5.5722278,4.3069684 5.3730543,4.2179574 5.1796875,4.2421875 Z m 7.0000005,0 c -0.06446,0.00808 -0.127714,0.027982 -0.1875,0.0625 C 10.139048,5.3783177 8.9986873,7.3583163 9,9.5 9,10.885 10.115,12 11.5,12 12.885,12 14,10.885 14,9.5 14,8.115 12.885,7 11.5,7 11.170323,7 10.857996,7.066685 10.570312,7.1816406 11.009666,6.3443815 11.677378,5.6487912 12.496094,5.1757812 12.735199,5.0376391 12.813853,4.7254744 12.675781,4.4863281 12.572228,4.3069684 12.373054,4.2179574 12.179688,4.2421875 Z"
       style="opacity:1;vector-effect:none;fill:#000000;fill-opacity:1;fill-rule:nonzero;stroke:none;stroke-width:25.00000191;stroke-linecap:round;stroke-linejoin:round;stroke-miterlimit:4;stroke-dasharray:none;stroke-dashoffset:0;stroke-opacity:1" />
  </g>
</svg>
