<?xml version="1.0" encoding="UTF-8" standalone="no"?>
<svg
   xmlns:dc="http://purl.org/dc/elements/1.1/"
   xmlns:cc="http://creativecommons.org/ns#"
   xmlns:rdf="http://www.w3.org/1999/02/22-rdf-syntax-ns#"
   xmlns:svg="http://www.w3.org/2000/svg"
   xmlns="http://www.w3.org/2000/svg"
   version="1.1"
   id="svg3870"
   height="16px"
   width="16px">
  <defs
     id="defs3872" />
  <metadata
     id="metadata3875">
    <rdf:RDF>
      <cc:Work
         rdf:about="">
        <dc:format>image/svg+xml</dc:format>
        <dc:type
           rdf:resource="http://purl.org/dc/dcmitype/StillImage" />
        <dc:title></dc:title>
        <dc:creator>
          <cc:Agent>
            <dc:title>T. Gantt</dc:title>
          </cc:Agent>
        </dc:creator>
      </cc:Work>
    </rdf:RDF>
  </metadata>
  <g
     style="display:inline;opacity:1"
     id="layer2">
    <path
       id="rect815"
       d="m 16,0 -5,5 v 2 h 2 L 16,4 Z M 1,1 C 0.446,1 0,1.446 0,2 V 16 H 2 V 3.5 C 2,3.223 2.223,3 2.5,3 H 11 L 13,1 Z M 3.5,4 C 3.223,4 3,4.223 3,4.5 v 1 C 3,5.777 3.223,6 3.5,6 h 1 C 4.777,6 5,5.777 5,5.5 v -1 C 5,4.223 4.777,4 4.5,4 Z m 9.15625,0.34375 1,1 -1,1 h -0.3125 l -0.6875,-0.6875 V 5.34375 Z M 6.25,5 C 6.1115,5 6,5.1115 6,5.25 v 0.5 C 6,5.8885 6.1115,6 6.25,6 h 3.5 C 9.8885,6 10,5.8885 10,5.75 V 5.25 C 10,5.1115 9.8885,5 9.75,5 Z M 16,6 14,8 v 8 h 2 z M 3.25,8 C 3.1115,8 3,8.1115 3,8.25 v 0.5 C 3,8.8885 3.1115,9 3.25,9 h 9.5 C 12.8885,9 13,8.8885 13,8.75 V 8.25 C 13,8.1115 12.8885,8 12.75,8 Z m 0,3 C 3.1115,11 3,11.1115 3,11.25 v 0.5 C 3,11.8885 3.1115,12 3.25,12 h 9.5 C 12.8885,12 13,11.8885 13,11.75 v -0.5 C 13,11.1115 12.8885,11 12.75,11 Z m 0,3 C 3.1115,14 3,14.1115 3,14.25 v 0.5 C 3,14.8885 3.1115,15 3.25,15 h 9.5 C 12.8885,15 13,14.8885 13,14.75 v -0.5 C 13,14.1115 12.8885,14 12.75,14 Z"
       style="color:#000000;display:inline;overflow:visible;visibility:visible;opacity:1;vector-effect:none;fill:#000000;fill-opacity:1;fill-rule:nonzero;stroke:none;stroke-width:1;stroke-linecap:round;stroke-linejoin:round;stroke-miterlimit:4;stroke-dasharray:none;stroke-dashoffset:0;stroke-opacity:1;marker:none;paint-order:normal;enable-background:accumulate" />
  </g>
</svg>
