<?xml version="1.0" encoding="UTF-8" standalone="no"?>
<svg
   xmlns:dc="http://purl.org/dc/elements/1.1/"
   xmlns:cc="http://creativecommons.org/ns#"
   xmlns:rdf="http://www.w3.org/1999/02/22-rdf-syntax-ns#"
   xmlns:svg="http://www.w3.org/2000/svg"
   xmlns="http://www.w3.org/2000/svg"
   id="SVGRoot"
   version="1.1"
   viewBox="0 0 16 16"
   height="16px"
   width="16px">
  <defs
     id="defs1974" />
  <metadata
     id="metadata1977">
    <rdf:RDF>
      <cc:Work
         rdf:about="">
        <dc:format>image/svg+xml</dc:format>
        <dc:type
           rdf:resource="http://purl.org/dc/dcmitype/StillImage" />
        <dc:title></dc:title>
        <dc:creator>
          <cc:Agent>
            <dc:title>T. Gantt</dc:title>
          </cc:Agent>
        </dc:creator>
      </cc:Work>
    </rdf:RDF>
  </metadata>
  <g
     id="layer1">
    <path
       id="rect2539-3"
       d="M 4.5,3 C 4.223,3 4,3.223 4,3.5 v 9 C 4,12.777 4.223,13 4.5,13 H 9 c 1.662,0 3,-1.338 3,-3 C 12,9.226703 11.70179,8.5308766 11.224609,8 11.70179,7.4691234 12,6.773297 12,6 12,4.338 10.662,3 9,3 Z M 6.25,5 H 9 c 0.554,0 1,0.446 1,1 0,0.554 -0.446,1 -1,1 H 6.25 C 6.1115,7 6,6.8885 6,6.75 V 5.25 C 6,5.1115 6.1115,5 6.25,5 Z m 0,4 H 9 c 0.554,0 1,0.446 1,1 0,0.554 -0.446,1 -1,1 H 6.25 C 6.1115,11 6,10.8885 6,10.75 V 9.25 C 6,9.1115 6.1115,9 6.25,9 Z"
       style="opacity:1;vector-effect:none;fill:#000000;fill-opacity:1;fill-rule:nonzero;stroke:none;stroke-width:25;stroke-linecap:round;stroke-linejoin:round;stroke-miterlimit:4;stroke-dasharray:none;stroke-dashoffset:0;stroke-opacity:1" />
  </g>
</svg>
