<?xml version="1.0" encoding="UTF-8" standalone="no"?>
<svg
   xmlns:dc="http://purl.org/dc/elements/1.1/"
   xmlns:cc="http://creativecommons.org/ns#"
   xmlns:rdf="http://www.w3.org/1999/02/22-rdf-syntax-ns#"
   xmlns:svg="http://www.w3.org/2000/svg"
   xmlns="http://www.w3.org/2000/svg"
   version="1.1"
   id="svg2985"
   height="16px"
   width="16px">
  <defs
     id="defs2987" />
  <metadata
     id="metadata2990">
    <rdf:RDF>
      <cc:Work
         rdf:about="">
        <dc:format>image/svg+xml</dc:format>
        <dc:type
           rdf:resource="http://purl.org/dc/dcmitype/StillImage" />
        <dc:title></dc:title>
        <dc:creator>
          <cc:Agent>
            <dc:title>T. Gantt</dc:title>
          </cc:Agent>
        </dc:creator>
      </cc:Work>
    </rdf:RDF>
  </metadata>
  <g
     style="display:inline;opacity:1"
     id="layer2">
    <path
       id="rect815"
       d="M 8,1 C 7.9297176,1 7.8585416,1.0140886 7.8046875,1.0410156 L 1.0800781,4.4023438 C 1.026224,4.4292708 1,4.4648588 1,4.5 v 7 c 0,0.03514 0.026224,0.07073 0.080078,0.09766 l 6.7246094,3.361328 c 0.1077058,0.05385 0.2829169,0.05385 0.390625,0 L 14.919922,11.597656 C 14.973776,11.570729 15,11.535141 15,11.5 v -7 C 15,4.464859 14.97377,4.429271 14.91992,4.402344 L 8.1953125,1.0410156 C 8.1414584,1.0140886 8.0702824,0.99999997 8,1 Z M 8,2 13,4.5 8,7 3,4.5 Z"
       style="color:#000000;display:inline;overflow:visible;visibility:visible;opacity:1;vector-effect:none;fill:#000000;fill-opacity:1;fill-rule:nonzero;stroke:none;stroke-width:0.88920474;stroke-linecap:round;stroke-linejoin:round;stroke-miterlimit:4;stroke-dasharray:none;stroke-dashoffset:0;stroke-opacity:1;marker:none;paint-order:normal;enable-background:accumulate" />
  </g>
</svg>
