<?xml version="1.0" encoding="UTF-8" standalone="no"?>
<svg
   xmlns:dc="http://purl.org/dc/elements/1.1/"
   xmlns:cc="http://creativecommons.org/ns#"
   xmlns:rdf="http://www.w3.org/1999/02/22-rdf-syntax-ns#"
   xmlns:svg="http://www.w3.org/2000/svg"
   xmlns="http://www.w3.org/2000/svg"
   version="1.1"
   id="svg2985"
   height="16px"
   width="16px">
  <defs
     id="defs2987" />
  <metadata
     id="metadata2990">
    <rdf:RDF>
      <cc:Work
         rdf:about="">
        <dc:format>image/svg+xml</dc:format>
        <dc:type
           rdf:resource="http://purl.org/dc/dcmitype/StillImage" />
        <dc:title></dc:title>
        <dc:creator>
          <cc:Agent>
            <dc:title>T. Gantt</dc:title>
          </cc:Agent>
        </dc:creator>
      </cc:Work>
    </rdf:RDF>
  </metadata>
  <g
     style="opacity:1"
     id="layer2">
    <path
       id="path815"
       d="M 5,1 C 4.6661667,1 4.3338333,0.99934901 4,1.1660156 3.6661667,1.3326823 3.3351354,1.6661667 3.1679688,2 3.000802,2.3338333 3,2.6658177 3,3.3339844 V 5.6660156 C 3,6.332849 3.000651,6.6661667 2.8339844,7 2.6673177,7.3338333 2,7.6656667 2,8 2,8.3343333 2.6673177,8.6661667 2.8339844,9 3.000651,9.3338333 3,9.6671518 3,10.333984 v 2.332032 C 3,13.334182 3.0008019,13.666167 3.1679688,14 3.3351353,14.333833 3.6661667,14.667318 4,14.833984 4.3338333,15.000651 4.6661667,15 5,15 h 1 c 0.3338333,0 0.7088333,1.51e-4 0.875,-0.166016 0.1661666,-0.166166 0.1661666,-0.501302 0,-0.667968 C 6.7088333,13.999349 6.3328333,14 6,14 5.6671667,14 5.3326823,14.000151 5.1660156,13.833984 4.999349,13.667818 5,13.334469 5,12.667969 V 10.332031 C 5,9.6668651 5.000151,9.3328333 4.8339844,9 4.6678177,8.6671667 4,8 4,8 4,8 4.6678177,7.3328333 4.8339844,7 5.000151,6.6671667 5,6.3331353 5,5.6679688 V 3.3320312 C 5,2.6655314 4.999349,2.3321823 5.1660156,2.1660156 5.3326823,1.999849 5.6671667,2 6,2 6.3328333,2 6.7088333,2.000651 6.875,1.8339844 7.0411666,1.6673177 7.0411666,1.3321823 6.875,1.1660156 6.7088333,0.99984902 6.3338333,1 6,1 Z m 5,0 C 9.6661666,1 9.2911667,0.99984911 9.125,1.1660156 8.9588333,1.3321823 8.9588333,1.6673177 9.125,1.8339844 9.2911667,2.000651 9.6671667,2 10,2 10.332833,2 10.667318,1.999849 10.833984,2.1660156 11.000651,2.3321823 11,2.6655313 11,3.3320312 V 5.6679688 C 11,6.3331353 10.99985,6.6671667 11.166016,7 11.332183,7.3328333 12,8 12,8 12,8 11.332183,8.6671667 11.166016,9 10.99985,9.3328333 11,9.6668651 11,10.332031 v 2.335938 c 0,0.6665 6.51e-4,0.999849 -0.166016,1.166015 C 10.667318,14.000151 10.332833,14 10,14 c -0.3328333,0 -0.7088332,-6.51e-4 -0.875,0.166016 -0.1661666,0.166666 -0.1661666,0.501802 0,0.667968 C 9.2911668,15.000151 9.6661666,15 10,15 h 1 c 0.333833,0 0.666166,6.51e-4 1,-0.166016 C 12.333833,14.667318 12.664864,14.333833 12.832031,14 12.999198,13.666167 13,13.334182 13,12.666016 V 10.333984 C 13,9.6671518 12.99935,9.3338333 13.166016,9 13.332683,8.6661667 14,8.3343333 14,8 14,7.6656667 13.332683,7.3338333 13.166016,7 12.99935,6.6661667 13,6.332849 13,5.6660156 V 3.3339844 C 13,2.6658177 12.999198,2.3338333 12.832031,2 12.664864,1.6661667 12.333833,1.3326823 12,1.1660156 11.666166,0.99934909 11.333833,1 11,1 Z"
       style="color:#000000;display:inline;overflow:visible;visibility:visible;opacity:1;vector-effect:none;fill:#000000;fill-opacity:1;fill-rule:nonzero;stroke:none;stroke-width:1;stroke-linecap:round;stroke-linejoin:round;stroke-miterlimit:4;stroke-dasharray:none;stroke-dashoffset:0;stroke-opacity:1;marker:none;paint-order:normal;enable-background:accumulate" />
  </g>
</svg>
