<?xml version="1.0" encoding="UTF-8" standalone="no"?>
<svg
   xmlns:dc="http://purl.org/dc/elements/1.1/"
   xmlns:cc="http://creativecommons.org/ns#"
   xmlns:rdf="http://www.w3.org/1999/02/22-rdf-syntax-ns#"
   xmlns:svg="http://www.w3.org/2000/svg"
   xmlns="http://www.w3.org/2000/svg"
   version="1.1"
   id="svg2985"
   height="16px"
   width="16px">
  <defs
     id="defs2987" />
  <metadata
     id="metadata2990">
    <rdf:RDF>
      <cc:Work
         rdf:about="">
        <dc:format>image/svg+xml</dc:format>
        <dc:type
           rdf:resource="http://purl.org/dc/dcmitype/StillImage" />
        <dc:title></dc:title>
        <dc:creator>
          <cc:Agent>
            <dc:title>T. Gantt</dc:title>
          </cc:Agent>
        </dc:creator>
      </cc:Work>
    </rdf:RDF>
  </metadata>
  <g
     style="display:inline;opacity:1"
     id="layer2">
    <path
       id="rect815"
       d="M 2.5332031,0 A 0.4617256,0.4617256 0 0 0 2.2460938,0.10351562 C 1.2459138,0.893195 0.65320151,1.9121035 0.6484375,2.9941406 a 0.4617256,0.4617256 0 0 0 0,0.00391 c 0.00201,1.0846443 0.5950838,2.1068546 1.5976563,2.8984375 A 0.4617256,0.4617256 0 1 0 2.8183594,5.171875 C 1.976126,4.5068881 1.5717028,3.7464567 1.5703125,2.9960938 1.5742569,2.2481208 1.9788284,1.490966 2.8183594,0.828125 A 0.4617256,0.4617256 0 0 0 2.5332031,0 Z M 13.453125,0 a 0.4617256,0.46168288 0 0 0 -0.271484,0.828125 c 0.84223,0.664918 1.246656,1.4254946 1.248047,2.1757812 -0.0039,0.7478971 -0.408514,1.5051865 -1.248047,2.1679688 a 0.4617256,0.46168288 0 1 0 0.572265,0.7246094 c 1.000181,-0.7896073 1.592892,-1.8086932 1.597656,-2.890625 a 0.4617256,0.46168288 0 0 0 0,-0.00391 C 15.349553,1.917418 14.756484,0.89502374 13.753906,0.10351562 A 0.4617256,0.46168288 0 0 0 13.453125,0 Z M 4.5273438,1 A 0.46172557,0.46172557 0 0 0 4.2792969,1.0800781 C 3.5103667,1.5842027 3.1365231,2.2962575 3.1328125,2.9960938 a 0.46172557,0.46172557 0 0 0 0,0.00391 c 0.00157,0.7017897 0.3757996,1.4146376 1.1464844,1.9199219 A 0.46172557,0.46172557 0 1 0 4.7851562,4.1484375 C 4.2115918,3.7723913 4.0581606,3.4065248 4.0566406,2.9980469 4.0594091,2.5902855 4.2130558,2.2266419 4.7851562,1.8515625 A 0.46172557,0.46172557 0 0 0 4.5273438,1 Z M 8,1 A 2,2 0 0 0 6,3 2,2 0 0 0 8,5 2,2 0 0 0 10,3 2,2 0 0 0 8,1 Z m 3.458984,0 a 0.46172557,0.46172557 0 0 0 -0.24414,0.8515625 c 0.573567,0.376046 0.727025,0.7419607 0.728515,1.1503906 -0.0028,0.4077569 -0.156414,0.7714033 -0.728515,1.1464844 a 0.46172557,0.46172557 0 1 0 0.505859,0.7714844 c 0.768929,-0.504125 1.142773,-1.2161821 1.146485,-1.9160157 a 0.46172557,0.46172557 0 0 0 0,-0.00391 C 12.865672,2.2981728 12.491385,1.5853574 11.720703,1.0800781 A 0.46172557,0.46172557 0 0 0 11.458984,1 Z M 7.25,6 C 7.1115,6 6.9576876,6.1038279 6.90625,6.2324219 L 3.09375,15.767578 C 3.0423124,15.896172 3.1115,16 3.25,16 h 1.5 c 0.1385,0 0.2923124,-0.103828 0.34375,-0.232422 L 5.8007812,14 h 4.3984378 l 0.707031,1.767578 C 10.957688,15.896172 11.1115,16 11.25,16 h 1.5 c 0.1385,0 0.207688,-0.103828 0.15625,-0.232422 L 9.09375,6.2324219 C 9.0423124,6.1038279 8.8885,6 8.75,6 Z M 8,8.4980469 9,11 H 7 Z M 6.5996094,12 h 2.8007812 l 0.3984375,1 H 6.2011719 Z"
       style="color:#000000;display:inline;overflow:visible;visibility:visible;opacity:1;vector-effect:none;fill:#000000;fill-opacity:1;fill-rule:nonzero;stroke:none;stroke-width:1;stroke-linecap:round;stroke-linejoin:round;stroke-miterlimit:4;stroke-dasharray:none;stroke-dashoffset:0;stroke-opacity:1;marker:none;paint-order:normal;enable-background:accumulate" />
  </g>
</svg>
