<?xml version="1.0" encoding="UTF-8" standalone="no"?>
<svg
   xmlns:dc="http://purl.org/dc/elements/1.1/"
   xmlns:cc="http://creativecommons.org/ns#"
   xmlns:rdf="http://www.w3.org/1999/02/22-rdf-syntax-ns#"
   xmlns:svg="http://www.w3.org/2000/svg"
   xmlns="http://www.w3.org/2000/svg"
   id="SVGRoot"
   version="1.1"
   viewBox="0 0 16 16"
   height="16px"
   width="16px">
  <defs
     id="defs815" />
  <metadata
     id="metadata818">
    <rdf:RDF>
      <cc:Work
         rdf:about="">
        <dc:format>image/svg+xml</dc:format>
        <dc:type
           rdf:resource="http://purl.org/dc/dcmitype/StillImage" />
        <dc:title></dc:title>
        <dc:creator>
          <cc:Agent>
            <dc:title>T. Gantt</dc:title>
          </cc:Agent>
        </dc:creator>
      </cc:Work>
    </rdf:RDF>
  </metadata>
  <g
     id="layer3">
    <path
       id="rect1747"
       d="M 2.5,2 A 1.5,1.5 0 0 0 1,3.5 1.5,1.5 0 0 0 2.5,5 1.5,1.5 0 0 0 4,3.5 1.5,1.5 0 0 0 2.5,2 Z m 4,1 C 6.223,3 6,3.223 6,3.5 6,3.777 6.223,4 6.5,4 h 8 C 14.777,4 15,3.777 15,3.5 15,3.223 14.777,3 14.5,3 Z m -4,4 A 1.5,1.5 0 0 0 1,8.5 1.5,1.5 0 0 0 2.5,10 1.5,1.5 0 0 0 4,8.5 1.5,1.5 0 0 0 2.5,7 Z m 4,1 C 6.223,8 6,8.223 6,8.5 6,8.777 6.223,9 6.5,9 h 8 C 14.777,9 15,8.777 15,8.5 15,8.223 14.777,8 14.5,8 Z m -4,4 A 1.5,1.5 0 0 0 1,13.5 1.5,1.5 0 0 0 2.5,15 1.5,1.5 0 0 0 4,13.5 1.5,1.5 0 0 0 2.5,12 Z m 4,1 C 6.223,13 6,13.223 6,13.5 6,13.777 6.223,14 6.5,14 h 8 C 14.777,14 15,13.777 15,13.5 15,13.223 14.777,13 14.5,13 Z"
       style="opacity:1;vector-effect:none;fill:#000000;fill-opacity:1;fill-rule:nonzero;stroke:none;stroke-width:25;stroke-linecap:round;stroke-linejoin:round;stroke-miterlimit:4;stroke-dasharray:none;stroke-dashoffset:0;stroke-opacity:1" />
  </g>
</svg>
