<?xml version="1.0" encoding="UTF-8" standalone="no"?>
<svg
   xmlns:dc="http://purl.org/dc/elements/1.1/"
   xmlns:cc="http://creativecommons.org/ns#"
   xmlns:rdf="http://www.w3.org/1999/02/22-rdf-syntax-ns#"
   xmlns:svg="http://www.w3.org/2000/svg"
   xmlns="http://www.w3.org/2000/svg"
   version="1.1"
   id="svg3870"
   height="16px"
   width="16px">
  <defs
     id="defs3872" />
  <metadata
     id="metadata3875">
    <rdf:RDF>
      <cc:Work
         rdf:about="">
        <dc:format>image/svg+xml</dc:format>
        <dc:type
           rdf:resource="http://purl.org/dc/dcmitype/StillImage" />
        <dc:title></dc:title>
        <dc:creator>
          <cc:Agent>
            <dc:title>T. Gantt</dc:title>
          </cc:Agent>
        </dc:creator>
      </cc:Work>
    </rdf:RDF>
  </metadata>
  <g
     style="opacity:1"
     id="layer2">
    <path
       id="rect815"
       d="M 1.25,1 C 1.1115,1 1,1.1115 1,1.25 V 3 H 3 V 1.25 C 3,1.1115 2.8885,1 2.75,1 Z m 3,0 C 4.1115,1 4,1.1115 4,1.25 V 3 H 6 V 1.25 C 6,1.1115 5.8885,1 5.75,1 Z m 3,0 C 7.1115,1 7,1.1115 7,1.25 V 3 H 9 V 1.25 C 9,1.1115 8.8885,1 8.75,1 Z M 10,1 v 14 h 4.75 C 14.8885,15 15,14.8885 15,14.75 V 1.25 C 15,1.1115 14.8885,1 14.75,1 Z m 1,2 h 3 V 13 H 11 Z M 1,4 V 5 H 3 V 4 Z M 4,4 V 5 H 6 V 4 Z M 7,4 V 5 H 9 V 4 Z M 1,6 v 8.75 C 1,14.8885 1.1115,15 1.25,15 h 1.5 C 2.8885,15 3,14.8885 3,14.75 V 6 Z m 3,0 v 8.75 C 4,14.8885 4.1115,15 4.25,15 h 1.5 C 5.8885,15 6,14.8885 6,14.75 V 6 Z m 3,0 v 8.75 C 7,14.8885 7.1115,15 7.25,15 h 1.5 C 8.8885,15 9,14.8885 9,14.75 V 6 Z"
       style="color:#000000;display:inline;overflow:visible;visibility:visible;opacity:1;vector-effect:none;fill:#000000;fill-opacity:1;fill-rule:nonzero;stroke:none;stroke-width:1;stroke-linecap:round;stroke-linejoin:round;stroke-miterlimit:4;stroke-dasharray:none;stroke-dashoffset:0;stroke-opacity:1;marker:none;paint-order:normal;enable-background:accumulate" />
  </g>
</svg>
