<?xml version="1.0" encoding="UTF-8" standalone="no"?>
<svg
   xmlns:dc="http://purl.org/dc/elements/1.1/"
   xmlns:cc="http://creativecommons.org/ns#"
   xmlns:rdf="http://www.w3.org/1999/02/22-rdf-syntax-ns#"
   xmlns:svg="http://www.w3.org/2000/svg"
   xmlns="http://www.w3.org/2000/svg"
   version="1.1"
   id="svg2985"
   height="16px"
   width="16px">
  <defs
     id="defs2987" />
  <metadata
     id="metadata2990">
    <rdf:RDF>
      <cc:Work
         rdf:about="">
        <dc:format>image/svg+xml</dc:format>
        <dc:type
           rdf:resource="http://purl.org/dc/dcmitype/StillImage" />
        <dc:title></dc:title>
        <dc:creator>
          <cc:Agent>
            <dc:title>T. Gantt</dc:title>
          </cc:Agent>
        </dc:creator>
      </cc:Work>
    </rdf:RDF>
  </metadata>
  <g
     style="opacity:1"
     id="layer2">
    <path
       id="rect815"
       d="M 4.25,1 C 4.1115,1 4,1.1115 4,1.25 V 3 H 3 C 2.446,3 2,3.446 2,4 v 10 c 0,0.554 0.446,1 1,1 h 11 c 0.554,0 1,-0.446 1,-1 V 4 C 15,3.446 14.554,3 14,3 H 13 V 1.25 C 13,1.1115 12.8885,1 12.75,1 h -2.5 C 10.1115,1 10,1.1115 10,1.25 V 3 H 7 V 1.25 C 7,1.1115 6.8885,1 6.75,1 Z M 5,2 H 6 V 5 H 5 Z m 6,0 h 1 V 5 H 11 Z M 3.5,6 h 10 C 13.777,6 14,6.223 14,6.5 v 7 C 14,13.777 13.777,14 13.5,14 H 3.5 C 3.223,14 3,13.777 3,13.5 v -7 C 3,6.223 3.223,6 3.5,6 Z m 2.75,4 C 6.1115,10 6,10.1115 6,10.25 v 0.5 C 6,10.8885 6.1115,11 6.25,11 h 4.5 C 10.8885,11 11,10.8885 11,10.75 v -0.5 C 11,10.1115 10.8885,10 10.75,10 Z"
       style="color:#000000;display:inline;overflow:visible;visibility:visible;opacity:1;vector-effect:none;fill:#000000;fill-opacity:1;fill-rule:nonzero;stroke:none;stroke-width:1;stroke-linecap:round;stroke-linejoin:round;stroke-miterlimit:4;stroke-dasharray:none;stroke-dashoffset:0;stroke-opacity:1;marker:none;paint-order:normal;enable-background:accumulate" />
  </g>
</svg>
