<?xml version="1.0" encoding="UTF-8" standalone="no"?>
<svg
   xmlns:dc="http://purl.org/dc/elements/1.1/"
   xmlns:cc="http://creativecommons.org/ns#"
   xmlns:rdf="http://www.w3.org/1999/02/22-rdf-syntax-ns#"
   xmlns:svg="http://www.w3.org/2000/svg"
   xmlns="http://www.w3.org/2000/svg"
   id="SVGRoot"
   version="1.1"
   viewBox="0 0 16.0 16.0"
   height="16.0px"
   width="16.0px">
  <defs
     id="defs833" />
  <metadata
     id="metadata836">
    <rdf:RDF>
      <cc:Work
         rdf:about="">
        <dc:format>image/svg+xml</dc:format>
        <dc:type
           rdf:resource="http://purl.org/dc/dcmitype/StillImage" />
        <dc:title></dc:title>
      </cc:Work>
    </rdf:RDF>
  </metadata>
  <g
     id="layer1">
    <path
       d="M 6.4765625,1 A 1.2071068,1.2071068 0 0 0 5.6464844,1.3535156 L 4,3 H 2 C 0.892,3 0,3.892 0,5 v 8 c 0,1.108 0.892,2 2,2 h 12 c 1.108,0 2,-0.892 2,-2 V 5 C 16,3.892 15.108,3 14,3 H 12 L 10.353516,1.3535156 A 1.2071068,1.2071068 0 0 0 9.5,1 h -3 A 1.2071068,1.2071068 0 0 0 6.4765625,1 Z M 8,5 c 2.200256,0 4,1.7997445 4,4 0,2.200256 -1.799744,4 -4,4 C 5.7997445,13 4,11.200256 4,9 4,6.7997445 5.7997445,5 8,5 Z M 8,6.5 C 6.6104046,6.5 5.5,7.6104046 5.5,9 c 0,1.389595 1.1104046,2.5 2.5,2.5 1.3895954,0 2.5,-1.110405 2.5,-2.5 C 10.5,7.6104046 9.3895954,6.5 8,6.5 Z"
       style="fill:#000000;stroke:none;stroke-width:1.5;stroke-linecap:round;stroke-linejoin:round;stop-color:#000000"
       id="rect1410" />
  </g>
</svg>
