<?xml version="1.0" encoding="UTF-8" standalone="no"?>
<svg
   xmlns:dc="http://purl.org/dc/elements/1.1/"
   xmlns:cc="http://creativecommons.org/ns#"
   xmlns:rdf="http://www.w3.org/1999/02/22-rdf-syntax-ns#"
   xmlns:svg="http://www.w3.org/2000/svg"
   xmlns="http://www.w3.org/2000/svg"
   version="1.1"
   id="svg3870"
   height="16px"
   width="16px">
  <defs
     id="defs3872" />
  <metadata
     id="metadata3875">
    <rdf:RDF>
      <cc:Work
         rdf:about="">
        <dc:format>image/svg+xml</dc:format>
        <dc:type
           rdf:resource="http://purl.org/dc/dcmitype/StillImage" />
        <dc:title></dc:title>
        <dc:creator>
          <cc:Agent>
            <dc:title>T. Gantt</dc:title>
          </cc:Agent>
        </dc:creator>
      </cc:Work>
    </rdf:RDF>
  </metadata>
  <g
     style="display:inline;opacity:1"
     id="layer2">
    <path
       id="rect815"
       d="M 14.4375,0.95703125 C 13.515196,0.97539419 11.793438,1.1527973 11.783203,1.2734375 11.7776,1.339482 12.27678,1.8713892 12.841797,2.4492188 L 9.5,5.7910156 6.6777344,2.96875 c -0.097934,-0.097934 -0.2575345,-0.097934 -0.3554688,0 L 5.96875,3.3222656 l -5,5 c -0.0979343,0.097934 -0.0979343,0.2575345 0,0.3554688 L 1.3222656,9.03125 c 0.097934,0.097934 0.2575345,0.097934 0.3554688,0 L 6.5,4.2089844 9.3222656,7.03125 c 0.097934,0.097934 0.2575345,0.097934 0.3554688,0 L 10.03125,6.6777344 13.550781,3.1582031 c 0.57783,0.5650171 1.109738,1.064197 1.175781,1.0585938 C 14.887417,4.2031499 15.147207,1.1472067 15,1 14.963198,0.96319832 14.744935,0.95091027 14.4375,0.95703125 Z M 13.25,6 C 13.1115,6 13,6.1115 13,6.25 v 8.5 c 0,0.1385 0.1115,0.25 0.25,0.25 h 1.5 C 14.8885,15 15,14.8885 15,14.75 V 6.25 C 15,6.1115 14.8885,6 14.75,6 Z m -8,1 C 5.1115,7 5,7.1115 5,7.25 v 7.5 C 5,14.8885 5.1115,15 5.25,15 h 1.5 C 6.8885,15 7,14.8885 7,14.75 V 7.25 C 7,7.1115 6.8885,7 6.75,7 Z m 4,2 C 9.1115,9 9,9.1115 9,9.25 v 5.5 C 9,14.8885 9.1115,15 9.25,15 h 1.5 C 10.8885,15 11,14.8885 11,14.75 V 9.25 C 11,9.1115 10.8885,9 10.75,9 Z m -8,2 C 1.1115,11 1,11.1115 1,11.25 v 3.5 C 1,14.8885 1.1115,15 1.25,15 h 1.5 C 2.8885,15 3,14.8885 3,14.75 v -3.5 C 3,11.1115 2.8885,11 2.75,11 Z"
       style="color:#000000;display:inline;overflow:visible;visibility:visible;opacity:1;vector-effect:none;fill:#000000;fill-opacity:1;fill-rule:nonzero;stroke:none;stroke-width:1;stroke-linecap:round;stroke-linejoin:round;stroke-miterlimit:4;stroke-dasharray:none;stroke-dashoffset:0;stroke-opacity:1;marker:none;paint-order:normal;enable-background:accumulate" />
  </g>
</svg>
