<?xml version="1.0" encoding="UTF-8" standalone="no"?>
<svg
   xmlns:dc="http://purl.org/dc/elements/1.1/"
   xmlns:cc="http://creativecommons.org/ns#"
   xmlns:rdf="http://www.w3.org/1999/02/22-rdf-syntax-ns#"
   xmlns:svg="http://www.w3.org/2000/svg"
   xmlns="http://www.w3.org/2000/svg"
   version="1.1"
   id="svg3870"
   height="16px"
   width="16px">
  <defs
     id="defs3872" />
  <metadata
     id="metadata3875">
    <rdf:RDF>
      <cc:Work
         rdf:about="">
        <dc:format>image/svg+xml</dc:format>
        <dc:type
           rdf:resource="http://purl.org/dc/dcmitype/StillImage" />
        <dc:title></dc:title>
        <dc:creator>
          <cc:Agent>
            <dc:title>T. Gantt</dc:title>
          </cc:Agent>
        </dc:creator>
      </cc:Work>
    </rdf:RDF>
  </metadata>
  <g
     style="opacity:1"
     id="layer2">
    <path
       id="path815"
       d="M 8,1 C 5.790861,1 4,2.790861 4,5 4.0039139,6.4251392 4.7657855,7.7405581 6,8.453125 V 14 c 0,0.554 0.446,1 1,1 H 8 8.75 C 8.8885,15 9,14.8885 9,14.75 V 14 H 9.75 C 9.8885,14 10,13.8885 10,13.75 v -0.5 C 10,13.1115 9.8885,13 9.75,13 H 9 V 12 H 9.75 C 9.8885,12 10,11.8885 10,11.75 v -0.5 C 10,11.1115 9.8885,11 9.75,11 H 9 V 10 H 9.75 C 9.8885,10 10,9.8885 10,9.75 V 8.4589844 C 11.236022,7.7453681 11.998173,6.4272338 12,5 12,2.790861 10.209139,1 8,1 Z M 7.5,2 h 1 C 8.777,2 9,2.223 9,2.5 v 1 C 9,3.777 8.777,4 8.5,4 h -1 C 7.223,4 7,3.777 7,3.5 v -1 C 7,2.223 7.223,2 7.5,2 Z M 7.25,8 h 0.5 C 7.8885,8 8,8.1115 8,8.25 v 5.5 C 8,13.8885 7.8885,14 7.75,14 H 7.25 C 7.1115,14 7,13.8885 7,13.75 V 8.25 C 7,8.1115 7.1115,8 7.25,8 Z"
       style="color:#000000;display:inline;overflow:visible;visibility:visible;opacity:1;vector-effect:none;fill:#000000;fill-opacity:1;fill-rule:nonzero;stroke:none;stroke-width:1;stroke-linecap:round;stroke-linejoin:round;stroke-miterlimit:4;stroke-dasharray:none;stroke-dashoffset:0;stroke-opacity:1;marker:none;paint-order:normal;enable-background:accumulate" />
  </g>
</svg>
