<?xml version="1.0" encoding="UTF-8" standalone="no"?>
<!-- Created with Inkscape (http://www.inkscape.org/) -->

<svg
   width="16"
   height="16"
   viewBox="0 0 16 16"
   version="1.1"
   id="svg5"
   xmlns="http://www.w3.org/2000/svg"
   xmlns:svg="http://www.w3.org/2000/svg">
  <defs
     id="defs2" />
  <g
     id="layer1">
    <path
       id="path2450"
       style="fill:#000000;stroke:none;stroke-width:1.5;stroke-linecap:round;stroke-linejoin:round;stop-color:#000000"
       d="M 8,0 A 8,8 0 0 0 0,8 8,8 0 0 0 8,16 8,8 0 0 0 16,8 8,8 0 0 0 8,0 Z m 0,1.5019531 a 1,1 0 0 1 1,1 v 5.0839844 l 2.707031,2.7070315 a 1,1 0 0 1 0,1.414062 1,1 0 0 1 -1.414062,0 L 7.2929688,8.7070312 A 1.0001,1.0001 0 0 1 7,8 V 2.5019531 a 1,1 0 0 1 1,-1 z" />
  </g>
</svg>
