<?xml version="1.0" encoding="UTF-8" standalone="no"?>
<svg
   xmlns:dc="http://purl.org/dc/elements/1.1/"
   xmlns:cc="http://creativecommons.org/ns#"
   xmlns:rdf="http://www.w3.org/1999/02/22-rdf-syntax-ns#"
   xmlns:svg="http://www.w3.org/2000/svg"
   xmlns="http://www.w3.org/2000/svg"
   version="1.1"
   id="svg2985"
   height="16px"
   width="16px">
  <defs
     id="defs2987" />
  <metadata
     id="metadata2990">
    <rdf:RDF>
      <cc:Work
         rdf:about="">
        <dc:format>image/svg+xml</dc:format>
        <dc:type
           rdf:resource="http://purl.org/dc/dcmitype/StillImage" />
        <dc:title></dc:title>
        <dc:creator>
          <cc:Agent>
            <dc:title>T. Gantt</dc:title>
          </cc:Agent>
        </dc:creator>
      </cc:Work>
    </rdf:RDF>
  </metadata>
  <g
     style="display:inline;opacity:1"
     id="layer2">
    <path
       id="path815"
       d="M 7.25,2 C 7.1115,2 7,2.1115 7,2.25 V 4.1328125 A 4,4 0 0 0 5.9726562,4.5585938 L 4.640625,3.2265625 c -0.097934,-0.097934 -0.2555813,-0.097934 -0.3535156,0 L 3.2265625,4.2871094 c -0.097934,0.097934 -0.097934,0.2555813 0,0.3535156 L 4.5585938,5.9726562 A 4,4 0 0 0 4.1308594,7 H 2.25 C 2.1115,7 2,7.1115 2,7.25 v 1.5 C 2,8.8885 2.1115,9 2.25,9 h 1.8828125 a 4,4 0 0 0 0.4257813,1.027344 l -1.3320313,1.332031 c -0.097934,0.09793 -0.097934,0.255581 0,0.353516 l 1.0605469,1.060547 c 0.097934,0.09793 0.2555813,0.09793 0.3535156,0 L 5.9726562,11.441406 A 4,4 0 0 0 7,11.869141 V 13.75 C 7,13.8885 7.1115,14 7.25,14 h 1.5 C 8.8885,14 9,13.8885 9,13.75 v -1.882812 a 4,4 0 0 0 1.027344,-0.425782 l 1.332031,1.332032 c 0.09793,0.09793 0.255581,0.09793 0.353516,0 l 1.060547,-1.060547 c 0.09793,-0.09794 0.09793,-0.255582 0,-0.353516 L 11.441406,10.027344 A 4,4 0 0 0 11.869141,9 H 13.75 C 13.8885,9 14,8.8885 14,8.75 V 7.25 C 14,7.1115 13.8885,7 13.75,7 H 11.867188 A 4,4 0 0 0 11.441406,5.9726562 L 12.773438,4.640625 c 0.09793,-0.097934 0.09793,-0.2555813 0,-0.3535156 L 11.712891,3.2265625 c -0.09794,-0.097934 -0.255582,-0.097934 -0.353516,0 L 10.027344,4.5585938 A 4,4 0 0 0 9,4.1308594 V 2.25 C 9,2.1115 8.8885,2 8.75,2 Z M 8,6 A 2,2 0 0 1 9.4355469,6.6074219 2,2 0 0 1 10,8 2,2 0 0 1 9.3925781,9.4355469 2,2 0 0 1 8,10 2,2 0 0 1 6.5644531,9.3925781 2,2 0 0 1 6,8 2,2 0 0 1 6.6074219,6.5644531 2,2 0 0 1 8,6 Z"
       style="color:#000000;display:inline;overflow:visible;visibility:visible;opacity:1;vector-effect:none;fill:#000000;fill-opacity:1;fill-rule:nonzero;stroke:none;stroke-width:1;stroke-linecap:round;stroke-linejoin:round;stroke-miterlimit:4;stroke-dasharray:none;stroke-dashoffset:0;stroke-opacity:1;marker:none;paint-order:normal;enable-background:accumulate" />
  </g>
</svg>
