<?xml version="1.0" encoding="UTF-8" standalone="no"?>
<!-- Created with Inkscape (http://www.inkscape.org/) -->

<svg
   width="16"
   height="16"
   viewBox="0 0 4.2333333 4.2333333"
   version="1.1"
   id="svg5"
   xmlns="http://www.w3.org/2000/svg"
   xmlns:svg="http://www.w3.org/2000/svg">
  <defs
     id="defs2" />
  <g
     id="layer1">
    <path
       id="path97"
       style="fill:#000000;stroke:none;stroke-width:240;stroke-linecap:round;stroke-linejoin:round;stop-color:#000000"
       d="M 2.1328125,0 A 2.1333333,2.1333333 0 0 0 0,2.1328125 2.1333333,2.1333333 0 0 0 2.1328125,4.2675781 2.1333333,2.1333333 0 0 0 4.2675781,2.1328125 2.1333333,2.1333333 0 0 0 2.1328125,0 Z M 8,0 A 2.1333333,2.1333333 0 0 0 5.8671875,2.1328125 2.1333333,2.1333333 0 0 0 8,4.2675781 2.1333333,2.1333333 0 0 0 10.132812,2.1328125 2.1333333,2.1333333 0 0 0 8,0 Z m 5.867188,0 A 2.1333333,2.1333333 0 0 0 11.732422,2.1328125 2.1333333,2.1333333 0 0 0 13.867188,4.2675781 2.1333333,2.1333333 0 0 0 16,2.1328125 2.1333333,2.1333333 0 0 0 13.867188,0 Z M 2.1328125,5.8671875 A 2.1333333,2.1333333 0 0 0 0,8 2.1333333,2.1333333 0 0 0 2.1328125,10.132812 2.1333333,2.1333333 0 0 0 4.2675781,8 2.1333333,2.1333333 0 0 0 2.1328125,5.8671875 Z M 8,5.8671875 A 2.1333333,2.1333333 0 0 0 5.8671875,8 2.1333333,2.1333333 0 0 0 8,10.132812 2.1333333,2.1333333 0 0 0 10.132812,8 2.1333333,2.1333333 0 0 0 8,5.8671875 Z m 5.867188,0 A 2.1333333,2.1333333 0 0 0 11.732422,8 2.1333333,2.1333333 0 0 0 13.867188,10.132812 2.1333333,2.1333333 0 0 0 16,8 2.1333333,2.1333333 0 0 0 13.867188,5.8671875 Z M 2.1328125,11.732422 A 2.1333333,2.1333333 0 0 0 0,13.867188 2.1333333,2.1333333 0 0 0 2.1328125,16 2.1333333,2.1333333 0 0 0 4.2675781,13.867188 2.1333333,2.1333333 0 0 0 2.1328125,11.732422 Z M 8,11.732422 A 2.1333333,2.1333333 0 0 0 5.8671875,13.867188 2.1333333,2.1333333 0 0 0 8,16 2.1333333,2.1333333 0 0 0 10.132812,13.867188 2.1333333,2.1333333 0 0 0 8,11.732422 Z m 5.867188,0 A 2.1333333,2.1333333 0 0 0 11.732422,13.867188 2.1333333,2.1333333 0 0 0 13.867188,16 2.1333333,2.1333333 0 0 0 16,13.867188 2.1333333,2.1333333 0 0 0 13.867188,11.732422 Z"
       transform="scale(0.26458333)" />
  </g>
</svg>
