<?xml version="1.0" encoding="UTF-8" standalone="no"?>
<svg
   xmlns:dc="http://purl.org/dc/elements/1.1/"
   xmlns:cc="http://creativecommons.org/ns#"
   xmlns:rdf="http://www.w3.org/1999/02/22-rdf-syntax-ns#"
   xmlns:svg="http://www.w3.org/2000/svg"
   xmlns="http://www.w3.org/2000/svg"
   id="svg5"
   version="1.1"
   viewBox="0 0 4.2333333 4.2333333"
   height="16"
   width="16">
  <metadata
     id="metadata1462">
    <rdf:RDF>
      <cc:Work
         rdf:about="">
        <dc:format>image/svg+xml</dc:format>
        <dc:type
           rdf:resource="http://purl.org/dc/dcmitype/StillImage" />
        <dc:title></dc:title>
      </cc:Work>
    </rdf:RDF>
  </metadata>
  <defs
     id="defs2" />
  <g
     id="layer1">
    <path
       id="rect2073"
       transform="scale(0.26458333)"
       d="M 4.375,1.5 C 2.78225,1.5 1.5,2.78225 1.5,4.375 1.5,5.96775 2.78225,7.25 4.375,7.25 5.96775,7.25 7.25,5.96775 7.25,4.375 7.25,2.78225 5.96775,1.5 4.375,1.5 Z m 7.25,0 C 10.03225,1.5 8.75,2.78225 8.75,4.375 8.75,5.96775 10.03225,7.25 11.625,7.25 13.21775,7.25 14.5,5.96775 14.5,4.375 14.5,2.78225 13.21775,1.5 11.625,1.5 Z M 4.375,8.75 C 2.78225,8.75 1.5,10.03225 1.5,11.625 1.5,13.21775 2.78225,14.5 4.375,14.5 5.96775,14.5 7.25,13.21775 7.25,11.625 7.25,10.03225 5.96775,8.75 4.375,8.75 Z m 7.25,0 c -1.59275,0 -2.875,1.28225 -2.875,2.875 0,1.59275 1.28225,2.875 2.875,2.875 1.59275,0 2.875,-1.28225 2.875,-2.875 0,-1.59275 -1.28225,-2.875 -2.875,-2.875 z"
       style="fill:#000000;fill-opacity:1;stroke-width:240;stroke-linecap:round;stroke-linejoin:round" />
  </g>
</svg>
