<?xml version="1.0" encoding="UTF-8" standalone="no"?>
<svg
   xmlns:dc="http://purl.org/dc/elements/1.1/"
   xmlns:cc="http://creativecommons.org/ns#"
   xmlns:rdf="http://www.w3.org/1999/02/22-rdf-syntax-ns#"
   xmlns:svg="http://www.w3.org/2000/svg"
   xmlns="http://www.w3.org/2000/svg"
   id="SVGRoot"
   version="1.1"
   viewBox="0 0 16 16"
   height="16px"
   width="16px">
  <defs
     id="defs815" />
  <metadata
     id="metadata818">
    <rdf:RDF>
      <cc:Work
         rdf:about="">
        <dc:format>image/svg+xml</dc:format>
        <dc:type
           rdf:resource="http://purl.org/dc/dcmitype/StillImage" />
        <dc:title></dc:title>
        <dc:creator>
          <cc:Agent>
            <dc:title>T. Gantt</dc:title>
          </cc:Agent>
        </dc:creator>
      </cc:Work>
    </rdf:RDF>
  </metadata>
  <g
     style="opacity:1"
     id="layer2">
    <path
       id="path1388"
       d="M 8,0 A 8,8 0 0 0 0,8 8,8 0 0 0 8,16 8,8 0 0 0 16,8 8,8 0 0 0 8,0 Z M 6.8203125,1.0996094 C 7.1975773,1.8275051 7.8986946,3 8,3 8.1010163,3 8.7996345,1.8358405 9.1777344,1.1074219 A 7,7 0 0 1 14.900391,6.8203125 C 14.172495,7.1975773 13,7.8986946 13,8 c 0,0.1010163 1.164159,0.7996345 1.892578,1.1777344 A 7,7 0 0 1 9.1796875,14.900391 C 8.8024227,14.172495 8.1013054,13 8,13 7.8989837,13 7.2003655,14.164159 6.8222656,14.892578 A 7,7 0 0 1 1.0996094,9.1796875 C 1.8275051,8.8024227 3,8.1013054 3,8 3,7.8989837 1.8358406,7.2003655 1.1074219,6.8222656 A 7,7 0 0 1 6.8203125,1.0996094 Z M 11.535156,4.4648438 C 11.351444,4.2811319 6.5450476,5.9197964 6.2324219,6.2324219 5.9197963,6.5450477 4.281132,11.351444 4.4648438,11.535156 4.6485554,11.718868 9.4549524,10.080204 9.7675781,9.7675781 10.080204,9.4549524 11.718868,4.6485556 11.535156,4.4648438 Z M 6.9394531,6.9394531 9.0605469,9.0605469 C 8.8819036,9.2391902 5.8061499,10.403806 5.7011719,10.298828 5.5961937,10.19385 6.7608099,7.1180963 6.9394531,6.9394531 Z"
       style="opacity:1;vector-effect:none;fill:#000000;fill-opacity:1;stroke:none;stroke-width:1;stroke-linecap:round;stroke-linejoin:round;stroke-miterlimit:4;stroke-dasharray:none;stroke-dashoffset:0;stroke-opacity:1" />
  </g>
</svg>
