<?xml version="1.0" encoding="UTF-8" standalone="no"?>
<svg
   xmlns:dc="http://purl.org/dc/elements/1.1/"
   xmlns:cc="http://creativecommons.org/ns#"
   xmlns:rdf="http://www.w3.org/1999/02/22-rdf-syntax-ns#"
   xmlns:svg="http://www.w3.org/2000/svg"
   xmlns="http://www.w3.org/2000/svg"
   id="SVGRoot"
   version="1.1"
   viewBox="0 0 16.0 16.0"
   height="16.0px"
   width="16.0px">
  <defs
     id="defs1414" />
  <metadata
     id="metadata1417">
    <rdf:RDF>
      <cc:Work
         rdf:about="">
        <dc:format>image/svg+xml</dc:format>
        <dc:type
           rdf:resource="http://purl.org/dc/dcmitype/StillImage" />
        <dc:title></dc:title>
      </cc:Work>
    </rdf:RDF>
  </metadata>
  <g
     id="layer1">
    <path
       d="M 8,2.7685547 A 0.70122951,0.70122951 0 0 0 7.2988281,3.4697265 0.70122951,0.70122951 0 0 0 7.578125,4.0283203 C 7.3617685,4.5646995 7.1598967,4.9731713 7.0761719,5.1318359 6.9691001,5.3347445 6.8519585,5.5384163 6.7265625,5.7353515 6.3053481,6.3968719 5.8248215,6.9145559 5.34375,6.9931641 4.8534323,7.0732832 4.2234137,6.7287419 3.6035156,6.2275391 3.418948,6.0783116 3.2391296,5.9196752 3.0703125,5.7587891 2.9481192,5.6423363 2.6579639,5.3493595 2.3164062,4.9599609 a 0.70122951,0.70122951 0 0 1 0,-0.00195 A 0.70122951,0.70122951 0 0 0 2.4023438,4.6220703 0.70122951,0.70122951 0 0 0 1.7011719,3.9208984 0.70122951,0.70122951 0 0 0 1,4.6220703 0.70122951,0.70122951 0 0 0 1.5722656,5.3115234 c 0.1380523,0.7667444 0.5661028,3.1432839 0.8496094,4.7148436 0.021447,0.118887 0.1252878,0.205078 0.2460938,0.205078 H 13.335938 c 0.120805,0 0.224731,-0.08618 0.246093,-0.205078 L 14.429688,5.3095703 A 0.70122951,0.70122951 0 0 0 15,4.6220703 0.70122951,0.70122951 0 0 0 14.298828,3.9208984 0.70122951,0.70122951 0 0 0 13.597656,4.6220703 0.70122951,0.70122951 0 0 0 13.683594,4.9580078 C 13.341972,5.3487393 13.052319,5.6419109 12.929688,5.7587891 12.760868,5.919688 12.581052,6.08026 12.396484,6.2294922 11.776587,6.7307116 11.146515,7.0734164 10.65625,6.9931641 10.175475,6.9144651 9.6958944,6.3968401 9.2753906,5.7353515 9.1502072,5.5384273 9.0326433,5.3347303 8.9257812,5.1318359 8.8421074,4.9729679 8.6417017,4.5634122 8.4257812,4.0263672 A 0.70122951,0.70122951 0 0 0 8.7011719,3.4697265 0.70122951,0.70122951 0 0 0 8,2.7685547 Z M 2.6660156,11.231445 c -0.1380712,0 -0.25,0.111929 -0.25,0.25 v 1.5 c 0,0.138071 0.1119288,0.25 0.25,0.25 H 13.332031 c 0.138071,0 0.25,-0.111929 0.25,-0.25 v -1.5 c 0,-0.138071 -0.111929,-0.25 -0.25,-0.25 z"
       style="fill:#000000;stroke:none;stroke-width:0.5;stroke-linecap:round;stroke-linejoin:round"
       id="path1991" />
  </g>
</svg>
