<?xml version="1.0" encoding="UTF-8" standalone="no"?>
<svg
   xmlns:dc="http://purl.org/dc/elements/1.1/"
   xmlns:cc="http://creativecommons.org/ns#"
   xmlns:rdf="http://www.w3.org/1999/02/22-rdf-syntax-ns#"
   xmlns:svg="http://www.w3.org/2000/svg"
   xmlns="http://www.w3.org/2000/svg"
   version="1.1"
   id="svg2985"
   height="16px"
   width="16px">
  <defs
     id="defs2987" />
  <metadata
     id="metadata2990">
    <rdf:RDF>
      <cc:Work
         rdf:about="">
        <dc:format>image/svg+xml</dc:format>
        <dc:type
           rdf:resource="http://purl.org/dc/dcmitype/StillImage" />
        <dc:title></dc:title>
        <dc:creator>
          <cc:Agent>
            <dc:title>T. Gantt</dc:title>
          </cc:Agent>
        </dc:creator>
      </cc:Work>
    </rdf:RDF>
  </metadata>
  <g
     style="display:inline;opacity:1"
     id="layer2">
    <path
       id="rect815"
       d="M 1.25,0 C 1.1115,0 1,0.1115 1,0.25 V 16 H 2 V 3 H 14.75 C 14.8885,3 15,2.8885 15,2.75 V 0.25 C 15,0.1115 14.8885,0 14.75,0 Z m 11,1 h 1.5 C 13.8885,1 14,1.1115 14,1.25 v 0.5 C 14,1.8885 13.8885,2 13.75,2 h -1.5 C 12.1115,2 12,1.8885 12,1.75 V 1.25 C 12,1.1115 12.1115,1 12.25,1 Z m -9,3 C 3.1115,4 3,4.1115 3,4.25 v 0.5 C 3,4.8885 3.1115,5 3.25,5 h 2.5 C 5.8885,5 6,4.8885 6,4.75 V 4.25 C 6,4.1115 5.8885,4 5.75,4 Z m 4,0 C 7.1115,4 7,4.1115 7,4.25 v 0.5 C 7,4.8885 7.1115,5 7.25,5 h 1.5 C 8.8885,5 9,4.8885 9,4.75 V 4.25 C 9,4.1115 8.8885,4 8.75,4 Z m -4,2 C 3.1115,6 3,6.1115 3,6.25 v 6.5 C 3,12.8885 3.1115,13 3.25,13 h 11.5 C 14.8885,13 15,12.8885 15,12.75 V 6.25 C 15,6.1115 14.8885,6 14.75,6 Z M 7.1445312,7.0039062 C 7.3373024,6.8791439 11,9.2504753 11,9.5 c 0,0.2495247 -3.6626977,2.620856 -3.8554688,2.496094 -0.192771,-0.124763 -0.192771,-4.8674254 0,-4.9921878 z M 3.25,14 C 3.1115,14 3,14.1115 3,14.25 v 1.5 C 3,15.8885 3.1115,16 3.25,16 h 1.5 C 4.8885,16 5,15.8885 5,15.75 v -1.5 C 5,14.1115 4.8885,14 4.75,14 Z m 3,0 C 6.1115,14 6,14.1115 6,14.25 v 1.5 C 6,15.8885 6.1115,16 6.25,16 h 1.5 C 7.8885,16 8,15.8885 8,15.75 v -1.5 C 8,14.1115 7.8885,14 7.75,14 Z m 3,0 C 9.1115,14 9,14.1115 9,14.25 v 1.5 C 9,15.8885 9.1115,16 9.25,16 h 1.5 C 10.8885,16 11,15.8885 11,15.75 v -1.5 C 11,14.1115 10.8885,14 10.75,14 Z m 4,0 C 13.1115,14 13,14.1115 13,14.25 v 1.5 c 0,0.1385 0.1115,0.25 0.25,0.25 h 1.5 C 14.8885,16 15,15.8885 15,15.75 v -1.5 C 15,14.1115 14.8885,14 14.75,14 Z"
       style="color:#000000;display:inline;overflow:visible;visibility:visible;opacity:1;vector-effect:none;fill:#000000;fill-opacity:1;fill-rule:nonzero;stroke:none;stroke-width:1;stroke-linecap:round;stroke-linejoin:round;stroke-miterlimit:4;stroke-dasharray:none;stroke-dashoffset:0;stroke-opacity:1;marker:none;paint-order:normal;enable-background:accumulate" />
  </g>
</svg>
