<?xml version="1.0" encoding="UTF-8" standalone="no"?>
<svg
   xmlns:dc="http://purl.org/dc/elements/1.1/"
   xmlns:cc="http://creativecommons.org/ns#"
   xmlns:rdf="http://www.w3.org/1999/02/22-rdf-syntax-ns#"
   xmlns:svg="http://www.w3.org/2000/svg"
   xmlns="http://www.w3.org/2000/svg"
   version="1.1"
   id="svg3870"
   height="16px"
   width="16px">
  <defs
     id="defs3872" />
  <metadata
     id="metadata3875">
    <rdf:RDF>
      <cc:Work
         rdf:about="">
        <dc:format>image/svg+xml</dc:format>
        <dc:type
           rdf:resource="http://purl.org/dc/dcmitype/StillImage" />
        <dc:title></dc:title>
        <dc:creator>
          <cc:Agent>
            <dc:title>T. Gantt</dc:title>
          </cc:Agent>
        </dc:creator>
      </cc:Work>
    </rdf:RDF>
  </metadata>
  <g
     style="opacity:1"
     id="layer2">
    <path
       id="rect815"
       d="M 7.25,0 C 7.1115283,0 7,0.11152826 7,0.25 V 2.0136719 C 5.9664603,2.0271558 5.0621475,2.0550181 5.0058594,2.109375 4.8561446,2.2539533 7.7005704,5 8,5 8.2994296,5 11.143855,2.2539533 10.994141,2.109375 10.937853,2.0550181 10.03354,2.0271558 9,2.0136719 V 0.25 C 9,0.11152826 8.8884717,0 8.75,0 Z M 8,6 C 7.9191677,6 7.8392816,6.0159053 7.7773438,6.046875 L 3.09375,8.3886719 C 3.0318121,8.4196416 3,8.4595828 3,8.5 v 5 c 0,0.04042 0.031812,0.08036 0.09375,0.111328 l 4.6835938,2.341797 c 0.1238758,0.06194 0.3214367,0.06194 0.4453124,0 L 12.90625,13.611328 C 12.968188,13.580358 13,13.540417 13,13.5 v -5 C 13,8.459583 12.96819,8.419642 12.90625,8.3886719 L 8.2226562,6.046875 C 8.1607183,6.0159053 8.0808323,6 8,6 Z M 8,7 C 8.080815,7 8.1607315,7.015908 8.2226562,7.046875 L 10.90625,8.3886719 c 0.123849,0.061934 0.123849,0.1607223 0,0.2226562 L 8.2226562,9.953125 c -0.1238494,0.061934 -0.321463,0.061934 -0.4453124,0 L 5.09375,8.6113281 c -0.1238494,-0.061934 -0.1238494,-0.1607223 0,-0.2226562 L 7.7773438,7.046875 C 7.8392685,7.015908 7.9191849,7 8,7 Z"
       style="color:#000000;display:inline;overflow:visible;visibility:visible;opacity:1;vector-effect:none;fill:#000000;fill-opacity:1;fill-rule:nonzero;stroke:none;stroke-width:1.28268683;stroke-linecap:round;stroke-linejoin:round;stroke-miterlimit:4;stroke-dasharray:none;stroke-dashoffset:0;stroke-opacity:1;marker:none;paint-order:normal;enable-background:accumulate" />
  </g>
</svg>
