<?xml version="1.0" encoding="UTF-8" standalone="no"?>
<svg
   xmlns:dc="http://purl.org/dc/elements/1.1/"
   xmlns:cc="http://creativecommons.org/ns#"
   xmlns:rdf="http://www.w3.org/1999/02/22-rdf-syntax-ns#"
   xmlns:svg="http://www.w3.org/2000/svg"
   xmlns="http://www.w3.org/2000/svg"
   version="1.1"
   id="svg2985"
   height="16px"
   width="16px">
  <defs
     id="defs2987" />
  <metadata
     id="metadata2990">
    <rdf:RDF>
      <cc:Work
         rdf:about="">
        <dc:format>image/svg+xml</dc:format>
        <dc:type
           rdf:resource="http://purl.org/dc/dcmitype/StillImage" />
        <dc:title></dc:title>
        <dc:creator>
          <cc:Agent>
            <dc:title>T. Gantt</dc:title>
          </cc:Agent>
        </dc:creator>
      </cc:Work>
    </rdf:RDF>
  </metadata>
  <g
     id="g824"
     style="display:inline">
    <path
       id="rect818"
       d="M 2.75,6.25 C 1.7805,6.25 1,7.0305 1,8 1,8.9695 1.7805,9.75 2.75,9.75 3.7195,9.75 4.5,8.9695 4.5,8 4.5,7.0305 3.7195,6.25 2.75,6.25 Z M 8,6.25 C 7.0305,6.25 6.25,7.0305 6.25,8 6.25,8.9695 7.0305,9.75 8,9.75 8.9695,9.75 9.75,8.9695 9.75,8 9.75,7.0305 8.9695,6.25 8,6.25 Z m 5.25,0 c -0.9695,0 -1.75,0.7805 -1.75,1.75 0,0.9695 0.7805,1.75 1.75,1.75 C 14.2195,9.75 15,8.9695 15,8 15,7.0305 14.2195,6.25 13.25,6.25 Z"
       style="opacity:1;fill:#000000;fill-opacity:1;stroke:none;stroke-width:7.5;stroke-linecap:round;stroke-miterlimit:4;stroke-dasharray:none;stroke-opacity:1" />
  </g>
</svg>
