<?xml version="1.0" encoding="UTF-8" standalone="no"?>
<svg
   xmlns:dc="http://purl.org/dc/elements/1.1/"
   xmlns:cc="http://creativecommons.org/ns#"
   xmlns:rdf="http://www.w3.org/1999/02/22-rdf-syntax-ns#"
   xmlns:svg="http://www.w3.org/2000/svg"
   xmlns="http://www.w3.org/2000/svg"
   version="1.1"
   id="svg3870"
   height="16px"
   width="16px">
  <defs
     id="defs3872" />
  <metadata
     id="metadata3875">
    <rdf:RDF>
      <cc:Work
         rdf:about="">
        <dc:format>image/svg+xml</dc:format>
        <dc:type
           rdf:resource="http://purl.org/dc/dcmitype/StillImage" />
        <dc:title></dc:title>
        <dc:creator>
          <cc:Agent>
            <dc:title>T. Gantt</dc:title>
          </cc:Agent>
        </dc:creator>
      </cc:Work>
    </rdf:RDF>
  </metadata>
  <g
     style="display:inline;opacity:1"
     id="layer2">
    <path
       id="rect815"
       d="M 0.5,3 C 0.223,3 0,3.223 0,3.5 V 4 C 0,4.3338333 -5.48959e-4,4.6655667 0.33398438,5 0.61628039,5.2822116 1.1460038,5.5627264 1.7011719,5.84375 3.1740028,6.5753017 4.7618531,7.3576404 5.8339844,7.8339844 7.3342594,8.500551 7.6671667,8.5 8,8.5 8.3328333,8.5 8.6679634,8.5009042 10.164062,7.8359375 11.223966,7.3648468 12.796305,6.5909848 14.261719,5.8632812 14.831335,5.5757755 15.377223,5.2887059 15.666016,5 16.000549,4.6655666 16,4.3338333 16,4 V 3.5 C 16,3.223 15.777,3 15.5,3 Z M 0,6 v 6.5 C 0,12.777 0.223,13 0.5,13 h 15 C 15.777,13 16,12.777 16,12.5 V 6 c 0,0.3338333 5.49e-4,0.6655667 -0.333984,1 C 15.378844,7.2870853 14.837581,7.573487 14.271484,7.859375 12.80643,8.5875453 11.23322,9.3603816 10.167969,9.8339844 8.6677932,10.500951 8.3338333,10.5 8,10.5 7.6661667,10.5 7.3343781,10.500598 5.8300781,9.8320312 4.766591,9.3593782 3.2032661,8.5918447 1.7441406,7.8671875 1.1720559,7.578599 0.62386122,7.2897902 0.33398438,7 -5.4897913e-4,6.6655667 0,6.3338333 0,6 Z"
       style="opacity:1;fill:#000000;fill-opacity:1;stroke:none;stroke-width:7.5;stroke-linecap:round;stroke-miterlimit:4;stroke-dasharray:none;stroke-opacity:1" />
  </g>
</svg>
