<?xml version="1.0" encoding="UTF-8" standalone="no"?>
<svg
   xmlns:dc="http://purl.org/dc/elements/1.1/"
   xmlns:cc="http://creativecommons.org/ns#"
   xmlns:rdf="http://www.w3.org/1999/02/22-rdf-syntax-ns#"
   xmlns:svg="http://www.w3.org/2000/svg"
   xmlns="http://www.w3.org/2000/svg"
   id="SVGRoot"
   version="1.1"
   viewBox="0 0 16 16"
   height="16px"
   width="16px">
  <defs
     id="defs1974" />
  <metadata
     id="metadata1977">
    <rdf:RDF>
      <cc:Work
         rdf:about="">
        <dc:format>image/svg+xml</dc:format>
        <dc:type
           rdf:resource="http://purl.org/dc/dcmitype/StillImage" />
        <dc:title></dc:title>
        <dc:creator>
          <cc:Agent>
            <dc:title>T. Gantt</dc:title>
          </cc:Agent>
        </dc:creator>
      </cc:Work>
    </rdf:RDF>
  </metadata>
  <g
     id="layer2">
    <path
       id="rect822-7"
       d="m 5.3574219,3.6425781 c -0.1917144,0 -0.3843486,0.073802 -0.53125,0.2207031 L 1.2207031,7.46875 v 0 c -0.072853,0.073172 -0.12949,0.1582821 -0.1660156,0.2480469 -2.008e-4,4.905e-4 1.997e-4,0.00146 0,0.00195 -0.0727198,0.180059 -0.0732065,0.382589 0,0.5625 2.425e-4,6.006e-4 -2.442e-4,0.00135 0,0.00195 0.036724,0.089704 0.092964,0.1730425 0.1660156,0.2460938 v 0 L 4.8261719,12.13671 c 0.2937235,0.293882 0.766744,0.293803 1.0605469,0 0.2938028,-0.293803 0.2938028,-0.766744 0,-1.060547 L 2.8105469,8 5.8867188,4.9238281 c 0.2938028,-0.2938029 0.2938028,-0.766744 0,-1.0605469 C 5.7398173,3.7163798 5.5491362,3.6425781 5.3574219,3.6425781 Z m 5.2851561,0 c -0.191714,10e-8 -0.382395,0.073802 -0.529297,0.2207031 -0.2938026,0.2938029 -0.2938026,0.7667441 0,1.0605469 L 13.189453,8 10.113281,11.076172 c -0.2938026,0.293803 -0.2938026,0.766744 0,1.060547 0.293803,0.293803 0.766744,0.293803 1.060547,0 L 14.779297,8.53125 v 0 c 0.07305,-0.073051 0.129291,-0.1583398 0.166015,-0.2480438 v 0 C 14.982038,8.1929506 15,8.0958572 15,8 15,7.9041428 14.982038,7.8070524 14.945312,7.7167969 14.908787,7.6270321 14.85215,7.5419223 14.779297,7.46875 L 11.173828,3.8632812 C 11.026927,3.7163798 10.834292,3.6425781 10.642578,3.6425781 Z"
       style="opacity:1;vector-effect:none;fill:#000000;fill-opacity:1;fill-rule:nonzero;stroke:none;stroke-width:25;stroke-linecap:round;stroke-linejoin:round;stroke-miterlimit:4;stroke-dasharray:none;stroke-dashoffset:0;stroke-opacity:1" />
  </g>
</svg>
