<?xml version="1.0" encoding="UTF-8" standalone="no"?>
<!-- Created with Inkscape (http://www.inkscape.org/) -->

<svg
   width="16"
   height="16"
   viewBox="0 0 16 16"
   version="1.1"
   id="svg5"
   xmlns="http://www.w3.org/2000/svg"
   xmlns:svg="http://www.w3.org/2000/svg">
  <defs
     id="defs2" />
  <g
     id="layer2">
    <path
       id="rect5583"
       style="fill:#000000;stroke-width:3;stroke-linecap:round;stroke-linejoin:round;stop-color:#000000"
       d="M 8,1 A 1.8099751,1.8099751 0 0 0 6.1992188,2.9902344 L 6.9003906,10.009766 A 1.0995037,1.0995037 0 0 0 7.9941406,11 h 0.011719 a 1.0995037,1.0995037 0 0 0 1.09375,-0.990234 L 9.8007812,2.9902344 A 1.8099751,1.8099751 0 0 0 8,1 Z M 8,12 A 1.5,1.5 0 0 0 6.5,13.5 1.5,1.5 0 0 0 8,15 1.5,1.5 0 0 0 9.5,13.5 1.5,1.5 0 0 0 8,12 Z" />
  </g>
</svg>
