<?xml version="1.0" encoding="UTF-8" standalone="no"?>
<svg
   xmlns:dc="http://purl.org/dc/elements/1.1/"
   xmlns:cc="http://creativecommons.org/ns#"
   xmlns:rdf="http://www.w3.org/1999/02/22-rdf-syntax-ns#"
   xmlns:svg="http://www.w3.org/2000/svg"
   xmlns="http://www.w3.org/2000/svg"
   version="1.1"
   id="svg3870"
   height="16px"
   width="16px">
  <defs
     id="defs3872" />
  <metadata
     id="metadata3875">
    <rdf:RDF>
      <cc:Work
         rdf:about="">
        <dc:format>image/svg+xml</dc:format>
        <dc:type
           rdf:resource="http://purl.org/dc/dcmitype/StillImage" />
        <dc:title></dc:title>
        <dc:creator>
          <cc:Agent>
            <dc:title>T. Gantt</dc:title>
          </cc:Agent>
        </dc:creator>
      </cc:Work>
    </rdf:RDF>
  </metadata>
  <g
     style="opacity:1"
     id="layer2">
    <path
       id="rect815"
       d="M 0.25,2 C 0.1115,2 0,2.1115 0,2.25 v 5.5 C 0,7.8885 0.1115,8 0.25,8 h 3.5 C 3.8885,8 4,7.8885 4,7.75 V 6.25 C 4,6.1115 3.8885,6 3.75,6 H 2 V 5 H 3.75 C 3.8885,5 4,4.8885 4,4.75 V 4.25 C 4,4.1115 3.8885,4 3.75,4 H 2 V 3 H 3.75 C 3.8885,3 4,2.8885 4,2.75 V 2.25 C 4,2.1115 3.8885,2 3.75,2 Z M 5.9921875,2 C 5.9283527,2 5.8633666,2.0253042 5.8144531,2.0742188 L 5.0742188,2.8164062 c -0.097827,0.097829 -0.097827,0.2537335 0,0.3515626 L 6.90625,5 5.0742188,6.8320312 c -0.097827,0.097829 -0.097827,0.2537335 0,0.3515626 l 0.7402343,0.7421874 c 0.097827,0.097829 0.2556885,0.097829 0.3535157,0 L 8,6.09375 9.8320312,7.9257812 c 0.097827,0.097829 0.2537358,0.097829 0.3515628,0 l 0.742187,-0.7421874 c 0.09783,-0.097829 0.09783,-0.2537335 0,-0.3515626 L 9.09375,5 10.925781,3.1679688 c 0.09783,-0.097829 0.09783,-0.2537335 0,-0.3515626 L 10.183594,2.0742188 c -0.09783,-0.097829 -0.2537357,-0.097829 -0.3515628,0 L 8,3.90625 6.1679688,2.0742188 C 6.1190552,2.0253041 6.0560223,2 5.9921875,2 Z M 12.25,2 C 12.1115,2 12,2.1115 12,2.25 v 5.5 C 12,7.8885 12.1115,8 12.25,8 h 1.5 C 13.8885,8 14,7.8885 14,7.75 V 6 h 1 c 0.554,0 1,-0.446 1,-1 V 3 C 16,2.446 15.554,2 15,2 Z M 13,3 h 1 V 5 H 13 Z M 1,10 c -0.554,0 -1,0.446 -1,1 v 2 c 0,0.554 0.446,1 1,1 h 14 c 0.554,0 1,-0.446 1,-1 v -2 c 0,-0.554 -0.446,-1 -1,-1 z m 10,1 h 3.5 c 0.277,0 0.5,0.223 0.5,0.5 v 1 C 15,12.777 14.777,13 14.5,13 H 11 Z"
       style="opacity:1;fill:#000000;fill-opacity:1;stroke:none;stroke-width:7.5;stroke-linecap:round;stroke-miterlimit:4;stroke-dasharray:none;stroke-opacity:1" />
  </g>
</svg>
