<?xml version="1.0" encoding="UTF-8" standalone="no"?>
<svg
   xmlns:dc="http://purl.org/dc/elements/1.1/"
   xmlns:cc="http://creativecommons.org/ns#"
   xmlns:rdf="http://www.w3.org/1999/02/22-rdf-syntax-ns#"
   xmlns:svg="http://www.w3.org/2000/svg"
   xmlns="http://www.w3.org/2000/svg"
   id="SVGRoot"
   version="1.1"
   viewBox="0 0 16.0 16.0"
   height="16.0px"
   width="16.0px">
  <metadata
     id="metadata11">
    <rdf:RDF>
      <cc:Work
         rdf:about="">
        <dc:format>image/svg+xml</dc:format>
        <dc:type
           rdf:resource="http://purl.org/dc/dcmitype/StillImage" />
        <dc:title></dc:title>
      </cc:Work>
    </rdf:RDF>
  </metadata>
  <defs
     id="defs1602" />
  <g
     id="layer1">
    <path
       id="rect5403"
       d="M 1.75,1 A 0.750075,0.750075 0 0 0 1,1.75 v 5.5 a 0.750075,0.750075 0 1 0 1.5,0 V 2.5 h 11 v 11 H 8.75 a 0.750075,0.750075 0 1 0 0,1.5 h 5.5 A 0.750075,0.750075 0 0 0 15,14.25 V 1.75 A 0.750075,0.750075 0 0 0 14.25,1 Z m 9.294922,3.0019531 C 9.6351101,3.9855701 7.0098383,4.1714387 7,4.3554688 6.99455,4.4573248 7.7979371,5.3109688 8.703125,6.234375 L 5.9375,9 H 2 C 1.446,9 1,9.446 1,10 v 4 c 0,0.554 0.446,1 1,1 h 4 c 0.554,0 1,-0.446 1,-1 V 10.0625 L 9.765625,7.296875 C 10.689031,8.2020628 11.542675,9.0054453 11.644531,9 11.889905,8.9868823 12.140459,4.3240525 11.908203,4.0917969 11.850139,4.033733 11.514859,4.0074141 11.044922,4.0019531 Z"
       style="opacity:1;fill:#000000;stroke:none;stroke-width:15;stroke-linecap:round;stroke-linejoin:round;stroke-miterlimit:4;stroke-dasharray:none" />
  </g>
</svg>
