<?xml version="1.0" encoding="UTF-8" standalone="no"?>
<!-- Created with Inkscape (http://www.inkscape.org/) -->

<svg
   width="16"
   height="16"
   viewBox="0 0 4.2333333 4.2333333"
   version="1.1"
   id="svg5"
   xmlns="http://www.w3.org/2000/svg"
   xmlns:svg="http://www.w3.org/2000/svg">
  <defs
     id="defs2" />
  <g
     id="layer2">
    <path
       id="path88"
       style="fill:#000000;fill-opacity:1;stroke:none;stroke-width:63.5001;stroke-linecap:round;stroke-linejoin:round;stop-color:#000000"
       d="M 2.1166666,0 C 0.94761268,-5.8814767e-8 -7.258146e-5,0.91797532 0,2.0506116 c 6.1882601e-4,0.5641047 0.24085437,1.1016143 0.66145832,1.4873137 0.0429274,0.039365 0.0795817,0.1168475 0.0795817,0.1751907 V 4.0567795 A 0.17601623,0.17653445 0 0 0 0.993221,4.2159501 L 1.3709757,4.0345578 c 0.044026,-0.021194 0.1172892,-0.026057 0.1643311,-0.01292 0.1888833,0.052746 0.3844999,0.079671 0.5813598,0.080102 1.1690541,3e-7 2.1167392,-0.9184919 2.1166667,-2.0511284 C 4.2334058,0.91797532 3.2857207,-5.8814765e-8 2.1166666,0 Z m 1.175122,1.4247823 a 0.10033311,0.10033755 0 0 1 0.094051,0.152969 L 2.7853597,2.5338077 a 0.34423813,0.34425337 0 0 1 -0.502295,0.088887 L 1.8288289,2.270763 A 0.13131129,0.13131711 0 0 0 1.6681152,2.2702462 L 1.0123413,2.778248 A 0.10026895,0.10027339 0 0 1 0.86558024,2.6459505 L 1.4784627,1.6645716 a 0.32417221,0.32418657 0 0 1 0.4749064,-0.083203 l 0.4599203,0.3596838 a 0.13843848,0.13844461 0 0 0 0.1684651,0.00155 l 0.6588746,-0.498183 a 0.10033311,0.10033755 0 0 1 0.051159,-0.019638 z" />
  </g>
</svg>
