<?xml version="1.0" encoding="UTF-8" standalone="no"?>
<svg
   xmlns:dc="http://purl.org/dc/elements/1.1/"
   xmlns:cc="http://creativecommons.org/ns#"
   xmlns:rdf="http://www.w3.org/1999/02/22-rdf-syntax-ns#"
   xmlns:svg="http://www.w3.org/2000/svg"
   xmlns="http://www.w3.org/2000/svg"
   version="1.1"
   id="svg2985"
   height="16px"
   width="16px">
  <defs
     id="defs2987" />
  <metadata
     id="metadata2990">
    <rdf:RDF>
      <cc:Work
         rdf:about="">
        <dc:format>image/svg+xml</dc:format>
        <dc:type
           rdf:resource="http://purl.org/dc/dcmitype/StillImage" />
        <dc:title></dc:title>
        <dc:creator>
          <cc:Agent>
            <dc:title>T. Gantt</dc:title>
          </cc:Agent>
        </dc:creator>
      </cc:Work>
    </rdf:RDF>
  </metadata>
  <g
     style="opacity:1"
     id="layer2">
    <path
       id="rect815"
       d="M 3.25,4 C 3.1115,4 3,4.1115 3,4.25 v 7.5 C 3,11.8885 3.1115,12 3.25,12 h 1.5 C 4.8885,12 5,11.8885 5,11.75 V 8.7617188 C 6.1727268,9.9763387 8.6642831,12.144665 8.8339844,11.992188 8.9295797,11.906295 8.9749519,10.394019 8.9882812,8.75 c 1.1669738,1.2118426 3.6753558,3.395245 3.8457028,3.242188 0.222169,-0.19962 0.222169,-7.7847557 0,-7.9843755 C 12.663637,3.8547547 10.155255,6.0381576 8.9882812,7.25 8.974952,5.6059812 8.9295797,4.0937055 8.8339844,4.0078125 8.6642831,3.855335 6.1727268,6.0236615 5,7.2382812 V 4.25 C 5,4.1115 4.8885,4 4.75,4 Z"
       style="opacity:1;fill:#000000;fill-opacity:1;stroke:none;stroke-width:7.5;stroke-linecap:round;stroke-miterlimit:4;stroke-dasharray:none;stroke-opacity:1" />
  </g>
</svg>
