<?xml version="1.0" encoding="UTF-8" standalone="no"?>
<svg
   xmlns:dc="http://purl.org/dc/elements/1.1/"
   xmlns:cc="http://creativecommons.org/ns#"
   xmlns:rdf="http://www.w3.org/1999/02/22-rdf-syntax-ns#"
   xmlns:svg="http://www.w3.org/2000/svg"
   xmlns="http://www.w3.org/2000/svg"
   version="1.1"
   id="svg2985"
   height="16px"
   width="16px">
  <defs
     id="defs2987" />
  <metadata
     id="metadata2990">
    <rdf:RDF>
      <cc:Work
         rdf:about="">
        <dc:format>image/svg+xml</dc:format>
        <dc:type
           rdf:resource="http://purl.org/dc/dcmitype/StillImage" />
        <dc:title></dc:title>
        <dc:creator>
          <cc:Agent>
            <dc:title>T. Gantt</dc:title>
          </cc:Agent>
        </dc:creator>
      </cc:Work>
    </rdf:RDF>
  </metadata>
  <g
     style="display:inline;opacity:1"
     id="layer2">
    <path
       id="rect815"
       d="M 0.5,3 C 0.223,3 0,3.223 0,3.5 v 6.587891 L 0.60351562,8.7089844 C 0.77518732,8.3166579 1.2480085,8 1.6640625,8 H 9.9589844 C 10.2014,7.446 10.846973,7 11.404297,7 H 14 V 4.25 C 14,4.1115 13.8885,4 13.75,4 H 6 V 3.5 C 6,3.223 5.777,3 5.5,3 Z M 11.650391,8 C 11.371979,8 11.048942,8.223 10.927734,8.5 L 10.708984,9 H 1.9160156 C 1.7768099,9 1.6152914,9.1115 1.5546875,9.25 l -1.53125,3.5 C -0.03716644,12.8885 0.02485681,13 0.1640625,13 H 13.735625 c 0.139206,0 0.298771,-0.1115 0.359375,-0.25 L 15.954375,8.5 C 16.075583,8.223 15.949583,8 15.671172,8 Z"
       style="opacity:1;vector-effect:none;fill:#000000;fill-opacity:1;stroke:none;stroke-width:5;stroke-linecap:round;stroke-linejoin:round;stroke-miterlimit:4;stroke-dasharray:none;stroke-dashoffset:0;stroke-opacity:1" />
  </g>
</svg>
