<?xml version="1.0" encoding="UTF-8" standalone="no"?>
<svg
   xmlns:dc="http://purl.org/dc/elements/1.1/"
   xmlns:cc="http://creativecommons.org/ns#"
   xmlns:rdf="http://www.w3.org/1999/02/22-rdf-syntax-ns#"
   xmlns:svg="http://www.w3.org/2000/svg"
   xmlns="http://www.w3.org/2000/svg"
   version="1.1"
   id="svg3870"
   height="16px"
   width="16px">
  <defs
     id="defs3872" />
  <metadata
     id="metadata3875">
    <rdf:RDF>
      <cc:Work
         rdf:about="">
        <dc:format>image/svg+xml</dc:format>
        <dc:type
           rdf:resource="http://purl.org/dc/dcmitype/StillImage" />
        <dc:title></dc:title>
        <dc:creator>
          <cc:Agent>
            <dc:title>T. Gantt</dc:title>
          </cc:Agent>
        </dc:creator>
      </cc:Work>
    </rdf:RDF>
  </metadata>
  <g
     style="opacity:1"
     id="layer2">
    <path
       id="rect815"
       d="M 12.25,1 C 12.1115,1 12,1.1115 12,1.25 V 3 H 10.25 C 10.1115,3 10,3.1115 10,3.25 v 1.5 C 10,4.8885 10.1115,5 10.25,5 H 12 V 6.75 C 12,6.8885 12.1115,7 12.25,7 h 1.5 C 13.8885,7 14,6.8885 14,6.75 V 5 h 1.75 C 15.8885,5 16,4.8885 16,4.75 V 3.25 C 16,3.1115 15.8885,3 15.75,3 H 14 V 1.25 C 14,1.1115 13.8885,1 13.75,1 Z M 5,5 c -2.77,0 -5,2.23 -5,5 0,2.77 2.23,5 5,5 2.77,0 5,-2.23 5,-5 C 10,7.23 7.77,5 5,5 Z M 3,8 A 1,1 0 0 1 4,9 1,1 0 0 1 3,10 1,1 0 0 1 2,9 1,1 0 0 1 3,8 Z M 7,8 A 1,1 0 0 1 8,9 1,1 0 0 1 7,10 1,1 0 0 1 6,9 1,1 0 0 1 7,8 Z m -4.5,3 h 5 C 7.777,11 8,11.223 8,11.5 A 3,1.5 0 0 1 5,13 3,1.5 0 0 1 2,11.5 C 2,11.223 2.223,11 2.5,11 Z"
       style="opacity:1;vector-effect:none;fill:#000000;fill-opacity:1;stroke:none;stroke-width:5;stroke-linecap:round;stroke-linejoin:round;stroke-miterlimit:4;stroke-dasharray:none;stroke-dashoffset:0;stroke-opacity:1" />
  </g>
</svg>
