<?xml version="1.0" encoding="UTF-8" standalone="no"?>
<svg
   xmlns:dc="http://purl.org/dc/elements/1.1/"
   xmlns:cc="http://creativecommons.org/ns#"
   xmlns:rdf="http://www.w3.org/1999/02/22-rdf-syntax-ns#"
   xmlns:svg="http://www.w3.org/2000/svg"
   xmlns="http://www.w3.org/2000/svg"
   version="1.1"
   id="svg3870"
   height="16px"
   width="16px">
  <defs
     id="defs3872" />
  <metadata
     id="metadata3875">
    <rdf:RDF>
      <cc:Work
         rdf:about="">
        <dc:format>image/svg+xml</dc:format>
        <dc:type
           rdf:resource="http://purl.org/dc/dcmitype/StillImage" />
        <dc:title></dc:title>
        <dc:creator>
          <cc:Agent>
            <dc:title>T. Gantt</dc:title>
          </cc:Agent>
        </dc:creator>
      </cc:Work>
    </rdf:RDF>
  </metadata>
  <g
     style="opacity:1"
     id="layer2">
    <path
       id="rect815"
       d="m 10.897007,1 c -0.0639,0 -0.12682,0.025251 -0.175789,0.074219 l -0.646515,0.6464843 c -0.09794,0.097934 -0.09794,0.2555814 0,0.3535157 L 12.000576,4 10.074703,5.9277344 c -0.09794,0.097934 -0.09794,0.2555813 0,0.3535156 l 0.646515,0.6464844 c 0.09793,0.097934 0.255593,0.097934 0.353533,0 l 1.925873,-1.9257813 1.925873,1.9257813 c 0.09793,0.097934 0.255595,0.097934 0.353533,0 L 15.926545,6.28125 c 0.09793,-0.097934 0.09793,-0.2555813 0,-0.3535156 L 14.000672,4 15.926545,2.0742188 c 0.09793,-0.097935 0.09793,-0.2555814 0,-0.3535157 L 15.28003,1.0742188 c -0.09793,-0.0979344 -0.255593,-0.0979344 -0.353533,0 L 13.000624,3 11.074751,1.0742188 C 11.025781,1.0252516 10.960915,1 10.897007,1 Z M 5.00024,5 C 2.230107,5 0,7.23 0,10 c 0,2.77 2.230107,5 5.00024,5 2.770133,0 5.00024,-2.23 5.00024,-5 0,-2.77 -2.230107,-5 -5.00024,-5 z m -2.50012,5 h 1.000048 c 0.2770133,0 0.500024,0.223 0.500024,0.5 0,0.277 -0.2230107,0.5 -0.500024,0.5 H 2.50012 c -0.2770133,0 -0.500024,-0.223 -0.500024,-0.5 0,-0.277 0.2230107,-0.5 0.500024,-0.5 z m 4.000192,0 H 7.50036 c 0.2770133,0 0.500024,0.223 0.500024,0.5 0,0.277 -0.2230107,0.5 -0.500024,0.5 H 6.500312 c -0.2770133,0 -0.500024,-0.223 -0.500024,-0.5 0,-0.277 0.2230107,-0.5 0.500024,-0.5 z m -3.000144,2 h 3.000144 c 0.2770133,0 0.500024,0.223 0.500024,0.5 0,0.277 -0.2230107,0.5 -0.500024,0.5 H 3.500168 c -0.2770133,0 -0.500024,-0.223 -0.500024,-0.5 0,-0.277 0.2230107,-0.5 0.500024,-0.5 z"
       style="opacity:1;vector-effect:none;fill:#000000;fill-opacity:1;stroke:none;stroke-width:5;stroke-linecap:round;stroke-linejoin:round;stroke-miterlimit:4;stroke-dasharray:none;stroke-dashoffset:0;stroke-opacity:1" />
  </g>
</svg>
