<?xml version="1.0" encoding="UTF-8" standalone="no"?>
<svg
   xmlns:dc="http://purl.org/dc/elements/1.1/"
   xmlns:cc="http://creativecommons.org/ns#"
   xmlns:rdf="http://www.w3.org/1999/02/22-rdf-syntax-ns#"
   xmlns:svg="http://www.w3.org/2000/svg"
   xmlns="http://www.w3.org/2000/svg"
   version="1.1"
   id="svg3870"
   height="16px"
   width="16px">
  <defs
     id="defs3872" />
  <metadata
     id="metadata3875">
    <rdf:RDF>
      <cc:Work
         rdf:about="">
        <dc:format>image/svg+xml</dc:format>
        <dc:type
           rdf:resource="http://purl.org/dc/dcmitype/StillImage" />
        <dc:title></dc:title>
        <dc:creator>
          <cc:Agent>
            <dc:title>T. Gantt</dc:title>
          </cc:Agent>
        </dc:creator>
      </cc:Work>
    </rdf:RDF>
  </metadata>
  <g
     style="display:inline;opacity:1"
     id="layer2">
    <path
       d="M 5.25,0 C 5.1115,0 5,0.1115 5,0.25 V 2 H 3.25 C 3.1115,2 3,2.1115 3,2.25 v 1.5 C 3,3.8885 3.1115,4 3.25,4 H 5 V 5.75 C 5,5.8885 5.1115,6 5.25,6 h 1.5 C 6.8885,6 7,5.8885 7,5.75 V 4 H 8.75 C 8.8885,4 9,3.8885 9,3.75 V 2.25 C 9,2.1115 8.8885,2 8.75,2 H 7 V 0.25 C 7,0.1115 6.8885,0 6.75,0 Z M 3,7 C 1.338,7 0,8.338 0,10 0,11.662 1.338,13 3,13 4.662,13 6,11.662 6,10 6,8.338 4.662,7 3,7 Z m 10,0 c -1.662,0 -3,1.338 -3,3 0,1.662 1.338,3 3,3 1.662,0 3,-1.338 3,-3 C 16,8.338 14.662,7 13,7 Z M 2,14 C 0.892,14 0,14.892 0,16 H 6 C 6,14.892 5.108,14 4,14 Z m 10,0 c -1.108,0 -2,0.892 -2,2 h 6 c 0,-1.108 -0.892,-2 -2,-2 z"
       style="opacity:1;vector-effect:none;fill:#000000;fill-opacity:1;stroke:none;stroke-width:5;stroke-linecap:round;stroke-linejoin:round;stroke-miterlimit:4;stroke-dasharray:none;stroke-dashoffset:0;stroke-opacity:1"
       id="rect815" />
  </g>
</svg>
