<?xml version="1.0" encoding="UTF-8" standalone="no"?>
<svg
   xmlns:dc="http://purl.org/dc/elements/1.1/"
   xmlns:cc="http://creativecommons.org/ns#"
   xmlns:rdf="http://www.w3.org/1999/02/22-rdf-syntax-ns#"
   xmlns:svg="http://www.w3.org/2000/svg"
   xmlns="http://www.w3.org/2000/svg"
   version="1.1"
   id="svg3870"
   height="16px"
   width="16px">
  <defs
     id="defs3872">
    <pattern
       id="EMFhbasepattern"
       patternUnits="userSpaceOnUse"
       width="6"
       height="6"
       x="0"
       y="0" />
  </defs>
  <metadata
     id="metadata3875">
    <rdf:RDF>
      <cc:Work
         rdf:about="">
        <dc:format>image/svg+xml</dc:format>
        <dc:type
           rdf:resource="http://purl.org/dc/dcmitype/StillImage" />
        <dc:title></dc:title>
        <dc:creator>
          <cc:Agent>
            <dc:title>T. Gantt</dc:title>
          </cc:Agent>
        </dc:creator>
      </cc:Work>
    </rdf:RDF>
  </metadata>
  <g
     style="opacity:1"
     id="layer2">
    <path
       id="rect815"
       d="m 10.896484,1 c -0.0639,0 -0.126812,0.025252 -0.175781,0.074219 l -0.646484,0.6464843 c -0.097939,0.097934 -0.097939,0.2555813 0,0.3535157 L 12,4 10.074219,5.9277344 c -0.097939,0.097934 -0.097939,0.2555813 0,0.3535156 l 0.646484,0.6464844 c 0.09793,0.097934 0.255576,0.097934 0.353516,0 L 13,5.0019531 14.925781,6.9277344 c 0.09793,0.097934 0.255578,0.097934 0.353516,0 L 15.925781,6.28125 c 0.09793,-0.097934 0.09793,-0.2555813 0,-0.3535156 L 14,4 15.925781,2.0742188 c 0.09793,-0.097934 0.09793,-0.2555814 0,-0.3535157 L 15.279297,1.0742188 c -0.09793,-0.0979343 -0.255576,-0.0979343 -0.353516,0 L 13,3 11.074219,1.0742188 C 11.025249,1.0252516 10.960392,1 10.896484,1 Z M 5,5 c -2.770133,0 -5,2.23 -5,5 0,2.77 2.229867,5 5,5 2.770133,0 5,-2.23 5,-5 C 10,7.23 7.770133,5 5,5 Z M 3,9 A 1,1 0 0 1 4,10 1,1 0 0 1 3,11 1,1 0 0 1 2,10 1,1 0 0 1 3,9 Z M 7,9 A 1,1 0 0 1 8,10 1,1 0 0 1 7,11 1,1 0 0 1 6,10 1,1 0 0 1 7,9 Z m -3.5,3 h 3 C 6.777,12 7,12.223 7,12.5 7,12.777 6.777,13 6.5,13 h -3 C 3.223,13 3,12.777 3,12.5 3,12.223 3.223,12 3.5,12 Z"
       style="opacity:1;vector-effect:none;fill:#000000;fill-opacity:1;stroke:none;stroke-width:5;stroke-linecap:round;stroke-linejoin:round;stroke-miterlimit:4;stroke-dasharray:none;stroke-dashoffset:0;stroke-opacity:1" />
  </g>
</svg>
