<?xml version="1.0" encoding="UTF-8" standalone="no"?>
<svg
   xmlns:dc="http://purl.org/dc/elements/1.1/"
   xmlns:cc="http://creativecommons.org/ns#"
   xmlns:rdf="http://www.w3.org/1999/02/22-rdf-syntax-ns#"
   xmlns:svg="http://www.w3.org/2000/svg"
   xmlns="http://www.w3.org/2000/svg"
   version="1.1"
   id="svg2985"
   height="16px"
   width="16px">
  <defs
     id="defs2987" />
  <metadata
     id="metadata2990">
    <rdf:RDF>
      <cc:Work
         rdf:about="">
        <dc:format>image/svg+xml</dc:format>
        <dc:type
           rdf:resource="http://purl.org/dc/dcmitype/StillImage" />
        <dc:title></dc:title>
        <dc:creator>
          <cc:Agent>
            <dc:title>T. Gantt</dc:title>
          </cc:Agent>
        </dc:creator>
      </cc:Work>
    </rdf:RDF>
  </metadata>
  <g
     style="opacity:1"
     id="layer2">
    <path
       id="rect815"
       d="M 2,1 C 1.446,1 1,1.446 1,2 V 6 C 1,6.554 1.446,7 2,7 2.554,7 3,6.554 3,6 V 3.5 C 3,3.223 3.223,3 3.5,3 H 6 C 6.554,3 7,2.554 7,2 7,1.446 6.554,1 6,1 Z m 8,0 C 9.446,1 9,1.446 9,2 9,2.554 9.446,3 10,3 h 2.5 C 12.777,3 13,3.223 13,3.5 V 6 c 0,0.554 0.446,1 1,1 0.554,0 1,-0.446 1,-1 V 2 C 15,1.446 14.554,1 14,1 Z M 2,9 C 1.446,9 1,9.446 1,10 v 4 c 0,0.554 0.446,1 1,1 H 6 C 6.554,15 7,14.554 7,14 7,13.446 6.554,13 6,13 H 3.5 C 3.223,13 3,12.777 3,12.5 V 10 C 3,9.446 2.554,9 2,9 Z m 12,0 c -0.554,0 -1,0.446 -1,1 v 2.5 C 13,12.777 12.777,13 12.5,13 H 10 c -0.554,0 -1,0.446 -1,1 0,0.554 0.446,1 1,1 h 4 c 0.554,0 1,-0.446 1,-1 V 10 C 15,9.446 14.554,9 14,9 Z"
       style="color:#000000;display:inline;overflow:visible;visibility:visible;opacity:1;vector-effect:none;fill:#000000;fill-opacity:1;fill-rule:nonzero;stroke:none;stroke-width:1;stroke-linecap:round;stroke-linejoin:round;stroke-miterlimit:4;stroke-dasharray:none;stroke-dashoffset:0;stroke-opacity:1;marker:none;paint-order:normal;enable-background:accumulate" />
  </g>
</svg>
