<?xml version="1.0" encoding="UTF-8" standalone="no"?>
<svg
   width="16.0px"
   height="16.0px"
   viewBox="0 0 16.0 16.0"
   version="1.1"
   id="SVGRoot"
   xmlns="http://www.w3.org/2000/svg"
   xmlns:svg="http://www.w3.org/2000/svg"
   xmlns:rdf="http://www.w3.org/1999/02/22-rdf-syntax-ns#"
   xmlns:cc="http://creativecommons.org/ns#"
   xmlns:dc="http://purl.org/dc/elements/1.1/">
  <defs
     id="defs6696" />
  <metadata
     id="metadata6699">
    <rdf:RDF>
      <cc:Work
         rdf:about="">
        <dc:format>image/svg+xml</dc:format>
        <dc:type
           rdf:resource="http://purl.org/dc/dcmitype/StillImage" />
      </cc:Work>
    </rdf:RDF>
  </metadata>
  <g
     style="display:inline"
     id="g75493">
    <g
       id="g75481"
       style="display:none"
       transform="translate(26.25,-8.8125001)">
      <path
         style="color:#000000;display:inline;overflow:visible;visibility:visible;fill:#000000;fill-opacity:1;fill-rule:nonzero;stroke:none;stroke-width:8;marker:none;enable-background:accumulate"
         d="M 2,2 V 3 H 1 v 8 h 1 v 2 h 1 v 1 h 2 v -4 h 6 v 4 h 2 v -1 h 1 v -2 h 1 V 3 H 14 V 2 H 10 V 3 H 6 V 2 Z M 3,4 H 4 V 5 H 5 V 6 H 4 V 7 H 3 V 6 H 2 V 5 h 1 z m 9,0 h 1 v 1 h 1 V 6 H 13 V 7 H 12 V 6 H 11 V 5 h 1 z m 0,1 v 1 h 1 V 5 Z M 6,7 H 7 V 8 H 6 Z m 3,0 h 1 V 8 H 9 Z"
         id="path75479" />
    </g>
    <path
       id="rect75483"
       style="vector-effect:none;fill:#000000;fill-opacity:1;stroke:none;stroke-width:5;stroke-linecap:round;stroke-linejoin:round;stroke-miterlimit:4;stroke-dasharray:none;stroke-dashoffset:0;stroke-opacity:1"
       d="M 3.375,2 C 2.89025,2 2.5,2.390275 2.5,2.8750562 v 0.125008 H 2 A 1,1.0000642 0 0 0 1,4.0001284 v 5.1604875 0.02344 C 1,9.6984907 1.000977,10.382107 1.2929688,11.238874 1.5849607,12.095642 2.1660498,13.119955 2.75,13.633559 3.3339502,14.147166 3.9184922,14.147767 4.3554688,13.463627 4.6874973,12.943795 4.934136,12.028853 5.1621094,11.018157 5.2836231,10.479439 5.8227153,10.039578 6.375,10.039578 h 3.25 c 0.552285,0 1.091362,0.4398 1.212891,0.978579 0.227977,1.010704 0.47465,1.92579 0.80664,2.44547 0.436938,0.683961 1.021519,0.68354 1.605469,0.169932 0.583951,-0.513604 1.165039,-1.537918 1.457031,-2.394685 C 14.999022,10.382107 15,9.6984903 15,9.184055 V 9.1606159 4.0001284 A 1,1.0000642 0 0 0 14,3.0000642 H 13.5 C 13.5,2.4460286 13.054,2 12.5,2 H 11 C 10.446,2 10,2.4460286 10,3.0000642 H 6 V 2.8750562 C 6,2.390275 5.60975,2 5.125,2 Z" />
  </g>
</svg>
