<?xml version="1.0" encoding="UTF-8" standalone="no"?>
<svg
   xmlns:dc="http://purl.org/dc/elements/1.1/"
   xmlns:cc="http://creativecommons.org/ns#"
   xmlns:rdf="http://www.w3.org/1999/02/22-rdf-syntax-ns#"
   xmlns:svg="http://www.w3.org/2000/svg"
   xmlns="http://www.w3.org/2000/svg"
   version="1.1"
   id="svg3870"
   height="16px"
   width="16px">
  <defs
     id="defs3872" />
  <metadata
     id="metadata3875">
    <rdf:RDF>
      <cc:Work
         rdf:about="">
        <dc:format>image/svg+xml</dc:format>
        <dc:type
           rdf:resource="http://purl.org/dc/dcmitype/StillImage" />
        <dc:title></dc:title>
        <dc:creator>
          <cc:Agent>
            <dc:title>T. Gantt</dc:title>
          </cc:Agent>
        </dc:creator>
      </cc:Work>
    </rdf:RDF>
  </metadata>
  <g
     style="opacity:1"
     id="layer2">
    <path
       id="rect815"
       d="m 3,1.9999997 c -0.554,0 -1,0.4460058 -1,0.9999544 -0.554,0 -1,0.4460059 -1,0.9999545 V 9.2125619 C 1,9.7240044 1.0002354,10.401634 1.3339844,11.253484 1.6677334,12.105334 2.3326722,13.125638 3,13.636189 3.6673278,14.146739 4.3351353,14.146326 4.6679688,13.466274 5.000802,12.786223 5,11.42245 5,10.571875 V 9.9996354 h 6 v 0.5722396 c 0,0.850575 -8.03e-4,2.214347 0.332031,2.894399 0.332833,0.680052 1.000641,0.680465 1.667969,0.169915 0.667327,-0.510551 1.332267,-1.530855 1.666016,-2.382705 C 14.999765,10.401634 15,9.7240043 15,9.2125619 V 3.9999086 C 15,3.44596 14.554,2.9999541 14,2.9999541 14,2.4460055 13.554,1.9999997 13,1.9999997 h -2 c -0.554,0 -1,0.4460058 -1,0.9999544 H 6 C 6,2.4460055 5.554,1.9999997 5,1.9999997 Z m 0.25,1.9999089 h 0.5 c 0.1385,0 0.25,0.1114949 0.25,0.2499886 v 0.7499659 h 0.75 c 0.1385,0 0.25,0.1114949 0.25,0.2499886 V 5.7498289 C 5,5.8883226 4.8885,5.9998175 4.75,5.9998175 H 4 V 6.7497834 C 4,6.8882771 3.8885,6.999772 3.75,6.999772 H 3.25 C 3.1115,6.999772 3,6.8882771 3,6.7497834 V 5.9998175 H 2.25 C 2.1115,5.9998175 2,5.8883226 2,5.7498289 V 5.2498517 C 2,5.111358 2.1115,4.9998631 2.25,4.9998631 H 3 V 4.2498972 C 3,4.1114035 3.1115,3.9999086 3.25,3.9999086 Z m 9.25,0 c 0.277,0 0.5,0.2229898 0.5,0.4999772 0,0.2769874 -0.223,0.4999773 -0.5,0.4999773 -0.277,0 -0.5,-0.2229899 -0.5,-0.4999773 0,-0.2769874 0.223,-0.4999772 0.5,-0.4999772 z m -1,0.9999545 c 0.277,0 0.5,0.2229898 0.5,0.4999772 0,0.2769874 -0.223,0.4999772 -0.5,0.4999772 -0.277,0 -0.5,-0.2229898 -0.5,-0.4999772 0,-0.2769874 0.223,-0.4999772 0.5,-0.4999772 z m 2,0 c 0.277,0 0.5,0.2229898 0.5,0.4999772 0,0.2769874 -0.223,0.4999772 -0.5,0.4999772 -0.277,0 -0.5,-0.2229898 -0.5,-0.4999772 0,-0.2769874 0.223,-0.4999772 0.5,-0.4999772 z m -1,0.9999544 c 0.277,0 0.5,0.2229899 0.5,0.4999773 0,0.2769874 -0.223,0.4999772 -0.5,0.4999772 -0.277,0 -0.5,-0.2229898 -0.5,-0.4999772 0,-0.2769874 0.223,-0.4999773 0.5,-0.4999773 z M 6.25,6.999772 h 0.5 c 0.1385,0 0.25,0.1114949 0.25,0.2499886 V 7.7497379 C 7,7.8882315 6.8885,7.9997265 6.75,7.9997265 H 6.25 C 6.1115,7.9997265 6,7.8882315 6,7.7497379 V 7.2497606 C 6,7.1112669 6.1115,6.999772 6.25,6.999772 Z m 3,0 h 0.5 c 0.1385,0 0.25,0.1114949 0.25,0.2499886 V 7.7497379 C 10,7.8882315 9.8885,7.9997265 9.75,7.9997265 H 9.25 C 9.1115,7.9997265 9,7.8882315 9,7.7497379 V 7.2497606 C 9,7.1112669 9.1115,6.999772 9.25,6.999772 Z"
       style="opacity:1;vector-effect:none;fill:#000000;fill-opacity:1;stroke:none;stroke-width:5;stroke-linecap:round;stroke-linejoin:round;stroke-miterlimit:4;stroke-dasharray:none;stroke-dashoffset:0;stroke-opacity:1" />
  </g>
</svg>
