<?xml version="1.0" encoding="UTF-8" standalone="no"?>
<svg
   xmlns:dc="http://purl.org/dc/elements/1.1/"
   xmlns:cc="http://creativecommons.org/ns#"
   xmlns:rdf="http://www.w3.org/1999/02/22-rdf-syntax-ns#"
   xmlns:svg="http://www.w3.org/2000/svg"
   xmlns="http://www.w3.org/2000/svg"
   width="16.0px"
   height="16.0px"
   viewBox="0 0 16.0 16.0"
   version="1.1"
   id="SVGRoot">
  <defs
     id="defs6696" />
  <metadata
     id="metadata6699">
    <rdf:RDF>
      <cc:Work
         rdf:about="">
        <dc:format>image/svg+xml</dc:format>
        <dc:type
           rdf:resource="http://purl.org/dc/dcmitype/StillImage" />
        <dc:title></dc:title>
      </cc:Work>
    </rdf:RDF>
  </metadata>
  <g
     style="display:inline"
     id="g4253">
    <path
       d="M 2.75,0 A 0.750075,0.750075 0 0 0 2,0.75 v 14.5 A 0.750075,0.750075 0 0 0 2.75,16 h 10.5 A 0.750075,0.750075 0 0 0 14,15.25 V 0.75 A 0.750075,0.750075 0 0 0 13.25,0 Z M 3.5,1.5 h 9 v 13 h -9 z M 6.09375,3 C 5.5586391,3.0062571 5.0746661,3.330733 4.9257812,3.8222656 4.7154561,4.5166392 4.4675689,6.2384055 4.5039062,7.1035156 4.52948,7.7123696 4.7900206,8.3051319 5.203125,8.4648438 5.6162295,8.6245557 5.9984229,8.2344586 6.2148438,7.6796875 L 6.4785156,7.0019531 H 9.5214844 L 9.7851562,7.6796875 C 10.001577,8.2344586 10.385724,8.6245557 10.798828,8.4648438 11.211933,8.3051319 11.470521,7.7123696 11.496094,7.1035156 11.532428,6.2384055 11.284545,4.5166391 11.074219,3.8222656 10.926142,3.3334007 10.445704,3.0096616 9.9140625,3 Z M 5.25,9.5 C 4.8345,9.5 4.5,9.8345 4.5,10.25 4.5,10.6655 4.8345,11 5.25,11 h 5.5 c 0.4155,0 0.75,-0.3345 0.75,-0.75 0,-0.4155 -0.3345,-0.75 -0.75,-0.75 z m 0,2 C 4.8345,11.5 4.5,11.8345 4.5,12.25 4.5,12.6655 4.8345,13 5.25,13 h 4.5 c 0.4155,0 0.75,-0.3345 0.75,-0.75 0,-0.4155 -0.3345,-0.75 -0.75,-0.75 z"
       style="color:#000000;font-style:normal;font-variant:normal;font-weight:normal;font-stretch:normal;font-size:medium;line-height:normal;font-family:sans-serif;font-variant-ligatures:normal;font-variant-position:normal;font-variant-caps:normal;font-variant-numeric:normal;font-variant-alternates:normal;font-variant-east-asian:normal;font-feature-settings:normal;font-variation-settings:normal;text-indent:0;text-align:start;text-decoration:none;text-decoration-line:none;text-decoration-style:solid;text-decoration-color:#000000;letter-spacing:normal;word-spacing:normal;text-transform:none;writing-mode:lr-tb;direction:ltr;text-orientation:mixed;dominant-baseline:auto;baseline-shift:baseline;text-anchor:start;white-space:normal;shape-padding:0;shape-margin:0;inline-size:0;clip-rule:nonzero;display:inline;overflow:visible;visibility:visible;opacity:1;isolation:auto;mix-blend-mode:normal;color-interpolation:sRGB;color-interpolation-filters:linearRGB;solid-color:#000000;solid-opacity:1;vector-effect:none;fill:#000000;fill-opacity:1;fill-rule:nonzero;stroke:none;stroke-width:1.5;stroke-linecap:round;stroke-linejoin:round;stroke-miterlimit:4;stroke-dasharray:none;stroke-dashoffset:0;stroke-opacity:1;color-rendering:auto;image-rendering:auto;shape-rendering:auto;text-rendering:auto;enable-background:accumulate;stop-color:#000000;stop-opacity:1"
       id="path921" />
  </g>
</svg>
