<?xml version="1.0" encoding="UTF-8" standalone="no"?>
<!-- Created with Inkscape (http://www.inkscape.org/) -->

<svg
   width="16.0px"
   height="16.0px"
   viewBox="0 0 16.0 16.0"
   version="1.1"
   id="SVGRoot"
   xmlns="http://www.w3.org/2000/svg"
   xmlns:svg="http://www.w3.org/2000/svg">
  <defs
     id="defs1498" />
  <g
     id="layer2">
    <path
       id="path625"
       style="color:#000000;fill:#000000;stroke-linecap:round;stroke-linejoin:round;-inkscape-stroke:none"
       d="M 7.0064185,0.00195313 A 0.75008001,0.75008001 0 0 0 6.4009497,0.24023438 L 2.1997779,4.7714844 a 0.75008001,0.75008001 0 0 0 -0.1132813,0.859375 l 5.25,9.9687496 A 0.75008001,0.75008001 0 0 0 8.0005591,16 h 2.7714839 a 0.75008001,0.75008001 0 0 0 0.589844,-0.285156 l 1.427734,-1.8125 a 0.75008001,0.75008001 0 0 0 0.15625,-0.378906 L 13.9947,4.4609375 A 0.75008001,0.75008001 0 0 0 13.625559,3.7246094 L 7.3247779,0.09960937 A 0.75008001,0.75008001 0 0 0 7.0064185,0.00195313 Z M 6.6802466,2.1445312 8.0708716,5.203125 4.2446997,4.7714844 Z M 8.4888403,2.5 11.6197,4.3007812 9.6802466,5.1210938 Z M 4.1157935,6.2675781 8.6529029,6.7773438 9.9146216,14.5 H 8.4536841 Z" />
  </g>
</svg>
