<?xml version="1.0" encoding="UTF-8" standalone="no"?>
<svg
   xmlns:dc="http://purl.org/dc/elements/1.1/"
   xmlns:cc="http://creativecommons.org/ns#"
   xmlns:rdf="http://www.w3.org/1999/02/22-rdf-syntax-ns#"
   xmlns:svg="http://www.w3.org/2000/svg"
   xmlns="http://www.w3.org/2000/svg"
   version="1.1"
   id="svg2985"
   height="16px"
   width="16px">
  <defs
     id="defs2987" />
  <metadata
     id="metadata2990">
    <rdf:RDF>
      <cc:Work
         rdf:about="">
        <dc:format>image/svg+xml</dc:format>
        <dc:type
           rdf:resource="http://purl.org/dc/dcmitype/StillImage" />
        <dc:title></dc:title>
        <dc:creator>
          <cc:Agent>
            <dc:title>T. Gantt</dc:title>
          </cc:Agent>
        </dc:creator>
      </cc:Work>
    </rdf:RDF>
  </metadata>
  <g
     id="g1013"
     style="display:inline;opacity:1">
    <path
       id="rect991"
       d="M 1,2 C 0.446,2 0,2.446 0,3 v 10 c 0,0.554 0.446,1 1,1 h 14 c 0.554,0 1,-0.446 1,-1 V 3 C 16,2.446 15.554,2 15,2 Z m 2,2 h 2.5 c 0.1385,0 0.25,0.1115 0.25,0.25 v 1 C 5.75,5.3885 5.6385,5.5 5.5,5.5 H 3.375 C 3.02875,5.5 2.75,5.77875 2.75,6.125 v 3.75 c 0,0.34625 0.27875,0.625 0.625,0.625 h 0.25 C 3.97125,10.5 4.25,10.22125 4.25,9.875 V 8.5 H 3.75 C 3.6115,8.5 3.5,8.3885 3.5,8.25 v -1 C 3.5,7.1115 3.6115,7 3.75,7 H 5 c 0.4155,0 0.75,0.3345 0.75,0.75 v 2.5 C 5.75,11.2195 4.9695,12 4,12 H 3 C 2.0305,12 1.25,11.2195 1.25,10.25 V 5.75 C 1.25,4.7805 2.0305,4 3,4 Z m 4.5,0 h 1 c 0.1385,0 0.25,0.1115 0.25,0.25 v 7.5 C 8.75,11.8885 8.6385,12 8.5,12 h -1 C 7.3615,12 7.25,11.8885 7.25,11.75 V 4.25 C 7.25,4.1115 7.3615,4 7.5,4 Z m 3,0 h 0.75 0.25 3 c 0.1385,0 0.25,0.1115 0.25,0.25 v 1 c 0,0.1385 -0.1115,0.25 -0.25,0.25 H 11.75 V 7 h 2.75 c 0.1385,0 0.25,0.1115 0.25,0.25 v 1 c 0,0.1385 -0.1115,0.25 -0.25,0.25 h -2.75 v 3.25 c 0,0.1385 -0.1115,0.25 -0.25,0.25 h -1 c -0.1385,0 -0.25,-0.1115 -0.25,-0.25 V 4.25 C 10.25,4.1115 10.3615,4 10.5,4 Z"
       style="opacity:1;vector-effect:none;fill:#000000;fill-opacity:1;stroke:none;stroke-width:1;stroke-linecap:round;stroke-linejoin:round;stroke-miterlimit:4;stroke-dasharray:none;stroke-dashoffset:0;stroke-opacity:1" />
  </g>
</svg>
