<?xml version="1.0" encoding="UTF-8" standalone="no"?>
<!-- Created with Inkscape (http://www.inkscape.org/) -->

<svg
   width="16"
   height="16"
   viewBox="0 0 16 16"
   version="1.1"
   id="svg5"
   xmlns="http://www.w3.org/2000/svg"
   xmlns:svg="http://www.w3.org/2000/svg">
  <defs
     id="defs2" />
  <g
     id="layer1">
    <path
       id="rect3020"
       style="fill:#000000;stroke:none;stroke-width:8;stroke-linecap:round;stroke-linejoin:round;stop-color:#000000"
       d="M 5.375,0 C 4.4957157,0 3.6857655,0.26490039 3.0644531,0.73828125 2.4431407,1.2116621 2,1.9317182 2,2.75 2,3.2053939 2.1364075,3.6310387 2.3652344,4 H 1.1425781 C 0.50943537,4 0,4.446 0,5 V 6 C 0,6.554 0.50943535,7 1.1425781,7 H 7 V 4 H 5.375 C 4.8045383,4 4.301406,3.8188354 3.9726562,3.5683594 3.6439066,3.3178834 3.5,3.0362866 3.5,2.75 3.5,2.4637134 3.6439066,2.1821166 3.9726562,1.9316406 4.3014059,1.6811646 4.8045383,1.5 5.375,1.5 5.9454617,1.5 6.4485941,1.6811646 6.7773438,1.9316406 7.1060935,2.1821166 7.25,2.4637134 7.25,2.75 V 4 h 1.5 V 2.75 C 8.75,2.4637134 8.8939064,2.1821166 9.2226562,1.9316406 9.5514061,1.6811646 10.054538,1.5 10.625,1.5 c 0.570462,0 1.073594,0.1811646 1.402344,0.4316406 C 12.356094,2.1821166 12.5,2.4637134 12.5,2.75 12.5,3.0362866 12.356094,3.3178834 12.027344,3.5683594 11.698594,3.8188354 11.195462,4 10.625,4 H 9 v 3 h 5.857422 C 15.490565,7 16,6.554 16,6 V 5 C 16,4.446 15.490565,4 14.857422,4 H 13.634766 C 13.863593,3.6310387 14,3.2053939 14,2.75 14,1.9317182 13.556859,1.2116621 12.935547,0.73828125 12.314234,0.26490039 11.504284,0 10.625,0 9.7457157,0 8.9357655,0.26490039 8.3144531,0.73828125 8.2031342,0.82309568 8.098356,0.91582735 8,1.015625 7.901644,0.91582735 7.7968658,0.82309568 7.6855469,0.73828125 7.0642345,0.26490039 6.2542843,0 5.375,0 Z M 1,8 v 7 c 0,0.554 0.446,1 1,1 H 7 V 8 Z m 8,0 v 8 h 5 c 0.554,0 1,-0.446 1,-1 V 8 Z" />
  </g>
</svg>
