<?xml version="1.0" encoding="UTF-8" standalone="no"?>
<svg
   xmlns:dc="http://purl.org/dc/elements/1.1/"
   xmlns:cc="http://creativecommons.org/ns#"
   xmlns:rdf="http://www.w3.org/1999/02/22-rdf-syntax-ns#"
   xmlns:svg="http://www.w3.org/2000/svg"
   xmlns="http://www.w3.org/2000/svg"
   version="1.1"
   id="svg2985"
   height="16px"
   width="16px">
  <defs
     id="defs2987" />
  <metadata
     id="metadata2990">
    <rdf:RDF>
      <cc:Work
         rdf:about="">
        <dc:format>image/svg+xml</dc:format>
        <dc:type
           rdf:resource="http://purl.org/dc/dcmitype/StillImage" />
        <dc:title></dc:title>
        <dc:creator>
          <cc:Agent>
            <dc:title>T. Gantt</dc:title>
          </cc:Agent>
        </dc:creator>
      </cc:Work>
    </rdf:RDF>
  </metadata>
  <g
     style="display:inline;opacity:1"
     id="layer2">
    <path
       id="path815"
       d="M 8.0550286,3.0003028 C 7.0478442,2.989222 6.0607976,3.2826044 5.2231924,3.8420167 3.2391373,5.1672093 2.4679643,7.7096336 3.3815225,9.9136836 4.2943146,12.116678 6.635949,13.368402 8.9748871,12.903623 11.314734,12.43863 13.000097,10.385346 13,7.9998098 V 6.9999084 H 8.0003448 v 1.9998028 h 2.8240242 c -0.423238,1.1970668 -1.5543073,1.9980208 -2.8240242,1.9998028 -1.65674,0 -2.9997933,-1.3430133 -2.9997933,-2.9997042 0,-1.6566908 1.3430533,-2.9997042 2.9997933,-2.9997042 0.7951523,0.00116 1.5573155,0.3179532 2.1189942,0.8807726 l 1.415918,-1.415876 C 10.611235,3.5406472 9.361967,3.0148767 8.0550286,3.0003028 Z"
       style="opacity:1;vector-effect:none;fill:#000000;fill-opacity:1;stroke:none;stroke-width:5;stroke-linecap:round;stroke-linejoin:round;stroke-miterlimit:4;stroke-dasharray:none;stroke-dashoffset:0;stroke-opacity:1" />
  </g>
</svg>
