<?xml version="1.0" encoding="UTF-8" standalone="no"?>
<svg
   xmlns:dc="http://purl.org/dc/elements/1.1/"
   xmlns:cc="http://creativecommons.org/ns#"
   xmlns:rdf="http://www.w3.org/1999/02/22-rdf-syntax-ns#"
   xmlns:svg="http://www.w3.org/2000/svg"
   xmlns="http://www.w3.org/2000/svg"
   version="1.1"
   id="svg2985"
   height="16px"
   width="16px">
  <defs
     id="defs2987" />
  <metadata
     id="metadata2990">
    <rdf:RDF>
      <cc:Work
         rdf:about="">
        <dc:format>image/svg+xml</dc:format>
        <dc:type
           rdf:resource="http://purl.org/dc/dcmitype/StillImage" />
        <dc:title></dc:title>
        <dc:creator>
          <cc:Agent>
            <dc:title>T. Gantt</dc:title>
          </cc:Agent>
        </dc:creator>
      </cc:Work>
    </rdf:RDF>
  </metadata>
  <g
     style="display:inline;opacity:1"
     id="layer2">
    <path
       id="path815"
       d="M 5.0546875,3 C 4.0474337,2.9889181 3.0603191,3.2823294 2.2226562,3.8417969 0.23846447,5.1671201 -0.53276186,7.7097951 0.38085938,9.9140625 1.2937144,12.117275 3.6355101,13.369121 5.9746094,12.904297 8.3146181,12.439258 10.000097,10.385771 10,8 V 7 H 5 V 9 H 7.8242188 C 7.4009516,10.197184 6.2698042,10.998218 5,11 3.3431458,11 2,9.6568542 2,8 2,6.3431458 3.3431458,5 5,5 5.7952069,5.0011558 6.5574225,5.3179846 7.1191406,5.8808594 L 8.5351562,4.4648438 C 7.61107,3.5403976 6.3617161,3.0145752 5.0546875,3 Z M 13,5 v 2 h -2 v 1 h 2 v 2 h 1 V 8 h 2 V 7 H 14 V 5 Z"
       style="opacity:1;vector-effect:none;fill:#000000;fill-opacity:1;stroke:none;stroke-width:5;stroke-linecap:round;stroke-linejoin:round;stroke-miterlimit:4;stroke-dasharray:none;stroke-dashoffset:0;stroke-opacity:1" />
  </g>
</svg>
