<?xml version="1.0" encoding="UTF-8" standalone="no"?>
<svg
   xmlns:dc="http://purl.org/dc/elements/1.1/"
   xmlns:cc="http://creativecommons.org/ns#"
   xmlns:rdf="http://www.w3.org/1999/02/22-rdf-syntax-ns#"
   xmlns:svg="http://www.w3.org/2000/svg"
   xmlns="http://www.w3.org/2000/svg"
   id="SVGRoot"
   version="1.1"
   viewBox="0 0 16 16"
   height="16px"
   width="16px">
  <defs
     id="defs1974" />
  <metadata
     id="metadata1977">
    <rdf:RDF>
      <cc:Work
         rdf:about="">
        <dc:format>image/svg+xml</dc:format>
        <dc:type
           rdf:resource="http://purl.org/dc/dcmitype/StillImage" />
        <dc:title></dc:title>
        <dc:creator>
          <cc:Agent>
            <dc:title>T. Gantt</dc:title>
          </cc:Agent>
        </dc:creator>
      </cc:Work>
    </rdf:RDF>
  </metadata>
  <g
     style="display:inline"
     id="layer1">
    <path
       id="rect2535"
       d="M 2.5,3 C 2.223,3 2,3.223 2,3.5 v 9 C 2,12.777 2.223,13 2.5,13 h 1 C 3.777,13 4,12.777 4,12.5 V 9 h 2 v 3.5 C 6,12.777 6.223,13 6.5,13 h 1 C 7.777,13 8,12.777 8,12.5 v -9 C 8,3.223 7.777,3 7.5,3 h -1 C 6.223,3 6,3.223 6,3.5 V 7 H 4 V 3.5 C 4,3.223 3.777,3 3.5,3 Z m 8.933594,0 C 11.30582,3 11.177985,3.048574 11.080078,3.1464844 l -0.933594,0.9335937 c -0.1958131,0.1958198 -0.1958131,0.5112115 0,0.7070313 l 0.06641,0.066406 c 0.195813,0.1958198 0.511217,0.1958198 0.707031,0 L 11,4.7734375 V 11 H 10.5 C 10.223,11 10,11.223 10,11.5 v 1 c 0,0.277 0.223,0.5 0.5,0.5 h 3 c 0.277,0 0.5,-0.223 0.5,-0.5 v -1 C 14,11.223 13.777,11 13.5,11 H 13 V 3.5 C 13,3.223 12.777,3 12.5,3 Z"
       style="opacity:1;vector-effect:none;fill:#000000;fill-opacity:1;fill-rule:nonzero;stroke:none;stroke-width:24.99999809;stroke-linecap:round;stroke-linejoin:round;stroke-miterlimit:4;stroke-dasharray:none;stroke-dashoffset:0;stroke-opacity:1" />
  </g>
</svg>
