<?xml version="1.0" encoding="UTF-8" standalone="no"?>
<svg
   xmlns:dc="http://purl.org/dc/elements/1.1/"
   xmlns:cc="http://creativecommons.org/ns#"
   xmlns:rdf="http://www.w3.org/1999/02/22-rdf-syntax-ns#"
   xmlns:svg="http://www.w3.org/2000/svg"
   xmlns="http://www.w3.org/2000/svg"
   id="SVGRoot"
   version="1.1"
   viewBox="0 0 16 16"
   height="16px"
   width="16px">
  <defs
     id="defs1974" />
  <metadata
     id="metadata1977">
    <rdf:RDF>
      <cc:Work
         rdf:about="">
        <dc:format>image/svg+xml</dc:format>
        <dc:type
           rdf:resource="http://purl.org/dc/dcmitype/StillImage" />
        <dc:title></dc:title>
        <dc:creator>
          <cc:Agent>
            <dc:title>T. Gantt</dc:title>
          </cc:Agent>
        </dc:creator>
      </cc:Work>
    </rdf:RDF>
  </metadata>
  <g
     style="display:inline"
     id="layer3">
    <path
       id="rect868"
       d="M 3.5,5 C 3.223,5 3,5.223 3,5.5 v 6 C 3,11.777 3.223,12 3.5,12 3.777,12 4,11.777 4,11.5 V 9 h 2 v 2.5 C 6,11.777 6.223,12 6.5,12 6.777,12 7,11.777 7,11.5 v -6 C 7,5.223 6.777,5 6.5,5 6.223,5 6,5.223 6,5.5 V 8 H 4 V 5.5 C 4,5.223 3.777,5 3.5,5 Z M 11,5 A 2,2 0 0 0 9,7 C 9,7.277 9.223,7.5 9.5,7.5 9.777,7.5 10,7.277 10,7 a 1,1 0 0 1 1,-1 1,1 0 0 1 1,1 1,1 0 0 1 -0.292969,0.7070312 L 9.5859375,9.828125 A 2,2 0 0 0 9,11.242188 V 11.5 C 9,11.777 9.223,12 9.5,12 h 3 C 12.777,12 13,11.777 13,11.5 13,11.223 12.777,11 12.5,11 h -2.46875 a 1,1 0 0 1 0.261719,-0.464844 L 12.414062,8.4140625 A 2,2 0 0 0 13,7 2,2 0 0 0 11,5 Z"
       style="opacity:1;vector-effect:none;fill:#000000;fill-opacity:1;fill-rule:nonzero;stroke:none;stroke-width:25;stroke-linecap:round;stroke-linejoin:round;stroke-miterlimit:4;stroke-dasharray:none;stroke-dashoffset:0;stroke-opacity:1" />
  </g>
</svg>
