<?xml version="1.0" encoding="UTF-8" standalone="no"?>
<!-- Created with Inkscape (http://www.inkscape.org/) -->

<svg
   width="16"
   height="16"
   viewBox="0 0 4.2333332 4.2333333"
   version="1.1"
   id="svg5"
   xmlns="http://www.w3.org/2000/svg"
   xmlns:svg="http://www.w3.org/2000/svg">
  <defs
     id="defs2" />
  <g
     id="layer1"
     style="fill:#000000;stroke:none">
    <path
       style="opacity:1;vector-effect:none;fill:#000000;fill-opacity:1;stroke:none;stroke-width:1;stroke-linecap:butt;stroke-linejoin:miter;stroke-miterlimit:4;stroke-dasharray:none;stroke-dashoffset:0;stroke-opacity:1;stop-color:#000000"
       d="M -5.8593748e-8,2.5135416 -5.2388012e-8,2.387441 A 1.2058744,1.2058744 131.43749 0 1 1.056304,1.1908786 8.5655649,8.5655649 0.01392011 0 1 3.1811591,1.1913949 1.2035188,1.2035188 48.661579 0 1 4.2333332,2.387441 V 2.5135416 A 0.35522016,0.35522016 138.1701 0 1 3.8388855,2.8665891 L 3.437156,2.8219525 A 0.47656246,0.47656246 46.127285 0 1 3.0144321,2.3822585 L 3.014264,2.3799051 A 0.5683124,0.5683124 42.95719 0 0 2.4473959,1.8520833 H 1.7859374 A 0.56831234,0.56831234 137.04281 0 0 1.2190693,2.3799051 l -1.681e-4,0.00235 A 0.4765624,0.4765624 133.87271 0 1 0.79617734,2.8219525 L 0.39444758,2.8665891 A 0.35522015,0.35522015 41.829907 0 1 -5.8593748e-8,2.5135416 Z"
       id="path292" />
  </g>
</svg>
