<?xml version="1.0" encoding="UTF-8" standalone="no"?>
<svg
   xmlns:dc="http://purl.org/dc/elements/1.1/"
   xmlns:cc="http://creativecommons.org/ns#"
   xmlns:rdf="http://www.w3.org/1999/02/22-rdf-syntax-ns#"
   xmlns:svg="http://www.w3.org/2000/svg"
   xmlns="http://www.w3.org/2000/svg"
   width="16px"
   height="16px"
   id="svg2985"
   version="1.1">
  <defs
     id="defs2987" />
  <metadata
     id="metadata2990">
    <rdf:RDF>
      <cc:Work
         rdf:about="">
        <dc:format>image/svg+xml</dc:format>
        <dc:type
           rdf:resource="http://purl.org/dc/dcmitype/StillImage" />
        <dc:title></dc:title>
        <dc:creator>
          <cc:Agent>
            <dc:title>T. Gantt</dc:title>
          </cc:Agent>
        </dc:creator>
      </cc:Work>
    </rdf:RDF>
  </metadata>
  <g
     id="layer2">
    <path
       style="color:#000000;font-style:normal;font-variant:normal;font-weight:normal;font-stretch:normal;font-size:medium;line-height:normal;font-family:sans-serif;font-variant-ligatures:normal;font-variant-position:normal;font-variant-caps:normal;font-variant-numeric:normal;font-variant-alternates:normal;font-variant-east-asian:normal;font-feature-settings:normal;font-variation-settings:normal;text-indent:0;text-align:start;text-decoration:none;text-decoration-line:none;text-decoration-style:solid;text-decoration-color:#000000;letter-spacing:normal;word-spacing:normal;text-transform:none;writing-mode:lr-tb;direction:ltr;text-orientation:mixed;dominant-baseline:auto;baseline-shift:baseline;text-anchor:start;white-space:normal;shape-padding:0;shape-margin:0;inline-size:0;clip-rule:nonzero;display:inline;overflow:visible;visibility:visible;opacity:1;isolation:auto;mix-blend-mode:normal;color-interpolation:sRGB;color-interpolation-filters:linearRGB;solid-color:#000000;solid-opacity:1;vector-effect:none;fill:#000000;fill-opacity:1;fill-rule:nonzero;stroke:none;stroke-width:0.929769;stroke-linecap:round;stroke-linejoin:round;stroke-miterlimit:4;stroke-dasharray:none;stroke-dashoffset:0;stroke-opacity:1;color-rendering:auto;image-rendering:auto;shape-rendering:auto;text-rendering:auto;enable-background:accumulate;stop-color:#000000;stop-opacity:1"
       d="M 5.1992188,2 C 2.8876024,2 1,3.8690681 1,6.1679688 c -5.2161e-4,1.1261187 0.4593131,2.20559 1.2714844,2.9902343 l 5.234375,5.1933589 C 7.6395091,14.484116 7.8193387,14.554688 8,14.554688 c 0.1806577,0 0.3605002,-0.07058 0.4941406,-0.203126 L 13.728516,9.1582031 C 14.540686,8.3735587 15.00052,7.294087 15,6.1679688 15,3.869068 13.112398,2 10.800781,2 9.7441134,2.000282 8.7709331,2.4528846 8,3.15625 7.229067,2.4528846 6.255887,2.000282 5.1992188,2 Z m 0,0.9296875 c 0.9398454,2.508e-4 1.8329755,0.4015936 2.453125,1.0996094 a 0.46493098,0.46493098 0 0 0 0.6953124,0 C 8.9678057,3.3312811 9.8609364,2.9299383 10.800781,2.9296875 c 1.813234,0 3.269532,1.4460006 3.269531,3.2382813 a 0.46493098,0.46493098 0 0 0 0,0.00195 c 4.04e-4,0.8734708 -0.35433,1.7097353 -0.986328,2.3203125 a 0.46493098,0.46493098 0 0 0 -0.0059,0.00391 L 8,13.53125 2.921875,8.4941406 a 0.46493098,0.46493098 0 0 0 -0.00586,-0.00391 C 2.2840179,7.8796571 1.9292829,7.0433921 1.9296875,6.1699219 a 0.46493098,0.46493098 0 0 0 0,-0.00195 c 0,-1.7922808 1.456298,-3.2382813 3.2695313,-3.2382813 z"
       id="path880" />
  </g>
</svg>
