<?xml version="1.0" encoding="UTF-8" standalone="no"?>
<svg
   xmlns:dc="http://purl.org/dc/elements/1.1/"
   xmlns:cc="http://creativecommons.org/ns#"
   xmlns:rdf="http://www.w3.org/1999/02/22-rdf-syntax-ns#"
   xmlns:svg="http://www.w3.org/2000/svg"
   xmlns="http://www.w3.org/2000/svg"
   id="SVGRoot"
   version="1.1"
   viewBox="0 0 16 16"
   height="16px"
   width="16px">
  <defs
     id="defs1974" />
  <metadata
     id="metadata1977">
    <rdf:RDF>
      <cc:Work
         rdf:about="">
        <dc:format>image/svg+xml</dc:format>
        <dc:type
           rdf:resource="http://purl.org/dc/dcmitype/StillImage" />
        <dc:title></dc:title>
        <dc:creator>
          <cc:Agent>
            <dc:title>T. Gantt</dc:title>
          </cc:Agent>
        </dc:creator>
      </cc:Work>
    </rdf:RDF>
  </metadata>
  <g
     id="layer2">
    <path
       id="rect1195"
       d="M 3,2 C 2.446,2 2,2.446 2,3 v 9 c 0,0.554 0.446,1 1,1 h 11 c 0.554,0 1,-0.446 1,-1 V 3 C 15,2.446 14.554,2 14,2 Z M 3,4 H 6 V 6 H 3 Z m 4,0 h 3 V 6 H 7 Z m 4,0 h 3 V 6 H 11 Z M 3,7 H 6 V 9 H 3 Z m 4,0 h 3 V 9 H 7 Z m 4,0 h 3 v 2 h -3 z m -8,3 h 3 v 2 H 3 Z m 4,0 h 3 v 2 H 7 Z m 4,0 h 3 v 2 h -3 z"
       style="opacity:1;vector-effect:none;fill:#000000;fill-opacity:1;fill-rule:nonzero;stroke:none;stroke-width:25;stroke-linecap:round;stroke-linejoin:round;stroke-miterlimit:4;stroke-dasharray:none;stroke-dashoffset:0;stroke-opacity:1" />
  </g>
</svg>
