<?xml version="1.0" encoding="UTF-8" standalone="no"?>
<svg
   xmlns:dc="http://purl.org/dc/elements/1.1/"
   xmlns:cc="http://creativecommons.org/ns#"
   xmlns:rdf="http://www.w3.org/1999/02/22-rdf-syntax-ns#"
   xmlns:svg="http://www.w3.org/2000/svg"
   xmlns="http://www.w3.org/2000/svg"
   version="1.1"
   id="svg2985"
   height="16px"
   width="16px">
  <defs
     id="defs2987" />
  <metadata
     id="metadata2990">
    <rdf:RDF>
      <cc:Work
         rdf:about="">
        <dc:format>image/svg+xml</dc:format>
        <dc:type
           rdf:resource="http://purl.org/dc/dcmitype/StillImage" />
        <dc:title></dc:title>
        <dc:creator>
          <cc:Agent>
            <dc:title>T. Gantt</dc:title>
          </cc:Agent>
        </dc:creator>
      </cc:Work>
    </rdf:RDF>
  </metadata>
  <g
     style="display:inline;opacity:1"
     id="layer2">
    <path
       id="path841"
       d="M 2.296875,1 0.16796875,3.4082031 c -6.5461e-4,0.00195 -0.001306,0.00391 -0.001953,0.00586 C 0.09578833,3.6014714 0.05941583,3.7998668 0.05859375,4 0.05867078,4.9330273 0.81501961,5.6893761 1.7480469,5.6894531 2.4341055,5.6898905 3.0523179,5.2754335 3.3125,4.640625 3.5724124,5.2747752 4.1896528,5.6890978 4.875,5.6894531 5.5608247,5.6887731 6.1781995,5.2735886 6.4375,4.6386719 6.6968005,5.2735886 7.3141753,5.6887731 8,5.6894531 c 0.6858247,-6.8e-4 1.3031995,-0.4158645 1.5625,-1.0507812 0.2593005,0.6349167 0.876675,1.0501012 1.5625,1.0507812 0.68487,-3e-5 1.301977,-0.4134911 1.5625,-1.046875 0.260794,0.634042 0.878872,1.0476373 1.564453,1.046875 C 15.18498,5.689376 15.941329,4.9330272 15.941406,4 15.940584,3.7998668 15.904211,3.6014714 15.833984,3.4140625 v -0.00195 L 13.703125,1 Z M 3.3125,5.3964844 C 2.9039673,5.851611 2.381181,6.1898568 1.7480469,6.1894531 1.5719257,6.1894386 1.4026885,6.1629028 1.2382812,6.1230469 V 15 H 14.761719 V 6.1230469 c -0.164408,0.039856 -0.333645,0.066392 -0.509766,0.066406 C 13.618786,6.1901573 13.096266,5.851508 12.6875,5.3964844 12.279302,5.8508903 11.757268,6.1894255 11.125,6.1894531 10.492854,6.1888263 9.9702284,5.8510244 9.5625,5.3964844 9.1547716,5.8510244 8.6321463,6.1888263 8,6.1894531 7.3678537,6.1888263 6.8452284,5.8510244 6.4375,5.3964844 6.0297716,5.8510244 5.5071463,6.1888263 4.875,6.1894531 4.2428202,6.1891254 3.7204611,5.8509221 3.3125,5.3964844 Z M 5.1347656,7 C 5.7766988,7 6.2263389,7.3653299 6.3398438,7.890625 H 9.6601562 C 9.7736612,7.3653299 10.223301,7 10.865234,7 11.749881,7 12.646284,7.6883994 12.875,8.5429688 l 1.046875,3.9140622 C 14.150591,13.3116 13.622928,14 12.738281,14 11.853635,14 10.957232,13.3116 10.728516,12.457031 l -0.0332,-0.125 H 5.3046875 l -0.033203,0.125 C 5.042768,13.3116 4.1463653,14 3.2617188,14 2.3770722,14 1.8494086,13.3116 2.078125,12.457031 L 3.125,8.5429688 C 3.3537164,7.6883994 4.250119,7 5.1347656,7 Z M 8,8.3535156 5.8847656,10.597656 h 1.0429688 v 1.226563 h 2.1445312 v -1.226563 h 1.0429684 z"
       style="opacity:1;vector-effect:none;fill:#000000;fill-opacity:1;stroke:none;stroke-width:5;stroke-linecap:round;stroke-linejoin:round;stroke-miterlimit:4;stroke-dasharray:none;stroke-dashoffset:0;stroke-opacity:1" />
  </g>
</svg>
