<?xml version="1.0" encoding="UTF-8" standalone="no"?>
<svg
   xmlns:dc="http://purl.org/dc/elements/1.1/"
   xmlns:cc="http://creativecommons.org/ns#"
   xmlns:rdf="http://www.w3.org/1999/02/22-rdf-syntax-ns#"
   xmlns:svg="http://www.w3.org/2000/svg"
   xmlns="http://www.w3.org/2000/svg"
   version="1.1"
   id="svg2985"
   height="16px"
   width="16px">
  <defs
     id="defs2987" />
  <metadata
     id="metadata2990">
    <rdf:RDF>
      <cc:Work
         rdf:about="">
        <dc:format>image/svg+xml</dc:format>
        <dc:type
           rdf:resource="http://purl.org/dc/dcmitype/StillImage" />
        <dc:title></dc:title>
        <dc:creator>
          <cc:Agent>
            <dc:title>T. Gantt</dc:title>
          </cc:Agent>
        </dc:creator>
      </cc:Work>
    </rdf:RDF>
  </metadata>
  <g
     style="display:inline;opacity:1"
     id="layer3">
    <g
       style="fill:#000000"
       transform="translate(0.53232152)"
       id="g854">
      <path
         style="fill:#000000;stroke:none;stroke-width:1px;stroke-linecap:butt;stroke-linejoin:miter;stroke-opacity:1"
         d="m 9.0852108,-4.633506e-8 c 0,0 0.26906,0.90715456633506 -0.1794866,1.82638924633506 -0.6805719,1.3947385 -3.4774427,2.6437043 -3.5478196,3.8608807 -0.080297,1.388752 2.1477902,3.100726 2.1477902,3.100726 0,0 -1.5523289,-1.9836998 -1.3130863,-2.874596 C 6.6577426,4.1813246 8.7191768,3.8338687 9.328337,2.0806053 9.8038224,0.71207985 9.0852108,-4.633506e-8 9.0852108,-4.633506e-8 Z"
         id="path827" />
      <path
         style="opacity:1;fill:#000000;stroke:none;stroke-width:1px;stroke-linecap:butt;stroke-linejoin:miter;stroke-opacity:1"
         d="m 11.263535,3.1711551 c 0,0 -3.756505,1.0748484 -3.756505,2.8607729 0,1.3284481 1.092188,1.5838021 1.0109417,2.348149 -0.058431,0.5497021 -0.4695631,0.9425669 -0.4695631,0.9425669 0,0 1.3690001,-0.7709461 1.2761068,-1.5819689 C 9.2256749,6.8777291 8.3164874,6.3992913 8.3853892,5.7232512 8.5022329,4.5768219 11.263535,3.1711551 11.263535,3.1711551 Z"
         id="path829" />
      <path
         style="opacity:1;fill:#000000;stroke:none;stroke-width:1px;stroke-linecap:butt;stroke-linejoin:miter;stroke-opacity:1"
         d="M 5.6142153,8.7957667 C 5.0074962,8.7894504 2.8050035,9.1676497 2.8279718,9.704984 2.8625982,10.515055 10.087737,10.297811 10.816069,9.4163493 9.8881511,9.6457128 3.9659718,10.16433 3.9659718,9.5045424 c 0,-0.2739227 0.9385565,-0.5309636 1.6482435,-0.7087757 z"
         id="path832" />
      <path
         style="fill:#000000;stroke:none;stroke-width:1px;stroke-linecap:butt;stroke-linejoin:miter;stroke-opacity:1"
         d="m 4.9216708,10.640033 c -0.1477586,0.01571 -0.8651479,0.329035 -0.8175922,0.589793 0.190236,1.043102 5.4886132,0.572349 6.1098444,0.225995 C 9.9872198,11.322109 9.7685205,11.190516 9.600729,11.053439 9.1072872,11.232942 5.1356558,11.659257 4.7283213,11.014854 4.6516983,10.893636 4.8520872,10.678117 4.9216708,10.640033 Z"
         id="path835" />
      <path
         style="display:inline;opacity:1;fill:#000000;stroke:none;stroke-width:1px;stroke-linecap:butt;stroke-linejoin:miter;stroke-opacity:1"
         d="m 5.2862727,12.392876 c -0.1163629,0.0014 -0.781351,0.27539 -0.6960582,0.573257 0.2641479,0.922478 4.0310928,0.881183 5.3585436,0.181899 -0.1963506,-0.06606 -0.6679507,-0.303275 -0.8562621,-0.418919 -0.6446274,0.217715 -3.4830724,0.37756 -3.8890873,-0.02756 -0.1238337,-0.123561 0.024233,-0.266676 0.082864,-0.308678 z"
         id="path837" />
      <path
         style="fill:#000000;stroke:none;stroke-width:1px;stroke-linecap:butt;stroke-linejoin:miter;stroke-opacity:1"
         d="m 11.219341,8.9478219 c 0.08977,-0.1125892 0.447466,-0.3086768 0.834165,-0.3086768 0.64634,0 1.296365,0.4239482 1.325825,1.1520261 0.0328,0.8105798 -0.956741,1.5555408 -2.519068,2.0119118 0.463372,-0.354393 1.856157,-1.052809 1.878253,-1.9237184 0.01932,-0.7615765 -0.715517,-1.2287704 -1.519175,-0.9315427 z"
         id="path840" />
      <path
         style="fill:#000000;stroke:none;stroke-width:1px;stroke-linecap:butt;stroke-linejoin:miter;stroke-opacity:1"
         d="m 4.0464197,13.602742 c -0.716772,-0.191634 -2.5476386,0.34558 -2.4921875,0.888661 0.098489,0.964588 10.6828488,1.083954 11.1015628,-0.475512 0.04329,-0.161229 -0.12226,-0.269443 -0.226563,-0.265039 0.06902,0.06272 0.0965,0.167313 0.0625,0.226063 -0.594161,1.026846 -9.8005294,1.072778 -9.9687498,0.265039 -0.067572,-0.324459 1.1042576,-0.63398 1.5234375,-0.639212 z"
         id="path842" />
      <path
         style="fill:#000000;stroke:none;stroke-width:1px;stroke-linecap:butt;stroke-linejoin:miter;stroke-opacity:1"
         d="m 3.7182947,15.520378 c 2.9801228,0.583594 8.7606853,0.08598 9.6640623,-0.966613 -0.26764,1.748326 -8.5520298,1.698819 -9.6640623,0.966613 z"
         id="path844" />
    </g>
  </g>
</svg>
