<?xml version="1.0" encoding="UTF-8" standalone="no"?>
<!-- Created with Inkscape (http://www.inkscape.org/) -->

<svg
   width="16"
   height="16"
   viewBox="0 0 16 16"
   version="1.1"
   id="svg1"
   xmlns="http://www.w3.org/2000/svg"
   xmlns:svg="http://www.w3.org/2000/svg">
  <defs
     id="defs1" />
  <g
     id="g5"
     style="display:inline">
    <path
       id="path6"
       style="color:#000000;fill:#000000;stroke-linejoin:round;-inkscape-stroke:none"
       d="M 3.75 0 A 0.75 0.75 0 0 0 3 0.75 L 3 2.25 L 1.75 2.25 A 0.750075 0.750075 0 0 0 1 3 L 1 5.75 A 0.75008001 0.75008001 0 0 0 0.25 6.5 L 0.25 10.5 A 0.75008001 0.75008001 0 0 0 1 11.25 L 1 14 A 0.750075 0.750075 0 0 0 1.75 14.75 L 4 14.75 L 4 15.25 A 0.75006999 0.75006999 0 0 0 4.75 16 L 11.25 16 A 0.75006999 0.75006999 0 0 0 12 15.25 L 12 14.296875 L 14.613281 12.855469 A 0.750075 0.750075 0 0 0 15 12.199219 L 15 11.25 A 0.75008001 0.75008001 0 0 0 15.75 10.5 L 15.75 6.5 A 0.75008001 0.75008001 0 0 0 15 5.75 L 15 4.8007812 A 0.750075 0.750075 0 0 0 14.613281 4.1445312 L 11.351562 2.34375 A 0.750075 0.750075 0 0 0 10.988281 2.25 L 10.25 2.25 A 0.750075 0.750075 0 0 0 9.5 1.5 L 6.5 1.5 A 0.750075 0.750075 0 0 0 5.75 2.25 L 5.0117188 2.25 L 4.5 2.25 L 4.5 0.75 A 0.75 0.75 0 0 0 3.75 0 z M 4.75 5.5 L 11.25 5.5 C 11.803997 5.5 12.25 5.9460018 12.25 6.5 L 12.25 10.5 C 12.25 11.053997 11.803997 11.5 11.25 11.5 L 4.75 11.5 C 4.1960018 11.5 3.75 11.053997 3.75 10.5 L 3.75 6.5 C 3.75 5.9460018 4.1960018 5.5 4.75 5.5 z M 5.75 6.5 A 0.75 0.75 0 0 0 5 7.25 A 0.75 0.75 0 0 0 5.75 8 L 10.25 8 A 0.75 0.75 0 0 0 11 7.25 A 0.75 0.75 0 0 0 10.25 6.5 L 5.75 6.5 z M 5.75 9 A 0.75 0.75 0 0 0 5 9.75 A 0.75 0.75 0 0 0 5.75 10.5 L 8.75 10.5 A 0.75 0.75 0 0 0 9.5 9.75 A 0.75 0.75 0 0 0 8.75 9 L 5.75 9 z M 5.7578125 13.5 L 10.242188 13.5 L 10.5 14.144531 L 10.5 14.5 L 5.5 14.5 L 5.5 14.144531 L 5.7578125 13.5 z " />
  </g>
</svg>
