<?xml version="1.0" encoding="UTF-8" standalone="no"?>
<svg
   xmlns:dc="http://purl.org/dc/elements/1.1/"
   xmlns:cc="http://creativecommons.org/ns#"
   xmlns:rdf="http://www.w3.org/1999/02/22-rdf-syntax-ns#"
   xmlns:svg="http://www.w3.org/2000/svg"
   xmlns="http://www.w3.org/2000/svg"
   version="1.1"
   id="svg3870"
   height="16px"
   width="16px">
  <defs
     id="defs3872" />
  <metadata
     id="metadata3875">
    <rdf:RDF>
      <cc:Work
         rdf:about="">
        <dc:format>image/svg+xml</dc:format>
        <dc:type
           rdf:resource="http://purl.org/dc/dcmitype/StillImage" />
        <dc:title></dc:title>
        <dc:creator>
          <cc:Agent>
            <dc:title>T. Gantt</dc:title>
          </cc:Agent>
        </dc:creator>
      </cc:Work>
    </rdf:RDF>
  </metadata>
  <g
     id="layer2">
    <path
       id="path815"
       d="M 10.09375,2.1621094 C 9.0126783,2.146547 7.9713499,2.5692784 7.2070312,3.3339844 6.1988179,4.3448235 5.8058026,5.8163979 6.1757812,7.1953125 L 2.2578125,11.113281 c -0.3917372,0.391737 -0.3917372,1.022326 0,1.414063 l 1.2382813,1.236328 c 0.097934,0.09793 0.2555813,0.09793 0.3535156,0 l 0.5292968,-0.529297 0.53125,0.529297 c 0.097934,0.09793 0.2555814,0.09793 0.3535157,0 l 0.3535156,-0.353516 c 0.097934,-0.09793 0.097934,-0.255581 0,-0.353515 l -0.53125,-0.529297 v -0.002 l 0.7070313,-0.705079 0.53125,0.529297 c 0.097934,0.09794 0.2555813,0.09794 0.3535156,0 L 7.03125,11.996094 c 0.097934,-0.09793 0.097934,-0.255582 0,-0.353516 L 6.5,11.113281 v -0.002 l 0.7070312,-0.705078 0.53125,0.529297 c 0.097934,0.09793 0.2555814,0.09793 0.3535157,0 l 0.9140625,-0.914063 c 1.3783106,0.369228 2.8489396,-0.023734 3.8593746,-1.0312496 1.561694,-1.562028 1.561694,-4.094222 0,-5.65625 C 12.129146,2.5975227 11.134892,2.1771192 10.09375,2.1621094 Z m 1.357422,1.3789062 c 0.127809,0 0.255581,0.04855 0.353516,0.1464844 l 0.707031,0.7070312 c 0.195868,0.1958687 0.195868,0.5111627 0,0.7070313 l -0.707031,0.7070313 c -0.19587,0.1958685 -0.513116,0.1958685 -0.708985,0 L 10.388672,5.1015625 c -0.195869,-0.1958686 -0.195869,-0.5111627 0,-0.7070313 L 11.095703,3.6875 c 0.09793,-0.097934 0.227659,-0.1464844 0.355469,-0.1464844 z M 7.2070312,7.6796875 c 0.063905,0 0.1287673,0.025252 0.1777344,0.074219 l 0.3535156,0.3535157 c 0.097934,0.097934 0.097934,0.2555813 0,0.3535156 L 3.8496094,12.349609 c -0.097934,0.09794 -0.2555815,0.09794 -0.3535156,0 L 3.1425781,11.996094 c -0.097934,-0.09793 -0.097934,-0.255582 0,-0.353516 L 7.03125,7.7539062 c 0.048967,-0.048967 0.1118765,-0.074219 0.1757812,-0.074219 z"
       style="color:#000000;display:inline;overflow:visible;visibility:visible;opacity:1;vector-effect:none;fill:#000000;fill-opacity:1;fill-rule:nonzero;stroke:none;stroke-width:1;stroke-linecap:round;stroke-linejoin:round;stroke-miterlimit:4;stroke-dasharray:none;stroke-dashoffset:0;stroke-opacity:1;marker:none;paint-order:normal;enable-background:accumulate" />
  </g>
</svg>
