<?xml version="1.0" encoding="UTF-8" standalone="no"?>
<svg
   xmlns:dc="http://purl.org/dc/elements/1.1/"
   xmlns:cc="http://creativecommons.org/ns#"
   xmlns:rdf="http://www.w3.org/1999/02/22-rdf-syntax-ns#"
   xmlns:svg="http://www.w3.org/2000/svg"
   xmlns="http://www.w3.org/2000/svg"
   version="1.1"
   id="svg2985"
   height="16px"
   width="16px">
  <defs
     id="defs2987" />
  <metadata
     id="metadata2990">
    <rdf:RDF>
      <cc:Work
         rdf:about="">
        <dc:format>image/svg+xml</dc:format>
        <dc:type
           rdf:resource="http://purl.org/dc/dcmitype/StillImage" />
        <dc:title></dc:title>
        <dc:creator>
          <cc:Agent>
            <dc:title>T. Gantt</dc:title>
          </cc:Agent>
        </dc:creator>
      </cc:Work>
    </rdf:RDF>
  </metadata>
  <g
     style="display:inline;opacity:1"
     id="layer2">
    <path
       id="rect815-5"
       d="M 11.726562,1 C 10.890519,1 10.054683,1.3203172 9.4140625,1.9609375 l -1.453125,1.453125 C 7.2217708,4.1532292 6.9188494,5.1494205 7.0351562,6.1074219 L 10.296875,2.8457031 c 0.395752,-0.3957524 0.91321,-0.59375 1.429687,-0.59375 0.51648,0 1.031982,0.1979976 1.427735,0.59375 0.791505,0.7915049 0.791505,2.065917 0,2.8574219 L 9.8925781,8.9648438 C 10.85058,9.0811506 11.84677,8.7782292 12.585938,8.0390625 l 1.453124,-1.453125 c 1.281241,-1.2812406 1.281243,-3.3437594 0,-4.625 C 13.398442,1.3203172 12.562607,1 11.726562,1 Z m -1.394531,3.6679688 c -0.255619,0 -0.5111624,0.0971 -0.707031,0.2929687 L 4.9609375,9.625 c -0.3917372,0.391737 -0.3917372,1.022325 0,1.414062 0.3917372,0.391738 1.0223253,0.391738 1.4140625,0 L 11.039062,6.375 c 0.391738,-0.3917372 0.391738,-1.0223253 0,-1.4140625 C 10.843194,4.7650689 10.58765,4.6679688 10.332031,4.6679688 Z M 5.4628906,7.015625 C 4.7168726,7.0731592 3.9880068,7.3869932 3.4140625,7.9609375 l -1.453125,1.453125 c -1.28124061,1.2812405 -1.28124061,3.3437615 0,4.6249995 1.2812406,1.281241 3.3437594,1.281243 4.625,0 l 1.453125,-1.453124 C 8.7782292,11.84677 9.0811506,10.85058 8.9648438,9.8925781 L 5.703125,13.154297 c -0.7915049,0.791505 -2.065917,0.791505 -2.8574219,0 -0.7915049,-0.791505 -0.7915049,-2.065917 0,-2.857422 L 6.1074219,7.0351562 C 5.8932844,7.0091588 5.6776483,6.9990625 5.4628906,7.015625 Z"
       style="opacity:1;vector-effect:none;fill:#000000;fill-opacity:1;stroke:none;stroke-width:1.00000012;stroke-linecap:round;stroke-linejoin:round;stroke-miterlimit:4;stroke-dasharray:none;stroke-dashoffset:0;stroke-opacity:1" />
  </g>
</svg>
