<?xml version="1.0" encoding="UTF-8" standalone="no"?>
<svg
   xmlns:dc="http://purl.org/dc/elements/1.1/"
   xmlns:cc="http://creativecommons.org/ns#"
   xmlns:rdf="http://www.w3.org/1999/02/22-rdf-syntax-ns#"
   xmlns:svg="http://www.w3.org/2000/svg"
   xmlns="http://www.w3.org/2000/svg"
   version="1.1"
   id="svg3870"
   height="16px"
   width="16px">
  <defs
     id="defs3872" />
  <metadata
     id="metadata3875">
    <rdf:RDF>
      <cc:Work
         rdf:about="">
        <dc:format>image/svg+xml</dc:format>
        <dc:type
           rdf:resource="http://purl.org/dc/dcmitype/StillImage" />
        <dc:title></dc:title>
        <dc:creator>
          <cc:Agent>
            <dc:title>T. Gantt</dc:title>
          </cc:Agent>
        </dc:creator>
      </cc:Work>
    </rdf:RDF>
  </metadata>
  <g
     style="display:inline;opacity:1"
     id="layer3">
    <path
       id="path827"
       d="M 7.9040712,2.2522853e-6 C 6.3686483,2.2522853e-6 5.7845349,1.0430562 5.7029726,1.4237829 5.447045,2.6184332 5.8474991,5.3396683 5.847499,5.3396683 c 0,0 -1.0751213,1.3806547 -1.2792543,1.7343173 C 4.2466713,7.6311153 3.7993361,8.8978994 3.6229637,9.3434413 3.5000121,9.6540346 3.2524821,9.797324 3.1893843,10.032871 c -0.035804,0.133657 -0.017704,0.43529 0.00977,0.751928 -0.04775,0.05283 -0.1007147,0.09988 -0.1445265,0.156245 -0.1820653,0.234262 -0.3518428,0.492437 -0.455063,0.595683 -0.046641,0.04666 -0.2773823,0.115292 -0.5312323,0.156245 -0.1269251,0.02048 -0.2568877,0.04042 -0.3827998,0.08008 -0.125912,0.03966 -0.2736817,0.10202 -0.3554569,0.265615 -0.071842,0.143721 -0.071215,0.270638 -0.074217,0.421862 -0.003,0.151222 0.00453,0.319313 0.015624,0.484358 0.011093,0.165046 0.025305,0.327605 0.033202,0.462875 0.0079,0.135271 0.00561,0.251577 0.00195,0.275382 -0.013869,0.09018 -0.072208,0.227264 -0.1249958,0.378893 -0.026394,0.07582 -0.05191,0.157504 -0.058592,0.253898 -0.00668,0.0964 0.012267,0.220331 0.087888,0.320302 0.084974,0.112336 0.1641885,0.137807 0.259757,0.179681 0.095569,0.04188 0.2090241,0.08026 0.3359263,0.119137 0.2538045,0.07776 0.5659163,0.154834 0.8827831,0.230462 0.3168669,0.07563 0.6375559,0.149131 0.8984077,0.214836 0.2608518,0.06571 0.4818622,0.13849 0.5117017,0.154291 0.1858465,0.09842 0.3978239,0.210657 0.6093548,0.298819 0.2115307,0.08816 0.4166642,0.161607 0.6386505,0.144527 0.217283,-0.01672 0.4748567,-0.114162 0.7304445,-0.296865 0.1912831,-0.136738 0.3782415,-0.33108 0.4843589,-0.582013 0.0641,-0.0264 0.1356359,-0.06048 0.1855407,-0.07226 0.3662114,-0.08644 2.7352922,-0.122609 2.9354492,-0.07813 0.053566,0.01191 0.1302817,0.05487 0.1992121,0.08398 0.00721,0.126208 0.024331,0.246992 0.080075,0.361316 0.1351445,0.27716 0.4065035,0.444903 0.7050545,0.535139 0.298551,0.09024 0.639502,0.102581 0.951141,-0.01172 0.333626,-0.122362 0.669644,-0.41557 0.999966,-0.703102 0.330321,-0.287531 0.656862,-0.583218 0.753881,-0.64451 0.124918,-0.07892 0.485412,-0.256891 0.806614,-0.449204 0.1606,-0.09616 0.315083,-0.197091 0.441392,-0.308583 0.126307,-0.111493 0.257803,-0.233879 0.257803,-0.45311 0,-0.121455 -0.04899,-0.187849 -0.0918,-0.248039 -0.04281,-0.06019 -0.09259,-0.113573 -0.148432,-0.167963 -0.111694,-0.108779 -0.24776,-0.220138 -0.388659,-0.333973 -0.140899,-0.113835 -0.285607,-0.229372 -0.400378,-0.330067 -0.114769,-0.100697 -0.200685,-0.199564 -0.212883,-0.220696 0.01233,0.02136 -0.0013,-0.0029 0,-0.06055 0.0013,-0.0576 0.01129,-0.140068 0.01953,-0.232414 0.01648,-0.184692 0.04672,-0.447351 -0.158198,-0.652322 -0.08461,-0.08464 -0.160945,-0.104344 -0.240227,-0.126949 -0.0066,-0.0019 -0.0148,-0.0021 -0.02148,-0.0039 0.02486,-0.06023 0.05058,-0.112397 0.07227,-0.193354 0.06563,-0.244992 0.120191,-0.9087027 0,-1.357376 C 13.130585,8.7683278 12.833851,7.9736143 12.663678,7.6520914 12.397718,7.1495834 11.996992,6.7752102 11.730116,6.3747901 11.463241,5.9743697 10.950593,5.2508679 10.728196,4.6502381 10.400706,3.7657846 11.211034,2.2522853e-6 7.9040712,2.2522853e-6 Z M 8.6169381,2.2460213 A 0.74510235,0.95232793 0 0 1 9.363007,3.1991146 0.74510235,0.95232793 0 0 1 9.1950439,3.7987039 C 9.1486433,3.7691544 9.0912095,3.7461997 9.0407521,3.7186285 A 0.45210067,0.66248907 0 0 0 9.0700481,3.4881673 0.45210067,0.66248907 0 0 0 8.6169381,2.8260801 0.45210067,0.66248907 0 0 0 8.1755465,3.3534062 C 8.0702861,3.3210132 7.9751147,3.2973071 7.8767284,3.2752838 A 0.74510235,0.95232793 0 0 1 7.8728185,3.1991144 0.74510235,0.95232793 0 0 1 8.6169343,2.2460211 Z M 6.560366,2.3534395 a 0.90250826,0.57130014 80.823358 0 1 0.00195,0 0.90250826,0.57130014 80.823358 0 1 0.6523221,0.7988016 0.90250826,0.57130014 80.823358 0 1 0.00977,0.080075 c -0.060173,0.012156 -0.1191338,0.029403 -0.1777298,0.05078 a 0.56819258,0.39852155 77.849348 0 0 -0.4452977,-0.4492038 0.56819258,0.39852155 77.849348 0 0 -0.039061,0.00195 0.56819258,0.39852155 77.849348 0 0 -0.2929591,0.61912 0.56819258,0.39852155 77.849348 0 0 0.0957,0.2558508 c -0.038803,0.033427 -0.067437,0.070496 -0.1035127,0.1054683 A 0.90250826,0.57130014 80.823358 0 1 6.0877254,3.343641 0.90250826,0.57130014 80.823358 0 1 6.5037271,2.3573457 0.90250826,0.57130014 80.823358 0 1 6.5603661,2.3534357 Z M 7.4255715,3.704957 c 0.1538616,0 0.6531271,0.114715 1.0585585,0.2812407 0.2027158,0.083263 0.3894695,0.1800764 0.5136549,0.2675692 C 9.1219702,4.34126 9.1492368,4.4243275 9.1462174,4.3865751 9.1441475,4.3607529 9.1194693,4.4731152 9.003644,4.6014116 8.8878183,4.7297083 8.7110048,4.8784832 8.515379,5.0135073 8.3197532,5.1485313 8.1031273,5.2707695 7.9118835,5.3552928 7.7206395,5.439816 7.5467775,5.4799585 7.4802572,5.4783355 7.2685149,5.4731697 6.9528631,5.3045284 6.7127046,5.0799113 6.5926254,4.9676027 6.4886489,4.8439028 6.4216987,4.7381258 6.3547484,4.6323488 6.333811,4.5394386 6.333811,4.5350075 c 0,0.0056 0.019242,-0.077929 0.089841,-0.1738223 C 6.4942499,4.2652924 6.6032266,4.1515845 6.726376,4.0506486 6.9726748,3.8487771 7.2970557,3.704957 7.4255715,3.704957 Z m 1.8671254,1.3007381 c 0.082613,0.1875513 0.8218731,1.8658311 0.9316091,2.2264884 0.115903,0.3809311 0.529885,0.8105059 0.761694,1.6386174 0.139439,0.5205315 0.06937,1.2614961 -0.03711,1.9374361 -0.09609,-0.0037 -0.191328,-0.01234 -0.289053,0 -0.151869,0.01917 -0.312219,0.05803 -0.441392,0.191399 -0.142375,0.147004 -0.167515,0.316678 -0.187493,0.496078 -0.01998,0.1794 -0.01695,0.376821 -0.0078,0.572246 0.01777,0.380603 0.06205,0.764053 0.06445,0.871065 C 9.5949767,13.442995 8.7744392,14.068958 7.5251776,14.18703 7.1509084,14.222404 6.8259245,14.159004 6.5232578,14.062034 6.4199174,13.829415 6.2811836,13.64041 6.2029559,13.493694 6.1004054,13.301361 5.6781343,12.585509 5.2029892,11.886326 4.9654201,11.536732 4.7171725,11.197125 4.4901223,10.935185 c -0.022233,-0.02565 -0.042668,-0.0403 -0.064451,-0.06445 0.012163,-0.490972 0.053374,-1.0262615 0.2070242,-1.5292497 0.1821362,-0.59624 0.5402368,-1.2484708 0.6230262,-1.4472175 0.082789,-0.1987469 0.2592554,-0.8006701 0.4413915,-1.1816013 0.182136,-0.3809314 0.5030424,-0.6566936 0.552716,-0.8554403 0.026571,-0.1063127 0.024429,-0.3281821 0.017577,-0.5351385 0.037997,0.040386 0.061994,0.084211 0.1035123,0.1230428 0.2970221,0.2778009 0.6763693,0.5229081 1.0976197,0.5331854 0.2112427,0.00515 0.4197241,-0.065799 0.6464629,-0.1660101 C 8.3417406,5.7120981 8.5787337,5.5773392 8.7985727,5.4256029 8.9873306,5.2953193 9.1491053,5.1510502 9.2926969,5.0056951 Z M 3.7674901,10.94495 c 0.014944,0.0071 0.045222,0.02067 0.080075,0.04883 0.069704,0.05633 0.1636713,0.151911 0.2656162,0.269522 0.2038902,0.23522 0.444319,0.563699 0.6757588,0.904266 0.4628797,0.681135 0.9006353,1.427434 0.9726239,1.562448 0.1987344,0.372727 0.4430553,0.625732 0.3827997,1.023403 -0.032886,0.217038 -0.1756867,0.391564 -0.3574099,0.521468 -0.1817233,0.129902 -0.4121564,0.199963 -0.4784996,0.20507 -0.06164,0.0047 -0.2270069,-0.03191 -0.4081896,-0.107418 C 4.7190823,15.29703 4.5189268,15.191244 4.3338775,15.09325 4.178269,15.010853 3.9783228,14.963855 3.7088983,14.895991 3.4394742,14.828127 3.1183474,14.754076 2.8046315,14.679202 2.4909156,14.604325 2.1856601,14.5278 1.9530973,14.456552 1.8368159,14.420934 1.73757,14.385736 1.6718567,14.356947 c -0.049285,-0.0216 -0.049824,-0.02443 -0.046873,-0.01758 0.00276,-0.02148 0.010979,-0.05871 0.029296,-0.111324 0.040559,-0.116502 0.1167138,-0.275206 0.1464794,-0.468734 0.018156,-0.118047 0.012369,-0.235827 0.00391,-0.380848 -0.00847,-0.145021 -0.022477,-0.309159 -0.033202,-0.468734 -0.010725,-0.159575 -0.018077,-0.315825 -0.015624,-0.439439 0.00245,-0.123612 0.027872,-0.221758 0.021483,-0.208977 -0.016323,0.03266 -0.012535,0.01068 0.058592,-0.01172 0.071127,-0.0224 0.1857873,-0.04206 0.3124896,-0.0625 0.253401,-0.04088 0.5676721,-0.05982 0.804657,-0.296864 0.1804023,-0.180449 0.3366417,-0.4349 0.4980303,-0.642557 0.080694,-0.103828 0.1600329,-0.193945 0.2246018,-0.248039 0.057056,-0.04781 0.084427,-0.05251 0.091794,-0.05469 z m 6.9548469,0.359364 c 0.08551,-0.0108 0.198549,-0.0069 0.308583,0.002 a 0.7765379,0.92390172 80.65715 0 0 -0.0059,0.04492 0.7765379,0.92390172 80.65715 0 0 0.867158,0.779271 0.7765379,0.92390172 80.65715 0 0 0.960906,-0.705055 c 0.02417,0.0026 0.05769,0.0029 0.08008,0.0059 0.07862,0.01054 0.145189,0.02505 0.187494,0.03711 0.01204,0.0034 0.01611,0.0063 0.02344,0.0098 0.0059,0.01169 0.0274,0.08829 0.01367,0.242179 -0.0072,0.08066 -0.01926,0.169986 -0.02148,0.265617 -0.0022,0.09563 -0.0022,0.203354 0.06641,0.322255 0.07831,0.135673 0.18756,0.234607 0.316396,0.347644 0.128835,0.113037 0.277347,0.229765 0.416002,0.341786 0.138654,0.112021 0.268799,0.220282 0.355457,0.304677 0.03295,0.03209 0.05136,0.05343 0.06836,0.07422 -0.0042,-0.008 -0.0024,0.0024 -0.06836,0.06055 -0.0849,0.07494 -0.219952,0.16575 -0.367176,0.253898 -0.294448,0.176296 -0.628651,0.335234 -0.818332,0.455063 -0.217581,0.137456 -0.493722,0.412224 -0.814426,0.691384 -0.320704,0.279158 -0.682566,0.549532 -0.845675,0.609354 -0.185094,0.06789 -0.428207,0.06575 -0.632791,0.0039 -0.204585,-0.06184 -0.355648,-0.183648 -0.400378,-0.275382 -0.0089,-0.01823 -0.03973,-0.180519 -0.03516,-0.378893 0.0046,-0.198374 0.02958,-0.441959 0.06055,-0.683571 0.03097,-0.241612 0.06759,-0.480761 0.09766,-0.681618 0.03007,-0.200857 0.05469,-0.344992 0.05469,-0.468734 0,-0.204599 -0.05142,-0.555207 -0.06836,-0.917938 -0.0085,-0.181366 -0.0071,-0.359877 0.0078,-0.494125 0.01495,-0.134247 0.06288,-0.217624 0.04883,-0.203118 -8.49e-4,8.77e-4 0.05036,-0.03108 0.144527,-0.04297 z"
       style="fill:#000000;stroke:none;stroke-width:1px;stroke-linecap:butt;stroke-linejoin:miter;stroke-opacity:1" />
  </g>
</svg>
