<?xml version="1.0" encoding="UTF-8" standalone="no"?>
<!-- Created with Inkscape (http://www.inkscape.org/) -->

<svg
   width="16.0px"
   height="16.0px"
   viewBox="0 0 16.0 16.0"
   version="1.1"
   id="SVGRoot"
   xmlns="http://www.w3.org/2000/svg"
   xmlns:svg="http://www.w3.org/2000/svg">
  <defs
     id="defs132" />
  <g
     id="layer1">
    <path
       id="path1482"
       style="color:#000000;fill:#000000;stroke-linecap:round;stroke-linejoin:round;-inkscape-stroke:none"
       d="M 2,1 C 1.6900411,1.0003007 1.4121924,1.1912247 1.3007812,1.4804688 l -1.24999995,3.25 C 0.01743225,4.8164278 2.1742247e-4,4.9077988 0,5 -7.2279689e-8,6.2163703 0.85983791,7.2445082 2,7.5097656 V 14.25 c 4.14e-5,0.414196 0.3358036,0.749959 0.75,0.75 h 10.5 c 0.414196,-4.1e-5 0.749959,-0.335804 0.75,-0.75 V 7.5566406 C 15.142961,7.2669058 16,6.2282464 16,5 15.999783,4.9077988 15.982568,4.8164278 15.949219,4.7304688 l -1.25,-3.25 C 14.587808,1.1912247 14.309959,1.0003007 14,1 Z M 2.5136719,2.5 H 13.484375 l 0.988281,2.5664062 c -0.03885,0.6018127 -0.499989,1.0742189 -1.113281,1.0742188 -0.0039,0 -0.0078,3.77e-5 -0.01172,0 -0.01753,-0.00192 -0.03512,-0.00322 -0.05273,-0.00391 -0.01548,-8.247e-4 -0.03158,-5.422e-4 -0.04687,-0.00195 C 12.662062,6.0807171 12.216797,5.601295 12.216797,5 c -0.01394,-0.9859571 -1.486056,-0.9859571 -1.5,0 0,0.5703615 -0.444313,1.0156249 -1.013672,1.015625 C 9.1337647,6.015625 8.6875,5.5693603 8.6875,5 8.6735561,4.0140429 7.2014439,4.0140429 7.1875,5 7.1875,5.5693603 6.7412352,6.0156251 6.171875,6.015625 5.6025147,6.015625 5.15625,5.5693603 5.15625,5 5.142306,4.0140429 3.6701939,4.0140429 3.65625,5 c 10e-8,0.6044548 -0.4736702,1.0781251 -1.078125,1.078125 -0.578208,0 -1.0120506,-0.4449939 -1.0507812,-1.0117188 z M 7.9375,6.7792969 C 8.3932283,7.231272 9.0166793,7.515625 9.703125,7.515625 c 0.683318,-1e-7 1.303103,-0.2839346 1.757813,-0.7324219 0.288731,0.307741 0.641988,0.551005 1.039062,0.6992188 V 13.5 H 10 V 11 C 10,9.8920011 9.1079989,9 8,9 6.8920011,9 6,9.8920011 6,11 v 2.5 H 3.5 V 7.3984375 C 3.8456992,7.2599118 4.1569821,7.048351 4.4140625,6.7832031 4.8692549,7.231564 5.4885562,7.515625 6.171875,7.515625 6.8583208,7.5156251 7.4817717,7.231272 7.9375,6.7792969 Z" />
  </g>
</svg>
