<?xml version="1.0" encoding="UTF-8" standalone="no"?>
<svg
   xmlns:dc="http://purl.org/dc/elements/1.1/"
   xmlns:cc="http://creativecommons.org/ns#"
   xmlns:rdf="http://www.w3.org/1999/02/22-rdf-syntax-ns#"
   xmlns:svg="http://www.w3.org/2000/svg"
   xmlns="http://www.w3.org/2000/svg"
   width="16.0px"
   height="16.0px"
   viewBox="0 0 16.0 16.0"
   version="1.1"
   id="SVGRoot">
  <defs
     id="defs1413" />
  <metadata
     id="metadata1416">
    <rdf:RDF>
      <cc:Work
         rdf:about="">
        <dc:format>image/svg+xml</dc:format>
        <dc:type
           rdf:resource="http://purl.org/dc/dcmitype/StillImage" />
        <dc:title></dc:title>
      </cc:Work>
    </rdf:RDF>
  </metadata>
  <g
     id="layer1">
    <path
       d="M 5.4882216,0 A 0.49998802,0.49998802 0 0 0 4.9999521,0.49998802 V 3.4999161 A 1.2070779,1.2070779 0 0 0 5.3534592,4.3534113 L 6.646397,5.6463491 a 1.2070779,1.2070779 0 0 0 0.8534952,0.3535071 h 0.499988 0.499988 A 1.2070779,1.2070779 0 0 0 9.3533634,5.6463491 L 10.646301,4.3534113 A 1.2070779,1.2070779 0 0 0 10.999808,3.4999161 V 0.49998802 A 0.49998802,0.49998802 0 0 0 10.499821,0 H 5.4999401 a 0.49998802,0.49998802 0 0 0 -0.011718,0 z m 2.5116586,5.9998562 c -0.1583336,0 -0.3161662,0.060313 -0.4374895,0.1816363 L 6.4940569,7.2498262 H 4.8749551 c -0.3462418,0 -0.624985,0.2787434 -0.624985,0.624985 V 9.4939131 L 3.1816363,10.562247 c -0.2426468,0.242647 -0.2426471,0.632332 0,0.874979 l 1.0683338,1.068334 v 1.619102 c 0,0.346241 0.2787432,0.624985 0.624985,0.624985 h 1.6191018 l 1.0683338,1.068333 c 0.2426471,0.242648 0.6323323,0.242648 0.8749791,0 l 1.0683337,-1.068333 h 1.6191015 c 0.346242,0 0.624986,-0.278744 0.624986,-0.624985 V 12.50556 l 1.068333,-1.068334 c 0.242647,-0.242647 0.242647,-0.632332 0,-0.874979 L 11.749791,9.4939131 V 7.8748112 c 0,-0.3462416 -0.278744,-0.624985 -0.624986,-0.624985 H 9.5057035 L 8.4373698,6.1814925 C 8.3160462,6.0601689 8.1582138,5.9998562 7.9998802,5.9998562 Z"
       style="fill:#000000;stroke-width:4;stroke-linecap:round;stroke-linejoin:round;stop-color:#000000"
       id="path2005" />
  </g>
</svg>
