<?xml version="1.0" encoding="UTF-8" standalone="no"?>
<svg
   width="16.0px"
   height="16.0px"
   viewBox="0 0 16.0 16.0"
   version="1.1"
   id="SVGRoot"
   xmlns="http://www.w3.org/2000/svg"
   xmlns:svg="http://www.w3.org/2000/svg"
   xmlns:rdf="http://www.w3.org/1999/02/22-rdf-syntax-ns#"
   xmlns:cc="http://creativecommons.org/ns#"
   xmlns:dc="http://purl.org/dc/elements/1.1/">
  <defs
     id="defs6696" />
  <metadata
     id="metadata6699">
    <rdf:RDF>
      <cc:Work
         rdf:about="">
        <dc:format>image/svg+xml</dc:format>
        <dc:type
           rdf:resource="http://purl.org/dc/dcmitype/StillImage" />
      </cc:Work>
    </rdf:RDF>
  </metadata>
  <g
     style="display:inline"
     id="g108074">
    <g
       id="g108062"
       style="display:none"
       transform="translate(26.25,-8.8125001)">
      <path
         style="color:#000000;display:inline;overflow:visible;visibility:visible;fill:#000000;fill-opacity:1;fill-rule:nonzero;stroke:none;stroke-width:8;marker:none;enable-background:accumulate"
         d="M 2,2 V 3 H 1 v 8 h 1 v 2 h 1 v 1 h 2 v -4 h 6 v 4 h 2 v -1 h 1 v -2 h 1 V 3 H 14 V 2 H 10 V 3 H 6 V 2 Z M 3,4 H 4 V 5 H 5 V 6 H 4 V 7 H 3 V 6 H 2 V 5 h 1 z m 9,0 h 1 v 1 h 1 V 6 H 13 V 7 H 12 V 6 H 11 V 5 h 1 z m 0,1 v 1 h 1 V 5 Z M 6,7 H 7 V 8 H 6 Z m 3,0 h 1 V 8 H 9 Z"
         id="path108060" />
    </g>
    <path
       id="rect108064"
       style="fill:#000000;stroke-width:1.5;stroke-linecap:round;stroke-linejoin:round;stop-color:#000000"
       d="m 14.333984,1.1699219 a 0.65939616,0.65939616 0 0 0 -0.253906,0.052734 L 8.875,3.4550781 H 4.5 a 3.5,3.5 0 0 0 -3.5,3.5 3.5,3.5 0 0 0 3.4453125,3.4960939 l 1.0214844,3.80664 c 0.1433857,0.535123 0.6894864,0.850418 1.2246093,0.707032 l 0.7246094,-0.19336 c 0.5351229,-0.143385 0.850417,-0.689486 0.7070313,-1.224609 L 7.2949219,10.455078 H 8.875 l 5.205078,2.230469 A 0.65939626,0.65939626 0 0 0 15,12.080078 v -1.625 -6.9999999 -1.625 A 0.65939616,0.65939616 0 0 0 14.333984,1.1699219 Z" />
  </g>
</svg>
