<?xml version="1.0" encoding="UTF-8" standalone="no"?>
<svg
   xmlns:dc="http://purl.org/dc/elements/1.1/"
   xmlns:cc="http://creativecommons.org/ns#"
   xmlns:rdf="http://www.w3.org/1999/02/22-rdf-syntax-ns#"
   xmlns:svg="http://www.w3.org/2000/svg"
   xmlns="http://www.w3.org/2000/svg"
   id="SVGRoot"
   version="1.1"
   viewBox="0 0 16.0 16.0"
   height="16.0px"
   width="16.0px">
  <defs
     id="defs6696" />
  <metadata
     id="metadata6699">
    <rdf:RDF>
      <cc:Work
         rdf:about="">
        <dc:format>image/svg+xml</dc:format>
        <dc:type
           rdf:resource="http://purl.org/dc/dcmitype/StillImage" />
        <dc:title></dc:title>
      </cc:Work>
    </rdf:RDF>
  </metadata>
  <g
     id="g108074"
     style="display:inline">
    <g
       transform="translate(26.25,-8.8125001)"
       style="display:none"
       id="g108062">
      <path
         id="path108060"
         d="M 2,2 V 3 H 1 v 8 h 1 v 2 h 1 v 1 h 2 v -4 h 6 v 4 h 2 v -1 h 1 v -2 h 1 V 3 H 14 V 2 H 10 V 3 H 6 V 2 Z M 3,4 H 4 V 5 H 5 V 6 H 4 V 7 H 3 V 6 H 2 V 5 h 1 z m 9,0 h 1 v 1 h 1 V 6 H 13 V 7 H 12 V 6 H 11 V 5 h 1 z m 0,1 v 1 h 1 V 5 Z M 6,7 H 7 V 8 H 6 Z m 3,0 h 1 V 8 H 9 Z"
         style="color:#000000;display:inline;overflow:visible;visibility:visible;fill:#000000;fill-opacity:1;fill-rule:nonzero;stroke:none;stroke-width:8;marker:none;enable-background:accumulate" />
    </g>
    <path
       d="M 15.310547 0.34179688 A 0.65939616 0.65939616 0 0 0 15.080078 0.39453125 L 9 3 L 4 3 A 4 4 0 0 0 0 7 A 4 4 0 0 0 4 11 L 5.140625 15.257812 C 5.2840108 15.792935 5.8301115 16.10823 6.3652344 15.964844 L 7.3320312 15.707031 C 7.8671542 15.563645 8.1824483 15.017545 8.0390625 14.482422 L 7.1054688 11 L 9 11 L 15.080078 13.605469 A 0.65939616 0.65939616 0 0 0 16 13 L 16 11 L 16 3 L 16 1 A 0.65939616 0.65939616 0 0 0 15.310547 0.34179688 z "
       style="fill:#000000;stroke-width:1.5;stroke-linecap:round;stroke-linejoin:round;stop-color:#000000"
       id="rect108064" />
  </g>
</svg>
