<?xml version="1.0" encoding="UTF-8" standalone="no"?>
<!-- Created with Inkscape (http://www.inkscape.org/) -->

<svg
   width="16.0px"
   height="16.0px"
   viewBox="0 0 16.0 16.0"
   version="1.1"
   id="SVGRoot"
   xmlns="http://www.w3.org/2000/svg"
   xmlns:svg="http://www.w3.org/2000/svg">
  <defs
     id="defs5248" />
  <g
     id="layer1">
    <path
       id="rect10434"
       style="color:#000000;fill:#000000;stroke-width:0.999994;stroke-linecap:round;-inkscape-stroke:none"
       d="m 1.7516437,1 a 0.74980276,0.74990126 0 0 0 -0.5311103,0.2187212 0.74980276,0.74990126 0 0 0 0,1.0623601 L 13.717246,14.779436 a 0.74980276,0.74990126 0 0 0 1.06222,0 0.74980276,0.74990126 0 0 0 0,-1.06236 l -2.397807,-2.398123 c 0.700039,-0.923073 1.116894,-2.07394 1.116894,-3.3198745 A 0.74979775,0.74989625 0 0 0 12.74875,7.2491772 0.74979775,0.74989625 0 0 0 11.998948,7.9990785 c 0,0.8392988 -0.251343,1.6142848 -0.683415,2.2536095 L 10.585258,9.5223154 C 10.847653,9.0763775 10.999211,8.5560195 10.999211,7.9990785 V 3.9996051 C 10.999211,2.3378239 9.6615629,1 8,1 6.3588158,1 5.0350006,2.3056661 5.0027415,3.9390661 L 2.282754,1.2187212 A 0.74980276,0.74990126 0 0 0 1.7516437,1 Z M 3.2512492,7.2491772 A 0.74979775,0.74989625 0 0 0 2.5014464,7.9990785 c 0,2.7789865 2.0697087,5.0796175 4.7487508,5.4465485 v 0.802629 A 0.74980276,0.74990126 0 0 0 8,14.998157 0.74980276,0.74990126 0 0 0 8.7498027,14.248256 V 13.44758 C 9.1688836,13.39023 9.5729615,13.285409 9.9565165,13.139027 L 8.7478502,11.930202 C 8.5059267,11.974952 8.255998,11.998552 8,11.998552 c -2.2283872,0 -3.9989481,-1.770794 -3.9989481,-3.9994735 A 0.74979775,0.74989625 0 0 0 3.2512492,7.2491772 Z m 1.7553976,0.9393294 c 0.09357,1.509611 1.2945372,2.7107354 2.8039499,2.8043184 z" />
  </g>
</svg>
