<?xml version="1.0" encoding="UTF-8" standalone="no"?>
<!-- Created with Inkscape (http://www.inkscape.org/) -->

<svg
   width="16.0px"
   height="16.0px"
   viewBox="0 0 16.0 16.0"
   version="1.1"
   id="SVGRoot"
   xmlns="http://www.w3.org/2000/svg"
   xmlns:svg="http://www.w3.org/2000/svg">
  <defs
     id="defs5248" />
  <g
     id="layer1">
    <path
       id="rect10434"
       style="color:#000000;fill:#000000;stroke-linecap:round;-inkscape-stroke:none"
       d="M 8,1 C 6.338,1 5,2.338 5,4 v 4 c 0,1.662 1.338,3 3,3 1.662,0 3,-1.338 3,-3 V 4 C 11,2.338 9.662,1 8,1 Z M 3.25,7.25 A 0.74999499,0.74999499 0 0 0 2.5,8 c 0,2.779352 2.0702531,5.080286 4.75,5.447266 V 14.25 A 0.75,0.75 0 0 0 8,15 0.75,0.75 0 0 0 8.75,14.25 V 13.447266 C 11.429747,13.080286 13.5,10.779352 13.5,8 A 0.74999499,0.74999499 0 0 0 12.75,7.25 0.74999499,0.74999499 0 0 0 12,8 c 0,2.228973 -1.771027,4 -4,4 C 5.7710266,12 4,10.228973 4,8 A 0.74999499,0.74999499 0 0 0 3.25,7.25 Z" />
  </g>
</svg>
