<?xml version="1.0" encoding="UTF-8" standalone="no"?>
<svg
   xmlns:dc="http://purl.org/dc/elements/1.1/"
   xmlns:cc="http://creativecommons.org/ns#"
   xmlns:rdf="http://www.w3.org/1999/02/22-rdf-syntax-ns#"
   xmlns:svg="http://www.w3.org/2000/svg"
   xmlns="http://www.w3.org/2000/svg"
   version="1.1"
   id="svg3870"
   height="16px"
   width="16px">
  <defs
     id="defs3872" />
  <metadata
     id="metadata3875">
    <rdf:RDF>
      <cc:Work
         rdf:about="">
        <dc:format>image/svg+xml</dc:format>
        <dc:type
           rdf:resource="http://purl.org/dc/dcmitype/StillImage" />
        <dc:title></dc:title>
        <dc:creator>
          <cc:Agent>
            <dc:title>T. Gantt</dc:title>
          </cc:Agent>
        </dc:creator>
      </cc:Work>
    </rdf:RDF>
  </metadata>
  <g
     style="opacity:1"
     id="layer2">
    <path
       id="rect815"
       d="M 11.464844,3.0048781 C 11.217273,3.0295274 10.824106,3.1535891 10.167969,3.4385105 9.0015027,3.9450376 5,5.9992858 5,5.9992858 H 3 1 c -0.554,0 -1,0.4460398 -1,1.0000892 v 2.0001784 c 0,0.5540494 0.446,1.0000892 1,1.0000892 h 2 v 3.7503344 c 0,0.138512 0.1115,0.250022 0.25,0.250022 h 1.5 c 0.1385,0 0.25,-0.11151 0.25,-0.250022 V 9.9996426 c 0,0 3.9940962,2.0525254 5.164062,2.5607754 1.169967,0.50825 1.501302,0.50737 1.667969,0.337921 C 11.998697,12.728887 12,12.39137 12,10.870814 V 8.9995534 A 1,1.0000892 0 0 0 13,7.9994642 1,1.0000892 0 0 0 12,6.999375 V 5.1300677 c 0,-1.5245479 1.5e-4,-1.8635013 -0.166016,-2.0314312 -0.04154,-0.041983 -0.09315,-0.072198 -0.166015,-0.087899 -0.05465,-0.011776 -0.120602,-0.014076 -0.203125,-0.00586 z m -0.703125,1.5020871 c 0.05205,0.01099 0.08947,0.033118 0.11914,0.062506 C 10.999551,4.6870217 11,4.924289 11,5.9914726 v 2.0079916 2.0099448 c 0,1.064389 -9.2e-5,1.301433 -0.119141,1.420049 -0.119051,0.118615 -0.355702,0.117473 -1.1914059,-0.238303 C 8.8537492,10.83538 5,8.7495311 5,8.7495311 V 7.2493973 c 0,0 3.8582032,-2.0890084 4.6914062,-2.4435774 C 10.31631,4.5398933 10.605583,4.4739937 10.761719,4.5069652 Z m 3.714843,0.6328689 a 0.50004997,0.50009457 0 0 0 -0.30664,0.8750781 C 14.681683,6.4787399 15,7.2148788 15,8.0014175 15,8.7881148 14.681849,9.524113 14.169922,9.9879227 a 0.50056448,0.50060913 0 1 0 0.671875,0.7422543 C 15.585668,10.056223 16,9.0538619 16,8.0014175 16,6.9491847 15.585407,5.9485726 14.841797,5.2746117 A 0.50004997,0.50009457 0 0 0 14.476562,5.1398341 Z"
       style="opacity:1;vector-effect:none;fill:#000000;fill-opacity:1;stroke:none;stroke-width:5.00031471;stroke-linecap:round;stroke-linejoin:round;stroke-miterlimit:4;stroke-dasharray:none;stroke-dashoffset:0;stroke-opacity:1" />
  </g>
</svg>
