<?xml version="1.0" encoding="UTF-8" standalone="no"?>
<svg
   xmlns:dc="http://purl.org/dc/elements/1.1/"
   xmlns:cc="http://creativecommons.org/ns#"
   xmlns:rdf="http://www.w3.org/1999/02/22-rdf-syntax-ns#"
   xmlns:svg="http://www.w3.org/2000/svg"
   xmlns="http://www.w3.org/2000/svg"
   version="1.1"
   id="svg3870"
   height="16px"
   width="16px">
  <defs
     id="defs3872" />
  <metadata
     id="metadata3875">
    <rdf:RDF>
      <cc:Work
         rdf:about="">
        <dc:format>image/svg+xml</dc:format>
        <dc:type
           rdf:resource="http://purl.org/dc/dcmitype/StillImage" />
        <dc:title></dc:title>
        <dc:creator>
          <cc:Agent>
            <dc:title>T. Gantt</dc:title>
          </cc:Agent>
        </dc:creator>
      </cc:Work>
    </rdf:RDF>
  </metadata>
  <g
     style="opacity:1"
     id="layer2">
    <path
       d="M 11.464844,3.0048787 C 11.217273,3.029528 10.824106,3.1535896 10.167969,3.4385111 9.0015025,3.9450381 5,5.9992864 5,5.9992864 H 1 c -0.554,0 -1,0.4460397 -1,1.0000892 V 8.999554 C 0,9.5536034 0.446,9.9996432 1,9.9996432 H 3 V 13.749977 C 3,13.88849 3.1115,14 3.25,14 h 1.5 C 4.8885,14 5,13.88849 5,13.749977 V 9.9996432 c 0,0 3.9940967,2.0525248 5.164062,2.5607748 1.169967,0.508251 1.501302,0.507371 1.667969,0.337922 C 11.998697,12.728886 12,12.39137 12,10.870815 V 8.999554 c 0.552285,0 1,-0.4477553 1,-1.0000892 0,-0.552334 -0.447715,-1.0000892 -1,-1.0000892 V 5.1300682 C 12,3.6055204 12.00015,3.266567 11.833984,3.098637 11.792444,3.056654 11.740834,3.02644 11.667969,3.010738 11.613319,2.998962 11.547367,2.996662 11.464844,3.0048787 Z m 2.83789,1.9474393 c -0.201408,-0.00154 -0.394971,0.078006 -0.537109,0.2207228 -0.292279,0.2934453 -0.291452,0.7682747 0.002,1.0606415 0.469065,0.4687019 0.731876,1.1025853 0.732375,1.7657825 -4.99e-4,0.6631971 -0.263263,1.2970806 -0.732422,1.7657825 -0.293358,0.2923667 -0.294185,0.7671957 -0.002,1.0606417 0.292341,0.293384 0.767128,0.294211 1.060547,0.002 C 15.576344,10.078401 15.999203,9.0598323 16,7.9994648 15.999203,6.9390972 15.576297,5.9204816 14.826172,5.1710875 14.687064,5.0324366 14.499125,4.9538879 14.302734,4.952318 Z m -4.019531,0.2441624 c 0.04771,0.01008 0.08022,0.029694 0.107422,0.056646 C 10.49943,5.360936 10.5,5.5791803 10.5,6.55793 v 2.8850229 c 0,0.9761861 -2.43e-4,1.1921121 -0.109375,1.3008971 -0.109134,0.108787 -0.325711,0.109478 -1.0917969,-0.216816 C 8.5327426,10.200741 5,8.2865998 5,8.2865998 V 7.7103765 c 0,0 3.5369881,-1.9152472 4.3007812,-2.2404343 C 9.873627,5.226052 10.140075,5.1662412 10.283203,5.1964804 Z"
       style="opacity:1;vector-effect:none;fill:#000000;fill-opacity:1;stroke:none;stroke-width:5.00031;stroke-linecap:round;stroke-linejoin:round;stroke-miterlimit:4;stroke-dasharray:none;stroke-dashoffset:0;stroke-opacity:1"
       id="rect815" />
  </g>
</svg>
