<?xml version="1.0" encoding="UTF-8" standalone="no"?>
<svg
   xmlns:dc="http://purl.org/dc/elements/1.1/"
   xmlns:cc="http://creativecommons.org/ns#"
   xmlns:rdf="http://www.w3.org/1999/02/22-rdf-syntax-ns#"
   xmlns:svg="http://www.w3.org/2000/svg"
   xmlns="http://www.w3.org/2000/svg"
   id="SVGRoot"
   version="1.1"
   viewBox="0 0 16 16"
   height="16px"
   width="16px">
  <defs
     id="defs815" />
  <metadata
     id="metadata818">
    <rdf:RDF>
      <cc:Work
         rdf:about="">
        <dc:format>image/svg+xml</dc:format>
        <dc:type
           rdf:resource="http://purl.org/dc/dcmitype/StillImage" />
        <dc:title></dc:title>
        <dc:creator>
          <cc:Agent>
            <dc:title>T. Gantt</dc:title>
          </cc:Agent>
        </dc:creator>
      </cc:Work>
    </rdf:RDF>
  </metadata>
  <g
     id="layer3">
    <path
       id="rect1599"
       d="M 2.5,1 C 2.436095,1 2.3726704,1.012626 2.3125,1.037109 2.249722,1.062409 2.1934968,1.099472 2.1464844,1.146484 L 1.4394531,1.8535156 c -0.1958686,0.1958686 -0.1958686,0.5111627 0,0.7070313 C 1.5921938,2.7132875 1.8152575,2.7436804 2,2.6582031 V 4 H 1.5 C 1.223,4 1,4.223 1,4.5 1,4.777 1.223,5 1.5,5 h 2 C 3.777,5 4,4.777 4,4.5 4,4.223 3.777,4 3.5,4 H 3 V 1.5 C 3,1.4335466 2.9862262,1.3704041 2.9628906,1.3125 2.9375909,1.2497222 2.900528,1.1934968 2.8535156,1.1464844 2.8065032,1.099472 2.7502778,1.0624091 2.6875,1.0371094 2.6295959,1.0137738 2.5664534,1 2.5,1 Z m 4,2 C 6.223,3 6,3.223 6,3.5 6,3.777 6.223,4 6.5,4 h 8 C 14.777,4 15,3.777 15,3.5 15,3.223 14.777,3 14.5,3 Z M 2.4785156,6 C 2.0881723,6.00569 1.7154259,6.1633384 1.4394531,6.4394531 c -0.1952118,0.1952535 -0.1952118,0.5117778 0,0.7070313 0.1952535,0.1952118 0.5117778,0.1952118 0.7070313,0 0.1952535,-0.1952118 0.5117777,-0.1952118 0.7070312,0 0.1952118,0.1952535 0.1952118,0.5117777 0,0.7070312 L 1.2207031,9.0859375 c -0.026592,0.017936 -0.051625,0.037953 -0.074219,0.060547 C 1.0561097,9.2368593 1,9.3615 1,9.5 1,9.777 1.223,10 1.5,10 h 2 C 3.777,10 4,9.777 4,9.5 4,9.223 3.777,9 3.5,9 H 2.9785156 L 3.5605469,8.5605469 c 0.5856354,-0.5857605 0.5856354,-1.5353333 0,-2.1210938 C 3.274046,6.1528108 2.8837489,5.9942966 2.4785156,6 Z M 6.5,8 C 6.223,8 6,8.223 6,8.5 6,8.777 6.223,9 6.5,9 h 8 C 14.777,9 15,8.777 15,8.5 15,8.223 14.777,8 14.5,8 Z m -3.9765625,3 a 1.5,1.5 0 0 0 -1.0820313,0.439453 0.5,0.5 0 0 0 0,0.707031 0.5,0.5 0 0 0 0.7070313,0 0.5,0.5 0 0 1 0.7070313,0 A 0.5,0.5 0 0 1 3.0019531,12.5 h -0.5 a 0.5,0.5 0 0 0 -0.5,0.5 0.5,0.5 0 0 0 0.5,0.5 h 0.5 a 0.5,0.5 0 0 1 -0.1464843,0.353516 0.5,0.5 0 0 1 -0.7070313,0 0.5,0.5 0 0 0 -0.7070313,0 0.5,0.5 0 0 0 0,0.707031 1.5,1.5 0 0 0 2.1210938,0 A 1.5,1.5 0 0 0 3.9140625,13 1.5,1.5 0 0 0 3.5625,11.439453 1.5,1.5 0 0 0 2.5234375,11 Z M 6.5,13 C 6.223,13 6,13.223 6,13.5 6,13.777 6.223,14 6.5,14 h 8 C 14.777,14 15,13.777 15,13.5 15,13.223 14.777,13 14.5,13 Z"
       style="opacity:1;vector-effect:none;fill:#000000;fill-opacity:1;fill-rule:nonzero;stroke:none;stroke-width:25;stroke-linecap:round;stroke-linejoin:round;stroke-miterlimit:4;stroke-dasharray:none;stroke-dashoffset:0;stroke-opacity:1" />
  </g>
</svg>
