<?xml version="1.0" encoding="UTF-8" standalone="no"?>
<svg
   xmlns:dc="http://purl.org/dc/elements/1.1/"
   xmlns:cc="http://creativecommons.org/ns#"
   xmlns:rdf="http://www.w3.org/1999/02/22-rdf-syntax-ns#"
   xmlns:svg="http://www.w3.org/2000/svg"
   xmlns="http://www.w3.org/2000/svg"
   version="1.1"
   id="svg2985"
   height="16px"
   width="16px">
  <defs
     id="defs2987" />
  <metadata
     id="metadata2990">
    <rdf:RDF>
      <cc:Work
         rdf:about="">
        <dc:format>image/svg+xml</dc:format>
        <dc:type
           rdf:resource="http://purl.org/dc/dcmitype/StillImage" />
        <dc:title></dc:title>
        <dc:creator>
          <cc:Agent>
            <dc:title>T. Gantt</dc:title>
          </cc:Agent>
        </dc:creator>
      </cc:Work>
    </rdf:RDF>
  </metadata>
  <g
     style="opacity:1"
     id="layer2">
    <path
       id="rect815"
       d="M 5.25,0 C 5.1115,0 4.9861779,0.11064869 4.96875,0.24804688 L 4.4921875,4 H 2.25 C 2.1115,4 2,4.1115011 2,4.25 v 1.5 C 2,5.8884989 2.1115,6 2.25,6 H 4.2382812 L 3.7324219,10 H 1.25 C 1.1115,10 1,10.111501 1,10.25 v 1.5 C 1,11.888499 1.1115,12 1.25,12 H 3.4785156 L 3.0019531,15.751953 C 2.9845252,15.889351 3.0822031,16 3.2207031,16 H 4.75 c 0.1385,0 0.2638221,-0.110649 0.28125,-0.248047 L 5.5078125,12 H 9.4785156 L 9.0019531,15.751953 C 8.9845252,15.889351 9.0822031,16 9.2207031,16 H 10.75 c 0.1385,0 0.263822,-0.110649 0.28125,-0.248047 L 11.507812,12 H 13.75 C 13.8885,12 14,11.888499 14,11.75 v -1.5 C 14,10.111501 13.8885,10 13.75,10 H 11.761719 L 12.267578,6 H 14.75 C 14.8885,6 15,5.8884989 15,5.75 V 4.25 C 15,4.1115011 14.8885,4 14.75,4 H 12.521484 L 12.998047,0.24804688 C 13.015475,0.11064869 12.917797,0 12.779297,0 H 11.25 C 11.1115,0 10.986178,0.11064869 10.96875,0.24804688 L 10.492188,4 H 6.5214844 L 6.9980469,0.24804688 C 7.0154748,0.11064869 6.9177969,0 6.7792969,0 Z M 6.2675781,6 H 10.238281 L 9.7324219,10 H 5.7617188 Z"
       style="opacity:1;vector-effect:none;fill:#000000;fill-opacity:1;fill-rule:nonzero;stroke:none;stroke-width:25.00000191;stroke-linecap:round;stroke-linejoin:round;stroke-miterlimit:4;stroke-dasharray:none;stroke-dashoffset:0;stroke-opacity:1" />
  </g>
</svg>
