<?xml version="1.0" encoding="UTF-8" standalone="no"?>
<!-- Created with Inkscape (http://www.inkscape.org/) -->

<svg
   width="16"
   height="16"
   viewBox="0 0 16 16"
   version="1.1"
   id="svg5"
   xmlns="http://www.w3.org/2000/svg"
   xmlns:svg="http://www.w3.org/2000/svg">
  <defs
     id="defs2" />
  <g
     id="layer3"
     style="display:inline">
    <path
       id="rect50767-5"
       style="fill:#000000;fill-opacity:1;stroke:none;stroke-width:1;stroke-linecap:round;stroke-linejoin:round;stroke-miterlimit:4;stroke-dasharray:none;stop-color:#000000"
       d="M 10.077715,0 C 9.8221175,1.523623e-8 9.5665646,0.09709835 9.3707126,0.29296875 L 5.185336,4.4785156 11.521015,10.814453 15.706392,6.6289062 c 0.391704,-0.3917406 0.391704,-1.0223218 0,-1.4140624 L 10.784717,0.29296875 C 10.588865,0.09709837 10.333313,-1.523622e-8 10.077715,0 Z M 4.4783334,5.1855469 3.2615861,6.4023438 c -0.3917046,0.3917406 -0.3917046,1.0242748 0,1.4160156 L 4.2224844,8.7792969 C 4.6129826,9.1698314 4.562126,9.7437038 4.1111609,10.0625 c -1.1842376,0.837161 -3.26523304,2.320038 -3.53696551,2.591797 -0.76536692,0.765436 -0.76536722,2.006047 0,2.771484 0.76536711,0.765438 2.00600461,0.765438 2.77137161,0 0.2718845,-0.271909 1.7568165,-2.355058 2.5936445,-3.539062 0.3179876,-0.449912 0.8906996,-0.49991 1.2811979,-0.109375 l 0.9608984,0.960937 c 0.3917044,0.39174 1.0242537,0.39174 1.415958,0 l 1.2167472,-1.216797 z" />
  </g>
</svg>
