<?xml version="1.0" encoding="UTF-8" standalone="no"?>
<svg
   xmlns:dc="http://purl.org/dc/elements/1.1/"
   xmlns:cc="http://creativecommons.org/ns#"
   xmlns:rdf="http://www.w3.org/1999/02/22-rdf-syntax-ns#"
   xmlns:svg="http://www.w3.org/2000/svg"
   xmlns="http://www.w3.org/2000/svg"
   id="SVGRoot"
   version="1.1"
   viewBox="0 0 16.0 16.0"
   height="16.0px"
   width="16.0px">
  <defs
     id="defs833" />
  <metadata
     id="metadata836">
    <rdf:RDF>
      <cc:Work
         rdf:about="">
        <dc:format>image/svg+xml</dc:format>
        <dc:type
           rdf:resource="http://purl.org/dc/dcmitype/StillImage" />
        <dc:title></dc:title>
      </cc:Work>
    </rdf:RDF>
  </metadata>
  <g
     id="layer1">
    <path
       d="M 4,0 C 3.446,0 3,0.446 3,1 v 14 c 0,0.554 0.446,1 1,1 h 8 c 0.554,0 1,-0.446 1,-1 V 1 C 13,0.446 12.554,0 12,0 Z m 0.75,2 h 6.5 c 0.1385,0 0.25,0.1115 0.25,0.25 v 11 c 0,0.1385 -0.1115,0.25 -0.25,0.25 H 4.75 C 4.6115,13.5 4.5,13.3885 4.5,13.25 v -11 C 4.5,2.1115 4.6115,2 4.75,2 Z M 7.9863281,14 A 0.75,0.75 0 0 1 8,14 0.75,0.75 0 0 1 8.75,14.75 0.75,0.75 0 0 1 8,15.5 0.75,0.75 0 0 1 7.25,14.75 0.75,0.75 0 0 1 7.9863281,14 Z"
       style="fill:#000000;stroke:none;stroke-width:240;stroke-linecap:round;stroke-linejoin:round;stop-color:#000000"
       id="rect1410" />
  </g>
</svg>
