<?xml version="1.0" encoding="UTF-8" standalone="no"?>
<svg
   xmlns:dc="http://purl.org/dc/elements/1.1/"
   xmlns:cc="http://creativecommons.org/ns#"
   xmlns:rdf="http://www.w3.org/1999/02/22-rdf-syntax-ns#"
   xmlns:svg="http://www.w3.org/2000/svg"
   xmlns="http://www.w3.org/2000/svg"
   version="1.1"
   id="svg2985"
   height="16px"
   width="16px">
  <defs
     id="defs2987" />
  <metadata
     id="metadata2990">
    <rdf:RDF>
      <cc:Work
         rdf:about="">
        <dc:format>image/svg+xml</dc:format>
        <dc:type
           rdf:resource="http://purl.org/dc/dcmitype/StillImage" />
        <dc:title></dc:title>
        <dc:creator>
          <cc:Agent>
            <dc:title>T. Gantt</dc:title>
          </cc:Agent>
        </dc:creator>
      </cc:Work>
    </rdf:RDF>
  </metadata>
  <g
     style="opacity:1"
     id="layer2">
    <path
       id="rect815"
       d="M 3.5,2 C 3.223,2 3,2.223 3,2.5 V 4.3574219 C 4.9775612,6.1300178 7,8.1324838 7,8.5 7,8.8675162 4.9775612,10.869982 3,12.642578 V 14.5 C 3,14.777 3.223,15 3.5,15 h 11 C 14.777,15 15,14.777 15,14.5 V 2.5 C 15,2.223 14.777,2 14.5,2 Z m 1.25,2 h 8 C 12.8885,4 13,4.1115 13,4.25 v 0.5 C 13,4.8885 12.8885,5 12.75,5 h -8 C 4.6115,5 4.5,4.8885 4.5,4.75 V 4.25 C 4.5,4.1115 4.6115,4 4.75,4 Z M 1.1445312,5.0058594 c -0.19277104,0.1746672 -0.19277104,6.8136136 0,6.9882816 C 1.3373023,12.168808 5,8.8493345 5,8.5 5,8.1506655 1.3373023,4.8311921 1.1445312,5.0058594 Z M 6.75,6 h 6 C 12.8885,6 13,6.1115 13,6.25 v 0.5 C 13,6.8885 12.8885,7 12.75,7 h -6 C 6.6115,7 6.5,6.8885 6.5,6.75 V 6.25 C 6.5,6.1115 6.6115,6 6.75,6 Z m 1.5,2 h 4.5 C 12.8885,8 13,8.1115 13,8.25 v 0.5 C 13,8.8885 12.8885,9 12.75,9 H 8.25 C 8.1115,9 8,8.8885 8,8.75 V 8.25 C 8,8.1115 8.1115,8 8.25,8 Z m -1.5,2 h 6 c 0.1385,0 0.25,0.1115 0.25,0.25 v 0.5 C 13,10.8885 12.8885,11 12.75,11 h -6 C 6.6115,11 6.5,10.8885 6.5,10.75 v -0.5 C 6.5,10.1115 6.6115,10 6.75,10 Z m -2,2 h 8 c 0.1385,0 0.25,0.1115 0.25,0.25 v 0.5 C 13,12.8885 12.8885,13 12.75,13 h -8 C 4.6115,13 4.5,12.8885 4.5,12.75 v -0.5 C 4.5,12.1115 4.6115,12 4.75,12 Z"
       style="opacity:1;vector-effect:none;fill:#000000;fill-opacity:1;stroke:none;stroke-width:5.00031471;stroke-linecap:round;stroke-linejoin:round;stroke-miterlimit:4;stroke-dasharray:none;stroke-dashoffset:0;stroke-opacity:1" />
  </g>
</svg>
