<?xml version="1.0" encoding="UTF-8" standalone="no"?>
<!-- Created with Inkscape (http://www.inkscape.org/) -->

<svg
   width="16"
   height="16"
   viewBox="0 0 16 16"
   version="1.1"
   id="svg5"
   xmlns="http://www.w3.org/2000/svg"
   xmlns:svg="http://www.w3.org/2000/svg">
  <defs
     id="defs2" />
  <g
     id="g81907"
     style="display:inline">
    <path
       id="path81881"
       style="fill:#000000;stroke:none;stroke-width:4.5;stroke-linecap:round;stroke-linejoin:round;stroke-miterlimit:4;stroke-dasharray:none;stop-color:#000000"
       d="M 14.966797,0.01105314 A 0.750075,0.75010613 0 0 0 14.501953,0.29231481 L 8.0644531,8.6989137 A 0.750075,0.75010613 0 0 0 9.1855469,9.6911423 L 10.785156,8.1207647 C 13.888072,7.4542136 15.334532,5.578243 15.783203,3.878401 16.246527,2.1230446 15.822263,0.55795083 15.822263,0.55795083 A 0.750075,0.75010613 0 0 0 15.244141,0.01495955 0.750075,0.75010613 0 0 0 14.966797,0.01105314 Z M 1.7363281,3.2494687 c -0.5806064,0 -1.04973646,0.3595965 -1.32421872,0.7773761 C 0.13762709,4.4446244 0,4.9521694 0,5.4995621 0,6.0469548 0.13762709,6.5544999 0.41210938,6.9722794 L 4.4082031,13.054564 a 0.75,0.75003112 0 0 0 0.023437,0.04687 c 0.082214,0.125136 0.1660156,0.367396 0.1660156,0.648465 0,0.281068 -0.083802,0.523329 -0.1660156,0.648465 -0.034256,0.05214 -0.056339,0.07492 -0.070312,0.08789 -0.013973,-0.01297 -0.036057,-0.03575 -0.070312,-0.08789 C 4.2088013,14.273233 4.125,14.030973 4.125,13.749905 a 0.75,0.75003112 0 0 0 -0.75,-0.750032 0.75,0.75003112 0 0 0 -0.75,0.750032 c 0,0.547392 0.1376255,1.054937 0.4121094,1.472717 0.2744819,0.417781 0.7436127,0.777376 1.3242187,0.777376 h 7.2734379 0.002 c 0.0013,4e-6 0.0026,0 0.0039,0 0.580606,0 1.049737,-0.359595 1.324219,-0.777376 0.274484,-0.41778 0.412109,-0.925325 0.412109,-1.472717 0,-0.547393 -0.137625,-1.054938 -0.412109,-1.472718 L 11.009766,9.3005011 9.8847656,10.406016 A 1.750175,1.7502476 0 0 1 7.2695312,8.0934198 L 7.7246094,7.4996451 H 3.1191406 A 0.5,0.50002075 0 0 1 2.9726562,7.4762066 0.5,0.50002075 0 0 1 2.9550781,7.470347 0.5,0.50002075 0 0 1 2.8359375,7.4097976 0.5,0.50002075 0 0 1 2.8222656,7.4000316 0.5,0.50002075 0 0 1 2.71875,7.2965117 0.5,0.50002075 0 0 1 2.7089844,7.2828392 0.5,0.50002075 0 0 1 2.6484375,7.1636937 0.5,0.50002075 0 0 1 2.6425781,7.1461149 0.5,0.50002075 0 0 1 2.6191406,6.9996244 c 0,-0.3254555 -0.092772,-0.6112795 -0.2070312,-0.7851888 C 2.2978504,6.040526 2.1993256,5.9995829 2.1328125,5.9995829 a 0.5,0.50002075 0 0 1 -0.5,-0.5000208 0.5,0.50002075 0 0 1 0.5,-0.5000207 c 0.4777878,0 0.8727968,0.2950844 1.1152344,0.66409 0.1595893,0.2429052 0.2694326,0.5267171 0.3261719,0.8359722 H 8.4902344 L 10.355469,4.0639556 C 10.347636,4.0515202 10.3401,4.0391263 10.332031,4.0268448 10.057549,3.609066 9.5884189,3.2494687 9.0078125,3.2494687 Z" />
  </g>
</svg>
