<?xml version="1.0" encoding="UTF-8" standalone="no"?>
<svg
   xmlns:dc="http://purl.org/dc/elements/1.1/"
   xmlns:cc="http://creativecommons.org/ns#"
   xmlns:rdf="http://www.w3.org/1999/02/22-rdf-syntax-ns#"
   xmlns:svg="http://www.w3.org/2000/svg"
   xmlns="http://www.w3.org/2000/svg"
   version="1.1"
   id="svg3870"
   height="16px"
   width="16px">
  <defs
     id="defs3872" />
  <metadata
     id="metadata3875">
    <rdf:RDF>
      <cc:Work
         rdf:about="">
        <dc:format>image/svg+xml</dc:format>
        <dc:type
           rdf:resource="http://purl.org/dc/dcmitype/StillImage" />
        <dc:title></dc:title>
        <dc:creator>
          <cc:Agent>
            <dc:title>T. Gantt</dc:title>
          </cc:Agent>
        </dc:creator>
      </cc:Work>
    </rdf:RDF>
  </metadata>
  <g
     id="layer3">
    <path
       id="path827"
       d="M 12.964844,0.86914062 A 1.2741925,1.2741925 0 0 0 11.841797,1.546875 L 8.9921875,0.94140625 A 0.35003499,0.35003499 0 0 0 8.8886719,0.93359325 0.35003499,0.35003499 0 0 0 8.5761719,1.210937 L 7.6933594,5.3886719 A 7.0080585,4.8542051 0 0 0 2.9902344,6.8457031 1.7520145,1.7520145 0 0 0 1.7519531,6.3320312 1.7520145,1.7520145 0 0 0 0,8.0839844 1.7520145,1.7520145 0 0 0 1.0410156,9.6835938 7.0080585,4.8542051 0 0 0 0.9921875,10.234375 7.0080585,4.8542051 0 0 0 8,15.087891 7.0080585,4.8542051 0 0 0 15.007812,10.234375 7.0080585,4.8542051 0 0 0 14.955078,9.6855469 1.7520145,1.7520145 0 0 0 16,8.0839844 1.7520145,1.7520145 0 0 0 14.248047,6.3320312 1.7520145,1.7520145 0 0 0 13.013672,6.8417969 7.0080585,4.8542051 0 0 0 8.4082031,5.3945312 l 0.78125,-3.6972656 2.5039059,0.5332032 a 1.2741925,1.2741925 0 0 0 1.271485,1.1875 1.2741925,1.2741925 0 0 0 1.273437,-1.2753907 1.2741925,1.2741925 0 0 0 -1.273437,-1.27343748 z M 5.2714844,8.1640625 A 1.2104828,1.2104828 0 0 1 6.4804688,9.375 1.2104828,1.2104828 0 0 1 5.2714844,10.583984 1.2104828,1.2104828 0 0 1 4.0605469,9.375 1.2104828,1.2104828 0 0 1 5.2714844,8.1640625 Z m 5.4570316,0 A 1.2104828,1.2104828 0 0 1 11.939453,9.375 1.2104828,1.2104828 0 0 1 10.728516,10.583984 1.2104828,1.2104828 0 0 1 9.5195312,9.375 1.2104828,1.2104828 0 0 1 10.728516,8.1640625 Z M 5.2734375,12.074219 a 0.35003499,0.35003499 0 0 1 0.2539063,0.09961 c -2e-7,0 0.178975,0.164659 0.5917968,0.353516 C 6.5319625,12.716201 7.1566023,12.910156 8,12.910156 c 0.8433977,0 1.4680375,-0.193952 1.8808594,-0.382812 0.4128216,-0.188857 0.5917966,-0.353516 0.5917966,-0.353516 a 0.35003499,0.35003499 0 0 1 0.246094,-0.0957 0.35003499,0.35003499 0 0 1 0.224609,0.613281 c 0,0 -0.279098,0.247402 -0.771484,0.472656 C 9.6794893,13.389319 8.95109,13.611328 8,13.611328 c -0.95109,0 -1.6794893,-0.22201 -2.171875,-0.447266 C 5.3357393,12.938808 5.0566406,12.691406 5.0566406,12.691406 a 0.35003499,0.35003499 0 0 1 0.2167969,-0.617187 z"
       style="opacity:1;vector-effect:none;fill:#000000;fill-opacity:1;stroke:none;stroke-width:75;stroke-linecap:round;stroke-linejoin:round;stroke-miterlimit:4;stroke-dasharray:none;stroke-dashoffset:0;stroke-opacity:1" />
  </g>
</svg>
