<?xml version="1.0" encoding="UTF-8" standalone="no"?>
<svg
   xmlns:dc="http://purl.org/dc/elements/1.1/"
   xmlns:cc="http://creativecommons.org/ns#"
   xmlns:rdf="http://www.w3.org/1999/02/22-rdf-syntax-ns#"
   xmlns:svg="http://www.w3.org/2000/svg"
   xmlns="http://www.w3.org/2000/svg"
   version="1.1"
   id="svg3870"
   height="16px"
   width="16px">
  <defs
     id="defs3872" />
  <metadata
     id="metadata3875">
    <rdf:RDF>
      <cc:Work
         rdf:about="">
        <dc:format>image/svg+xml</dc:format>
        <dc:type
           rdf:resource="http://purl.org/dc/dcmitype/StillImage" />
        <dc:title></dc:title>
        <dc:creator>
          <cc:Agent>
            <dc:title>T. Gantt</dc:title>
          </cc:Agent>
        </dc:creator>
      </cc:Work>
    </rdf:RDF>
  </metadata>
  <g
     style="display:inline"
     id="layer2">
    <path
       id="rect816"
       d="m 4.0006672,3.0008337 c -0.2555765,0 -0.5110775,0.097084 -0.7069133,0.2929199 -0.3916719,0.3916718 -0.3916719,1.0221549 0,1.4138266 L 6.5861735,7.9999999 3.2937539,11.29242 c -0.3916719,0.391671 -0.3916719,1.022154 0,1.413826 0.3916718,0.391672 1.0221548,0.391672 1.4138266,0 L 8.0000002,9.4138266 11.29242,12.706246 c 0.391672,0.391672 1.022154,0.391672 1.413826,0 0.391672,-0.391672 0.391672,-1.022155 0,-1.413826 L 9.4138268,7.9999999 12.706246,4.7075802 c 0.391672,-0.3916717 0.391672,-1.0221548 0,-1.4138266 -0.391672,-0.3916718 -1.022154,-0.3916718 -1.413826,0 L 8.0000002,6.5861732 4.7075805,3.2937536 C 4.5117447,3.0979177 4.2562437,3.0008337 4.0006672,3.0008337 Z"
       style="color:#000000;display:inline;overflow:visible;visibility:visible;opacity:1;vector-effect:none;fill:#000000;fill-opacity:1;fill-rule:nonzero;stroke:none;stroke-width:41.71699905;stroke-linecap:round;stroke-linejoin:round;stroke-miterlimit:4;stroke-dasharray:none;stroke-dashoffset:0;stroke-opacity:1;marker:none;enable-background:accumulate" />
  </g>
</svg>
