<?xml version="1.0" encoding="UTF-8" standalone="no"?>
<!-- Created with Inkscape (http://www.inkscape.org/) -->

<svg
   width="16.0px"
   height="16.0px"
   viewBox="0 0 16.0 16.0"
   version="1.1"
   id="SVGRoot"
   xmlns="http://www.w3.org/2000/svg"
   xmlns:svg="http://www.w3.org/2000/svg">
  <defs
     id="defs182" />
  <g
     id="layer1">
    <path
       id="rect369"
       style="stroke-width:9.99999;stroke-linejoin:round;stroke-miterlimit:1.2;stop-color:#000000"
       d="M 7,1 A 1.2198039,1.2198039 0 0 0 5.8046875,1.9804688 L 5.4003906,4 H 3 C 2.4460012,4 2,4.4460012 2,5 v 3 c -1.10799778,0 -2,0.8920022 -2,2 0,1.107998 0.89200222,2 2,2 v 2 c 0,0.553998 0.4460012,1 1,1 h 10 c 0.553998,0 1,-0.446002 1,-1 v -2 c 1.107998,0 2,-0.892002 2,-2 C 16,8.8920022 15.107998,8 14,8 V 5 C 14,4.4460012 13.553998,4 13,4 H 10.599609 L 10.195312,1.9804688 A 1.2198039,1.2198039 0 0 0 9,1 Z M 5.25,6.5 A 1.75,1.75 0 0 1 7,8.25 1.75,1.75 0 0 1 5.25,10 1.75,1.75 0 0 1 3.5,8.25 1.75,1.75 0 0 1 5.25,6.5 Z m 5.5,0 A 1.75,1.75 0 0 1 12.5,8.25 1.75,1.75 0 0 1 10.75,10 1.75,1.75 0 0 1 9,8.25 1.75,1.75 0 0 1 10.75,6.5 Z M 5,11.5 h 6 v 2 H 5 Z" />
  </g>
</svg>
