<?xml version="1.0" encoding="UTF-8" standalone="no"?>
<svg
   xmlns:dc="http://purl.org/dc/elements/1.1/"
   xmlns:cc="http://creativecommons.org/ns#"
   xmlns:rdf="http://www.w3.org/1999/02/22-rdf-syntax-ns#"
   xmlns:svg="http://www.w3.org/2000/svg"
   xmlns="http://www.w3.org/2000/svg"
   version="1.1"
   id="svg2985"
   height="16px"
   width="16px">
  <defs
     id="defs2987" />
  <metadata
     id="metadata2990">
    <rdf:RDF>
      <cc:Work
         rdf:about="">
        <dc:format>image/svg+xml</dc:format>
        <dc:type
           rdf:resource="http://purl.org/dc/dcmitype/StillImage" />
        <dc:title></dc:title>
        <dc:creator>
          <cc:Agent>
            <dc:title>T. Gantt</dc:title>
          </cc:Agent>
        </dc:creator>
      </cc:Work>
    </rdf:RDF>
  </metadata>
  <g
     style="display:inline;opacity:1"
     id="layer2">
    <path
       id="rect815"
       d="M 2,3 C 0.892,3 0,3.892 0,5 v 5 c 0,1.108 0.892,2 2,2 h 12 c 1.108,0 2,-0.892 2,-2 V 5 C 16,3.892 15.108,3 14,3 Z m 3.25,2 h 5.5 C 10.8885,5 11,5.1115 11,5.25 v 4.5 C 11,9.8885 10.8885,10 10.75,10 H 5.25 C 5.1115,10 5,9.8885 5,9.75 V 5.25 C 5,5.1115 5.1115,5 5.25,5 Z m -3,1 h 0.5 C 2.8885,6 3,6.1115 3,6.25 V 7 H 3.75 C 3.8885,7 4,7.1115 4,7.25 v 0.5 C 4,7.8885 3.8885,8 3.75,8 H 3 V 8.75 C 3,8.8885 2.8885,9 2.75,9 H 2.25 C 2.1115,9 2,8.8885 2,8.75 V 8 H 1.25 C 1.1115,8 1,7.8885 1,7.75 V 7.25 C 1,7.1115 1.1115,7 1.25,7 H 2 V 6.25 C 2,6.1115 2.1115,6 2.25,6 Z M 13.5,6 C 13.777,6 14,6.223 14,6.5 14,6.777 13.777,7 13.5,7 13.223,7 13,6.777 13,6.5 13,6.223 13.223,6 13.5,6 Z m -1,1 C 12.777,7 13,7.223 13,7.5 13,7.777 12.777,8 12.5,8 12.223,8 12,7.777 12,7.5 12,7.223 12.223,7 12.5,7 Z m 2,0 C 14.777,7 15,7.223 15,7.5 15,7.777 14.777,8 14.5,8 14.223,8 14,7.777 14,7.5 14,7.223 14.223,7 14.5,7 Z m -1,1 C 13.777,8 14,8.223 14,8.5 14,8.777 13.777,9 13.5,9 13.223,9 13,8.777 13,8.5 13,8.223 13.223,8 13.5,8 Z"
       style="opacity:1;vector-effect:none;fill:#000000;fill-opacity:1;stroke:none;stroke-width:5;stroke-linecap:round;stroke-linejoin:round;stroke-miterlimit:4;stroke-dasharray:none;stroke-dashoffset:0;stroke-opacity:1" />
  </g>
</svg>
