<?xml version="1.0" encoding="UTF-8" standalone="no"?>
<!-- Created with Inkscape (http://www.inkscape.org/) -->

<svg
   width="16.0px"
   height="16.0px"
   viewBox="0 0 16.0 16.0"
   version="1.1"
   id="SVGRoot"
   xmlns="http://www.w3.org/2000/svg"
   xmlns:svg="http://www.w3.org/2000/svg">
  <defs
     id="defs5248" />
  <g
     id="layer1">
    <path
       id="rect81720"
       style="fill:#000000;stroke-width:2.99999;stroke-linecap:round;stop-color:#000000"
       d="m 2.5,3 c -0.554,0 -1,0.4460001 -1,1 v 6.5 c 0,0.554 0.446,1 1,1 H 0.75 C 0.3345,11.5 0,11.8345 0,12.25 0,12.6655 0.3345,13 0.75,13 h 14.5 C 15.6655,13 16,12.6655 16,12.25 16,11.8345 15.6655,11.5 15.25,11.5 H 13.5 c 0.554,0 1,-0.446 1,-1 V 4 c 0,-0.5539999 -0.446,-1 -1,-1 z M 8.4492188,4.2539062 C 8.7600894,4.2836006 11.5,6.8456176 11.5,7.1230469 11.5,7.4094253 8.581374,10.131472 8.4277344,9.9882812 8.3699564,9.9344343 8.3404869,9.0688631 8.3261719,8.0800781 6.6961797,8.0800781 5.2788974,8.948177 4.5,10.246094 V 9.9921875 c 0,-2.119411 1.70676,-3.8242187 3.8261719,-3.8242187 0.014324,-0.9887847 0.043786,-1.8543582 0.1015625,-1.9082032 0.0048,-0.00447 0.011456,-0.00682 0.021484,-0.00586 z" />
  </g>
</svg>
