<?xml version="1.0" encoding="UTF-8" standalone="no"?>
<svg
   xmlns:dc="http://purl.org/dc/elements/1.1/"
   xmlns:cc="http://creativecommons.org/ns#"
   xmlns:rdf="http://www.w3.org/1999/02/22-rdf-syntax-ns#"
   xmlns:svg="http://www.w3.org/2000/svg"
   xmlns="http://www.w3.org/2000/svg"
   version="1.1"
   id="svg3870"
   height="16px"
   width="16px">
  <defs
     id="defs3872" />
  <metadata
     id="metadata3875">
    <rdf:RDF>
      <cc:Work
         rdf:about="">
        <dc:format>image/svg+xml</dc:format>
        <dc:type
           rdf:resource="http://purl.org/dc/dcmitype/StillImage" />
        <dc:title></dc:title>
        <dc:creator>
          <cc:Agent>
            <dc:title>T. Gantt</dc:title>
          </cc:Agent>
        </dc:creator>
      </cc:Work>
    </rdf:RDF>
  </metadata>
  <g
     style="opacity:1"
     id="layer2">
    <path
       id="path829"
       d="M 0.25,2 C 0.1115,2 0,2.1115 0,2.25 v 9.5 C 0,11.8885 0.1115,12 0.25,12 h 12.5 C 12.8885,12 13,11.8885 13,11.75 V 2.25 C 13,2.1115 12.8885,2 12.75,2 Z M 1,3 H 12 V 9.1914062 C 10.838472,7.6225371 9.5271582,6 9,6 8.62819,6 7.8638998,6.8052489 7.0507812,7.8066406 7.7704842,8.4034209 8.8046296,9.7455896 9.7207031,11 H 8.8574219 C 7.7322123,9.4936541 6.5053236,8 6,8 5.4946764,8 4.2677877,9.4936541 3.1425781,11 H 1 Z M 3,4 C 2.446,4 2,4.446 2,5 2,5.554 2.446,6 3,6 3.554,6 4,5.554 4,5 4,4.446 3.554,4 3,4 Z m 11,0 v 1 h 1 v 8 H 2 v 0.75 C 2,13.8885 2.1115,14 2.25,14 h 13.5 C 15.8885,14 16,13.8885 16,13.75 V 4.25 C 16,4.1115 15.8885,4 15.75,4 Z"
       style="fill:#000000;stroke:none;stroke-width:1px;stroke-linecap:butt;stroke-linejoin:miter;stroke-opacity:1" />
  </g>
</svg>
