<?xml version="1.0" encoding="UTF-8" standalone="no"?>
<!-- Created with Inkscape (http://www.inkscape.org/) -->

<svg
   width="16.0px"
   height="16.0px"
   viewBox="0 0 16.0 16.0"
   version="1.1"
   id="SVGRoot"
   xmlns="http://www.w3.org/2000/svg"
   xmlns:svg="http://www.w3.org/2000/svg">
  <defs
     id="defs5248" />
  <g
     id="layer1">
    <path
       id="rect81720"
       style="fill:#000000;stroke-width:2.99999;stroke-linecap:round;stop-color:#000000"
       d="m 1.7519531,1 a 0.74980276,0.74990126 0 0 0 -0.53125,0.21875 0.74980276,0.74990126 0 0 0 0,1.0625 L 13.716797,14.779297 a 0.74980276,0.74990126 0 0 0 1.0625,0 0.74980276,0.74990126 0 0 0 0,-1.0625 L 14.0625,13 H 15.25 C 15.6655,13 16,12.6655 16,12.25 16,11.8345 15.6655,11.5 15.25,11.5 H 13.5 c 0.554,0 1,-0.446 1,-1 V 4 c 0,-0.5539999 -0.446,-1 -1,-1 H 4.0644531 L 2.2832031,1.21875 A 0.74980276,0.74990126 0 0 0 1.7519531,1 Z M 8.4492188,4.2539062 C 8.7600915,4.2835432 11.5,6.8456176 11.5,7.1230469 11.5,7.2747022 10.686677,8.1000987 9.8945312,8.8300781 L 7.3554688,6.2929688 c 0.3101508,-0.080634 0.6344945,-0.125 0.9707031,-0.125 0.014324,-0.9887848 0.043786,-1.8543582 0.1015625,-1.9082032 0.0048,-0.00447 0.011456,-0.00682 0.021484,-0.00586 z M 1.5,4.6835938 V 10.5 c 0,0.554 0.446,1 1,1 H 0.75 C 0.3345,11.5 0,11.8345 0,12.25 0,12.6655 0.3345,13 0.75,13 H 9.8164062 L 5.7304688,8.9140625 C 5.235425,9.2691757 4.8147471,9.7216143 4.5,10.246094 V 9.9921875 C 4.5,9.3242219 4.67027,8.6977496 4.96875,8.1523438 Z" />
  </g>
</svg>
