<?xml version="1.0" encoding="UTF-8" standalone="no"?>
<svg
   xmlns:dc="http://purl.org/dc/elements/1.1/"
   xmlns:cc="http://creativecommons.org/ns#"
   xmlns:rdf="http://www.w3.org/1999/02/22-rdf-syntax-ns#"
   xmlns:svg="http://www.w3.org/2000/svg"
   xmlns="http://www.w3.org/2000/svg"
   version="1.1"
   id="svg2985"
   height="16px"
   width="16px">
  <defs
     id="defs2987" />
  <metadata
     id="metadata2990">
    <rdf:RDF>
      <cc:Work
         rdf:about="">
        <dc:format>image/svg+xml</dc:format>
        <dc:type
           rdf:resource="http://purl.org/dc/dcmitype/StillImage" />
        <dc:title></dc:title>
        <dc:creator>
          <cc:Agent>
            <dc:title>T. Gantt</dc:title>
          </cc:Agent>
        </dc:creator>
      </cc:Work>
    </rdf:RDF>
  </metadata>
  <g
     style="opacity:1"
     id="layer2">
    <path
       d="M 6.5,1 C 3.453,1 1,3.453 1,6.5 1,9.547 3.453,12 6.5,12 7.7517703,12 8.8998933,11.581922 9.8222656,10.882812 l 3.8964844,3.896485 c 0.293803,0.293803 0.766744,0.293803 1.060547,0 0.293803,-0.293803 0.293803,-0.766744 0,-1.060547 L 10.882812,9.8222656 C 11.581921,8.8998933 12,7.7517703 12,6.5 12,3.453 9.547,1 6.5,1 Z m 0,1.5 c 2.216,0 4,1.784 4,4 0,2.216 -1.784,4 -4,4 -2.216,0 -4,-1.784 -4,-4 0,-2.216 1.784,-4 4,-4 z"
       style="opacity:1;vector-effect:none;fill:#000000;fill-opacity:1;stroke:none;stroke-width:5;stroke-linecap:round;stroke-linejoin:round;stroke-miterlimit:4;stroke-dasharray:none;stroke-dashoffset:0;stroke-opacity:1"
       id="rect817" />
  </g>
</svg>
