<?xml version="1.0" encoding="UTF-8" standalone="no"?>
<svg
   xmlns:dc="http://purl.org/dc/elements/1.1/"
   xmlns:cc="http://creativecommons.org/ns#"
   xmlns:rdf="http://www.w3.org/1999/02/22-rdf-syntax-ns#"
   xmlns:svg="http://www.w3.org/2000/svg"
   xmlns="http://www.w3.org/2000/svg"
   version="1.1"
   id="svg2985"
   height="16px"
   width="16px">
  <defs
     id="defs2987" />
  <metadata
     id="metadata2990">
    <rdf:RDF>
      <cc:Work
         rdf:about="">
        <dc:format>image/svg+xml</dc:format>
        <dc:type
           rdf:resource="http://purl.org/dc/dcmitype/StillImage" />
        <dc:title></dc:title>
        <dc:creator>
          <cc:Agent>
            <dc:title>T. Gantt</dc:title>
          </cc:Agent>
        </dc:creator>
      </cc:Work>
    </rdf:RDF>
  </metadata>
  <g
     style="opacity:1"
     id="layer2">
    <path
       id="rect817"
       d="M 6.00042,-2.516525e-7 C 2.6761873,-2.516525e-7 0,2.6761871 0,6.0004198 c 0,3.3242327 2.6761873,6.0004192 6.00042,6.0004192 1.3904026,0 2.6627362,-0.473847 3.6779918,-1.261807 l 0.4746432,0.474643 c -0.2233872,0.382973 -0.1882829,0.874292 0.140635,1.20321 l 3.291245,3.289292 c 0.391765,0.391764 1.022397,0.391764 1.414162,0 l 0.70708,-0.707081 c 0.391765,-0.391764 0.391765,-1.022396 0,-1.414162 L 12.416885,10.293689 C 12.087967,9.9647719 11.596649,9.9296676 11.213676,10.153054 L 10.739033,9.6784116 C 11.526993,8.663156 12.00084,7.3908223 12.00084,6.0004198 12.00084,2.6761871 9.3246527,-2.516525e-7 6.00042,-2.516525e-7 Z m 0,2.0001400516525 c 2.2161551,0 4.00028,1.7841249 4.00028,4.00028 0,2.2161551 -1.7841249,4.0002792 -4.00028,4.0002792 -2.2161551,0 -4.00028,-1.7841241 -4.00028,-4.0002792 0,-2.2161551 1.7841249,-4.00028 4.00028,-4.00028 z m -1.00007,2.00014 c -0.2731993,0 -0.5266679,0.1125755 -0.7070807,0.2929892 C 4.1128571,4.4736811 4.00028,4.7271495 4.00028,5.0003498 a 0.500085,0.500085 0 1 0 1.00007,0 0.500085,0.500085 0 1 0 0,-1.00007 z"
       style="opacity:1;vector-effect:none;fill:#000000;fill-opacity:1;stroke:none;stroke-width:5;stroke-linecap:round;stroke-linejoin:round;stroke-miterlimit:4;stroke-dasharray:none;stroke-dashoffset:0;stroke-opacity:1" />
  </g>
</svg>
