<?xml version="1.0" encoding="UTF-8" standalone="no"?>
<svg
   xmlns:dc="http://purl.org/dc/elements/1.1/"
   xmlns:cc="http://creativecommons.org/ns#"
   xmlns:rdf="http://www.w3.org/1999/02/22-rdf-syntax-ns#"
   xmlns:svg="http://www.w3.org/2000/svg"
   xmlns="http://www.w3.org/2000/svg"
   version="1.1"
   id="svg2985"
   height="16px"
   width="16px">
  <defs
     id="defs2987" />
  <metadata
     id="metadata2990">
    <rdf:RDF>
      <cc:Work
         rdf:about="">
        <dc:format>image/svg+xml</dc:format>
        <dc:type
           rdf:resource="http://purl.org/dc/dcmitype/StillImage" />
        <dc:title></dc:title>
        <dc:creator>
          <cc:Agent>
            <dc:title>T. Gantt</dc:title>
          </cc:Agent>
        </dc:creator>
      </cc:Work>
    </rdf:RDF>
  </metadata>
  <g
     style="display:inline;opacity:1"
     id="layer2">
    <path
       id="path827"
       d="M 9,0 C 7,0 4.3962482,0.94647475 2.9375,2.03125 1.0737559,3.4171941 0.65715823,4.7204971 0.33203125,5.7167969 0.00690427,6.7130967 0.3046875,7.4902344 0.3046875,7.4902344 0.3046875,7.4902344 0,8.2719271 0,9 0,9.840224 0.42408265,11.297814 0.9140625,12.146484 1.6884819,13.487818 3.7732816,16 6,16 c 1.6723947,0 1.8164062,-0.646926 1.8164062,-1.248047 0,-0.09368 -0.0104,-0.194057 -0.029297,-0.298828 0.4030694,-0.353189 0.8989132,-0.758837 1.640625,-1.275391 C 10.724467,12.274644 11.764034,11.38831 12.71875,10.433594 14.628334,8.5240096 16,8.7621105 16,8.3144531 16,7.3141701 14.699219,6.5136719 14.699219,6.5136719 c 0,0 0.337456,-1.3347114 -0.121094,-1.9472657 C 14.69081,3.8300614 14.351643,3.0298302 13.664062,2.2246094 12.80424,1.2176754 11.665188,0 9,0 Z M 8.8222656,1.1503906 c 1.6635764,7.379e-4 2.9669654,0.3349435 3.8710934,1.1582032 0.709996,0.6464908 1.079132,1.2746783 1.03711,1.90625 -0.400644,-0.00431 -0.820771,0.1498429 -1.304688,0.4179687 C 11.863253,4.9444951 11.428308,5.2793161 10.998047,5.6816406 9.6929071,5.640283 8.1588873,5.4140026 7.1230469,5.3574219 3.9587176,5.1845767 1.9960937,5.8007813 1.9960938,5.8007812 c 0,0 -0.6389342,-1.044706 0.054687,-2.2460937 C 2.6974358,2.4346488 5.1687666,1.4566583 7.0390625,1.2558594 7.671774,1.1879301 8.2677402,1.1501447 8.8222656,1.1503906 Z m 4.6386724,3.8398438 c -0.04186,0.06724 -0.07687,0.1336344 -0.128907,0.2011718 -0.211125,0.2740091 -0.665017,0.4052769 -1.230469,0.4628907 0.564331,-0.3714651 1.056232,-0.6327952 1.359376,-0.6640625 z m 0.546874,0.5585937 c 0.149694,0.6951243 -0.138393,1.7109317 -0.25,2.0820313 -0.169336,0.5630652 -0.612597,1.3391599 -1.117187,1.84375 C 11.597114,10.51812 8.0807785,13.88837 7.6210938,13.919922 7.5688462,13.779797 7.5086366,13.636246 7.4375,13.486328 7.4107694,12.774935 7.6495411,11.397865 7.9570312,10.414062 8.4737776,8.760755 10.45505,6.8522434 11.552734,6.0214844 c 0.0018,-2.15e-4 0.004,2.179e-4 0.0059,0 0.87318,-0.1035677 1.852082,-0.074669 2.449218,-0.4726563 z M 7.8164062,5.7441406 c 0.8728321,0 1.898233,0.2253069 2.8261718,0.2871094 C 10.414293,6.2652094 10.178177,6.5160715 9.9160156,6.8085938 9.0139184,7.8151618 7.8472443,9.3130001 7.1933594,10.748047 6.9623715,11.254984 6.7873846,11.698613 6.6425781,12.105469 5.7862179,10.798151 4.691586,9.4503126 4.1582031,8.6835938 3.2170986,7.3307889 2.4121094,6.4941406 2.4121094,6.4941406 c 0,0 1.4866539,-0.75 5.4042968,-0.75 z M 0.77539062,8.6269531 c 0,0 0.56862868,0.5800669 1.80273438,0.8046875 C 3.4009866,9.5814103 4.8271042,10.06042 5.5996094,11.398438 6.2485432,12.522424 6.2209277,14.043981 5.3769531,14.53125 4.6979358,14.923281 3.282464,13.990713 2.4863281,13.291016 1.6901922,12.591319 1.0988208,11.357818 0.859375,10.539062 0.61992921,9.7203098 0.77539063,8.6269531 0.77539062,8.6269531 Z"
       style="fill:#000000;stroke:none;stroke-width:1px;stroke-linecap:butt;stroke-linejoin:miter;stroke-opacity:1" />
  </g>
</svg>
