<?xml version="1.0" encoding="UTF-8" standalone="no"?>
<svg
   xmlns:dc="http://purl.org/dc/elements/1.1/"
   xmlns:cc="http://creativecommons.org/ns#"
   xmlns:rdf="http://www.w3.org/1999/02/22-rdf-syntax-ns#"
   xmlns:svg="http://www.w3.org/2000/svg"
   xmlns="http://www.w3.org/2000/svg"
   id="SVGRoot"
   version="1.1"
   viewBox="0 0 16 16"
   height="16px"
   width="16px">
  <defs
     id="defs815" />
  <metadata
     id="metadata818">
    <rdf:RDF>
      <cc:Work
         rdf:about="">
        <dc:format>image/svg+xml</dc:format>
        <dc:type
           rdf:resource="http://purl.org/dc/dcmitype/StillImage" />
        <dc:title></dc:title>
        <dc:creator>
          <cc:Agent>
            <dc:title>T. Gantt</dc:title>
          </cc:Agent>
        </dc:creator>
      </cc:Work>
    </rdf:RDF>
  </metadata>
  <g
     style="display:inline"
     id="layer1">
    <path
       id="path1388"
       d="m 9.8222656,5.1152344 c -0.4878985,0.00148 -0.9699077,0.106669 -1.4140625,0.3085937 0,0 -0.044922,0.021954 -0.044922,0.078125 V 11.75 c 0,0.1385 0.1115,0.25 0.25,0.25 H 14.054688 C 15.12923,12.000425 16.000425,11.12923 16,10.054688 15.999346,8.9809084 15.128468,8.1109036 14.054688,8.1113281 13.772599,8.1119412 13.49402,8.1739216 13.238281,8.2929688 13.100897,6.5174373 11.633207,5.1144883 9.8222656,5.1152344 Z M 7.9511719,5.5273438 c -0.120235,0 -0.2153269,0.096571 -0.2167969,0.2167968 L 7.679688,10.255859 7.734375,11.783203 C 7.734375,11.903443 7.830937,12 7.9511719,12 c 0.1202351,0 0.2167969,-0.09656 0.2167969,-0.216797 -1e-7,0 0.099609,-0.48762 0.099609,-1.494141 0,-1.0065217 -0.099609,-4.5449214 -0.099609,-4.5449214 -1e-7,-0.120235 -0.096562,-0.2167968 -0.2167969,-0.2167968 z m -0.6660157,0.390625 c -0.1180707,0 -0.2112606,0.094831 -0.2128906,0.2128906 l -0.056641,3.9980466 0.056641,1.658203 C 7.0722656,11.905183 7.1670856,12 7.2851562,12 7.403227,12 7.4941169,11.90511 7.4980469,11.787109 l 0.054687,-1.658203 -0.054687,-3.9980466 c 0,-0.1180708 -0.09482,-0.2128906 -0.2128907,-0.2128906 z M 5.2792969,6.3886719 c -0.099893,0 -0.1778575,0.081764 -0.1796875,0.1816406 l -0.066406,3.6074215 0.066406,1.642578 c 0,0.09989 0.079794,0.179688 0.1796875,0.179688 0.099893,0 0.1776106,-0.07988 0.1816406,-0.179688 l 0.064453,-1.642578 -0.064453,-3.6074215 c 0,-0.099893 -0.081747,-0.1816406 -0.1816406,-0.1816406 z m 0.6640625,0.074219 c -0.099893,0 -0.1791507,0.081778 -0.1816406,0.1816406 l -0.087891,3.5371095 0.087891,1.638671 c 0,0.09989 0.081747,0.179688 0.1816406,0.179688 0.099893,0 0.1749775,-0.07991 0.1796875,-0.179688 l 0.078125,-1.638671 -0.078125,-3.5371095 c 0,-0.099893 -0.079794,-0.1816406 -0.1796875,-0.1816406 z m -1.3242188,0.050781 c -0.086121,0 -0.1521069,0.070157 -0.1542968,0.15625 L 4.375,10.140625 4.4648438,11.84375 c 0,0.08612 0.068176,0.15625 0.1542968,0.15625 0.086121,0 0.15123,-0.07028 0.15625,-0.15625 L 4.875,10.140625 4.7753906,6.6699219 c 0,-0.086122 -0.070128,-0.15625 -0.15625,-0.15625 z m 1.9921875,0.054687 c -0.096648,0 -0.1736112,0.079158 -0.1757812,0.1757812 l -0.076172,3.4472659 0.076172,1.634766 c 0,0.09664 0.079134,0.173828 0.1757812,0.173828 0.096647,0 0.1686082,-0.07732 0.1738281,-0.173828 l 0.087891,-1.634766 -0.087891,-3.4472659 c 0,-0.096648 -0.077181,-0.1757812 -0.1738281,-0.1757812 z M 3.9570312,6.8066406 c -0.077465,0 -0.1382349,0.063197 -0.140625,0.140625 l -0.099609,3.2187504 0.099609,1.693359 c 0,0.07747 0.06316,0.140625 0.140625,0.140625 0.077465,0 0.1336319,-0.06331 0.1386719,-0.140625 L 4.2070312,10.166016 4.0957031,6.9472656 c 0,-0.077465 -0.061207,-0.140625 -0.1386719,-0.140625 z m -0.640625,0.609375 c -0.077465,0 -0.138345,0.063194 -0.140625,0.140625 l -0.076172,2.6269534 0.076172,1.675781 c 0,0.07747 0.06316,0.140625 0.140625,0.140625 0.077465,0 0.1340819,-0.0633 0.1386719,-0.140625 l 0.099609,-1.675781 -0.099609,-2.6269534 c 0,-0.077465 -0.061207,-0.140625 -0.1386719,-0.140625 z M 2.0332031,8.3457031 c -0.060633,0 -0.105055,0.048896 -0.109375,0.109375 L 1.8027344,10.15625 1.9238281,11.857422 c 0,0.06064 0.048742,0.109375 0.109375,0.109375 0.060633,0 0.105025,-0.0489 0.109375,-0.109375 L 2.265625,10.166016 2.1425781,8.4550781 c 0,-0.060633 -0.048742,-0.109375 -0.109375,-0.109375 z m -0.6347656,0.054687 c -0.04533,2e-7 -0.078471,0.03684 -0.082031,0.082031 l -0.1328124,1.6816399 0.1328124,1.660157 c 0,0.04533 0.0367,0.08203 0.082031,0.08203 0.04533,0 0.077801,-0.0369 0.082031,-0.08203 L 1.6347656,10.175781 1.4804688,8.4824219 c 0,-0.04533 -0.0367,-0.082031 -0.082031,-0.082032 z m 1.2734375,0.060547 c -0.069814,0 -0.1207,0.057272 -0.125,0.1269531 l -0.099609,1.6093758 0.099609,1.675781 c 0,0.06982 0.055186,0.126953 0.125,0.126953 0.069814,0 0.1218431,-0.05733 0.1269531,-0.126953 L 2.9199219,10.21875 2.7988281,8.5878906 c 0,-0.069814 -0.057139,-0.1269531 -0.1269531,-0.1269535 z M 0.7734375,8.6933594 C 0.7342277,8.693359 0.70699,8.7246529 0.703125,8.7636719 L 0.56054688,10.214844 0.703125,11.576172 c 0,0.03921 0.0311028,0.07031 0.0703125,0.07031 0.0392098,0 0.0676396,-0.03137 0.0722656,-0.07031 L 1.0117188,10.181641 0.84570312,8.7636719 c 10e-9,-0.03921 -0.0330559,-0.070312 -0.0722656,-0.070312 z m -0.59570312,0.546875 c -0.0361493,4e-7 -0.0598471,0.028599 -0.0644531,0.064453 L 0,10.181641 l 0.11328125,0.875 c 0,0.03615 0.0283038,0.06445 0.0644531,0.06445 0.0361493,0 0.0594831,-0.02864 0.0644531,-0.06445 l 0.12304688,-0.875 L 0.2421875,9.3046875 c 0,-0.036149 -0.0283038,-0.064453 -0.0644531,-0.064453 z"
       style="opacity:1;vector-effect:none;fill:#000000;fill-opacity:1;fill-rule:nonzero;stroke:none;stroke-width:24.99999809;stroke-linecap:round;stroke-linejoin:round;stroke-miterlimit:4;stroke-dasharray:none;stroke-dashoffset:0;stroke-opacity:1" />
  </g>
</svg>
