<?xml version="1.0" encoding="UTF-8" standalone="no"?>
<!-- Created with Inkscape (http://www.inkscape.org/) -->

<svg
   width="16"
   height="16"
   viewBox="0 0 16 16"
   version="1.1"
   id="svg5"
   xmlns="http://www.w3.org/2000/svg"
   xmlns:svg="http://www.w3.org/2000/svg">
  <defs
     id="defs2" />
  <g
     id="g44427">
    <path
       id="path44423"
       style="fill:#000000;stroke-width:0.999994;stroke-linecap:round;stroke-linejoin:round;stop-color:#000000"
       d="M 13.085646,0.00663031 A 0.24493647,0.24493575 0 0 0 12.917698,0.14724232 L 12.329881,1.4967271 a 1.0627954,1.0627923 0 0 1 -0.54876,0.5468245 l -1.347487,0.5897892 a 0.24498416,0.24498345 0 0 0 0,0.4491772 l 1.347487,0.5878364 a 1.0627954,1.0627923 0 0 1 0.54876,0.5487775 l 0.587817,1.3494847 a 0.24493648,0.24493576 0 0 0 0.449163,0 L 13.95663,4.2191319 A 1.0627954,1.0627923 0 0 1 14.505389,3.6703544 L 15.852877,3.082518 a 0.24498416,0.24498345 0 0 0 0,-0.4491772 L 14.505389,2.0435516 A 1.0627954,1.0627923 0 0 1 13.95663,1.4967271 L 13.366861,0.14724232 A 0.24493647,0.24493575 0 0 0 13.085646,0.00663031 Z M 5.6022087,2.2993873 A 0.48991834,0.48986782 0 0 0 5.2663133,2.5806113 L 4.0887265,5.2756749 A 2.125788,2.1255687 0 0 1 2.9912079,6.3732298 L 0.29428024,7.5508554 a 0.49001376,0.48996324 0 0 0 0,0.8983546 L 2.9912079,9.6268356 a 2.125788,2.1255687 0 0 1 1.0975186,1.0975554 l 1.1775868,2.695064 a 0.48991836,0.48986785 0 0 0 0.898325,0 L 7.3422251,10.724391 A 2.125788,2.1255687 0 0 1 8.4397437,9.6268356 L 11.134718,8.44921 a 0.49001376,0.48996324 0 0 0 0,-0.8983546 L 8.4397437,6.3732298 A 2.125788,2.1255687 0 0 1 7.3422251,5.2756749 L 6.1646383,2.5806113 A 0.48991834,0.48986782 0 0 0 5.6022087,2.2993873 Z M 13.085646,10.29279 a 0.24493647,0.24493575 0 0 0 -0.167948,0.13866 l -0.587817,1.349484 a 1.0627954,1.0627923 0 0 1 -0.54876,0.548777 l -1.347487,0.587837 a 0.24498416,0.24498345 0 0 0 0,0.449178 l 1.347487,0.589788 a 1.0627954,1.0627923 0 0 1 0.54876,0.546825 l 0.587817,1.349485 a 0.24493648,0.24493576 0 0 0 0.449163,0 l 0.589769,-1.349485 a 1.0627954,1.0627923 0 0 1 0.548759,-0.546825 l 1.347488,-0.589788 a 0.24498416,0.24498345 0 0 0 0,-0.449178 L 14.505389,12.329711 A 1.0627954,1.0627923 0 0 1 13.95663,11.780934 L 13.366861,10.43145 a 0.24493647,0.24493575 0 0 0 -0.281215,-0.13866 z" />
  </g>
</svg>
