<?xml version="1.0" encoding="UTF-8" standalone="no"?>
<svg
   xmlns:dc="http://purl.org/dc/elements/1.1/"
   xmlns:cc="http://creativecommons.org/ns#"
   xmlns:rdf="http://www.w3.org/1999/02/22-rdf-syntax-ns#"
   xmlns:svg="http://www.w3.org/2000/svg"
   xmlns="http://www.w3.org/2000/svg"
   id="SVGRoot"
   version="1.1"
   viewBox="0 0 16.0 16.0"
   height="16.0px"
   width="16.0px">
  <defs
     id="defs833" />
  <metadata
     id="metadata836">
    <rdf:RDF>
      <cc:Work
         rdf:about="">
        <dc:format>image/svg+xml</dc:format>
        <dc:type
           rdf:resource="http://purl.org/dc/dcmitype/StillImage" />
        <dc:title></dc:title>
      </cc:Work>
    </rdf:RDF>
  </metadata>
  <g
     id="layer1">
    <path
       id="path837"
       d="m 8.0000286,1.6404309 c -0.1118544,0 -0.185297,0.046065 -0.2432525,0.090476 -0.057956,0.04441 -0.1054178,0.094709 -0.1527868,0.1528029 C 7.5092512,1.9998978 7.4148437,2.147796 7.3144986,2.3220142 7.1138082,2.6704508 6.8922159,3.124348 6.6731962,3.5846523 6.4541766,4.0449566 6.2384361,4.5108536 6.0580284,4.8734277 5.9678247,5.0547147 5.8868995,5.2117128 5.8208069,5.3237954 5.7547143,5.435878 5.6782836,5.510781 5.7142583,5.484641 5.7502329,5.4585011 5.6543045,5.5086866 5.5272954,5.5369159 5.4002865,5.565145 5.2269878,5.5935929 5.0267178,5.6233703 4.6261777,5.6829253 4.1148282,5.7442726 3.6094195,5.8103534 3.1040109,5.8764341 2.6055885,5.9462898 2.2122248,6.0295055 2.015543,6.0711133 1.845381,6.1160379 1.705616,6.1702454 c -0.069882,0.027103 -0.1328521,0.055106 -0.1929938,0.096507 -0.060142,0.041401 -0.1282735,0.098687 -0.1628385,0.2050782 -0.034565,0.1063913 -0.012261,0.1905148 0.012062,0.2593635 0.024323,0.068849 0.0579,0.1300072 0.098507,0.1930147 0.081214,0.1260152 0.1930222,0.2608756 0.3276875,0.4101563 0.2693302,0.2985614 0.6311081,0.6486889 1.0011553,0.9992533 0.3700471,0.3505645 0.7482996,0.6995308 1.0373417,0.9831689 0.1445209,0.141819 0.2676604,0.2684237 0.353822,0.3659237 0.086162,0.0975 0.1343621,0.1930881 0.1206211,0.1507928 -0.013741,-0.042295 0.00235,0.065496 -0.010056,0.1950252 -0.012403,0.129529 -0.036792,0.302952 -0.070362,0.502642 -0.067139,0.399381 -0.1680056,0.902234 -0.2613457,1.403378 -0.09334,0.501144 -0.178717,0.999491 -0.2211388,1.399358 -0.021211,0.199932 -0.032483,0.375068 -0.024124,0.524758 0.00418,0.07485 0.01138,0.143122 0.032166,0.21312 0.020786,0.07 0.054253,0.151388 0.1447453,0.217142 0.090492,0.06575 0.1783058,0.07223 0.251294,0.07037 0.072989,-0.0019 0.1406319,-0.01704 0.2130974,-0.03619 0.1449309,-0.03831 0.3069531,-0.101006 0.4905259,-0.182962 0.3671456,-0.163915 0.8127694,-0.40175 1.2604908,-0.645393 0.4477214,-0.243644 0.8974247,-0.494308 1.2564701,-0.681584 0.1795228,-0.09363 0.3370066,-0.171348 0.45635,-0.223173 0.1193433,-0.05182 0.2253988,-0.06635 0.1809316,-0.06635 -0.044467,0 0.061588,0.01453 0.1809317,0.06635 0.1193433,0.05182 0.2768272,0.129535 0.4563499,0.223173 0.3590455,0.187276 0.8087489,0.43794 1.2564702,0.681584 0.4477213,0.243643 0.8933453,0.481477 1.2604903,0.645393 0.183573,0.08196 0.345595,0.144655 0.490527,0.182962 0.07246,0.01916 0.140108,0.03433 0.213097,0.03619 0.07299,0.0019 0.160801,-0.0046 0.251294,-0.07037 0.0905,-0.06575 0.123959,-0.147143 0.144745,-0.217142 0.02079,-0.07 0.02799,-0.138275 0.03216,-0.21312 0.0083,-0.14969 -0.0029,-0.324826 -0.02413,-0.524758 -0.04242,-0.399867 -0.127799,-0.898213 -0.221139,-1.399358 -0.09334,-0.501145 -0.194206,-1.003997 -0.261345,-1.403378 -0.03357,-0.19969 -0.05796,-0.373113 -0.07036,-0.502642 -0.0124,-0.129529 0.0037,-0.2373208 -0.01009,-0.1950252 -0.01374,0.042295 0.03446,-0.053293 0.120621,-0.1507928 0.08616,-0.0975 0.2093,-0.2241047 0.353822,-0.3659237 0.289042,-0.2836381 0.667295,-0.6326044 1.037342,-0.9831689 0.370046,-0.3505644 0.731825,-0.7006919 1.001155,-0.9992533 0.134665,-0.1492807 0.246474,-0.2841411 0.327688,-0.4101563 0.04061,-0.063007 0.07418,-0.124166 0.0985,-0.1930147 0.02432,-0.068849 0.04663,-0.1529722 0.01206,-0.2593635 C 14.615665,6.3654395 14.547536,6.3081542 14.48739,6.2667528 14.427248,6.2253519 14.364279,6.1973488 14.294396,6.1702454 14.154676,6.1160383 13.984514,6.0711133 13.787832,6.0295055 13.394469,5.9462898 12.896047,5.8764341 12.390638,5.8103534 11.885228,5.7442726 11.373879,5.6829253 10.973339,5.6233703 c -0.20027,-0.029778 -0.373569,-0.058225 -0.500577,-0.086454 -0.12701,-0.028229 -0.222937,-0.078415 -0.186963,-0.052275 0.03597,0.02614 -0.04045,-0.048763 -0.106548,-0.1608456 C 10.113157,5.2117128 10.032232,5.0547147 9.9420289,4.8734277 9.7616212,4.5108536 9.5458806,4.0449566 9.3268611,3.5846523 9.1078415,3.124348 8.886249,2.6704508 8.6855587,2.3220142 8.5852135,2.147796 8.4908061,1.9998978 8.396068,1.8837099 8.348699,1.825616 8.3012368,1.7753173 8.2432812,1.7309066 8.1853256,1.686496 8.1118831,1.6404309 8.0000286,1.6404309 Z"
       style="color:#000000;font-style:normal;font-variant:normal;font-weight:normal;font-stretch:normal;font-size:medium;line-height:normal;font-family:sans-serif;font-variant-ligatures:normal;font-variant-position:normal;font-variant-caps:normal;font-variant-numeric:normal;font-variant-alternates:normal;font-variant-east-asian:normal;font-feature-settings:normal;font-variation-settings:normal;text-indent:0;text-align:start;text-decoration:none;text-decoration-line:none;text-decoration-style:solid;text-decoration-color:#000000;letter-spacing:normal;word-spacing:normal;text-transform:none;writing-mode:lr-tb;direction:ltr;text-orientation:mixed;dominant-baseline:auto;baseline-shift:baseline;text-anchor:start;white-space:normal;shape-padding:0;shape-margin:0;inline-size:0;clip-rule:nonzero;display:inline;overflow:visible;visibility:visible;isolation:auto;mix-blend-mode:normal;color-interpolation:sRGB;color-interpolation-filters:linearRGB;solid-color:#000000;solid-opacity:1;vector-effect:none;fill:#000000;fill-opacity:1;fill-rule:nonzero;stroke:none;stroke-width:0.5;stroke-linecap:round;stroke-linejoin:round;stroke-miterlimit:4;stroke-dasharray:none;stroke-dashoffset:0;stroke-opacity:1;color-rendering:auto;image-rendering:auto;shape-rendering:auto;text-rendering:auto;enable-background:accumulate;stop-color:#000000" />
  </g>
</svg>
