<?xml version="1.0" encoding="UTF-8" standalone="no"?>
<svg
   xmlns:dc="http://purl.org/dc/elements/1.1/"
   xmlns:cc="http://creativecommons.org/ns#"
   xmlns:rdf="http://www.w3.org/1999/02/22-rdf-syntax-ns#"
   xmlns:svg="http://www.w3.org/2000/svg"
   xmlns="http://www.w3.org/2000/svg"
   width="16.0px"
   height="16.0px"
   viewBox="0 0 16.0 16.0"
   version="1.1"
   id="SVGRoot">
  <defs
     id="defs833" />
  <metadata
     id="metadata836">
    <rdf:RDF>
      <cc:Work
         rdf:about="">
        <dc:format>image/svg+xml</dc:format>
        <dc:type
           rdf:resource="http://purl.org/dc/dcmitype/StillImage" />
        <dc:title></dc:title>
      </cc:Work>
    </rdf:RDF>
  </metadata>
  <g
     id="layer1">
    <path
       id="path834"
       d="m 7.9999977,1.0082399 c -0.1052016,0 -0.1692318,0.043635 -0.2151077,0.080423 C 7.739014,1.1254509 7.705025,1.1650639 7.6723103,1.2072866 7.6068809,1.291732 7.5459067,1.3926616 7.4813269,1.5108825 7.352167,1.7473241 7.2127404,2.0499374 7.0732254,2.3533113 6.9337103,2.6566851 6.7953491,2.959497 6.6791964,3.1856873 6.6211199,3.2987825 6.5678599,3.3942765 6.5284199,3.4530931 c -0.03944,0.058817 -0.1025383,0.066796 0.00402,0.032169 0.1065589,-0.034627 0.052403,-0.00576 -0.014073,-0.030159 C 6.4518927,3.4307048 6.3523824,3.3857936 6.2389292,3.3284379 6.0120228,3.2137263 5.7219371,3.0495332 5.4307676,2.8861123 5.1395982,2.7226915 4.8479674,2.5611563 4.6045129,2.4457975 4.4827857,2.3881181 4.3753688,2.3409447 4.2728048,2.3110893 4.2215229,2.2961616 4.1707123,2.2857355 4.1119766,2.2829414 c -0.058736,-0.00279 -0.1360288,-0.00153 -0.2211387,0.060317 -0.08511,0.061843 -0.111159,0.1362844 -0.1266522,0.1930148 -0.015493,0.05673 -0.020462,0.1074553 -0.022114,0.1608456 -0.0033,0.1067806 0.00689,0.2242755 0.024124,0.3578815 0.034469,0.2672119 0.099419,0.5933927 0.1648488,0.9208411 0.065429,0.3274484 0.1319126,0.6554951 0.1708799,0.9067671 0.019484,0.125636 0.031516,0.2328277 0.034176,0.303596 0.00266,0.070768 -0.041733,0.1147812 0.024124,0.024127 0.065857,-0.090654 0.037964,-0.035423 -0.030155,-0.016085 -0.06812,0.019338 -0.1740477,0.042036 -0.2995424,0.062328 -0.2509896,0.040583 -0.5831034,0.07766 -0.9147103,0.1166131 -0.331607,0.038953 -0.6620147,0.078889 -0.9267724,0.1286765 -0.1323787,0.024894 -0.2472682,0.050316 -0.3477909,0.086455 -0.050261,0.018069 -0.097595,0.038103 -0.1467557,0.07037 -0.04916,0.032267 -0.1122362,0.080888 -0.1447453,0.1809514 -0.032509,0.1000635 -0.00875,0.1742015 0.012062,0.2292049 0.020808,0.055004 0.046351,0.098586 0.076394,0.1427505 0.060085,0.088329 0.1387242,0.17749 0.2311905,0.2754481 0.1849324,0.1959163 0.428086,0.4229654 0.6734679,0.6494142 0.245382,0.2264488 0.4922544,0.4529532 0.6714577,0.6333296 0.089602,0.090188 0.1633219,0.1694947 0.2070663,0.2251839 0.043744,0.055689 0.032166,0.1160759 0.032166,0.00402 0,-0.1120548 0.011579,-0.049657 -0.032166,0.00603 C 3.1776463,8.0607129 3.103926,8.1400195 3.0143244,8.2302077 2.8351211,8.4105842 2.5882487,8.6370886 2.3428667,8.8635374 2.0974848,9.0899862 1.8543312,9.3170352 1.6693988,9.5129512 c -0.092466,0.097959 -0.1711054,0.1871193 -0.2311905,0.275448 -0.030043,0.044165 -0.055586,0.087747 -0.076394,0.1427506 -0.020807,0.055003 -0.044571,0.1291412 -0.012062,0.2292052 0.032509,0.100063 0.095585,0.148685 0.1447453,0.180952 0.04916,0.03227 0.096494,0.05029 0.1467557,0.06836 0.1005227,0.03614 0.2154122,0.06357 0.3477909,0.08846 0.2647577,0.04979 0.5951654,0.08972 0.9267724,0.128677 0.3316069,0.03895 0.6637207,0.07603 0.9147103,0.116614 0.1254947,0.02029 0.2314228,0.04299 0.2995424,0.06233 0.068119,0.01934 0.096012,0.07457 0.030155,-0.01608 -0.065857,-0.09065 -0.021464,-0.04664 -0.024124,0.02413 -0.00266,0.07077 -0.014692,0.177961 -0.034176,0.303596 -0.038967,0.251273 -0.1054505,0.579319 -0.1708799,0.906767 -0.065429,0.327449 -0.1303795,0.653629 -0.1648488,0.920842 -0.017235,0.133605 -0.027427,0.2511 -0.024124,0.357881 0.00165,0.05339 0.00662,0.104115 0.022114,0.160846 0.015493,0.05673 0.041542,0.131172 0.1266522,0.193015 0.08511,0.06184 0.1624031,0.06311 0.2211387,0.06032 0.058736,-0.0028 0.1095463,-0.01322 0.1608282,-0.02815 0.102564,-0.02985 0.2099809,-0.07703 0.3317081,-0.134709 0.2434545,-0.115358 0.5350853,-0.276893 0.8262547,-0.440315 0.2911695,-0.16342 0.5812551,-0.327613 0.8081616,-0.442325 0.1134532,-0.05736 0.2129636,-0.102267 0.279439,-0.126666 0.066475,-0.0244 0.1206313,0.0045 0.014073,-0.03016 -0.1065589,-0.03463 -0.043461,-0.02665 -0.00402,0.03217 0.03944,0.05882 0.0927,0.154311 0.1507765,0.267405 0.1161527,0.226191 0.2545139,0.529002 0.394029,0.832376 0.139515,0.303374 0.2789416,0.605987 0.4081015,0.84243 0.06458,0.118221 0.125554,0.21915 0.1909834,0.303596 0.032715,0.04222 0.066704,0.08184 0.1125797,0.118623 0.045876,0.03679 0.1099061,0.08042 0.2151077,0.08042 0.1052016,0 0.1692318,-0.04364 0.2151077,-0.08042 0.045876,-0.03679 0.079865,-0.0764 0.1125797,-0.118623 0.065429,-0.08445 0.1264034,-0.185375 0.1909834,-0.303596 0.12916,-0.236443 0.2685864,-0.539056 0.4081015,-0.84243 0.1395151,-0.303374 0.2778763,-0.606185 0.394029,-0.832376 0.058076,-0.113094 0.1113365,-0.208589 0.1507765,-0.267405 0.03944,-0.05882 0.102538,-0.0668 -0.00402,-0.03217 -0.106559,0.03463 -0.052403,0.0058 0.014072,0.03016 0.066475,0.0244 0.1659858,0.06931 0.279439,0.126666 0.2269063,0.114712 0.5169923,0.278904 0.8081623,0.442325 0.291169,0.163422 0.5828,0.324957 0.826254,0.440315 0.121727,0.05768 0.229144,0.104853 0.331709,0.134709 0.05128,0.01493 0.102092,0.02535 0.160828,0.02815 0.05874,0.0028 0.136028,0.0015 0.221139,-0.06032 0.08511,-0.06184 0.111158,-0.136285 0.126651,-0.193015 0.01549,-0.05673 0.02046,-0.107455 0.02212,-0.160846 0.0033,-0.106781 -0.0069,-0.224276 -0.02412,-0.357881 -0.03447,-0.267213 -0.09942,-0.593393 -0.164849,-0.920842 -0.06543,-0.327448 -0.131912,-0.655494 -0.17088,-0.906767 -0.01948,-0.125635 -0.03152,-0.232827 -0.03418,-0.303596 -0.0027,-0.07077 0.04173,-0.114781 -0.02412,-0.02413 -0.06586,0.09065 -0.03796,0.03542 0.03016,0.01608 0.06812,-0.01934 0.174047,-0.04204 0.299542,-0.06233 0.250989,-0.04058 0.583103,-0.07766 0.91471,-0.116614 0.331607,-0.03895 0.662015,-0.07889 0.926773,-0.128677 0.132378,-0.02489 0.247267,-0.05233 0.34779,-0.08846 0.05026,-0.01807 0.0976,-0.03609 0.146756,-0.06836 0.04916,-0.03227 0.112236,-0.08089 0.144746,-0.180952 0.03251,-0.100064 0.0087,-0.1742017 -0.01206,-0.2292052 -0.02083,-0.055003 -0.04637,-0.098586 -0.07641,-0.1427506 C 14.501701,9.7000705 14.423063,9.6109101 14.330597,9.5129512 14.145664,9.3170353 13.902511,9.0899862 13.657129,8.8635374 13.411747,8.6370886 13.164874,8.4105842 12.985671,8.2302077 12.896071,8.1400197 12.822349,8.060713 12.778604,8.0050239 c -0.04374,-0.055689 -0.03216,-0.1180866 -0.03216,-0.00603 0,0.1120548 -0.01158,0.051668 0.03216,-0.00402 0.04375,-0.055689 0.117465,-0.1349957 0.207067,-0.2251839 0.179203,-0.1803764 0.426076,-0.4068808 0.671458,-0.6333296 0.245382,-0.2264488 0.488535,-0.4534979 0.673468,-0.6494142 0.09247,-0.097958 0.171104,-0.1871192 0.23119,-0.2754481 0.03004,-0.044164 0.05559,-0.087747 0.07639,-0.1427505 0.02081,-0.055004 0.04457,-0.1291414 0.01206,-0.2292049 -0.0325,-0.1000666 -0.09558,-0.1486869 -0.14474,-0.1809542 -0.04916,-0.032267 -0.09649,-0.052301 -0.146756,-0.07037 -0.100523,-0.036139 -0.215412,-0.061561 -0.34779,-0.086455 -0.264758,-0.049787 -0.595165,-0.089723 -0.926773,-0.1286765 -0.331607,-0.038953 -0.663721,-0.07603 -0.91471,-0.1166131 -0.125495,-0.020291 -0.231423,-0.042989 -0.299542,-0.062328 -0.06812,-0.019338 -0.09601,-0.07457 -0.03016,0.016085 0.06586,0.090654 0.02146,0.046641 0.02412,-0.024127 0.0027,-0.070768 0.01469,-0.17796 0.03418,-0.303596 0.03897,-0.251272 0.105451,-0.5793187 0.17088,-0.9067671 0.06543,-0.3274484 0.13038,-0.6536293 0.164849,-0.9208411 0.01723,-0.1336059 0.02743,-0.251101 0.02412,-0.3578815 -0.0017,-0.05339 -0.0066,-0.1041153 -0.02212,-0.1608456 -0.01549,-0.05673 -0.04154,-0.131172 -0.126651,-0.1930148 -0.08511,-0.061842 -0.162404,-0.063111 -0.221139,-0.060317 -0.05874,0.00279 -0.109547,0.01322 -0.160828,0.028148 -0.102565,0.029855 -0.209982,0.077029 -0.331709,0.1347082 -0.24344,0.1153594 -0.535071,0.2768945 -0.82624,0.4403153 -0.29117,0.1634209 -0.5812555,0.3276141 -0.8081618,0.4423256 -0.1134532,0.057356 -0.2129636,0.1022669 -0.279439,0.1266658 -0.066475,0.024399 -0.1206314,-0.00447 -0.014072,0.030159 0.106559,0.034627 0.043461,0.026648 0.00402,-0.032169 C 9.4321355,3.3942765 9.3788754,3.2987825 9.320799,3.1856873 9.2046463,2.959497 9.0662851,2.6566852 8.92677,2.3533113 8.7872549,2.0499374 8.6478284,1.7473242 8.5186685,1.5108825 8.4540886,1.3926615 8.3931144,1.291732 8.3276851,1.2072864 8.2949705,1.1650635 8.2609813,1.1254509 8.2151054,1.0886627 8.1692295,1.0518745 8.1051993,1.0082399 7.9999977,1.0082399 Z"
       style="color:#000000;font-style:normal;font-variant:normal;font-weight:normal;font-stretch:normal;font-size:medium;line-height:normal;font-family:sans-serif;font-variant-ligatures:normal;font-variant-position:normal;font-variant-caps:normal;font-variant-numeric:normal;font-variant-alternates:normal;font-feature-settings:normal;text-indent:0;text-align:start;text-decoration:none;text-decoration-line:none;text-decoration-style:solid;text-decoration-color:#000000;letter-spacing:normal;word-spacing:normal;text-transform:none;writing-mode:lr-tb;direction:ltr;text-orientation:mixed;dominant-baseline:auto;baseline-shift:baseline;text-anchor:start;white-space:normal;shape-padding:0;clip-rule:nonzero;display:inline;overflow:visible;visibility:visible;opacity:1;isolation:auto;mix-blend-mode:normal;color-interpolation:sRGB;color-interpolation-filters:linearRGB;solid-color:#000000;solid-opacity:1;vector-effect:none;fill:#000000;fill-opacity:1;fill-rule:nonzero;stroke:none;stroke-width:0.50000048;stroke-linecap:round;stroke-linejoin:round;stroke-miterlimit:4;stroke-dasharray:none;stroke-dashoffset:0;stroke-opacity:1;color-rendering:auto;image-rendering:auto;shape-rendering:auto;text-rendering:auto;enable-background:accumulate" />
  </g>
</svg>
