<?xml version="1.0" encoding="UTF-8" standalone="no"?>
<svg
   xmlns:dc="http://purl.org/dc/elements/1.1/"
   xmlns:cc="http://creativecommons.org/ns#"
   xmlns:rdf="http://www.w3.org/1999/02/22-rdf-syntax-ns#"
   xmlns:svg="http://www.w3.org/2000/svg"
   xmlns="http://www.w3.org/2000/svg"
   version="1.1"
   id="svg2985"
   height="16px"
   width="16px">
  <defs
     id="defs2987" />
  <metadata
     id="metadata2990">
    <rdf:RDF>
      <cc:Work
         rdf:about="">
        <dc:format>image/svg+xml</dc:format>
        <dc:type
           rdf:resource="http://purl.org/dc/dcmitype/StillImage" />
        <dc:title></dc:title>
        <dc:creator>
          <cc:Agent>
            <dc:title>T. Gantt</dc:title>
          </cc:Agent>
        </dc:creator>
      </cc:Work>
    </rdf:RDF>
  </metadata>
  <g
     style="opacity:1"
     id="layer2">
    <path
       id="rect920"
       d="m 11.412109,0.196289 a 4.5872746,4.5872746 0 0 0 -4.5859371,4.5859375 4.5872746,4.5872746 0 0 0 0.00781,0.2402344 L 3.8691406,8.9853515 A 3.4110503,3.4110503 0 0 0 3.8027344,8.9814453 3.4110503,3.4110503 0 0 0 1.8613281,9.5888671 L 0,8.8154297 v 3.9921873 l 0.44921875,0.1875 a 3.4110503,3.4110503 0 0 0 3.35351565,2.808594 3.4110503,3.4110503 0 0 0 3.4121094,-3.412109 3.4110503,3.4110503 0 0 0 -0.00195,-0.06641 L 11.175781,9.3583984 A 4.5872746,4.5872746 0 0 0 11.412109,9.3701171 4.5872746,4.5872746 0 0 0 16,4.7822265 4.5872746,4.5872746 0 0 0 11.412109,0.196289 Z m 0.04492,1.5292969 a 3.0581832,3.0581832 0 0 1 2.117188,0.8945312 3.0581832,3.0581832 0 0 1 0,4.3242188 3.0581832,3.0581832 0 0 1 -4.324219,0 3.0581832,3.0581832 0 0 1 0,-4.3242188 3.0581832,3.0581832 0 0 1 2.207031,-0.8945312 z m -0.04492,0.8222656 A 2.2348263,2.2348263 0 0 0 9.1777344,4.7822265 2.2348263,2.2348263 0 0 0 11.412109,7.0185547 2.2348263,2.2348263 0 0 0 13.648438,4.7822265 2.2348263,2.2348263 0 0 0 11.412109,2.5478515 Z M 3.8027344,9.8037109 A 2.5876935,2.5876935 0 0 1 6.390625,12.391602 2.5876935,2.5876935 0 0 1 3.8027344,14.979492 2.5876935,2.5876935 0 0 1 1.421875,13.399414 l 1.6738281,0.695313 A 1.8427515,1.8427515 0 0 0 5.5039062,13.100586 1.8427515,1.8427515 0 0 0 4.5097656,10.69043 L 2.8339844,9.9931639 a 2.5876935,2.5876935 0 0 1 0.96875,-0.189453 z"
       style="opacity:1;vector-effect:none;fill:#000000;fill-opacity:1;stroke:none;stroke-width:0.5;stroke-linecap:round;stroke-linejoin:round;stroke-miterlimit:4;stroke-dasharray:none;stroke-dashoffset:0;stroke-opacity:1" />
  </g>
</svg>
