<?xml version="1.0" encoding="UTF-8" standalone="no"?>
<svg
   xmlns:dc="http://purl.org/dc/elements/1.1/"
   xmlns:cc="http://creativecommons.org/ns#"
   xmlns:rdf="http://www.w3.org/1999/02/22-rdf-syntax-ns#"
   xmlns:svg="http://www.w3.org/2000/svg"
   xmlns="http://www.w3.org/2000/svg"
   id="SVGRoot"
   version="1.1"
   viewBox="0 0 16 16"
   height="16px"
   width="16px">
  <defs
     id="defs3374" />
  <metadata
     id="metadata3377">
    <rdf:RDF>
      <cc:Work
         rdf:about="">
        <dc:format>image/svg+xml</dc:format>
        <dc:type
           rdf:resource="http://purl.org/dc/dcmitype/StillImage" />
        <dc:title></dc:title>
      </cc:Work>
    </rdf:RDF>
  </metadata>
  <g
     id="layer1">
    <path
       d="M 5,0 C 2.784,0 1,1.784 1,4 v 5.5 c 2.55e-5,0.1325995 0.052716,0.2597597 0.1464844,0.3535156 l 6,6.0000004 C 7.2402403,15.947284 7.3674006,15.999975 7.5,16 H 11 c 2.216,0 4,-1.784 4,-4 V 4 C 15,1.784 13.216,0 11,0 Z m 0.25,1.5 h 5.5 c 1.5235,0 2.75,1.2418705 2.75,2.7851562 V 11.714844 C 13.5,13.258129 12.2735,14.5 10.75,14.5 H 8 V 13 C 8,10.792649 6.2073514,9 4,9 H 2.5 V 4.2851562 C 2.5,2.7418705 3.7265,1.5 5.25,1.5 Z M 5,4 C 4.4477153,4 4,4.4477153 4,5 4,5.5522847 4.4477153,6 5,6 5.5522847,6 6,5.5522847 6,5 6,4.4477153 5.5522847,4 5,4 Z m 6,0 c -0.552285,0 -1,0.4477153 -1,1 0,0.5522847 0.447715,1 1,1 0.552285,0 1,-0.4477153 1,-1 C 12,4.4477153 11.552285,4 11,4 Z M 5.5,7 C 5.2238691,7.0000276 5.0000276,7.2238691 5,7.5 5,7.534429 5.0101363,7.5656279 5.0117188,7.5996094 6.4866694,7.8779025 7.7609085,8.7464432 8.5703125,9.953125 9.9166532,9.7364304 11,8.7674548 11,7.5 10.999972,7.2238691 10.776131,7.0000276 10.5,7 Z"
       style="opacity:1;vector-effect:none;fill:#000000;fill-opacity:1;fill-rule:nonzero;stroke:none;stroke-width:1;stroke-linecap:round;stroke-linejoin:round;stroke-miterlimit:4;stroke-dasharray:none;stroke-dashoffset:0;stroke-opacity:1"
       id="rect3935" />
  </g>
</svg>
