<?xml version="1.0" encoding="UTF-8" standalone="no"?>
<svg
   xmlns:dc="http://purl.org/dc/elements/1.1/"
   xmlns:cc="http://creativecommons.org/ns#"
   xmlns:rdf="http://www.w3.org/1999/02/22-rdf-syntax-ns#"
   xmlns:svg="http://www.w3.org/2000/svg"
   xmlns="http://www.w3.org/2000/svg"
   width="16px"
   height="16px"
   viewBox="0 0 16 16"
   version="1.1"
   id="SVGRoot">
  <defs
     id="defs3374" />
  <metadata
     id="metadata3377">
    <rdf:RDF>
      <cc:Work
         rdf:about="">
        <dc:format>image/svg+xml</dc:format>
        <dc:type
           rdf:resource="http://purl.org/dc/dcmitype/StillImage" />
        <dc:title></dc:title>
      </cc:Work>
    </rdf:RDF>
  </metadata>
  <g
     id="layer1">
    <path
       d="M 5,0 C 2.784,0 1,1.784 1,4 v 3.5 h 3 c 3.0124059,0 5.5,2.4875945 5.5,5.5 v 3 H 11 c 2.216,0 4,-1.784 4,-4 V 4 C 15,1.784 13.216,0 11,0 Z M 5,4 A 1,1 0 0 1 6,5 1,1 0 0 1 5,6 1,1 0 0 1 4,5 1,1 0 0 1 5,4 Z m 6,0 A 1,1 0 0 1 12,5 1,1 0 0 1 11,6 1,1 0 0 1 10,5 1,1 0 0 1 11,4 Z M 7.5507812,7 H 10.5 A 0.50005,0.50005 0 0 1 11,7.5 C 11,8.2771062 10.5864,8.9362487 9.9609375,9.3847656 9.3610396,8.4097886 8.5323899,7.5897086 7.5507812,7 Z M 1.5,9 A 0.50005,0.50005 0 0 0 1.1464844,9.8535156 l 6,6.0000004 A 0.50005,0.50005 0 0 0 8,15.5 V 13 C 8,10.792649 6.2073514,9 4,9 Z"
       style="opacity:1;vector-effect:none;fill:#000000;fill-opacity:1;fill-rule:nonzero;stroke:none;stroke-width:1;stroke-linecap:round;stroke-linejoin:round;stroke-miterlimit:4;stroke-dasharray:none;stroke-dashoffset:0;stroke-opacity:1"
       id="rect3935" />
  </g>
</svg>
