<?xml version="1.0" encoding="UTF-8" standalone="no"?>
<svg
   xmlns:dc="http://purl.org/dc/elements/1.1/"
   xmlns:cc="http://creativecommons.org/ns#"
   xmlns:rdf="http://www.w3.org/1999/02/22-rdf-syntax-ns#"
   xmlns:svg="http://www.w3.org/2000/svg"
   xmlns="http://www.w3.org/2000/svg"
   version="1.1"
   id="svg3870"
   height="16px"
   width="16px">
  <defs
     id="defs3872" />
  <metadata
     id="metadata3875">
    <rdf:RDF>
      <cc:Work
         rdf:about="">
        <dc:format>image/svg+xml</dc:format>
        <dc:type
           rdf:resource="http://purl.org/dc/dcmitype/StillImage" />
        <dc:title></dc:title>
        <dc:creator>
          <cc:Agent>
            <dc:title>T. Gantt</dc:title>
          </cc:Agent>
        </dc:creator>
      </cc:Work>
    </rdf:RDF>
  </metadata>
  <g
     style="display:inline;opacity:1"
     id="layer2">
    <path
       id="path815"
       d="M 8,2 C 3,2 0,7 0,8 0,9 3,14 8,14 13,14 16,9 16,8 16,7 13,2 8,2 Z M 6.0683594,4.8613281 A 3.4755816,2.896318 0 0 0 4.5253906,7.265625 3.4755816,2.896318 0 0 0 8,10.162109 3.4755816,2.896318 0 0 0 11.474609,7.265625 3.4755816,2.896318 0 0 0 9.9394531,4.8632812 C 12.167739,5.6270912 14,7.4147022 14,8 14,8.75 11.75,12.5 8,12.5 4.25,12.5 2,8.75 2,8 2,7.4140352 3.8366204,5.6236337 6.0683594,4.8613281 Z M 6.4609375,6.4941406 A 0.50005,0.50005 0 0 1 6.96875,7.1289062 C 6.956592,7.1747382 6.951446,7.2201162 6.951172,7.265625 v 0.00195 C 6.95248,7.635593 7.3664719,8.0312185 8,8.03125 a 0.50005,0.50005 0 1 1 0,1 C 6.9239432,9.0311965 5.9515069,8.2951852 5.9511719,7.265625 a 0.50005,0.50005 0 0 0 0,-0.00195 c 3.3e-4,-0.1324631 0.018762,-0.264494 0.052734,-0.3925781 A 0.50005,0.50005 0 0 1 6.4609375,6.4941406 Z"
       style="fill:#000000;stroke:none;stroke-width:1px;stroke-linecap:butt;stroke-linejoin:miter;stroke-opacity:1" />
  </g>
</svg>
