<?xml version="1.0" encoding="UTF-8" standalone="no"?>
<svg
   xmlns:dc="http://purl.org/dc/elements/1.1/"
   xmlns:cc="http://creativecommons.org/ns#"
   xmlns:rdf="http://www.w3.org/1999/02/22-rdf-syntax-ns#"
   xmlns:svg="http://www.w3.org/2000/svg"
   xmlns="http://www.w3.org/2000/svg"
   version="1.1"
   id="svg3870"
   height="16px"
   width="16px">
  <defs
     id="defs3872" />
  <metadata
     id="metadata3875">
    <rdf:RDF>
      <cc:Work
         rdf:about="">
        <dc:format>image/svg+xml</dc:format>
        <dc:type
           rdf:resource="http://purl.org/dc/dcmitype/StillImage" />
        <dc:title></dc:title>
        <dc:creator>
          <cc:Agent>
            <dc:title>T. Gantt</dc:title>
          </cc:Agent>
        </dc:creator>
      </cc:Work>
    </rdf:RDF>
  </metadata>
  <g
     style="display:inline"
     id="layer2">
    <path
       id="path815"
       d="M 11.25,0 C 11.1115,0 10.955904,0.10162783 10.900391,0.22851562 L 9.9980469,2.2890625 C 9.3731282,2.1106692 8.7100438,2 8,2 3,2 0,7 0,8 0,8.7900723 1.88005,12.064174 5.1328125,13.408203 L 4.0996094,15.771484 C 4.044096,15.898372 4.1115,16 4.25,16 h 1.5 c 0.1385,0 0.294096,-0.101628 0.3496094,-0.228516 L 12.900391,0.22851562 C 12.955904,0.10162783 12.8885,0 12.75,0 Z m 1.982422,4.0390625 -0.91211,2.0878906 C 13.331149,6.8636432 14,7.6484442 14,8 14,8.6324497 12.394739,11.390752 9.6445312,12.242188 L 8.8984375,13.943359 C 13.357071,13.398628 16,8.9385643 16,8 16,7.4273635 15.012122,5.5450271 13.232422,4.0390625 Z M 6.0683594,4.8613281 A 3.4755816,2.896318 0 0 0 4.5253906,7.265625 3.4755816,2.896318 0 0 0 6.65625,9.9296875 L 5.7441406,12.015625 C 3.3689538,10.981098 2,8.5840633 2,8 2,7.4140352 3.8366204,5.6236337 6.0683594,4.8613281 Z M 6.4609375,6.4941406 A 0.50005,0.50005 0 0 1 6.96875,7.1289062 C 6.956592,7.1747382 6.951446,7.2201162 6.951172,7.265625 v 0.00195 C 6.9521103,7.5315452 7.1710854,7.8032466 7.5253907,7.93945 L 7.125,8.8554688 C 6.4503438,8.5804938 5.9514109,8.0002991 5.9511719,7.265625 a 0.50005,0.50005 0 0 0 0,-0.00195 c 3.3e-4,-0.1324631 0.018762,-0.264494 0.052734,-0.3925781 A 0.50005,0.50005 0 0 1 6.4609375,6.4941406 Z"
       style="display:inline;opacity:1;fill:#000000;stroke:none;stroke-width:1px;stroke-linecap:butt;stroke-linejoin:miter;stroke-opacity:1" />
  </g>
</svg>
