<?xml version="1.0" encoding="UTF-8" standalone="no"?>
<svg
   xmlns:dc="http://purl.org/dc/elements/1.1/"
   xmlns:cc="http://creativecommons.org/ns#"
   xmlns:rdf="http://www.w3.org/1999/02/22-rdf-syntax-ns#"
   xmlns:svg="http://www.w3.org/2000/svg"
   xmlns="http://www.w3.org/2000/svg"
   version="1.1"
   id="svg2985"
   height="16px"
   width="16px">
  <defs
     id="defs2987" />
  <metadata
     id="metadata2990">
    <rdf:RDF>
      <cc:Work
         rdf:about="">
        <dc:format>image/svg+xml</dc:format>
        <dc:type
           rdf:resource="http://purl.org/dc/dcmitype/StillImage" />
        <dc:title></dc:title>
        <dc:creator>
          <cc:Agent>
            <dc:title>T. Gantt</dc:title>
          </cc:Agent>
        </dc:creator>
      </cc:Work>
    </rdf:RDF>
  </metadata>
  <g
     style="display:inline;opacity:1"
     id="layer2">
    <path
       id="rect815"
       d="M 1.9990353,0.99999975 C 1.4455698,0.99999975 1,1.4455696 1,1.9990351 V 5.6810268 C 1,5.9363993 1.098958,6.1916963 1.2946374,6.3873759 L 8.613742,13.70648 c 0.3913592,0.391359 1.0213393,0.391359 1.412698,0 l 3.680041,-3.68004 c 0.391359,-0.3913588 0.391359,-1.0213389 0,-1.4126981 L 6.3873761,1.2946372 C 6.1916964,1.0989575 5.9363995,0.99999975 5.6810269,0.99999975 Z M 3.997106,2.9980705 c 0.5534656,0 0.9990354,0.4455698 0.9990354,0.9990353 0,0.5534656 -0.4455698,0.9990354 -0.9990354,0.9990354 -0.5534656,0 -0.9990353,-0.4455698 -0.9990353,-0.9990354 0,-0.5534655 0.4455697,-0.9990353 0.9990353,-0.9990353 z"
       style="opacity:1;vector-effect:none;fill:#000000;fill-opacity:1;stroke:none;stroke-width:1;stroke-linecap:round;stroke-linejoin:round;stroke-miterlimit:4;stroke-dasharray:none;stroke-dashoffset:0;stroke-opacity:1" />
  </g>
</svg>
