<?xml version="1.0" encoding="UTF-8" standalone="no"?>
<svg
   xmlns:dc="http://purl.org/dc/elements/1.1/"
   xmlns:cc="http://creativecommons.org/ns#"
   xmlns:rdf="http://www.w3.org/1999/02/22-rdf-syntax-ns#"
   xmlns:svg="http://www.w3.org/2000/svg"
   xmlns="http://www.w3.org/2000/svg"
   version="1.1"
   id="svg2985"
   height="16px"
   width="16px">
  <defs
     id="defs2987" />
  <metadata
     id="metadata2990">
    <rdf:RDF>
      <cc:Work
         rdf:about="">
        <dc:format>image/svg+xml</dc:format>
        <dc:type
           rdf:resource="http://purl.org/dc/dcmitype/StillImage" />
        <dc:title></dc:title>
        <dc:creator>
          <cc:Agent>
            <dc:title>T. Gantt</dc:title>
          </cc:Agent>
        </dc:creator>
      </cc:Work>
    </rdf:RDF>
  </metadata>
  <g
     style="display:inline"
     id="layer2">
    <path
       id="rect815-7-4"
       d="M 0.99996561,0.99999975 C 0.44598466,0.99999975 0,1.4455696 0,1.9990351 V 5.6810268 C 0,5.9363993 0.09709681,6.1916963 0.29295867,6.3873759 L 7.6188786,13.70648 c 0.3917237,0.391359 1.0222905,0.391359 1.4140138,0 l 3.6854206,-3.681991 c 0.391723,-0.3913582 0.391723,-1.0213391 0,-1.4126984 L 5.3923926,1.292686 C 5.1965308,1.0970061 4.9409961,0.99999975 4.6853858,0.99999975 Z m 4.68147959,0 c 0.2553638,0 0.5093808,0.0971952 0.705054,0.29268625 L 13.70656,8.6039856 c 0.391345,0.3909818 0.391345,1.0217168 0,1.4126984 l -3.388556,3.385402 0.292959,0.292687 c 0.391346,0.390981 1.022669,0.390981 1.414014,0 l 3.681514,-3.678089 c 0.391345,-0.3909816 0.391345,-1.0217166 0,-1.4126984 L 8.3864304,1.292686 C 8.1907574,1.0971947 7.9367401,0.99999975 7.6813764,0.99999975 Z M 2.9998968,2.9980705 c 0.553981,0 0.9999656,0.4455698 0.9999656,0.9990353 0,0.5534656 -0.4459846,0.9990354 -0.9999656,0.9990354 -0.5539809,0 -0.9999656,-0.4455698 -0.9999656,-0.9990354 0,-0.5534655 0.4459847,-0.9990353 0.9999656,-0.9990353 z"
       style="display:inline;opacity:1;vector-effect:none;fill:#000000;fill-opacity:1;stroke:none;stroke-width:1;stroke-linecap:round;stroke-linejoin:round;stroke-miterlimit:4;stroke-dasharray:none;stroke-dashoffset:0;stroke-opacity:1" />
  </g>
</svg>
