<?xml version="1.0" encoding="UTF-8" standalone="no"?>
<svg
   xmlns:dc="http://purl.org/dc/elements/1.1/"
   xmlns:cc="http://creativecommons.org/ns#"
   xmlns:rdf="http://www.w3.org/1999/02/22-rdf-syntax-ns#"
   xmlns:svg="http://www.w3.org/2000/svg"
   xmlns="http://www.w3.org/2000/svg"
   version="1.1"
   id="svg3870"
   height="16px"
   width="16px">
  <defs
     id="defs3872" />
  <metadata
     id="metadata3875">
    <rdf:RDF>
      <cc:Work
         rdf:about="">
        <dc:format>image/svg+xml</dc:format>
        <dc:type
           rdf:resource="http://purl.org/dc/dcmitype/StillImage" />
        <dc:title></dc:title>
        <dc:creator>
          <cc:Agent>
            <dc:title>T. Gantt</dc:title>
          </cc:Agent>
        </dc:creator>
      </cc:Work>
    </rdf:RDF>
  </metadata>
  <g
     style="display:inline;opacity:1"
     id="layer2">
    <path
       id="rect866"
       d="m 4.0136719,3 c -0.554,0 -0.8913517,0.4567583 -1,1 l -1,5 c -0.1086483,0.5432417 0.446,1 1,1 H 6 v 3 c 0,0.552285 0.4477153,1 1,1 0.5522847,0 1,-0.447715 1,-1 V 12 L 10.707031,9.7070312 C 10.894577,9.5195257 10.99996,9.2652012 11,9 V 4 C 11,3.4477153 10.552285,3 10,3 Z M 12.25,3 C 12.1115,3 12,3.1115 12,3.25 v 6.5 C 12,9.8885 12.1115,10 12.25,10 h 1.5 C 13.8885,10 14,9.8885 14,9.75 V 3.25 C 14,3.1115 13.8885,3 13.75,3 Z"
       style="opacity:1;vector-effect:none;fill:#000000;fill-opacity:1;stroke:none;stroke-width:5;stroke-linecap:round;stroke-linejoin:round;stroke-miterlimit:4;stroke-dasharray:none;stroke-dashoffset:0;stroke-opacity:1" />
  </g>
</svg>
