<?xml version="1.0" encoding="UTF-8" standalone="no"?>
<svg
   xmlns:dc="http://purl.org/dc/elements/1.1/"
   xmlns:cc="http://creativecommons.org/ns#"
   xmlns:rdf="http://www.w3.org/1999/02/22-rdf-syntax-ns#"
   xmlns:svg="http://www.w3.org/2000/svg"
   xmlns="http://www.w3.org/2000/svg"
   version="1.1"
   id="svg3870"
   height="16px"
   width="16px">
  <defs
     id="defs3872" />
  <metadata
     id="metadata3875">
    <rdf:RDF>
      <cc:Work
         rdf:about="">
        <dc:format>image/svg+xml</dc:format>
        <dc:type
           rdf:resource="http://purl.org/dc/dcmitype/StillImage" />
        <dc:title></dc:title>
        <dc:creator>
          <cc:Agent>
            <dc:title>T. Gantt</dc:title>
          </cc:Agent>
        </dc:creator>
      </cc:Work>
    </rdf:RDF>
  </metadata>
  <g
     style="display:inline;opacity:1"
     id="layer2">
    <path
       id="rect866"
       d="M 9,2 C 8.4477153,2 8,2.4477153 8,3 V 4 L 5.2929688,6.2929688 C 5.1054232,6.4804743 5.0000401,6.7347989 5,7 v 5 c 0,0.552285 0.4477153,1 1,1 h 5.986328 c 0.554,0 0.891352,-0.456758 1,-1 l 1,-5 c 0.108649,-0.5432417 -0.446,-1 -1,-1 H 10 V 3 C 10,2.4477153 9.5522847,2 9,2 Z M 2.25,6 C 2.1115,6 2,6.1115 2,6.25 v 6.5 C 2,12.8885 2.1115,13 2.25,13 h 1.5 C 3.8885,13 4,12.8885 4,12.75 V 6.25 C 4,6.1115 3.8885,6 3.75,6 Z"
       style="opacity:1;vector-effect:none;fill:#000000;fill-opacity:1;stroke:none;stroke-width:5;stroke-linecap:round;stroke-linejoin:round;stroke-miterlimit:4;stroke-dasharray:none;stroke-dashoffset:0;stroke-opacity:1" />
  </g>
</svg>
