<?xml version="1.0" encoding="UTF-8" standalone="no"?>
<!-- Created with Inkscape (http://www.inkscape.org/) -->

<svg
   width="16"
   height="16"
   viewBox="0 0 16 16"
   version="1.1"
   id="svg5"
   xmlns="http://www.w3.org/2000/svg"
   xmlns:svg="http://www.w3.org/2000/svg">
  <defs
     id="defs2" />
  <g
     id="layer1">
    <path
       id="path2450"
       style="fill:#000000;stroke:none;stroke-width:1.5;stroke-linecap:round;stroke-linejoin:round;stop-color:#000000"
       d="M 3.4372213,1.5644531 C 2.5621171,1.5797849 1.69273,1.9201659 1.0249646,2.5878906 -0.09966192,3.7124483 -0.29866693,5.4118842 0.42727176,6.7402344 0.69126101,7.2232919 1.3414913,7.220602 1.7320391,6.8300781 L 5.2674112,3.2949219 C 5.657959,2.904398 5.660579,2.2541919 5.1775621,1.9902344 4.6378802,1.6953107 4.0359769,1.5539629 3.4372213,1.5644531 Z m 8.9868767,0 c -0.552661,0.012003 -1.103492,0.153544 -1.60166,0.4257813 -0.483019,0.2639576 -0.480397,0.9141637 -0.08985,1.3046875 l 3.535372,3.5351562 c 0.390548,0.3905241 1.040777,0.3932138 1.304767,-0.089844 C 16.298667,5.4118842 16.099662,3.7124483 14.975035,2.5878906 14.272124,1.8850223 13.345199,1.5444482 12.424098,1.5644531 Z M 8.0000001,4 A 6.0003666,6 0 0 0 1.9996335,10 6.0003666,6 0 0 0 8.0000001,16 6.0003666,6 0 0 0 14.000366,10 6.0003666,6 0 0 0 8.0000001,4 Z m 0,1.5 c 0.4142381,0 0.7500458,0.3357872 0.7500458,0.75 V 9.6894531 L 10.531404,11.46875 c 0.293792,0.293451 0.293631,0.768887 0,1.0625 -0.29363,0.293613 -0.7689342,0.293613 -1.0625642,0 l -2.0001222,-2 C 7.3279252,10.390466 7.2499543,10.199098 7.2499543,10 V 6.25 c 0,-0.4142128 0.3358077,-0.75 0.7500458,-0.75 z" />
  </g>
</svg>
