<?xml version="1.0" encoding="UTF-8" standalone="no"?>
<svg
   xmlns:dc="http://purl.org/dc/elements/1.1/"
   xmlns:cc="http://creativecommons.org/ns#"
   xmlns:rdf="http://www.w3.org/1999/02/22-rdf-syntax-ns#"
   xmlns:svg="http://www.w3.org/2000/svg"
   xmlns="http://www.w3.org/2000/svg"
   version="1.1"
   id="svg2985"
   height="16px"
   width="16px">
  <defs
     id="defs2987" />
  <metadata
     id="metadata2990">
    <rdf:RDF>
      <cc:Work
         rdf:about="">
        <dc:format>image/svg+xml</dc:format>
        <dc:type
           rdf:resource="http://purl.org/dc/dcmitype/StillImage" />
        <dc:title></dc:title>
        <dc:creator>
          <cc:Agent>
            <dc:title>T. Gantt</dc:title>
          </cc:Agent>
        </dc:creator>
      </cc:Work>
    </rdf:RDF>
  </metadata>
  <g
     style="display:inline;opacity:1"
     id="layer2">
    <path
       id="rect819"
       d="M 8,1 C 5.23,1 3,3.23 3,6 3,8.77 5.23,11 8,11 10.77,11 13,8.77 13,6 13,3.23 10.77,1 8,1 Z M 6,4 A 1,1 0 0 1 7,5 1,1 0 0 1 6,6 1,1 0 0 1 5,5 1,1 0 0 1 6,4 Z m 4,0 A 1,1 0 0 1 11,5 1,1 0 0 1 10,6 1,1 0 0 1 9,5 1,1 0 0 1 10,4 Z M 5.5,7 h 5 C 10.777,7 11,7.223 11,7.5 A 3,1.5 0 0 1 8,9 3,1.5 0 0 1 5,7.5 C 5,7.223 5.223,7 5.5,7 Z M 6,12 c -1.662,0 -3,1.338 -3,3 h 10 c 0,-1.662 -1.338,-3 -3,-3 z"
       style="opacity:1;vector-effect:none;fill:#000000;fill-opacity:1;stroke:none;stroke-width:5;stroke-linecap:round;stroke-linejoin:round;stroke-miterlimit:4;stroke-dasharray:none;stroke-dashoffset:0;stroke-opacity:1" />
  </g>
</svg>
