<?xml version="1.0" encoding="UTF-8" standalone="no"?>
<svg
   xmlns:dc="http://purl.org/dc/elements/1.1/"
   xmlns:cc="http://creativecommons.org/ns#"
   xmlns:rdf="http://www.w3.org/1999/02/22-rdf-syntax-ns#"
   xmlns:svg="http://www.w3.org/2000/svg"
   xmlns="http://www.w3.org/2000/svg"
   version="1.1"
   id="svg3809"
   height="16px"
   width="16px">
  <defs
     id="defs3811" />
  <metadata
     id="metadata3814">
    <rdf:RDF>
      <cc:Work
         rdf:about="">
        <dc:format>image/svg+xml</dc:format>
        <dc:type
           rdf:resource="http://purl.org/dc/dcmitype/StillImage" />
        <cc:license
           rdf:resource="" />
        <dc:title></dc:title>
        <dc:creator>
          <cc:Agent>
            <dc:title>T. Gantt</dc:title>
          </cc:Agent>
        </dc:creator>
      </cc:Work>
    </rdf:RDF>
  </metadata>
  <g
     id="layer2">
    <path
       id="rect823-1"
       d="M 8,0 C 6.338,0 5,1.338 5,3 5,4.662 6.338,6 8,6 9.662,6 11,4.662 11,3 11,1.338 9.662,0 8,0 Z M 6.5,2 C 6.777,2 7,2.223 7,2.5 v 1 C 7,3.777 6.777,4 6.5,4 6.223,4 6,3.777 6,3.5 v -1 C 6,2.223 6.223,2 6.5,2 Z m 3,0 C 9.777,2 10,2.223 10,2.5 v 1 C 10,3.777 9.777,4 9.5,4 9.223,4 9,3.777 9,3.5 v -1 C 9,2.223 9.223,2 9.5,2 Z M 3,7 C 1.338,7 0,8.338 0,10 0,11.662 1.338,13 3,13 4.662,13 6,11.662 6,10 6,8.338 4.662,7 3,7 Z M 7,7 C 6.6067453,7 6.2441586,7.1160396 5.9355469,7.3105469 6.3665611,7.7852918 6.68833,8.3619489 6.8554688,9 H 9.1445312 C 9.3116703,8.3619489 9.6334393,7.7852918 10.064453,7.3105469 9.7558417,7.1160396 9.3932547,7 9,7 Z m 6,0 c -1.662,0 -3,1.338 -3,3 0,1.662 1.338,3 3,3 1.662,0 3,-1.338 3,-3 C 16,8.338 14.662,7 13,7 Z M 1.5,9 C 1.777,9 2,9.223 2,9.5 v 1 C 2,10.777 1.777,11 1.5,11 1.223,11 1,10.777 1,10.5 v -1 C 1,9.223 1.223,9 1.5,9 Z m 3,0 C 4.777,9 5,9.223 5,9.5 v 1 C 5,10.777 4.777,11 4.5,11 4.223,11 4,10.777 4,10.5 v -1 C 4,9.223 4.223,9 4.5,9 Z m 7,0 C 11.777,9 12,9.223 12,9.5 v 1 C 12,10.777 11.777,11 11.5,11 11.223,11 11,10.777 11,10.5 v -1 C 11,9.223 11.223,9 11.5,9 Z m 3,0 C 14.777,9 15,9.223 15,9.5 v 1 C 15,10.777 14.777,11 14.5,11 14.223,11 14,10.777 14,10.5 v -1 C 14,9.223 14.223,9 14.5,9 Z M 2,14 C 0.892,14 0,14.892 0,16 H 6 C 6,14.892 5.108,14 4,14 Z m 10,0 c -1.108,0 -2,0.892 -2,2 h 6 c 0,-1.108 -0.892,-2 -2,-2 z"
       style="display:inline;opacity:1;vector-effect:none;fill:#000000;fill-opacity:1;stroke:none;stroke-width:5;stroke-linecap:round;stroke-linejoin:round;stroke-miterlimit:4;stroke-dasharray:none;stroke-dashoffset:0;stroke-opacity:1" />
  </g>
</svg>
