<?xml version="1.0" encoding="UTF-8" standalone="no"?>
<svg
   xmlns:dc="http://purl.org/dc/elements/1.1/"
   xmlns:cc="http://creativecommons.org/ns#"
   xmlns:rdf="http://www.w3.org/1999/02/22-rdf-syntax-ns#"
   xmlns:svg="http://www.w3.org/2000/svg"
   xmlns="http://www.w3.org/2000/svg"
   version="1.1"
   id="svg3809"
   height="16px"
   width="16px">
  <defs
     id="defs3811" />
  <metadata
     id="metadata3814">
    <rdf:RDF>
      <cc:Work
         rdf:about="">
        <dc:format>image/svg+xml</dc:format>
        <dc:type
           rdf:resource="http://purl.org/dc/dcmitype/StillImage" />
        <cc:license
           rdf:resource="" />
        <dc:title></dc:title>
        <dc:creator>
          <cc:Agent>
            <dc:title>T. Gantt</dc:title>
          </cc:Agent>
        </dc:creator>
      </cc:Work>
    </rdf:RDF>
  </metadata>
  <g
     id="layer2">
    <path
       d="M 8,0 C 6.338,0 5,1.338 5,3 5,4.662 6.338,6 8,6 9.662,6 11,4.662 11,3 11,1.338 9.662,0 8,0 Z M 3,7 C 1.338,7 0,8.338 0,10 0,11.662 1.338,13 3,13 4.662,13 6,11.662 6,10 6,8.338 4.662,7 3,7 Z M 7,7 C 6.6114408,7 6.2535434,7.114445 5.9472656,7.3046875 6.3778845,7.7793716 6.6962529,8.357733 6.8613281,9 H 9.1386719 C 9.3037471,8.357733 9.6221159,7.7793716 10.052734,7.3046875 9.746457,7.114445 9.3885592,7 9,7 Z m 6,0 c -1.662,0 -3,1.338 -3,3 0,1.662 1.338,3 3,3 1.662,0 3,-1.338 3,-3 C 16,8.338 14.662,7 13,7 Z M 2,14 C 0.892,14 0,14.892 0,16 H 6 C 6,14.892 5.108,14 4,14 Z m 10,0 c -1.108,0 -2,0.892 -2,2 h 6 c 0,-1.108 -0.892,-2 -2,-2 z"
       style="display:inline;opacity:1;vector-effect:none;fill:#000000;fill-opacity:1;stroke:none;stroke-width:5;stroke-linecap:round;stroke-linejoin:round;stroke-miterlimit:4;stroke-dasharray:none;stroke-dashoffset:0;stroke-opacity:1"
       id="rect823-1" />
  </g>
</svg>
