<?xml version="1.0" encoding="UTF-8" standalone="no"?>
<svg
   xmlns:dc="http://purl.org/dc/elements/1.1/"
   xmlns:cc="http://creativecommons.org/ns#"
   xmlns:rdf="http://www.w3.org/1999/02/22-rdf-syntax-ns#"
   xmlns:svg="http://www.w3.org/2000/svg"
   xmlns="http://www.w3.org/2000/svg"
   version="1.1"
   id="svg3870"
   height="16px"
   width="16px">
  <defs
     id="defs3872" />
  <metadata
     id="metadata3875">
    <rdf:RDF>
      <cc:Work
         rdf:about="">
        <dc:format>image/svg+xml</dc:format>
        <dc:type
           rdf:resource="http://purl.org/dc/dcmitype/StillImage" />
        <dc:title></dc:title>
        <dc:creator>
          <cc:Agent>
            <dc:title>T. Gantt</dc:title>
          </cc:Agent>
        </dc:creator>
      </cc:Work>
    </rdf:RDF>
  </metadata>
  <g
     id="layer2">
    <path
       id="rect819"
       d="M 0.5,0 C 0.223,0 0,0.223 0,0.5 v 3 C 0,3.777 0.223,4 0.5,4 H 3 L 5,6 V 4 H 5.5 C 5.777,4 6,3.777 6,3.5 v -3 C 6,0.223 5.777,0 5.5,0 Z M 8,7 c -1.662,0 -3,1.338 -3,3 0,1.662 1.338,3 3,3 1.662,0 3,-1.338 3,-3 C 11,8.338 9.662,7 8,7 Z M 6.5,9 C 6.777,9 7,9.223 7,9.5 v 1 C 7,10.777 6.777,11 6.5,11 6.223,11 6,10.777 6,10.5 v -1 C 6,9.223 6.223,9 6.5,9 Z m 3,0 C 9.777,9 10,9.223 10,9.5 v 1 C 10,10.777 9.777,11 9.5,11 9.223,11 9,10.777 9,10.5 v -1 C 9,9.223 9.223,9 9.5,9 Z M 7,14 c -1.108,0 -2,0.892 -2,2 h 6 c 0,-1.108 -0.892,-2 -2,-2 z"
       style="display:inline;opacity:1;vector-effect:none;fill:#000000;fill-opacity:1;stroke:none;stroke-width:5;stroke-linecap:round;stroke-linejoin:round;stroke-miterlimit:4;stroke-dasharray:none;stroke-dashoffset:0;stroke-opacity:1" />
  </g>
</svg>
