<?xml version="1.0" encoding="UTF-8" standalone="no"?>
<svg
   xmlns:dc="http://purl.org/dc/elements/1.1/"
   xmlns:cc="http://creativecommons.org/ns#"
   xmlns:rdf="http://www.w3.org/1999/02/22-rdf-syntax-ns#"
   xmlns:svg="http://www.w3.org/2000/svg"
   xmlns="http://www.w3.org/2000/svg"
   width="16.0px"
   height="16.0px"
   viewBox="0 0 16.0 16.0"
   version="1.1"
   id="SVGRoot">
  <defs
     id="defs6696" />
  <metadata
     id="metadata6699">
    <rdf:RDF>
      <cc:Work
         rdf:about="">
        <dc:format>image/svg+xml</dc:format>
        <dc:type
           rdf:resource="http://purl.org/dc/dcmitype/StillImage" />
        <dc:title></dc:title>
      </cc:Work>
    </rdf:RDF>
  </metadata>
  <g
     id="g4288"
     style="display:inline">
    <path
       d="M 2.75,0 A 0.750075,0.750075 0 0 0 2,0.75 v 14.5 A 0.750075,0.750075 0 0 0 2.75,16 h 10.5 A 0.750075,0.750075 0 0 0 14,15.25 V 0.75 A 0.750075,0.750075 0 0 0 13.25,0 Z M 3.5,1.5 h 9 v 13 h -9 z M 8,2.5 C 6.7535,2.5 5.75,3.5035 5.75,4.75 5.75,5.9965 6.7535,7 8,7 9.2465,7 10.25,5.9965 10.25,4.75 10.25,3.5035 9.2465,2.5 8,2.5 Z M 8,7 H 7.25 C 6.4190002,7 5.75,7.6690002 5.75,8.5 h 4.5 C 10.25,7.6690002 9.5809999,7 8.75,7 Z M 5.25,9.5 C 4.8345,9.5 4.5,9.8345 4.5,10.25 4.5,10.6655 4.8345,11 5.25,11 h 5.5 c 0.4155,0 0.75,-0.3345 0.75,-0.75 0,-0.4155 -0.3345,-0.75 -0.75,-0.75 z m 0,2 C 4.8345,11.5 4.5,11.8345 4.5,12.25 4.5,12.6655 4.8345,13 5.25,13 h 4.5 c 0.4155,0 0.75,-0.3345 0.75,-0.75 0,-0.4155 -0.3345,-0.75 -0.75,-0.75 z"
       style="color:#000000;font-style:normal;font-variant:normal;font-weight:normal;font-stretch:normal;font-size:medium;line-height:normal;font-family:sans-serif;font-variant-ligatures:normal;font-variant-position:normal;font-variant-caps:normal;font-variant-numeric:normal;font-variant-alternates:normal;font-variant-east-asian:normal;font-feature-settings:normal;font-variation-settings:normal;text-indent:0;text-align:start;text-decoration:none;text-decoration-line:none;text-decoration-style:solid;text-decoration-color:#000000;letter-spacing:normal;word-spacing:normal;text-transform:none;writing-mode:lr-tb;direction:ltr;text-orientation:mixed;dominant-baseline:auto;baseline-shift:baseline;text-anchor:start;white-space:normal;shape-padding:0;shape-margin:0;inline-size:0;clip-rule:nonzero;display:inline;overflow:visible;visibility:visible;opacity:1;isolation:auto;mix-blend-mode:normal;color-interpolation:sRGB;color-interpolation-filters:linearRGB;solid-color:#000000;solid-opacity:1;vector-effect:none;fill:#000000;fill-opacity:1;fill-rule:nonzero;stroke:none;stroke-width:1.5;stroke-linecap:round;stroke-linejoin:round;stroke-miterlimit:4;stroke-dasharray:none;stroke-dashoffset:0;stroke-opacity:1;color-rendering:auto;image-rendering:auto;shape-rendering:auto;text-rendering:auto;enable-background:accumulate;stop-color:#000000;stop-opacity:1"
       id="path913" />
  </g>
</svg>
