<?xml version="1.0" encoding="UTF-8" standalone="no"?>
<svg
   xmlns:dc="http://purl.org/dc/elements/1.1/"
   xmlns:cc="http://creativecommons.org/ns#"
   xmlns:rdf="http://www.w3.org/1999/02/22-rdf-syntax-ns#"
   xmlns:svg="http://www.w3.org/2000/svg"
   xmlns="http://www.w3.org/2000/svg"
   version="1.1"
   id="svg3753"
   height="16px"
   width="16px">
  <defs
     id="defs3755" />
  <metadata
     id="metadata3758">
    <rdf:RDF>
      <cc:Work
         rdf:about="">
        <dc:format>image/svg+xml</dc:format>
        <dc:type
           rdf:resource="http://purl.org/dc/dcmitype/StillImage" />
        <dc:title></dc:title>
        <dc:creator>
          <cc:Agent>
            <dc:title>T. Gantt</dc:title>
          </cc:Agent>
        </dc:creator>
      </cc:Work>
    </rdf:RDF>
  </metadata>
  <g
     style="opacity:1"
     id="layer2">
    <path
       id="path819"
       d="M 8,1 C 7.8555477,1 6.0729097,2.9701111 5.9394531,3.0253906 5.8059966,3.0806701 3.1529245,2.948638 3.0507812,3.0507812 2.948638,3.1529245 3.0806701,5.8059966 3.0253906,5.9394531 2.9701111,6.0729097 1,7.8555477 1,8 c 0,0.1444523 1.9701111,1.9270903 2.0253906,2.060547 0.055279,0.133456 -0.076753,2.786529 0.025391,2.888672 0.1021433,0.102143 2.7552154,-0.02989 2.8886719,0.02539 C 6.0729097,13.029889 7.8555477,15 8,15 c 0.1444523,0 1.9270903,-1.970111 2.060547,-2.025391 0.133456,-0.05528 2.786529,0.07675 2.888672,-0.02539 0.102143,-0.102143 -0.02989,-2.755216 0.02539,-2.888672 C 13.029889,9.9270903 15,8.1444523 15,8 15,7.8555477 13.029889,6.0729097 12.974609,5.9394531 c -0.0067,-0.01628 0.0039,-0.2734011 0.002,-0.3554687 L 8.3847656,10.175781 7.6777344,10.882812 c -0.097934,0.09793 -0.2575345,0.09793 -0.3554688,0 L 6.6152344,10.175781 5.1464844,8.7070312 c -0.097934,-0.097934 -0.097934,-0.2555813 0,-0.3535156 L 5.8535156,7.6464844 c 0.097934,-0.097934 0.2575345,-0.097934 0.3554688,0 L 7.5,8.9375 12.982422,3.4550781 c -0.0046,-0.204178 -0.01145,-0.3825444 -0.0332,-0.4042969 C 12.847076,2.948638 10.194003,3.0806701 10.060547,3.0253906 9.9270903,2.9701111 8.1444523,1 8,1 Z"
       style="opacity:1;vector-effect:none;fill:#000000;fill-opacity:1;stroke:none;stroke-width:1.5;stroke-linecap:round;stroke-linejoin:round;stroke-miterlimit:4;stroke-dasharray:none;stroke-dashoffset:0;stroke-opacity:1" />
  </g>
</svg>
