<?xml version="1.0" encoding="UTF-8" standalone="no"?>
<svg
   xmlns:dc="http://purl.org/dc/elements/1.1/"
   xmlns:cc="http://creativecommons.org/ns#"
   xmlns:rdf="http://www.w3.org/1999/02/22-rdf-syntax-ns#"
   xmlns:svg="http://www.w3.org/2000/svg"
   xmlns="http://www.w3.org/2000/svg"
   version="1.1"
   id="svg3870"
   height="16px"
   width="16px">
  <defs
     id="defs3872" />
  <metadata
     id="metadata3875">
    <rdf:RDF>
      <cc:Work
         rdf:about="">
        <dc:format>image/svg+xml</dc:format>
        <dc:type
           rdf:resource="http://purl.org/dc/dcmitype/StillImage" />
        <dc:title></dc:title>
        <dc:creator>
          <cc:Agent>
            <dc:title>T. Gantt</dc:title>
          </cc:Agent>
        </dc:creator>
      </cc:Work>
    </rdf:RDF>
  </metadata>
  <g
     style="opacity:1"
     id="layer2">
    <path
       id="rect815"
       d="M 2.5,1 C 2.223,1 2,1.223 2,1.5 v 13 C 2,14.777 2.223,15 2.5,15 h 11 C 13.777,15 14,14.777 14,14.5 V 1.5 C 14,1.223 13.777,1 13.5,1 Z M 3,2 H 4 V 3 H 3 Z m 2.25,0 h 5.5 C 10.8885,2 11,2.1115 11,2.25 v 4.5 C 11,6.8885 10.8885,7 10.75,7 H 5.25 C 5.1115,7 5,6.8885 5,6.75 V 2.25 C 5,2.1115 5.1115,2 5.25,2 Z M 12,2 h 1 V 3 H 12 Z M 3,4 H 4 V 5 H 3 Z m 9,0 h 1 V 5 H 12 Z M 3,6 H 4 V 7 H 3 Z m 9,0 h 1 V 7 H 12 Z M 3,8 H 4 V 9 H 3 Z m 9,0 h 1 V 9 H 12 Z M 5.25,9 h 5.5 C 10.8885,9 11,9.1115 11,9.25 v 4.5 C 11,13.8885 10.8885,14 10.75,14 H 5.25 C 5.1115,14 5,13.8885 5,13.75 V 9.25 C 5,9.1115 5.1115,9 5.25,9 Z M 3,10 h 1 v 1 H 3 Z m 9,0 h 1 v 1 h -1 z m -9,2 h 1 v 1 H 3 Z m 9,0 h 1 v 1 h -1 z"
       style="opacity:1;vector-effect:none;fill:#000000;fill-opacity:1;stroke:none;stroke-width:1.5;stroke-linecap:round;stroke-linejoin:round;stroke-miterlimit:4;stroke-dasharray:none;stroke-dashoffset:0;stroke-opacity:1" />
  </g>
</svg>
