<?xml version="1.0" encoding="UTF-8" standalone="no"?>
<!-- Created with Inkscape (http://www.inkscape.org/) -->

<svg
   width="16.0px"
   height="16.0px"
   viewBox="0 0 16.0 16.0"
   version="1.1"
   id="SVGRoot"
   xmlns="http://www.w3.org/2000/svg"
   xmlns:svg="http://www.w3.org/2000/svg">
  <defs
     id="defs5248" />
  <g
     id="layer1">
    <path
       id="rect81720"
       style="fill:#000000;stroke-width:3;stroke-linecap:round;stop-color:#000000"
       d="m 1.7517491,1 a 0.74990794,0.74990126 0 0 0 -0.5311848,0.2187212 0.74990794,0.74990126 0 0 0 0,1.0623601 L 13.71903,14.779436 a 0.74990794,0.74990126 0 0 0 1.062369,0 0.74990794,0.74990126 0 0 0 0,-1.06236 L 13.000368,11.93606 V 9.5984773 l 2.218477,1.7751567 A 0.48056585,0.48056158 0 0 0 16,10.998684 V 4.9994734 A 0.48056585,0.48056158 0 0 0 15.218845,4.6245228 L 13.000368,6.3996796 V 3.9996051 c 0,-0.5539271 -0.445945,-0.9998684 -0.999877,-0.9998684 H 4.0639652 L 2.2829339,1.2187212 A 0.74990794,0.74990126 0 0 0 1.7517491,1 Z M 1.0018412,4.1831747 v 7.8153773 c 0,0.553927 0.4459452,0.999868 0.9998772,0.999868 h 7.8154468 z" />
  </g>
</svg>
