<?xml version="1.0" encoding="UTF-8" standalone="no"?>
<svg
   xmlns:dc="http://purl.org/dc/elements/1.1/"
   xmlns:cc="http://creativecommons.org/ns#"
   xmlns:rdf="http://www.w3.org/1999/02/22-rdf-syntax-ns#"
   xmlns:svg="http://www.w3.org/2000/svg"
   xmlns="http://www.w3.org/2000/svg"
   id="svg5"
   version="1.1"
   viewBox="0 0 16 16"
   height="16"
   width="16">
  <metadata
     id="metadata8">
    <rdf:RDF>
      <cc:Work
         rdf:about="">
        <dc:format>image/svg+xml</dc:format>
        <dc:type
           rdf:resource="http://purl.org/dc/dcmitype/StillImage" />
        <dc:title></dc:title>
      </cc:Work>
    </rdf:RDF>
  </metadata>
  <defs
     id="defs2" />
  <g
     id="layer1">
    <path
       d="M 9.9997355,0 A 0.21430715,0.21432457 0 0 0 9.8024963,0.12889969 L 9.439263,0.96088858 A 0.92990908,0.92998465 0 0 1 8.9608107,1.4393798 L 8.1288893,1.8045956 a 0.21435629,0.21437372 0 0 0 0,0.3925581 L 8.9608107,2.5604165 A 0.92990914,0.92998471 0 0 1 9.439263,3.0389078 l 0.3632333,0.8319889 a 0.21430715,0.21432457 0 0 0 0.3944787,0 L 10.560208,3.0389078 A 0.92990819,0.92998376 0 0 1 11.03866,2.5604165 l 0.831922,-0.3632628 a 0.21435616,0.21437359 0 0 0 0,-0.3925581 L 11.03866,1.4393798 A 0.92990841,0.92998398 0 0 1 10.560208,0.96088858 L 10.196975,0.12889969 A 0.21430715,0.21432457 0 0 0 9.9997355,0 Z M 5.9514429,2.0057573 A 0.21431091,0.21432833 0 0 0 5.803025,2.1287978 L 5.2874681,3.3084254 A 0.92990914,0.92998471 0 0 1 4.8090158,3.7888696 L 3.6294841,4.3025153 a 0.21435266,0.21437008 0 0 0 0,0.3945112 L 4.8090158,5.2106722 A 0.92990917,0.92998474 0 0 1 5.2874681,5.6911165 L 5.803025,6.870744 a 0.21431092,0.21432834 0 0 0 0.3925262,0 L 6.7111081,5.6911165 A 0.92990917,0.92998474 0 0 1 7.1915132,5.2106722 L 8.3710449,4.6970265 a 0.21435266,0.21437008 0 0 0 0,-0.3945112 L 7.1915132,3.7888696 A 0.92990914,0.92998471 0 0 1 6.7111081,3.3084254 L 6.1955512,2.1287978 A 0.21431091,0.21432833 0 0 0 5.9514429,2.0057573 Z m 6.3409581,1.9940391 c -0.25555,0 -0.511122,0.097109 -0.706937,0.2929538 L 9.792732,6.0856277 11.913545,8.2066134 13.706277,6.413736 c 0.391631,-0.3916901 0.391631,-1.0223005 0,-1.4139906 L 12.999339,4.2927502 C 12.803524,4.0969052 12.547951,3.9997964 12.292401,3.9997964 Z M 9.0857941,6.792623 2.2937233,13.585246 c -0.3916311,0.391689 -0.3916311,1.0223 0,1.41399 l 0.7069377,0.706995 c 0.3916311,0.39169 1.0222447,0.39169 1.4138756,0 L 11.206607,8.9136087 Z"
       style="fill:#000000;stroke-width:1;stroke-linecap:round;stroke-linejoin:round"
       id="path44423" />
  </g>
</svg>
