<?xml version="1.0" encoding="UTF-8" standalone="no"?>
<!-- Created with Inkscape (http://www.inkscape.org/) -->

<svg
   width="16"
   height="16"
   viewBox="0 0 4.2333333 4.2333333"
   version="1.1"
   id="svg5"
   xmlns="http://www.w3.org/2000/svg"
   xmlns:svg="http://www.w3.org/2000/svg">
  <defs
     id="defs2" />
  <g
     id="layer2">
    <path
       id="path62"
       style="color:#000000;fill:#000000;stroke-linecap:round;-inkscape-stroke:none"
       d="M 8,0 C 3.5906098,-1.2163835e-7 -1.2163835e-7,3.5906098 0,8 9.6145694e-4,9.4991531 0.47274518,10.94223 1.2636719,12.208984 L 0,16 3.7910156,14.736328 C 5.0577698,15.527255 6.5008467,15.999039 8,16 12.40939,16 16,12.40939 16,8 16,3.5906098 12.40939,-1.2163835e-7 8,0 Z m 0,1.5 c 3.598731,-1e-7 6.5,2.9012692 6.5,6.5 0,3.598731 -2.901269,6.5 -6.5,6.5 -1.3364294,-8.57e-4 -2.6390123,-0.413201 -3.7324219,-1.181641 l -0.3105469,-0.21875 -1.5859374,0.529297 0.5292968,-1.585937 -0.21875,-0.310547 C 1.9132007,10.639012 1.5008571,9.3364293 1.5,8 1.4999999,4.4012692 4.4012692,1.4999999 8,1.5 Z M 5.4570312,4.0078125 c -0.1245546,0.00441 -0.2442405,0.054449 -0.3359374,0.140625 L 4.6035156,4.6347656 C 3.881243,5.3135344 3.8056191,6.4350512 4.4296875,7.2050781 c 0,0 1.0104762,1.4049832 1.984375,2.3789063 0.9738992,0.9739226 2.3808594,1.9863286 2.3808594,1.9863276 0.7702087,0.624162 1.8908991,0.548112 2.5703121,-0.173828 l 0.488282,-0.517578 c 0.09855,-0.104715 0.148472,-0.24521 0.138672,-0.388672 L 11.949219,9.8574219 C 11.939883,9.7209318 11.84985,9.6037402 11.720703,9.5585938 L 9.9941406,8.9550781 C 9.8672694,8.9107291 9.7256021,8.9533523 9.6445312,9.0605469 L 9.1914062,9.6601562 C 9.1161407,9.7596712 8.9749647,9.7797503 8.875,9.7050781 7.8958964,8.9737278 7.0262714,8.1060571 6.2949219,7.1269531 6.2202535,7.0269884 6.2403288,6.8858124 6.3398438,6.8105469 L 6.9394531,6.3554688 C 7.0466481,6.2743941 7.0892709,6.1346837 7.0449219,6.0078125 L 6.4414062,4.2792969 C 6.3962598,4.1501504 6.2790709,4.0601057 6.1425781,4.0507812 L 5.5097656,4.0078125 c -0.017935,-0.00123 -0.034941,-6.304e-4 -0.052734,0 z"
       transform="scale(0.26458333)" />
  </g>
</svg>
