<?xml version="1.0" encoding="UTF-8" standalone="no"?>
<svg
   xmlns:dc="http://purl.org/dc/elements/1.1/"
   xmlns:cc="http://creativecommons.org/ns#"
   xmlns:rdf="http://www.w3.org/1999/02/22-rdf-syntax-ns#"
   xmlns:svg="http://www.w3.org/2000/svg"
   xmlns="http://www.w3.org/2000/svg"
   version="1.1"
   id="svg2985"
   height="16px"
   width="16px">
  <defs
     id="defs2987" />
  <metadata
     id="metadata2990">
    <rdf:RDF>
      <cc:Work
         rdf:about="">
        <dc:format>image/svg+xml</dc:format>
        <dc:type
           rdf:resource="http://purl.org/dc/dcmitype/StillImage" />
        <dc:title></dc:title>
        <dc:creator>
          <cc:Agent>
            <dc:title>T. Gantt</dc:title>
          </cc:Agent>
        </dc:creator>
      </cc:Work>
    </rdf:RDF>
  </metadata>
  <g
     style="display:inline;opacity:1"
     id="layer2">
    <path
       id="path829"
       d="M 8,0 A 8,8 0 0 0 0,8 8,8 0 0 0 8,16 8,8 0 0 0 16,8 8,8 0 0 0 8,0 Z m -0.085937,1.0292969 0.5527344,0.042969 0.3164062,0.00781 0.9453125,0.1914063 0.095703,-0.019531 0.3867189,0.1679688 -0.15625,0.00977 v 0.1777344 l 0.302734,0.2285156 -0.08398,0.1367187 0.1875,0.125 0.271484,0.1660157 0.0098,-0.125 0.07422,0.03125 -0.02148,0.083984 0.146484,0.1777344 0.271485,-0.042969 -0.167969,-0.28125 -0.271484,-0.15625 -0.08203,-0.125 0.375,0.21875 0.365235,0.3222656 -0.240235,0.083984 -0.261718,0.1054687 0.01172,0.125 -0.04297,0.0625 -0.0625,-0.1464844 -0.166016,-0.00977 -0.28125,-0.1875 -0.230469,-0.1992187 -0.103515,-0.03125 0.07226,0.28125 -0.125,0.011719 0.0625,0.15625 0.0625,0.1445313 0.1875,-0.072266 -0.0098,-0.072266 -0.0098,-0.125 0.113281,0.050781 0.02149,0.1464843 0.115234,0.0625 -0.0625,0.1035157 0.08398,0.021484 0.07227,-0.072266 0.28125,-0.021484 -0.08398,0.15625 -0.134766,-0.052734 -0.103516,0.095703 0.28125,0.1132812 0.208985,0.3125 -0.271485,-0.00977 -0.146484,-0.1152344 -0.103516,0.1777344 0.144532,0.083984 -0.04102,0.2285156 0.177734,0.2714844 0.15625,-0.00977 0.134766,0.021484 0.08398,0.050781 0.1875,-0.041016 0.115235,-0.2089844 -0.09375,-0.1875 0.134765,-0.1152344 -0.08398,-0.15625 0.158203,0.074219 0.08203,-0.1582032 0.136719,0.052734 -0.03125,0.09375 0.08203,0.083984 -0.0625,-0.00977 0.07422,0.1875 0.146484,0.072266 0.04102,-0.083984 -0.177734,-0.25 0.40625,0.1992188 0.146484,0.15625 -0.125,0.072266 0.197266,0.1054688 0.02148,-0.1679688 -0.125,-0.1464844 0.04102,-0.03125 -0.300782,-0.1972656 -0.271484,-0.2402344 0.447266,0.2402344 0.167968,0.1777344 0.125,0.082031 0.365235,0.3027344 -0.0625,-0.1660156 -0.1875,-0.2929688 0.113281,-0.041016 -0.144531,-0.1777344 -0.105469,-0.125 0.136719,-0.041016 0.25,0.1347656 0.08398,0.15625 -0.146484,-0.052734 -0.09375,0.1992188 0.103515,0.1875 0.261719,0.1992188 0.175781,-0.03125 0.125,0.21875 0.07422,0.1972656 -0.09375,0.1152344 -0.34375,-0.1992188 -0.126953,0.1152344 0.07422,0.083984 -0.03125,0.09375 -0.15625,-0.072266 -0.167969,-0.1582031 -0.166016,0.03125 -0.1875,-0.09375 -0.01172,-0.15625 -0.05078,-0.1035156 -0.146484,-0.072266 h -0.46875 l -0.261719,0.2382812 -0.21875,-0.019531 -0.125,-0.0625 -0.0098,0.21875 -0.208985,0.1347656 0.146485,0.3339844 -0.292969,0.1679687 -0.302734,0.6660156 0.21875,0.6054688 -0.125,0.2402343 0.199218,0.3535157 0.322266,0.5214843 0.615234,0.4707032 0.333985,-0.125 0.302734,0.050781 0.197266,-0.1660156 0.271484,-0.0625 0.115234,0.3027344 0.199219,-0.1152344 0.15625,0.1660156 0.0098,0.2832032 -0.103516,0.1972656 0.259766,0.5625 0.0625,0.6054687 -0.115235,0.1777344 -0.207031,0.6250009 0.0625,0.574218 -0.115234,0.1875 -0.08399,0.605469 -0.146484,0.228516 -0.05078,0.208984 h 0.1875 l 0.625,-0.427734 0.324218,-0.605469 0.1875,-0.125 0.115235,-0.396484 0.09375,-0.21875 0.333984,-0.7500009 0.125,-0.9804687 0.09375,-0.6582032 -0.05273,1.0859375 -0.002,0.2617188 a 7,7 0 0 1 -4.480469,5.2460945 l -1.1503903,0.05078 -1.3242188,0.240234 -0.5625,-0.0625 -0.3652344,-0.261719 0.072266,-0.1875 -0.2714844,0.03125 -0.0625,0.177735 -0.1972656,0.03125 0.09375,0.103515 -0.5742188,-0.0098 L 6,14.705078 A 7,7 0 0 1 1,8 7,7 0 0 1 2.1328125,4.1933594 l 0.015625,0.03125 -0.1777344,0.6992187 -0.1035156,0.46875 0.125,0.03125 0.072266,-0.4902343 0.125,-0.3964844 -0.125,0.8964844 -0.1445312,0.4902343 0.4472656,0.4277344 0.1152344,-0.072266 0.1875,0.25 0.2304687,0.1367187 0.1757813,0.4472656 0.2714843,0.1464844 0.052734,0.1875 H 3.5351562 L 3.4941406,7.2382812 3.5976562,7.1875 3.7441406,7.4570312 v 0.3769532 l -0.15625,0.09375 -0.2285156,0.5839844 -0.033203,0.3535156 0.5429687,0.8984375 0.042969,0.21875 0.7597656,0.5839841 -0.019531,0.353516 0.1347656,0.199219 -0.03125,0.384765 0.2617187,1.398438 0.75,0.949218 0.53125,0.0625 -0.4375,-0.28125 0.052734,-0.199218 0.00977,-0.09375 -0.1660156,-0.103516 0.09375,-0.08398 0.1035156,-0.208985 -0.1464843,-0.09375 0.2089843,-0.0625 -0.041016,-0.146484 h 0.1972656 l 0.1875,-0.103516 -0.03125,-0.166015 -0.1757812,-0.167969 0.1132812,0.07422 0.2832031,-0.03125 0.53125,-0.617188 -0.072266,-0.207031 0.1972656,-0.208984 0.5214844,-0.136719 0.34375,-0.416016 L 8.1152344,9.9824219 8.65625,9.3984375 8.6152344,9.0117188 8.3964844,8.9707031 8.1464844,8.7304688 7.6035156,8.5839844 7.53125,8.6269531 7.5195312,8.5527344 6.9785156,8.3652344 6.6328125,8.4375 6.9140625,8.1777344 6.4570312,7.65625 5.9355469,7.5839844 5.7460938,7.3222656 5.5390625,7.3007812 5.5273438,6.9785156 l -0.3847657,0.0625 -0.3242187,-0.0625 -0.3027344,-0.21875 -0.5625,0.1972656 0.00977,0.1875 -0.07227,0.083984 L 3.6816406,7.0507812 3.4414062,7.2070312 3.3691406,7.1875 3.2539062,6.9472656 3.421875,6.4355469 3.2753906,6.3007812 l -0.1875,0.050781 -0.125,-0.0625 0.3222656,-0.59375 -0.3027343,-0.0625 -0.1777344,0.34375 -0.2382813,0.021484 -0.0625,-0.34375 0.28125,-0.7304688 0.3125,-0.1777343 0.2402344,0.1347656 0.1035156,-0.1972656 0.375,0.0625 -0.072266,0.40625 0.072266,0.2714843 0.1679688,-0.21875 0.09375,-0.6054687 0.5625,-0.375 0.052734,-0.1035156 0.3515625,-0.4003907 0.3320312,-0.1113281 0.00586,-0.125 0.3632813,-0.1542969 -0.03125,0.1328125 0.6640624,-0.265625 -0.3378906,-0.00781 -0.044922,-0.087891 0.140625,-0.1328125 -0.1621094,-0.089844 0.4570312,-0.00586 0.2421875,-0.089844 -0.2871093,0.2890625 0.5234374,0.125 0.074219,-0.2519531 -0.2285156,-0.066406 0.021484,-0.1171874 0.1328124,-0.125 L 6.5410156,2.421875 6.5859375,2.2089844 6.5117188,2.0839844 6.2910156,2.2382812 6.2246094,2.2011719 6.2910156,2.0390625 6.0097656,1.90625 5.8769531,2.0898438 5.6855469,2.15625 5.7226562,2.2890625 5.4863281,2.4453125 5.3828125,2.421875 5.40625,2.5175781 5.1992188,2.7402344 5.1484375,2.5996094 5.28125,2.4160156 5.1328125,2.4296875 5.015625,2.2519531 5.1328125,2.0605469 5.671875,1.8398438 5.7226562,1.9277344 5.9003906,1.921875 6.0097656,1.7578125 6.3203125,1.5605469 6.46875,1.65625 6.203125,1.8613281 6.5195312,2.0175781 6.9550781,1.7578125 6.8808594,1.515625 6.7695312,1.3457031 l 0.3476563,-0.125 0.044922,0.1035157 0.1542968,-0.029297 0.109375,0.087891 -0.058594,0.2070313 0.052734,0.4863281 0.3007812,0.050781 L 7.9355469,1.7949219 8.2011719,1.78125 8.3046875,1.6855469 8.7089844,1.5664062 8.5117188,1.2871094 8.2226562,1.1328125 7.5585938,1.1835938 7.625,1.1386719 7.3828125,1.0957031 Z M 9.1054688,1.734375 8.9414062,1.7734375 8.7929688,1.7421875 8.78125,1.796875 8.8984375,1.867187 9.0820312,1.929687 9.2890625,1.871093 9.2812525,1.804687 Z M 3.84375,5.4921875 3.5,5.4980469 l -0.052734,0.125 0.203125,-0.058594 -0.00977,0.058594 0.2558594,0.072266 0.019531,0.083984 0.09375,0.046875 -0.125,0.09375 0.2460938,-0.00586 L 4.34375,5.9042969 4.203125,5.8105469 4.1875,5.7519531 4.0839844,5.7207031 Z m 0.5097656,0.4003906 0.074219,0.1738281 h -0.183594 l 0.027344,0.087891 0.1816406,-0.037109 0.037109,0.083984 0.1308594,-0.09375 0.2285156,0.025391 0.00586,-0.087891 L 4.75,5.9824219 4.6621094,5.9042969 Z m -0.3378906,0.1523438 -0.1464844,0.00977 0.058594,0.09375 0.1503906,0.00586 z m 1.1113281,0.037109 -0.2089843,0.00391 0.021484,0.074219 0.1660157,0.025391 z"
       style="opacity:1;vector-effect:none;fill:#000000;fill-opacity:1;stroke:none;stroke-width:1.5;stroke-linecap:round;stroke-linejoin:round;stroke-miterlimit:4;stroke-dasharray:none;stroke-dashoffset:0;stroke-opacity:1" />
  </g>
</svg>
