<?xml version="1.0" encoding="UTF-8" standalone="no"?>
<!-- Created with Inkscape (http://www.inkscape.org/) -->

<svg
   xmlns:dc="http://purl.org/dc/elements/1.1/"
   xmlns:cc="http://creativecommons.org/ns#"
   xmlns:rdf="http://www.w3.org/1999/02/22-rdf-syntax-ns#"
   xmlns:svg="http://www.w3.org/2000/svg"
   xmlns="http://www.w3.org/2000/svg"
   version="1.1"
   width="100"
   height="100"
   id="svg2">
  <defs
     id="defs4" />
  <metadata
     id="metadata7">
    <rdf:RDF>
      <cc:Work
         rdf:about="">
        <dc:format>image/svg+xml</dc:format>
        <dc:type
           rdf:resource="http://purl.org/dc/dcmitype/StillImage" />
        <dc:title></dc:title>
        <dc:creator>
          <cc:Agent>
            <dc:title>T. Gantt</dc:title>
          </cc:Agent>
        </dc:creator>
      </cc:Work>
    </rdf:RDF>
  </metadata>
  <g
     transform="translate(0,-952.36218)"
     id="layer1"
     style="display:inline">
    <path
       d="m 50.000001,0 c 5.877853,1.5749647e-7 45.736469,28.958982 47.552825,34.549152 1.816356,5.59017 -13.408282,52.446784 -18.163564,55.901699 -4.755283,3.454914 -54.023243,3.454913 -58.778526,-2e-6 C 15.855454,86.995934 0.63081813,40.139319 2.4471746,34.549149 4.2635311,28.958979 44.122149,-1.5749643e-7 50.000001,0 z"
       transform="matrix(0.81567702,-0.38035644,0.38035644,0.81567702,-9.8016722,980.59615)"
       id="path4672"
       style="color:#000000;fill:#000000;fill-opacity:1;fill-rule:nonzero;stroke:none;stroke-width:10;marker:none;visibility:visible;display:inline;overflow:visible;enable-background:accumulate" />
    <path
       d="m 50.000001,0 c 5.877853,1.5749647e-7 45.736469,28.958982 47.552825,34.549152 1.816356,5.59017 -13.408282,52.446784 -18.163564,55.901699 -4.755283,3.454914 -54.023243,3.454913 -58.778526,-2e-6 C 15.855454,86.995934 0.63081813,40.139319 2.4471746,34.549149 4.2635311,28.958979 44.122149,-1.5749643e-7 50.000001,0 z"
       transform="matrix(0.81567702,-0.38035644,0.38035644,0.81567702,-9.8016722,980.59615)"
       id="path4672-8"
       style="color:#000000;fill:#000000;fill-opacity:1;fill-rule:nonzero;stroke:none;stroke-width:10;marker:none;visibility:visible;display:inline;overflow:visible;enable-background:accumulate" />
    <path
       d="M 34.15625,11.03125 C 33.145515,11.063663 32.426372,11.17618 32,11.375 27.452033,13.495751 7.0446945,50.269278 7.65625,55.25 8.2678055,60.230722 36.949071,91.011246 41.875,91.96875 46.800929,92.926254 84.942164,75.138952 87.375,70.75 89.807836,66.361048 84.672353,24.607525 81.25,20.9375 78.148492,17.61154 43.926688,10.717922 34.15625,11.03125 z m 0.84375,2 c 9.28169,-0.297654 41.77239,6.246665 44.71875,9.40625 3.251156,3.486439 8.123638,43.143098 5.8125,47.3125 C 83.220112,73.919402 46.992018,90.815856 42.3125,89.90625 37.632982,88.996644 10.393464,59.76282 9.8125,55.03125 9.2315364,50.29968 28.585787,15.358415 32.90625,13.34375 33.311293,13.154875 34.039825,13.062042 35,13.03125 z m 7.65625,10.53125 c -7.084735,0 -12.8125,5.727765 -12.8125,12.8125 0,0.05259 -6.31e-4,0.103805 0,0.15625 -3.954282,1.015625 -6.875,4.603853 -6.875,8.875 0,5.060525 4.095725,9.1875 9.15625,9.1875 l 4.21875,0 C 36.881361,54.009884 37.428259,53.47133 37.9375,53 c 0.509241,-0.47133 1.008909,-0.874634 1.46875,-1.1875 0.459841,-0.312866 0.817402,-0.59375 1.59375,-0.59375 0.776348,0 1.133909,0.280884 1.59375,0.59375 0.459841,0.312866 0.959509,0.71617 1.46875,1.1875 0.509241,0.47133 1.056139,1.009884 1.59375,1.59375 l 7.09375,0 0,-2.125 a 1.250125,1.250125 0 0 1 1,-1.25 1.250125,1.250125 0 0 1 0.25,0 l 10,0 a 1.250125,1.250125 0 0 1 1.25,1.25 l 0,2.125 2.625,0 c 5.060525,0 9.15625,-4.126975 9.15625,-9.1875 0,-4.271147 -2.920718,-7.859375 -6.875,-8.875 6.31e-4,-0.05244 0,-0.103655 0,-0.15625 0,-7.084735 -5.727765,-12.8125 -12.8125,-12.8125 -2.728626,0 -5.264559,0.86012 -7.34375,2.3125 -2.079191,-1.45238 -4.615124,-2.3125 -7.34375,-2.3125 z M 40,37.59375 c 1.548462,0 2.8125,1.264038 2.8125,2.8125 0,1.548462 -1.264038,2.8125 -2.8125,2.8125 -1.548462,0 -2.8125,-1.264038 -2.8125,-2.8125 0,-1.548462 1.264038,-2.8125 2.8125,-2.8125 z m 20,0 c 1.548462,0 2.8125,1.264038 2.8125,2.8125 0,1.548462 -1.264038,2.8125 -2.8125,2.8125 -1.548462,0 -2.8125,-1.264038 -2.8125,-2.8125 0,-1.548462 1.264038,-2.8125 2.8125,-2.8125 z M 46.21875,41.8125 a 1.0001,1.0001 0 0 1 0.09375,0 1.0001,1.0001 0 0 1 1,0.6875 c 0,0 0.0632,0.247931 0.4375,0.59375 0.374304,0.345819 0.995084,0.75 2.25,0.75 1.254916,0 1.875696,-0.404181 2.25,-0.75 C 52.6243,42.747931 52.6875,42.5 52.6875,42.5 a 1.0080244,1.0080244 0 0 1 1.90625,0.65625 c 0,0 -0.260685,0.752069 -0.96875,1.40625 -0.708065,0.654181 -1.91967,1.28125 -3.625,1.28125 -1.70533,0 -2.916935,-0.627069 -3.625,-1.28125 -0.708065,-0.654181 -0.96875,-1.40625 -0.96875,-1.40625 a 1.0001,1.0001 0 0 1 0.8125,-1.34375 z M 41,52.46875 c -1.732051,0 -9.522275,9.308866 -8.65625,10.34375 0.245433,0.293288 1.716126,0.466699 3.65625,0.59375 l 0,9.0625 10,0 0,-9.0625 C 47.940124,63.279199 49.410817,63.105788 49.65625,62.8125 50.522275,61.777616 42.732051,52.46875 41,52.46875 z m 13,0 0,2.5 10,0 0,-2.5 -10,0 z m 0,4 0,9.03125 c -1.940124,0.127051 -3.410817,0.300462 -3.65625,0.59375 -0.866025,1.034884 6.924199,10.375 8.65625,10.375 1.732051,0 9.522275,-9.340116 8.65625,-10.375 C 67.410817,65.800462 65.940124,65.627051 64,65.5 l 0,-9.03125 -10,0 z m -18,17.5 0,2.5 10,0 0,-2.5 -10,0 z"
       transform="translate(0,952.36218)"
       id="path4672-8-8"
       style="color:#000000;fill:#ffffff;fill-opacity:1;fill-rule:nonzero;stroke:none;stroke-width:10;marker:none;visibility:visible;display:inline;overflow:visible;enable-background:accumulate" />
  </g>
</svg>
