<?xml version="1.0" encoding="UTF-8" standalone="no"?>
<!-- Created with Inkscape (http://www.inkscape.org/) -->

<svg
   xmlns:dc="http://purl.org/dc/elements/1.1/"
   xmlns:cc="http://creativecommons.org/ns#"
   xmlns:rdf="http://www.w3.org/1999/02/22-rdf-syntax-ns#"
   xmlns:svg="http://www.w3.org/2000/svg"
   xmlns="http://www.w3.org/2000/svg"
   version="1.1"
   width="100"
   height="100"
   id="svg2">
  <defs
     id="defs4" />
  <metadata
     id="metadata7">
    <rdf:RDF>
      <cc:Work
         rdf:about="">
        <dc:format>image/svg+xml</dc:format>
        <dc:type
           rdf:resource="http://purl.org/dc/dcmitype/StillImage" />
        <dc:title></dc:title>
        <dc:creator>
          <cc:Agent>
            <dc:title>T. Gantt</dc:title>
          </cc:Agent>
        </dc:creator>
        <cc:license
           rdf:resource="" />
      </cc:Work>
    </rdf:RDF>
  </metadata>
  <g
     transform="translate(0,-952.36218)"
     id="layer1">
    <path
       d="m 50.000001,0 c 5.877853,1.5749647e-7 45.736469,28.958982 47.552825,34.549152 1.816356,5.59017 -13.408282,52.446784 -18.163564,55.901699 -4.755283,3.454914 -54.023243,3.454913 -58.778526,-2e-6 C 15.855454,86.995934 0.63081813,40.139319 2.4471746,34.549149 4.2635311,28.958979 44.122149,-1.5749643e-7 50.000001,0 z"
       transform="matrix(0.63639611,-0.63639612,0.63639612,0.63639611,-13.63961,1002.3622)"
       id="path4672"
       style="color:#000000;fill:#000000;fill-opacity:1;fill-rule:nonzero;stroke:none;stroke-width:10;marker:none;visibility:visible;display:inline;overflow:visible;enable-background:accumulate" />
    <path
       d="m 50.000001,0 c 5.877853,1.5749647e-7 45.736469,28.958982 47.552825,34.549152 1.816356,5.59017 -13.408282,52.446784 -18.163564,55.901699 -4.755283,3.454914 -54.023243,3.454913 -58.778526,-2e-6 C 15.855454,86.995934 0.63081813,40.139319 2.4471746,34.549149 4.2635311,28.958979 44.122149,-1.5749643e-7 50.000001,0 z"
       transform="matrix(0.63639611,-0.63639612,0.63639612,0.63639611,-13.63961,1002.3622)"
       id="path4672-8"
       style="color:#000000;fill:#000000;fill-opacity:1;fill-rule:nonzero;stroke:none;stroke-width:10;marker:none;visibility:visible;display:inline;overflow:visible;enable-background:accumulate" />
    <path
       d="M 66.15625,11.53125 C 55.16063,11.312994 22.948557,16.738943 19.84375,19.84375 16.295399,23.392101 9.7218187,64.935067 12,69.40625 c 2.278181,4.471183 39.762406,23.597508 44.71875,22.8125 4.956344,-0.785008 34.714992,-30.543656 35.5,-35.5 C 93.003758,51.762406 73.877433,14.278182 69.40625,12 c -0.558898,-0.284773 -1.679197,-0.437571 -3.25,-0.46875 z M 65.375,13.5 c 1.492226,0.02962 2.59406,0.166973 3.125,0.4375 4.24752,2.16422 22.370739,37.791588 21.625,42.5 C 89.379261,61.145912 61.145912,89.379261 56.4375,90.125 51.729088,90.870739 16.101719,72.74752 13.9375,68.5 11.773281,64.25248 18.035399,24.777101 21.40625,21.40625 24.355745,18.456756 54.929416,13.292662 65.375,13.5 z M 49.59375,29.59375 a 1.0001,1.0001 0 0 0 -0.5,0.21875 L 45.9375,32.25 A 1.0001,1.0001 0 0 0 45.75,33.65625 l 0.71875,0.90625 a 1.0001,1.0001 0 0 0 1.4375,0.1875 c 0.370674,-0.30073 0.363529,-0.31854 0.625,-0.53125 l 0,8.3125 a 1.0001,1.0001 0 0 0 1,1 l 1.3125,0 a 1.0001,1.0001 0 0 0 1,-1 l 0,-11.9375 a 1.0001,1.0001 0 0 0 -1,-1 l -1.125,0 a 1.0001,1.0001 0 0 0 -0.125,0 z M 31.5,34.03125 c -1.528896,1e-5 -2.972369,0.55717 -4.21875,1.59375 A 1.0001,1.0001 0 0 0 27.125,37 l 0.71875,0.9375 A 1.0001,1.0001 0 0 0 29.25,38.09375 c 0.488157,-0.38564 0.887114,-0.60817 1.1875,-0.71875 0.329757,-0.12138 0.677757,-0.18749 1.0625,-0.1875 0.503636,1e-5 0.764303,0.11416 0.9375,0.28125 0.181179,0.17481 0.249995,0.3476 0.25,0.78125 -5e-6,0.3387 -0.05111,0.63589 -0.15625,0.90625 -0.113654,0.29224 -0.300373,0.613 -0.5625,0.96875 -0.228773,0.31047 -0.837386,1.01416 -1.78125,1.96875 L 27.03125,45.25 A 1.0001,1.0001 0 0 0 26.75,45.9375 l 0,1.1875 a 1.0001,1.0001 0 0 0 1,1 l 7.84375,0 a 1.0001,1.0001 0 0 0 1,-1 l 0,-1.28125 a 1.0001,1.0001 0 0 0 -1,-1 l -3.71875,0 0.875,-0.875 0,-0.03125 c 1.186274,-1.15482 2.054712,-2.11463 2.5625,-3 0.497096,-0.86674 0.78124,-1.80744 0.78125,-2.75 -1e-5,-1.18657 -0.437611,-2.30176 -1.28125,-3.0625 C 33.959794,34.35613 32.790376,34.03126 31.5,34.03125 z m 36.6875,4.40625 c -0.810436,1e-5 -1.597706,0.11788 -2.34375,0.375 -0.734465,0.25318 -1.38602,0.6028 -1.96875,1.0625 a 1.0001,1.0001 0 0 0 -0.1875,1.40625 l 0.6875,0.90625 a 1.0001,1.0001 0 0 0 1.34375,0.21875 c 0.540369,-0.34702 1.00743,-0.55337 1.34375,-0.65625 0.352033,-0.10765 0.737985,-0.15334 1.15625,-0.15625 0.0154,0 0.01627,-2e-4 0.03125,0 0.494356,0.006 0.790726,0.10226 0.96875,0.25 0.178404,0.14807 0.249996,0.24115 0.25,0.59375 -5e-6,0.47959 -0.12103,0.69857 -0.4375,0.9375 -0.324787,0.24521 -0.811501,0.40626 -1.59375,0.40625 l -1.1875,0 a 1.0001,1.0001 0 0 0 -1,1 l 0,1.15625 a 1.0001,1.0001 0 0 0 1,1 l 1.15625,0 c 1.029917,0 1.718013,0.17567 2.03125,0.375 0.313237,0.19933 0.374998,0.3515 0.375,0.8125 -3e-6,0.5945 -0.114769,0.7961 -0.375,1 -0.260231,0.2039 -0.788111,0.40625 -1.6875,0.40625 -0.436703,0 -0.916007,-0.0691 -1.4375,-0.1875 -0.511497,-0.1167 -0.993664,-0.2804 -1.4375,-0.5 A 1.0001,1.0001 0 0 0 63.4375,49.75 l 0,1.28125 A 1.0001,1.0001 0 0 0 64,51.9375 c 0.572346,0.2767 1.16591,0.48235 1.78125,0.59375 0.592665,0.1071 1.224997,0.15625 1.90625,0.15625 1.591703,0 2.945793,-0.3314 3.96875,-1.125 1.025045,-0.7953 1.56249,-2.03895 1.5625,-3.40625 -1e-5,-0.98758 -0.32142,-1.93958 -0.96875,-2.625 -0.167662,-0.17752 -0.392502,-0.26948 -0.59375,-0.40625 0.08904,-0.0821 0.232005,-0.0962 0.3125,-0.1875 0.598725,-0.67882 0.90624,-1.5834 0.90625,-2.53125 -1e-5,-1.15537 -0.482404,-2.25701 -1.34375,-2.96875 -0.86913,-0.71811 -2.033456,-0.99999 -3.34375,-1 z m -24.46875,7.53125 c -0.836391,0 -1.5,0.694859 -1.5,1.53125 l 0,15.28125 c 0,0.836391 0.663609,1.53125 1.5,1.53125 l 12.5625,0 c 0.836391,0 1.5,-0.694859 1.5,-1.53125 l 0,-15.28125 c 0,-0.836391 -0.663609,-1.53125 -1.5,-1.53125 l -12.5625,0 z m -18.3125,4.59375 c -0.836391,0 -1.53125,0.663609 -1.53125,1.5 l 0,10.71875 c 0,0.836391 0.694859,1.53125 1.53125,1.53125 l 12.53125,0 c 0.836391,0 1.53125,-0.694859 1.53125,-1.53125 l 0,-10.71875 c 0,-0.836391 -0.694859,-1.5 -1.53125,-1.5 l -12.53125,0 z m 36.65625,4.59375 c -0.836391,0 -1.53125,0.663609 -1.53125,1.5 l 0,6.125 c 0,0.836391 0.694859,1.53125 1.53125,1.53125 l 12.53125,0 c 0.836391,0 1.53125,-0.694859 1.53125,-1.53125 l 0,-6.125 c 0,-0.836391 -0.694859,-1.5 -1.53125,-1.5 l -12.53125,0 z"
       transform="translate(0,952.36218)"
       id="path4672-8-8"
       style="color:#000000;fill:#ffffff;fill-opacity:1;fill-rule:nonzero;stroke:none;stroke-width:10;marker:none;visibility:visible;display:inline;overflow:visible;enable-background:accumulate" />
  </g>
</svg>
