<?xml version="1.0" encoding="UTF-8" standalone="no"?>
<!-- Created with Inkscape (http://www.inkscape.org/) -->

<svg
   xmlns:dc="http://purl.org/dc/elements/1.1/"
   xmlns:cc="http://creativecommons.org/ns#"
   xmlns:rdf="http://www.w3.org/1999/02/22-rdf-syntax-ns#"
   xmlns:svg="http://www.w3.org/2000/svg"
   xmlns="http://www.w3.org/2000/svg"
   version="1.1"
   width="100"
   height="100"
   id="svg2">
  <defs
     id="defs4" />
  <metadata
     id="metadata7">
    <rdf:RDF>
      <cc:Work
         rdf:about="">
        <dc:format>image/svg+xml</dc:format>
        <dc:type
           rdf:resource="http://purl.org/dc/dcmitype/StillImage" />
        <dc:title></dc:title>
        <dc:creator>
          <cc:Agent>
            <dc:title>T. Gantt</dc:title>
          </cc:Agent>
        </dc:creator>
        <cc:license
           rdf:resource="" />
      </cc:Work>
    </rdf:RDF>
  </metadata>
  <g
     transform="translate(0,-952.36218)"
     id="layer1">
    <path
       d="m 50.000001,0 c 5.877853,1.5749647e-7 45.736469,28.958982 47.552825,34.549152 1.816356,5.59017 -13.408282,52.446784 -18.163564,55.901699 -4.755283,3.454914 -54.023243,3.454913 -58.778526,-2e-6 C 15.855454,86.995934 0.63081813,40.139319 2.4471746,34.549149 4.2635311,28.958979 44.122149,-1.5749643e-7 50.000001,0 z"
       transform="matrix(-0.81567702,0.38035644,-0.38035644,-0.81567702,109.80168,1024.1282)"
       id="path4672"
       style="color:#000000;fill:#000000;fill-opacity:1;fill-rule:nonzero;stroke:none;stroke-width:10;marker:none;visibility:visible;display:inline;overflow:visible;enable-background:accumulate" />
    <path
       d="m 50.000001,0 c 5.877853,1.5749647e-7 45.736469,28.958982 47.552825,34.549152 1.816356,5.59017 -13.408282,52.446784 -18.163564,55.901699 -4.755283,3.454914 -54.023243,3.454913 -58.778526,-2e-6 C 15.855454,86.995934 0.63081813,40.139319 2.4471746,34.549149 4.2635311,28.958979 44.122149,-1.5749643e-7 50.000001,0 z"
       transform="matrix(-0.81567702,0.38035644,-0.38035644,-0.81567702,109.80168,1024.1282)"
       id="path4672-8"
       style="color:#000000;fill:#000000;fill-opacity:1;fill-rule:nonzero;stroke:none;stroke-width:10;marker:none;visibility:visible;display:inline;overflow:visible;enable-background:accumulate" />
    <path
       d="M 57.5625,8 C 50.845821,8.1762898 14.98181,24.998203 12.625,29.25 10.192164,33.638952 15.327647,75.392475 18.75,79.0625 22.172353,82.732525 63.452033,90.745751 68,88.625 72.547967,86.504249 92.955306,49.730722 92.34375,44.75 91.732194,39.769278 63.050929,8.9887537 58.125,8.03125 57.971065,8.001328 57.779167,7.9943132 57.5625,8 z m -0.40625,2.0625 c 0.205829,-0.0054 0.385015,0.0028 0.53125,0.03125 4.679518,0.909606 31.919036,30.14343 32.5,34.875 0.580964,4.73157 -18.773287,39.672835 -23.09375,41.6875 C 62.773287,88.670915 23.532406,81.048939 20.28125,77.5625 17.030094,74.076061 12.157612,34.419402 14.46875,30.25 16.707665,26.210892 50.775561,10.229971 57.15625,10.0625 z M 50,21.71875 C 34.377266,21.71875 21.71875,34.377266 21.71875,50 21.71875,65.622734 34.377266,78.28125 50,78.28125 65.622734,78.28125 78.28125,65.622734 78.28125,50 78.28125,34.377266 65.622734,21.71875 50,21.71875 z m 0,3.34375 C 63.764895,25.0625 74.9375,36.235105 74.9375,50 74.9375,63.764895 63.764895,74.9375 50,74.9375 36.235105,74.9375 25.0625,63.764895 25.0625,50 25.0625,36.235105 36.235105,25.0625 50,25.0625 z m 0,2.15625 C 37.417366,27.21875 27.21875,37.417366 27.21875,50 27.21875,62.582634 37.417366,72.78125 50,72.78125 62.582634,72.78125 72.78125,62.582634 72.78125,50 72.78125,37.417366 62.582634,27.21875 50,27.21875 z m -0.1875,1.6875 a 1.0001,1.0001 0 0 1 0.0625,0 1.0001,1.0001 0 0 1 1.125,1 l 0,2.78125 a 1.0001,1.0001 0 1 1 -2,0 l 0,-2.78125 a 1.0001,1.0001 0 0 1 0.8125,-1 z M 44.625,29.875 c 0.463585,-0.124217 3.499217,2.942665 3.375,3.40625 -0.04277,0.159615 -0.600387,0.396429 -1.28125,0.625 L 49.5,44.28125 A 1.0045064,1.0045064 0 0 1 47.5625,44.8125 L 44.78125,34.40625 c -0.691917,0.138588 -1.290851,0.240399 -1.40625,0.125 -0.339368,-0.339368 0.786415,-4.532033 1.25,-4.65625 z m -4.875,1.71875 a 1.0001,1.0001 0 0 1 0.0625,0 1.0001,1.0001 0 0 1 1,0.5 L 42.21875,34.5 a 1.0077822,1.0077822 0 0 1 -1.75,1 l -1.375,-2.40625 a 1.0001,1.0001 0 0 1 0.65625,-1.5 z m 20.125,0 a 1.0001,1.0001 0 0 1 0.09375,0 1.0001,1.0001 0 0 1 0.9375,1.5 L 59.53125,35.5 a 1.0077822,1.0077822 0 0 1 -1.75,-1 l 1.40625,-2.40625 a 1.0001,1.0001 0 0 1 0.6875,-0.5 z M 32.40625,38.9375 a 1.0001,1.0001 0 0 1 0.03125,0 1.0001,1.0001 0 0 1 0.09375,0 1.0001,1.0001 0 0 1 0.5625,0.15625 l 2.40625,1.375 a 1.0077822,1.0077822 0 0 1 -1,1.75 L 32.09375,40.8125 a 1.0001,1.0001 0 0 1 0.3125,-1.875 z m 34.875,0 a 1.0001,1.0001 0 0 1 0.0625,0 1.0001,1.0001 0 0 1 0.5625,1.875 L 65.5,42.21875 a 1.0077822,1.0077822 0 0 1 -1,-1.75 l 2.40625,-1.375 a 1.0001,1.0001 0 0 1 0.375,-0.15625 z m -6.09375,5.5 c 1.027647,-0.007 4.23506,0.875613 4.34375,1.28125 C 65.655467,46.182335 62.588585,49.249217 62.125,49.125 61.966205,49.08245 61.727482,48.519487 61.5,47.84375 L 55.8125,49.375 a 1.0004978,1.0004978 0 1 1 -0.5,-1.9375 L 61,45.90625 C 60.859816,45.2094 60.790257,44.615993 60.90625,44.5 60.94867,44.45758 61.040693,44.4385 61.1875,44.4375 z M 50,46.625 c 1.857839,0 3.375,1.517161 3.375,3.375 0,1.857839 -1.517161,3.375 -3.375,3.375 -1.857839,0 -3.375,-1.517161 -3.375,-3.375 0,-1.857839 1.517161,-3.375 3.375,-3.375 z M 29.59375,49 a 1.0098393,1.0098393 0 0 1 0.03125,0 1.0043849,1.0043849 0 0 1 0.09375,0 1.001098,1.001098 0 0 1 0.09375,0 1.0001,1.0001 0 0 1 0.09375,0 l 2.78125,0 a 1.0001,1.0001 0 1 1 0,2 l -2.78125,0 a 1.0121334,1.0121334 0 0 1 -0.3125,-2 z m 37.46875,0 a 1.0059637,1.0059637 0 0 1 0.03125,0 1.0019512,1.0019512 0 0 1 0.09375,0 1.0001,1.0001 0 0 1 0.125,0 l 2.78125,0 a 1.0001,1.0001 0 1 1 0,2 l -2.78125,0 a 1.0077822,1.0077822 0 0 1 -0.25,-2 z M 34.875,57.65625 a 1.0001,1.0001 0 0 1 0.625,1.875 l -2.40625,1.375 a 1.0001,1.0001 0 1 1 -1,-1.71875 L 34.5,57.78125 a 1.0001,1.0001 0 0 1 0.375,-0.125 z m 29.9375,0 a 1.0001,1.0001 0 0 1 0.6875,0.125 l 2.40625,1.40625 a 1.0001,1.0001 0 1 1 -1,1.71875 L 64.5,59.53125 a 1.0001,1.0001 0 0 1 0.3125,-1.875 z m -23.65625,6.3125 a 1.0001,1.0001 0 0 1 0.09375,0 1.0001,1.0001 0 0 1 0.96875,1.53125 l -1.40625,2.40625 a 1.0001,1.0001 0 1 1 -1.71875,-1 L 40.46875,64.5 a 1.0001,1.0001 0 0 1 0.6875,-0.53125 z m 17.34375,0 A 1.0001,1.0001 0 0 1 59.53125,64.5 l 1.375,2.40625 a 1.0001,1.0001 0 1 1 -1.71875,1 L 57.78125,65.5 A 1.0001,1.0001 0 0 1 58.5,63.96875 z m -8.71875,2.3125 a 1.0001,1.0001 0 0 1 0.09375,0 A 1.0001,1.0001 0 0 1 51,67.3125 l 0,2.78125 a 1.0001,1.0001 0 1 1 -2,0 l 0,-2.78125 a 1.0001,1.0001 0 0 1 0.78125,-1.03125 z"
       transform="translate(0,952.36218)"
       id="path4672-8-8"
       style="color:#000000;fill:#ffffff;fill-opacity:1;fill-rule:nonzero;stroke:none;stroke-width:10;marker:none;visibility:visible;display:inline;overflow:visible;enable-background:accumulate" />
  </g>
</svg>
