<?xml version="1.0" encoding="UTF-8" standalone="no"?>
<!-- Created with Inkscape (http://www.inkscape.org/) -->

<svg
   xmlns:dc="http://purl.org/dc/elements/1.1/"
   xmlns:cc="http://creativecommons.org/ns#"
   xmlns:rdf="http://www.w3.org/1999/02/22-rdf-syntax-ns#"
   xmlns:svg="http://www.w3.org/2000/svg"
   xmlns="http://www.w3.org/2000/svg"
   version="1.1"
   width="100"
   height="100"
   id="svg2">
  <defs
     id="defs4" />
  <metadata
     id="metadata7">
    <rdf:RDF>
      <cc:Work
         rdf:about="">
        <dc:format>image/svg+xml</dc:format>
        <dc:type
           rdf:resource="http://purl.org/dc/dcmitype/StillImage" />
        <dc:title></dc:title>
        <dc:creator>
          <cc:Agent>
            <dc:title>T. Gantt</dc:title>
          </cc:Agent>
        </dc:creator>
        <cc:license
           rdf:resource="" />
      </cc:Work>
    </rdf:RDF>
  </metadata>
  <g
     transform="translate(0,-952.36218)"
     id="layer1">
    <path
       d="m 50.000001,0 c 5.877853,1.5749647e-7 45.736469,28.958982 47.552825,34.549152 1.816356,5.59017 -13.408282,52.446784 -18.163564,55.901699 -4.755283,3.454914 -54.023243,3.454913 -58.778526,-2e-6 C 15.855454,86.995934 0.63081813,40.139319 2.4471746,34.549149 4.2635311,28.958979 44.122149,-1.5749643e-7 50.000001,0 z"
       transform="matrix(0.15628335,-0.88632698,0.88632698,0.15628335,-2.1305153,1038.8643)"
       id="path4672"
       style="color:#000000;fill:#000000;fill-opacity:1;fill-rule:nonzero;stroke:none;stroke-width:10;marker:none;visibility:visible;display:inline;overflow:visible;enable-background:accumulate" />
    <path
       d="m 50.000001,0 c 5.877853,1.5749647e-7 45.736469,28.958982 47.552825,34.549152 1.816356,5.59017 -13.408282,52.446784 -18.163564,55.901699 -4.755283,3.454914 -54.023243,3.454913 -58.778526,-2e-6 C 15.855454,86.995934 0.63081813,40.139319 2.4471746,34.549149 4.2635311,28.958979 44.122149,-1.5749643e-7 50.000001,0 z"
       transform="matrix(0.15628335,-0.88632698,0.88632698,0.15628335,-2.1305153,1038.8643)"
       id="path4672-8"
       style="color:#000000;fill:#000000;fill-opacity:1;fill-rule:nonzero;stroke:none;stroke-width:10;marker:none;visibility:visible;display:inline;overflow:visible;enable-background:accumulate" />
    <path
       d="M 44.6875,7.71875 C 44.471427,7.7017315 44.28029,7.7281754 44.125,7.75 39.15571,8.448388 8.9026386,37.651861 8.03125,42.59375 c -0.8713886,4.941889 17.569258,42.737882 22,45.09375 4.430742,2.355868 46.077762,-3.482867 49.6875,-6.96875 C 83.328488,77.232867 90.637301,35.822762 88.4375,31.3125 86.306442,26.943184 51.385748,8.2463225 44.6875,7.71875 z M 45,9.84375 C 51.36318,10.344932 84.538045,28.099251 86.5625,32.25 88.65226,36.534644 81.710417,75.875992 78.28125,79.1875 74.852083,82.499008 35.271602,88.050519 31.0625,85.8125 26.853398,83.574481 9.3597011,47.66343 10.1875,42.96875 11.015299,38.27407 39.74804,10.538452 44.46875,9.875 44.616272,9.8542671 44.794736,9.8275829 45,9.84375 z m 6.8125,8.34375 c -1.442127,2.280655 -4.469345,2.942127 -6.75,1.5 2.280655,1.442127 2.973377,4.469345 1.53125,6.75 1.442127,-2.280655 4.438095,-2.973376 6.71875,-1.53125 -2.280655,-1.442126 -2.942127,-4.438095 -1.5,-6.71875 z M 35.28125,28.59375 c -3.862927,-0.04361 -6.926834,3.355124 -7.46875,7.53125 -0.283796,2.186998 0.452831,4.264992 1.75,5.6875 1.162682,1.275027 2.700837,2.152002 3.96875,3.0625 1.37439,0.98696 2.424482,1.908215 3.21875,3 0.794268,1.091784 0.519869,1.66994 0.28125,3.46875 -0.147579,1.112411 0.490722,1.741167 1.28125,1.84375 0.790526,0.102583 1.418488,-0.59578 1.46875,-1.03125 0.0042,-0.03247 -0.0037,-0.0615 0,-0.09375 1.720241,3.328074 5.00327,5.762613 9,6.28125 3.872608,0.502531 7.520771,-0.945238 10.03125,-3.5625 0.02931,0.451985 0.416252,1.126779 1.125,1.21875 0.790528,0.102583 1.577517,-0.355515 1.71875,-1.46875 0.2284,-1.800135 0.109629,-2.397099 1.15625,-3.25 1.046621,-0.852901 2.294225,-1.490267 3.875,-2.09375 1.458309,-0.556728 3.175398,-1.032707 4.625,-1.96875 1.617277,-1.044314 2.841204,-2.875503 3.125,-5.0625 0.578045,-4.454535 -1.835948,-8.76404 -6.0625,-9.3125 -1.842185,-0.239052 -3.820564,0.441205 -5.15625,1.75 -0.7193,0.704818 -1.303464,1.626097 -1.71875,2.65625 -0.07394,-0.604838 -0.133737,-1.200671 -0.21875,-1.8125 -0.0554,-0.398691 -0.02058,-0.952361 0,-1.3125 0.674674,-0.0034 1.254427,-0.499155 1.34375,-1.1875 0.09744,-0.750922 -0.436574,-1.433806 -1.1875,-1.53125 L 43.40625,29.0625 c -0.750926,-0.09744 -1.433806,0.436578 -1.53125,1.1875 -0.08784,0.676934 0.335242,1.28142 0.96875,1.46875 C 42.773084,32.067693 42.658142,32.621869 42.5,33 c -0.308405,0.737416 -0.58924,1.458311 -0.875,2.1875 -0.09518,-1.303728 -0.401646,-2.527276 -1,-3.53125 -0.9574,-1.606357 -2.720317,-2.792199 -4.5625,-3.03125 -0.264159,-0.03428 -0.523722,-0.02834 -0.78125,-0.03125 z m 0.03125,2.0625 c 0.159872,-5.18e-4 0.308908,0.01051 0.46875,0.03125 1.278738,0.165936 2.378001,0.965409 3.125,2.21875 0.746999,1.25334 0.20869,2.409956 -0.03125,4.21875 -0.154358,1.163438 0.990586,1.366842 1.5,1.4375 -0.92384,2.661004 -1.615621,5.045306 -1.8125,6.5625 -0.09675,0.745564 -0.103799,1.46333 -0.0625,2.1875 -0.08226,-0.122828 -0.164064,-0.256875 -0.25,-0.375 -0.99822,-1.37213 -2.355826,-2.405082 -3.75,-3.40625 -1.246127,-0.894853 -2.482457,-1.846472 -3.3125,-2.96875 -0.830041,-1.122277 -1.293556,-2.375685 -1.0625,-4.15625 0.439922,-3.390131 2.789422,-5.742237 5.1875,-5.75 z m 32.3125,4.1875 c 0.158735,-8.2e-5 0.340158,0.01051 0.5,0.03125 2.557477,0.331872 4.46925,3.38386 4,7 -0.231055,1.780565 -1.004757,2.876747 -2.09375,3.75 -1.088993,0.873253 -2.504249,1.452837 -3.9375,2 -1.589805,0.60693 -3.159979,1.257191 -4.46875,2.3125 0.167157,-0.576351 0.326628,-1.167665 0.40625,-1.78125 0.196685,-1.515694 0.127033,-3.976005 -0.09375,-6.78125 0.570572,0.03523 1.435795,-0.06371 1.5625,-1.0625 0.229667,-1.810127 -0.0109,-3.04133 1.03125,-4.0625 0.911883,-0.893525 1.982605,-1.405679 3.09375,-1.40625 z m -11.125,0.5 2.96875,0.375 c 0,0 -0.06588,0.9009 0,1.375 0.595141,4.283148 0.897872,8.490939 0.625,10.59375 -0.606318,4.672412 -4.394114,8.176907 -8.90625,8.5625 l 0.03125,-0.34375 -0.125,-0.03125 c 2.492241,-1.026539 4.635221,-4.400266 5.1875,-8.65625 0.272872,-2.102811 0.310904,-6.274013 0.15625,-10.5 -0.01712,-0.467774 0.0625,-1.375 0.0625,-1.375 z M 29.625,46.4375 c 0.09868,2.173326 -1.576675,3.995067 -3.75,4.09375 2.173325,-0.09868 4.026318,1.576675 4.125,3.75 -0.09868,-2.173325 1.576673,-3.995068 3.75,-4.09375 -2.173327,0.09868 -4.026319,-1.576674 -4.125,-3.75 z M 46.53125,59.125 46.0625,62.78125 c -0.709884,0.274122 -1.267453,1.130789 -1.34375,1.71875 -0.07638,0.588571 0.318727,1.150295 0.9375,1.59375 l -0.21875,1.625 c -0.709883,0.274123 -1.267453,1.130788 -1.34375,1.71875 -0.01625,0.125246 -0.02099,0.251811 0,0.375 -3.461667,0.36753 -6.093653,2.122313 -6.40625,4.53125 l -0.25,1.8125 17.78125,2.3125 0.21875,-1.84375 c 0.312939,-2.411577 -1.827552,-4.761333 -5.09375,-6 0.05191,-0.113963 0.108714,-0.218243 0.125,-0.34375 0.0763,-0.587961 -0.227345,-1.553771 -0.84375,-2 l 0.21875,-1.625 c 0.705393,-0.271496 1.174025,-0.727018 1.25,-1.3125 0.0763,-0.58796 -0.196094,-1.553772 -0.8125,-2 L 50.75,59.65625 c -0.695726,0.0228 -1.412496,0.02996 -2.125,-0.0625 -0.72605,-0.09421 -1.414797,-0.263071 -2.09375,-0.46875 z m 17.6875,1.40625 c -1.046973,1.907073 -3.436677,2.609473 -5.34375,1.5625 1.907073,1.046973 2.609473,3.436675 1.5625,5.34375 1.046973,-1.907075 3.436675,-2.609474 5.34375,-1.5625 -1.907075,-1.046974 -2.609473,-3.436677 -1.5625,-5.34375 z M 49.40625,72 c 2.255373,0.770553 3.735447,2.135987 3.5625,3.46875 L 52.84375,76.5 49.71875,76.09375 49.75,75.90625 C 49.939144,74.448666 49.7934,73.067668 49.40625,72 z"
       transform="translate(0,952.36218)"
       id="path4672-8-8"
       style="color:#000000;fill:#ffffff;fill-opacity:1;fill-rule:nonzero;stroke:none;stroke-width:10;marker:none;visibility:visible;display:inline;overflow:visible;enable-background:accumulate" />
  </g>
</svg>
