<?xml version="1.0" encoding="UTF-8" standalone="no"?>
<!-- Created with Inkscape (http://www.inkscape.org/) -->

<svg
   xmlns:dc="http://purl.org/dc/elements/1.1/"
   xmlns:cc="http://creativecommons.org/ns#"
   xmlns:rdf="http://www.w3.org/1999/02/22-rdf-syntax-ns#"
   xmlns:svg="http://www.w3.org/2000/svg"
   xmlns="http://www.w3.org/2000/svg"
   version="1.1"
   width="100"
   height="100"
   id="svg2">
  <defs
     id="defs4" />
  <metadata
     id="metadata7">
    <rdf:RDF>
      <cc:Work
         rdf:about="">
        <dc:format>image/svg+xml</dc:format>
        <dc:type
           rdf:resource="http://purl.org/dc/dcmitype/StillImage" />
        <dc:title></dc:title>
        <dc:creator>
          <cc:Agent>
            <dc:title>T. Gantt</dc:title>
          </cc:Agent>
        </dc:creator>
        <cc:license
           rdf:resource="" />
      </cc:Work>
    </rdf:RDF>
  </metadata>
  <g
     transform="translate(0,-952.36218)"
     id="layer1">
    <path
       d="m 50.000001,0 c 5.877853,1.5749647e-7 45.736469,28.958982 47.552825,34.549152 1.816356,5.59017 -13.408282,52.446784 -18.163564,55.901699 -4.755283,3.454914 -54.023243,3.454913 -58.778526,-2e-6 C 15.855454,86.995934 0.63081813,40.139319 2.4471746,34.549149 4.2635311,28.958979 44.122149,-1.5749643e-7 50.000001,0 z"
       transform="matrix(-0.5162188,-0.73723685,0.73723685,-0.5162188,38.949101,1065.0349)"
       id="path4672"
       style="color:#000000;fill:#000000;fill-opacity:1;fill-rule:nonzero;stroke:none;stroke-width:10;marker:none;visibility:visible;display:inline;overflow:visible;enable-background:accumulate" />
    <path
       d="m 62.65625,9.46875 c -8.339723,0.019576 -43.856265,11.055325 -46.6875,14.8125 -3.019984,4.007653 -3.753279,46.045642 -0.875,50.15625 2.878279,4.110608 42.638642,17.810908 47.4375,16.34375 4.798858,-1.467158 30.099921,-35.045138 30.1875,-40.0625 C 92.806329,45.701388 68.682231,11.227492 63.9375,9.59375 63.640954,9.4916411 63.212232,9.4674449 62.65625,9.46875 z M 62.0625,11.4375 c 0.52817,-0.0012 0.937038,0.05925 1.21875,0.15625 4.507384,1.552017 27.426948,34.296123 27.34375,39.0625 -0.04046,2.318051 -5.747231,11.038749 -12.125,19.5625 l 0,-26.875 C 78.5,42.607681 77.923569,42 77.1875,42 L 64.84375,42 C 64.107681,42 63.5,42.607681 63.5,43.34375 l 0,44.375 c -0.644078,0.525644 -1.174254,0.881301 -1.5625,1 -0.32036,0.09794 -0.812817,0.13 -1.4375,0.09375 l 0,-25.46875 C 60.5,62.607681 59.923569,62 59.1875,62 L 46.84375,62 C 46.107681,62 45.5,62.607681 45.5,63.34375 l 0,21.8125 c -0.987136,-0.308156 -1.98905,-0.606809 -3,-0.9375 l 0,-28.875 C 42.5,54.607681 41.892319,54 41.15625,54 L 28.8125,54 C 28.076431,54 27.5,54.607681 27.5,55.34375 l 0,23.40625 c -1.050923,-0.428372 -2.058615,-0.838954 -3,-1.25 l 0,-6.15625 C 24.5,70.607681 23.892319,70 23.15625,70 l -7.1875,0 C 15.369469,66.127951 15.120061,59.491389 15.15625,52.5 l 13.25,-12.1875 15.84375,6.53125 a 2.0002,2.0002 0 0 0 2.15625,-0.4375 l 13.4375,-13.4375 c 1.253682,1.126182 2.351884,1.973302 2.71875,1.875 1.010782,-0.270838 3.458694,-9.385056 2.71875,-10.125 -0.09249,-0.09249 -0.304909,-0.122811 -0.625,-0.125 -2.240637,-0.01532 -9.263017,1.959316 -9.5,2.84375 -0.0983,0.366866 0.748818,1.465068 1.875,2.71875 l -12.5,12.5 -15.78125,-6.5 a 2.0002,2.0002 0 0 0 -2.09375,0.375 l -11.40625,10.5 c 0.271167,-10.138595 1.13497,-19.730014 2.46875,-21.5 C 20.408357,21.962021 54.139957,11.456097 62.0625,11.4375 z"
       transform="translate(0,952.36218)"
       id="path4672-8-8"
       style="color:#000000;fill:#ffffff;fill-opacity:1;fill-rule:nonzero;stroke:none;stroke-width:10;marker:none;visibility:visible;display:inline;overflow:visible;enable-background:accumulate" />
  </g>
</svg>
