<?xml version="1.0" encoding="UTF-8" standalone="no"?>
<!-- Created with Inkscape (http://www.inkscape.org/) -->

<svg
   xmlns:dc="http://purl.org/dc/elements/1.1/"
   xmlns:cc="http://creativecommons.org/ns#"
   xmlns:rdf="http://www.w3.org/1999/02/22-rdf-syntax-ns#"
   xmlns:svg="http://www.w3.org/2000/svg"
   xmlns="http://www.w3.org/2000/svg"
   version="1.1"
   width="100"
   height="100"
   id="svg2">
  <defs
     id="defs4" />
  <metadata
     id="metadata7">
    <rdf:RDF>
      <cc:Work
         rdf:about="">
        <dc:format>image/svg+xml</dc:format>
        <dc:type
           rdf:resource="http://purl.org/dc/dcmitype/StillImage" />
        <dc:title></dc:title>
        <dc:creator>
          <cc:Agent>
            <dc:title>T. Gantt</dc:title>
          </cc:Agent>
        </dc:creator>
        <cc:license
           rdf:resource="" />
      </cc:Work>
    </rdf:RDF>
  </metadata>
  <g
     transform="translate(0,-952.36218)"
     id="layer1">
    <path
       d="m 50.000001,0 c 5.877853,1.5749647e-7 45.736469,28.958982 47.552825,34.549152 1.816356,5.59017 -13.408282,52.446784 -18.163564,55.901699 -4.755283,3.454914 -54.023243,3.454913 -58.778526,-2e-6 C 15.855454,86.995934 0.63081813,40.139319 2.4471746,34.549149 4.2635311,28.958979 44.122149,-1.5749643e-7 50.000001,0 z"
       transform="matrix(-0.38035644,-0.81567702,0.81567702,-0.38035644,28.233974,1062.1638)"
       id="path4672"
       style="color:#000000;fill:#000000;fill-opacity:1;fill-rule:nonzero;stroke:none;stroke-width:10;marker:none;visibility:visible;display:inline;overflow:visible;enable-background:accumulate" />
    <path
       d="M 64.84375,12 C 52.04965,12.061835 23.919395,15.969338 20.9375,18.75 17.267475,22.172353 9.2542485,63.452033 11.375,68 13.495751,72.547967 50.269278,92.955306 55.25,92.34375 60.230722,91.732194 91.011246,63.050929 91.96875,58.125 92.926254,53.199071 75.138952,15.057836 70.75,12.625 69.927072,12.168843 67.796235,11.98573 64.84375,12 z m -0.6875,1.875 c 2.804792,-0.01356 4.811987,0.160412 5.59375,0.59375 1.235682,0.68495 3.604637,4.373545 6.28125,9.3125 L 70.3125,29.5 69.46875,28.625 c -0.299032,-0.299024 -0.703497,-0.4375 -1.09375,-0.4375 -0.390253,0 -0.763468,0.138476 -1.0625,0.4375 l -2.125,2.125 c -0.970796,-0.352018 -1.979621,-0.5625 -3,-0.5625 -2.262701,0 -4.523617,0.867412 -6.25,2.59375 L 50.59375,38.125 c -1.115536,1.115506 -1.115574,2.884454 0,4 l 8.5,8.5 c 1.115574,1.115546 2.884464,1.115507 4,0 l 4.6875,-4.71875 c 0.23151,-0.188818 0.440452,-0.409208 0.65625,-0.625 2.502155,-2.50209 3.186875,-6.128507 2.0625,-9.25 l 2.09375,-2.125 c 0.598063,-0.598048 0.598063,-1.558202 0,-2.15625 L 71.75,30.90625 77.03125,25.625 c 6.180177,11.767112 13.482311,28.938156 12.875,32.0625 -0.909606,4.679518 -30.14343,31.919036 -34.875,32.5 -2.980337,0.365939 -17.951361,-7.192515 -29.125,-13.90625 L 30.9375,71.25 l 0.84375,0.875 c 0.598063,0.598048 1.589437,0.598048 2.1875,0 L 36.0625,70 c 3.127226,1.135005 6.742241,0.476444 9.25,-2.03125 L 50.65625,62.625 c 1.115533,-1.115506 1.115573,-2.884456 0,-4 l -0.4375,-0.4375 4,-4 c 0.414044,-0.414033 0.414044,-1.085967 0,-1.5 L 53.875,52.34375 c -0.414044,-0.414033 -1.054706,-0.414033 -1.46875,0 L 48.375,56.375 l -3.96875,-4 4,-4 c 0.414044,-0.414033 0.414044,-1.085967 0,-1.5 l -0.3125,-0.3125 c -0.207022,-0.207017 -0.479825,-0.3125 -0.75,-0.3125 -0.270175,0 -0.542978,0.105483 -0.75,0.3125 l -4,4 -0.4375,-0.4375 c -1.115574,-1.115543 -2.884464,-1.115507 -4,0 l -5.34375,5.34375 c -2.505194,2.505128 -3.19265,6.12501 -2.0625,9.25 l -2.09375,2.09375 c -0.598063,0.598048 -0.598063,1.558202 0,2.15625 l 0.875,0.875 -5.375,5.375 C 18.434626,71.696455 14.021089,68.546309 13.34375,67.09375 11.329085,62.773287 18.951061,23.532406 22.4375,20.28125 25.270231,17.639685 52.002152,13.933742 64.15625,13.875 z M 59,34.78125 l 7.03125,0 -2.34375,4.25 2.96875,0 -8.40625,7.75 1.9375,-5.15625 -3.53125,0 L 59,34.78125 z"
       transform="translate(0,952.36218)"
       id="path4672-8-8"
       style="color:#000000;fill:#ffffff;fill-opacity:1;fill-rule:nonzero;stroke:none;stroke-width:10;marker:none;visibility:visible;display:inline;overflow:visible;enable-background:accumulate" />
  </g>
</svg>
