<?xml version="1.0" encoding="UTF-8" standalone="no"?>
<!-- Created with Inkscape (http://www.inkscape.org/) -->

<svg
   xmlns:dc="http://purl.org/dc/elements/1.1/"
   xmlns:cc="http://creativecommons.org/ns#"
   xmlns:rdf="http://www.w3.org/1999/02/22-rdf-syntax-ns#"
   xmlns:svg="http://www.w3.org/2000/svg"
   xmlns="http://www.w3.org/2000/svg"
   version="1.1"
   width="100"
   height="100"
   id="svg2">
  <defs
     id="defs4" />
  <metadata
     id="metadata7">
    <rdf:RDF>
      <cc:Work
         rdf:about="">
        <dc:format>image/svg+xml</dc:format>
        <dc:type
           rdf:resource="http://purl.org/dc/dcmitype/StillImage" />
        <dc:title></dc:title>
        <dc:creator>
          <cc:Agent>
            <dc:title>T. Gantt</dc:title>
          </cc:Agent>
        </dc:creator>
        <cc:license
           rdf:resource="" />
      </cc:Work>
    </rdf:RDF>
  </metadata>
  <g
     transform="translate(0,-952.36218)"
     id="layer1">
    <path
       d="m 50.000001,0 c 5.877853,1.5749647e-7 45.736469,28.958982 47.552825,34.549152 1.816356,5.59017 -13.408282,52.446784 -18.163564,55.901699 -4.755283,3.454914 -54.023243,3.454913 -58.778526,-2e-6 C 15.855454,86.995934 0.63081813,40.139319 2.4471746,34.549149 4.2635311,28.958979 44.122149,-1.5749643e-7 50.000001,0 z"
       transform="matrix(0.38035643,-0.81567702,0.81567702,0.38035643,-9.8016709,1024.1282)"
       id="path4672"
       style="color:#000000;fill:#000000;fill-opacity:1;fill-rule:nonzero;stroke:none;stroke-width:10;marker:none;visibility:visible;display:inline;overflow:visible;enable-background:accumulate" />
    <path
       d="M 54.6875,7.65625 C 47.99948,8.3006423 13.429478,27.594157 11.375,32 c -2.1207518,4.547967 5.892475,45.827646 9.5625,49.25 3.670025,3.422354 45.423548,8.557836 49.8125,6.125 4.388952,-2.432836 22.176253,-40.574071 21.21875,-45.5 C 91.011247,36.949071 60.230722,8.2678058 55.25,7.65625 c -0.155648,-0.019111 -0.346757,-0.020787 -0.5625,0 z M 54.53125,9.8125 c 0.20495,-0.019747 0.352138,-0.018155 0.5,0 4.73157,0.580964 33.965394,27.820482 34.875,32.5 C 90.815856,46.992018 73.919402,83.220113 69.75,85.53125 65.580598,87.842387 25.923938,82.969907 22.4375,79.71875 18.951062,76.467593 11.329085,37.226713 13.34375,32.90625 15.295457,28.720802 48.177786,10.424658 54.53125,9.8125 z m -29.125,20.65625 c -1.122242,0 -2.03125,0.94026 -2.03125,2.0625 l 0,5.65625 0,29.28125 c 0,1.1223 0.909008,2.0625 2.03125,2.0625 l 47.40625,0 c 1.122242,0 2.0625,-0.9402 2.0625,-2.0625 l 0,-29.28125 0,-5.65625 c 0,-1.12224 -0.940258,-2.0625 -2.0625,-2.0625 l -47.40625,0 z m -0.03125,2 c 0.0017,-0.0095 0.0068,0 0.03125,0 l 29.34375,0 0,3.65625 -29.34375,0 c -0.01073,0 -0.02056,-1.71e-4 -0.03125,0 l 0,-3.59375 c 0,-0.0244 -0.0017,-0.05298 0,-0.0625 z m 31.375,0 4,0 0,3.65625 -4,0 0,-3.65625 z m 6,0 4,0 0,3.65625 -4,0 0,-3.65625 z m 6,0 4.0625,0 c 0.04884,0 0.0625,0.0137 0.0625,0.0625 l 0,3.59375 c -0.02132,-6.82e-4 -0.04104,0 -0.0625,0 l -4.0625,0 0,-3.65625 z M 25.375,38.125 c 0.0017,-0.0095 0.0068,0 0.03125,0 l 47.40625,0 c 0.02442,0 0.05298,-0.0095 0.0625,0 l 0,0.0625 0,29.28125 c 0,0.049 -0.01366,0.0625 -0.0625,0.0625 l -47.40625,0 c -0.04884,0 -0.03125,-0.0145 -0.03125,-0.0625 l 0,-29.34375 z m 22.875,3.21875 c -0.585539,0 -1.0625,0.476961 -1.0625,1.0625 l 0,5 c -1.16611,0.05427 -2.081697,0.153597 -2.21875,0.3125 -0.416285,0.482654 3.323679,4.8125 4.15625,4.8125 0.832571,0 4.572535,-4.329846 4.15625,-4.8125 -0.137506,-0.159429 -1.078303,-0.258395 -2.25,-0.3125 l 0,-5 c 0,-0.585539 -0.445711,-1.0625 -1.03125,-1.0625 l -1.75,0 z m -4,8.09375 c -1.418298,0.293508 -2.5,1.56275 -2.5,3.0625 l 0,8.5 c 0,1.7139 1.411047,3.125 3.125,3.125 l 8.5,0 c 1.713953,0 3.125,-1.4111 3.125,-3.125 l 0,-8.5 c 0,-1.531569 -1.131057,-2.805324 -2.59375,-3.0625 -0.347376,0.532572 -0.788899,1.113044 -1.28125,1.6875 -0.07224,0.08427 -0.145306,0.166894 -0.21875,0.25 l 0.96875,0 c 0.640547,0 1.125,0.4844 1.125,1.125 l 0,2.75 -10.75,0 0,-2.75 c 0,-0.6406 0.484453,-1.125 1.125,-1.125 l 0.96875,0 c -0.07367,-0.08311 -0.145869,-0.165769 -0.21875,-0.25 -0.49672,-0.574172 -0.959763,-1.155204 -1.3125,-1.6875 -0.02019,0.0038 -0.04244,-0.0042 -0.0625,0 z"
       transform="translate(0,952.36218)"
       id="path4672-8-8"
       style="color:#000000;fill:#ffffff;fill-opacity:1;fill-rule:nonzero;stroke:none;stroke-width:10;marker:none;visibility:visible;display:inline;overflow:visible;enable-background:accumulate" />
  </g>
</svg>
