<?xml version="1.0" encoding="UTF-8" standalone="no"?>
<!-- Created with Inkscape (http://www.inkscape.org/) -->

<svg
   xmlns:dc="http://purl.org/dc/elements/1.1/"
   xmlns:cc="http://creativecommons.org/ns#"
   xmlns:rdf="http://www.w3.org/1999/02/22-rdf-syntax-ns#"
   xmlns:svg="http://www.w3.org/2000/svg"
   xmlns="http://www.w3.org/2000/svg"
   version="1.1"
   width="100"
   height="100"
   id="svg2">
  <defs
     id="defs4" />
  <metadata
     id="metadata7">
    <rdf:RDF>
      <cc:Work
         rdf:about="">
        <dc:format>image/svg+xml</dc:format>
        <dc:type
           rdf:resource="http://purl.org/dc/dcmitype/StillImage" />
        <dc:title></dc:title>
        <dc:creator>
          <cc:Agent>
            <dc:title>T. Gantt</dc:title>
          </cc:Agent>
        </dc:creator>
        <cc:license
           rdf:resource="" />
      </cc:Work>
    </rdf:RDF>
  </metadata>
  <g
     transform="translate(0,-952.36218)"
     id="layer1">
    <path
       d="m 50.000001,0 c 5.877853,1.5749647e-7 45.736469,28.958982 47.552825,34.549152 1.816356,5.59017 -13.408282,52.446784 -18.163564,55.901699 -4.755283,3.454914 -54.023243,3.454913 -58.778526,-2e-6 C 15.855454,86.995934 0.63081813,40.139319 2.4471746,34.549149 4.2635311,28.958979 44.122149,-1.5749643e-7 50.000001,0 z"
       transform="matrix(0.86933325,-0.23293714,0.23293714,0.86933325,-5.1135191,970.54238)"
       id="path4672"
       style="color:#000000;fill:#000000;fill-opacity:1;fill-rule:nonzero;stroke:none;stroke-width:10;marker:none;visibility:visible;display:inline;overflow:visible;enable-background:accumulate" />
    <path
       d="m 39.53125,8.75 c -0.216536,0.00944 -0.411027,0.021913 -0.5625,0.0625 -4.847137,1.298786 -31.3311214,33.988751 -31.59375,39 -0.2626286,5.011249 22.658926,40.295414 27.34375,42.09375 4.684824,1.798336 45.310741,-9.100184 48.46875,-13 3.158009,-3.899816 5.358067,-45.885195 2.625,-50.09375 C 83.164841,22.735463 46.243865,8.457329 39.53125,8.75 z m 0.53125,2.125 c 6.376828,-0.278031 41.453536,13.283159 43.96875,17.15625 1.989545,3.063631 1.222843,27.154251 -0.59375,39.9375 C 77.363362,66.580968 71.539447,66.017042 66.15625,66 64.830647,65.9958 63.519494,66.03741 62.25,66.09375 45.323411,66.844997 33.59375,72.5625 33.59375,72.5625 a 1.0001,1.0001 0 1 0 0.875,1.78125 c 0,0 1.853083,-0.901839 5.0625,-2 10.08077,2.267189 26.758673,1.525427 37.21875,-3.5625 2.082738,0.295826 4.217,0.718247 6.375,1.21875 -0.481449,2.85527 -1.019506,4.915868 -1.59375,5.625 C 78.531215,79.329735 39.950474,89.677127 35.5,87.96875 33.28539,87.118641 26.78779,78.385911 20.84375,69.25 c 1.215396,-0.182682 2.470398,-0.342394 3.78125,-0.46875 2.312072,0.577273 6.142243,1.440044 10.25,1.84375 0.987448,-0.409278 2.397848,-0.934764 4.1875,-1.53125 0.02054,0.0031 0.04195,-0.0031 0.0625,0 1.221452,-0.407992 2.542155,-0.824072 4.09375,-1.25 -4.320925,-0.97084 -8.553921,-1.367862 -12.53125,-1.375 -4.001627,-0.0071 -7.711444,0.391 -11.03125,0.9375 C 14.14898,58.779653 9.4143011,50.231517 9.53125,48 c 0.249491,-4.76057 25.395332,-35.828683 30,-37.0625 0.143896,-0.03856 0.325546,-0.05353 0.53125,-0.0625 z m 13.71875,13.59375 c -1.525479,0.07833 -2.6875,1.75 -2.6875,1.75 0,0 -1.399516,-1.64618 -2.75,-1.65625 -2.935833,-0.02188 -5.75,3.125 -5.75,3.125 0,0 3.241923,-1.437608 5.03125,-1.21875 1.789326,0.218857 2.294416,2.08495 3.46875,2.09375 1.4092,0.0105 1.281021,-1.906687 3.25,-2.15625 1.968978,-0.249563 5.625,1.15625 5.625,1.15625 0,0 -3.005686,-3.257126 -6.1875,-3.09375 z m 12.75,7.625 c -2.959719,0.114339 -5.71875,2.875 -5.71875,2.875 0,0 3.697864,-1.259812 5.65625,-0.9375 1.958386,0.322307 1.935129,2.239559 3.34375,2.28125 1.173852,0.03479 1.672545,-1.816309 3.46875,-1.96875 1.796206,-0.152442 4.90625,1.375 4.90625,1.375 0,0 -2.62787,-3.256892 -5.5625,-3.34375 -1.349929,-0.04 -2.75,1.5625 -2.75,1.5625 0,0 -1.228467,-1.70898 -2.75,-1.84375 -0.198349,-0.01757 -0.396435,-0.0076 -0.59375,0 z M 49.875,36.21875 A 1.0001,1.0001 0 0 0 49,37.25 l 0,3.5 a 1.0001,1.0001 0 1 0 2,0 l 0,-3.5 a 1.0001,1.0001 0 0 0 -1.125,-1.03125 z m -17.5,0.90625 c -0.197158,-0.01095 -0.395133,0.01703 -0.59375,0.03125 -1.523587,0.109106 -2.8125,1.78125 -2.8125,1.78125 0,0 -1.368338,-1.61095 -2.71875,-1.59375 -2.935677,0.03739 -5.59375,3.21875 -5.59375,3.21875 0,0 3.144119,-1.463942 4.9375,-1.28125 1.79338,0.182693 2.231978,2.01496 3.40625,2 1.409125,-0.01794 1.41146,-1.929492 3.375,-2.21875 1.963539,-0.28926 5.65625,1.0625 5.65625,1.0625 0,0 -2.698878,-2.835796 -5.65625,-3 z m 9.46875,0.6875 A 1.0001,1.0001 0 0 0 41.125,39.21875 l 1.34375,3.25 A 1.00122,1.00122 0 1 0 44.3125,41.6875 l -1.34375,-3.25 a 1.0001,1.0001 0 0 0 -1.03125,-0.625 1.0001,1.0001 0 0 0 -0.09375,0 z m 15.96875,0 a 1.0001,1.0001 0 0 0 -0.78125,0.625 l -1.34375,3.25 a 1.00122,1.00122 0 1 0 1.84375,0.78125 l 1.34375,-3.25 A 1.0001,1.0001 0 0 0 57.8125,37.8125 z m -22.6875,4.5 a 1.0001,1.0001 0 0 0 -0.5,1.71875 l 2.46875,2.5 a 1.016466,1.016466 0 1 0 1.4375,-1.4375 l -2.5,-2.46875 a 1.0001,1.0001 0 0 0 -0.8125,-0.3125 1.0001,1.0001 0 0 0 -0.09375,0 z m 29.4375,0 a 1.0001,1.0001 0 0 0 -0.59375,0.3125 l -2.5,2.46875 a 1.016466,1.016466 0 1 0 1.4375,1.4375 l 2.46875,-2.5 A 1.0001,1.0001 0 0 0 64.5625,42.3125 z M 50,42.875 c -8.346857,0 -15.125,6.778143 -15.125,15.125 0,2.759991 0.761723,5.337341 2.0625,7.5625 2.872633,0.298536 5.825627,0.815261 8.8125,1.625 4.544284,-1.097174 10.126112,-2.063634 16.4375,-2.34375 0.416046,-0.01847 0.858982,-0.01885 1.28125,-0.03125 C 64.520158,62.769207 65.125,60.454505 65.125,58 65.125,49.653143 58.346857,42.875 50,42.875 z m -19.25,6.15625 a 1.0001,1.0001 0 0 0 -0.125,0.03125 1.0001,1.0001 0 0 0 -0.1875,1.90625 l 3.25,1.34375 a 1.00122,1.00122 0 1 0 0.78125,-1.84375 l -3.25,-1.34375 a 1.0001,1.0001 0 0 0 -0.375,-0.09375 1.0001,1.0001 0 0 0 -0.09375,0 z m 38.34375,0 a 1.0001,1.0001 0 0 0 -0.125,0.03125 1.0001,1.0001 0 0 0 -0.1875,0.0625 l -3.25,1.34375 a 1.00122,1.00122 0 1 0 0.78125,1.84375 l 3.25,-1.34375 a 1.0001,1.0001 0 0 0 -0.46875,-1.9375 z M 29.03125,57 A 1.0059637,1.0059637 0 1 0 29.25,59 l 3.5,0 a 1.0001,1.0001 0 1 0 0,-2 l -3.5,0 a 1.0001,1.0001 0 0 0 -0.125,0 1.0019512,1.0019512 0 0 0 -0.09375,0 z m 38,0 A 1.0059637,1.0059637 0 1 0 67.25,59 l 3.5,0 a 1.0001,1.0001 0 1 0 0,-2 l -3.5,0 a 1.0001,1.0001 0 0 0 -0.125,0 1.0019512,1.0019512 0 0 0 -0.09375,0 z m -32.8125,6.53125 a 1.0051139,1.0051139 0 0 0 -0.15625,0.03125 1.0045064,1.0045064 0 0 0 -0.125,0.03125 1.0001,1.0001 0 0 0 -0.25,0.09375 l -3.25,1.34375 a 1.00122,1.00122 0 0 0 -0.3125,0.1875 c 0.188636,-0.0013 0.37271,-3.41e-4 0.5625,0 1.353176,0.0024 2.74857,0.06013 4.15625,0.15625 a 1.0051139,1.0051139 0 0 0 -0.625,-1.84375 z m 31.5,0.0625 a 1.0001,1.0001 0 0 0 -0.84375,1.1875 c 1.374743,-0.01727 2.755312,-0.02389 4.1875,0.03125 l -2.75,-1.125 a 1.0001,1.0001 0 0 0 -0.5,-0.09375 1.0001,1.0001 0 0 0 -0.09375,0 z"
       transform="translate(0,952.36218)"
       id="path4672-8-8"
       style="color:#000000;fill:#ffffff;fill-opacity:1;fill-rule:nonzero;stroke:none;stroke-width:10;marker:none;visibility:visible;display:inline;overflow:visible;enable-background:accumulate" />
  </g>
</svg>
