<?xml version="1.0" encoding="UTF-8" standalone="no"?>
<!-- Created with Inkscape (http://www.inkscape.org/) -->

<svg
   xmlns:dc="http://purl.org/dc/elements/1.1/"
   xmlns:cc="http://creativecommons.org/ns#"
   xmlns:rdf="http://www.w3.org/1999/02/22-rdf-syntax-ns#"
   xmlns:svg="http://www.w3.org/2000/svg"
   xmlns="http://www.w3.org/2000/svg"
   version="1.1"
   width="100"
   height="100"
   id="svg2">
  <defs
     id="defs4" />
  <metadata
     id="metadata7">
    <rdf:RDF>
      <cc:Work
         rdf:about="">
        <dc:format>image/svg+xml</dc:format>
        <dc:type
           rdf:resource="http://purl.org/dc/dcmitype/StillImage" />
        <dc:title></dc:title>
        <dc:creator>
          <cc:Agent>
            <dc:title>T. Gantt</dc:title>
          </cc:Agent>
        </dc:creator>
        <cc:license
           rdf:resource="" />
      </cc:Work>
    </rdf:RDF>
  </metadata>
  <g
     transform="translate(0,-952.36218)"
     id="layer1">
    <path
       d="m 50.000001,0 c 5.877853,1.5749647e-7 45.736469,28.958982 47.552825,34.549152 1.816356,5.59017 -13.408282,52.446784 -18.163564,55.901699 -4.755283,3.454914 -54.023243,3.454913 -58.778526,-2e-6 C 15.855454,86.995934 0.63081813,40.139319 2.4471746,34.549149 4.2635311,28.958979 44.122149,-1.5749643e-7 50.000001,0 z"
       transform="matrix(0.86933325,-0.23293714,0.23293714,0.86933325,-5.4153117,970.5821)"
       id="path4672"
       style="color:#000000;fill:#000000;fill-opacity:1;fill-rule:nonzero;stroke:none;stroke-width:10;marker:none;visibility:visible;display:inline;overflow:visible;enable-background:accumulate" />
    <path
       d="M 39.21875,8.78125 C 39.002214,8.79069 38.807723,8.834413 38.65625,8.875 33.809113,10.173786 7.3563786,42.863751 7.09375,47.875 6.8311214,52.886249 29.721426,88.139164 34.40625,89.9375 39.091074,91.735836 79.716991,80.868566 82.875,76.96875 86.033009,73.068934 88.233067,31.052305 85.5,26.84375 82.852341,22.766713 45.931365,8.488579 39.21875,8.78125 z m 0.53125,2.125 c 6.376828,-0.278031 41.484786,13.283159 44,17.15625 2.59635,3.998029 0.500035,43.889015 -2.5,47.59375 C 78.249965,79.360985 39.637974,89.708377 35.1875,88 30.737026,86.291623 8.969259,52.79182 9.21875,48.03125 c 0.249491,-4.76057 25.395332,-35.828683 30,-37.0625 0.143896,-0.03856 0.325546,-0.05353 0.53125,-0.0625 z M 33.78125,27.0625 c -1.284631,0 -2.551109,0.488609 -3.53125,1.46875 -1.960281,1.960281 -1.960281,5.133469 0,7.09375 0.10125,0.10125 0.205112,0.190459 0.3125,0.28125 -1.965476,2.47509 -1.79008,6.08492 0.5,8.375 2.464762,2.464762 6.441488,2.464762 8.90625,0 0.612811,-0.612811 1.066486,-1.312844 1.375,-2.0625 l 2.1875,2.1875 -0.21875,0.1875 c -0.197367,0.197367 -0.197367,0.521383 0,0.71875 l 1.3125,1.28125 c 0.197367,0.197367 0.490133,0.197367 0.6875,0 l 0.21875,-0.1875 0.53125,0.53125 -0.21875,0.1875 c -0.197367,0.197367 -0.197367,0.521383 0,0.71875 L 46.25,48.25 c 0.197367,0.197367 0.521383,0.197367 0.71875,0 l 0.21875,-0.1875 7.65625,7.65625 -0.21875,0.1875 c -0.197367,0.197367 -0.197367,0.521383 0,0.71875 l 0.4375,0.40625 c 0.197367,0.197367 0.490133,0.197367 0.6875,0 L 55.96875,56.84375 56.5,57.375 56.28125,57.5625 c -0.197367,0.197367 -0.197367,0.521383 0,0.71875 l 1.3125,1.28125 c 0.197367,0.197367 0.490133,0.197367 0.6875,0 L 58.5,59.375 60.125,61 59.9375,61.21875 c -0.455419,0.455419 -0.455419,1.169581 0,1.625 l 0.75,0.78125 -0.78125,0.78125 -0.5,-0.5 -0.25,-0.28125 c -0.455419,-0.455419 -1.200831,-0.455419 -1.65625,0 l -0.125,0.125 c -0.235485,0.235485 -0.351791,0.567763 -0.34375,0.875 l -1.25,1.25 c -0.307237,-0.008 -0.608265,0.108265 -0.84375,0.34375 l -0.5625,0.5625 c -0.455419,0.455419 -0.455419,1.200831 0,1.65625 l 0.25,0.25 0.9375,0.9375 2.96875,2.96875 c 0.455419,0.455419 1.200831,0.455419 1.65625,0 l 0.5625,-0.5625 c 0.455419,-0.455419 0.455419,-1.200831 0,-1.65625 l -2.15625,-2.15625 0.8125,-0.8125 2.15625,2.15625 c 0.455419,0.455419 1.169581,0.455419 1.625,0 l 0.125,-0.125 c 0.455419,-0.455419 0.455419,-1.169581 0,-1.625 l -0.75,-0.75 0.78125,-0.78125 0.75,0.75 c 0.455419,0.455419 1.200831,0.455419 1.65625,0 l 0.1875,-0.21875 2.375,2.375 c 0.455419,0.455419 1.169581,0.455419 1.625,0 l 0.9375,-0.96875 c 0.455419,-0.455419 0.455419,-1.169581 0,-1.625 l -9.8125,-9.8125 0.21875,-0.1875 c 0.197367,-0.197367 0.197367,-0.521383 0,-0.71875 L 60,54.5625 c -0.197367,-0.197367 -0.521383,-0.197367 -0.71875,0 L 59.0625,54.78125 58.53125,54.25 58.75,54.0625 c 0.197367,-0.197367 0.197367,-0.521383 0,-0.71875 L 58.34375,52.9375 c -0.197367,-0.197367 -0.521383,-0.197367 -0.71875,0 L 57.40625,53.125 49.75,45.46875 l 0.21875,-0.1875 c 0.197367,-0.197367 0.197367,-0.521383 0,-0.71875 L 49.5625,44.15625 c -0.197367,-0.197367 -0.521383,-0.197367 -0.71875,0 L 48.625,44.34375 48.09375,43.8125 48.3125,43.625 c 0.197367,-0.197367 0.197367,-0.521383 0,-0.71875 L 47.03125,41.625 c -0.197367,-0.197367 -0.521383,-0.197367 -0.71875,0 l -0.21875,0.1875 -2.15625,-2.15625 c 0.746257,-0.308289 1.455382,-0.767882 2.0625,-1.375 2.464762,-2.464762 2.464762,-6.472738 0,-8.9375 C 44.767619,28.111369 43.146483,27.5 41.53125,27.5 c -1.386284,0 -2.767296,0.43698 -3.90625,1.34375 -0.09079,-0.107388 -0.18,-0.21125 -0.28125,-0.3125 -0.980141,-0.980141 -2.277869,-1.46875 -3.5625,-1.46875 z m 0,2.28125 c 0.699374,0 1.403896,0.278896 1.9375,0.8125 0.150942,0.150942 0.266755,0.325928 0.375,0.5 0.07763,0.124587 0.160647,0.24549 0.21875,0.375 0.0036,0.0085 -0.0035,0.02269 0,0.03125 0.05257,0.120878 0.09366,0.24612 0.125,0.375 0.217898,0.89912 -0.01899,1.893988 -0.71875,2.59375 -0.699762,0.699762 -1.672632,0.936648 -2.5625,0.71875 -0.129396,-0.03146 -0.247113,-0.07258 -0.375,-0.125 -0.0085,-0.0035 -0.02279,0.0036 -0.03125,0 -0.137079,-0.05795 -0.281244,-0.140632 -0.40625,-0.21875 -0.164249,-0.105148 -0.324732,-0.230982 -0.46875,-0.375 -1.067209,-1.067209 -1.067209,-2.807791 0,-3.875 0.533604,-0.533604 1.206876,-0.8125 1.90625,-0.8125 z m 7.75,0.8125 c 0.930374,0 1.883899,0.352649 2.59375,1.0625 1.419703,1.419703 1.419703,3.736547 0,5.15625 -0.552195,0.552195 -1.2488,0.880209 -1.96875,1 -0.115735,-0.334239 -0.295589,-0.639339 -0.5625,-0.90625 -0.942497,-0.942497 -2.463753,-0.942497 -3.40625,0 -0.942497,0.942497 -0.942497,2.463753 0,3.40625 0.268967,0.268967 0.569121,0.447047 0.90625,0.5625 -0.119687,0.719776 -0.447371,1.416121 -1,1.96875 -1.419703,1.419703 -3.736547,1.419703 -5.15625,0 -1.419703,-1.419703 -1.419703,-3.736547 0,-5.15625 0.08049,-0.08049 0.163358,-0.15119 0.25,-0.21875 1.481259,0.18365 3.017973,-0.267973 4.15625,-1.40625 1.127323,-1.127323 1.575535,-2.65678 1.40625,-4.125 0.06734,-0.09766 0.135203,-0.197703 0.21875,-0.28125 0.709851,-0.709851 1.632126,-1.0625 2.5625,-1.0625 z"
       transform="translate(0,952.36218)"
       id="path4672-8-8"
       style="color:#000000;fill:#ffffff;fill-opacity:1;fill-rule:nonzero;stroke:none;stroke-width:10;marker:none;visibility:visible;display:inline;overflow:visible;enable-background:accumulate" />
  </g>
</svg>
