<?xml version="1.0" encoding="UTF-8" standalone="no"?>
<!-- Created with Inkscape (http://www.inkscape.org/) -->

<svg
   xmlns:dc="http://purl.org/dc/elements/1.1/"
   xmlns:cc="http://creativecommons.org/ns#"
   xmlns:rdf="http://www.w3.org/1999/02/22-rdf-syntax-ns#"
   xmlns:svg="http://www.w3.org/2000/svg"
   xmlns="http://www.w3.org/2000/svg"
   version="1.1"
   width="100"
   height="100"
   id="svg2">
  <defs
     id="defs4" />
  <metadata
     id="metadata7">
    <rdf:RDF>
      <cc:Work
         rdf:about="">
        <dc:format>image/svg+xml</dc:format>
        <dc:type
           rdf:resource="http://purl.org/dc/dcmitype/StillImage" />
        <dc:title></dc:title>
        <dc:creator>
          <cc:Agent>
            <dc:title>T. Gantt</dc:title>
          </cc:Agent>
        </dc:creator>
        <cc:license
           rdf:resource="" />
      </cc:Work>
    </rdf:RDF>
  </metadata>
  <g
     transform="translate(0,-952.36218)"
     id="layer1">
    <path
       d="m 50.000001,0 c 5.877853,1.5749647e-7 45.736469,28.958982 47.552825,34.549152 1.816356,5.59017 -13.408282,52.446784 -18.163564,55.901699 -4.755283,3.454914 -54.023243,3.454913 -58.778526,-2e-6 C 15.855454,86.995934 0.63081813,40.139319 2.4471746,34.549149 4.2635311,28.958979 44.122149,-1.5749643e-7 50.000001,0 z"
       transform="matrix(0.45,-0.77942288,0.77942288,0.45,-11.471142,1018.8333)"
       id="path4672"
       style="color:#000000;fill:#000000;fill-opacity:1;fill-rule:nonzero;stroke:none;stroke-width:10;marker:none;visibility:visible;display:inline;overflow:visible;enable-background:accumulate" />
    <path
       d="M 58.375,8.21875 C 51.656267,8.277791 15.524405,24.477483 13.09375,28.6875 c -2.509063,4.345824 1.892218,46.177056 5.25,49.90625 3.357782,3.729194 44.478214,12.478556 49.0625,10.4375 C 71.990536,86.990194 93.024537,50.553136 92.5,45.5625 91.975463,40.571864 63.845968,9.3245772 58.9375,8.28125 58.78411,8.248646 58.591733,8.2168455 58.375,8.21875 z M 58,10.34375 c 0.205892,-0.0018 0.385533,0.03153 0.53125,0.0625 4.66293,0.991137 31.407952,30.665262 31.90625,35.40625 0.498298,4.740988 -19.488785,39.342295 -23.84375,41.28125 -4.354965,1.938955 -43.435186,-6.363602 -46.625,-9.90625 -3.189814,-3.542648 -7.383552,-43.277818 -5,-47.40625 C 17.277816,25.781831 51.61736,10.399837 58,10.34375 z M 34.78125,35.5 c -0.767376,0 -1.375,0.638874 -1.375,1.40625 l 0,21.09375 c 0,0.767376 0.607624,1.375 1.375,1.375 l 26.46875,0 c 0.767376,0 1.375,-0.607624 1.375,-1.375 l 0,-21.09375 C 62.625,36.138874 62.017376,35.5 61.25,35.5 l -26.46875,0 z m 13.25,2.46875 c 5.225052,0 9.4375,4.243698 9.4375,9.46875 0,5.225052 -4.212448,9.46875 -9.4375,9.46875 -5.225052,0 -9.46875,-4.243698 -9.46875,-9.46875 0,-5.225052 4.243698,-9.46875 9.46875,-9.46875 z m 0,1.40625 c -4.454143,0 -8.09375,3.608357 -8.09375,8.0625 0,4.454143 3.639607,8.0625 8.09375,8.0625 4.454143,0 8.0625,-3.608357 8.0625,-8.0625 0,-4.454143 -3.608357,-8.0625 -8.0625,-8.0625 z m -22.625,3.0625 a 1.0098393,1.0098393 0 1 0 0.28125,2 l 5.5625,0 a 1.0001,1.0001 0 1 0 0,-2 l -5.5625,0 a 1.0001,1.0001 0 0 0 -0.09375,0 1.001098,1.001098 0 0 0 -0.09375,0 1.0043849,1.0043849 0 0 0 -0.09375,0 z m 19,0.03125 a 0.76034532,0.76034532 0 0 1 0.03125,0 0.7579333,0.7579333 0 0 1 0.03125,0 0.75583666,0.75583666 0 0 1 0.03125,0 0.75259966,0.75259966 0 0 1 0.0625,0 0.75065076,0.75065076 0 0 1 0.0625,0 0.750075,0.750075 0 0 1 0.0625,0 l 6.65625,0 a 0.750075,0.750075 0 0 1 0.59375,1.21875 l -2.375,3 1.25,0 a 0.750075,0.750075 0 1 1 0,1.5 l -2.4375,0 -2.125,2.6875 5.09375,0 a 0.750075,0.750075 0 1 1 0,1.5 l -6.65625,0 a 0.750075,0.750075 0 0 1 -0.59375,-1.21875 l 2.34375,-2.96875 -1.21875,0 a 0.75405803,0.75405803 0 0 1 -0.15625,-1.5 0.750075,0.750075 0 0 1 0.15625,0 l 2.40625,0 2.15625,-2.71875 -5.09375,0 a 0.76306972,0.76306972 0 0 1 -0.28125,-1.5 z m 20.71875,3.0625 c -0.632329,0.128738 -1.09375,0.703546 -1.09375,1.375 l 0,11.09375 c 0,0.767377 0.607624,1.375 1.375,1.375 l 1.40625,0 c 2.338663,0 3.71875,2 3.71875,2 l 4.5625,0 C 75.997844,61.375 76.5,60.767377 76.5,60 c 0,0 0.318295,-5.743261 0,-7.5625 -0.338397,-1.934135 -2,-5.53125 -2,-5.53125 -0.260545,-0.721791 -0.638874,-1.375 -1.40625,-1.375 l -7.6875,0 c -0.09592,0 -0.190917,-0.01839 -0.28125,0 z M 19.40625,46.4375 a 1.0098393,1.0098393 0 1 0 0.28125,2 l 11.5625,0 a 1.0001,1.0001 0 1 0 0,-2 l -11.5625,0 a 1.0001,1.0001 0 0 0 -0.09375,0 1.001108,1.001108 0 0 0 -0.09375,0 1.0043849,1.0043849 0 0 0 -0.09375,0 z m 47.65625,0.6875 4.71875,0 c 0.767376,0 1.149057,0.652008 1.40625,1.375 l 1.40625,3.96875 c 0.257193,0.722993 -0.609536,1.4604 -1.375,1.40625 L 67.0625,53.4375 c -0.765463,-0.05415 -1.375,-0.638874 -1.375,-1.40625 l 0,-3.53125 c 0,-0.767376 0.607624,-1.375 1.375,-1.375 z m -43.65625,3.3125 a 1.0098393,1.0098393 0 1 0 0.28125,2 l 7.5625,0 a 1.0001,1.0001 0 1 0 0,-2 l -7.5625,0 a 1.0001,1.0001 0 0 0 -0.09375,0 1.001098,1.001098 0 0 0 -0.09375,0 1.0043849,1.0043849 0 0 0 -0.09375,0 z m 20.0625,10.25 c -2.02794,0 -3.6875,1.6596 -3.6875,3.6875 0,2.028 1.65956,3.6875 3.6875,3.6875 2.027941,0 3.6875,-1.6595 3.6875,-3.6875 0,-2.0279 -1.659559,-3.6875 -3.6875,-3.6875 z m 22.625,0 c -2.02794,0 -3.6875,1.6596 -3.6875,3.6875 0,2.028 1.65956,3.6875 3.6875,3.6875 2.027941,0 3.6875,-1.6595 3.6875,-3.6875 0,-2.0279 -1.659559,-3.6875 -3.6875,-3.6875 z m -22.625,2 c 0.947061,0 1.71875,0.7405 1.71875,1.6875 0,0.9471 -0.771689,1.6875 -1.71875,1.6875 -0.94706,0 -1.6875,-0.7404 -1.6875,-1.6875 0,-0.947 0.74044,-1.6875 1.6875,-1.6875 z m 22.625,0 c 0.947061,0 1.71875,0.7405 1.71875,1.6875 0,0.9471 -0.771689,1.6875 -1.71875,1.6875 -0.94706,0 -1.6875,-0.7404 -1.6875,-1.6875 0,-0.947 0.74044,-1.6875 1.6875,-1.6875 z"
       transform="translate(0,952.36218)"
       id="path4672-8-8"
       style="color:#000000;fill:#ffffff;fill-opacity:1;fill-rule:nonzero;stroke:none;stroke-width:10;marker:none;visibility:visible;display:inline;overflow:visible;enable-background:accumulate" />
  </g>
</svg>
