<?xml version="1.0" encoding="UTF-8" standalone="no"?>
<!-- Created with Inkscape (http://www.inkscape.org/) -->

<svg
   xmlns:dc="http://purl.org/dc/elements/1.1/"
   xmlns:cc="http://creativecommons.org/ns#"
   xmlns:rdf="http://www.w3.org/1999/02/22-rdf-syntax-ns#"
   xmlns:svg="http://www.w3.org/2000/svg"
   xmlns="http://www.w3.org/2000/svg"
   version="1.1"
   width="100"
   height="100"
   id="svg2">
  <defs
     id="defs4" />
  <metadata
     id="metadata7">
    <rdf:RDF>
      <cc:Work
         rdf:about="">
        <dc:format>image/svg+xml</dc:format>
        <dc:type
           rdf:resource="http://purl.org/dc/dcmitype/StillImage" />
        <dc:title></dc:title>
        <dc:creator>
          <cc:Agent>
            <dc:title>T. Gantt</dc:title>
          </cc:Agent>
        </dc:creator>
        <cc:license
           rdf:resource="" />
      </cc:Work>
    </rdf:RDF>
  </metadata>
  <g
     transform="translate(0,-952.36218)"
     id="layer1"
     style="display:inline">
    <path
       d="m 50.000001,0 c 5.877853,1.5749647e-7 45.736469,28.958982 47.552825,34.549152 1.816356,5.59017 -13.408282,52.446784 -18.163564,55.901699 -4.755283,3.454914 -54.023243,3.454913 -58.778526,-2e-6 C 15.855454,86.995934 0.63081813,40.139319 2.4471746,34.549149 4.2635311,28.958979 44.122149,-1.5749643e-7 50.000001,0 z"
       transform="matrix(0.88632698,-0.15628336,0.15628336,0.88632698,-2.1305168,965.86)"
       id="path4672"
       style="color:#000000;fill:#000000;fill-opacity:1;fill-rule:nonzero;stroke:none;stroke-width:10;marker:none;visibility:visible;display:inline;overflow:visible;enable-background:accumulate" />
    <path
       d="M 43.15625,8 C 42.939715,7.99053 42.748184,8.00402 42.59375,8.03125 37.651861,8.9026383 8.4483883,39.15571 7.75,44.125 7.0516117,49.09429 26.802238,86.237698 31.3125,88.4375 35.822762,90.637302 77.232867,83.328488 80.71875,79.71875 84.204633,76.109012 90.043367,34.461992 87.6875,30.03125 85.405254,25.738968 49.868829,8.2934856 43.15625,8 z M 43.5,10.15625 c 6.376794,0.278804 40.144419,16.828682 42.3125,20.90625 2.238019,4.209102 -3.313492,43.789583 -6.625,47.21875 C 75.875992,81.710417 36.534644,88.652261 32.25,86.5625 27.965356,84.472739 9.2115474,49.18946 9.875,44.46875 10.538453,39.74804 38.27407,11.015299 42.96875,10.1875 43.115459,10.161631 43.294297,10.147256 43.5,10.15625 z m 5.75,16 c -3.491261,0 -6.752371,1.191154 -9.5,3.1875 -0.865612,-0.785878 -1.654713,-1.379899 -1.90625,-1.3125 -0.670767,0.179731 -2.272285,6.227715 -1.78125,6.71875 0.491035,0.491035 6.507769,-1.141733 6.6875,-1.8125 0.06554,-0.244599 -0.465958,-0.975757 -1.21875,-1.8125 2.287013,-1.571568 4.915792,-2.46875 7.71875,-2.46875 3.5763,0 6.871488,1.43238 9.53125,3.90625 A 1.250125,1.250125 0 1 0 60.46875,30.75 C 57.40813,27.90328 53.50311,26.15625 49.25,26.15625 z M 29.96875,37.5625 c -0.857376,-0.006 -1.566421,0.45248 -2.0625,1 -0.496079,0.54752 -0.821751,1.198 -0.96875,1.90625 -0.146999,0.70825 -0.107516,1.49391 0.3125,2.1875 0.420016,0.69359 1.268446,1.15625 2.21875,1.15625 l 4.5625,0 0.5625,0 4.53125,0 c 1.16945,0 2.166767,-0.75321 2.46875,-1.65625 0.301983,-0.90304 0.132328,-1.8187 -0.25,-2.625 -0.382328,-0.8063 -1.01616,-1.54504 -1.96875,-1.84375 -0.95259,-0.29871 -2.111866,0.0584 -2.96875,1 L 34.3125,41 32.1875,38.6875 c -0.63288,-0.69547 -1.427436,-1.11964 -2.21875,-1.125 z m 32.375,0 c -0.857376,-0.006 -1.566421,0.45248 -2.0625,1 -0.496079,0.54752 -0.821751,1.198 -0.96875,1.90625 -0.146999,0.70825 -0.107516,1.49391 0.3125,2.1875 0.420016,0.69359 1.268446,1.15625 2.21875,1.15625 l 4.5625,0 0.5625,0 4.53125,0 c 1.16945,0 2.166767,-0.75321 2.46875,-1.65625 0.301983,-0.90304 0.132328,-1.8187 -0.25,-2.625 -0.382328,-0.8063 -1.016159,-1.54504 -1.96875,-1.84375 -0.952591,-0.29871 -2.111865,0.0584 -2.96875,1 L 66.6875,41 64.5625,38.6875 c -0.63288,-0.69547 -1.427436,-1.11964 -2.21875,-1.125 z m -32.375,2 c 0.144648,9.8e-4 0.329106,0.0406 0.71875,0.46875 a 1.0001,1.0001 0 0 0 0.03125,0 l 1.625,1.78125 -2.875,0 c -0.440311,0 -0.46837,-0.0837 -0.53125,-0.1875 -0.06288,-0.10384 -0.10469,-0.39616 -0.03125,-0.75 0.07344,-0.35384 0.276688,-0.75353 0.5,-1 0.223312,-0.24647 0.405916,-0.31356 0.5625,-0.3125 z m 8.53125,0 c 0.04842,-0.01055 0.0835,-0.0042 0.125,0 0.05534,0.0056 0.103198,0.01461 0.15625,0.03125 0.212207,0.0665 0.546202,0.35145 0.75,0.78125 0.203798,0.4298 0.258165,0.94494 0.1875,1.15625 -0.07066,0.21131 -0.05167,0.28125 -0.59375,0.28125 l -2.875,0 1.625,-1.78125 c 0.284897,-0.31307 0.479747,-0.437105 0.625,-0.46875 z m 23.84375,0 c 0.144648,9.8e-4 0.329106,0.0406 0.71875,0.46875 a 1.0001,1.0001 0 0 0 0.03125,0 l 1.625,1.78125 -2.875,0 c -0.440311,0 -0.46837,-0.0837 -0.53125,-0.1875 -0.06288,-0.10384 -0.10469,-0.39616 -0.03125,-0.75 0.07344,-0.35384 0.276688,-0.75353 0.5,-1 0.223312,-0.24647 0.405916,-0.31356 0.5625,-0.3125 z m 8.53125,0 c 0.04842,-0.01055 0.0835,-0.0042 0.125,0 0.05534,0.0056 0.103198,0.01461 0.15625,0.03125 0.212208,0.0665 0.546202,0.35145 0.75,0.78125 0.203798,0.4298 0.258165,0.94494 0.1875,1.15625 C 72.02308,41.74256 72.04207,41.8125 71.5,41.8125 l -2.875,0 1.625,-1.78125 c 0.284897,-0.31307 0.479747,-0.437105 0.625,-0.46875 z m -46.40625,5.28125 c -0.8528,0 -1.53125,0.585902 -1.53125,1.3125 l 0,2.0625 c 0,0.726598 0.67845,1.3125 1.53125,1.3125 l 6.8125,0 0,-1.25 0,-2.1875 0,-1.25 -6.8125,0 z m 8.0625,0 0,16.34375 3.53125,0 0,-16.34375 -3.53125,0 z m 4.78125,0 0,1.25 0,2.1875 0,1.25 6.8125,0 c 0.8528,0 1.5625,-0.585902 1.5625,-1.3125 l 0,-2.0625 c 0,-0.726598 -0.7097,-1.3125 -1.5625,-1.3125 l -6.8125,0 z m 19.53125,0 c -0.8528,0 -1.53125,0.585902 -1.53125,1.3125 l 0,2.0625 c 0,0.726598 0.67845,1.3125 1.53125,1.3125 l 6.8125,0 0,-1.25 0,-2.1875 0,-1.25 -6.8125,0 z m 8.0625,0 0,16.34375 3.53125,0 0,-16.34375 -3.53125,0 z m 4.78125,0 0,4.6875 6.8125,0 c 0.8528,0 1.5625,-0.585902 1.5625,-1.3125 l 0,-2.0625 c 0,-0.726598 -0.7097,-1.3125 -1.5625,-1.3125 l -6.8125,0 z m -44.96875,5.9375 0,9.09375 c 0,0.726598 0.67845,1.3125 1.53125,1.3125 l 5.03125,0 0,-10.40625 -6.5625,0 z m 12.59375,0 0,10.40625 5.03125,0 c 0.8528,0 1.53125,-0.585902 1.53125,-1.3125 l 0,-9.09375 -6.5625,0 z m 19.78125,0 0,9.09375 c 0,0.726598 0.67845,1.3125 1.53125,1.3125 l 5.03125,0 0,-10.40625 -6.5625,0 z m 12.59375,0 0,10.40625 5.03125,0 c 0.8528,0 1.53125,-0.585902 1.53125,-1.3125 l 0,-9.09375 -6.5625,0 z m -7.65625,13.875 c -1.486913,-0.01017 -6.123985,1.319329 -6.28125,1.90625 -0.06554,0.244599 0.465958,0.975757 1.21875,1.8125 -2.287013,1.571561 -4.915792,2.46875 -7.71875,2.46875 -3.5763,0 -6.871488,-1.43235 -9.53125,-3.90625 A 1.250125,1.250125 0 0 0 38.8125,66.5625 1.250125,1.250125 0 0 0 38.03125,68.75 c 3.06062,2.8467 6.96564,4.59375 11.21875,4.59375 3.491261,0 6.752371,-1.191173 9.5,-3.1875 0.865612,0.785878 1.654713,1.379899 1.90625,1.3125 0.670767,-0.179731 2.272285,-6.227715 1.78125,-6.71875 -0.06138,-0.06138 -0.193834,-0.0923 -0.40625,-0.09375 z"
       transform="translate(0,952.36218)"
       id="path4672-8-8"
       style="color:#000000;fill:#ffffff;fill-opacity:1;fill-rule:nonzero;stroke:none;stroke-width:10;marker:none;visibility:visible;display:inline;overflow:visible;enable-background:accumulate" />
  </g>
</svg>
