<?xml version="1.0" encoding="UTF-8" standalone="no"?>
<!-- Created with Inkscape (http://www.inkscape.org/) -->

<svg
   xmlns:dc="http://purl.org/dc/elements/1.1/"
   xmlns:cc="http://creativecommons.org/ns#"
   xmlns:rdf="http://www.w3.org/1999/02/22-rdf-syntax-ns#"
   xmlns:svg="http://www.w3.org/2000/svg"
   xmlns="http://www.w3.org/2000/svg"
   version="1.1"
   width="100"
   height="100"
   id="svg2">
  <defs
     id="defs4" />
  <metadata
     id="metadata7">
    <rdf:RDF>
      <cc:Work
         rdf:about="">
        <dc:format>image/svg+xml</dc:format>
        <dc:type
           rdf:resource="http://purl.org/dc/dcmitype/StillImage" />
        <dc:title></dc:title>
        <dc:creator>
          <cc:Agent>
            <dc:title>T. Gantt</dc:title>
          </cc:Agent>
        </dc:creator>
        <cc:license
           rdf:resource="" />
      </cc:Work>
    </rdf:RDF>
  </metadata>
  <g
     transform="translate(0,-952.36218)"
     id="layer1">
    <path
       d="m 50.000001,0 c 5.877853,1.5749647e-7 45.736469,28.958982 47.552825,34.549152 1.816356,5.59017 -13.408282,52.446784 -18.163564,55.901699 -4.755283,3.454914 -54.023243,3.454913 -58.778526,-2e-6 C 15.855454,86.995934 0.63081813,40.139319 2.4471746,34.549149 4.2635311,28.958979 44.122149,-1.5749643e-7 50.000001,0 z"
       transform="matrix(0.86933325,-0.23293714,0.23293714,0.86933325,-5.4153117,970.5821)"
       id="path4672"
       style="color:#000000;fill:#000000;fill-opacity:1;fill-rule:nonzero;stroke:none;stroke-width:10;marker:none;visibility:visible;display:inline;overflow:visible;enable-background:accumulate" />
    <path
       d="M 39.21875,8.78125 C 39.002214,8.79069 38.807723,8.834413 38.65625,8.875 33.809113,10.173786 7.3563786,42.863751 7.09375,47.875 6.8311214,52.886249 29.721426,88.139164 34.40625,89.9375 39.091074,91.735836 79.716991,80.868566 82.875,76.96875 86.033009,73.068934 88.233067,31.052305 85.5,26.84375 82.852341,22.766713 45.931365,8.488579 39.21875,8.78125 z m 0.53125,2.125 c 6.376828,-0.278031 41.484786,13.283159 44,17.15625 2.59635,3.998029 0.500035,43.889015 -2.5,47.59375 C 78.249965,79.360985 39.637974,89.708377 35.1875,88 30.737026,86.291623 8.969259,52.79182 9.21875,48.03125 c 0.249491,-4.76057 25.395332,-35.828683 30,-37.0625 0.143896,-0.03856 0.325546,-0.05353 0.53125,-0.0625 z m 8.1875,11.28125 c -1.288129,0 -2.194851,1.228479 -2.34375,2.3125 C 45.18684,27.462387 50,30.6875 50,30.6875 c 0,0 4.81316,-3.225113 4.40625,-6.1875 -0.148899,-1.084021 -1.055621,-2.3125 -2.34375,-2.3125 -0.892974,0 -1.670576,0.512971 -2.0625,1.25 -0.391924,-0.737029 -1.169526,-1.25 -2.0625,-1.25 z M 31,28.5 c -1.288126,0 -2.163605,1.22848 -2.3125,2.3125 -0.406911,2.962387 4.40625,6.15625 4.40625,6.15625 0,0 4.78191,-3.193863 4.375,-6.15625 C 37.319855,29.72848 36.444377,28.5 35.15625,28.5 c -0.892974,0 -1.670573,0.512971 -2.0625,1.25 C 32.701823,29.012971 31.892975,28.5 31,28.5 z m 33.84375,0 c -1.288129,0 -2.163601,1.22848 -2.3125,2.3125 -0.40691,2.962387 4.375,6.15625 4.375,6.15625 0,0 4.81316,-3.193863 4.40625,-6.15625 C 71.163602,29.72848 70.288129,28.5 69,28.5 c -0.892974,0 -1.701827,0.512971 -2.09375,1.25 -0.391923,-0.737029 -1.169526,-1.25 -2.0625,-1.25 z M 43.125,37.03125 c -4.271726,0 -7.224967,4.123892 -7.71875,7.71875 C 34.056846,54.57395 50,65.1875 50,65.1875 c 0,0 15.943154,-10.61355 14.59375,-20.4375 -0.493783,-3.594858 -3.447024,-7.71875 -7.71875,-7.71875 -2.961307,0 -5.575293,1.712099 -6.875,4.15625 -1.299707,-2.444151 -3.913693,-4.15625 -6.875,-4.15625 z m 0.15625,8.15625 c 1.441286,0 2.59375,1.152464 2.59375,2.59375 0,1.441286 -1.152464,2.625 -2.59375,2.625 -1.441286,0 -2.625,-1.183714 -2.625,-2.625 0,-1.441286 1.183714,-2.59375 2.625,-2.59375 z m 13.4375,0 c 1.441286,0 2.625,1.152464 2.625,2.59375 0,1.441286 -1.183714,2.625 -2.625,2.625 -1.441286,0 -2.59375,-1.183714 -2.59375,-2.625 0,-1.441286 1.152464,-2.59375 2.59375,-2.59375 z m -32.375,0.5625 c -1.288128,0 -2.163602,1.228479 -2.3125,2.3125 -0.406911,2.962387 4.40625,6.1875 4.40625,6.1875 0,0 4.78191,-3.225114 4.375,-6.1875 C 30.663602,46.978478 29.788127,45.75 28.5,45.75 c -0.892976,0 -1.670575,0.512973 -2.0625,1.25 -0.391923,-0.737027 -1.200776,-1.25 -2.09375,-1.25 z m 47.15625,0 c -1.288128,0 -2.163602,1.228479 -2.3125,2.3125 -0.40691,2.962387 4.375,6.1875 4.375,6.1875 0,0 4.813161,-3.225114 4.40625,-6.1875 C 77.819852,46.978478 76.944379,45.75 75.65625,45.75 74.763276,45.75 73.954423,46.262973 73.5625,47 73.170577,46.262973 72.392975,45.75 71.5,45.75 z m -26.71875,6.4375 a 1.0001,1.0001 0 0 1 0.09375,0 1.0001,1.0001 0 0 1 0.96875,0.59375 c 0.736058,1.5531 2.326382,2.65625 4.15625,2.65625 1.829869,0 3.420191,-1.10315 4.15625,-2.65625 a 1.0001,1.0001 0 1 1 1.8125,0.84375 C 54.913917,55.8507 52.629643,57.4375 50,57.4375 c -2.629642,0 -4.913918,-1.5868 -5.96875,-3.8125 a 1.0001,1.0001 0 0 1 0.75,-1.4375 z M 31,63.03125 c -1.288129,0 -2.163601,1.22848 -2.3125,2.3125 -0.40691,2.962387 4.40625,6.15625 4.40625,6.15625 0,0 4.78191,-3.193863 4.375,-6.15625 -0.148899,-1.084021 -1.024371,-2.3125 -2.3125,-2.3125 -0.892974,0 -1.670577,0.512972 -2.0625,1.25 -0.391924,-0.737029 -1.200776,-1.25 -2.09375,-1.25 z m 33.84375,0 c -1.288129,0 -2.163601,1.22848 -2.3125,2.3125 -0.40691,2.962387 4.375,6.15625 4.375,6.15625 0,0 4.81316,-3.193863 4.40625,-6.15625 -0.148898,-1.084021 -1.024371,-2.3125 -2.3125,-2.3125 -0.892974,0 -1.701827,0.512972 -2.09375,1.25 -0.391923,-0.737029 -1.169526,-1.25 -2.0625,-1.25 z M 47.9375,69.3125 c -1.288129,0 -2.194851,1.25973 -2.34375,2.34375 C 45.18684,74.618638 50,77.8125 50,77.8125 c 0,0 4.81316,-3.193862 4.40625,-6.15625 -0.148899,-1.08402 -1.055622,-2.34375 -2.34375,-2.34375 -0.892975,0 -1.670576,0.512972 -2.0625,1.25 -0.391923,-0.737028 -1.169526,-1.25 -2.0625,-1.25 z"
       transform="translate(0,952.36218)"
       id="path4672-8-8"
       style="color:#000000;fill:#ffffff;fill-opacity:1;fill-rule:nonzero;stroke:none;stroke-width:10;marker:none;visibility:visible;display:inline;overflow:visible;enable-background:accumulate" />
  </g>
</svg>
