<?xml version="1.0" encoding="UTF-8" standalone="no"?>
<!-- Created with Inkscape (http://www.inkscape.org/) -->

<svg
   xmlns:dc="http://purl.org/dc/elements/1.1/"
   xmlns:cc="http://creativecommons.org/ns#"
   xmlns:rdf="http://www.w3.org/1999/02/22-rdf-syntax-ns#"
   xmlns:svg="http://www.w3.org/2000/svg"
   xmlns="http://www.w3.org/2000/svg"
   version="1.1"
   width="100"
   height="100"
   id="svg2">
  <defs
     id="defs4" />
  <metadata
     id="metadata7">
    <rdf:RDF>
      <cc:Work
         rdf:about="">
        <dc:format>image/svg+xml</dc:format>
        <dc:type
           rdf:resource="http://purl.org/dc/dcmitype/StillImage" />
        <dc:title></dc:title>
        <dc:creator>
          <cc:Agent>
            <dc:title>T. Gantt</dc:title>
          </cc:Agent>
        </dc:creator>
        <cc:license
           rdf:resource="" />
      </cc:Work>
    </rdf:RDF>
  </metadata>
  <g
     transform="translate(0,-952.36218)"
     id="layer1">
    <path
       d="m 50.000001,0 c 5.877853,1.5749647e-7 45.736469,28.958982 47.552825,34.549152 1.816356,5.59017 -13.408282,52.446784 -18.163564,55.901699 -4.755283,3.454914 -54.023243,3.454913 -58.778526,-2e-6 C 15.855454,86.995934 0.63081813,40.139319 2.4471746,34.549149 4.2635311,28.958979 44.122149,-1.5749643e-7 50.000001,0 z"
       transform="matrix(0.86933325,-0.23293714,0.23293714,0.86933325,-5.1135191,970.54238)"
       id="path4672"
       style="color:#000000;fill:#000000;fill-opacity:1;fill-rule:nonzero;stroke:none;stroke-width:10;marker:none;visibility:visible;display:inline;overflow:visible;enable-background:accumulate" />
    <path
       d="m 39.53125,8.75 c -0.216536,0.00944 -0.411027,0.021913 -0.5625,0.0625 -4.847137,1.298786 -31.3311214,33.988751 -31.59375,39 -0.2626286,5.011249 22.658926,40.295414 27.34375,42.09375 4.684824,1.798336 45.310741,-9.100184 48.46875,-13 3.158009,-3.899816 5.358067,-45.885195 2.625,-50.09375 C 83.164841,22.735463 46.243865,8.457329 39.53125,8.75 z m 0.53125,2.125 c 6.376828,-0.278031 41.453536,13.283159 43.96875,17.15625 2.59635,3.998029 0.500035,43.889015 -2.5,47.59375 C 78.531215,79.329735 39.950474,89.677127 35.5,87.96875 31.049526,86.260373 9.281759,52.76057 9.53125,48 c 0.249491,-4.76057 25.395332,-35.828683 30,-37.0625 0.143896,-0.03856 0.325546,-0.05353 0.53125,-0.0625 z M 30,30.21875 c -0.4155,0 -0.75,0.3345 -0.75,0.75 l 0,28.5 c 0,0.4155 0.3345,0.75 0.75,0.75 l 0.9375,0 0,-26.3125 c 0,-1.086378 0.913622,-2 2,-2 l 18.3125,0 0,-0.9375 c 0,-0.4155 -0.3345,-0.75 -0.75,-0.75 l -20.5,0 z m 2.9375,2.9375 c -0.4155,0 -0.75,0.3345 -0.75,0.75 l 0,28.5 c 0,0.4155 0.3345,0.75 0.75,0.75 l 15,0 c 0,-1.145497 0.102266,-2.235144 0.3125,-3.25 l -14.0625,0 0,-1.5 14.46875,0 c 0.280789,-0.892763 0.628796,-1.719335 1.03125,-2.5 l -15.5,0 0,-1.5 16.375,0 c 1.089851,-1.668113 2.393225,-3.022042 3.625,-4.09375 l 0,-16.40625 c 0,-0.4155 -0.3345,-0.75 -0.75,-0.75 l -20.5,0 z m 2,2 3.5,0 c 0.4155,0 0.75,0.3345 0.75,0.75 l 0,2.75 c 0,0.4155 -0.3345,0.75 -0.75,0.75 l -3.5,0 c -0.4155,0 -0.75,-0.3345 -0.75,-0.75 l 0,-2.75 c 0,-0.4155 0.3345,-0.75 0.75,-0.75 z m 7.21875,2.75 10,0 0,1.5 -10,0 0,-1.5 z m -7.96875,4.5 18,0 0,1.5 -18,0 0,-1.5 z m 27.5,0.5 c -1.135345,0 -1.472077,0.582591 -2.25,0.625 -0.759218,0.04139 -2.571406,-1.064074 -2.25,-0.375 l 1.40625,3 4.78125,0 1.90625,-1.0625 0.90625,-1.9375 c 0.321406,-0.689074 -1.490782,0.416389 -2.25,0.375 -0.777923,-0.04241 -1.114655,-0.625 -2.25,-0.625 z M 68.53125,44.75 c -0.08803,0.016 -0.17315,0.04792 -0.25,0.09375 l -4.59375,2.5625 -0.03125,0 -5.53125,0 c -0.396234,-0.0056 -0.75,0.353726 -0.75,0.75 0,0.396274 0.353766,0.755604 0.75,0.75 l 5.5,0 0.21875,0 0.15625,0 5.28125,0.34375 c 0.392722,0.02459 0.787955,-0.294775 0.8125,-0.6875 C 70.1183,48.169775 69.767727,47.774505 69.375,47.75 L 66.46875,47.5625 69,46.15625 c 0.314765,-0.16231 0.486992,-0.570274 0.375,-0.90625 -0.111992,-0.335975 -0.494552,-0.559011 -0.84375,-0.5 z m -34.34375,1.65625 18,0 0,1.5 -18,0 0,-1.5 z m 22.5,3.5625 c -3.059834,2.250434 -7.5,6.607733 -7.5,13.1875 0,10 25,10 25,0 0,-6.168699 -3.924809,-10.417836 -6.9375,-12.78125 L 64,50.15625 l -0.0625,0 -0.09375,0 -0.21875,0 -6.0625,0 c -0.01079,1.53e-4 -0.02052,-3e-6 -0.03125,0 -0.312122,9.3e-5 -0.586338,-0.07274 -0.84375,-0.1875 z m -22.5,0.4375 18,0 0,1.5 -18,0 0,-1.5 z m 27.5,2.40625 c 3.920866,0 7.125,3.172884 7.125,7.09375 0,3.920866 -3.204134,7.09375 -7.125,7.09375 -3.920866,0 -7.09375,-3.172884 -7.09375,-7.09375 0,-3.920866 3.172884,-7.09375 7.09375,-7.09375 z m 0,1.0625 c -3.342378,0 -6.03125,2.688872 -6.03125,6.03125 0,3.342378 2.688872,6.0625 6.03125,6.0625 3.342378,0 6.0625,-2.720122 6.0625,-6.0625 0,-3.342378 -2.720122,-6.03125 -6.0625,-6.03125 z M 58.84375,56 a 0.76610317,0.76610317 0 0 1 0.03125,0 0.76306972,0.76306972 0 0 1 0.03125,0 0.76034532,0.76034532 0 0 1 0.03125,0 0.75583666,0.75583666 0 0 1 0.0625,0 0.75259966,0.75259966 0 0 1 0.0625,0 0.750075,0.750075 0 0 1 0.125,0 l 5,0 a 0.750075,0.750075 0 0 1 0.59375,1.21875 l -1.53125,1.9375 0.5625,0 a 0.750075,0.750075 0 1 1 0,1.5 l -1.75,0 -1.3125,1.65625 3.4375,0 a 0.750075,0.750075 0 1 1 0,1.5 l -5,0 A 0.750075,0.750075 0 0 1 58.625,62.59375 l 1.53125,-1.9375 -0.5625,0 a 0.75405803,0.75405803 0 0 1 -0.15625,-1.5 0.750075,0.750075 0 0 1 0.15625,0 l 1.75,0 1.3125,-1.65625 -3.46875,0 A 0.76944202,0.76944202 0 0 1 58.84375,56 z"
       transform="translate(0,952.36218)"
       id="path4672-8-8"
       style="color:#000000;fill:#ffffff;fill-opacity:1;fill-rule:nonzero;stroke:none;stroke-width:10;marker:none;visibility:visible;display:inline;overflow:visible;enable-background:accumulate" />
  </g>
</svg>
