<?xml version="1.0" encoding="UTF-8" standalone="no"?>
<!-- Created with Inkscape (http://www.inkscape.org/) -->

<svg
   xmlns:dc="http://purl.org/dc/elements/1.1/"
   xmlns:cc="http://creativecommons.org/ns#"
   xmlns:rdf="http://www.w3.org/1999/02/22-rdf-syntax-ns#"
   xmlns:svg="http://www.w3.org/2000/svg"
   xmlns="http://www.w3.org/2000/svg"
   version="1.1"
   width="100"
   height="100"
   id="svg2">
  <defs
     id="defs4" />
  <metadata
     id="metadata7">
    <rdf:RDF>
      <cc:Work
         rdf:about="">
        <dc:format>image/svg+xml</dc:format>
        <dc:type
           rdf:resource="http://purl.org/dc/dcmitype/StillImage" />
        <dc:title></dc:title>
        <dc:creator>
          <cc:Agent>
            <dc:title>T. Gantt</dc:title>
          </cc:Agent>
        </dc:creator>
        <cc:license
           rdf:resource="" />
      </cc:Work>
    </rdf:RDF>
  </metadata>
  <g
     transform="translate(0,-952.36218)"
     id="layer1">
    <path
       d="m 50.000001,0 c 5.877853,1.5749647e-7 45.736469,28.958982 47.552825,34.549152 1.816356,5.59017 -13.408282,52.446784 -18.163564,55.901699 -4.755283,3.454914 -54.023243,3.454913 -58.778526,-2e-6 C 15.855454,86.995934 0.63081813,40.139319 2.4471746,34.549149 4.2635311,28.958979 44.122149,-1.5749643e-7 50.000001,0 z"
       transform="matrix(0.81567702,-0.38035644,0.38035644,0.81567702,-9.8016722,980.59615)"
       id="path4672"
       style="color:#000000;fill:#000000;fill-opacity:1;fill-rule:nonzero;stroke:none;stroke-width:10;marker:none;visibility:visible;display:inline;overflow:visible;enable-background:accumulate" />
    <path
       d="M 34.15625,11.03125 C 33.145515,11.063663 32.426372,11.17618 32,11.375 27.452033,13.495751 7.0446945,50.269278 7.65625,55.25 8.2678055,60.230722 36.949071,91.011246 41.875,91.96875 46.800929,92.926254 84.942164,75.138952 87.375,70.75 89.807836,66.361048 84.672353,24.607525 81.25,20.9375 78.148492,17.61154 43.926688,10.717922 34.15625,11.03125 z m 0.84375,2 c 9.28169,-0.297654 41.77239,6.246665 44.71875,9.40625 3.251156,3.486439 8.123638,43.143098 5.8125,47.3125 C 83.220112,73.919402 46.992018,90.815856 42.3125,89.90625 37.632982,88.996644 10.393464,59.76282 9.8125,55.03125 9.2315364,50.29968 28.585787,15.358415 32.90625,13.34375 33.311293,13.154875 34.039825,13.062042 35,13.03125 z M 39.84375,32.125 c -1.431317,0 -2.59375,1.162433 -2.59375,2.59375 l 0,2.75 28.65625,0 0,-2.75 c 0,-1.431317 -1.131183,-2.59375 -2.5625,-2.59375 l -23.5,0 z m -6.0625,2.84375 c -1.380129,0 -2.46875,1.119871 -2.46875,2.5 l 0,3.5 0,19.09375 0,3.5 c 0,1.380129 1.088621,2.5 2.46875,2.5 l 32.71875,0 c 1.380129,0 2.5,-1.119871 2.5,-2.5 l 0,-3.5 0,-1.65625 -6.28125,0 -0.5,0 c -3.387984,0 -6.15625,-2.76825 -6.15625,-6.15625 0,-3.1767 2.418559,-5.84013 5.53125,-6.15625 0.331904,-0.0337 0.53773,0 0.625,0 l 0.5,0 6.28125,0 0,-5.125 0,-1.5 -33.40625,0 a 1.0019512,1.0019512 0 0 1 -0.125,-2 1.0001,1.0001 0 0 1 0.125,0 l 0.40625,0 0,-2.5 -2.21875,0 z m 33.375,0.09375 0,2.40625 1.84375,0 c 0,-1.151062 -0.784492,-2.115958 -1.84375,-2.40625 z m -4.9375,12.28125 c -2.715972,0 -4.9375,2.190278 -4.9375,4.90625 0,2.715972 2.221528,4.9375 4.9375,4.9375 0.169748,0 0.334681,-0.01446 0.5,-0.03125 l 6.46875,0 c 1.380129,0 2.5,-1.1198 2.5,-2.5 l 0,-4.8125 c 0,-1.3801 -1.119871,-2.5 -2.5,-2.5 l -6.96875,0 z m 0,2.28125 c 1.457597,0 2.625,1.167403 2.625,2.625 0,1.457597 -1.167403,2.65625 -2.625,2.65625 -1.457597,0 -2.65625,-1.198653 -2.65625,-2.65625 0,-1.457597 1.198653,-2.625 2.65625,-2.625 z"
       transform="translate(0,952.36218)"
       id="path4672-8-8"
       style="color:#000000;fill:#ffffff;fill-opacity:1;fill-rule:nonzero;stroke:none;stroke-width:10;marker:none;visibility:visible;display:inline;overflow:visible;enable-background:accumulate" />
  </g>
</svg>
