<svg xmlns="http://www.w3.org/2000/svg" width="282" height="123" viewBox="0 0 74.612 32.544"><g style="display:inline"><path style="fill:#0f0f0f;fill-opacity:1;stroke:none;stroke-width:1.00157" d="M39 105v9h3l3 3 3-3-1-3 1-3v-3zm27 0v9l2 2H50v11h20v-11l2-2 2-3 1-3v-3zm200 26v5h5v-5zm-225 3v17h11v-17zm27 0v24H40v-8l-4-3h-9v3h-3v3h-3v3h-3v3h-3v9l2 1-2 2v3h-3v3H9v12h3v3h87v-3h3v-3l-1-1H39l-9-14v-3h3v-3h3v6l3 4h36l3-4v-6l2-2 1 2v3h3v3l3 3h6l3-3 3-3v-9h-3v-3h-3v-3h-3v-3h-3v-3h-9v-3l-2-2 2-1v-3l-2-4zm-12 12v5h8v-5zm180 3v5h5v-5zm18 0v5h5v-5zm12 0v5h5v-5zm-36 3v5h5v-5zm12 0v5h5v-5zm21 3v5h5v-5zm-36 3v5h5v-5zm6 6v5h8v-5zm9 0v8h8v-8zm9 0v5h8v-5zm15 0v5h5v-5zm-39 3v5h5v-5zm39 3v5h5v-5zm-58 3-1 1h-6v15h3v3h12v-3h3v-15l-1-1zm37 0v5h5v-5zm15 0v5h5v-5zm-27 3v5h5v-5zm21 0v5h5v-5zm-122 1v6h3v3l-2 2-1-2h-3v3h-3v3h54v-3h-3v-3h-3v-6l-4-3z" transform="translate(-2.381 -18.256) scale(.26458)"/></g><g style="display:inline"><path style="fill:#3e3e3e;fill-opacity:1;stroke:none;stroke-width:1.00157" d="M144 69v3h-3v3h-3v9h-3v12h3v3h3v3h3l2-1 1 1v3h3l1 2-1 1v9h3v3h3v3h-3v6l9 3h3v-6h3v-15h-3v-3h3v-9h3v-3h3V84h-3v-3h-3v-3h-3v-3h-9v-3h-3v-3zm-97 41-2 1v3l4 1-1-4zm26 0-1 1v3h3v-3zm188 19-1 1v9h12l1-1h3v-3h-3v-6zm-7 2v5h5v-5zm13 1h3v3h-3zm-226 2 1 4h3v-3zm11 0-4 1v3h3zm16 0 1 4h3v-3zm8 0-1 1v3h3v-3zm151 12v5l4 2h3v3l1 1h7l1-1v-3h3v3l1 1h16l1-1h3v3h-3l-1 1v13l1 1v3h-3v-3l-1-1h-10l-1 1v3h-3v-3l-1-1h-12l-2-2h-3l-1 1v7l1 1 1 1h4l1-1v-3h3v3l1 1h12l2 2h3v3l3 1 3-1v-3h9v-3h3v-15l-1-1-2 1v3h-3v-3h3l4-5-1-4v-9l-1-1h-12l-2 4v3h-3v-3h3l1-4h-23l1 4h3v3h-3v-3l-2-4zm-185 1-1 4 4-1v-3zm6 0v3l4 1-1-4zm21 0-1 4 4-1v-3zm6 0v3l1 1 2-1v-3zm192 3h3v3h-3zm-224 5-4 1v6h3v-3zm-4 7h-3v3h3zm188-7 1 4h3l1-1-1-2zm-149 1v9h3v-9zm150 6-1 3 1 3h3l1-3-1-3zm-7 2-3 6 1 4h3v-3h4v-7zm-200 7-1 4 4 2h3l1-4-4-2zm15 0-1 4 4-1v-3zm39 0v3l4 1-1-4zm192 0h3v3h-3zm-215 2-4 1h-3l-1 4 6 3h5v-5zm15 0-4 1h-3l-1 4 6 3h5v-5zm188 4h3v3l-2 2-1-2zm-231 3-1 2 1 1h3l1-1-1-2zm5 2-2 4h-3v3h75v-3h3v-3l-1-1zm129 0 1 4h3v3h3v-3l-2-4zm82 0-3 1v3l3 1 3-1v-3zm-97 3-2 1h-3v3h6v-3zm10 0-3 1v3h6v-3zm-21 1v3h3v-3zm36 0v3h6v-3z" transform="translate(-2.381 -18.256) scale(.26458)"/></g><g style="display:inline"><path style="fill:#717171;fill-opacity:1;stroke:none;stroke-width:1.00157" d="M144 75v3h-3v3h9v-3h3v-3zm12 6v3h-3v3h-3v-3h-6v3h-3v3h-3v6h3v3h3v3h6v6h3v-3h9v3h3v-6h-3v-3h-6v3h-3v-3h3v-3h3v-3h-6v3h-3v3h-3v-6h3v-3h12v3h3v6h3v-3h3v-6h-3v-6h-3v-3zm0 30v3h-3v3h3v3h9v-6h-3v-3zm0 15v3h-3v12h3v-3h3v-3h3v-9zm69 3v6h-3v3h3l1 1h37l1-1v-3h-3v-6zm30 3h3v3h-3zM40 146l-4 1v3h3l1 1-1 2v3h3v3h3l1-4-3-3h-2zm186 0-1 1v15h-6v3h-9v3h-3v6h12v-3h3v-6h3v15h3v-24l1-3-1-3v-3zm2 34v3h24v-3zm7-34-1 1v3h3v-3zm15 0-1 1v3h3v-3zm9 0-1 1v3h3v-3zm23 4v3h-6v3h-3v3h-3v6h12v-3h6v-3h3v-9zm-208 2 1 4h3v-3zm18 6-2 1v3h3l1-2-1-1zm-62 1v3l2 1 1-1 1-1-1-2zm-3 12-1 2 1 1v12h3v-3h6v3h3v-3h3v3h3v-3h3v3h9v-3h6v3h3v-3h3v3h6v-3h3v3h3v-3h3v3h6v-3h6v3h3v-3h3v-6h-3v-3h-3v-3H78v3h-6v-3h-3l-1 4 2 1-1 4h-3v-3h-6v-3h-3v-3h-3l-1 4 2 1-1 4h-3v-3h-6v-3h-9v-3zm-7 2-2 1h-3v3h-3v3l1 1v4l-1 1v3h3l1-1h4v-3l1 1h3v-12h-3zm125 0-4 1h-6v6h3v3h3v3h18v-3l2-1 1 1v3h6v-3h3v-3h3v-3h-3v-3h-3l-4-1-4 6-15-1zm60 6-1 1v3h3v-3zm50 1v3h3v-3zm-51 6v3h3v-3zm33 0v3h3v3h3v-6zm18 0v3h3v3h3v-6z" transform="translate(-2.381 -18.256) scale(.26458)"/></g><g style="display:inline"><path style="fill:#b2b2b2;fill-opacity:1;stroke:none;stroke-width:1.00157" d="M51 108v3l4 1-1-4zm-9 6v3h-3v6h-3v24h3v6h3v3h3v3h6l1-4h-6v-3h-3l-1-2v-6l1-2-1-1v-6l1-1v-13h3v-6l-1-1zm198 18v3h3v-3zm-9 6-1 1v3h42v4l1 1h3v-6h-3v-3h-36l-1 1-2-1zm-4 5 1 4h3l1-4zm9 0 1 4h3l1-4zm9 0 1 4h3l1-4zm9 0 1 4h3l1-4zm9 0 1 4h3l1-4zm-110 1v3h-3v3h-3v6h3v3h-3v3h-3v3h-3v9h3v3h-3v3h6v3h9v-3h3v3h6v-3h3v-3h-3v-3h3v-15h-3v-3h-3v-3h-3v-3h-3v-6zm-78 6-4 2-3 3 1 4h3v-3h3v-3h3v-3zm207 3v3h3v-3zm-51 3v3l2 1v3h5v-5h-3l-1-2zm30 0-1 2h-3v5h5v-3l2-1v-3zm-22 2v5h5v-5zm6 0v5h5v-5zm6 0v5h5v-5zm-178 3-1 1v3h3v-3zm128 1v6h3v-6zm0 6h-3v3h3zm-3 3h-6v3h6zm0-3v-3h-3v3zm15 0-1 2 1 1h3v-3zm22 2-4 1v3h3zm25 0 1 4h3v-3zm-212 1v3h3v3h3l1-2-1-1-3-3zm15 0v3h3v3h3l1-2-1-1-3-3zm-48 6v3h6v-3zm0 3h-3v6h3zm0 6v3h6v-6h-3v3z" transform="translate(-2.381 -18.256) scale(.26458)"/></g><g style="display:inline"><path style="fill:#d7d7d7;fill-opacity:1;stroke:none;stroke-width:1.00157" d="M45 108v3h3v-3zm3 3v3h-3v6h-3v15h9v6l-1 1 1 2v6h-9v3h3v3h6v3h18v-3h3v-3h3v-3h-6v-6l1-1-1-2v-6h9v-12h-3v-6h-3v-3h-3v-3h-6v-3h-9v3zm24-3v3h3v-3zm-15 9h6v3h-6zm-6 3h3v6h-3zm15 0h3v6h-3zm-9 3h6v3h-6zm171 9v3h3v-3zm-3 6v3h-3v6h6v-3h3v3h6v-3h3v3h6v-3h3v3h6v-3h3v3h6v-3h3v3h6v-6h-36v-3h-3v3h-3v-3zm-179 2-1 1-1 2 1 1 2 1 1-1 1-2-1-1zm26 1-1 2 1 1h3l1-1-1-2zm-15 6h6v3h-6zm171 3v6h3v-6zm-195 6v6h3v-6zm0 6h-3v3h3zm57-6v3h3v-3zm3 3v6h3v-6zm141-3v3h3v3h-3v-3h-3v12h3v3h27v-3h3v-12h-3v3h-3v-3h3v-3zm45 0v3h3v-3zm-207 3v3h3v-3zm168 0h3v3h-3zm6 0h3v3h-3zm6 0h3v3h-3zm-97 5v3h-3v8h6l1-1 1-1v-9zm79 1h6v3h-6zm9 0h6v6h-6zm9 0h6v3h-6zm-42 3v3h3v-3zm-159 3v3h3v-3zm3 3v6h3v-6zm12-3v3h3v-3zm3 3v6h3v-6z" transform="translate(-2.381 -18.256) scale(.26458)"/></g><g style="display:inline"><path transform="scale(.26458)" d="M225 63v3h3v-3ZM36 69v3h3v-3zm3 3v3h3v-3zm0 3h-3v3h3zm-3 0v-3h-3v3zm24-3v3h3v-3zm6 0v3h3v-3ZM6 99v3h3v-3zm3 3v3h3v-3zm78-3v3h3v-3zm-72 3v3h3v-3zm180 6v3h3v-3z" style="fill:#cf0;fill-opacity:1;stroke:none;stroke-width:1.00157"/></g><path transform="translate(-2.381 -18.256) scale(.26458)" d="M210 138v9h-3v6h6v-9h3v-3h-3v-3z" style="display:inline;fill:#2f7f6f;fill-opacity:1;stroke:none;stroke-width:1.00157"/><g style="display:inline"><path style="fill:#cf0;fill-opacity:1;stroke:none;stroke-width:.264999" d="M42.069 46.037v.794h-2.382v-.794h-.793v-2.38h.793v-.795h.794v-2.38h.794v.793h.794v.794h.793v.793h.794v2.382h-.794v.793h-.793v-2.38h-.794v.793h-.794v1.587z" transform="translate(-2.381 -18.256)"/></g></svg>