<?xml version="1.0" encoding="UTF-8" standalone="no"?>
<svg
   xmlns:dc="http://purl.org/dc/elements/1.1/"
   xmlns:cc="http://creativecommons.org/ns#"
   xmlns:rdf="http://www.w3.org/1999/02/22-rdf-syntax-ns#"
   xmlns:svg="http://www.w3.org/2000/svg"
   xmlns="http://www.w3.org/2000/svg"
   width="200"
   height="192"
   viewBox="0 0 52.916665 50.800001"
   version="1.1"
   id="svg8">
  <defs
     id="defs2" />
  <metadata
     id="metadata5">
    <rdf:RDF>
      <cc:Work
         rdf:about="">
        <dc:format>image/svg+xml</dc:format>
        <dc:type
           rdf:resource="http://purl.org/dc/dcmitype/StillImage" />
        <dc:title></dc:title>
      </cc:Work>
    </rdf:RDF>
  </metadata>
  <g
     id="layer2"
     style="display:inline;opacity:1">
    <path
       d="M 25.664583,6.3499999 V 10.31875 h 0.79375 v 1.5875 h 0.79375 V 12.7 h 1.5875 v 0.79375 h -0.79375 v 3.96875 h -0.79375 v -0.79375 h -0.79375 V 15.875 h -0.79375 v -0.79375 h -0.79375 V 14.2875 h -0.79375 v -0.79375 h -0.79375 V 12.7 h -0.79375 v -0.79375 h -0.79375 V 11.1125 h 0.79375 v -0.79375 h -2.38125 v 0.79375 h -1.5875 v 0.79375 h -0.79375 V 12.7 h -0.79375 v 0.79375 h -0.79375 v 0.79375 h -0.79375 v 0.79375 h -0.79375 v 1.5875 h -0.79375 v 7.14375 h 0.79375 v -2.38125 l 0.264584,-0.264584 v -1.058333 h 0.79375 v -0.529167 h 1.058333 l 0.264583,0.264584 v 0.79375 h 0.79375 v -0.79375 l 0.264584,-0.264584 v -1.058333 h 0.79375 v -0.529167 h 6.35 v 6.35 l -0.529167,0.529167 v 1.058333 H 24.341667 L 24.077083,26.19375 V 26.9875 L 23.8125,27.252083 h -0.79375 v 1.5875 h 2.116667 V 27.516666 L 25.664583,26.9875 v -0.79375 h 0.79375 V 25.4 h 1.5875 v 0.79375 h -0.79375 V 26.9875 L 26.9875,27.252083 v 0.264583 h -0.79375 v 1.322917 h 2.116666 v -1.5875 h 0.79375 V 26.722916 L 30.427083,25.4 h 0.79375 v -0.79375 h 1.5875 V 23.8125 h 0.79375 v -0.79375 h 0.79375 V 22.225 h 0.79375 v -1.5875 l 1.852083,-1.852084 h 0.79375 v -0.79375 H 42.8625 v 1.5875 l 0.264583,0.264584 v 0.79375 h 0.79375 v -0.79375 l 0.264583,-0.264584 h 0.79375 v 0.79375 h 1.5875 v 0.529167 h 1.852084 v 1.058333 L 48.683333,22.225 v 1.5875 h 0.79375 v -3.96875 h -0.79375 V 17.4625 h -0.79375 V 15.875 h -0.79375 v -0.79375 h -0.79375 V 14.2875 h -0.79375 v -0.79375 h -0.79375 V 12.7 h -0.79375 v -0.79375 h -0.79375 V 11.1125 h 0.79375 v -0.79375 h -2.38125 v 0.79375 h -1.5875 v 0.79375 h -0.79375 V 12.7 h -0.79375 v 0.79375 L 38.1,13.758333 H 37.835416 L 37.570833,13.49375 h -0.79375 V 12.7 h -0.79375 v -0.79375 h -0.79375 V 9.5249999 h -0.79375 v -1.5875 h -0.79375 v -0.79375 h -0.79375 v -0.79375 h -0.79375 V 11.1125 h 0.79375 v 0.79375 h -1.5875 V 11.1125 h -0.79375 V 9.5249999 h -0.79375 v -0.79375 h -0.79375 v -0.79375 h -1.5875 v -0.79375 h -0.79375 v -0.79375 z M 17.991667,26.722916 17.727083,26.9875 v 0.79375 l 0.264584,0.264583 h 3.175 v -1.322917 z m 0.264583,2.38125 v 1.5875 l 0.264583,0.264584 h 0.79375 l 0.264584,-0.264584 v -1.5875 z m -10.3187499,6.35 v 7.672917 H 20.372917 v -7.672917 z m 7.1437499,11.1125 v 1.322917 h 12.435416 v -1.322917 z"
       style="fill:#0f0f0f;fill-opacity:1;stroke-width:1.19062;stroke-linecap:round;stroke-linejoin:round"
       id="path874" />
  </g>
  <g
     id="layer3"
     style="display:inline">
    <path
       d="M 28.310416,10.847917 28.045833,11.1125 v 0.79375 h 1.5875 V 11.1125 h -0.79375 L 28.575,10.847917 Z M 20.108333,12.7 v 1.5875 h -0.79375 v 1.5875 h -0.79375 v 2.38125 h -0.79375 v 1.5875 h 0.79375 V 19.05 h 0.79375 v -0.79375 h 2.38125 V 19.05 h 1.5875 v 0.79375 h 0.79375 v 1.5875 h 0.79375 v 3.175 h 0.79375 v -1.5875 h 0.79375 v -1.5875 h 0.79375 v -1.5875 h -0.79375 v -1.5875 h -0.79375 V 17.4625 h -0.79375 v -0.79375 h -0.79375 V 15.875 h -0.79375 v -0.79375 h -0.79375 V 14.2875 h -0.79375 v -0.79375 h -0.79375 V 12.7 Z m 4.7625,11.90625 h -0.79375 v 1.5875 h 0.79375 z m -7.14375,-6.35 V 15.875 h 0.79375 v -1.5875 h -0.79375 v 0.79375 h -0.79375 v 1.5875 h -0.79375 v 1.5875 h -0.79375 v 1.5875 h -0.79375 v 1.5875 h 0.79375 V 20.6375 h 0.79375 v -0.79375 h 0.79375 v -1.5875 z m 0.79375,-3.96875 h 0.79375 v -0.79375 h -0.79375 z m 22.225,-1.5875 v 0.79375 h -0.79375 v 0.79375 h -0.79375 v 0.79375 h -0.79375 v -1.5875 h -0.79375 v 4.7625 h -0.79375 V 19.05 h 1.5875 v -0.79375 h 2.38125 V 19.05 h 1.5875 v 0.79375 h 0.79375 V 15.875 h -0.79375 v -2.38125 h -0.79375 V 12.7 Z m 1.5875,0.79375 h 0.79375 V 12.7 h -0.79375 z m 0.79375,0 V 15.875 h 0.79375 v 3.96875 h 0.79375 v 0.79375 h 1.5875 v 0.79375 h 1.5875 V 22.225 h 0.79375 v -1.5875 h -0.79375 v -2.38125 h -0.79375 v -1.5875 h -0.79375 V 15.875 h -0.79375 v -0.79375 h -0.79375 V 14.2875 h -0.79375 v -0.79375 z m -6.35,5.55625 h -0.79375 v 0.79375 h 0.79375 z m -0.79375,0.79375 h -4.7625 v 0.79375 h 4.7625 z m -4.7625,0 V 19.05 h -1.5875 v 0.79375 z M 29.633333,19.05 v -0.79375 h -0.79375 V 19.05 Z m -0.79375,-0.79375 V 17.4625 h -0.79375 v 0.79375 z m 5.027083,-2.645834 -0.529166,0.529167 v 0.264583 l 0.264583,0.264584 h 1.5875 l 0.264583,-0.264584 V 16.139583 L 34.925,15.610416 Z M 31.220833,17.4625 v 0.79375 h 0.79375 l 0.264583,0.264583 v -0.79375 L 32.014583,17.4625 Z m 1.5875,0 -0.264583,0.264583 v 0.79375 h 1.322916 L 34.395833,19.05 h 0.79375 v -0.79375 l 0.264583,-0.264584 V 17.727083 L 35.189583,17.4625 Z m -3.175,7.9375 v 0.79375 h 0.79375 V 25.4 Z m 0,0.79375 h -0.79375 v 0.79375 h -0.79375 v 1.5875 h -1.5875 V 27.78125 L 26.19375,27.516666 H 25.135417 L 24.870833,27.78125 V 28.575 h -1.5875 l -0.264583,0.264583 v 0.79375 h 6.35 l 0.529166,-0.529167 V 28.045833 L 29.36875,27.516666 V 27.252083 L 29.633333,26.9875 Z m -11.90625,1.5875 V 28.575 l 0.79375,0.79375 h 0.79375 l 0.264584,0.264583 h 1.5875 v -1.5875 L 20.902083,27.78125 h -0.79375 L 19.84375,28.045833 H 19.579167 L 19.314583,27.78125 Z m -3.175,7.14375 -0.264583,0.264583 v 0.264583 l 0.264583,0.264584 h 0.79375 l 0.264584,-0.264584 H 15.875 l 0.264583,0.264584 h 3.96875 v 7.143749 h -2.38125 v -0.79375 h -0.79375 v 0.79375 H 8.2020834 V 35.71875 L 7.9375001,35.454166 H 5.2916668 L 5.0270834,35.71875 3.9687501,36.777083 v 5.027083 l 1.3229167,1.322917 v 0.264583 h 1.8520833 l 0.5291666,0.529167 H 20.6375 l 0.264583,-0.264584 V 34.925 h -4.7625 L 15.875,35.189583 H 15.610417 L 15.345833,34.925 Z m 2.38125,7.143749 v -1.5875 h -0.79375 v 1.5875 z m -0.79375,-3.174999 v 0.79375 h 0.79375 v -0.79375 z m 5.55625,4.762499 -0.264583,0.264584 v 0.264583 H 7.9375001 v 6.085417 h 6.0854169 l 0.529166,0.529166 h 13.49375 v -7.14375 h -4.7625 l -0.264583,0.264584 h -0.264583 l -0.264584,-0.264584 z m -6.35,3.175 h 11.90625 v 0.79375 h -11.90625 z"
       style="fill:#3e3e3e;fill-opacity:1;stroke-width:1.19062;stroke-linecap:round;stroke-linejoin:round"
       id="path885" />
  </g>
  <g
     id="layer4"
     style="display:inline">
    <path
       d="M 26.458333,8.7312499 V 10.31875 h 0.79375 v 0.79375 h 1.5875 v -0.79375 h -0.79375 V 9.5249999 h -0.79375 v -0.79375 z m 4.7625,5.5562501 -0.79375,0.79375 V 15.875 h 1.5875 v -1.5875 z m 5.027083,0.529166 -0.264583,0.264584 V 15.875 h 0.79375 V 15.08125 L 36.5125,14.816666 Z m -3.96875,3.175 -0.264583,0.264584 V 19.05 h 2.38125 v -0.79375 h -1.5875 L 32.54375,17.991666 Z M 17.727083,23.8125 17.4625,24.077083 h -0.79375 v 1.058333 H 15.875 v 1.5875 l 0.264583,0.264584 h 3.175 v 3.96875 h 1.5875 V 30.1625 h 8.73125 v -0.79375 h -6.35 v -1.5875 h 0.79375 V 26.9875 h -1.5875 v -0.79375 h -0.79375 v -1.5875 h -0.79375 V 23.8125 Z m 11.90625,5.55625 h 0.79375 v -1.5875 h -0.79375 z m 0,-1.5875 V 26.9875 h -0.79375 v 0.79375 z m -9.525,-0.79375 h 0.79375 v 2.38125 h -0.79375 z m 4.7625,0 v 0.79375 h 2.38125 V 26.9875 Z m -7.9375,1.5875 -0.264583,0.264583 v 1.852083 h 0.79375 l 0.264583,0.264584 h 0.79375 V 28.575 Z m -9.5249996,6.35 -0.79375,0.79375 v 0.79375 h -1.5875 v 5.556249 h 0.79375 v 0.79375 h -0.79375 v 0.79375 h 2.38125 V 35.71875 H 14.552083 V 34.925 Z m 0,8.731249 v 7.14375 h 7.1437496 v -3.96875 L 14.2875,46.566666 v -0.264583 l 0.264583,-0.264584 v -0.79375 L 14.2875,44.979166 v -0.264583 l 0.264583,-0.264584 h 7.14375 v -0.79375 h -7.14375 l -0.529166,0.529167 v 0.79375 l -0.264584,0.264583 H 8.9958334 v 1.5875 h 4.7624996 v 0.79375 H 8.9958334 v 2.38125 h -0.79375 v -5.55625 h 1.5875 l 0.2645836,-0.264583 h 0.264583 l 0.264583,0.264583 h 0.79375 l 0.264584,-0.264583 v -0.264583 l -0.264584,-0.264584 h -0.79375 L 10.31875,43.920833 H 10.054167 L 9.7895834,43.656249 Z m -2.38125,-0.79375 v -0.79375 H 4.2333335 v 0.79375 z M 4.2333335,42.068749 V 39.6875 L 3.9687501,39.422916 V 39.158333 L 4.2333335,38.89375 V 38.1 L 3.9687501,37.835416 H 3.7041668 L 3.4395835,38.1 v 0.79375 l 0.2645833,0.264583 v 0.264583 L 3.4395835,39.6875 v 2.381249 z M 15.345833,34.925 v 0.79375 h 0.79375 V 34.925 Z m 7.14375,8.731249 v 0.79375 h 0.79375 v -0.79375 z"
       style="fill:#717171;fill-opacity:1;stroke-width:1.19062;stroke-linecap:round;stroke-linejoin:round"
       id="path912" />
  </g>
  <g
     id="layer5"
     style="display:inline">
    <path
       d="M 33.602083,15.08125 V 15.875 h 0.79375 l 0.264583,-0.264584 V 15.345833 L 34.395833,15.08125 Z m -17.4625,8.73125 v 0.79375 h -0.79375 V 25.4 h -0.79375 v 1.5875 h 1.5875 V 25.4 h 0.79375 v -0.79375 h 0.79375 V 23.8125 Z m -0.79375,4.7625 v 1.5875 h 0.79375 v 0.79375 h 1.5875 V 30.1625 h -0.79375 V 28.575 Z m -10.3187496,6.35 v 0.79375 h 2.38125 V 34.925 Z m 0,0.79375 H 4.2333335 V 36.5125 H 5.0270834 Z M 4.2333335,36.5125 h -0.79375 V 38.1 h 0.79375 z m -0.79375,2.38125 v 0.79375 h 0.79375 v -0.79375 z m 6.3499999,4.762499 v 0.79375 h 0.7937496 v -0.79375 z m 1.5874996,0 v 0.79375 h 2.38125 v 0.79375 h 0.79375 v -1.5875 z m 2.38125,2.38125 v 0.79375 h 0.79375 v -0.79375 z"
       style="fill:#b2b2b2;fill-opacity:1;stroke-width:1.19062;stroke-linecap:round;stroke-linejoin:round"
       id="path937" />
  </g>
  <g
     style="display:inline"
     id="layer8">
    <path
       d="m 32.014583,17.4625 v 0.79375 h 0.79375 V 17.4625 Z m 3.175,0 v 0.79375 h 0.79375 V 17.4625 Z"
       style="fill:#d7d7d7;fill-opacity:1;stroke-width:1.19062;stroke-linecap:round;stroke-linejoin:round"
       id="path955" />
  </g>
  <g
     style="display:inline"
     id="layer6">
    <path
       d="M 34.395833,15.08125 V 15.875 h 0.79375 v -0.79375 z m 0.79375,0.79375 v 0.79375 h 0.79375 V 15.875 Z m -2.38125,0 v 0.79375 h 0.79375 V 15.875 Z"
       style="fill:#ff3fac;fill-opacity:1;stroke-width:1.19062;stroke-linecap:round;stroke-linejoin:round"
       id="path960" />
  </g>
  <g
     style="display:inline"
     id="layer7">
    <path
       d="m 30.427083,14.2875 v 0.79375 h 0.79375 V 14.2875 Z m 5.55625,0 v 0.79375 h 0.79375 V 14.2875 Z"
       style="fill:#ccff00;fill-opacity:1;stroke-width:1.19062;stroke-linecap:round;stroke-linejoin:round"
       id="path965" />
  </g>
</svg>
