<svg xmlns="http://www.w3.org/2000/svg" width="200" height="192" viewBox="0 0 52.917 50.8"><g style="display:inline;opacity:1"><path d="M25.665 6.35v3.969h.793v1.587h.794v.794h1.588v.794h-.794v3.968h-.794v-.793h-.794v-.794h-.793v-.794h-.794v-.793h-.794v-.794h-.794V12.7h-.793v-.794h-.794v-.793h.794v-.794h-2.382v.794h-1.587v.793h-.794v.794h-.794v.794h-.793v.793h-.794v.794h-.794v1.588h-.794v7.143h.794v-2.38l.265-.265v-1.059h.793v-.529h1.059l.264.265v.793h.794v-.793l.265-.265v-1.058h.793v-.53h6.35v6.35l-.529.53v1.058h-.264l-.265.265v.794l-.265.264h-.793v1.588h2.116v-1.323l.53-.53v-.793h.793V25.4h1.588v.794h-.794v.794l-.264.264v.265h-.794v1.323h2.116v-1.588h.794v-.53l1.323-1.322h.794v-.794h1.587v-.794h.794v-.793h.794v-.794h.794v-1.587l1.852-1.853h.793v-.793h5.027v1.587l.265.265v.793h.794v-.793l.264-.265h.794v.794h1.588v.53h1.852v1.057l.264.265v1.587h.794v-3.968h-.794v-2.382h-.793v-1.587h-.794v-.794h-.794v-.793h-.794v-.794h-.793V12.7h-.794v-.794h-.794v-.793h.794v-.794H41.54v.794h-1.588v.793h-.794v.794h-.793v.794l-.265.264h-.265l-.264-.264h-.794V12.7h-.794v-.794h-.793V9.525h-.794V7.937h-.794v-.793h-.794V6.35h-.793v4.763h.793v.793h-1.587v-.793h-.794V9.524h-.794V8.73h-.793v-.794h-1.588v-.793h-.794V6.35zm-7.673 20.373-.265.265v.793l.265.265h3.175v-1.323zm.264 2.381v1.588l.265.264h.794l.264-.264v-1.588zm-10.318 6.35v7.673h12.435v-7.673zm7.143 11.113v1.323h12.436v-1.323z" style="fill:#0f0f0f;fill-opacity:1;stroke-width:1.19062;stroke-linecap:round;stroke-linejoin:round"/></g><g style="display:inline"><path d="m28.31 10.848-.264.264v.794h1.587v-.793h-.793l-.265-.265ZM20.108 12.7v1.587h-.793v1.588h-.794v2.381h-.794v1.588h.794v-.794h.794v-.794h2.38v.794h1.588v.794h.794v1.587h.794v3.175h.794V23.02h.793v-1.59h.794v-1.587h-.794v-1.588h-.793v-.794h-.794v-.793h-.794v-.794h-.794v-.794h-.793v-.793h-.794v-.794h-.794V12.7Zm4.763 11.906h-.794v1.588h.794zm-7.144-6.35v-2.381h.794v-1.587h-.794v.793h-.794v1.588h-.793v1.587h-.794v1.588h-.794v1.587h.794v-.794h.794v-.793h.793v-1.588zm.794-3.968h.794v-.794h-.794zM40.746 12.7v.794h-.794v.794h-.794v.793h-.793v-1.587h-.794v4.762h-.794v.794h1.588v-.794h2.38v.794h1.588v.794h.794v-3.969h-.794v-2.381h-.793V12.7Zm1.587.794h.794V12.7h-.794zm.794 0v2.381h.794v3.969h.794v.793h1.587v.794h1.588v.794h.793v-1.587h-.793v-2.382h-.794V16.67h-.794v-.794h-.794v-.794h-.793v-.793h-.794v-.794zm-6.35 5.556h-.794v.794h.794zm-.794.794h-4.762v.793h4.762zm-4.762 0v-.794h-1.588v.794zm-1.588-.794v-.794h-.793v.794Zm-.793-.794v-.794h-.794v.794zm5.027-2.646-.53.53v.264l.265.265h1.588l.264-.265v-.264l-.529-.53Zm-2.646 1.852v.794h.794l.264.265v-.794l-.264-.265Zm1.587 0-.264.265v.794h1.323l.529.529h.794v-.794l.264-.264v-.265l-.264-.265ZM29.633 25.4v.794h.794V25.4Zm0 .794h-.793v.793h-.794v1.588h-1.588v-.794l-.264-.264h-1.059l-.264.264v.794h-1.588l-.264.265v.793h6.35l.529-.529v-1.058l-.53-.53v-.264l.265-.264ZM17.727 27.78v.794l.794.794h.794l.264.264h1.588v-1.587l-.265-.265h-.794l-.264.265h-.265l-.264-.265Zm-3.175 7.144-.265.265v.264l.265.265h.794l.264-.265h.265l.265.265h3.968v7.143h-2.38v-.793h-.795v.793h-8.73V35.72l-.265-.265H5.292l-.265.265-1.058 1.058v5.027l1.323 1.323v.265h1.852l.529.529h12.964l.265-.265v-8.731H16.14l-.265.265h-.265l-.264-.265Zm2.381 7.144V40.48h-.793v1.588zm-.793-3.175v.793h.793v-.793zm5.556 4.762-.265.265v.264H7.938v6.086h6.085l.53.529h13.493v-7.144h-4.763l-.264.265h-.265l-.264-.265zm-6.35 3.175h11.906v.794H15.346z" style="fill:#3e3e3e;fill-opacity:1;stroke-width:1.19062;stroke-linecap:round;stroke-linejoin:round"/></g><g style="display:inline"><path d="M26.458 8.731v1.588h.794v.793h1.588v-.793h-.794v-.794h-.794v-.794zm4.763 5.556-.794.794v.794h1.588v-1.587zm5.027.53-.265.264v.794h.794v-.794l-.264-.264Zm-3.969 3.175-.264.264v.794h2.38v-.794h-1.587l-.264-.264Zm-14.552 5.82-.265.265h-.793v1.058h-.794v1.588l.265.264h3.175v3.97h1.587v-.794h8.731v-.794h-6.35V27.78h.794v-.793H22.49v-.794h-.794v-1.588h-.794v-.794Zm11.906 5.557h.794V27.78h-.794zm0-1.588v-.793h-.793v.793zm-9.525-.793h.794v2.38h-.794zm4.763 0v.793h2.381v-.793Zm-7.938 1.587-.264.265v1.852h.794l.264.264h.794v-2.381Zm-9.525 6.35-.793.794v.793H5.027v5.557h.794v.793h-.794v.794h2.381V35.72h7.144v-.794Zm0 8.731V50.8h7.144v-3.969l-.264-.264v-.265l.264-.265v-.793l-.264-.265v-.264l.264-.265h7.144v-.794h-7.144l-.53.53v.793l-.264.265H8.996v1.587h4.762v.794H8.996v2.381h-.794V44.45H9.79l.264-.265h.265l.264.265h.794l.265-.265v-.264l-.265-.265h-.794l-.264.265h-.265l-.264-.265Zm-2.38-.794v-.793h-.795v.793zm-.795-.793v-2.382l-.264-.264v-.265l.264-.264V38.1l-.264-.265h-.265l-.264.265v.794l.264.264v.265l-.264.264v2.382zm11.113-7.144v.794h.794v-.794Zm7.144 8.731v.794h.793v-.794z" style="fill:#717171;fill-opacity:1;stroke-width:1.19062;stroke-linecap:round;stroke-linejoin:round"/></g><g style="display:inline"><path d="M33.602 15.081v.794h.794l.264-.265v-.264l-.264-.265ZM16.14 23.813v.793h-.794v.794h-.794v1.587h1.588V25.4h.793v-.794h.794v-.794Zm-.794 4.762v1.587h.794v.794h1.587v-.793h-.794v-1.588Zm-10.319 6.35v.794h2.381v-.794Zm0 .794h-.794v.794h.794Zm-.794.794H3.44V38.1h.793zm-.793 2.38v.795h.793v-.794zm6.35 4.763v.794h.793v-.794zm1.587 0v.794h2.381v.794h.794v-1.588zm2.381 2.381v.794h.794v-.794z" style="fill:#b2b2b2;fill-opacity:1;stroke-width:1.19062;stroke-linecap:round;stroke-linejoin:round"/></g><g style="display:inline"><path d="M32.015 17.462v.794h.793v-.794Zm3.175 0v.794h.793v-.794Z" style="fill:#d7d7d7;fill-opacity:1;stroke-width:1.19062;stroke-linecap:round;stroke-linejoin:round"/></g><g style="display:inline"><path d="M34.396 15.081v.794h.794v-.794zm.794.794v.794h.793v-.794Zm-2.382 0v.794h.794v-.794Z" style="fill:#ff3fac;fill-opacity:1;stroke-width:1.19062;stroke-linecap:round;stroke-linejoin:round"/></g><g style="display:inline"><path d="M30.427 14.287v.794h.794v-.793Zm5.556 0v.794h.794v-.793Z" style="fill:#cf0;fill-opacity:1;stroke-width:1.19062;stroke-linecap:round;stroke-linejoin:round"/></g></svg>