<svg xmlns="http://www.w3.org/2000/svg" width="78" height="87" viewBox="0 0 20.637 23.019"><g style="display:inline"><path transform="translate(-12.17 -27.781) scale(.26458)" d="M87 125v36h-1l-1 1v3h-3l-1 1v1l1 1v18h6l1 1h4l1-1h15l1 1h4l1-1h3v-6l1-1v-3h-3v-10l-1-1v-40h-10v8H92v-8zm-28 15v9l-1 1v9h9l1 1h3v-6l-1-1v-12l-1-1z" style="fill:#0f0f0f;fill-opacity:1;stroke:none;stroke-width:240;stroke-linecap:round;stroke-linejoin:round"/></g><g style="display:inline"><path transform="translate(-12.17 -27.781) scale(.26458)" d="M114 131v5h3v9h6l1-1v-9h-3v-3h-3l-1-1zm-56 7v12h3l1-1v-3l5-5h3v-3zm36 6v3h-3v3l-1 1v3h14v-3h3v-6l-1-1zm0 24-1 1v1l1 1h6l1-1v-1l-1-1zm0 6-1 1v1l1 1h6l1-1v-1l-1-1z" style="fill:#3e3e3e;fill-opacity:1;stroke:none;stroke-width:240;stroke-linecap:round;stroke-linejoin:round"/></g><g style="display:inline"><path transform="translate(-12.17 -27.781) scale(.26458)" d="m94 117-1 1v3h3v12h3l1-1v-12h-3v-3zm18 0-1 1v24h3v16h-6v3l1 1h9v-3h3v-3h3v-12h-6v-9h-3l-1-1v-1l1-1h3v-12h-3v-3zm-33 15v3h-3v9l1 1h3v-3h3v-9l-1-1zm13 2-1 1-1 1v3h5v-5zm7 0v5h5v-5zm-37 9v3l-1 1v3l1 1v1l-1 1v3h6v-6l-1-1v-1l1-1v-3l-1-1zm8 10v6h-3v3h3v3h3l1-1v-7l-1-1v-3zm7 11-1 1v3h3l1-1v-3zm11 4v3h6v-3zm30 0-1 1v3h3v3h3l1-1v-3h-3v-3zm-18 6v3h6v-3zm-12 12v3h3v3h3v-6zm21 0v3h3v3h3v-6z" style="fill:#717171;fill-opacity:1;stroke:none;stroke-width:240;stroke-linecap:round;stroke-linejoin:round"/></g><g style="display:inline;opacity:1"><path transform="translate(-12.17 -27.781) scale(.26458)" d="M88 117v3h-3v12h-3v9h-3v3h-3v12h3v3h3v3h27v-3h6v-3h3v-12h-3v-3h-3v-6h3v-15h-3v-3h-6v3h-3v12h-6v-12h-3v-3zm-6 45h-3v-3h-3v-3h-3v9h6v3h3zm6-36h3v9h3v3h-3v-3h-3zm18 0h3v9h-3zm-6 9h3v3h-3zm-39 6v6h3v-3h3v-3zm3 6v3h3v-3zm0 3h-3v3h3zm24-9h18v9h-3v3H91v-3h-3zm27 24v12h3v3h6v-6h-3v-3h-3v-6zm-15 3v3h6v-3zm-12 6v3h6v-3z" style="fill:#b2b2b2;fill-opacity:1;stroke:none;stroke-width:240;stroke-linecap:round;stroke-linejoin:round"/></g><g style="display:inline"><path transform="translate(-12.17 -27.781) scale(.26458)" d="M49 105v3h-3v18h3v3h9v3h3v3h3v-6h6v-3h3v-18h-3v-3zm39 15v3h3v-3zm18 0v3h3v-3z" style="fill:#d7d7d7;fill-opacity:1;stroke:none;stroke-width:240;stroke-linecap:round;stroke-linejoin:round"/></g><path d="M13.758 29.369h1.588v.793h.794v-.793h1.587v2.381h-.794v.794h-.793v.794h-.794v-.794h-.794v-.794h-.794z" style="fill:#ff3fac;fill-opacity:1;stroke:none;stroke-width:63.5;stroke-linecap:round;stroke-linejoin:round" transform="translate(-12.17 -27.781)"/></svg>