<?xml version="1.0" encoding="UTF-8" standalone="no"?>
<svg
   xmlns:dc="http://purl.org/dc/elements/1.1/"
   xmlns:cc="http://creativecommons.org/ns#"
   xmlns:rdf="http://www.w3.org/1999/02/22-rdf-syntax-ns#"
   xmlns:svg="http://www.w3.org/2000/svg"
   xmlns="http://www.w3.org/2000/svg"
   id="svg8"
   version="1.1"
   viewBox="0 0 69.056249 34.925001"
   height="132"
   width="261">
  <defs
     id="defs2" />
  <metadata
     id="metadata5">
    <rdf:RDF>
      <cc:Work
         rdf:about="">
        <dc:format>image/svg+xml</dc:format>
        <dc:type
           rdf:resource="http://purl.org/dc/dcmitype/StillImage" />
        <dc:title></dc:title>
      </cc:Work>
    </rdf:RDF>
  </metadata>
  <g
     transform="translate(-4.7624999,-15.875)"
     style="display:inline"
     id="layer2">
    <path
       id="path850"
       d="m 6.3499999,50.799999 h -0.79375 v -10.31875 l 0.2645834,-0.264583 h 1.0583333 v -0.79375 h 1.3229166 v 0.79375 h 1.8520838 v -1.5875 h 2.116666 v 1.5875 h 2.645833 v -0.79375 h 0.79375 v -2.38125 h 1.5875 v -0.79375 h 0.79375 v -0.79375 h 0.79375 v -5.027083 h -0.79375 v -0.79375 h -7.143749 v -4.497917 h 14.022916 v 10.054167 h -0.529167 v 1.852083 l 0.264584,0.264584 v 3.704166 H 22.489583 L 22.225,41.274999 v 7.9375 h 0.79375 v 0.79375 H 28.575 v -9.525 h 3.96875 l 0.264583,0.264584 h 0.264583 L 33.3375,40.481249 h 2.38125 v 2.38125 h 0.79375 v 0.79375 h 0.79375 v 6.35 h 15.081249 l 0.264584,0.264584 h 11.641666 v -6.085417 h -8.466666 v -0.79375 h -0.529167 v -7.408333 h 0.79375 v -7.672917 h 7.9375 v -5.027083 l 0.264583,-0.264583 v -3.175 l 0.264584,-0.264584 h 1.058333 l 0.264583,0.264584 v 3.96875 l -0.264583,0.264583 v 5.820833 h 0.529166 v 8.73125 h 0.79375 v 4.7625 h -0.529166 v 0.79375 h -0.529167 v 6.35 H 52.652083 l -0.264584,0.264583 H 37.30625 v -0.79375 H 36.5125 v -6.35 h -0.79375 v 7.14375 H 31.75 L 31.485416,50.535416 H 29.633333 L 29.36875,50.799999 H 26.9875 L 26.722916,50.535416 H 25.664583 L 25.4,50.799999 h -2.38125 v -0.79375 H 22.225 v -0.79375 H 21.166666 V 40.745833 H 23.01875 V 36.5125 h 0.79375 l 0.264583,-0.264584 v -0.79375 H 22.225 v 3.704167 H 21.43125 V 35.454166 H 19.314583 L 19.05,35.71875 v 1.5875 l -0.264584,0.264583 H 17.727083 L 17.197916,37.041666 H 16.66875 V 38.1 l 0.264583,0.264583 v 1.058333 h 0.79375 v 0.79375 h 0.79375 v 0.79375 l -0.264583,0.264583 v 1.5875 H 17.4625 l -0.264584,0.264584 h -4.233333 v 2.645833 L 12.7,46.037499 v 0.79375 l -0.264583,0.264584 v 1.5875 h 2.381249 v 0.264583 l 0.264584,0.264583 H 15.875 v 1.5875 h -1.5875 v -0.79375 l -0.264584,-0.264583 h -0.264583 l -0.264583,0.264583 v 0.79375 h -3.175 v -0.79375 L 10.054167,49.741666 H 9.7895832 l -0.2645833,0.264583 v 0.79375 h -1.5875 v -1.5875 h 0.79375 L 8.9958332,48.947916 H 11.1125 V 43.127083 H 8.2020832 L 7.9374999,42.862499 v -0.79375 H 6.6145832 v 8.466667 z"
       style="fill:#0f0f0f;fill-opacity:1;stroke-width:0.264999" />
  </g>
  <g
     transform="translate(-4.7624999,-15.875)"
     style="display:inline;opacity:1"
     id="layer3">
    <path
       transform="scale(0.26458333)"
       d="m 39,93 v 3 l 1,1 h 1 l 1,-1 h 9 l 1,1 h 7 l 1,-1 h 33 v 36 l -1,1 h -1 l -1,-1 H 72 l -1,1 v 1 l 1,1 h 18 l 1,1 v 1 l -1,1 v 3 h 3 v -3 l -1,-1 v -1 l 1,-1 h 3 l 1,-1 V 94 l -1,-1 z m 209,2 v 5 h 3 v 6 h 3 v 5 h 4 v -3 l 1,-1 v -3 h -3 v -4 l -2,-2 h -1 v -1 l -2,-2 z m -179,7 -1,1 v 1 l 2,2 h 1 l 1,-1 v -3 z m 6,9 -1,1 v 1 l 2,2 h 1 l 1,-1 v -3 z m 145,2 -2,2 v 3 h 3 l 1,-1 v -3 l -1,-1 z m 21,0 -1,1 v 3 l 1,1 h 3 v -3 l -2,-2 z m -33,9 -1,1 v 6 h 3 v 3 l 1,1 h 1 v 6 h 3 v 3 h 6 v 3 h 6 l 1,-1 v -3 h -3 v -3 h -6 v -3 h -3 v -3 l -1,-1 h -1 v -1 l -2,-2 h -1 v -6 z m 11,13 h 6 v 3 h 12 v -3 h 6 v -6 h 3 v -3 l -1,-1 h -1 l -2,2 v 1 h -3 v 3 h -16 v -3 h -3 v -1 l -2,-2 h -1 l -1,1 v 3 h 3 z m 24,0 v 3 h -6 v 3 h -3 v 3 l 1,1 h 6 v -3 h 6 v -3 h 3 v -6 h 1 l 1,-1 v -3 h 3 v -6 l -1,-1 h -3 v 6 h -1 l -2,2 v 1 h -1 l -1,1 v 3 z M 26,128 v 3 h -1 l -1,1 v 3 h 3 l 1,-1 v -1 h 3 v -5 z m 9,12 v 3 h -3 v 9 l 1,1 v 9 l -1,1 v 7 l 1,1 h 3 v 3 h 18 v -3 l -1,-1 h -1 v -7 l -1,-1 v -6 l -1,-1 h -1 v -7 h 3 v -5 h -3 v -3 z m 8,6 h 1 l 1,1 v 3 l -1,1 v 1 l 1,1 v 9 l -1,1 h -4 l -1,-1 v -9 l 1,-1 v -1 l -1,-1 v -3 h 3 z m 31,0 v 3 h -7 l -1,1 v 3 h 3 v 3 h 6 v 36 h 3 l 1,-1 v -33 l 2,-2 h 15 v 36 h 3 l 1,-1 v -34 h 1 l 1,-1 v -3 l -1,-1 H 79 v -4 l -2,-2 z m -56,1 v 6 h 9 v -3 l 1,-1 v -1 l -1,-1 z m 192,3 -1,1 v 1 h -3 v 3 h -3 v 5 h 5 v -3 h 1 l 2,-2 v -1 h 3 v -3 l -1,-1 z m 39,0 -1,1 v 3 h 3 v 1 l 2,2 h 1 v 3 h 5 v -5 h -3 v -3 h -3 v -1 l -1,-1 z m -26,5 -1,1 v 3 h 3 v -3 l -1,-1 z m 12,0 -1,1 v 3 h 3 v -3 l -1,-1 z m -211,1 v 9 l 1,1 v 4 l -1,1 v 21 h 3 v -21 l 1,-1 v -7 l -1,-1 v -6 z m 204,0 v 3 h 3 v -3 z m -104,2 -1,1 v 3 l 1,1 h 1 l 1,-1 v -3 l -1,-1 z m -13,1 v 3 h 6 l 1,-1 v -1 l -1,-1 z m 13,5 -1,1 v 15 h 3 v -15 l -1,-1 z m -13,1 v 3 h 9 v -3 z m -66,12 v 6 H 33 v 3 h 3 v 3 h 3 v -3 h 6 v 3 h 9 v -3 h 3 v -3 h -9 v -6 z m 66,0 v 3 l 1,1 v 1 l -1,1 v 3 l 1,1 v 1 l -1,1 v 3 h 3 l 1,-1 h 1 l 1,1 h 3 v -3 l -1,-1 v -1 l 1,-1 v -3 l -1,-1 v -1 l 1,-1 v -3 h -3 l -1,1 h -1 l -1,-1 z m 12,6 v 3 h 3 v -3 z m 84,0 v 4 h -2 l -1,-1 h -3 v 3 h -3 v 3 h 3 l 1,-1 h 9 v -7 l -1,-1 z m 45,0 -1,1 v 7 h 9 l 1,1 h 3 v -3 h -3 v -3 h -3 l -1,1 h -2 v -4 z"
       style="fill:#3e3e3e;fill-opacity:1;stroke-width:1.00157"
       id="path869" />
  </g>
  <g
     transform="translate(-4.7624999,-15.875)"
     style="display:inline"
     id="layer4">
    <path
       transform="scale(0.26458333)"
       d="m 219,60 v 3 h -9 v 3 h -6 v 3 h -3 v 6 h 3 l 1,-1 h 52 l 1,1 h 3 v -6 h -3 v -3 h -6 v -3 h -9 V 60 Z M 96,93 v 42 h 3 V 93 Z m -63,3 v 3 h -3 v 12 h -3 v 3 h -3 v 18 h 3 v -3 h 3 v 3 h -3 v 18 h 3 v 3 h 3 v -9 h 3 v -3 h 12 v 3 h 3 v 3 l -1,1 v 4 h -1 l -1,1 v 3 h 3 v -3 h 6 v -3 h 3 v -9 l 1,-1 V 128 H 31 v -13 h 6 V 97 l -1,-1 z m 18,0 v 3 h -3 v 12 l 1,1 h 6 V 97 l -1,-1 z m 162,0 v 3 h -3 v 6 h -3 v 18 h 3 v 6 h 3 v -15 h 3 v -3 h 3 v -3 h 24 v 3 h 3 v 3 h 3 v 15 h 3 v -6 h 3 v -18 h -3 v -6 h -3 l -1,-1 v -2 z m 36,33 h -3 v 3 h 3 z m -3,-15 h -3 v 3 l -1,1 h -1 l -1,-1 h -3 v 3 h 3 l 1,-1 h 1 l 2,2 h 1 l 1,-1 z m -3,0 v -3 h -24 v 3 h 6 l 1,1 h 10 l 1,-1 z m -24,0 h -3 v 6 l 1,1 h 1 l 2,-2 h 1 l 1,1 h 3 v -3 h -3 l -1,1 h -1 l -1,-1 z m -6,15 v 3 h 3 v -3 z m 46,-25 -1,1 v 3 h 3 v -3 l -1,-1 z m -193,7 -1,1 v 12 h 6 l 1,-1 v -9 h -3 v -3 z m 160,14 -1,1 h -6 v 3 h 3 v 3 h 18 v -3 h 3 v -3 h -6 l -1,-1 z m -136,7 v 6 h 3 v -6 z m 121,2 -1,1 h -3 l -1,1 v 1 h -1 l -1,1 h -3 l -1,1 v 4 h -4 l -2,2 v 1 h -1 l -2,2 v 9 h 6 v 3 h 5 v -4 h 5 v -3 h 3 v -6 h 3 v -3 h 3 v 3 h -3 v 6 h -3 v 3 h 18 v -12 h -6 v -3 h -6 v -3 h -3 v -3 l -1,-1 z m 39,0 -1,1 v 3 h -3 v 3 h -6 v 3 h -9 v 12 h 21 v -3 h -3 v -6 h -3 v -3 h 3 v 3 h 3 v 6 h 3 v 3 h 5 v 4 h 5 v -3 h 6 v -9 l -2,-2 h -1 v -1 l -2,-2 h -4 v -4 l -1,-1 h -3 l -1,-1 h -1 v -1 l -1,-1 h -3 l -1,-1 z m -184,7 v 3 h -3 v 3 l 1,1 h 6 l 2,2 h 3 v -3 l -1,-1 h -4 v -4 l -1,-1 z m -24,3 v 3 h 3 l 1,-1 v -1 l -1,-1 z m 36,3 v 6 h 27 v -6 z m -39,3 v 3 h 6 v -3 z m 84,3 v 6 h 3 v -6 z m -45,3 v 36 h 3 v -36 z m 21,0 v 36 h 3 v -36 z m 111,3 -1,1 v 3 h 3 v 3 h 14 v -3 l -1,-1 h -3 v -3 z m 27,0 v 3 h -3 l -1,1 v 3 h 17 v -3 h 3 v -3 l -1,-1 z m -210,3 v 3 h -3 v 6 h 9 v -9 z m 12,0 v 9 h 6 v -9 z m 12,0 v 9 h 6 v 3 l 1,1 h 1 l 2,-2 v -1 h 1 l 1,-1 h 6 v -6 h -3 v -3 z m 72,0 v 3 h 3 v -3 z m -9,15 v 3 h 3 v -3 z m 3,3 v 3 h 3 v -3 z m 0,3 h -3 v 3 h 3 z m 0,3 v 3 h 3 v -3 z m 0,3 h -3 v 3 h 3 z m -3,0 v -3 h -3 v 3 z m 0,-6 v -3 h -3 v 3 z m 96,0 v 3 h -6 v 3 h -3 v 3 h 60 v -3 h -3 v -3 h -6 v -3 h -6 l -1,1 v 4 h -28 v -4 l -1,-1 z"
       style="fill:#717171;fill-opacity:1;stroke-width:1.00157"
       id="path953" />
  </g>
  <g
     transform="translate(-4.7624999,-15.875)"
     style="display:inline"
     id="layer5">
    <path
       transform="scale(0.26458333)"
       d="m 204,72 v 3 h 6 l 1,-1 h 1 l 1,1 h 3 l 1,-1 v -1 l -1,-1 h -3 l -1,1 h -1 l -1,-1 z m 42,0 -1,1 v 1 l 1,1 h 3 l 1,-1 h 1 l 1,1 h 6 v -3 h -6 l -1,1 h -1 l -1,-1 z m -21,15 v 3 h -6 v 3 h -3 v 6 h 3 v 3 h 24 v -3 h 6 v -3 h 3 v -3 h -3 v -3 h -6 v -3 z m 27,9 v 3 h 3 v -3 z m 3,3 v 6 h 6 v -3 h -3 V 99 Z M 36,96 v 3 h -3 v 9 h 3 v 3 h -3 v 3 h -3 v 15 h 27 v 3 h 3 v 9 h 6 v -3 h 3 v -3 h 3 v -12 h -3 v -3 h -3 v -9 H 63 V 99 h -3 v -3 h -6 v 3 h -3 v 9 h 3 v 3 H 45 V 99 h -3 v -3 z m 189,18 v 3 h 3 v 3 h -3 v 6 h 12 v -6 h -3 v -3 h 3 v -3 z m -6,3 v 3 h 3 v -3 z m 0,3 h -3 v 6 h 3 z m 21,-3 v 3 h 3 v -3 z m 3,3 v 6 h 3 v -6 z m -38,17 -1,1 v 3 h -3 l -1,-1 h -1 l -2,2 v 1 l 1,1 v 3 h 6 v -3 h 3 v -3 h 3 v -3 h -3 l -1,-1 z m 51,0 -1,1 h -3 v 3 h 3 v 3 h 3 v 3 h 6 v -3 l 1,-1 v -1 l -2,-2 h -1 l -1,1 h -3 v -3 l -1,-1 z m -187,4 v 3 h -3 v 3 h -3 v 3 h 9 v -3 h 6 v -3 h -3 v -3 z m -24,3 v 3 h 3 v -3 z m 3,3 v 6 h 3 v -6 z m 147,6 v 3 h -4 v 7 h 2 v 3 h 10 v -6 l 1,-1 v -6 z m 63,0 v 6 l 1,1 v 6 h 10 v -3 h 2 v -7 h -4 v -3 z m -60,3 h 3 v 3 h -3 z m 63,0 h 3 v 3 h -3 z M 60,171 v 3 h 3 v -3 z m 0,3 h -3 v 3 h 3 z m 156,9 v 3 h -6 v 3 h 9 l 1,-1 h 22 l 1,1 h 9 v -3 h -6 v -3 h -9 l -1,1 h -10 l -1,-1 z"
       style="fill:#b2b2b2;fill-opacity:1;stroke-width:1.00157"
       id="path1007" />
  </g>
  <g
     transform="translate(-4.7624999,-15.875)"
     id="layer6">
    <path
       transform="scale(0.26458333)"
       d="m 210,72 v 3 h 3 v -3 z m 6,0 v 3 h 30 v -3 z m 33,0 v 3 h 3 V 72 Z M 39,99 v 6 h 3 v -6 z m 18,0 v 6 h 3 v -6 z m -18,9 v 3 h 3 v -3 z m 18,0 v 3 h 3 v -3 z m 168,75 v 3 h -6 v 3 h 24 v -3 h -6 v -3 z"
       style="fill:#d7d7d7;fill-opacity:1;stroke-width:1.00157"
       id="path1094" />
  </g>
  <g
     transform="translate(-4.7624999,-15.875)"
     id="layer7">
    <path
       transform="scale(0.26458333)"
       d="m 210,132 v 3 h 3 v -3 z m 39,0 v 3 h 3 v -3 z m -45,3 v 3 h 3 v -3 z m 51,0 v 3 h 3 v -3 z m -57,3 v 3 h 3 v -3 z m 0,3 h -3 v 3 h 3 z m -3,3 h -3 v 3 h 3 z m -3,3 h -3 v 6 h -3 v 3 h 3 v 3 h -6 v 3 h 6 v 3 h 3 v 3 h 12 v -3 h 6 v 3 h 42 v -3 h 6 v 3 h 12 v -3 h 3 v -6 h 3 v -3 h -3 v -3 h 6 v -3 h -6 v -3 h -3 v 15 h -3 v 3 h -6 v -6 h -6 v -3 h -3 v 6 h -3 v 3 h -3 v -3 h -3 v 3 h -9 v -3 h -3 v 3 h -3 v -3 h -3 v 3 h -12 v -3 h -3 v -6 h -3 v 3 h -6 v 6 h -6 v -3 h -3 z m 78,0 v -3 h -3 v 3 z m -3,-3 v -3 h -3 v 3 z m -3,-3 v -3 h -3 v 3 z m -81,6 v 3 h 3 v -3 z m -66,12 v 3 h 3 v -3 z m 159,3 v 3 h 3 v -3 z m -66,9 v 3 h 18 v -3 z m 21,0 v 3 h 15 v -3 z m 18,0 v 3 h 3 v -3 z m -33,6 v 3 h 3 v -3 z m 6,0 v 3 h 6 v -3 z m 18,0 v 3 h 6 v -3 z"
       style="fill:#ff3fac;fill-opacity:1;stroke-width:1.00157"
       id="path1114" />
  </g>
  <g
     transform="translate(-4.7624999,-15.875)"
     id="layer8">
    <path
       transform="scale(0.26458333)"
       d="m 66,102 v 3 h 3 v -3 z m 3,3 v 3 h 3 v -3 z m 6,-3 v 6 h 3 v -6 z m 6,0 v 6 h 3 v -6 z m -9,9 v 3 h 3 v -3 z m 3,3 v 3 h 3 v -3 z m 6,-3 v 6 h 3 v -6 z m -6,9 v 6 h 3 v -6 z m 6,3 v 3 h 3 v -3 z m 36,48 v 3 h 3 v -3 z"
       style="fill:#ccff00;fill-opacity:1;stroke-width:1.00157"
       id="path1143" />
  </g>
  <g
     transform="translate(-4.7624999,-15.875)"
     id="layer9">
    <path
       transform="scale(0.26458333)"
       d="m 207,81 v 9 h 3 v -9 z m -6,3 v 9 h 3 v -9 z m 6,9 v 3 h 3 v -3 z m -6,3 v 3 h 3 v -3 z"
       style="fill:#2f7f6f;fill-opacity:1;stroke-width:1.00157"
       id="path1160" />
  </g>
</svg>
