<svg xmlns="http://www.w3.org/2000/svg" viewBox="0 0 27.781 18.256" height="69" width="105"><g style="display:inline"><path d="M28.575 49.212h-.794v-2.38h-1.587V50.8h3.969l.264-.265v-1.058h8.996v1.058l.264.265h12.7v-.794h.794v-.794h.794v-2.38h-.794v.793h-1.587v-.794H50.8v-3.969h-.794v-1.587h-.794v-.794h-1.587v-.794H38.1l-.265-.264H35.19v1.058h-2.646v.794h-.794v1.587h-.794v2.382H29.37v.793h-.794v2.382l.265.264h1.058l.265-.264v-.794h.793v.794h-.793l-.265.529H28.84z" style="fill:#0f0f0f;fill-opacity:1;stroke-width:.264999" transform="translate(-26.194 -32.544)"/></g><g style="display:inline"><path transform="translate(-26.194 -32.544) scale(.26458)" d="M137 152v5h3l1-1v-3l-1-1zm16 1v3l1 1h3v-3l-1-1zm15 0-1 1v3h3l1-1v-3zm19 14-1 1v6h3v-6l-1-1zm-51 6-1 1v12l1 1h4l1-1v-12l-1-1zm23 1-1 1v3h5v-3l-1-1zm-5 2-1 1v3h3l1-1v-3zm13 0v3l1 1h3v-3l-1-1zm-59 7v3h6v-3z" style="fill:#3e3e3e;fill-opacity:1;stroke-width:1.00157"/></g><g style="display:inline"><path transform="translate(-26.194 -32.544) scale(.26458)" d="M147 123v3h6v3h3v-3h3v-3zm6 6h-3v3h-3v3h12v-3h-6zm9 6v3h3v3h-3v3h9v-3h-3v-3h3v-3zm-18 18v3h3l1-1v-1l-1-1zm12 0v3l1 1h1l1-1v-3zm6 0v3l1 1h4v3h3l1-1v-3h-3v-3zm-26 2-1 1v3l1 1h4l1-1v-3h-3l-1-1zm19 3v8h11v-8h-3l-1 1h-3l-1-1zm32 6-1 1v3h3v-3l-1-1zm-51 6-1 1v3h6v-3l-1-1zm-13 13-1 1v3h3l1-1v-3z" style="fill:#717171;fill-opacity:1;stroke-width:1.00157"/></g><g style="display:inline"><path transform="translate(-26.194 -32.544) scale(.26458)" d="M132 147v3h-3v6h9v-3h3v-3h3v-3zm21 9v21h3v3h12v-3h3v-18h-3v-3h-6v3h3v6h-9v-6h3v-3zm33 6v3h3v-3zm-50 2-1 1v6h6v-6l-1-1zm23 4h3v9h-3zm-42 15v3h-3v6h36v-6h-27v-3z" style="fill:#b2b2b2;fill-opacity:1;stroke-width:1.00157"/></g><path transform="translate(-26.194 -32.544) scale(.26458)" d="M147 153v3h3v-3zm27 0v3h6v-3zm6 3v6h6v-6zm-45 3v6h6v-6z" style="fill:#d7d7d7;fill-opacity:1;stroke-width:1.00157"/></svg>