<?xml version="1.0" encoding="UTF-8" standalone="no"?>
<svg
   xmlns:dc="http://purl.org/dc/elements/1.1/"
   xmlns:cc="http://creativecommons.org/ns#"
   xmlns:rdf="http://www.w3.org/1999/02/22-rdf-syntax-ns#"
   xmlns:svg="http://www.w3.org/2000/svg"
   xmlns="http://www.w3.org/2000/svg"
   id="svg8"
   version="1.1"
   viewBox="0 0 42.068749 50.006251"
   height="189"
   width="159">
  <defs
     id="defs2" />
  <metadata
     id="metadata5">
    <rdf:RDF>
      <cc:Work
         rdf:about="">
        <dc:format>image/svg+xml</dc:format>
        <dc:type
           rdf:resource="http://purl.org/dc/dcmitype/StillImage" />
        <dc:title></dc:title>
      </cc:Work>
    </rdf:RDF>
  </metadata>
  <g
     transform="translate(-19.05,-0.79374999)"
     style="display:inline"
     id="layer2">
    <path
       transform="scale(0.26458333)"
       d="m 145,92 -1,1 v 12 l 1,1 h 7 v 8 l 1,1 h 1 l 2,2 h 6 v -3 h 3 v -6 h -3 v -3 h -6 v -9 l -1,-1 h -7 v -3 z m 26,13 v 3 h -3 v 6 h 3 v 3 h 6 v -3 h 3 v -6 h -3 v -3 z m -39,3 v 3 h 3 v 6 h -3 v 3 h -15 v 3 h -6 v 3 h -3 v 6 h -3 v 39 l 1,1 v 4 l -2,2 v 3 l -5,5 h -3 v -9 h -6 v 15 h 21 l 1,-1 h 1 l 1,1 h 18 l 1,-1 v -2 l 3,-3 v -2 h 2 l 1,-1 v -9 l 3,-3 v -8 h 5 l 1,-1 v -48 l -1,-1 h -2 v -1 l -1,-1 h -3 v -3 z m 33,12 v 3 h -6 v 3 h -3 l -1,1 v 4 h -2 l -1,1 v 30 l 1,1 h 5 v 8 l 1,1 h 2 v 11 l 1,1 h 2 v 2 l 1,1 h 2 v 4 l 1,1 h 18 l 1,-1 h 1 l 1,1 h 21 v -15 h -6 v 9 h -3 l -5,-5 v -3 l -2,-2 v -4 l 1,-1 v -39 h -3 v -6 h -3 v -3 h -6 v -3 z"
       style="fill:#0f0f0f;fill-opacity:1;stroke-width:1.00157"
       id="path850" />
  </g>
  <g
     transform="translate(-19.05,-0.79374999)"
     style="display:inline"
     id="layer3">
    <path
       transform="scale(0.26458333)"
       d="m 206,53 v 5 h 3 v 4 h -7 v -3 h -5 v 5 h 3 v 3 h 11 v -3 h 6 v -3 h 2 v -5 h -8 V 53 Z M 92,56 v 3 H 81 v 5 h 2 v 3 h 6 v 3 h 3 v 3 h 11 v -3 h 3 v -5 h -5 v 3 h -7 v -7 h 3 v -5 z m 36,9 v 5 h 3 v 3 h 3 v 3 h 3 v 1 h -3 v 3 h -3 v 3 h -7 v -4 h 3 v -5 h -5 v 3 h -3 v 3 h -7 v -4 h 3 v -5 h -5 v 3 h -3 v 6 h -3 v 3 h -7 v -4 h 3 v -5 h -5 v 3 h -3 v 3 h -3 v 3 h -7 v -4 h 3 v -5 h -5 v 3 h -4 v -3 h -3 l -1,1 v 3 h 3 v 3 h 3 v 6 h 3 v 3 h 9 v 3 h 3 v 3 h 9 v -3 h 6 v -3 h 3 v 3 h 3 v 3 h 9 v -3 h 3 v 3 h 12 v -3 h 3 v -3 h 3 v 3 l 3,10e-7 v 3 L 156,96 v -3 h 3 v -3 h 3 v 3 h 3 v 3 h 9 v -3 h 3 v 3 h 9 v -3 h 3 v -3 h 3 v 3 h 6 v 3 h 9 v -3 h 3 v -3 h 12 v -3 h 3 v -6 h 3 v -3 h 3 v -3 l -1,-1 h -3 v 3 h -4 v -3 h -5 v 5 h 3 v 4 h -7 v -3 h -3 v -3 h -3 v -3 h -5 v 5 h 3 v 4 h -10 v -3 h -3 v -3 h -3 v -3 h -3 v -3 h -5 v 5 h 3 v 4 h -7 v -3 h -3 v -3 h -5 v 5 h 3 v 4 h -7 v -3 h -3 v -3 h -5 v 6 h -3 v 3 h -7 v -6 h -5 v 3 h -4 v -4 h 9 v -3 h 3 v -5 h -5 v 3 h -7 v -4 h 3 v -5 h -5 v 3 h -4 v -3 z m 16,40 v 9 h 3 v 48 l -1,1 v 22 h -3 v 6 l 1,1 h 12 l 1,-1 v -6 h -3 v -22 l -1,-1 v -30 h 3 v -18 h -3 v -6 h 3 v -3 z m 16,5 -1,1 v 3 h 3 v -3 l -1,-1 z m 15,0 -1,1 v 3 h 3 v -3 l -1,-1 z m -46,13 -1,1 v 1 l 1,1 h 3 v -3 z m 39,0 v 3 h 3 l 1,-1 v -1 l -1,-1 z m -36,18 -1,1 v 3 h 3 l 1,-1 v -3 z m 33,0 v 3 l 1,1 h 3 v -3 l -1,-1 z m -35,8 -1,1 v 3 l 1,1 h 3 v -5 z m 38,1 -1,1 v 3 h 3 l 1,-1 v -3 z m -37,5 v 3 l 1,1 h 3 v -3 l -1,-1 z m 35,0 -1,1 v 3 h 3 l 1,-1 v -3 z m -61,16 v 6 h 3 l 1,-1 v -4 l -1,-1 z m 21,0 -1,1 v 4 l 1,1 h 12 l 1,1 h 3 v -6 l -1,-1 z m 33,0 -1,1 v 6 h 3 l 1,-1 h 12 l 1,-1 v -4 l -1,-1 z m 33,0 -1,1 v 4 l 1,1 h 3 v -6 z m -77,5 -1,1 v 3 h 6 v -3 l -1,-1 z m 5,4 v 6 h 9 v -3 h -6 v -3 z m -6,0 h -3 v 12 h 3 z m 67,-4 -1,1 v 3 h 6 v -3 l -1,-1 z m 5,4 v 12 h 3 v -12 z m -6,0 h -3 v 3 h -6 v 3 h 9 z m -45,3 v 3 l 1,1 h 3 v -3 l -1,-1 z m 27,0 -1,1 v 3 h 3 l 1,-1 v -3 z"
       style="fill:#3e3e3e;fill-opacity:1;stroke-width:1.00157"
       id="path859" />
  </g>
  <g
     transform="translate(-19.05,-0.79374999)"
     style="display:inline"
     id="layer4">
    <path
       transform="scale(0.26458333)"
       d="m 141,3 v 3 h -6 v 3 h -12 v 3 h -9 v 3 h -3 v 6 h -6 v 3 h -9 v 3 h -3 v 6 h -3 v 3 h -6 v 3 h -3 v 9 h -3 v 3 h -3 v 6 h 3 v 3 h 15 v -3 h 3 v 3 h -3 v 9 h 9 v -3 h 3 v 3 h -3 v 3 h -9 v -3 h -3 v -3 h -6 v -3 h -6 v 3 h -3 v 3 h -3 v 6 h 3 v 3 h 6 v -3 h 3 v 3 h -3 v 6 h 9 v -3 h 3 v -3 h 3 v -3 h 3 v 3 h -3 v 6 h 9 v -3 h 3 v -6 h 3 v -3 h 3 v 3 h -3 v 6 h 9 v -3 h 3 v -3 h 3 v 3 h -3 v 6 h 9 v -3 h 3 v -3 h 3 v -3 h -3 v -3 h -3 v -3 h -3 v -3 h 3 v 3 h 6 v -3 h 3 v 3 h -3 v 6 h 9 v -3 h 3 v 3 h -3 v 3 h -9 v 6 h 6 v -3 h 3 v 6 h 9 v -3 h 3 v -6 h 3 v 3 h 3 v 3 h 9 v -6 h -3 v -3 h 3 v 3 h 3 v 3 h 9 v -6 h -3 v -3 h 3 v 3 h 3 v 3 h 3 v 3 h 3 v 3 h 12 v -6 h -3 v -3 h 3 v 3 h 3 v 3 h 3 v 3 h 9 v -6 h -3 v -3 h 3 v 3 h 6 v -3 h 3 v -9 h -3 v -3 h -3 v -3 h -9 v 3 h -6 v 3 h -9 v -3 h -3 v -3 h 3 v 3 h 9 v -6 h -3 v -3 h 3 v 3 h 12 v -3 h 3 v -9 h -3 v -3 h -6 v -3 h -3 v -9 h -3 v -3 h -6 v -3 h -6 v -6 h -3 v -3 h -9 v -3 h -3 V 9 h -9 V 6 h -12 v 3 h -3 V 6 h -3 V 3 Z m -18,120 -1,1 v 1 l 1,1 h 6 v -3 z m 48,0 v 3 h 6 l 1,-1 v -1 l -1,-1 z m -62,11 -1,1 v 3 h 3 v -3 l -1,-1 z m 81,0 -1,1 v 3 h 3 v -3 l -1,-1 z m -82,7 v 3 l 1,1 h 22 v 3 h 3 l 1,-1 v -3 h -3 v -3 z m 60,0 v 3 h -3 v 3 l 1,1 h 1 l 2,-2 v -1 h 22 l 1,-1 v -3 z m -55,5 v 3 l 1,1 v 3 l -1,1 v 3 h 8 v -11 z m 66,3 v 8 h 8 v -3 l -1,-1 v -3 l -1,-1 z m -70,6 -1,1 v 3 h 3 l 1,-1 v -3 z m 79,0 v 3 l 1,1 h 3 v -3 l -1,-1 z m -80,16 v 6 h 3 l 1,-1 v -4 l -1,-1 z m 15,0 -1,1 v 4 l 1,1 h 3 v -6 z m 51,0 v 6 h 3 l 1,-1 v -4 l -1,-1 z m 15,0 -1,1 v 4 l 1,1 h 3 v -6 z m -51,6 v 3 l 1,1 h 3 v -3 l -1,-1 z m 21,0 -1,1 v 3 h 3 l 1,-1 v -3 z m -16,5 v 3 l 1,1 h 3 v -3 l -1,-1 z m 11,0 -1,1 v 3 h 3 l 1,-1 v -3 z m -22,4 v 3 l 1,1 h 3 v -3 l -1,-1 z m 33,0 -1,1 v 3 h 3 l 1,-1 v -3 z m -25,2 v 3 l 1,1 h 3 v -3 l -1,-1 z m 17,0 -1,1 v 3 h 3 l 1,-1 v -3 z"
       style="fill:#717171;fill-opacity:1;stroke-width:1.00157"
       id="path906" />
  </g>
  <g
     transform="translate(-19.05,-0.79374999)"
     style="display:inline"
     id="layer5">
    <path
       transform="scale(0.26458333)"
       d="m 150,9 v 12 h 3 v 3 h 6 V 12 h -3 V 9 Z m -12,3 v 3 h -3 v 9 h 6 v -3 h 3 v -3 h 3 v -6 z m 27,0 v 6 h 3 v 3 h 3 v 3 h 6 v -9 h -3 v -3 z m -45,6 v 3 h -3 v 9 h 6 v -3 h 3 v -3 h 3 v -6 z m 63,3 v 6 h 3 v 3 h 6 v -6 h -3 v -3 z m -45,6 v 3 h -3 v 3 h -3 v 9 h 6 v -3 h 3 v -3 h 3 v -9 z m 21,0 v 6 h 3 v 3 h 3 v 3 h 6 v -9 h -3 v -3 z m -51,3 v 3 h -3 v 6 h 6 v -3 h 3 v -6 z m 39,3 v 12 h 3 v 3 h 6 V 36 h -3 v -3 z m 30,0 v 6 h 3 v 3 h 6 v -6 h -3 v -3 z m -57,3 v 3 h -3 v 6 h 6 v -3 h 3 v -6 z m -12,108 v 6 h 6 v -3 h 6 v 9 h -6 v -3 h -6 v 3 h 3 v 3 h 21 v -3 h 3 v -9 h -3 v -3 z m 60,0 v 3 h 3 v 3 h 6 v 3 h -3 l -1,1 h -4 l -1,-1 v -6 h -3 v 9 h 3 v 3 h 21 v -3 l 1,-1 v -1 l -1,-1 h -3 v 3 h -6 v -6 h 12 v -6 z m -45,6 h 9 v 3 h -9 z m 18,12 v 18 h -3 v 6 h -3 v 3 h -3 v 3 h 9 v -3 h 3 v -6 h 3 v -21 z m 12,0 v 21 h 3 v 6 h 3 v 3 h 9 v -3 h -3 v -3 h -3 v -6 h -3 v -18 z m -36,9 -1,1 v 4 l 1,1 h 6 v -6 z m 60,0 v 6 h 6 l 1,-1 v -4 l -1,-1 z m -75,6 v 6 h 3 v -6 z m 0,6 h -3 v 3 h 3 z m 93,-6 v 6 h 3 v -6 z m 3,6 v 3 h 3 v -3 z"
       style="fill:#b2b2b2;fill-opacity:1;stroke-width:1.00157"
       id="path954" />
  </g>
  <g
     transform="translate(-19.05,-0.79374999)"
     id="layer6">
    <path
       transform="scale(0.26458333)"
       d="m 168,153 v 3 h 6 v -3 z m 21,0 v 3 h 3 v -3 z"
       style="fill:#ff3fac;fill-opacity:1;stroke-width:1.00157"
       id="path1054" />
  </g>
  <g
     transform="translate(-19.05,-0.79374999)"
     id="layer7">
    <path
       transform="scale(0.26458333)"
       d="m 159,108 v 3 h 3 v -3 z m 15,0 v 3 h 3 v -3 z m -57,15 v 3 h 6 v -3 z m 0,3 h -6 v 6 h 6 z m -6,6 h -3 v 3 h 3 z m 66,-9 v 3 h 6 v -3 z m 6,3 v 6 h 6 v -6 z m 6,6 v 3 h 3 v -3 z m -78,39 v 6 h 6 v -6 z m 72,0 v 6 h 6 v -6 z"
       style="fill:#ccff00;fill-opacity:1;stroke-width:1.00157"
       id="path1060" />
  </g>
  <g
     transform="translate(-19.05,-0.79374999)"
     style="display:inline"
     id="layer8">
    <path
       transform="scale(0.26458333)"
       d="m 84,102 v 3 h 6 v 3 h 3 v -3 h 3 v -3 z m 6,6 h -3 v 3 h -3 v 3 h 12 v -3 h -6 z m 102,-3 v 3 h 6 v 3 h 3 v -3 h 3 v -3 z m 6,6 h -3 v 3 h -3 v 3 h 12 v -3 h -6 z m -99,3 v 3 h 3 v 3 h -3 v 3 h 9 v -3 h -3 v -3 h 3 v -3 z"
       style="fill:#2f7f6f;fill-opacity:1;stroke-width:1.00157"
       id="path1087" />
  </g>
</svg>
