<svg xmlns="http://www.w3.org/2000/svg" viewBox="0 0 69.056 34.925" height="132" width="261"><g style="display:inline"><path d="M6.35 50.8h-.794V40.481l.265-.264h1.058v-.794h1.323v.794h1.852v-1.588h2.117v1.588h2.646v-.794h.793v-2.381h1.588v-.794h.794v-.794h.793v-5.027h-.793v-.794h-7.144v-4.498H24.87V35.19h-.53v1.852l.265.264v3.704H22.49l-.265.265v7.937h.794v.794h5.556v-9.525h3.969l.264.265h.265l.264-.265h2.382v2.381h.793v.794h.794v6.35h15.081l.265.265h11.642v-6.086h-8.467v-.793h-.53v-7.409h.795V28.31h7.937v-5.027l.265-.264v-3.175l.264-.265h1.059l.264.265v3.969l-.264.264v5.82h.529v8.732h.794v4.763h-.53v.793h-.529v6.35H52.652l-.265.265h-15.08v-.794h-.794v-6.35h-.794V50.8H31.75l-.265-.265h-1.852l-.264.265h-2.381l-.265-.265h-1.058l-.265.265h-2.381v-.794h-.794v-.794h-1.058v-8.466h1.852v-4.233h.794l.264-.265v-.794h-1.852v3.704h-.794v-3.704h-2.116l-.265.265v1.587l-.265.265h-1.058l-.53-.53h-.528V38.1l.264.265v1.058h.794v.794h.794v.793l-.265.265v1.587h-.794l-.264.265h-4.233v2.646l-.265.264v.794l-.265.265v1.587h2.382v.265l.264.264h.794V50.8h-1.587v-.794l-.265-.264h-.265l-.264.264v.794h-3.175v-.794l-.265-.264H9.79l-.265.264v.794H7.937v-1.588h.794l.265-.264h2.117v-5.82h-2.91l-.266-.266v-.793H6.615v8.466z" style="fill:#0f0f0f;fill-opacity:1;stroke-width:.264999" transform="translate(-4.762 -15.875)"/></g><g style="display:inline;opacity:1"><path transform="translate(-4.762 -15.875) scale(.26458)" d="M39 93v3l1 1h1l1-1h9l1 1h7l1-1h33v36l-1 1h-1l-1-1H72l-1 1v1l1 1h18l1 1v1l-1 1v3h3v-3l-1-1v-1l1-1h3l1-1V94l-1-1zm209 2v5h3v6h3v5h4v-3l1-1v-3h-3v-4l-2-2h-1v-1l-2-2zm-179 7-1 1v1l2 2h1l1-1v-3zm6 9-1 1v1l2 2h1l1-1v-3zm145 2-2 2v3h3l1-1v-3l-1-1zm21 0-1 1v3l1 1h3v-3l-2-2zm-33 9-1 1v6h3v3l1 1h1v6h3v3h6v3h6l1-1v-3h-3v-3h-6v-3h-3v-3l-1-1h-1v-1l-2-2h-1v-6zm11 13h6v3h12v-3h6v-6h3v-3l-1-1h-1l-2 2v1h-3v3h-16v-3h-3v-1l-2-2h-1l-1 1v3h3zm24 0v3h-6v3h-3v3l1 1h6v-3h6v-3h3v-6h1l1-1v-3h3v-6l-1-1h-3v6h-1l-2 2v1h-1l-1 1v3zm-217-7v3h-1l-1 1v3h3l1-1v-1h3v-5zm9 12v3h-3v9l1 1v9l-1 1v7l1 1h3v3h18v-3l-1-1h-1v-7l-1-1v-6l-1-1h-1v-7h3v-5h-3v-3zm8 6h1l1 1v3l-1 1v1l1 1v9l-1 1h-4l-1-1v-9l1-1v-1l-1-1v-3h3zm31 0v3h-7l-1 1v3h3v3h6v36h3l1-1v-33l2-2h15v36h3l1-1v-34h1l1-1v-3l-1-1H79v-4l-2-2zm-56 1v6h9v-3l1-1v-1l-1-1zm192 3-1 1v1h-3v3h-3v5h5v-3h1l2-2v-1h3v-3l-1-1zm39 0-1 1v3h3v1l2 2h1v3h5v-5h-3v-3h-3v-1l-1-1zm-26 5-1 1v3h3v-3l-1-1zm12 0-1 1v3h3v-3l-1-1zm-211 1v9l1 1v4l-1 1v21h3v-21l1-1v-7l-1-1v-6zm204 0v3h3v-3zm-104 2-1 1v3l1 1h1l1-1v-3l-1-1zm-13 1v3h6l1-1v-1l-1-1zm13 5-1 1v15h3v-15l-1-1zm-13 1v3h9v-3zm-66 12v6H33v3h3v3h3v-3h6v3h9v-3h3v-3h-9v-6zm66 0v3l1 1v1l-1 1v3l1 1v1l-1 1v3h3l1-1h1l1 1h3v-3l-1-1v-1l1-1v-3l-1-1v-1l1-1v-3h-3l-1 1h-1l-1-1zm12 6v3h3v-3zm84 0v4h-2l-1-1h-3v3h-3v3h3l1-1h9v-7l-1-1zm45 0-1 1v7h9l1 1h3v-3h-3v-3h-3l-1 1h-2v-4z" style="fill:#3e3e3e;fill-opacity:1;stroke-width:1.00157"/></g><g style="display:inline"><path transform="translate(-4.762 -15.875) scale(.26458)" d="M219 60v3h-9v3h-6v3h-3v6h3l1-1h52l1 1h3v-6h-3v-3h-6v-3h-9v-3ZM96 93v42h3V93Zm-63 3v3h-3v12h-3v3h-3v18h3v-3h3v3h-3v18h3v3h3v-9h3v-3h12v3h3v3l-1 1v4h-1l-1 1v3h3v-3h6v-3h3v-9l1-1v-12H31v-13h6V97l-1-1zm18 0v3h-3v12l1 1h6V97l-1-1zm162 0v3h-3v6h-3v18h3v6h3v-15h3v-3h3v-3h24v3h3v3h3v15h3v-6h3v-18h-3v-6h-3l-1-1v-2zm36 33h-3v3h3zm-3-15h-3v3l-1 1h-1l-1-1h-3v3h3l1-1h1l2 2h1l1-1zm-3 0v-3h-24v3h6l1 1h10l1-1zm-24 0h-3v6l1 1h1l2-2h1l1 1h3v-3h-3l-1 1h-1l-1-1zm-6 15v3h3v-3zm46-25-1 1v3h3v-3l-1-1zm-193 7-1 1v12h6l1-1v-9h-3v-3zm160 14-1 1h-6v3h3v3h18v-3h3v-3h-6l-1-1zm-136 7v6h3v-6zm121 2-1 1h-3l-1 1v1h-1l-1 1h-3l-1 1v4h-4l-2 2v1h-1l-2 2v9h6v3h5v-4h5v-3h3v-6h3v-3h3v3h-3v6h-3v3h18v-12h-6v-3h-6v-3h-3v-3l-1-1zm39 0-1 1v3h-3v3h-6v3h-9v12h21v-3h-3v-6h-3v-3h3v3h3v6h3v3h5v4h5v-3h6v-9l-2-2h-1v-1l-2-2h-4v-4l-1-1h-3l-1-1h-1v-1l-1-1h-3l-1-1zm-184 7v3h-3v3l1 1h6l2 2h3v-3l-1-1h-4v-4l-1-1zm-24 3v3h3l1-1v-1l-1-1zm36 3v6h27v-6zm-39 3v3h6v-3zm84 3v6h3v-6zm-45 3v36h3v-36zm21 0v36h3v-36zm111 3-1 1v3h3v3h14v-3l-1-1h-3v-3zm27 0v3h-3l-1 1v3h17v-3h3v-3l-1-1zm-210 3v3h-3v6h9v-9zm12 0v9h6v-9zm12 0v9h6v3l1 1h1l2-2v-1h1l1-1h6v-6h-3v-3zm72 0v3h3v-3zm-9 15v3h3v-3zm3 3v3h3v-3zm0 3h-3v3h3zm0 3v3h3v-3zm0 3h-3v3h3zm-3 0v-3h-3v3zm0-6v-3h-3v3zm96 0v3h-6v3h-3v3h60v-3h-3v-3h-6v-3h-6l-1 1v4h-28v-4l-1-1z" style="fill:#717171;fill-opacity:1;stroke-width:1.00157"/></g><g style="display:inline"><path transform="translate(-4.762 -15.875) scale(.26458)" d="M204 72v3h6l1-1h1l1 1h3l1-1v-1l-1-1h-3l-1 1h-1l-1-1zm42 0-1 1v1l1 1h3l1-1h1l1 1h6v-3h-6l-1 1h-1l-1-1zm-21 15v3h-6v3h-3v6h3v3h24v-3h6v-3h3v-3h-3v-3h-6v-3zm27 9v3h3v-3zm3 3v6h6v-3h-3v-3ZM36 96v3h-3v9h3v3h-3v3h-3v15h27v3h3v9h6v-3h3v-3h3v-12h-3v-3h-3v-9h-3V99h-3v-3h-6v3h-3v9h3v3h-9V99h-3v-3zm189 18v3h3v3h-3v6h12v-6h-3v-3h3v-3zm-6 3v3h3v-3zm0 3h-3v6h3zm21-3v3h3v-3zm3 3v6h3v-6zm-38 17-1 1v3h-3l-1-1h-1l-2 2v1l1 1v3h6v-3h3v-3h3v-3h-3l-1-1zm51 0-1 1h-3v3h3v3h3v3h6v-3l1-1v-1l-2-2h-1l-1 1h-3v-3l-1-1zm-187 4v3h-3v3h-3v3h9v-3h6v-3h-3v-3zm-24 3v3h3v-3zm3 3v6h3v-6zm147 6v3h-4v7h2v3h10v-6l1-1v-6zm63 0v6l1 1v6h10v-3h2v-7h-4v-3zm-60 3h3v3h-3zm63 0h3v3h-3zM60 171v3h3v-3zm0 3h-3v3h3zm156 9v3h-6v3h9l1-1h22l1 1h9v-3h-6v-3h-9l-1 1h-10l-1-1z" style="fill:#b2b2b2;fill-opacity:1;stroke-width:1.00157"/></g><path transform="translate(-4.762 -15.875) scale(.26458)" d="M210 72v3h3v-3zm6 0v3h30v-3zm33 0v3h3v-3ZM39 99v6h3v-6zm18 0v6h3v-6zm-18 9v3h3v-3zm18 0v3h3v-3zm168 75v3h-6v3h24v-3h-6v-3z" style="fill:#d7d7d7;fill-opacity:1;stroke-width:1.00157"/><path transform="translate(-4.762 -15.875) scale(.26458)" d="M210 132v3h3v-3zm39 0v3h3v-3zm-45 3v3h3v-3zm51 0v3h3v-3zm-57 3v3h3v-3zm0 3h-3v3h3zm-3 3h-3v3h3zm-3 3h-3v6h-3v3h3v3h-6v3h6v3h3v3h12v-3h6v3h42v-3h6v3h12v-3h3v-6h3v-3h-3v-3h6v-3h-6v-3h-3v15h-3v3h-6v-6h-6v-3h-3v6h-3v3h-3v-3h-3v3h-9v-3h-3v3h-3v-3h-3v3h-12v-3h-3v-6h-3v3h-6v6h-6v-3h-3zm78 0v-3h-3v3zm-3-3v-3h-3v3zm-3-3v-3h-3v3zm-81 6v3h3v-3zm-66 12v3h3v-3zm159 3v3h3v-3zm-66 9v3h18v-3zm21 0v3h15v-3zm18 0v3h3v-3zm-33 6v3h3v-3zm6 0v3h6v-3zm18 0v3h6v-3z" style="fill:#ff3fac;fill-opacity:1;stroke-width:1.00157"/><path transform="translate(-4.762 -15.875) scale(.26458)" d="M66 102v3h3v-3zm3 3v3h3v-3zm6-3v6h3v-6zm6 0v6h3v-6zm-9 9v3h3v-3zm3 3v3h3v-3zm6-3v6h3v-6zm-6 9v6h3v-6zm6 3v3h3v-3zm36 48v3h3v-3z" style="fill:#cf0;fill-opacity:1;stroke-width:1.00157"/><path transform="translate(-4.762 -15.875) scale(.26458)" d="M207 81v9h3v-9zm-6 3v9h3v-9zm6 9v3h3v-3zm-6 3v3h3v-3z" style="fill:#2f7f6f;fill-opacity:1;stroke-width:1.00157"/></svg>