<svg xmlns="http://www.w3.org/2000/svg" width="200" height="90" viewBox="0 0 52.917 23.813"><g style="display:inline"><path d="M41.804 30.163v1.587h3.175v.794l-.264.264h-1.853v.265l-.264.264h-2.381l-.265.265v3.44l.265.264h2.38l.265.265h1.853v.264l.264.265v1.587h.794v.794h-.794v.794l.265.265v.264l-.265.265h-.794v.793l.265.265v.265l-.265.264h-.793v.794l.264.265v.264l-.264.265h-.794v.793l.264.265v.265l-.264.264h-.794v.794l.265.265v.264l-.265.265h-.794v.793l.265.265v.265l-.265.264h-.793v.794h3.175v-.794h-.794l-.265-.264v-1.588h.794v-1.587h.794v-1.588h.794v-1.587h.793l.265.264v6.35h-.794v.794h3.175v-.794h-.794l-.264-.264h-.265v-4.234h.265l.264-.264v-.794l-.264-.265h-.265v-1.058h.794v-2.381l-.265-.265v-.794l.265-.264h.265l.264.264h1.588l.264-.264v-.265l-.264-.264h-1.588V38.1l.265-.265h.264l.265.265h2.381v-.794l-.264-.264H50.8v-3.97h-.794v-.264l-.264-.264h-.794l-.265.264h-.793v-2.38h-2.646l-.265-.265Zm-18.52 5.291v3.969H21.43l-.264.264h-.794v1.588h1.587v.794h.794l.265.264h8.202l.264-.264v-.794h1.588v-1.588h-.794l-.264-.264v-2.646l.264-.264v-.794l-.264-.265zM50.8 49.742l-.265.264h-.793v.794h3.175v-.794h-.794l-.265-.264z" style="fill:#0f0f0f;fill-opacity:1;stroke:none;stroke-width:63.5;stroke-linecap:round;stroke-linejoin:round" transform="translate(-8.996 -26.988)"/></g><g style="display:inline"><path d="M44.98 30.163v1.587h1.587v.794h-3.97v.794h.795v.793h.793v2.382h-.793v.793h-.794v.794h4.762l.265-.265h.265l.264.265h.794v-.794h.794v-3.968h-.794l-.794-.794v-.794l-.264-.265h-1.06v-1.058l-.264-.264Zm-6.615 4.497v.794H38.1l-.265.265v.793h.794v.794h1.588v-2.381l-.265-.265zM50.8 36.248l-.265.264v.794h1.588v-.793l-.265-.265Zm-23.283.265-.265.264v1.588h1.323v-1.588l-.265-.264Zm19.05 2.38v.794h1.587v-.793Zm-.794 1.588v.794h-.794v1.587h-.794v1.588h-.793v1.587h-.794v1.588h-.794v1.587h-.794v.794h1.588V48.42h.794v-1.59h.793v-1.587h.794v-1.588h.794V42.07h1.587l.794-.794v-.794zm-21.431.794v.794h-1.588v1.587l1.588 1.588v1.587h-.794v.794h-.794v1.587h1.588v-.793l.264-.265h.265l.264.265v.793h.794l.265-.264h.264l.265.264h.794v-.793l-.265-.265v-1.058l.265-.265h.793v-.794l.265-.264h.265V43.92l.264-.265h1.588v.794h.793l.265-.265v-1.058l-.265-.265v-.793h-2.38v-.794h-.795v.794h-3.175v-.794zm23.283 1.323-.265.264h-.793v1.588h.793v-.794h.794l.265-.264v-.794zm.794 1.587-.265.265v.794h.794l.264-.265v-.794zm-1.852 1.059v4.762h.793v-4.762zm2.645.529-.264.264v.794h.794l.264-.264v-.794zm.794 1.587-.264.265v.794h.793l.265-.265v-.794zm.794 1.588-.265.264v.794h.794l.265-.264v-.794z" style="fill:#3e3e3e;fill-opacity:1;stroke:none;stroke-width:63.5;stroke-linecap:round;stroke-linejoin:round" transform="translate(-8.996 -26.988)"/></g><g style="display:inline"><path d="M34.66 26.988v2.38h-.793v1.588h1.587v-2.381h.794v-.794h-.794v-.793Zm11.907 3.175v1.587h1.587v-1.587zm-24.607.793v.794l.265.265v.264l-.265.265h-.793v4.762h-.794v1.588h.794v.793h1.587v.794h1.588l.264-.264v-.794H23.02V31.22l-.265-.265Zm25.4 1.588V38.1h.794v-4.763h.794v-.793zm-8.73.794v.793h-.795v1.588h.794v-.794h1.588v-1.587zm12.17.529-.265.264v.794l.265.265v.264l-.265.265v.793h1.588v-.793l-.265-.265v-.264l.265-.265v-.794l-.265-.264Zm-9.79.264v.794l1.588 1.587h.794v-1.587l-.794-.794zm8.732 4.763v.793h1.587l.265-.264v-.265l-.265-.264Zm-2.382 2.381v1.587h.794v1.588h.794v1.587h.794v1.588h.793v1.587h.794v.794h.794V48.42h-.794v-1.59h-.794v-1.587h-.793v-.794l-.794-.794v-.794l-.794-.793v-.794zm-23.812 1.587v.794h-.794v.794l.794.794h.794v-.794l-.265-.265v-.264l.265-.265v-.794zm1.587 0v2.382h.794v.793h.794v1.588h-.794v1.587h.794v-.793h.794v-3.175h-.794v-.794h-.794v-1.588zm.794 4.763v-1.588h-.794v1.588zm-.794 0h-.793v.794h.793zm1.588-4.763v.794h.794v.794h.793v1.587h.794v-2.38h-.794v-.795zm3.969 0v.794h.793l.265-.264v-.265l-.265-.265zm1.587 0-.264.265v1.058l.264.265h.794l.264-.265v-1.058l-.264-.265z" style="fill:#717171;fill-opacity:1;stroke:none;stroke-width:63.5;stroke-linecap:round;stroke-linejoin:round" transform="translate(-8.996 -26.988)"/></g><g style="display:inline;opacity:1"><path d="M24.342 29.369v.793h-1.588v1.588h-.794v5.556h.794v.794h-.794v.794h.794v.793h1.588v.794h6.35v-.794h1.587v-.793h.794v-1.588h-.794v-.793h-.794v.793h-1.587v-.793h-.794v-.794h.794v.793h1.587v-.793h.794v-3.175h-.794v-1.588h-.793v-.793h-1.588v-.794zm25.4 3.175v.793h.793v.794h1.588v-.794h-.794v-.793zm-8.732 2.381v1.587h1.588v-1.587Zm9.525 0v.794h1.588v-.794Zm-26.987.794h.794v.793h1.587v-.793h.794v.793h-.794v.794h-1.587v-.793h-.794zm3.969 0h.793V38.1h-.793zM34.66 38.1v.794h-.793v3.175h-.794v2.381h.794v-.794h.793v-.794h.794v-3.175h.794V38.1Zm16.67.794v.793h.793v-.793Zm-3.176 3.175v.793h.794v-.793zm-16.669.793v1.588h.794v-1.588zm-7.937.794v.794h.794v-.794zm0 .794H21.96v.794h-.793v.793h-1.588v-.793h-1.587v1.587h.793v.794h3.175v-.794h.794v-.794h.794zm25.4-.794v.794h.794v-.794z" style="fill:#b2b2b2;fill-opacity:1;stroke:none;stroke-width:63.5;stroke-linecap:round;stroke-linejoin:round" transform="translate(-8.996 -26.988)"/></g><g style="display:inline"><path d="M25.93 30.956v.794h-.795v.794h.794l.265.264v.265l-.265.264h-.794v.794h.794v.794h.794v-.794l.265-.264h.264l.265.264v.794h.793v-.794h.794v-.794h-.794l-.264-.264v-.265l.264-.264h.794v-.794h-.794v-.794h-.793v.794l-.265.265h-.264l-.265-.265v-.794zm3.174.794h.794v.794h.794v-1.588h-1.588zm1.588 1.587v.794h.793v-.794Z" style="opacity:1;fill:#d7d7d7;fill-opacity:1;stroke:none;stroke-width:63.5;stroke-linecap:round;stroke-linejoin:round" transform="translate(-8.996 -26.988)"/></g><path d="M25.93 31.75v2.381h2.38V31.75Zm.793.794h.794v.794h-.794zm15.875 1.587v.794h.794v-.794z" style="opacity:1;fill:#ff3fac;fill-opacity:1;stroke:none;stroke-width:63.5;stroke-linecap:round;stroke-linejoin:round" transform="translate(-8.996 -26.988)"/></svg>