<svg xmlns="http://www.w3.org/2000/svg" viewBox="0 0 30.163 33.337" height="126" width="114"><g style="display:inline"><path transform="translate(-7.144 -17.462) scale(.26458)" d="M95 89v17h3v37h-3v6l2 2h21v-3h13l1-1v-3l-1-1v-1l2-2v-6h-5v-16l1-1v-3l-1-1v-1l1-1h3v-3l1-1h1v-7l1-1v-9l-1-1zm27 60v5h3v3h5v-5h-3v-3zm-18 6v5h5v-5zm-7 12-1 1v3h-3v6h6v-3h3l1 1h4v1l1 1h6v-3h3l1-1v-6h-6l-2 2v1h-7v-3zm-49 1v6h3v15h3v3h18v-3h3v-15h3v-6h-6l-1 1H52l-1-1z" style="fill:#0f0f0f;fill-opacity:1;stroke:none;stroke-width:1.135;stroke-linecap:round;stroke-linejoin:round"/></g><g style="display:inline"><path transform="translate(-7.144 -17.462) scale(.26458)" d="m114 66-1 1v16H94l-1 1v9l1 1h1l1-1v-3l1-1h19l1 1v3l1 1h3v-5h7l1 1h9v-3h-3V75h-3v-3h-3v-3h-6v-3zm-51 48v3h-3v6l-1 1h-6l-2 2h-3v-3H36v3h-3v3h-3v6h-3v6h3v-3h3l1-1v-3h10l2 2h7l1-1h3l1 1v1l-1 1v3h3l1 1v1l-1 1v6l1 1v1l-1 1v3l1 1v1l-1 1v3l1 1v1l-1 1v3l1 1h7v1l1 1h3v-3h-3v-3l-3-3v-3l-1-1v-1l1-1v-3l-1-1v-1l1-1v-3l-1-1v-1l1-1v-6h3v-9l1-1v-1l-1-1h-3v6h-3l-1-1v-4l1-1h3v-3h3l1-1h7v6l1 1h3v6h3v-18h-3v-3h-6v3l-1 1h-1l-1-1v-3zm59 2v3h-3v3h-4l-1 1v6h3v3l1 1v1l-1 1h-3v-6h-3l-1 1h-7l-1-1h-3l-1 1v4h-6v2l-2 2v3l1 1v1l-1 1v3h3v3h3v-6h6v-3h-3l-1-1v-1l1-1v-3h3l1 1h10v1h-10l-1 1v3h3l1 1h3v4h4l1 1h3v-3h3v-3h3v-3h3v-3h3v3h3v3h3v-9h-3v-12h-3v-3h-3l-1-1zm10 25h-9v3h9zm-15 6v3l1 1h4l1-1h3v3h3v3l1 1h1l1-1v-3h3v-6zm9 6h-3l-1 1v3h3l1-1zm-24-30v3h3v-3zm3 27-1 1v4h-3v5h3l1-1v-3h3l1-1v-1h3v-3l-1-1zm11 5v5h5v-5zm-62 19v12h3v3h9v-3h3v-12h-6l-1 1h-4l-1-1z" style="fill:#3e3e3e;fill-opacity:1;stroke:none;stroke-width:1.135;stroke-linecap:round;stroke-linejoin:round"/></g><g style="display:inline"><path transform="translate(-7.144 -17.462) scale(.26458)" d="M105 66v3h-6v3h-3v3h-3v9h33v-6h-3v-6h-3v-3h-6v-3ZM90 87v3h9l1 1h13l1-1h6l1 1h1l1-1h6v-3zm6 6-1 1v3h3l1-1v-3zm18 0v3l1 1h3v-3l-1-1zm9 3-1 1v1l1 1h6v-3zm0 6-1 1v1l1 1h6l1-1v-1l-1-1zm-54 15v12h3v6h3v6h3v-21h-3v-3zm28 5-1 1v3h-3v6h-3v6h3v-3h6v-12l-1-1zm-4 16v3h6v-3zm0 3h-3v3h3zm-42-18v6h3v3h3v6h3v6h3v-18h-3v-3zm12 21v3h3v-3zm-9-12h-6v3h-3v15h3v6h3v-9h3zm-9 3v-3h3v-6h-9v3h-3v3h-3v18h3v-6h3v-6h3v-3zm75-12v3h-3v3h3v3h-3v6h-3v3h-9v3h3v3h6v-3h3v-3h3v-3h3v-6h3v-9zm-6 15v-3h-12v3zm-12-9v3h9v-3zm-42 21v3h6v-3zm36 0v3h-3v9h3v6h8v23l1 1h3v-30h3v6h6l1-1v-7l-1-1v-3h3l1 1h1l1-1v-6h-12v3h-3v6l-1 1h-4l-1-1v-3h3v-6zm-36 6v3h6v-3zm73 5-1 1v30h3l1-1v-30zm-73 1v3h9v-3zm-9 6v3h3l1-1h7l1 1h6v-3h-6l-1 1h-7l-1-1zm6 6v6h6v-6zm0 9v3h3v-3z" style="fill:#717171;fill-opacity:1;stroke:none;stroke-width:1.135;stroke-linecap:round;stroke-linejoin:round"/></g><g style="display:inline"><path transform="translate(-7.144 -17.462) scale(.26458)" d="M102 72v6h6v-6zm9 0v3h3v-3ZM99 90v3h3l1 1h7l1-1h3v-3zm21 0v3l1 1h1l1-1v-3zm-30 9v9h3l1-1v-7l-1-1zm40 2-1 1v3l1 1h3v-5zm-4 7-1 1v4h-3v3h-3v3h-3v3l1 1h3v-3h3v-3h3v-3h3v-6zm-6 48v3h-3v21l-1 1v1l2 2h1v7l1 1h3v-9h12v9h3v-30h3v-6zm-18 3v24l1 1h1l2-2v-1l-1-1v-9l1-1v-1l-1-1v-6h3v-3zm21 3h12v6h-12zm-69 6v3h9v-3zm69 3h12v9h-12z" style="fill:#b2b2b2;fill-opacity:1;stroke:none;stroke-width:1.135;stroke-linecap:round;stroke-linejoin:round"/></g><g style="display:inline;opacity:1"><path transform="translate(-7.144 -17.462) scale(.26458)" d="M93 93v27h3v3h3v-3h12v3h6v-3h3v-3h3v-3h3v-6h-3V93h-6v3h-6v-3h-9v3h-6v-3zm3 6h6l1 1v4l-1 1h-6zm15 0h6v6h-6zm18 0v3h3v3h-3v3h6v-9zm-30 12h12v3H99Zm6 57v3h6v-3zm0 12v3h12v-3zm12 3v9h3v-9zm-12 0h-3v9h3z" style="fill:#d7d7d7;fill-opacity:1;stroke:none;stroke-width:1.135;stroke-linecap:round;stroke-linejoin:round"/></g><g style="display:inline"><path d="M26.988 26.194h1.587v2.381h-1.587z" style="fill:#ff3fac;fill-opacity:1;stroke:none;stroke-width:.300302;stroke-linecap:round;stroke-linejoin:round" transform="translate(-7.144 -17.462)"/></g><g style="display:inline"><path transform="translate(-7.144 -17.462) scale(.26458)" d="M72 120v6h3v-6zm-18 6v3h3v-3zm3 3v3h3v-3zm-18 0v3h3v-3zm0 3h-3v3h3zm9 3v6h3v-6z" style="fill:#cf0;fill-opacity:1;stroke:none;stroke-width:1.135;stroke-linecap:round;stroke-linejoin:round"/></g></svg>