<?xml version="1.0" standalone="no"?>
<!DOCTYPE svg PUBLIC "-//W3C//DTD SVG 1.1//EN" "http://www.w3.org/Graphics/SVG/1.1/DTD/svg11.dtd" >
<svg xmlns="http://www.w3.org/2000/svg">
<metadata>Generated by IcoMoon</metadata>
<defs>
<font id="jolticons" horiz-adv-x="1024">
<font-face units-per-em="1024" ascent="960" descent="-64" />
<missing-glyph horiz-adv-x="1024" />
<glyph unicode="&#x20;" horiz-adv-x="512" d="" />
<glyph unicode="&#xe900;" glyph-name="comment" d="M333.75 912c-157.115 0-285.75-126.515-285.75-282.625v-234.75c0-156.11 128.635-282.625 285.75-282.625h448.75l193.5-163.5v680.875c0 156.11-128.635 282.625-285.75 282.625zM333.75 816h356.5c106.272 0 189.75-82.725 189.75-186.625v-474.125l-62.5 52.75h-483.75c-106.272 0-189.75 82.725-189.75 186.625v234.75c0 103.9 83.478 186.625 189.75 186.625z" />
<glyph unicode="&#xe901;" glyph-name="active" d="M128 896c-35.456 0-64-28.544-64-64v-768c0-35.456 28.544-64 64-64h768c35.456 0 64 28.544 64 64v768c0 35.456-28.544 64-64 64zM288 640h64c17.728 0 32-14.272 32-32v-64c0-17.728-14.272-32-32-32h-64c-17.728 0-32 14.272-32 32v64c0 17.728 14.272 32 32 32zM672 640h64c17.728 0 32-14.272 32-32v-64c0-17.728-14.272-32-32-32h-64c-17.728 0-32 14.272-32 32v64c0 17.728 14.272 32 32 32zM280 448h464c13.296 0 24-10.704 24-24v-168c0-35.456-28.544-64-64-64h-384c-35.456 0-64 28.544-64 64v168c0 13.296 10.704 24 24 24zM320 384v-64h384v64z" />
<glyph unicode="&#xe902;" glyph-name="add" d="M512 832c-35.456 0-64-28.544-64-64v-256h-256c-35.456 0-64-28.544-64-64s28.544-64 64-64h256v-256c0-35.456 28.544-64 64-64s64 28.544 64 64v256h256c35.456 0 64 28.544 64 64s-28.544 64-64 64h-256v256c0 35.456-28.544 64-64 64z" />
<glyph unicode="&#xe903;" glyph-name="add-box" d="M128 896c-35.456 0-64-28.544-64-64v-768c0-35.456 28.544-64 64-64h768c35.456 0 64 28.544 64 64v768c0 35.456-28.544 64-64 64zM224 768h576c17.728 0 32-14.272 32-32v-576c0-17.728-14.272-32-32-32h-576c-17.728 0-32 14.272-32 32v576c0 17.728 14.272 32 32 32zM464 640c-8.864 0-16-7.136-16-16v-112h-112c-8.864 0-16-7.136-16-16v-96c0-8.864 7.136-16 16-16h112v-112c0-8.864 7.136-16 16-16h96c8.864 0 16 7.136 16 16v112h112c8.864 0 16 7.136 16 16v96c0 8.864-7.136 16-16 16h-112v112c0 8.864-7.136 16-16 16z" />
<glyph unicode="&#xe904;" glyph-name="add-comment" d="M64 960c-35.456 0-64-28.544-64-64v-768c0-35.456 28.544-64 64-64h320l128-128 128 128h320c35.456 0 64 28.544 64 64v768c0 35.456-28.544 64-64 64zM160 832h704c17.728 0 32-14.272 32-32v-576c0-17.728-14.272-32-32-32h-288l-64-64-64 64h-288c-17.728 0-32 14.272-32 32v576c0 17.728 14.272 32 32 32zM464 704c-8.864 0-16-7.136-16-16v-112h-112c-8.864 0-16-7.136-16-16v-96c0-8.864 7.136-16 16-16h112v-112c0-8.864 7.136-16 16-16h96c8.864 0 16 7.136 16 16v112h112c8.864 0 16 7.136 16 16v96c0 8.864-7.136 16-16 16h-112v112c0 8.864-7.136 16-16 16z" />
<glyph unicode="&#xe905;" glyph-name="arrows" d="M512 960c-19.2 0-201.6-182.4-192-192 3.612-3.612 61.669-5.481 128-6.375v-249.625h-249.625c-0.894 66.331-2.763 124.388-6.375 128-9.6 9.6-192-172.8-192-192s182.4-201.6 192-192c3.612 3.612 5.481 61.669 6.375 128h249.625v-249.625c-66.331-0.894-124.388-2.763-128-6.375-9.6-9.6 172.8-192 192-192s201.6 182.4 192 192c-3.612 3.612-61.669 5.481-128 6.375v249.625h249.625c0.894-66.331 2.764-124.388 6.375-128 9.6-9.6 192 172.8 192 192s-182.4 201.6-192 192c-3.612-3.612-5.481-61.669-6.375-128h-249.625v249.625c66.331 0.894 124.388 2.763 128 6.375 9.6 9.6-172.8 192-192 192z" />
<glyph unicode="&#xe906;" glyph-name="arrows-h" d="M192 640c-9.6 9.6-192-172.8-192-192s182.4-201.6 192-192c3.612 3.612 5.481 61.669 6.375 128h627.25c0.894-66.331 2.764-124.388 6.375-128 9.6-9.6 192 172.8 192 192s-182.4 201.6-192 192c-3.612-3.612-5.481-61.669-6.375-128h-627.25c-0.894 66.331-2.763 124.388-6.375 128z" />
<glyph unicode="&#xe907;" glyph-name="arrows-v" d="M512 960c-19.2 0-201.6-182.4-192-192 3.612-3.612 61.669-5.481 128-6.375v-627.25c-66.331-0.894-124.388-2.763-128-6.375-9.6-9.6 172.8-192 192-192s201.6 182.4 192 192c-3.612 3.612-61.669 5.481-128 6.375v627.25c66.331 0.894 124.388 2.763 128 6.375 9.6 9.6-172.8 192-192 192z" />
<glyph unicode="&#xe908;" glyph-name="at-sign" d="M512 960c-282.77 0-512-229.23-512-512s229.23-512 512-512c124.481 0.16 244.64 45.664 338 128h-338c-212.077 0-384 171.923-384 384s171.923 384 384 384c212.077 0 384-171.923 384-384-0.083-60.318-41.774-114.952-101.25-125-6.427-1.086-12.029 3.791-16 7.75-10.731 10.699-10.75 32.042-10.75 53.375v303.875c0 8.864-7.136 16-16 16h-96c-8.864 0-16-7.136-16-16v-18.625c-38.885 22.583-83.033 34.525-128 34.625-141.385 0-256-114.615-256-256s114.615-256 256-256c54.835 0.186 108.161 17.977 152.125 50.75 16.989-31.387 47.286-50.75 103.875-50.75 141.385 0 256 114.615 256 256 0 282.77-229.23 512-512 512zM512 576c70.692 0 128-57.308 128-128s-57.308-128-128-128c-70.692 0-128 57.308-128 128s57.308 128 128 128z" />
<glyph unicode="&#xe909;" glyph-name="audio" d="M498.625 767.375c-10.855 9.753-136.916-97.467-236.625-191.375h-118c-8.864 0-16-7.136-16-16v-224c0-8.864 7.136-16 16-16h118c99.709-93.908 225.77-201.128 236.625-191.375 17.774 15.97 17.774 622.78 0 638.75zM848 704c-8.864 0-16-7.136-16-16v-480c0-8.864 7.136-16 16-16h32c8.864 0 16 7.136 16 16v480c0 8.864-7.136 16-16 16zM656 576c-8.864 0-16-7.136-16-16v-224c0-8.864 7.136-16 16-16h32c8.864 0 16 7.136 16 16v224c0 8.864-7.136 16-16 16z" />
<glyph unicode="&#xe90a;" glyph-name="backward" d="M501.375 703.5c-14.219 12.776-284.375-229.949-284.375-255.5s270.156-268.276 284.375-255.5c6.118 5.497 9.022 102.283 9.875 207.5 74.687-77.558 235.223-217.296 246.125-207.5 14.219 12.776 14.219 498.224 0 511-10.902 9.796-171.438-129.942-246.125-207.5-0.853 105.217-3.757 202.003-9.875 207.5z" />
<glyph unicode="&#xe90b;" glyph-name="blog-article" d="M1024 960l-320-320v-128h128l192 192zM64 896c-35.456 0-64-28.544-64-64v-896h128v800c0 17.728 14.272 32 32 32h544l128 128zM224 704c-17.728 0-32-14.272-32-32v-64c0-17.728 14.272-32 32-32h64c17.728 0 32 14.272 32 32v64c0 17.728-14.272 32-32 32zM810 682l64-64-64-64h-20l-44 44v20zM400 640c-8.864 0-16-7.136-16-16v-32c0-8.864 7.136-16 16-16h224c8.864 0 16 7.136 16 16v32c0 8.864-7.136 16-16 16zM1024 576l-128-128v-512h128zM208 448c-8.864 0-16-7.136-16-16v-32c0-8.864 7.136-16 16-16h608c8.864 0 16 7.136 16 16v32c0 8.864-7.136 16-16 16zM208 256c-8.864 0-16-7.136-16-16v-32c0-8.864 7.136-16 16-16h608c8.864 0 16 7.136 16 16v32c0 8.864-7.136 16-16 16zM208 64c-8.864 0-16-7.136-16-16v-32c0-8.864 7.136-16 16-16h608c8.864 0 16 7.136 16 16v32c0 8.864-7.136 16-16 16z" />
<glyph unicode="&#xe90c;" glyph-name="bolt-filled" d="M320 960l-320-640h448l-192-384 704 704h-256l320 320z" />
<glyph unicode="&#xe90d;" glyph-name="bolt-unfilled" d="M320 960l-320-640h448l-192-384 704 704h-256l320 320zM384 832h352l-256-288h256l-240-256 80 128h-416z" />
<glyph unicode="&#xe90e;" glyph-name="books" d="M80 896c-8.864 0-16-7.136-16-16v-112h128v112c0 8.864-7.136 16-16 16zM272 896c-8.864 0-16-7.136-16-16v-112h128v112c0 8.864-7.136 16-16 16zM464 896c-8.864 0-16-7.136-16-16v-112h128v112c0 8.864-7.136 16-16 16zM640 896v-896h304c8.864 0 16 7.136 16 16v864c0 8.864-7.136 16-16 16zM64 704v-64h128v64zM256 704v-64h128v64zM448 704v-64h128v64zM64 576v-560c0-8.864 7.136-16 16-16h96c8.864 0 16 7.136 16 16v560zM256 576v-560c0-8.864 7.136-16 16-16h96c8.864 0 16 7.136 16 16v560zM448 576v-560c0-8.864 7.136-16 16-16h96c8.864 0 16 7.136 16 16v560z" />
<glyph unicode="&#xe90f;" glyph-name="box" d="M512 896c-4.498 0-9.053-0.902-12.5-2.625l-430.375-215.125c-3.447-1.723-5.125-4.001-5.125-6.25v-448c0-2.249 1.678-4.527 5.125-6.25l430.375-215.125c6.893-3.446 18.107-3.446 25 0l430.375 215.125c3.447 1.723 5.125 4.001 5.125 6.25v448c0 2.249-1.679 4.527-5.125 6.25l-430.375 215.125c-3.447 1.723-8.002 2.625-12.5 2.625zM512 832l320-160-320-160-320 160z" />
<glyph unicode="&#xe910;" glyph-name="box-empty" d="M128 896c-35.456 0-64-28.544-64-64v-768c0-35.456 28.544-64 64-64h768c35.456 0 64 28.544 64 64v768c0 35.456-28.544 64-64 64zM224 768h576c17.728 0 32-14.272 32-32v-576c0-17.728-14.272-32-32-32h-576c-17.728 0-32 14.272-32 32v576c0 17.728 14.272 32 32 32z" />
<glyph unicode="&#xe911;" glyph-name="brackets" d="M320 896c-21.365 0-42.635 0.042-64-10.625s-42.551-32.010-53.25-53.375c-10.699-21.365-10.75-42.612-10.75-85.375v-149.25c0-42.677 0.042-64.010-10.625-85.375s-53.375-42.603-53.375-64c0-21.397 42.708-42.635 53.375-64s10.625-42.698 10.625-85.375v-149.25c0-42.763 0.051-64.010 10.75-85.375s31.885-42.708 53.25-53.375c21.365-10.667 42.635-10.625 64-10.625h64c21.365 0 45.365-0.010 56 10.625s10.635 32.083 0 42.75c-10.635 10.667-34.699 10.625-56 10.625s-42.708-0.010-53.375 10.625c-10.667 10.635-10.625 31.969-10.625 74.625v149.5c0 42.571 0.010 63.949-10.625 85.25s-53.375 64-53.375 64c0 0 42.74 42.699 53.375 64s10.625 42.679 10.625 85.25v149.5c0 42.656-0.042 63.99 10.625 74.625s32.074 10.625 53.375 10.625c21.301 0 45.365-0.042 56 10.625s10.635 32.115 0 42.75c-10.635 10.635-34.635 10.625-56 10.625zM640 896c-21.365 0-45.365 0.010-56-10.625s-10.635-32.083 0-42.75c10.635-10.667 34.699-10.625 56-10.625s42.708 0.010 53.375-10.625c10.667-10.635 10.625-31.969 10.625-74.625v-149.5c0-42.571-0.010-63.949 10.625-85.25s53.375-64 53.375-64c0 0-42.74-42.699-53.375-64s-10.625-42.679-10.625-85.25v-149.5c0-42.656 0.042-63.99-10.625-74.625s-32.074-10.625-53.375-10.625c-21.301 0-45.365 0.042-56-10.625s-10.635-32.115 0-42.75c10.635-10.635 34.635-10.625 56-10.625h64c21.365 0 42.635-0.042 64 10.625s42.551 32.010 53.25 53.375c10.699 21.365 10.75 42.612 10.75 85.375v149.25c0 42.677-0.042 64.010 10.625 85.375s53.375 42.603 53.375 64c0 21.397-42.708 42.635-53.375 64s-10.625 42.698-10.625 85.375v149.25c0 42.763-0.051 64.010-10.75 85.375s-31.885 42.708-53.25 53.375c-21.365 10.667-42.635 10.625-64 10.625z" />
<glyph unicode="&#xe912;" glyph-name="broadcast" d="M162.125 960c-6.998-0.066-13.402-2.555-18.428-6.667l0.053 0.042c-64.012-50.539-101.945-115.75-102.25-185 0-0.037 0-0.081 0-0.125s0-0.088 0-0.132v0.007c0.129-69.417 38.085-134.839 102.25-185.5 5.046-4.14 11.568-6.65 18.676-6.65 16.32 0 29.55 13.23 29.55 29.55 0 9.538-4.519 18.021-11.533 23.424l-0.069 0.051c-53.903 42.559-79.786 91.227-79.875 139.25 0.252 47.87 26.145 96.328 79.875 138.75 7.065 5.455 11.57 13.927 11.57 23.451 0 16.32-13.23 29.55-29.55 29.55-0.095 0-0.19 0-0.284-0.001h0.014zM861 960c-16.063-0.332-28.958-13.431-28.958-29.542 0-9.529 4.511-18.004 11.514-23.407l0.069-0.051c53.903-42.555 79.786-91.232 79.875-139.25-0.25-47.865-26.145-96.332-79.875-138.75-7.031-5.456-11.512-13.906-11.512-23.404 0-16.319 13.23-29.548 29.55-29.548 7.067 0 13.555 2.481 18.64 6.619l-0.054-0.043c64.012 50.535 101.945 115.756 102.25 185 0 0.037 0 0.081 0 0.125s0 0.088 0 0.132v-0.007c-0.129 69.41-38.085 134.843-102.25 185.5-5.042 4.129-11.556 6.631-18.654 6.631-0.21 0-0.419-0.002-0.628-0.007l0.031 0.001zM289.75 896c-5.947-0.16-11.422-2.053-15.974-5.19l0.099 0.065c-49.212-32.264-73.138-77.835-73.375-122.625 0-0.037 0-0.081 0-0.125s0-0.088 0-0.132v0.007c0.1-44.915 24.051-90.537 73.375-122.875 4.79-3.488 10.792-5.581 17.282-5.581 16.32 0 29.55 13.23 29.55 29.55 0 10.751-5.741 20.161-14.325 25.331l-0.133 0.074c-36.708 24.067-46.528 47.482-46.625 73.625 0.177 26.097 10.011 49.37 46.625 73.375 8.304 5.325 13.728 14.508 13.728 24.957 0 16.32-13.23 29.55-29.55 29.55-0.238 0-0.476-0.003-0.712-0.008l0.035 0.001zM512 896c-70.692 0-128-57.308-128-128v0c0-70.692 57.308-128 128-128v0c70.692 0 128 57.308 128 128v0c0 70.692-57.308 128-128 128v0zM733.375 896c-16.23-0.118-29.342-13.303-29.342-29.55 0-10.445 5.419-19.624 13.599-24.88l0.117-0.071c36.708-24.067 46.53-47.485 46.625-73.625-0.179-26.096-10.010-49.37-46.625-73.375-8.718-5.245-14.46-14.655-14.46-25.407 0-16.32 13.23-29.55 29.55-29.55 6.491 0 12.494 2.093 17.369 5.641l-0.085-0.059c49.211 32.264 73.137 77.836 73.375 122.625 0 0.037 0 0.081 0 0.125s0 0.088 0 0.132v-0.007c-0.097 44.917-24.051 90.537-73.375 122.875-4.657 3.209-10.421 5.125-16.632 5.125-0.041 0-0.083 0-0.124 0h0.006zM464 576c-8.864 0-18.708-6.645-22-14.875l-244-610.25c-3.292-8.23 1.136-14.875 10-14.875h96c8.864 0 18.708 6.645 22 14.875l45.25 113.125h281.5l45.25-113.125c3.292-8.23 13.136-14.875 22-14.875h96c8.864 0 13.292 6.645 10 14.875l-244 610.25c-3.292 8.23-13.136 14.875-22 14.875zM512 416.125l64-160.125h-128zM422.375 192h179.25l25.5-64h-230.25z" />
<glyph unicode="&#xe913;" glyph-name="bundle" d="M80 896c-8.864 0-16-7.136-16-16v-112h128v112c0 8.864-7.136 16-16 16zM272 896c-8.864 0-16-7.136-16-16v-112h128v112c0 8.864-7.136 16-16 16zM464 896c-8.864 0-16-7.136-16-16v-112h128v112c0 8.864-7.136 16-16 16zM640 896v-896h304c8.864 0 16 7.136 16 16v864c0 8.864-7.136 16-16 16zM704 768h192v-640h-192zM64 704v-64h128v64zM256 704v-64h128v64zM448 704v-64h128v64zM64 576v-560c0-8.864 7.136-16 16-16h96c8.864 0 16 7.136 16 16v560zM256 576v-560c0-8.864 7.136-16 16-16h96c8.864 0 16 7.136 16 16v560zM448 576v-560c0-8.864 7.136-16 16-16h96c8.864 0 16 7.136 16 16v560z" />
<glyph unicode="&#xe914;" glyph-name="calendar" d="M272 896c-8.864 0-16-7.136-16-16v-112h-64c-35.456 0-64-28.544-64-64v-640c0-35.456 28.544-64 64-64h704c35.456 0 64 28.544 64 64v640c0 35.456-28.544 64-64 64h-64v112c0 8.864-7.136 16-16 16h-160c-8.864 0-16-7.136-16-16v-112h-192v112c0 8.864-7.136 16-16 16zM320 832h64v-192h-64zM704 832h64v-192h-64zM224 576h640c17.728 0 32-14.272 32-32v-448c0-17.728-14.272-32-32-32h-640c-17.728 0-32 14.272-32 32v448c0 17.728 14.272 32 32 32z" />
<glyph unicode="&#xe915;" glyph-name="calendar-check" d="M272 896c-8.864 0-16-7.136-16-16v-112h-64c-35.456 0-64-28.544-64-64v-640c0-35.456 28.544-64 64-64h704c35.456 0 64 28.544 64 64v640c0 35.456-28.544 64-64 64h-64v112c0 8.864-7.136 16-16 16h-160c-8.864 0-16-7.136-16-16v-112h-192v112c0 8.864-7.136 16-16 16zM320 832h64v-192h-64zM704 832h64v-192h-64zM224 576h640c17.728 0 32-14.272 32-32v-448c0-17.728-14.272-32-32-32h-640c-17.728 0-32 14.272-32 32v448c0 17.728 14.272 32 32 32zM718.25 463.25c-4.090 0-8.241-1.616-11.375-4.75l-237.625-237.5-88.125 88.125c-6.268 6.268-16.357 6.268-22.625 0l-27.125-27.125c-6.268-6.268-6.268-16.357 0-22.625l126.625-126.625c6.268-6.268 16.357-6.268 22.625 0l276 276c6.268 6.268 6.268 16.357 0 22.625l-27.125 27.125c-3.134 3.134-7.16 4.75-11.25 4.75z" />
<glyph unicode="&#xe916;" glyph-name="calendar-grid" d="M272 896c-8.864 0-16-7.136-16-16v-112h-64c-35.456 0-64-28.544-64-64v-640c0-35.456 28.544-64 64-64h704c35.456 0 64 28.544 64 64v640c0 35.456-28.544 64-64 64h-64v112c0 8.864-7.136 16-16 16h-160c-8.864 0-16-7.136-16-16v-112h-192v112c0 8.864-7.136 16-16 16zM320 832h64v-192h-64zM704 832h64v-192h-64zM192 576h128v-128h-128zM384 576h128v-128h-128zM576 576h128v-128h-128zM768 576h128v-128h-128zM192 384h128v-128h-128zM384 384h128v-128h-128zM576 384h128v-128h-128zM768 384h128v-128h-128zM192 192h128v-128h-128zM384 192h128v-128h-128zM576 192h128v-128h-128zM768 192h128v-128h-128z" />
<glyph unicode="&#xe917;" glyph-name="calendar-minus" d="M272 896c-8.864 0-16-7.136-16-16v-112h-64c-35.456 0-64-28.544-64-64v-640c0-35.456 28.544-64 64-64h704c35.456 0 64 28.544 64 64v640c0 35.456-28.544 64-64 64h-64v112c0 8.864-7.136 16-16 16h-160c-8.864 0-16-7.136-16-16v-112h-192v112c0 8.864-7.136 16-16 16zM320 832h64v-192h-64zM704 832h64v-192h-64zM224 576h640c17.728 0 32-14.272 32-32v-448c0-17.728-14.272-32-32-32h-640c-17.728 0-32 14.272-32 32v448c0 17.728 14.272 32 32 32zM400 320c-8.864 0-16-7.136-16-16v-32c0-8.864 7.136-16 16-16h288c8.864 0 16 7.136 16 16v32c0 8.864-7.136 16-16 16z" />
<glyph unicode="&#xe918;" glyph-name="calendar-plus" d="M272 896c-8.864 0-16-7.136-16-16v-112h-64c-35.456 0-64-28.544-64-64v-640c0-35.456 28.544-64 64-64h704c35.456 0 64 28.544 64 64v640c0 35.456-28.544 64-64 64h-64v112c0 8.864-7.136 16-16 16h-160c-8.864 0-16-7.136-16-16v-112h-192v112c0 8.864-7.136 16-16 16zM320 832h64v-192h-64zM704 832h64v-192h-64zM224 576h640c17.728 0 32-14.272 32-32v-448c0-17.728-14.272-32-32-32h-640c-17.728 0-32 14.272-32 32v448c0 17.728 14.272 32 32 32zM528 448c-8.864 0-16-7.136-16-16v-112h-112c-8.864 0-16-7.136-16-16v-32c0-8.864 7.136-16 16-16h112v-112c0-8.864 7.136-16 16-16h32c8.864 0 16 7.136 16 16v112h112c8.864 0 16 7.136 16 16v32c0 8.864-7.136 16-16 16h-112v112c0 8.864-7.136 16-16 16z" />
<glyph unicode="&#xe919;" glyph-name="calendar-x" d="M272 896c-8.864 0-16-7.136-16-16v-112h-64c-35.456 0-64-28.544-64-64v-640c0-35.456 28.544-64 64-64h704c35.456 0 64 28.544 64 64v640c0 35.456-28.544 64-64 64h-64v112c0 8.864-7.136 16-16 16h-160c-8.864 0-16-7.136-16-16v-112h-192v112c0 8.864-7.136 16-16 16zM320 832h64v-192h-64zM704 832h64v-192h-64zM224 576h640c17.728 0 32-14.272 32-32v-448c0-17.728-14.272-32-32-32h-640c-17.728 0-32 14.272-32 32v448c0 17.728 14.272 32 32 32zM650.75 434.875c-4.090 0-8.241-1.616-11.375-4.75l-95.375-95.375-95.375 95.375c-3.134 3.134-7.16 4.625-11.25 4.625s-8.241-1.491-11.375-4.625l-30.625-30.75c-6.268-6.268-6.268-16.357 0-22.625l95.375-95.375-95.375-95.375c-6.268-6.268-6.268-16.357 0-22.625l30.625-30.625c6.268-6.268 16.357-6.268 22.625 0l95.375 95.375 95.375-95.375c6.268-6.268 16.357-6.268 22.625 0l30.625 30.625c6.268 6.268 6.268 16.357 0 22.625l-95.375 95.375 95.375 95.375c6.268 6.268 6.268 16.357 0 22.625l-30.625 30.75c-3.134 3.134-7.161 4.75-11.25 4.75z" />
<glyph unicode="&#xe91a;" glyph-name="chart" d="M924 898.75c-59.027-1.175-169.22-12.529-169.875-20.25-0.359-4.227 31.589-38.269 67.75-75.25l-213.875-213.875-180.625 180.625c-6.268 6.268-16.482 6.268-22.75 0l-342.625-342.625c-6.268-6.268-6.268-16.482 0-22.75l22.625-22.625c6.268-6.268 16.482-6.268 22.75 0l308.625 308.625 180.625-180.625c6.268-6.268 16.482-6.268 22.75 0l247.875 247.875c36.981-36.161 71.023-68.109 75.25-67.75 10.295 0.873 26.921 196.454 17.5 205.875-2.355 2.355-16.324 3.142-36 2.75zM848 576c-8.864 0-16-7.136-16-16v-544c0-8.864 7.136-16 16-16h96c8.864 0 16 7.136 16 16v544c0 8.864-7.136 16-16 16zM336 512c-8.864 0-16-7.136-16-16v-480c0-8.864 7.136-16 16-16h96c8.864 0 16 7.136 16 16v480c0 8.864-7.136 16-16 16zM592 384c-8.864 0-16-7.136-16-16v-352c0-8.864 7.136-16 16-16h96c8.864 0 16 7.136 16 16v352c0 8.864-7.136 16-16 16zM80 256c-8.864 0-16-7.136-16-16v-224c0-8.864 7.136-16 16-16h96c8.864 0 16 7.136 16 16v224c0 8.864-7.136 16-16 16z" />
<glyph unicode="&#xe91b;" glyph-name="check" d="M832 723.875c-4.090 0-8.241-1.491-11.375-4.625l-372.625-372.75-180.625 180.75c-6.268 6.268-16.482 6.268-22.75 0l-67.875-67.875c-6.268-6.268-6.268-16.482 0-22.75l259.875-259.875c6.268-6.268 16.482-6.268 22.75 0l451.875 451.875c6.268 6.268 6.268 16.482 0 22.75l-67.875 67.875c-3.134 3.134-7.285 4.625-11.375 4.625z" />
<glyph unicode="&#xe91c;" glyph-name="checkbox" d="M80 896c-8.864 0-16-7.136-16-16v-864c0-8.864 7.136-16 16-16h864c8.864 0 16 7.136 16 16v523.375l-128-128v-283.375h-640v640h539.375l128 128zM896 787.875c-4.090 0-8.241-1.491-11.375-4.625l-372.625-372.75-180.625 180.75c-6.268 6.268-16.482 6.268-22.75 0l-67.875-67.875c-6.268-6.268-6.268-16.482 0-22.75l259.875-259.875c6.268-6.268 16.482-6.268 22.75 0l451.875 451.875c6.268 6.268 6.268 16.482 0 22.75l-67.875 67.875c-3.134 3.134-7.285 4.625-11.375 4.625z" />
<glyph unicode="&#xe91d;" glyph-name="chevron-down" d="M191.25 640c-16.36 0-32.714-6.214-45.25-18.75-25.071-25.071-25.071-65.429 0-90.5l320-320c12.73-12.73 29.388-18.822 46-18.625 16.612-0.198 33.27 5.896 46 18.625l320 320c25.071 25.071 25.071 65.429 0 90.5s-65.429 25.071-90.5 0l-275.5-275.5-275.5 275.5c-12.536 12.536-28.89 18.75-45.25 18.75z" />
<glyph unicode="&#xe91e;" glyph-name="chevron-left" d="M704.008 768.75c0 16.36-6.214 32.714-18.75 45.25-25.071 25.071-65.429 25.071-90.5 0l-320-320c-12.73-12.73-18.822-29.388-18.625-46-0.198-16.612 5.896-33.27 18.625-46l320-320c25.071-25.071 65.429-25.071 90.5 0s25.071 65.429 0 90.5l-275.5 275.5 275.5 275.5c12.536 12.536 18.75 28.89 18.75 45.25z" />
<glyph unicode="&#xe91f;" glyph-name="chevron-right" d="M319.992 768.75c0 16.36 6.214 32.714 18.75 45.25 25.071 25.071 65.429 25.071 90.5 0l320-320c12.73-12.73 18.822-29.388 18.625-46 0.198-16.612-5.896-33.27-18.625-46l-320-320c-25.071-25.071-65.429-25.071-90.5 0s-25.071 65.429 0 90.5l275.5 275.5-275.5 275.5c-12.536 12.536-18.75 28.89-18.75 45.25z" />
<glyph unicode="&#xe920;" glyph-name="chevron-up" d="M191.25 256c-16.36 0-32.714 6.214-45.25 18.75-25.071 25.071-25.071 65.429 0 90.5l320 320c12.73 12.73 29.388 18.822 46 18.625 16.612 0.198 33.27-5.896 46-18.625l320-320c25.071-25.071 25.071-65.429 0-90.5s-65.429-25.071-90.5 0l-275.5 275.5-275.5-275.5c-12.536-12.536-28.89-18.75-45.25-18.75z" />
<glyph unicode="&#xe921;" glyph-name="claim" d="M512 896c-141.385 0-256-114.615-256-256 0.25-91.209 49.010-175.396 128-221v-355c0-35.456 28.544-64 64-64h112c8.864 0 16 7.136 16 16v48h48c8.864 0 16 7.136 16 16v32c0 8.864-7.136 16-16 16h-48v64h48c8.864 0 16 7.136 16 16v32c0 8.864-7.136 16-16 16h-48v64h48c8.864 0 16 7.136 16 16v82.625c79.105 45.671 127.883 130.032 128 221.375 0 141.385-114.615 256-256 256zM480 832h64c17.728 0 32-14.272 32-32v-64c0-17.728-14.272-32-32-32h-64c-17.728 0-32 14.272-32 32v64c0 17.728 14.272 32 32 32zM464 448h32c8.864 0 16-7.136 16-16v-352c0-8.864-7.136-16-16-16h-32c-8.864 0-16 7.136-16 16v352c0 8.864 7.136 16 16 16z" />
<glyph unicode="&#xe922;" glyph-name="client" d="M64 896c-35.456 0-64-28.544-64-64v-768c0-35.456 28.544-64 64-64h896c35.456 0 64 28.544 64 64v768c0 35.456-28.544 64-64 64zM768 832h192v-64h-192zM64 704h896v-640h-896zM464 576c-8.864 0-16-7.136-16-16v-112.75c-41.419-0.685-76.126-1.819-78.5-3.875-7.123-6.169 128.254-123.375 142.5-123.375s149.623 117.206 142.5 123.375c-2.374 2.056-37.081 3.19-78.5 3.875v112.75c0 8.864-7.136 16-16 16zM272 448c-8.864 0-16-7.136-16-16v-224c0-8.864 7.136-16 16-16h480c8.864 0 16 7.136 16 16v224c0 8.864-7.136 16-16 16h-32c-8.864 0-16-7.136-16-16v-176h-384v176c0 8.864-7.136 16-16 16z" />
<glyph unicode="&#xe923;" glyph-name="cog" d="M464 832c-8.864 0-16-7.136-16-16v-120.5c-24.953-6.566-46.827-15.894-66.919-27.897l1.169 0.647-85.25 85.25c-6.268 6.268-16.357 6.268-22.625 0l-67.875-67.875c-6.268-6.268-6.268-16.357 0-22.625l85.25-85.25c-11.399-18.922-20.767-40.794-26.968-63.961l-0.407-1.789h-120.375c-8.864 0-16-7.136-16-16v-96c0-8.864 7.136-16 16-16h120.5c6.566-24.953 15.894-46.827 27.897-66.919l-0.647 1.169-85.25-85.25c-6.268-6.268-6.268-16.357 0-22.625l67.875-67.875c6.268-6.268 16.357-6.268 22.625 0l85.25 85.25c18.922-11.399 40.794-20.767 63.961-26.968l1.789-0.407v-120.375c0-8.864 7.136-16 16-16h96c8.864 0 16 7.136 16 16v120.5c24.953 6.566 46.828 15.894 66.92 27.898l-1.17-0.647 85.25-85.25c6.268-6.268 16.357-6.268 22.625 0l67.875 67.875c6.268 6.268 6.268 16.357 0 22.625l-85.25 85.25c11.399 18.922 20.767 40.794 26.968 63.961l0.407 1.789h120.375c8.864 0 16 7.136 16 16v96c0 8.864-7.136 16-16 16h-120.5c-6.566 24.953-15.894 46.828-27.898 66.92l0.647-1.17 85.25 85.25c6.268 6.268 6.268 16.357 0 22.625l-67.875 67.875c-6.268 6.268-16.357 6.268-22.625 0l-85.25-85.25c-18.922 11.399-40.794 20.767-63.961 26.968l-1.789 0.407v120.375c0 8.864-7.136 16-16 16zM512 576c0 0 0.001 0 0.002 0 36.030 0 68.582-14.886 91.843-38.844l0.030-0.031c22.347-23.017 36.125-54.461 36.125-89.123 0-0.001 0-0.001 0-0.002v0c0 0 0-0.001 0-0.002 0-36.030-14.886-68.582-38.844-91.843l-0.031-0.030c-23.017-22.347-54.461-36.125-89.123-36.125-0.001 0-0.001 0-0.002 0v0c0 0-0.001 0-0.002 0-36.030 0-68.582 14.886-91.843 38.844l-0.030 0.031c-22.347 23.017-36.125 54.461-36.125 89.123 0 0.001 0 0.001 0 0.002v0c0 0 0 0.001 0 0.002 0 36.030 14.886 68.582 38.844 91.843l0.031 0.030c23.017 22.347 54.461 36.125 89.123 36.125 0.001 0 0.001 0 0.002 0v0z" />
<glyph unicode="&#xe924;" glyph-name="compass" d="M512 960c-282.77 0-512-229.23-512-512v0c0-282.77 229.23-512 512-512v0c282.77 0 512 229.23 512 512v0c0 282.77-229.23 512-512 512v0zM436.5 889.625c24.145-46.585 69.016-121.625 75.5-121.625 6.465 0 51.177 74.506 75.375 121.125 187.387-32.793 333.138-178.332 365.853-362.923l0.397-2.702c-46.585-24.145-121.625-69.016-121.625-75.5 0-6.465 74.506-51.177 121.125-75.375-32.793-187.387-178.332-333.138-362.923-365.853l-2.702-0.397c-24.145 46.585-69.016 121.625-75.5 121.625-6.465 0-51.177-74.506-75.375-121.125-187.387 32.793-333.138 178.332-365.853 362.923l-0.397 2.702c46.585 24.145 121.625 69.016 121.625 75.5 0 6.465-74.506 51.177-121.125 75.375 32.793 187.387 178.332 333.138 362.923 365.853l2.702 0.397zM738.25 674.25c-11.758 11.758-319.367-93.117-339.375-113.125s-124.883-327.617-113.125-339.375c11.758-11.758 319.367 93.117 339.375 113.125s124.883 327.617 113.125 339.375zM444.125 515.875l135.75-135.75c-11.433-11.433-208.281-85.969-215-79.25s67.817 203.567 79.25 215z" />
<glyph unicode="&#xe925;" glyph-name="credit-card" d="M64 832c-35.456 0-64-28.544-64-64v-640c0-35.456 28.544-64 64-64h896c35.456 0 64 28.544 64 64v640c0 35.456-28.544 64-64 64zM96 768h832c17.728 0 32-14.272 32-32v-96h-896v96c0 17.728 14.272 32 32 32zM64 448h896v-288c0-17.728-14.272-32-32-32h-832c-17.728 0-32 14.272-32 32zM144 256c-8.864 0-16-7.136-16-16v-32c0-8.864 7.136-16 16-16h96c8.864 0 16 7.136 16 16v32c0 8.864-7.136 16-16 16zM336 256c-8.864 0-16-7.136-16-16v-32c0-8.864 7.136-16 16-16h160c8.864 0 16 7.136 16 16v32c0 8.864-7.136 16-16 16z" />
<glyph unicode="&#xe926;" glyph-name="dashboard" d="M64 960c-35.456 0-64-28.544-64-64v-896c0-35.456 28.544-64 64-64h896c35.456 0 64 28.544 64 64v896c0 35.456-28.544 64-64 64zM144 832h96c8.864 0 16-7.136 16-16v-96c0-8.864-7.136-16-16-16h-96c-8.864 0-16 7.136-16 16v96c0 8.864 7.136 16 16 16zM336 832h32c8.864 0 16-7.136 16-16v-96c0-8.864-7.136-16-16-16h-32c-8.864 0-16 7.136-16 16v96c0 8.864 7.136 16 16 16zM528 832h32c8.864 0 16-7.136 16-16v-368h-64v368c0 8.864 7.136 16 16 16zM784 832h32c8.864 0 16-7.136 16-16v-112h-64v112c0 8.864 7.136 16 16 16zM256 640c70.692 0 128-57.308 128-128s-57.308-128-128-128c-70.692 0-128 57.308-128 128s57.308 128 128 128zM720 640h160c8.864 0 16-7.136 16-16v-96c0-8.864-7.136-16-16-16h-160c-8.864 0-16 7.136-16 16v96c0 8.864 7.136 16 16 16zM256 576c-35.346 0-64-28.654-64-64s28.654-64 64-64c35.346 0 64 28.654 64 64s-28.654 64-64 64zM768 448h64v-368c0-8.864-7.136-16-16-16h-32c-8.864 0-16 7.136-16 16zM464 384h160c8.864 0 16-7.136 16-16v-96c0-8.864-7.136-16-16-16h-160c-8.864 0-16 7.136-16 16v96c0 8.864 7.136 16 16 16zM256 320c70.692 0 128-57.308 128-128s-57.308-128-128-128c-70.692 0-128 57.308-128 128s57.308 128 128 128zM256 256c-35.346 0-64-28.654-64-64s28.654-64 64-64c35.346 0 64 28.654 64 64s-28.654 64-64 64zM512 192h64v-112c0-8.864-7.136-16-16-16h-32c-8.864 0-16 7.136-16 16z" />
<glyph unicode="&#xe927;" glyph-name="devlogs" d="M80 960c-8.864 0-16-7.136-16-16v-1008h64v832h816c8.864 0 16 7.136 16 16v160c0 8.864-7.136 16-16 16zM784 896h96c8.864 0 16-7.136 16-16v-32c0-8.864-7.136-16-16-16h-96c-8.864 0-16 7.136-16 16v32c0 8.864 7.136 16 16 16zM208 704c-8.864 0-16-7.136-16-16v-32c0-8.864 7.136-16 16-16h160c8.864 0 16 7.136 16 16v32c0 8.864-7.136 16-16 16zM464 704c-8.864 0-16-7.136-16-16v-32c0-8.864 7.136-16 16-16h96c8.864 0 16 7.136 16 16v32c0 8.864-7.136 16-16 16zM208 576c-8.864 0-16-7.136-16-16v-416c0-8.864 7.136-16 16-16h736c8.864 0 16 7.136 16 16v416c0 8.864-7.136 16-16 16zM457.25 511.75c12.337 7.985 246.75-143.78 246.75-159.75s-234.413-167.735-246.75-159.75c-12.337 7.985-12.337 311.515 0 319.5zM208 64c-8.864 0-16-7.136-16-16v-96c0-8.864 7.136-16 16-16h96c8.864 0 16 7.136 16 16v96c0 8.864-7.136 16-16 16zM400 64c-8.864 0-16-7.136-16-16v-96c0-8.864 7.136-16 16-16h96c8.864 0 16 7.136 16 16v96c0 8.864-7.136 16-16 16zM592 64c-8.864 0-16-7.136-16-16v-96c0-8.864 7.136-16 16-16h96c8.864 0 16 7.136 16 16v96c0 8.864-7.136 16-16 16zM848 64c-8.864 0-16-7.136-16-16v-96c0-8.864 7.136-16 16-16h96c8.864 0 16 7.136 16 16v96c0 8.864-7.136 16-16 16z" />
<glyph unicode="&#xe928;" glyph-name="download" d="M336 896c-8.864 0-16-7.136-16-16v-48h384v48c0 8.864-7.136 16-16 16zM320 768v-386.625c-101.954-2.161-185.232-5.438-191.25-11.25-19.164-18.506 344.923-370.125 383.25-370.125s402.414 351.619 383.25 370.125c-6.018 5.812-89.296 9.089-191.25 11.25v386.625z" />
<glyph unicode="&#xe929;" glyph-name="download-box" d="M464 960c-8.862 0-16-7.138-16-16v-112.875c-66.147-0.863-124.023-2.646-127.625-6.125-9.582-9.253 172.462-185 191.625-185s201.207 175.747 191.625 185c-3.602 3.479-61.478 5.262-127.625 6.125v112.875c0 8.862-7.138 16-16 16zM512 576c-5.173 0-10.286-1.018-14.25-3l-299.75-149.875c-3.964-1.982-6-4.538-6-7.125v-320c0-2.587 2.036-5.143 6-7.125l299.75-149.875c7.928-3.964 20.572-3.964 28.5 0l299.75 149.875c3.964 1.982 6 4.538 6 7.125v320c0 2.587-2.036 5.143-6 7.125l-299.75 149.875c-3.964 1.982-9.077 3-14.25 3zM512 512c5.172 0 10.287-1.018 14.25-3l171.75-85.875c7.926-3.964 7.926-10.286 0-14.25l-171.75-85.875c-7.926-3.964-20.574-3.964-28.5 0l-171.75 85.875c-7.926 3.964-7.926 10.286 0 14.25l171.75 85.875c3.963 1.982 9.078 3 14.25 3z" />
<glyph unicode="&#xe92a;" glyph-name="edit" d="M784.625 896c-16.36 0-32.714-6.215-45.25-18.75l-81.875-81.75 202-202 81.75 81.875c25.071 25.071 25.071 65.429 0 90.5l-111.375 111.375c-12.536 12.535-28.89 18.75-45.25 18.75zM612.25 750.25l-452.25-452.375-96-297.875 297.875 96 452.375 452.25zM209.25 248.625l103.375-103.375-152.625-49.25z" />
<glyph unicode="&#xe92b;" glyph-name="ellipsis-h" d="M176 560c-62.048 0-112-49.952-112-112s49.952-112 112-112c62.048 0 112 49.952 112 112s-49.952 112-112 112zM512 560c-62.048 0-112-49.952-112-112s49.952-112 112-112c62.048 0 112 49.952 112 112s-49.952 112-112 112zM848 560c-62.048 0-112-49.952-112-112s49.952-112 112-112c62.048 0 112 49.952 112 112s-49.952 112-112 112z" />
<glyph unicode="&#xe92c;" glyph-name="ellipsis-v" d="M512 896c-62.048 0-112-49.952-112-112s49.952-112 112-112c62.048 0 112 49.952 112 112s-49.952 112-112 112zM512 560c-62.048 0-112-49.952-112-112s49.952-112 112-112c62.048 0 112 49.952 112 112s-49.952 112-112 112zM512 224c-62.048 0-112-49.952-112-112s49.952-112 112-112c62.048 0 112 49.952 112 112s-49.952 112-112 112z" />
<glyph unicode="&#xe92d;" glyph-name="email" d="M32 768c-17.728 0-32-14.272-32-32v-32c0-21.365-0.035-42.596 21.375-64 18.067-18.062 51.969-36.014 87.5-54 94.261-46.819 195.884-96.889 264.5-127.375 96.018-42.66 117.324-42.625 138.625-42.625s42.75-0.058 138.5 42.5c67.834 30.15 168.464 79.677 262.25 126.25 36.455 18.4 71.392 36.773 89.875 55.25 21.41 21.404 21.375 42.635 21.375 64v32c0 17.728-14.272 32-32 32zM0 576v-416c0-17.728 14.272-32 32-32h960c17.728 0 32 14.272 32 32v416c0-21.365 0.035-42.596-21.375-64-18.379-18.373-53.020-36.703-89.25-55-93.763-46.603-194.449-96.064-262.625-126.375-96.011-42.686-117.385-42.625-138.75-42.625s-42.6-0.038-138.875 42.75c-68.063 30.25-168.116 79.372-261.5 125.75-36.613 18.47-71.698 36.953-90.25 55.5-21.41 21.404-21.375 42.635-21.375 64z" />
<glyph unicode="&#xe92e;" glyph-name="exclamation-circle" d="M512 896c-247.424 0-448-200.576-448-448v0c0-247.424 200.576-448 448-448v0c247.424 0 448 200.576 448 448v0c0 247.424-200.576 448-448 448v0zM512 768c35.456 0 64-28.544 64-64v-320c0-35.456-28.544-64-64-64s-64 28.544-64 64v320c0 35.456 28.544 64 64 64zM512 256c35.456 0 64-28.544 64-64s-28.544-64-64-64c-35.456 0-64 28.544-64 64s28.544 64 64 64z" />
<glyph unicode="&#xe92f;" glyph-name="exp" d="M16 832c-8.864 0-16-7.136-16-16v-352c0-8.864 7.136-16 16-16h224c8.864 0 16 7.136 16 16v96c0 8.864-7.136 16-16 16h-112v64h112c8.864 0 16 7.136 16 16v32c0 8.864-7.136 16-16 16h-112v64h112c8.864 0 16 7.136 16 16v32c0 8.864-7.136 16-16 16zM383.5 832c-4.085 0-8.245-1.619-11.375-4.75l-47.375-47.5c-6.261-6.261-6.261-16.239 0-22.5l117.25-117.25-117.25-117.25c-6.261-6.261-6.261-16.239 0-22.5l47.375-47.5c6.261-6.261 16.364-6.261 22.625 0l117.25 117.25 117.25-117.25c6.261-6.261 16.239-6.261 22.5 0l47.5 47.5c6.261 6.261 6.261 16.239 0 22.5l-117.25 117.25 117.25 117.25c6.261 6.261 6.261 16.239 0 22.5l-47.5 47.5c-6.261 6.261-16.239 6.261-22.5 0l-117.25-117.25-117.25 117.25c-3.13 3.131-7.165 4.75-11.25 4.75zM784 832c-8.864 0-16-7.136-16-16v-352c0-8.864 7.136-16 16-16h96c8.864 0 16 7.136 16 16v112h64c35.456 0 64 28.544 64 64v128c0 35.456-28.544 64-64 64zM832 768h64v-128h-64zM64 320c-35.456 0-64-28.544-64-64v-128c0-35.456 28.544-64 64-64h896c35.456 0 64 28.544 64 64v128c0 35.456-28.544 64-64 64zM704 256h224c17.728 0 32-14.272 32-32v-64c0-17.728-14.272-32-32-32h-224z" />
<glyph unicode="&#xe930;" glyph-name="facebook" d="M512 960c-282.77 0-512-229.23-512-512 0.293-251.084 182.617-464.908 430.5-504.875v353.75h-128.875v154.75h128.875v154.625c0 85.689 69.061 154.625 154.75 154.625l154.625-6.375v-148.25h-128.875c-14.282 0-25.75-11.468-25.75-25.75v-128.875h154.625l-12.875-154.75h-141.75v-355.125c251.675 36.38 438.51 251.96 438.75 506.25 0 282.77-229.23 512-512 512z" />
<glyph unicode="&#xe931;" glyph-name="fast-backward" d="M208 704c-8.864 0-16-7.136-16-16v-480c0-8.864 7.136-16 16-16h96c8.864 0 16 7.136 16 16v191.25c75.055-77.736 234.514-216.509 245.375-206.75 6.118 5.497 9.022 102.283 9.875 207.5 74.686-77.558 235.223-217.296 246.125-207.5 14.219 12.776 14.219 498.224 0 511-10.902 9.796-171.439-129.942-246.125-207.5-0.853 105.217-3.757 202.003-9.875 207.5-10.861 9.759-170.32-129.014-245.375-206.75v191.25c0 8.864-7.136 16-16 16z" />
<glyph unicode="&#xe932;" glyph-name="fast-forward" d="M720 704c-8.864 0-16-7.136-16-16v-191.25c-75.055 77.736-234.514 216.509-245.375 206.75-6.118-5.497-9.022-102.283-9.875-207.5-74.686 77.558-235.223 217.296-246.125 207.5-14.219-12.776-14.219-498.224 0-511 10.902-9.796 171.439 129.942 246.125 207.5 0.853-105.217 3.757-202.003 9.875-207.5 10.861-9.759 170.32 129.014 245.375 206.75v-191.25c0-8.864 7.136-16 16-16h96c8.864 0 16 7.136 16 16v480c0 8.864-7.136 16-16 16z" />
<glyph unicode="&#xe933;" glyph-name="feed" d="M16 960c-8.864 0-16-7.136-16-16v-416c0-8.864 7.136-16 16-16h416c8.864 0 16 7.136 16 16v416c0 8.864-7.136 16-16 16zM576 960v-112c0-8.864 7.136-16 16-16h416c8.864 0 16 7.136 16 16v112zM592 704c-8.864 0-16-7.136-16-16v-416c0-8.864 7.136-16 16-16h416c8.864 0 16 7.136 16 16v416c0 8.864-7.136 16-16 16zM16 384c-8.864 0-16-7.136-16-16v-416c0-8.864 7.136-16 16-16h416c8.864 0 16 7.136 16 16v416c0 8.864-7.136 16-16 16zM592 128c-8.864 0-16-7.136-16-16v-176h448v176c0 8.864-7.136 16-16 16z" />
<glyph unicode="&#xe934;" glyph-name="filter" d="M512 768c-186.844 0-373.668-4.622-383.25-13.875-15.073-14.556 205.123-233.097 319.25-326.625v-228.875c0-8.864 7.136-23.136 16-32l96-96c8.864-8.864 16-8.864 16 0v356.875c114.127 93.528 334.323 312.069 319.25 326.625-9.582 9.253-196.406 13.875-383.25 13.875z" />
<glyph unicode="&#xe935;" glyph-name="fireside" d="M896 896c0 0 0-128-128-128h-192c-128 0-192-128-192-128v128c0 0-128-64-128-128s0-64-64-128c-45.255-45.255-150.988-233.012 0-384 128-128 384-128 512 0 64 64 19.136 169.568 64 192 128 64 128 192 128 192h-192c0 0 0 64 64 64 128 0 192 128 128 320zM640 576c-128-64-128-192-128-192s64 64 128 64v-192c0-64-66.181-111.436-128-128-128-34.297-256 0-256 192 0 87.334 64 155.050 128 192 110.851 64 256 64 256 64z" />
<glyph unicode="&#xe936;" glyph-name="flag" d="M192 960c-35.346 0-64-28.654-64-64s28.654-64 64-64c35.346 0 64 28.654 64 64s-28.654 64-64 64zM144 768c-8.864 0-16-7.136-16-16v-816h128v816c0 8.864-7.136 16-16 16zM336 768c-8.864 0-16-7.136-16-16v-416c0-8.864 7.136-16 16-16h304v432c0 8.864-7.136 16-16 16zM464 704h32c8.864 0 16-7.136 16-16v-160c0-8.864-7.136-16-16-16h-32c-8.864 0-16 7.136-16 16v160c0 8.864 7.136 16 16 16zM704 640v-368c0-8.864-7.136-16-16-16h-112c0-35.346 28.654-64 64-64h224c53.325 0 74.75-0.010 74.75 10.625s-21.417 32.042-42.75 53.375c0 0-106.708 106.635-117.375 128s-10.667 42.699 0 64c10.667 21.301 117.375 128 117.375 128 21.301 21.301 42.718 42.74 42.75 53.375s-21.414 10.625-74.875 10.625zM464 448h32c8.864 0 16-7.136 16-16v-32c0-8.864-7.136-16-16-16h-32c-8.864 0-16 7.136-16 16v32c0 8.864 7.136 16 16 16z" />
<glyph unicode="&#xe937;" glyph-name="flash" d="M864 896c-135.466 0-244.217-61.688-314.625-143.375s-110.905-178.571-148.125-267.625c-37.22-89.054-71.442-170.8-109.375-221.375s-66.44-71.625-131.875-71.625h-32v-192h32c124.683 0 224.302 66.95 285.375 148.375 54.888 73.18 88.611 156.339 121.375 235.625h233.25v192h-141.375c11.679 19.048 23.606 36.705 36.25 51.375 43.365 50.313 84.94 76.625 169.125 76.625h32v192z" />
<glyph unicode="&#xe938;" glyph-name="folder" d="M96 768c-17.728 0-32-14.272-32-32v-160h512c0 35.456 28.544 64 64 64h320v48c0 8.864-7.136 16-16 16h-496v32c0 17.728-14.272 32-32 32zM672 576c-17.728 0-32-14.272-32-32v-32h-560c-8.864 0-16-7.136-16-16v-352c0-8.864 7.136-16 16-16h864c8.864 0 16 7.136 16 16v400c0 17.728-14.272 32-32 32z" />
<glyph unicode="&#xe939;" glyph-name="folder-open" d="M32 768c-17.728 0-32-14.272-32-32v-421.625l38.625 88.25c10.987 25.109 41.248 45.375 67.875 45.375h530.875c15.515 35.456 56.831 64 92.5 64h166.125v176c0 8.864-7.136 16-16 16h-496v32c0 17.728-14.272 32-32 32zM745.625 448c-17.818 0-38.493-14.272-46.25-32l-14-32h-562.75c-8.909 0-19.246-7.136-23.125-16l-98-224c-3.879-8.864 0.091-16 9-16h868.58c8.909 0 19.121 7.136 23 16l119 272c7.757 17.728-0.307 32-18.125 32z" />
<glyph unicode="&#xe93a;" glyph-name="forums" d="M576 960c-35.456 0-64-28.544-64-64v-128l-128-128h128v-64c0-35.456 28.544-64 64-64h384c35.456 0 64 28.544 64 64v320c0 35.456-28.544 64-64 64zM128 832c-70.692 0-128-57.308-128-128v0c0-70.692 57.308-128 128-128v0c70.692 0 128 57.308 128 128v0c0 70.692-57.308 128-128 128v0zM128 576h-64c-35.456 0-64-28.544-64-64h256c0 35.456-28.544 64-64 64zM656 832h224c8.864 0 16-7.136 16-16v-32c0-8.864-7.136-16-16-16h-224c-8.864 0-16 7.136-16 16v32c0 8.864 7.136 16 16 16zM656 704h224c8.864 0 16-7.136 16-16v-32c0-8.864-7.136-16-16-16h-224c-8.864 0-16 7.136-16 16v32c0 8.864 7.136 16 16 16zM576 384c-35.456 0-64-28.544-64-64v-128l-128-128h128v-64c0-35.456 28.544-64 64-64h384c35.456 0 64 28.544 64 64v320c0 35.456-28.544 64-64 64zM128 256c-70.692 0-128-57.308-128-128v0c0-70.692 57.308-128 128-128v0c70.692 0 128 57.308 128 128v0c0 70.692-57.308 128-128 128v0zM128 0h-64c-35.456 0-64-28.544-64-64h256c0 35.456-28.544 64-64 64zM656 256h224c8.864 0 16-7.136 16-16v-32c0-8.864-7.136-16-16-16h-224c-8.864 0-16 7.136-16 16v32c0 8.864 7.136 16 16 16zM656 128h224c8.864 0 16-7.136 16-16v-32c0-8.864-7.136-16-16-16h-224c-8.864 0-16 7.136-16 16v32c0 8.864 7.136 16 16 16z" />
<glyph unicode="&#xe93b;" glyph-name="forward" d="M266.625 703.5c-14.219-12.776-14.219-498.224 0-511 10.902-9.796 171.438 129.942 246.125 207.5 0.853-105.217 3.757-202.003 9.875-207.5 14.219-12.776 284.375 229.949 284.375 255.5s-270.156 268.276-284.375 255.5c-6.118-5.497-9.022-102.283-9.875-207.5-74.687 77.558-235.223 217.296-246.125 207.5z" />
<glyph unicode="&#xe93c;" glyph-name="friend-add-1" d="M784 896c-8.864 0-16-7.136-16-16v-112h-112c-8.864 0-16-7.136-16-16v-96c0-8.864 7.136-16 16-16h112v-112c0-8.864 7.136-16 16-16h96c8.864 0 16 7.136 16 16v112h112c8.864 0 16 7.136 16 16v96c0 8.864-7.136 16-16 16h-112v112c0 8.864-7.136 16-16 16zM320 640c-177.28 0-320-142.72-320-320s142.72-320 320-320c177.28 0 320 142.72 320 320s-142.72 320-320 320zM192 384c35.346 0 64-28.654 64-64v0c0-35.346-28.654-64-64-64v0c-35.346 0-64 28.654-64 64v0c0 35.346 28.654 64 64 64v0zM448 384c35.346 0 64-28.654 64-64v0c0-35.346-28.654-64-64-64v0c-35.346 0-64 28.654-64 64v0c0 35.346 28.654 64 64 64v0zM224 192h192c17.728 0 32-14.272 32-32s-14.272-32-32-32h-192c-17.728 0-32 14.272-32 32s14.272 32 32 32z" />
<glyph unicode="&#xe93d;" glyph-name="friend-add-2" d="M784 896c-8.864 0-16-7.136-16-16v-112h-112c-8.864 0-16-7.136-16-16v-96c0-8.864 7.136-16 16-16h112v-112c0-8.864 7.136-16 16-16h96c8.864 0 16 7.136 16 16v112h112c8.864 0 16 7.136 16 16v96c0 8.864-7.136 16-16 16h-112v112c0 8.864-7.136 16-16 16zM320 640c-177.28 0-320-142.72-320-320s142.72-320 320-320c177.28 0 320 142.72 320 320s-142.72 320-320 320zM192 448c35.346 0 64-28.654 64-64v0c0-35.346-28.654-64-64-64v0c-35.346 0-64 28.654-64 64v0c0 35.346 28.654 64 64 64v0zM448 448c35.346 0 64-28.654 64-64v0c0-35.346-28.654-64-64-64v0c-35.346 0-64 28.654-64 64v0c0 35.346 28.654 64 64 64v0zM160 256h320c17.728 0 32-14.272 32-32 0-53.019-85.961-96-192-96v0c-106.039 0-192 42.981-192 96v0c0 17.728 14.272 32 32 32z" />
<glyph unicode="&#xe93e;" glyph-name="friend-remove-1" d="M697.375 896c-4.090 0-8.116-1.616-11.25-4.75l-41.375-41.375c-6.268-6.268-6.268-16.357 0-22.625l123.25-123.25-123.25-123.375c-6.268-6.268-6.268-16.357 0-22.625l41.375-41.375c6.268-6.268 16.357-6.268 22.625 0l123.25 123.25 123.25-123.25c6.268-6.268 16.357-6.268 22.625 0l41.375 41.375c6.268 6.268 6.268 16.357 0 22.625l-123.25 123.375 123.25 123.25c6.268 6.268 6.268 16.357 0 22.625l-41.375 41.375c-6.268 6.268-16.357 6.268-22.625 0l-123.25-123.25-123.25 123.25c-3.134 3.134-7.285 4.75-11.375 4.75zM320 640c-177.289 0-320-142.72-320-320s142.711-320 320-320c177.289 0 320 142.72 320 320s-142.711 320-320 320zM192 384c35.346 0 64-28.654 64-64v0c0-35.346-28.654-64-64-64v0c-35.346 0-64 28.654-64 64v0c0 35.346 28.654 64 64 64v0zM448 384c35.346 0 64-28.654 64-64v0c0-35.346-28.654-64-64-64v0c-35.346 0-64 28.654-64 64v0c0 35.346 28.654 64 64 64v0zM224 192h192c17.728 0 32-14.272 32-32s-14.272-32-32-32h-192c-17.728 0-32 14.272-32 32s14.272 32 32 32z" />
<glyph unicode="&#xe93f;" glyph-name="friend-remove-2" d="M697.408 896c-4.090 0-8.116-1.616-11.25-4.75l-41.377-41.375c-6.268-6.268-6.268-16.357 0-22.625l123.256-123.25-123.256-123.375c-6.268-6.268-6.268-16.357 0-22.625l41.377-41.375c6.268-6.268 16.358-6.268 22.626 0l123.256 123.25 123.256-123.25c6.268-6.268 16.358-6.268 22.626 0l41.377 41.375c6.268 6.268 6.268 16.357 0 22.625l-123.256 123.375 123.256 123.25c6.268 6.268 6.268 16.357 0 22.625l-41.377 41.375c-6.268 6.268-16.358 6.268-22.626 0l-123.256-123.25-123.256 123.25c-3.134 3.134-7.286 4.75-11.376 4.75zM320.015 640c-177.289 0-320.015-142.72-320.015-320s142.727-320 320.015-320c177.289 0 320.015 142.72 320.015 320s-142.727 320-320.015 320zM160.008 320h64.003c17.729 0 32.002-14.272 32.002-32s-14.273-32-32.002-32h-64.003c-17.729 0-32.002 14.272-32.002 32s14.273 32 32.002 32zM416.020 320h64.003c17.729 0 32.002-14.272 32.002-32s-14.273-32-32.002-32h-64.003c-17.729 0-32.002 14.272-32.002 32s14.273 32 32.002 32zM224.011 192h192.009c17.729 0 32.002-14.272 32.002-32s-14.273-32-32.002-32h-192.009c-17.729 0-32.002 14.272-32.002 32s14.273 32 32.002 32z" />
<glyph unicode="&#xe940;" glyph-name="friend-requests" d="M336 960c-8.864 0-16-7.136-16-16v-112h-112c-8.864 0-16-7.136-16-16v-96c0-8.864 7.136-16 16-16h112v-112c0-8.864 7.136-16 16-16h96c8.864 0 16 7.136 16 16v112h112c8.864 0 16 7.136 16 16v96c0 8.864-7.136 16-16 16h-112v112c0 8.864-7.136 16-16 16zM192 512c-106.368 0-192-85.632-192-192s85.632-192 192-192c106.368 0 192 85.632 192 192s-85.632 192-192 192zM832 512c-106.368 0-192-85.632-192-192s85.632-192 192-192c106.368 0 192 85.632 192 192s-85.632 192-192 192zM128 64c-70.912 0-128-57.088-128-128h384c0 70.912-57.088 128-128 128zM768 64c-70.912 0-128-57.088-128-128h384c0 70.912-57.088 128-128 128z" />
<glyph unicode="&#xe941;" glyph-name="friends" d="M704 896c-70.692 0-128-57.308-128-128 0.041-36.762 15.887-71.731 43.5-96l180.5-160 180.5 160c27.613 24.269 43.458 59.238 43.5 96 0 70.692-57.308 128-128 128-36.762-0.041-71.731-15.887-96-43.5-24.269 27.613-59.238 43.459-96 43.5zM320 640c-177.28 0-320-142.72-320-320s142.72-320 320-320c177.28 0 320 142.72 320 320s-142.72 320-320 320zM192 448c35.346 0 64-28.654 64-64s-28.654-64-64-64c-35.346 0-64 28.654-64 64s28.654 64 64 64zM448 448c35.346 0 64-28.654 64-64s-28.654-64-64-64c-35.346 0-64 28.654-64 64s28.654 64 64 64zM160 256h320c17.728 0 32-14.272 32-32 0-53.019-85.961-96-192-96s-192 42.981-192 96c0 17.728 14.272 32 32 32z" />
<glyph unicode="&#xe942;" glyph-name="gift" d="M344 960c-56.274 0-108.111-16.954-147.875-47.25s-68.125-76.38-68.125-128.75c0-29.145 8.73-56.386 23.375-80h-78.25c-40.521 0-73.125-28.544-73.125-64v-64c0-35.456 32.604-64 73.125-64h374.875v192h-104c-36.51 0-68.71 11.595-89.75 27.625s-30.25 34.053-30.25 52.375c0 18.322 9.21 36.345 30.25 52.375s53.24 27.625 89.75 27.625c36.51 0 68.71-11.595 89.75-27.625s30.25-34.053 30.25-52.375v-80h96v80c0 18.322 9.21 36.345 30.25 52.375s53.24 27.625 89.75 27.625c36.51 0 68.71-11.595 89.75-27.625s30.25-34.053 30.25-52.375c0-18.322-9.21-36.345-30.25-52.375s-53.24-27.625-89.75-27.625h-104v-192h374.875c40.521 0 73.125 28.544 73.125 64v64c0 35.456-32.604 64-73.125 64h-78.25c14.645 23.614 23.375 50.855 23.375 80 0 52.37-28.361 98.454-68.125 128.75s-91.601 47.25-147.875 47.25c-56.274 0-108.111-16.954-147.875-47.25-7.124-5.428-13.83-11.363-20.125-17.75-6.295 6.387-13.001 12.322-20.125 17.75-39.764 30.296-91.601 47.25-147.875 47.25zM64 448v-448c0-35.456 28.544-64 64-64h320v512zM576 448v-512h320c35.456 0 64 28.544 64 64v448z" />
<glyph unicode="&#xe943;" glyph-name="google" d="M515.522 767.981c-64.46 0.709-127.631-18.067-181.238-53.87-126.98-84.812-176.335-247.527-117.867-388.587 58.419-140.992 208.283-221.102 357.975-191.356 149.75 29.76 257.613 161.17 257.607 313.844v63.994h-319.978v-127.987h180.738c-27.087-76.612-99.476-127.873-180.738-127.987-106.031 0-191.987 85.953-191.987 191.981s85.955 191.981 191.987 191.981c50.89-0.074 99.668-20.349 135.616-56.369l90.619 90.616c-59.137 59.159-139.091 92.808-222.735 93.741z" />
<glyph unicode="&#xe944;" glyph-name="heart" d="M333.75 848c-157.021 0.042-285.751-127.305-285.75-283.625 0.001-75.47 30.402-147.757 84.125-201l335.625-332.625c11.731-11.626 27.952-18.25 44.25-18.25 16.295 0 32.517 6.621 44.25 18.25l335.625 332.625c53.723 53.243 84.124 125.53 84.125 201 0.001 156.32-128.729 283.667-285.75 283.625-66.687-0.018-127.442-28.16-178.25-69.75-50.808 41.59-111.563 69.732-178.25 69.75zM333.75 752c54.6-0.015 106.417-23.296 142.375-63.75 19.092-21.479 52.658-21.479 71.75 0 35.958 40.454 87.775 63.735 142.375 63.75 105.591 0.030 189.751-83.658 189.75-187.625 0-49.766-19.999-97.437-55.625-132.75l-312.375-309.625-312.375 309.625c-35.626 35.313-55.625 82.984-55.625 132.75-0.001 103.967 84.159 187.655 189.75 187.625z" />
<glyph unicode="&#xe945;" glyph-name="help" d="M512 768c-106.039 0-192-85.961-192-192 0-8.864 7.136-16 16-16h96c8.864 0 16 7.136 16 16 0 35.346 28.654 64 64 64s64-28.654 64-64c0-35.346-28.654-64-64-64s-64-28.654-64-64v-112c0-8.864 7.136-16 16-16h96c8.864 0 16 7.136 16 16v59.25c76.62 27.089 127.886 99.483 128 180.75 0 106.039-85.961 192-192 192zM512 256c-35.346 0-64-28.654-64-64s28.654-64 64-64c35.346 0 64 28.654 64 64s-28.654 64-64 64z" />
<glyph unicode="&#xe946;" glyph-name="help-circle" d="M512 896c-247.424 0-448-200.576-448-448v0c0-247.424 200.576-448 448-448v0c247.424 0 448 200.576 448 448v0c0 247.424-200.576 448-448 448v0zM512 768c106.039 0 192-85.961 192-192-0.115-81.267-51.38-153.661-128-180.75v-59.25c0-8.864-7.136-16-16-16h-96c-8.864 0-16 7.136-16 16v112c0 35.346 28.654 64 64 64s64 28.654 64 64c0 35.346-28.654 64-64 64s-64-28.654-64-64c0-8.864-7.136-16-16-16h-96c-8.864 0-16 7.136-16 16 0 106.039 85.961 192 192 192zM512 256c35.346 0 64-28.654 64-64s-28.654-64-64-64c-35.346 0-64 28.654-64 64s28.654 64 64 64z" />
<glyph unicode="&#xe947;" glyph-name="html5" d="M57.625 960l82.375-920 372-104 372 104 82.375 920zM225.625 773.625h572.75l-10.125-113.125h-435l10.125-115h414.625l-31.5-352.5-234.5-65-234.5 65-16.25 181.375h117.125l7.875-89.75 125.75-36.375 125.75 36.375 12.875 146.375h-394.375z" />
<glyph unicode="&#xe948;" glyph-name="inactive" d="M128 896c-35.456 0-64-28.544-64-64v-192h128v96c0 17.728 14.272 32 32 32h96v128zM384 896v-128h256v128zM704 896v-128h96c17.728 0 32-14.272 32-32v-96h128v192c0 35.456-28.544 64-64 64zM64 576v-256h128v256zM832 576v-256h128v256zM288 384c-17.728 0-32-14.272-32-32s14.272-32 32-32h64c17.728 0 32 14.272 32 32s-14.272 32-32 32zM672 384c-17.728 0-32-14.272-32-32s14.272-32 32-32h64c17.728 0 32 14.272 32 32s-14.272 32-32 32zM64 256v-192c0-35.456 28.544-64 64-64h192v128h-96c-17.728 0-32 14.272-32 32v96zM288 256c-17.728 0-32-14.272-32-32s14.272-32 32-32h448c17.728 0 32 14.272 32 32s-14.272 32-32 32zM832 256v-96c0-17.728-14.272-32-32-32h-96v-128h192c35.456 0 64 28.544 64 64v192zM384 128v-128h256v128z" />
<glyph unicode="&#xe949;" glyph-name="indiedb" d="M587.75 896c-189.565 0-607.947-190.014-587-337.125 18.345-128.837 181.464 22.829 362.875-4.5 244.124-36.776 34.652-554.375 305.75-554.375 138.606 0 322.625 363.147 322.625 577.875 0 57.835-24.181 120.182-69.125 174.375 5.791 21.483 6.85 38.216 4.875 50.25 57.743 29.426 96.25 27.5 96.25 27.5v28c-33.545 1.597-81.845-24.237-103.75-36.5-6.511 10.108-14.25 14.5-14.25 14.5l-51.125-20.5c-67.034 48.17-157.039 80.5-267.125 80.5z" />
<glyph unicode="&#xe94a;" glyph-name="info-circle" d="M512 896c-247.424 0-448-200.576-448-448v0c0-247.424 200.576-448 448-448v0c247.424 0 448 200.576 448 448v0c0 247.424-200.576 448-448 448v0zM512 768c35.346 0 64-28.654 64-64v0c0-35.346-28.654-64-64-64v0c-35.346 0-64 28.654-64 64v0c0 35.346 28.654 64 64 64v0zM464 576h96c8.864 0 16-7.136 16-16v-416c0-8.864-7.136-16-16-16h-96c-8.864 0-16 7.136-16 16v416c0 8.864 7.136 16 16 16z" />
<glyph unicode="&#xe94b;" glyph-name="itchio" d="M147 896l-136.25-154.125c-0.042-0.125-0.084-0.25-0.125-0.375-4.495-11.994-6.822-24.691-6.875-37.5 0.005-59.714 48.411-108.12 108.125-108.125 43.908-0.028 83.473 26.497 100.125 67.125 16.634-40.586 56.138-67.102 100-67.125 43.893 0.044 83.405 26.615 100 67.25 16.595-40.635 56.107-67.206 100-67.25 43.893 0.044 83.405 26.615 100 67.25 16.595-40.635 56.107-67.206 100-67.25 43.832 0.002 83.327 26.463 100 67 16.691-40.579 56.248-67.049 100.125-67 59.714 0.005 108.12 48.411 108.125 108.125-0.053 12.809-2.38 25.506-6.875 37.5v0.125l-136.375 154.375zM212 614.625c-26.146-29.128-59.604-50.776-100.125-50.75-11.272 0.001-22.103 1.699-32.625 4.25v-568.125h865.5v568.125c-10.522-2.551-21.353-4.249-32.625-4.25-40.523-0.045-73.964 21.628-100.125 50.75-26.125-29.082-59.535-50.748-100-50.75-40.457 0.040-73.905 21.659-100 50.75-26.095-29.091-59.543-50.71-100-50.75-40.457 0.040-73.905 21.659-100 50.75-26.095-29.091-59.543-50.71-100-50.75-40.46 0.021-73.89 21.666-100 50.75zM328.625 512c41.084 0 69.861-23.381 77.125-57h212.5c7.264 33.619 36.041 57 77.125 57 56.617 0 113.987-44.058 128.625-98.75l67-250.5c14.638-54.692-19.133-98.75-75.75-98.75s-113.987 44.058-128.625 98.75l-2.125 8h-345l-2.125-8c-14.638-54.692-72.008-98.75-128.625-98.75s-90.388 44.058-75.75 98.75l67 250.5c14.638 54.692 72.008 98.75 128.625 98.75zM512 425.375l-135.375-143.625h66.75v-78.5h137.25v78.5h66.75z" />
<glyph unicode="&#xe94c;" glyph-name="jams" d="M256 832c-35.456 0-64-28.544-64-64-35.456 0-64-28.544-64-64s28.544-64 64-64v-64c-35.346 0-64-28.654-64-64v-384c0-35.346 28.654-64 64-64h640c35.346 0 64 28.654 64 64v384c0 35.346-28.654 64-64 64v64c35.456 0 64 28.544 64 64s-28.544 64-64 64c0 35.456-28.544 64-64 64zM256 640h512v-64c0-35.346 28.654-64 64-64v-384h-640v384c35.346 0 64 28.654 64 64zM288 448c-17.728 0-32-14.272-32-32v-192c0-17.728 14.272-32 32-32h448c17.728 0 32 14.272 32 32v192c0 17.728-14.272 32-32 32z" />
<glyph unicode="&#xe94d;" glyph-name="java" d="M615.522 960c0 0 17.22-58.058-11.487-116.889-43.557-89.263-222.556-169.197-227.060-247.096-5.139-88.88 137.459-198.446 137.459-198.446s-99.349 126.957-84.038 183.974c29.769 110.853 161.7 133.090 200.687 245.299 30.431 87.586-15.56 133.159-15.56 133.159zM754.935 757.046c0 0-240.416-68.79-240.416-183.089 0-85.021 69.9-101.363 64.7-150.282-3.74-35.181-30.052-60.324-30.052-60.324s87.616 49.341 81.671 101.246c-6.326 55.229-64.514 85.849-60.104 129.115 7.478 73.371 184.201 163.334 184.201 163.334zM393.378 397.071c-38.83 0.404-179.79-23.801-178.32-58.19 2.216-51.845 464.625-37.941 511.238 18.473-59.387-14.679-438.406-47.871-438.406-5.644 0 17.531 60.068 33.982 105.488 45.362zM349.056 279.038c-9.457-1.005-55.369-21.058-52.326-37.747 12.175-66.759 351.271-36.63 391.030-14.464-14.509 8.558-28.506 16.98-39.244 25.752-31.58-11.488-285.765-38.772-311.834 2.469-4.904 7.758 7.921 21.551 12.374 23.989zM372.39 166.856c-7.447-0.090-50.006-17.625-44.548-36.688 16.905-59.039 257.99-56.396 342.947-11.642-12.566 4.228-42.749 19.41-54.801 26.811-41.256-13.934-222.917-24.164-248.902 1.764-7.925 7.908 1.551 17.067 5.303 19.755zM752.106 387.339c5.745 7.206 28.638 19.755 53.387 19.755 41.366 0 82.967-27.133 84.853-73.73 2.099-51.877-61.231-99.555-161.22-128.762 29.656 22.681 118.794 67.38 120.208 123.118 1.236 48.741-45.793 78.641-97.227 59.619zM293.039 89.425c-45.873 12.265-163.049-22.117-159.5-56.874 6.303-61.734 683.702-69.373 710.5 30.433 2.771 10.319-7.825 17.244-14.5 16.962 4.417-4.014 6.176-10.708 4-14.468-38.026-65.718-627.234-68.658-638-16.962-4.325 20.765 70.672 40.575 97.5 40.91zM272.039-33.304c190.728-37.35 560.684-5.503 618.5 61.863-17.129-111.893-547.33-108.724-618.5-61.863z" />
<glyph unicode="&#xe94e;" glyph-name="key-diagonal" d="M646 821.625c-69.189 0.996-135.834-26.059-184.75-75-64.526-64.694-89.679-158.874-66-247.125l-250.75-250.75c-25.071-25.071-25.071-65.429 0-90.5l79.25-79.125c6.268-6.268 16.357-6.268 22.625 0l33.875 33.875 34-33.875c6.268-6.268 16.357-6.268 22.625 0l22.625 22.625c6.268 6.268 6.268 16.357 0 22.625l-34 33.875v0.128l45.25 45.125 34-33.875c6.268-6.268 16.357-6.268 22.625 0l22.625 22.622c6.268 6.268 6.268 16.357 0 22.625l-34 33.875v0.128l45.25 45.125 34-33.875c6.268-6.268 16.357-6.268 22.625 0l58.5 58.5c88.212-23.631 182.332 1.519 247 66 99.948 99.97 99.948 262.030 0 362-47.11 47.131-110.742 74.036-177.375 74.997zM732.875 733.375c8.18 0 16.357-3.107 22.625-9.375l45.25-45.25c12.536-12.536 12.536-32.714 0-45.25l-45.25-45.25c-12.536-12.536-32.839-12.536-45.375 0l-45.25 45.25c-12.536 12.536-12.536 32.714 0 45.25l45.25 45.25c6.268 6.268 14.57 9.375 22.75 9.375zM461.25 468.5c4.090 0 8.241-1.616 11.375-4.75l22.625-22.625c6.268-6.268 6.268-16.357 0-22.625l-248.875-248.875c-6.268-6.268-16.357-6.268-22.625 0l-22.625 22.625c-6.268 6.268-6.268 16.357 0 22.625l248.875 248.875c3.134 3.134 7.16 4.75 11.25 4.75z" />
<glyph unicode="&#xe94f;" glyph-name="link" d="M750.5 896c-53.507 0-107-20.5-148-61.5l-93-93c-47.307-47.307-66.694-111.063-59.25-172.375l208.75 208.75c25.328 25.328 58.445 38 91.5 38s66.047-12.672 91.375-38c50.656-50.656 50.656-132.219 0-182.875l-208.75-208.75c61.312-7.444 125.068 11.943 172.375 59.25l93 93c81.999 81.999 82 214.001 0 296-41 41-94.493 61.5-148 61.5zM661.25 661.25c-16.36 0-32.714-6.214-45.25-18.75l-298.5-298.5c-25.071-25.071-25.071-65.429 0-90.5s65.429-25.071 90.5 0l298.5 298.5c25.071 25.071 25.071 65.429 0 90.5-12.536 12.536-28.89 18.75-45.25 18.75zM349.625 511c-47.745-3.682-94.393-23.768-131.125-60.5l-93-93c-81.999-81.999-81.999-214.001 0-296s214.001-82 296 0l93 93c47.307 47.307 66.694 111.063 59.25 172.375l-208.75-208.75c-50.656-50.656-132.219-50.656-182.875 0s-50.656 132.219 0 182.875l208.75 208.75c-13.705 1.664-27.506 2.31-41.25 1.25z" />
<glyph unicode="&#xe950;" glyph-name="linux" d="M505.861 960c-98.267 0-135.65-66.755-140.87-91.122-16.379-76.458 9.25-250.617 9.25-250.617s-68.808-88.362-81.872-110.996c-20.581-35.656-49.21-116.73-60.498-145.245-7.869-19.878-23.711-29.048-27.749-44.124-2.291-8.554-1.133-27.859 0.625-48.123-3.056-3.381-6.446-6.392-9.25-10-11.652-14.993-22.518-31.516-29.124-38.124-2.985-2.986-17.752-7.379-33.999-10-8.123-1.311-16.441-2.587-24.499-5.125s-17.516-6.529-22.749-16.999c-4.598-9.198-4.558-17.321-4.75-26.999s0.29-20.436 1-30.999c0.71-10.563 1.62-20.967 2.125-29.624s0.359-16.101 0.125-17.624c-0.888-5.772-4.621-14.545-8-24.249-1.689-4.852-3.322-10.080-3.75-16.249s0.785-14.101 5.625-20.499c5.438-7.19 10.508-8.82 16.624-11.5s13.378-5.137 21.499-7.625c16.243-4.977 36.219-9.909 56.498-14.75s40.804-9.544 57.498-13.75c16.695-4.205 30.839-8.863 32.749-9.875 11.894-6.299 25.461-13.482 38.999-19.124s26.667-10.343 40.874-9.25c13.906 1.070 30.391 7.306 46.748 18.999 12.242 8.751 24.207 21.189 30.999 37.249 4.102 1.69 8.681 3.871 11.875 4.625 23.438 5.532 175.059 7.847 187.869 5 3.428-0.762 8.338-3.512 12.75-5.375 0.461-8.077 1.557-15.807 5.125-23.124 8.649-17.738 26.016-28.474 45.123-34.249s40.928-6.565 60.873 0.75c21.352 7.831 42.857 26.596 63.998 44.999s42.039 37.326 48.248 41.249c7.995 5.051 31.066 16.441 51.623 28.749 10.278 6.154 20.165 12.614 28.249 19.749s16.499 14.968 16.499 28.999c0 7.773-3.135 12.022-5.875 15.874s-5.926 7.269-9.5 10.75c-7.148 6.962-15.857 14.089-24.874 21.374s-18.279 14.68-25.624 21.124c-7.345 6.445-12.844 12.772-13.625 14.125 0.789-1.367-0.083 0.186 0 3.875 0.083 3.686 0.723 8.964 1.25 14.874 1.055 11.82 2.99 28.63-10.125 41.749-5.415 5.417-10.3 6.678-15.375 8.125-0.422 0.122-0.947 0.134-1.375 0.25 1.591 3.855 3.237 7.193 4.625 12.375 4.2 15.679 7.692 58.157 0 86.872-11.367 42.432-30.358 93.293-41.249 113.871-17.021 32.161-42.668 56.12-59.748 81.747s-49.889 71.931-64.123 110.371c-20.959 56.605 30.902 297.615-180.744 297.615zM551.484 816.255c0.018 0 0.040 0 0.062 0 26.337 0 47.687-27.288 47.687-60.949 0-0.017 0-0.034 0-0.052v0.003c-0.034-14.612-4.085-28.005-10.816-38.48l0.066 0.106c-2.97 1.891-6.645 3.36-9.875 5.125 1.166 4.376 1.851 9.44 1.875 14.735v0.014c-0.010 23.405-12.961 42.374-28.934 42.374-0.023 0-0.045 0-0.068 0h0.004c-13.858-0.056-25.422-14.379-28.215-33.471l-0.034-0.278c-6.737 2.073-12.828 3.59-19.124 5-0.124 1.398-0.214 3.088-0.249 4.795l-0.001 0.080c0 0.015 0 0.032 0 0.049 0 33.633 21.314 60.903 47.62 60.949h0.003zM419.863 809.38c0.201 0.004 0.244 0.004 0.287 0.004l-0.162-0.004c18.776 0.093 36.874-21.728 41.745-51.104l0.003-0.020c0.277-1.84 0.491-3.619 0.652-5.382l-0.027 0.257c-3.851-0.778-7.625-1.882-11.375-3.25-4.31 16.91-16.255 28.78-28.357 28.755l-0.142-0.006c-0.705 0.024-1.564-0.014-2.422-0.114l-0.078-0.011c-0.352-0.050-0.76-0.123-1.169-0.211-13.4-2.885-21.087-20.311-17.595-39.338l0.014-0.075c0.077-0.416 0.174-0.902 0.279-1.389 1.216-5.649 3.29-10.79 5.955-15.179l-0.11 0.194c-2.483-2.139-4.316-4.512-6.625-6.75-5.176 8.171-9.183 18.605-11.121 30.225l-0.004 0.024c-0.015 0.091-0.033 0.198-0.050 0.305-5.069 31.375 6.86 59.424 26.663 62.816l0.011 0.002c1.275 0.188 2.535 0.271 3.792 0.253l-0.167-0.003zM475.237 722.883c9.847 0 41.8-7.342 67.748-17.999 12.974-5.329 24.926-11.525 32.874-17.124s9.693-10.916 9.5-8.5c-0.132 1.653-1.712-5.539-9.125-13.75s-18.729-17.733-31.249-26.374c-12.52-8.642-26.384-16.465-38.624-21.874s-23.367-7.979-27.624-7.875c-13.552 0.331-33.753 11.124-49.123 25.499-7.685 7.188-14.34 15.105-18.624 21.874s-5.625 12.716-5.625 13c0-0.358 1.231 4.987 5.75 11.125s11.493 13.414 19.374 19.874c15.763 12.92 36.524 22.124 44.749 22.124zM594.733 639.636c5.287-12.003 52.6-119.413 59.623-142.495 7.418-24.38 33.913-51.872 48.748-104.872 8.924-33.314 4.44-80.736-2.375-123.996-6.15 0.237-12.245 0.79-18.499 0-9.72-1.227-19.982-3.714-28.249-12.25-9.112-9.408-10.721-20.267-12-31.749s-1.085-24.117-0.499-36.624c1.137-24.359 3.971-48.899 4.125-55.748-31.528-32.254-84.042-72.316-163.995-79.872-23.953-2.264-44.752 1.794-64.123 8-6.614 14.888-15.493 26.984-20.499 36.374-6.563 12.309-33.589 58.124-63.998 102.872-15.204 22.374-31.092 44.109-45.623 60.873-1.423 1.642-2.731 2.579-4.125 4.125 0.778 31.422 3.416 65.681 13.25 97.872 11.657 38.159 34.575 79.902 39.874 92.622s16.592 51.243 28.249 75.622c11.657 24.38 32.195 42.028 35.374 54.748 1.701 6.804 1.563 21.004 1.125 34.249 2.432-2.585 3.968-5.39 6.625-7.875 19.009-17.779 43.288-33.466 70.248-34.124 13.52-0.33 26.862 4.211 41.374 10.625s29.679 15.038 43.749 24.749c12.081 8.338 22.434 17.571 31.624 26.874zM241.119 259.523c0.956-0.454 2.894-1.323 5.125-3.125 4.461-3.605 10.475-9.722 16.999-17.249 13.049-15.054 28.436-36.077 43.249-57.873 29.624-43.593 57.641-91.356 62.248-99.997 12.719-23.855 28.356-40.047 24.499-65.498-2.105-13.89-11.244-25.060-22.874-33.374s-26.378-12.798-30.624-13.124c-3.945-0.301-14.528 2.042-26.124 6.875s-24.406 11.603-36.249 17.874c-9.959 5.273-22.756 8.281-39.999 12.625s-37.795 9.083-57.873 13.874c-20.078 4.792-39.614 9.69-54.498 14.25-7.442 2.28-13.794 4.532-17.999 6.375-3.154 1.382-3.189 1.564-3 1.125 0.177 1.375 0.703 3.757 1.875 7.125 2.596 7.456 7.47 17.613 9.375 29.999 1.162 7.555 0.792 15.093 0.25 24.374s-1.439 19.786-2.125 29.999c-0.686 10.213-1.157 20.213-1 28.124s1.784 14.193 1.375 13.375c-1.045-2.090-0.802-0.684 3.75 0.75s11.89 2.692 19.999 4c16.218 2.616 36.331 3.828 51.498 18.999 11.546 11.549 21.545 27.834 31.874 41.124 5.164 6.645 10.242 12.412 14.375 15.874 3.652 3.060 5.403 3.361 5.875 3.5zM686.23 236.524c5.473 0.691 12.707 0.442 19.749-0.128-0.12-0.596-0.255-1.562-0.356-2.532l-0.022-0.342c-0.216-2.916-0.073-6.203 0.469-9.503 3.906-23.743 27.24-40.242 54.646-40.379l0.383 0.009c3.464-0.026 7.39 0.279 11.354 0.931 26.265 4.321 46.077 22.563 50.092 43.827l0.052 0.365c1.547-0.166 3.692-0.186 5.125-0.378 5.032-0.675 9.292-1.603 12-2.375 0.771-0.218 1.031-0.403 1.5-0.627 0.378-0.748 1.754-5.651 0.875-15.499-0.461-5.162-1.233-10.879-1.375-16.999-0.141-6.12-0.141-13.015 4.25-20.624 5.012-8.683 12.004-15.015 20.249-22.249s17.75-14.705 26.624-21.874c8.874-7.169 17.203-14.098 22.749-19.499 2.109-2.054 3.287-3.42 4.375-4.75-0.269 0.512-0.154-0.154-4.375-3.875-5.434-4.796-14.077-10.608-23.499-16.249-18.845-11.283-40.234-21.455-52.373-29.124-13.925-8.797-31.598-26.382-52.123-44.249s-43.684-35.17-54.123-38.999c-11.846-4.345-27.405-4.208-40.499-0.25s-22.761 11.753-25.624 17.624c-0.57 1.167-2.543 11.553-2.25 24.249s1.893 28.285 3.875 43.749 4.326 30.769 6.25 43.624c1.924 12.855 3.5 22.079 3.5 29.999 0 13.094-3.291 35.533-4.375 58.748-0.544 11.607-0.454 23.032 0.499 31.624 0.957 8.592 4.024 13.928 3.125 13-0.054-0.056 3.223 1.989 9.25 2.75z" />
<glyph unicode="&#xe951;" glyph-name="lock" d="M512 832c-106.368 0-192-85.632-192-192v-128h-48c-8.864 0-16-7.136-16-16v-416c0-8.864 7.136-16 16-16h480c8.864 0 16 7.136 16 16v416c0 8.864-7.136 16-16 16h-48v128c0 106.368-85.632 192-192 192zM512 768c70.912 0 128-57.088 128-128v-128h-256v128c0 70.912 57.088 128 128 128z" />
<glyph unicode="&#xe952;" glyph-name="logout" d="M320 896c-35.456 0-64-28.544-64-64v-64h512v-640h-512v-64c0-35.456 28.544-64 64-64h512c35.456 0 64 28.544 64 64v768c0 35.456-28.544 64-64 64zM313 639.625c-9.253 9.582-185-172.462-185-191.625s175.747-201.207 185-191.625c3.479 3.602 5.262 61.478 6.125 127.625h176.875c8.864 0 16 7.136 16 16v96c0 8.864-7.136 16-16 16h-176.875c-0.863 66.147-2.646 124.023-6.125 127.625z" />
<glyph unicode="&#xe953;" glyph-name="mac" d="M701.375 959.827c0 0-81.839 7.085-152-74.125s-51.125-161-51.125-161c0 0 81.714-7.21 151.875 74s51.25 161.125 51.25 161.125zM698.25 712.452c-87.951 4.166-156.819-46.375-191.75-46.375-52.609 0-93.206 43.5-175.375 43.5-138.246 0-250.375-131.847-250.375-292.75 0-235.86 148.889-480.75 268.75-480.75 50.392 0 94.442 41.75 158.125 41.75 85.957 0 108.080-38.71 172.25-41.75 72.716-3.444 178.785 108.423 231.25 272.25-80.368 36.778-135.154 115.913-135.25 207.738v0.012c0.052 81.703 43.395 153.364 108.53 193.69l0.97 0.56c-42.267 60.055-105.831 98.274-187.125 102.125z" />
<glyph unicode="&#xe954;" glyph-name="markdown" d="M64 768c-35.456 0-64-28.544-64-64v-512c0-35.456 28.544-64 64-64h896c35.456 0 64 28.544 64 64v512c0 35.456-28.544 64-64 64zM128 640h128l96-128 96 128h128v-384h-128v192l-96-128-96 128v-192h-128zM704 640h128v-192h94l-158-192-158 192h94z" />
<glyph unicode="&#xe955;" glyph-name="menu" d="M96 832c-17.728 0-32-14.272-32-32v-128c0-17.728 14.272-32 32-32h832c17.728 0 32 14.272 32 32v128c0 17.728-14.272 32-32 32zM96 512c-17.728 0-32-14.272-32-32v-128c0-17.728 14.272-32 32-32h832c17.728 0 32 14.272 32 32v128c0 17.728-14.272 32-32 32zM96 192c-17.728 0-32-14.272-32-32v-128c0-17.728 14.272-32 32-32h832c17.728 0 32 14.272 32 32v128c0 17.728-14.272 32-32 32z" />
<glyph unicode="&#xe956;" glyph-name="musical-note-double" d="M335.625 895.594c-8.653 1.923-15.625-3.636-15.625-12.5v-530.469c-10.687 0.978-20.644 2.875-32 2.875-88.366 0-160-28.808-160-99.5s71.634-128 160-128c88.366 0 160 57.308 160 128v419.5l320-71v-379.875c-10.687 0.978-20.644 2.875-32 2.875-88.366 0-160-28.808-160-99.5s71.634-128 160-128c88.366 0 160 57.308 160 128v627.094c0 8.864-6.972 17.577-15.625 19.5z" />
<glyph unicode="&#xe957;" glyph-name="notice" d="M512 896c-44.715 0-469.482-820.444-447.125-863.625s871.893-43.181 894.25 0c22.357 43.181-402.41 863.625-447.125 863.625zM512 640c35.456 0 64-28.544 64-64v-192c0-35.456-28.544-64-64-64s-64 28.544-64 64v192c0 35.456 28.544 64 64 64zM512 256c35.456 0 64-28.544 64-64s-28.544-64-64-64c-35.456 0-64 28.544-64 64s28.544 64 64 64z" />
<glyph unicode="&#xe958;" glyph-name="notifications" d="M733.75 767.688c-15.845-1.578-41.007-9.517-83-27.752-74.654-32.418-330.75-163.89-330.75-163.89h-256c-35.456 0-64-28.547-64-64.006v-128.011c0-35.459 28.544-64.006 64-64.006h128v-240.021c0-8.865 7.136-16.001 16-16.001h96c8.864 0 16 7.137 16 16.001v240.021c0 0 255.622-131.362 330.5-163.89s96.083-32.472 106.75-21.627c10.667 10.845 10.75 32.446 10.75 129.762v119.761c35.346 0 64 28.656 64 64.006s-28.654 64.006-64 64.006v119.636c0 97.571 0.010 119.264-10.625 130.012-2.659 2.687-5.962 4.621-10.625 5.626-3.498 0.754-7.719 0.901-13 0.375zM915.375 643.052c-12.89 0.099-25.278-4.992-34.375-14.126-18.706-18.78-18.653-49.17 0.128-67.881 30.020-29.997 46.84-70.565 46.872-113.010-0.032-42.445-16.849-83.013-46.875-113.010-18.775-18.711-18.828-49.101-0.128-67.881 18.71-18.777 49.096-18.83 67.875-0.128 48.014 47.967 75.077 113.156 75.128 181.019-0.051 67.864-27.117 133.055-75.125 181.016-8.903 8.874-20.931 13.901-33.5 14.001zM658.125 627.425c3.053-0.645 5.134-1.9 6.875-3.625 6.964-6.9 7-20.867 7-83.507v-184.641c0-62.476-0.016-76.295-7-83.257s-20.846-7.007-69.875 13.876c-49.029 20.883-275.125 143.388-275.125 143.388v36.878c0 0 226.367 122.576 275.25 143.388 36.662 15.609 53.715 19.437 62.875 17.502z" />
<glyph unicode="&#xe959;" glyph-name="offline" d="M927.038 768.036c-8.657-0.283-16.403-3.963-21.991-9.741l-511.259-511.259c-6.068-5.833-9.839-14.019-9.839-23.085 0-17.675 14.328-32.003 32.003-32.003 9.066 0 17.252 3.77 23.075 9.828l0.010 0.011 118.25 118.25h274.75c70.912 0 128 57.088 128 128s-57.088 128-128 128h-18.75l137 137c6.024 5.827 9.763 13.983 9.763 23.013 0 17.675-14.328 32.003-32.003 32.003-0.355 0-0.709-0.006-1.061-0.017l0.051 0.001zM607.038 704.036c-8.657-0.283-16.403-3.963-21.991-9.741l-118.259-118.259h-274.75c-70.912 0-128-57.088-128-128s57.088-128 128-128h18.75l-137-137c-6.068-5.833-9.839-14.019-9.839-23.085 0-17.675 14.328-32.003 32.003-32.003 9.066 0 17.252 3.77 23.075 9.828l0.010 0.011 511.25 511.25c6.024 5.827 9.763 13.983 9.763 23.013 0 17.675-14.328 32.003-32.003 32.003-0.355 0-0.709-0.006-1.061-0.017l0.051 0.001z" />
<glyph unicode="&#xe95a;" glyph-name="pause" d="M272 704c-8.864 0-16-7.136-16-16v-480c0-8.864 7.136-16 16-16h160c8.864 0 16 7.136 16 16v480c0 8.864-7.136 16-16 16zM592 704c-8.864 0-16-7.136-16-16v-480c0-8.864 7.136-16 16-16h160c8.864 0 16 7.136 16 16v480c0 8.864-7.136 16-16 16z" />
<glyph unicode="&#xe95b;" glyph-name="pedestals-numbers" d="M479 896c-8.323-0.262-16.216-3.76-22-9.75l-63.125-63.25c-34.251-30.013 15.111-79.375 45.125-45.125l9 9v-146.875h-48c-8.864 0-16-7.136-16-16v-96c0-8.864 7.136-16 16-16h224c8.864 0 16 7.136 16 16v96c0 8.864-7.136 16-16 16h-48v240c0 8.864-7.136 16-16 16zM32 768c-17.728 0-32-14.272-32-32s14.272-32 32-32h64c17.728 0 32-14.272 32-32s-14.272-32-32-32h-32c-35.456 0-64-28.544-64-64v-176c0-8.864 7.136-16 16-16h224c8.864 0 16 7.136 16 16v96c0 8.864-7.136 16-16 16h-112v32c0 17.728 14.272 32 32 32 53.184 0 96 42.816 96 96s-42.816 96-96 96zM800 640c-17.728 0-32-14.272-32-32s14.272-32 32-32h64c17.728 0 32-14.272 32-32s-14.272-32-32-32h-64c-17.728 0-32-14.272-32-32s14.272-32 32-32h64c17.728 0 32-14.272 32-32s-14.272-32-32-32h-80c-8.864 0-16-7.136-16-16v-96c0-8.864 7.136-16 16-16h224c8.864 0 16 7.136 16 16v144c0 24.729-9.498 47.016-24.75 64 15.252 16.984 24.75 39.271 24.75 64 0 53.184-42.816 96-96 96zM400 384c-8.864 0-16-7.136-16-16v-352c0-8.864 7.136-16 16-16h224c8.864 0 16 7.136 16 16v352c0 8.864-7.136 16-16 16zM16 256c-8.864 0-16-7.136-16-16v-224c0-8.864 7.136-16 16-16h224c8.864 0 16 7.136 16 16v224c0 8.864-7.136 16-16 16zM784 128c-8.864 0-16-7.136-16-16v-96c0-8.864 7.136-16 16-16h224c8.864 0 16 7.136 16 16v96c0 8.864-7.136 16-16 16z" />
<glyph unicode="&#xe95c;" glyph-name="play" d="M896 448c0-38.327-703.229-402.433-740.241-383.27s-37.012 747.376 0 766.54c37.012 19.163 740.241-344.943 740.241-383.27z" />
<glyph unicode="&#xe95d;" glyph-name="playlist" d="M224 832c-17.728 0-32-14.272-32-32v-118.875c126.564-113.446 256-241.604 256-265.125s-129.436-151.679-256-265.125v-118.875c0-17.728 14.272-32 32-32h704c17.728 0 32 14.272 32 32v768c0 17.728-14.272 32-32 32zM304 704h512c8.864 0 16-7.136 16-16v-32c0-8.864-7.136-16-16-16h-512c-8.864 0-16 7.136-16 16v32c0 8.864 7.136 16 16 16zM73.25 639.625c-12.337-11.179-12.337-436.071 0-447.25s246.75 201.268 246.75 223.625c0 22.357-234.413 234.804-246.75 223.625zM432 576h384c8.864 0 16-7.136 16-16v-32c0-8.864-7.136-16-16-16h-384c-8.864 0-16 7.136-16 16v32c0 8.864 7.136 16 16 16zM528 448h288c8.864 0 16-7.136 16-16v-32c0-8.864-7.136-16-16-16h-288c-8.864 0-16 7.136-16 16v32c0 8.864 7.136 16 16 16zM432 320h384c8.864 0 16-7.136 16-16v-32c0-8.864-7.136-16-16-16h-384c-8.864 0-16 7.136-16 16v32c0 8.864 7.136 16 16 16zM304 192h512c8.864 0 16-7.136 16-16v-32c0-8.864-7.136-16-16-16h-512c-8.864 0-16 7.136-16 16v32c0 8.864 7.136 16 16 16z" />
<glyph unicode="&#xe95e;" glyph-name="play-small" d="M768 448c0-25.551-468.819-268.289-493.494-255.513s-24.675 498.251 0 511.027c24.675 12.776 493.494-229.962 493.494-255.513z" />
<glyph unicode="&#xe95f;" glyph-name="plug" d="M384 896c-35.456 0-64-28.544-64-64v-192h128v192c0 35.456-28.544 64-64 64zM640 896c-35.456 0-64-28.544-64-64v-192h128v192c0 35.456-28.544 64-64 64zM208 576c-8.864 0-16-7.136-16-16v-96c0-8.864 7.136-16 16-16h48v-192c0-70.912 57.088-128 128-128h64v-128h128v128h64c70.912 0 128 57.088 128 128v192h48c8.864 0 16 7.136 16 16v96c0 8.864-7.136 16-16 16z" />
<glyph unicode="&#xe960;" glyph-name="radio-circle" d="M512 832c-212.077 0-384-171.923-384-384v0c0-212.077 171.923-384 384-384v0c212.077 0 384 171.923 384 384v0c0 212.077-171.923 384-384 384v0zM512 704c141.385 0 256-114.615 256-256v0c0-141.385-114.615-256-256-256v0c-141.385 0-256 114.615-256 256v0c0 141.385 114.615 256 256 256v0z" />
<glyph unicode="&#xe961;" glyph-name="radio-circle-filled" d="M512 832c-212.077 0-384-171.923-384-384v0c0-212.077 171.923-384 384-384v0c212.077 0 384 171.923 384 384v0c0 212.077-171.923 384-384 384v0zM512 704c141.385 0 256-114.615 256-256v0c0-141.385-114.615-256-256-256v0c-141.385 0-256 114.615-256 256v0c0 141.385 114.615 256 256 256v0zM512 640c-106.039 0-192-85.961-192-192v0c0-106.039 85.961-192 192-192v0c106.039 0 192 85.961 192 192v0c0 106.039-85.961 192-192 192v0z" />
<glyph unicode="&#xe962;" glyph-name="reddit" d="M829.75 904.375c-30.998-0.073-57.925-17.43-71.661-42.941l-0.214-0.434-182.375 38.75c-1.496 0.356-3.214 0.561-4.98 0.561-0.579 0-1.153-0.022-1.721-0.065l0.075 0.005c-9.932-0.885-17.945-8.134-19.974-17.603l-0.026-0.147-56.5-267.375c-118.372-3.733-224-38.7-300.919-93.192l-0.081-0.058c-20.278 20.295-48.296 32.855-79.246 32.875h-0.004c-61.924-0.002-112.123-50.201-112.125-112.125v0c0.044-45.411 27.076-84.498 65.92-102.089l0.705-0.286c-1.909-10.526-3.042-22.764-3.125-35.175v-0.075c0.036-171.555 200.821-310.619 448.499-310.625h0.001c247.679 0.006 448.464 139.070 448.5 310.623v0.002c-0.182 12.517-1.403 24.698-3.607 36.667l0.232-1.542c39.689 17.824 66.837 56.987 66.875 102.495v0.005c-0.002 61.924-50.201 112.123-112.125 112.125v0c-30.83-0.020-58.747-12.479-79.005-32.63l0.005 0.005c-75.646 53.39-178.794 87.926-293.532 92.585l-1.218 0.040 50 236.625 160.25-34.125c2.992-42.586 38.274-76 81.359-76 0.006 0 0.011 0 0.017 0h-0.001c45.017 0.027 81.5 36.527 81.5 81.548 0 0.027 0 0.054 0 0.081v-0.004c-0.027 45-36.5 81.472-81.497 81.5h-0.003zM337.375 437.5c42.745-0.055 77.375-34.719 77.375-77.471 0-0.010 0-0.020 0-0.031v0.002c-0.055-42.711-34.664-77.32-77.37-77.375h-0.005c-0.009 0-0.019 0-0.029 0-42.752 0-77.416 34.63-77.471 77.37v0.005c0 0.009 0 0.019 0 0.029 0 42.786 34.685 77.471 77.471 77.471 0.010 0 0.021 0 0.031 0h-0.002zM686.625 437.5c0.009 0 0.019 0 0.029 0 42.786 0 77.471-34.685 77.471-77.471 0-0.010 0-0.020 0-0.031v0.002c-0.055-42.745-34.719-77.375-77.471-77.375-0.010 0-0.020 0-0.031 0h0.002c-42.711 0.055-77.32 34.664-77.375 77.37v0.005c0 0.009 0 0.019 0 0.029 0 42.752 34.63 77.416 77.37 77.471h0.005zM337.5 187.25c0.176 0.005 0.382 0.008 0.59 0.008 6.097 0 11.625-2.436 15.664-6.387l-0.004 0.004c0 0 11.454-10.538 37.875-22.625s66.398-24.5 120.375-24.5c53.977 0 93.954 12.413 120.375 24.5s37.875 22.625 37.875 22.625c4.005 3.794 9.427 6.128 15.395 6.128 0.125 0 0.25-0.001 0.374-0.003h-0.019c12.205-0.217 22.016-10.162 22.016-22.399 0-6.706-2.947-12.724-7.616-16.83l-0.025-0.022c0 0-17.862-15.834-49.375-30.25s-78.13-28.625-139-28.625c-60.87 0-107.487 14.209-139 28.625s-49.375 30.25-49.375 30.25c-4.868 4.136-7.936 10.262-7.936 17.106 0 12.165 9.696 22.065 21.781 22.394l0.030 0.001z" />
<glyph unicode="&#xe963;" glyph-name="remove" d="M256.043 767.947c-16.357 0-32.709-6.213-45.242-18.747-25.067-25.067-25.067-65.418 0-90.485l210.715-210.715-210.715-210.715c-25.067-25.067-25.067-65.418 0-90.485s65.418-25.067 90.485 0l210.715 210.715 210.715-210.715c25.067-25.067 65.418-25.067 90.485 0s25.067 65.418 0 90.485l-210.715 210.715 210.715 210.715c25.067 25.067 25.067 65.418 0 90.485s-65.418 25.067-90.485 0l-210.715-210.715-210.715 210.715c-12.533 12.533-28.886 18.747-45.242 18.747z" />
<glyph unicode="&#xe964;" glyph-name="reply" d="M372.375 831.5c-15.422 14.373-308.375-258.755-308.375-287.5s292.953-301.873 308.375-287.5c5.799 5.405 8.812 92.251 10.25 191.5h193.375c163.61 0 305.818-87.097 384-217.375v25.375c0 212.736-171.264 384-384 384h-193.375c-1.438 99.249-4.451 186.095-10.25 191.5z" />
<glyph unicode="&#xe965;" glyph-name="rom" d="M128 768c-70.912 0-128-57.088-128-128v-320c0-70.912 57.088-128 128-128h768c70.912 0 128 57.088 128 128v320c0 70.912-57.088 128-128 128zM336 640h352c8.864 0 16-7.136 16-16v-288c0-8.864-7.136-16-16-16h-352c-8.864 0-16 7.136-16 16v288c0 8.864 7.136 16 16 16zM144 576h32c8.864 0 16-7.136 16-16v-48h48c8.864 0 16-7.136 16-16v-32c0-8.864-7.136-16-16-16h-48v-48c0-8.864-7.136-16-16-16h-32c-8.864 0-16 7.136-16 16v48h-48c-8.864 0-16 7.136-16 16v32c0 8.864 7.136 16 16 16h48v48c0 8.864 7.136 16 16 16zM864 576c17.728 0 32-14.272 32-32s-14.272-32-32-32c-17.728 0-32 14.272-32 32s14.272 32 32 32zM800 512c17.728 0 32-14.272 32-32s-14.272-32-32-32c-17.728 0-32 14.272-32 32s14.272 32 32 32zM928 512c17.728 0 32-14.272 32-32s-14.272-32-32-32c-17.728 0-32 14.272-32 32s14.272 32 32 32zM864 448c17.728 0 32-14.272 32-32s-14.272-32-32-32c-17.728 0-32 14.272-32 32s14.272 32 32 32z" />
<glyph unicode="&#xe966;" glyph-name="rss" d="M64 832c-35.456 0-64-28.544-64-64v-64c0-35.456 28.544-64 64-64h160c265.92 0 480-214.080 480-480v-160c0-35.456 28.544-64 64-64h64c35.456 0 64 28.544 64 64v192c0 354.56-285.44 640-640 640zM64 512c-35.456 0-64-28.544-64-64v-64c0-35.456 28.544-64 64-64h96c124.096 0 224-99.904 224-224v-96c0-35.456 28.544-64 64-64h64c35.456 0 64 28.544 64 64v128c0 212.736-171.264 384-384 384zM128 192c-70.912 0-128-57.088-128-128s57.088-128 128-128c70.912 0 128 57.088 128 128s-57.088 128-128 128z" />
<glyph unicode="&#xe967;" glyph-name="screenshot" d="M16 832c-8.864 0-16-7.136-16-16v-608c0-8.864 7.136-16 16-16h800c8.864 0 16 7.136 16 16v608c0 8.864-7.136 16-16 16zM64 768h704v-396.25c-74.338 100.408-158.262 204.25-192 204.25-23.796 0-72.71-51.536-124.75-115.625 46.061-38.194 112.246-124.093 170.875-204.375h-55.25c-72.013 96.406-150.534 192-182.875 192s-110.862-95.594-182.875-192h-137.125zM192 704c-35.456 0-64-28.544-64-64s28.544-64 64-64c35.456 0 64 28.544 64 64s-28.544 64-64 64zM896 704v-64h64v-512h-832v-48c0-8.864 7.136-16 16-16h864c8.864 0 16 7.136 16 16v608c0 8.864-7.136 16-16 16z" />
<glyph unicode="&#xe968;" glyph-name="search" d="M416 896c-195.008 0-352-156.992-352-352s156.992-352 352-352c80.113 0 153.593 26.757 212.625 71.5l249.375-249.375c18.803-18.803 49.072-18.803 67.875 0s18.803 49.072 0 67.875l-249.375 249.375c44.743 59.032 71.5 132.512 71.5 212.625 0 195.008-156.992 352-352 352zM416 800c141.824 0 256-114.176 256-256s-114.176-256-256-256c-141.824 0-256 114.176-256 256s114.176 256 256 256z" />
<glyph unicode="&#xe969;" glyph-name="share-airplane" d="M943.499 896c-2.423-0.064-4.693-0.657-6.718-1.667l0.093 0.042-864.059-430.875c-5.269-2.691-8.814-8.080-8.814-14.296 0-6.556 3.943-12.191 9.586-14.663l0.103-0.040 253.642-108.375 536.662 441.875-416.028-493.75v-258.25c0.003-8.835 7.167-15.996 16.003-15.996 4.448 0 8.473 1.815 11.373 4.744l0.001 0.001 136.759 139.75-133.134 116.875 458.781-196.125c1.844-0.803 3.992-1.27 6.249-1.27 8.838 0 16.003 7.164 16.003 16.002 0 0.007 0 0.013 0 0.020v-0.001 800c0 0.002 0 0.004 0 0.006 0 8.837-7.165 16.002-16.003 16.002-0.175 0-0.35-0.003-0.524-0.008l0.025 0.001z" />
<glyph unicode="&#xe96a;" glyph-name="silverlight" d="M576 960c-128 0-294.64-60.574-388-130-119.28-88.7-145.942-172.112-166.75-235.875s-1.75-113.5-1.75-113.5c0 0-19.5-50.028-19.5-96.625 0-53.774 27.141-147.060 58.5-201.375 49.563-85.845 182.99-246.625 325.5-246.625 107.033 0 116.25 41.403 116.25 79.875 0 5.996-0.666 12.42-1.875 19.125 25.796 22.604 57.53 48.566 105 81.625 82.991 57.798 149.523 114.523 210.625 175.625 122.213 122.213 210 106.975 210 135.625 0 64.018-83.25 115.25-83.25 115.25s21.597 85.422-7.75 124.625c7.212 47.126-14.495 98.341-58.5 149.875-55.029 64.444-127.928 142.375-298.5 142.375zM564.625 886.375c106.469-0.047 189.886-21.436 247.75-74.125 45.44-41.375 69.064-81.579 66.375-122-25.641 0.276-52.529-9.59-83.5-26.75-36.002-19.948-63.838-41.376-91.375-67.125-83.529 2.647-181.706 17.129-248 20.75-202.517 11.062-328.125-28.375-328.125-28.375s-40.892 66.861 3.5 143.75c41.386 71.682 199.551 134.274 319.25 147.125 40.494 4.347 78.635 6.766 114.125 6.75zM861.5 640.625c-2.679-4.303-4.92-8.553-8.25-12.875-13.512-17.537-42.561-25.938-78.75-29.625 36.117 23.774 67.599 40.499 87 42.5zM896.5 604.875c9.58-44.488-8.857-109.5-16-133.25-10.838-36.036-39.206-85.706-71.5-118-66.785-66.785-291.83-282.481-321.25-284.5-3.344 8.968-7.197 18.155-11.75 27.75-1.711 45.529 13.571 133.662 33.25 196.625 33.072 105.812 159.873 227.956 230.125 281.125 0.115 0.014 0.256-0.014 0.378 0 55.884 6.628 118.533 4.779 156.75 30.25zM500.25 592.375c55.861 0 121.487-14.42 180.875-18.375-14.61-14.973-29.722-31.029-46.5-49.75-57.734-64.42-132.401-160.282-174.25-252.125-14.783-32.444-25.982-60.836-35.25-86.875-54.807 83.668-124.863 169.93-159 219-60.231 86.58-111.75 140.125-111.75 140.125s95.146 48 345.875 48zM49.625 407.875c0 0 36.392-37.124 115.375-51.5 52.663-9.585 143.935-40.242 193.375-125.875 41.532-71.935 39.764-169.315-14.25-200.5-43.457-25.090-134.047 34.594-185 79.375s-88.8 123.725-104.125 176.125c-15.325 52.4-5.375 122.375-5.375 122.375z" />
<glyph unicode="&#xe96b;" glyph-name="sketchfab" d="M512 829l-320-184.75 320-184.875 320 184.875zM192 542.875v-317.25l274.75-158.625 0.125 317.375zM832 542.875l-274.875-158.5 0.125-317.375 274.75 158.625z" />
<glyph unicode="&#xe96c;" glyph-name="steam" d="M730.375 947.438c-162.076-0.049-293.451-131.424-293.5-293.495v-0.005c0.036-5.501 0.217-10.867 0.54-16.195l-0.040 0.82-189.75-253.625c-0.776 0.065-2.25 0.154-3.729 0.229l-0.521 0.021c-46.481-0.021-89.561-14.566-124.953-39.341l0.703 0.466-119.125 49.5v-255.5l28.75-12c18.94-102.774 107.789-179.624 214.611-179.75h0.014c0.020 0 0.044 0 0.068 0 120.568 0 218.307 97.739 218.307 218.307 0 0.024 0 0.048 0 0.072v-0.004c-0.034 1.712-0.079 3.196-0.138 4.676l0.014-0.426 253.625 189.875c4.211-0.343 9.47-0.613 14.764-0.743l0.361-0.007c0.012 0 0.026 0 0.039 0 162.143 0 293.586 131.443 293.586 293.586 0 0.014 0 0.028 0 0.042v-0.002c-0.049 162.106-131.473 293.5-293.586 293.5-0.014 0-0.028 0-0.042 0h0.002zM733.25 849.563c52.983-0.794 100.742-22.519 135.501-57.251l-0.001 0.001c35.406-35.417 57.304-84.339 57.304-138.375s-21.898-102.958-57.304-138.375v0c-35.417-35.406-84.339-57.304-138.375-57.304s-102.958 21.898-138.375 57.304v0c-35.406 35.417-57.304 84.339-57.304 138.375s21.898 102.958 57.304 138.375v0c35.414 35.386 84.323 57.272 138.343 57.272 1.022 0 2.042-0.008 3.061-0.023l-0.154 0.002zM730.375 796.938c-78.97-0.017-142.984-64.030-143-142.999v-0.001c0-0.029 0-0.062 0-0.096 0-78.982 64.020-143.012 142.998-143.029h0.002c0.029 0 0.062 0 0.096 0 78.993 0 143.029 64.036 143.029 143.029 0 0.034 0 0.068 0 0.102v-0.005c-0.017 78.98-64.046 143-143.029 143-0.034 0-0.068 0-0.102 0h0.005zM243.375 332.563c0.004 0 0.008 0 0.013 0 91.465 0 165.612-74.147 165.612-165.612 0-0.004 0-0.009 0-0.013v0c0-0.004 0-0.008 0-0.013 0-91.465-74.147-165.612-165.612-165.612-0.004 0-0.009 0-0.013 0v0c-68.11 0.071-126.585 41.245-151.962 100.050l-0.413 1.075 107.125-44.5c13.363-5.703 28.911-9.019 45.233-9.019 48.79 0 90.66 29.627 108.601 71.872l0.291 0.772c5.731 13.393 9.063 28.977 9.063 45.339 0 48.807-29.648 90.689-71.916 108.62l-0.773 0.291-107.25 44.625c18.341 7.645 39.647 12.097 61.989 12.125h0.011z" />
<glyph unicode="&#xe96d;" glyph-name="subscribe" d="M512 832c-320 0-512-320-512-384s192-384 512-384c320 0 512 320 512 384s-192 384-512 384zM388.375 648.875c-59.833-33.701-98.669-90.001-98.75-153.865v-0.010c0-0.003 0-0.007 0-0.011 0-102.356 99.553-185.335 222.372-185.364h0.003c122.822 0.030 222.375 83.009 222.375 185.364 0 0.004 0 0.008 0 0.011v-0.001c-0.015 63.756-38.653 119.989-97.476 153.336l-0.774 0.414c142.61-48.884 259.875-163.291 259.875-200.75 0-48-144-288-384-288s-384 240-384 288c0 37.502 117.544 152.087 260.375 200.875zM413.5 544.375c0.506 0.029 1.097 0.045 1.693 0.045 17.675 0 32.003-14.328 32.003-32.003 0-3.086-0.437-6.069-1.252-8.893l0.056 0.226c-0.778-2.933-1.107-5.837-1.125-8.75v-0.125c0.084-23.553 26.579-48.873 67.125-48.875 0.135 0.002 0.293 0.003 0.453 0.003 17.675 0 32.003-14.328 32.003-32.003s-14.328-32.003-32.003-32.003c-0.159 0-0.318 0.001-0.477 0.003h0.024c-68.868 0.003-131.104 47.108-131.125 113 0 0.019 0 0.040 0 0.062s0 0.044 0 0.066v-0.003c0.021 8.478 1.201 16.928 3.375 25.125 3.469 13.421 15.099 23.312 29.165 24.121l0.085 0.004z" />
<glyph unicode="&#xe96e;" glyph-name="subscribed" d="M720 960c-8.864 0-18.822-6.504-22.375-14.625l-57.75-131.875c-39.995 11.417-82.432 18.5-127.875 18.5-320 0-512-320-512-384 0-50.565 120.323-260.107 328.5-346.125l-66.125-151.25c-3.553-8.121 0.761-14.625 9.625-14.625h96c8.864 0 18.822 6.504 22.375 14.625l435.25 994.75c3.553 8.121-0.761 14.625-9.625 14.625zM846.875 701.5l-58.375-133.625c64.694-47.148 107.5-97.375 107.5-119.875 0-40.477-102.737-217.008-278.75-271.5l-47.75-108.875c285.353 34.863 454.5 320.307 454.5 380.375 0 36.649-63.224 157.118-177.125 253.5zM388.375 648.875c-59.833-33.701-98.669-90.001-98.75-153.865v-0.010c0.218-76.313 55.74-141.774 134.926-170.040l1.449-0.46-58.375-133.5c-152.012 66.21-239.625 219.62-239.625 257 0 37.502 117.544 152.087 260.375 200.875zM413.5 544.375c0.506 0.029 1.097 0.045 1.693 0.045 17.675 0 32.003-14.328 32.003-32.003 0-3.086-0.437-6.069-1.252-8.893l0.056 0.226c-0.778-2.933-1.107-5.837-1.125-8.75v-0.125c0.060-16.894 14.074-34.283 36.75-43l-25.625-58.625c-43.178 17.598-75.11 54.731-75.125 101.75 0 0.019 0 0.040 0 0.062s0 0.044 0 0.066v-0.003c0.021 8.478 1.201 16.928 3.375 25.125 3.469 13.421 15.099 23.312 29.165 24.121l0.085 0.004z" />
<glyph unicode="&#xe96f;" glyph-name="tag" d="M127.938 896c-35.422 0-63.938-28.516-63.938-63.938v-235.647c0-16.344 6.333-32.683 18.857-45.206l468.423-468.423c25.047-25.047 65.366-25.047 90.413 0l235.523 235.523c25.047 25.047 25.047 65.366 0 90.413l-468.423 468.423c-12.524 12.524-28.863 18.857-45.206 18.857zM255.815 768.123c35.422 0 63.938-28.516 63.938-63.938s-28.516-63.938-63.938-63.938c-35.422 0-63.938 28.516-63.938 63.938s28.516 63.938 63.938 63.938z" />
<glyph unicode="&#xe970;" glyph-name="tags" d="M63.998 896c-35.455 0-63.998-28.516-63.998-63.938v-235.647c0-16.344 6.214-32.683 18.749-45.206l468.859-468.423c25.070-25.047 65.427-25.047 90.497 0l235.867 235.647c25.070 25.047 25.070 65.366 0 90.413l-468.859 468.423c-12.535 12.524-28.889 18.732-45.248 18.732zM363.612 896c16.343 0 32.6-6.22 45.123-18.732l468.484-467.923c25.046-25.023 25.046-65.39 0-90.413l-216.868-216.666 18.749-18.732c25.046-25.023 65.451-25.023 90.497 0l235.617 235.398c25.046 25.023 25.046 65.39 0 90.413l-468.484 467.923c-12.523 12.511-28.78 18.732-45.123 18.732zM191.993 768.123c35.455 0 63.998-28.516 63.998-63.938s-28.543-63.938-63.998-63.938c-35.455 0-63.998 28.516-63.998 63.938s28.543 63.938 63.998 63.938z" />
<glyph unicode="&#xe971;" glyph-name="thumbs-down" d="M256.875 768c-35.456 0-57.047-29.233-64-64l-64-320c-6.953-34.767 28.544-64 64-64h191.125v-192c0-35.346 28.654-64 64-64s64 28.654 64 64v64l173.25 146.75c12.003 12 18.747 28.277 18.75 45.25v320c0 35.346-28.654 64-64 64zM784 768c-8.864 0-16-7.136-16-16v-416c0-8.864 7.136-16 16-16h96c8.864 0 16 7.136 16 16v416c0 8.864-7.136 16-16 16z" />
<glyph unicode="&#xe972;" glyph-name="thumbs-up" d="M576 832c-35.346 0-64-28.654-64-64v-64l-173.25-146.75c-12.003-12-18.747-28.277-18.75-45.25v-320c0-35.346 28.654-64 64-64h383.125c35.456 0 57.047 29.233 64 64l64 320c6.954 34.767-28.544 64-64 64h-191.125v192c0 35.346-28.654 64-64 64zM144 576c-8.864 0-16-7.136-16-16v-416c0-8.864 7.136-16 16-16h96c8.864 0 16 7.136 16 16v416c0 8.864-7.136 16-16 16z" />
<glyph unicode="&#xe973;" glyph-name="thumbtack" d="M288 832c-17.728 0-32-14.272-32-32v-32c0-35.456 28.544-64 64-64v-256c-70.912 0-128-57.088-128-128v-32c0-17.728 14.272-32 32-32h224v-192l32-64 32 64v192h224c17.728 0 32 14.272 32 32v32c0 70.912-57.088 128-128 128v256c35.456 0 64 28.544 64 64v32c0 17.728-14.272 32-32 32z" />
<glyph unicode="&#xe974;" glyph-name="token" d="M512 768c-247.424 0-448-143.269-448-320v0-64c0.226-60.597 23.997-117.194 65.119-165.412l-1.119 1.412v228c0 141.385 171.923 256 384 256v0c212.077 0 384-114.615 384-256v0-228.125c40.032 46.841 63.808 103.486 64 164.087v64.038c0 176.731-200.576 320-448 320v0zM512 640c-176.731 0-320-85.961-320-192v0c0-106.039 143.269-192 320-192v0c176.731 0 320 85.961 320 192v0c0 106.039-143.269 192-320 192v0zM512 528c106.039 0 192-35.817 192-80v0c0-44.183-85.961-80-192-80v0c-106.039 0-192 35.817-192 80v0c0 44.183 85.961 80 192 80v0zM832 306.875c-14.722-14.709-30.523-27.546-48.014-39.26l0.014 0.010v-137.375c17.674 9.561 33.336 19.35 47.982 29.862l0.018 0.013zM192 306.747v-146.25c14.715-10.788 30.381-20.778 46.972-29.953l1.028-0.546v136.625h1.375c-18.043 11.955-34.298 25.083-48.501 39.205l-0.874 0.923zM704 226.747c-15.768-6.303-34.204-12.35-53.397-17.397l-2.603-0.603v-129.5c22.26 5.175 40.786 10.593 58.645 16.835l-2.645-0.835zM320 226.619v-131.375c15.196-5.328 33.732-10.666 52.831-15.112l3.169-0.638v129.381c-21.81 5.565-40.253 11.533-57.805 18.403l1.805-0.653zM552 193.619c-11.872-0.951-25.759-1.537-39.826-1.618l-0.174-0.001c-0.075 0-0.164 0-0.254 0-14 0-27.825 0.499-41.437 1.473l1.69-0.098v-127.875c11.845-0.876 25.752-1.419 39.813-1.499l0.187-0.001c14.248 0.081 28.155 0.624 41.879 1.609l-1.879-0.109z" />
<glyph unicode="&#xe975;" glyph-name="clock" d="M512 960c-282.77 0-512-229.23-512-512v0c0-282.77 229.23-512 512-512v0c282.77 0 512 229.23 512 512v0c0 282.77-229.23 512-512 512v0zM512 863.875c35.346 0 64-28.654 64-64v0-325.375l173.25-173.25c11.579-11.581 18.74-27.579 18.74-45.25s-7.161-33.669-18.74-45.25v0c-11.581-11.579-27.579-18.74-45.25-18.74s-33.669 7.161-45.25 18.74l-192 192c-11.582 11.58-18.746 27.578-18.75 45.249v351.876c0 35.346 28.654 64 64 64v0z" />
<glyph unicode="&#xe976;" glyph-name="tumblr" d="M448 896c-0.177-118.49-80.827-218.094-190.213-247.097l-1.787-0.403v-136.5h128v-320c0-106.368 85.632-192 192-192h192v176h-128c-35.456 0-64 44.544-64 80v256h192v160h-192v224z" />
<glyph unicode="&#xe977;" glyph-name="twitch" d="M88.875 960l-66.75-176.5v-714.5h244.125v-133h136.125l133 133h199.625l266.875 267v624zM179.25 871.375h732.375v-489.5l-154.5-154.5h-242.125l-136-136v136h-199.75zM421.625 694.25v-268.75h91.75v268.75zM667.125 694.25v-268.75h91.75v268.75z" />
<glyph unicode="&#xe978;" glyph-name="twitter" d="M286.274 831.979c-52.251-0.843-94.284-43.422-94.284-95.824 0-0.483 0.004-0.966 0.011-1.447l-0.001 0.073v-383.303c0-157.605 129.798-287.477 287.312-287.477h191.542c0.403-0.006 0.879-0.010 1.356-0.010 52.898 0 95.78 42.907 95.78 95.835s-42.882 95.835-95.78 95.835c-0.477 0-0.953-0.003-1.428-0.010l0.072 0.001h-191.542c-54.714 0-95.771 41.081-95.771 95.826v95.826h287.312c0.403-0.006 0.878-0.010 1.354-0.010 52.898 0 95.78 42.907 95.78 95.835s-42.882 95.835-95.78 95.835c-0.476 0-0.952-0.003-1.426-0.010l0.072 0.001h-287.312v95.826c0.006 0.409 0.010 0.891 0.010 1.375 0 52.928-42.882 95.835-95.78 95.835-0.526 0-1.051-0.004-1.576-0.013l0.079 0.001z" />
<glyph unicode="&#xe979;" glyph-name="twitter-bird" d="M694.875 832c-0.021 0-0.045 0-0.070 0-108.278 0-196.055-87.294-196.055-194.976 0-0.024 0-0.049 0-0.073v0.004c0.116-15.266 1.977-30.042 5.395-44.216l-0.27 1.328c-14.039 0.692-26.645 1.758-39.124 3.237l2.624-0.253c-147.216 18.807-274.221 92.696-361.564 199.861l-0.811 1.027c-14.742-27.357-23.43-59.838-23.5-94.331v-0.022c0.087-66.465 32.159-125.463 81.728-162.598l0.522-0.375c-2.297-0.149-5.002-0.24-7.727-0.249h-0.023c-0.004 0-0.009 0-0.014 0-29.498 0-56.762 9.512-78.86 25.62l0.374-0.26c0.273-92.142 62-169.873 146.551-194.803l1.449-0.367c-11.366-3.516-24.436-5.558-37.981-5.594h-0.019c-15.412 0.048-30.189 2.685-43.935 7.495l0.935-0.285c25.838-78.279 95.979-134.927 180.216-140.932l0.659-0.038c-64.72-50.886-147.495-81.638-237.492-81.673h-0.008c-18.305 0.201-36.090 1.64-53.493 4.238l2.118-0.26c85.232-56.032 189.812-89.422 302.229-89.505h0.021c0.003 0 0.005 0 0.008 0 305.892 0 553.867 246.61 553.867 550.819 0 0.003 0 0.006 0 0.009v-0.001c-0.277 10.108-0.772 19.397-1.495 28.623l0.119-1.896c39.85 28.675 73.166 63.549 99.209 103.543l0.916 1.501c-30.935-14.396-66.827-24.968-104.509-29.885l-1.866-0.199c34.386 27.845 64.533 58.694 90.783 92.677l0.967 1.303c-40.979-20.909-88.939-34.615-139.725-38.101l-1.15-0.063c-35.676 36.773-85.65 59.623-140.991 59.67h-0.009z" />
<glyph unicode="&#xe97a;" glyph-name="unity" d="M901.875 960l-408.875-112.75-58.375-101.25h-117.125l-302.375-298.125 302.125-297.625h116.875l58.625-101.5 409.25-112.75 106.75 410.5-58.5 101.25 58.625 101.375zM768 823.75l-189.375-328h-378.625l241.375 237.875zM850.875 776l85.375-328.25-85.375-327.75-189.375 327.875zM200.125 400h378.625l189.125-327.75-326.375 90z" />
<glyph unicode="&#xe97b;" glyph-name="unlock" d="M704 832c-106.368 0-192-85.632-192-192v-128h-368c-8.864 0-16-7.136-16-16v-416c0-8.864 7.136-16 16-16h480c8.864 0 16 7.136 16 16v416c0 8.864-7.136 16-16 16h-48v128c0 70.912 57.088 128 128 128s128-57.088 128-128v-112c0-8.864 7.136-16 16-16h32c8.864 0 16 7.136 16 16v112c0 106.368-85.632 192-192 192z" />
<glyph unicode="&#xe97c;" glyph-name="user" d="M512 896c-177.28 0-320-142.72-320-320s142.72-320 320-320c177.28 0 320 142.72 320 320s-142.72 320-320 320zM384 704c35.346 0 64-28.654 64-64v0c0-35.346-28.654-64-64-64v0c-35.346 0-64 28.654-64 64v0c0 35.346 28.654 64 64 64v0zM640 704c35.346 0 64-28.654 64-64v0c0-35.346-28.654-64-64-64v0c-35.346 0-64 28.654-64 64v0c0 35.346 28.654 64 64 64v0zM352 512h320c17.728 0 32-14.272 32-32 0-53.019-85.961-96-192-96v0c-106.039 0-192 42.981-192 96v0c0 17.728 14.272 32 32 32zM384 192c-106.368 0-192-85.632-192-192h640c0 106.368-85.632 192-192 192z" />
<glyph unicode="&#xe97d;" glyph-name="user-messages" d="M32 960c-17.728 0-32-14.272-32-32v-192c0-17.728 14.272-32 32-32h160l128-128v128h32c17.728 0 32 14.272 32 32v192c0 17.728-14.272 32-32 32zM512 512c-106.368 0-192-85.632-192-192s85.632-192 192-192c106.368 0 192 85.632 192 192s-85.632 192-192 192zM448 64c-70.912 0-128-57.088-128-128h384c0 70.912-57.088 128-128 128z" />
<glyph unicode="&#xe97e;" glyph-name="users" d="M512 960c-106.368 0-192-85.632-192-192s85.632-192 192-192c106.368 0 192 85.632 192 192s-85.632 192-192 192zM192 512c-106.368 0-192-85.632-192-192s85.632-192 192-192c106.368 0 192 85.632 192 192s-85.632 192-192 192zM448 512c-24.868 0-47.773-7.324-67.375-19.5 27.56-30.38 47.935-67.395 58.5-108.5h145.75c10.565 41.105 30.94 78.12 58.5 108.5-19.602 12.176-42.507 19.5-67.375 19.5zM832 512c-106.368 0-192-85.632-192-192s85.632-192 192-192c106.368 0 192 85.632 192 192s-85.632 192-192 192zM128 64c-70.912 0-128-57.088-128-128h384c0 70.912-57.088 128-128 128zM768 64c-70.912 0-128-57.088-128-128h384c0 70.912-57.088 128-128 128z" />
<glyph unicode="&#xe97f;" glyph-name="verified" d="M512 896c-9.245 0-123.334-126.087-131.875-129.625s-178.338 4.912-184.875-1.625c-6.537-6.537 1.913-176.334-1.625-184.875s-129.625-122.63-129.625-131.875c0-9.245 126.087-123.334 129.625-131.875s-4.912-178.338 1.625-184.875c6.537-6.537 176.334 1.913 184.875-1.625s122.63-129.625 131.875-129.625c9.245 0 123.334 126.087 131.875 129.625s178.338-4.912 184.875 1.625c6.537 6.537-1.913 176.334 1.625 184.875s129.625 122.63 129.625 131.875c0 9.245-126.087 123.334-129.625 131.875-0.429 1.042 0.25 17.498 0.128 22.75l-339.128-339.125c-6.268-6.268-16.482-6.268-22.75 0l-139.25 139.25c-6.268 6.268-6.268 16.357 0 22.625l45.25 45.25c6.268 6.268 16.482 6.268 22.75 0l82.625-82.625 350.875 350.875c-0.294 13.067-0.733 24.483-2.125 25.875-6.537 6.537-176.334-1.913-184.875 1.625s-122.63 129.625-131.875 129.625z" />
<glyph unicode="&#xe980;" glyph-name="video" d="M160 896c-17.728 0-32-14.272-32-32v-832c0-17.728 14.272-32 32-32h704c17.728 0 32 14.272 32 32v832c0 17.728-14.272 32-32 32zM192 832h64v-64h-64zM336 832h352c8.864 0 16-7.136 16-16v-288c0-8.864-7.136-16-16-16h-352c-8.864 0-16 7.136-16 16v288c0 8.864 7.136 16 16 16zM768 832h64v-64h-64zM192 704h64v-64h-64zM768 704h64v-64h-64zM192 576h64v-64h-64zM768 576h64v-64h-64zM192 448h64v-64h-64zM768 448h64v-64h-64zM336 384h352c8.864 0 16-7.136 16-16v-288c0-8.864-7.136-16-16-16h-352c-8.864 0-16 7.136-16 16v288c0 8.864 7.136 16 16 16zM192 320h64v-64h-64zM768 320h64v-64h-64zM192 192h64v-64h-64zM768 192h64v-64h-64z" />
<glyph unicode="&#xe981;" glyph-name="windows" d="M0 960v-448h448v448h-448zM576 960v-448h448v448h-448zM0 384v-448h448v448h-448zM576 384v-448h448v448h-448z" />
<glyph unicode="&#xe982;" glyph-name="world" d="M512 960c-282.77 0-512-229.23-512-512v0c0-282.77 229.23-512 512-512v0c282.77 0 512 229.23 512 512v0c0 282.77-229.23 512-512 512v0zM506.5 894.125l35.375-2.75 20.25-0.5 60.5-12.25 6.125 1.25 24.75-10.75-10-0.625v-11.375l19.375-14.625-5.375-8.75 12-8 17.375-10.625 0.627 8 4.75-2-1.375-5.375 9.375-11.375 17.375 2.75-10.75 18-17.375 10-5.25 8 24-14 23.375-20.625-15.375-5.375-16.75-6.75 0.75-8-2.75-4-4 9.375-10.625 0.625-18 12-14.75 12.75-6.625 2 4.625-18-8-0.75 4-10 4-9.25 12 4.625-0.627 4.625-0.627 8 7.25-3.25 1.375-9.375 7.375-4-4-6.625 5.375-1.375 4.625 4.625 18 1.375-5.375-10-8.625 3.375-6.625-6.125 18-7.25 13.375-20-17.375 0.625-9.375 7.375-6.625-11.375 9.25-5.375-2.625-14.625 11.375-17.375 10 0.625 8.625-1.375 5.375-3.25 12 2.625 7.375 13.375-6 12 8.625 7.375-5.375 10 10.125-4.75 5.25 10.125 8.75-3.375-2-6 5.25-5.375-4 0.625 4.75-12 9.375-4.625 2.625 5.375-11.375 16 26-12.75 9.375-10-8-4.625 12.625-6.75 1.375 10.75-8 9.375 2.625 2-19.25 12.625-17.375 15.375 28.625-15.375 10.75-11.375 8-5.25 23.375-19.375-4 10.625-12 18.75 7.25 2.625-9.25 11.375-6.75 8 8.75 2.625 16-8.625 5.375-10-9.375 3.375-6-12.75 6.625-12 16.75-12.75 11.25 2 8-14 4.75-12.625-6-7.375-22 12.75-8.125-7.375 4.75-5.375-2-6-10 4.625-10.75 10.125-10.625-2-12 6-0.75 10-3.25 6.625-9.375 4.625h-30l-16.75-15.25-14 1.25-8 4-0.627-14-13.375-8.625 9.375-21.375-18.75-10.75-19.375-42.625 14-38.75-8-15.375 12.75-22.625 20.625-33.375 39.375-30.125 21.375 8 19.375-3.25 12.625 10.625 17.375 4 7.375-19.375 12.75 7.375 10-10.625 0.627-18.125-6.625-12.625 16.625-36 4-38.75-7.375-11.375-13.25-40 4-36.75-7.375-12-5.375-38.75-9.375-14.625-3.25-13.375h12l40 27.375 20.75 38.75 12 8 7.375 25.375 6 14 21.375 48 8 62.75 6 42.125-3.375-69.5-0.128-16.75c-31.071-156.191-139.935-281.29-283.652-334.741l-3.098-1.009-73.625-3.25-84.75-15.375-36 4-23.375 16.75 4.625 12-17.375-2-4-11.375-12.625-2 6-6.625-36.75 0.627-3.121-1.254c-186.532 56.897-319.907 227.423-320 429.114v0.011c0.15 90.618 27.182 174.893 73.543 245.312l-1.043-1.687 1-2-11.375-44.75-6.625-30 8-2 4.625 31.375 8 25.375-8-57.375-9.25-31.375 28.625-27.375 7.375 4.625 12-16 14.75-8.75 11.25-28.625 17.375-9.375 3.375-12h8.625l-2.625 13.375 6.625 3.25 9.375-17.25v-24.125l-10-6-14.625-37.375-2.125-22.625 34.75-57.5 2.75-14 48.625-37.375-1.25-22.625 8.625-12.75-2-24.625 16.75-89.5 48-60.75 34-4-28 18 3.375 12.75 0.625 6-10.625 6.625 6 5.375 6.625 13.375-9.375 6 13.375 4-2.625 9.375h12.625l12 6.625-2 10.625-11.25 10.75 7.25-4.75 18.125 2 34 39.5-4.625 13.25 12.625 13.375 33.375 8.75 22 26.625 2.75 43.375 34.625 37.375-2.625 24.75-14 2.625-16 15.375-34.75 9.375-4.625-2.75-0.75 4.75-34.625 12-22.125-4.625 18 16.625-29.25 33.375-33.375 4.625-12.125 16.75-13.25 1.375-0.75 20.625-24.625-4-20.75 4-19.375 14-36-12.625 0.625-12-4.625-5.375-13.375 11.375-15.375-10-4.625 1.25-7.375 15.375 10.75 32.75-9.375 8.625-12-3.25-8 4 20.625 38-19.375 4-11.375-22-15.25-1.375-4 22 18 46.75 20 11.375 15.375-8.625 6.625 12.625 24-4-4.625-26 4.625-17.375 10.75 14 6 38.75 36 24 3.375 6.625 22.5 25.625 21.25 7.125 0.375 8 23.25 9.875-2-8.5 42.5 17-21.625 0.5-2.875 5.625 9 8.5-10.375 5.75 29.25 0.375 15.5 5.75-18.375-18.5 33.5-8 4.75 16.125-14.625 4.25 1.375 7.5 8.5 8-23.625 13.75 2.875 13.625-4.75 8-14.125-9.875-4.25 2.375 4.25 10.375-18 8.5-8.5-11.75-12.25-4.25 2.375-8.5-15.125-10-6.625 1.5 1.5-6.125-13.25-14.25-3.25 9 8.5 11.75-9.5-0.875-7.5 11.375 7.5 12.25 34.5 14.125 3.25-5.625 11.375 0.375 7 10.5 19.875 12.625 9.5-6.125-17-13.125 20.25-10 27.875 16.625-4.75 15.5-7.125 10.875 22.25 8 2.875-6.625 9.875 1.875 7-5.625-3.75-13.25 3.375-31.125 19.25-3.25 13.75 21.25 17 0.875 6.625 6.125 25.875 7.625-12.625 17.875-18.5 9.875-42.5-3.25 4.25 2.875-15.5 2.75zM582.75 849l-10.5-2.5-9.5 2-0.75-3.5 7.5-4.5 11.75-4 13.25 3.75-0.5 4.25zM246 608.5l-22-0.375-3.375-8 13 3.75-0.625-3.75 16.375-4.625 1.25-5.375 6-3-8-6 15.75 0.375 13.625 0.625-9 6-1 3.75-6.625 2zM278.625 582.875l4.75-11.125h-11.75l1.75-5.625 11.625 2.375 2.375-5.375 8.375 6 14.625-1.625 0.375 5.625-6.75 4-5.625 5zM257 573.125l-9.375-0.625 3.75-6 9.625-0.375zM328.125 570.75l-13.375-0.25 1.375-4.75 10.625-1.625z" />
<glyph unicode="&#xe983;" glyph-name="youtube" d="M512.75 800.5c-511.22 0-512.75-31.957-512.75-352.5s1.53-352.5 512.75-352.5c511.22 0 511.25 31.957 511.25 352.5s-0.030 352.5-511.25 352.5zM414.125 603.625l254.75-155.625-254.75-155.625z" />
<glyph unicode="&#xe984;" glyph-name="other-os" d="M64 960v-64h64v-64h-64v64h-64v-256h64v64h64v-64h-64v-64h64v-64h-64v-64h-64v-192h64v64h64v-64h-64v-64h-64v-128h64v-64h64v-64h896v128h-64v64h-64v64h64v64h-64v64h64v-64h64v384h-64v-64h-64v64h64v64h-64v64h64v64h64v128zM960 768v-64h64v64zM960 192v-64h64v64zM64 0h-64v-64h64zM64 512v64h-64v-64zM320 832h384v-64h64v-256h-64v-64h-64v-64h-64v-64h-128v128h64v64h64v64h64v128h-256v-128h-128v192h64zM448 192h128v-128h-128z" />
<glyph unicode="&#xe985;" glyph-name="gamejolt" d="M256 960v-128h-64v-128h-64v-128h-64v-128h-64v-128h384v-128h-64v-128h-64v-128h64v64h64v64h64v64h64v64h64v64h64v64h64v64h64v64h64v64h64v64h64v64h-192v64h64v64h64v64h64v64h64v64zM320 832h448v-64h-64v-64h-64v-64h-64v-64h-64v-64h64v-64h-64v64h-64v-64h-64v64h-64v-64h-64v64h-64v64h64v128h64zM256 576v-64h64v64zM384 512h64v64h-64zM640 512h64v-64h-64z" />
<glyph unicode="&#xe986;" glyph-name="arrow-forward" d="M651.625 831.5c-5.799-5.405-8.812-92.251-10.25-191.5h-193.375c-212.736 0-384-171.264-384-384v-25.375c78.182 130.278 220.39 217.375 384 217.375h193.375c1.437-99.249 4.451-186.095 10.25-191.5 15.422-14.373 308.375 258.755 308.375 287.5s-292.953 301.873-308.375 287.5z" />
<glyph unicode="&#xe987;" glyph-name="compass-needle" d="M822.835 767.958c-61.347-2.688-443.773-134.188-470.19-160.604-28.178-28.178-175.913-461.505-159.355-478.063s449.886 131.177 478.064 159.354c28.178 28.178 175.913 461.505 159.355 478.063-1.035 1.035-3.784 1.429-7.874 1.25zM402.764 557.235l218.472-218.472c-19.319-19.319-316.356-120.589-327.708-109.236s89.917 308.389 109.236 327.708z" />
<glyph unicode="&#xe988;" glyph-name="mixer" d="M101.75 895.875c-20.502-0.959-40.981-7.891-58.75-21.125-47.384-35.291-57.041-101.866-21.75-149.25l206.75-277.5-206.75-277.5c-35.291-47.384-25.634-113.959 21.75-149.25s113.959-25.634 149.25 21.75l289.25 388.375c2.976 3.996 5.375 10.126 5.375 16.625s-2.399 12.629-5.375 16.625c-96.408 129.468-192.871 258.887-289.25 388.375-22.057 29.615-56.331 44.474-90.5 42.875zM922.25 895.875c-34.169 1.599-68.449-13.26-90.5-42.875l-289.25-388.375c-2.976-3.996-5.375-10.126-5.375-16.625s2.399-12.629 5.375-16.625l289.25-388.375c35.291-47.384 101.866-57.041 149.25-21.75s57.041 101.866 21.75 149.25l-206.75 277.5 206.75 277.5c35.291 47.384 25.634 113.959-21.75 149.25-17.769 13.234-38.248 20.166-58.75 21.125z" />
</font>
</defs>
</svg>
