<?xml version="1.0" encoding="UTF-8" standalone="no"?>
<svg
   xmlns:dc="http://purl.org/dc/elements/1.1/"
   xmlns:cc="http://creativecommons.org/ns#"
   xmlns:rdf="http://www.w3.org/1999/02/22-rdf-syntax-ns#"
   xmlns:svg="http://www.w3.org/2000/svg"
   xmlns="http://www.w3.org/2000/svg"
   viewBox="0 0 100 100"
   version="1.1"
   id="svg2"
   height="106.66666"
   width="106.66666">
  <defs
     id="defs4" />
  <metadata
     id="metadata7">
    <rdf:RDF>
      <cc:Work
         rdf:about="">
        <dc:format>image/svg+xml</dc:format>
        <dc:type
           rdf:resource="http://purl.org/dc/dcmitype/StillImage" />
        <dc:title></dc:title>
        <dc:creator>
          <cc:Agent>
            <dc:title>T. Gantt</dc:title>
          </cc:Agent>
        </dc:creator>
        <cc:license
           rdf:resource="" />
      </cc:Work>
    </rdf:RDF>
  </metadata>
  <g
     style="display:inline"
     transform="translate(0,-952.36218)"
     id="layer1">
    <path
       transform="matrix(0.51621879,-0.73723686,0.73723686,0.51621879,-12.672799,1013.4132)"
       d="m 50.000001,0 c 5.877853,1.5749646e-7 45.736469,28.958982 47.552825,34.549152 1.816356,5.59017 -13.408282,52.446784 -18.163564,55.901699 -4.755283,3.454914 -54.023243,3.454913 -58.778526,-2e-6 C 15.855454,86.995934 0.63081813,40.139319 2.4471746,34.549149 4.2635311,28.958979 44.122149,-1.5749644e-7 50.000001,0 Z"
       id="path4672"
       style="color:#000000;display:inline;overflow:visible;visibility:visible;fill:#000000;fill-opacity:1;fill-rule:nonzero;stroke:none;stroke-width:10;marker:none;enable-background:accumulate" />
    <path
       transform="matrix(0.93750009,0,0,0.93750009,0,952.36218)"
       id="path6098"
       d="m 49.333984,32.488281 -0.478515,4.19336 -7.09961,-2.570313 3.556641,5.638672 -6.1875,4.039062 6.357422,2.25 -3.863281,5.972657 7.416015,-2.105469 0.814453,5.320312 2.734375,-4.519531 2.910157,4.027344 1.28125,-5.646484 9.037109,4.503906 -5.007812,-7.089844 2.800781,-1.40625 C 62.929421,44.345497 62.593459,43.33741 62.775391,42.34375 l -1.978516,-0.517578 2.117187,-2.667969 -3.316406,-2.267578 -1.871094,0.746094 0.21875,-1.925781 c -0.458132,-0.407785 -0.793933,-0.917543 -0.988281,-1.47461 l -3.585937,2.277344 z"
       style="color:#000000;display:inline;overflow:visible;visibility:visible;opacity:1;vector-effect:none;fill:#ff3300;fill-opacity:1;fill-rule:nonzero;stroke:none;stroke-width:2.5;stroke-linecap:round;stroke-linejoin:round;stroke-miterlimit:4;stroke-dasharray:none;stroke-dashoffset:0;stroke-opacity:1;marker:none;enable-background:accumulate" />
    <path
       id="path4672-8-8"
       transform="matrix(0.93750009,0,0,0.93750009,0,952.36218)"
       d="M 65.320312,9.7167969 C 56.430757,10.048121 18.966169,23.143299 16.087891,27.253906 13.017727,31.638554 13.800169,76.496654 17.021484,80.771484 20.2428,85.046315 63.147938,98.164533 68.208984,96.421875 73.270031,94.679217 99.005526,57.928024 98.912109,52.576172 98.818693,47.22432 71.816047,11.39114 66.697266,9.8261719 66.377342,9.7283613 65.912951,9.6947086 65.320312,9.7167969 Z m -0.548828,2.2167971 c 0.562992,-0.02098 1.004674,0.01255 1.308594,0.105468 3.147228,0.962205 14.975906,15.539301 22.972656,27.097657 l -8.585937,-7.123047 c -0.0276,-0.0229 -0.05954,-0.03729 -0.08789,-0.05859 l -9.359375,-8.947266 c -0.432318,-0.413245 -0.972828,-0.629218 -1.498047,-0.644531 -0.525219,-0.01531 -1.035621,0.170769 -1.408203,0.560547 -0.745163,0.779556 -0.647839,2.071947 0.216797,2.898438 l 5.519531,5.277343 c -0.0049,0.0051 -0.01079,0.0085 -0.01563,0.01367 l -0.03906,0.04297 -7.8125,-7.134766 c -0.441625,-0.403284 -0.986287,-0.606037 -1.511719,-0.609375 -0.525431,-0.0033 -1.030931,0.193628 -1.394531,0.591797 -0.727201,0.796338 -0.602,2.086011 0.28125,2.892578 l 6.613281,6.039063 -7.753906,-6.433594 C 61.29625,25.738227 60.001075,25.793083 59.3125,26.623047 58.623925,27.453011 58.809922,28.736274 59.730469,29.5 l 8.537109,7.082031 c 0.08007,0.06643 0.166854,0.117801 0.251953,0.171875 l -0.0039,0.0039 -7.320313,-5.005859 c -0.987385,-0.675094 -2.272195,-0.501554 -2.880859,0.388672 -0.608664,0.890226 -0.303792,2.149125 0.683594,2.824219 l 8.675781,5.93164 c 0.01674,0.01476 0.02962,0.03256 0.04687,0.04687 l 1.929688,1.59961 -2.748047,-1.261719 c -1.086847,-0.499447 -2.323136,-0.112715 -2.773438,0.867188 -0.450301,0.979899 0.06159,2.172427 1.148438,2.671874 l 5.630859,2.585938 c 0.01612,0.0074 0.03265,0.01056 0.04883,0.01758 l 1.712891,0.78711 c 0.999784,0.459442 2.431948,0.201402 3.261719,-0.457032 L 92.550784,61.54296 C 85.390894,73.625809 71.076417,93.076656 67.515625,94.302734 62.707749,95.958219 21.948847,83.496536 18.888672,79.435547 15.828497,75.374558 15.085369,32.759064 18.001953,28.59375 20.736251,24.688768 56.326613,12.248344 64.771484,11.933594 Z m -6.980468,4.435547 c -0.79624,0.0025 -2.156977,0.472026 -2.152344,0.892578 0.0062,0.560735 2.483111,4.958754 2.751953,4.886719 0.268842,-0.07204 0.212519,-5.118723 -0.0625,-5.607422 -0.06876,-0.122175 -0.271696,-0.172694 -0.537109,-0.171875 z m -5.214844,3.271484 c -0.540031,-0.151095 -1.793446,2.018024 -1.392578,2.410156 0.400867,0.392133 5.261228,1.752756 5.40039,1.511719 0.139163,-0.241037 -3.467782,-3.77078 -4.007812,-3.921875 z m -15.355469,7.378906 c -1.697565,0 -3.064453,1.364935 -3.064453,3.0625 v 48.470703 c 0,1.697565 1.366888,3.064451 3.064453,3.064454 h 32.224609 c 1.697568,0 3.064454,-1.366889 3.064454,-3.064454 V 49.484375 c -0.120759,-0.04044 -0.241075,-0.08146 -0.361328,-0.136719 l -1.6875,-0.777344 c 0.141299,0.06125 0.11295,0.05723 -0.07227,-0.02734 a 1.250125,1.250125 0 0 1 -0.0039,-0.002 l -1.001954,-0.460938 v 6.576172 c 0,1.19215 -0.960193,2.152344 -2.152343,2.152344 H 39.435547 c -1.19215,0 -2.150391,-0.960194 -2.150391,-2.152344 V 32.1875 c 0,-1.19215 0.958241,-2.150391 2.150391,-2.150391 h 19.15625 c -0.747432,-0.842267 -1.078551,-1.975843 -0.832031,-3.017578 z m 25.048828,11.697266 a 0.50005,0.50005 0 0 0 -0.03906,0.140625 l -0.470703,3.615234 -1.609375,-3.361328 a 0.50005,0.50005 0 0 0 -0.519532,-0.279297 l -0.830078,0.113281 a 0.50005,0.50005 0 0 0 -0.423828,0.41211 l -0.611328,3.607422 -1.394531,-3.320313 A 0.50005,0.50005 0 0 0 55.84375,39.341797 l -0.828125,0.111328 a 0.50005,0.50005 0 0 0 -0.392578,0.693359 l 2.648437,6.132813 a 0.50005,0.50005 0 0 0 0.525391,0.298828 l 0.773437,-0.103516 A 0.50005,0.50005 0 0 0 58.996094,46.0625 l 0.667968,-3.966797 1.72461,3.646485 a 0.50005,0.50005 0 0 0 0.517578,0.283203 l 0.773438,-0.103516 a 0.50005,0.50005 0 0 0 0.427734,-0.425781 l 0.126953,-0.888672 c -0.550067,-0.878835 -0.701549,-1.976603 -0.240234,-2.980469 0.189706,-0.412821 0.474369,-0.732236 0.804687,-0.992187 l 0.113281,-0.794922 z m -10.580078,1.144531 c -0.252806,-0.0085 -0.510998,0.0074 -0.775391,0.04297 -1.089193,0.146492 -1.973061,0.603542 -2.52539,1.373047 -0.551212,0.764793 -0.72719,1.754106 -0.576172,2.876953 0.152112,1.130984 0.581192,2.045585 1.3125,2.644531 a 0.50005,0.50005 0 0 0 0.002,0.002 c 0.7359,0.596139 1.706802,0.802336 2.792969,0.65625 1.069249,-0.14381 1.942198,-0.610657 2.492187,-1.388672 0.551573,-0.775619 0.73308,-1.762544 0.583985,-2.871093 -0.149385,-1.11071 -0.583826,-2.016403 -1.31836,-2.617188 -0.551736,-0.451274 -1.235722,-0.693494 -1.988281,-0.71875 z m -7.107422,1.029297 c -0.206802,0.006 -0.423366,0.02442 -0.648437,0.05469 l -1.744141,0.234376 a 0.50005,0.50005 0 0 0 -0.429687,0.5625 l 0.857422,6.371093 a 0.50005,0.50005 0 0 0 0.5625,0.429688 l 0.783203,-0.103516 a 0.50005,0.50005 0 0 0 0.429687,-0.5625 l -0.271484,-2.011719 0.294922,-0.03906 c 0.931392,-0.125267 1.683519,-0.413188 2.207031,-0.925781 0.525106,-0.515032 0.747281,-1.243857 0.644531,-2.007813 -0.08602,-0.639582 -0.374834,-1.194996 -0.857422,-1.542969 -0.482585,-0.347971 -1.105994,-0.479863 -1.828125,-0.458984 z m 6.998047,0.642578 c 0.404404,0.0143 0.685191,0.126826 0.923828,0.341797 a 0.50005,0.50005 0 0 0 0.002,0.002 c 0.320798,0.284806 0.564552,0.781003 0.669922,1.564453 0.10669,0.793258 0.0031,1.343903 -0.230469,1.705078 -0.233076,0.360347 -0.599158,0.582912 -1.246093,0.669922 -0.638116,0.08582 -1.053723,-0.03097 -1.384766,-0.318359 v -0.002 c -0.32682,-0.289899 -0.573638,-0.789623 -0.679687,-1.578125 -0.104438,-0.776503 2.23e-4,-1.314983 0.240234,-1.679688 0.242933,-0.368592 0.613407,-0.592755 1.259766,-0.679687 0.161862,-0.02177 0.311688,-0.03012 0.445312,-0.02539 z m -6.8125,1.027344 c 0.18614,0.01674 0.316886,0.05683 0.402344,0.101562 0.177196,0.09276 0.25954,0.199207 0.300781,0.50586 0.04817,0.358174 -0.01143,0.505091 -0.166015,0.644531 -0.153286,0.13827 -0.550925,0.310081 -1.19336,0.396484 l -0.208984,0.0293 -0.214844,-1.597656 0.378906,-0.05078 c 0.281522,-0.03787 0.516591,-0.04589 0.701172,-0.0293 z m -3.683594,18.248047 h 24.5 a 2.50025,2.50025 0 1 1 0,5 h -24.5 a 2.50025,2.50025 0 1 1 0,-5 z m 0,7.875 h 24.5 a 1.250125,1.250125 0 1 1 0,2.5 h -24.5 a 1.250125,1.250125 0 1 1 0,-2.5 z m 0,5.375 h 24.5 a 1.250125,1.250125 0 1 1 0,2.5 h -24.5 a 1.250125,1.250125 0 1 1 0,-2.5 z"
       style="color:#000000;display:inline;overflow:visible;visibility:visible;fill:#ffffff;fill-opacity:1;fill-rule:nonzero;stroke:none;stroke-width:9.10650158;marker:none;enable-background:accumulate" />
  </g>
</svg>
