<?xml version="1.0" encoding="UTF-8" standalone="no"?>
<svg
   xmlns:dc="http://purl.org/dc/elements/1.1/"
   xmlns:cc="http://creativecommons.org/ns#"
   xmlns:rdf="http://www.w3.org/1999/02/22-rdf-syntax-ns#"
   xmlns:svg="http://www.w3.org/2000/svg"
   xmlns="http://www.w3.org/2000/svg"
   viewBox="0 0 100 100"
   version="1.1"
   id="svg2"
   height="106.66666"
   width="106.66666">
  <defs
     id="defs4" />
  <metadata
     id="metadata7">
    <rdf:RDF>
      <cc:Work
         rdf:about="">
        <dc:format>image/svg+xml</dc:format>
        <dc:type
           rdf:resource="http://purl.org/dc/dcmitype/StillImage" />
        <dc:title></dc:title>
        <dc:creator>
          <cc:Agent>
            <dc:title>T. Gantt</dc:title>
          </cc:Agent>
        </dc:creator>
        <cc:license
           rdf:resource="" />
      </cc:Work>
    </rdf:RDF>
  </metadata>
  <g
     style="display:inline"
     transform="translate(0,-952.36218)"
     id="layer1">
    <path
       transform="matrix(0.68944001,-0.57850886,0.57850886,0.68944001,-14.146959,997.08842)"
       d="m 50.000001,0 c 5.877853,1.5749646e-7 45.736469,28.958982 47.552825,34.549152 1.816356,5.59017 -13.408282,52.446784 -18.163564,55.901699 -4.755283,3.454914 -54.023243,3.454913 -58.778526,-2e-6 C 15.855454,86.995934 0.63081813,40.139319 2.4471746,34.549149 4.2635311,28.958979 44.122149,-1.5749644e-7 50.000001,0 Z"
       id="path4672"
       style="color:#000000;display:inline;overflow:visible;visibility:visible;fill:#000000;fill-opacity:1;fill-rule:nonzero;stroke:none;stroke-width:10;marker:none;enable-background:accumulate" />
    <path
       id="path6281"
       transform="matrix(0.93750009,0,0,0.93750009,0,952.36218)"
       d="M 59.65625,27.505859 C 46.965399,27.307266 40.956102,38.9942 41.541016,41.662109 c 0.44382,2.024312 2.566526,2.412822 5.044922,2.34375 l 14.136718,3.13086 0.720703,2.15039 4.185547,-0.824218 0.396485,4.242187 -0.353516,1.72461 -0.574219,-0.08984 -0.01172,-0.01758 -0.527344,-0.06641 -1.53125,-0.238281 0.01563,0.04883 -2.199219,-0.27539 -1.960938,1.34375 0.875,2.234375 1.859376,0.75 2.257812,0.132812 0.511719,-0.179687 1.451172,4.333984 c -0.0074,0.004 -0.01403,0.0097 -0.02148,0.01367 5.709626,0.95284 10.398907,-1.900914 12.830078,-9.416016 0.53865,-0.743057 0.952825,-1.622319 1.164063,-2.666015 0.26677,-1.318068 0.299451,-2.564154 0.203125,-3.716797 0.0015,-0.0122 0.0043,-0.02294 0.0059,-0.03516 -0.0045,0.0057 -0.0033,0.0041 -0.0078,0.0098 -0.351336,-4.111746 -2.458985,-6.953125 -2.458985,-6.953125 0,0 -0.781831,-9.932175 -15.269531,-11.933594 -0.905481,-0.125089 -1.780896,-0.189885 -2.626953,-0.203125 z m -1.408203,19.167969 -3.402344,1.148438 -2.320312,3.072265 0.396484,1.722657 3.867187,0.662109 1.570313,-2.628906 z m -10.240235,4.101563 -2.726562,0.304687 -0.34375,1.054688 -0.265625,1.25 0.3125,1.289062 1.804687,0.382813 2.320313,-0.01563 0.984375,-1.335938 -0.171875,-1.65625 z m 8.859376,5.214843 c -2.109807,0.06293 -3.461333,1.067763 -4.269532,1.976563 0.848036,0.887253 2.864621,1.154901 3.628906,0.296875 0.482431,-0.541653 0.811116,-1.453918 0.640626,-2.273438 z m 19.714843,3.658204 c -0.220035,0.267262 -0.438398,0.538331 -0.671875,0.78125 -1.048032,1.090382 -2.235245,1.909283 -3.517578,2.472656 0.02821,8.153592 8.63086,7.304687 8.63086,7.304687 0,0 0.5491,-7.450905 -2.289063,-9.580078 -0.712223,-0.534275 -1.448419,-0.830853 -2.152344,-0.978515 z m -20.86914,3.958984 c -5.388967,2.028851 -9.524768,9.952972 -9.90625,12.68164 -0.564434,4.037336 2.15625,6.492188 2.15625,6.492188 l -2.208985,10.880859 c 2.875725,1.526388 5.398689,2.742275 7.240235,3.427735 h 4.539062 c 2.597377,-1.266106 6.946615,-4.310386 11.792969,-8.066406 V 78.962891 C 69.32605,72.104366 66.904979,66.629606 62.728516,64.3125 61.869,64.3929 60.994349,64.39975 60.113281,64.3418 L 57.78125,64.947266 56.263672,63.71875 Z"
       style="color:#000000;display:inline;overflow:visible;visibility:visible;opacity:1;vector-effect:none;fill:#ff3300;fill-opacity:1;fill-rule:nonzero;stroke:none;stroke-width:2.5;stroke-linecap:round;stroke-linejoin:round;stroke-miterlimit:4;stroke-dasharray:none;stroke-dashoffset:0;stroke-opacity:1;marker:none;enable-background:accumulate" />
    <path
       id="path6550"
       transform="matrix(0.93750009,0,0,0.93750009,0,952.36218)"
       d="m 64.142578,13.962891 c -14.969937,0.145813 -37.952858,2.410886 -40.835937,4.830078 -4.100381,3.440628 -14.9543635,46.974593 -12.949219,51.9375 2.005144,4.962906 40.054903,28.738617 45.394531,28.365234 5.339628,-0.373383 39.708979,-29.21258 41.003906,-34.40625 1.294928,-5.19367 -15.513415,-46.794378 -20.052734,-49.630859 -1.13483,-0.709121 -4.783301,-1.043991 -9.681641,-1.095703 -0.918438,-0.0097 -1.88091,-0.0097 -2.878906,0 z m -0.539062,2.03125 c 0.948081,-0.0092 1.861879,-0.0092 2.734375,0 4.653309,0.04912 8.119203,0.36932 9.197265,1.042968 4.312248,2.694592 20.277026,42.212619 19.046875,47.146485 -0.644763,2.586005 -9.921443,11.331588 -19.333984,19.130859 -2.521319,-8.854437 -6.699714,-14.904039 -9.216797,-14.947265 -0.233883,-0.004 -0.453886,0.04454 -0.65625,0.146484 -2.289301,1.15322 -0.311184,12.36869 1.669922,21.316406 -5.336689,4.028453 -9.791072,6.923619 -11.414063,7.03711 -5.072523,0.354705 -41.218205,-22.230667 -43.123047,-26.945313 -1.90484,-4.714646 8.405515,-46.069374 12.300782,-49.337891 2.738859,-2.298175 24.573695,-4.451173 38.794922,-4.589843 z m -0.01367,27.105468 c 0,0 -6.574858,0.386706 -10.556641,0.423829 -1.855146,0.01729 -4.28527,0.422169 -6.447265,0.482421 A 15.166992,15.166992 0 0 0 46.341797,44.960938 15.166992,15.166992 0 0 0 46.335938,45 l -1.1875,5.869141 -0.451172,2.224609 -0.167969,0.828125 c -0.662255,3.272106 1.438822,6.437316 4.710937,7.099609 l 0.875,0.177735 2.177735,0.441406 5.90625,1.195313 a 15.166992,15.166992 0 0 0 7.638672,-0.429688 c 2.145397,-1.160223 3.978317,-2.982172 5.332031,-4.59375 a 3.5351651,3.9912951 11.441755 0 0 0.68164,0.222656 3.5351651,3.9912951 11.441755 0 0 4.257813,-3.210937 3.5351651,3.9912951 11.441755 0 0 -2.673828,-4.613281 3.5351651,3.9912951 11.441755 0 0 -0.705078,-0.05859 3.5351651,3.9912951 11.441755 0 0 -1.070313,0.21289 l -1.09375,5.40625 c -1.068289,-0.239263 -2.031198,-0.692555 -2.753906,-1.345703 -2.031213,-1.835946 1.853516,-8.001953 1.853516,-8.001953 0,0 -9.88978,1.721424 -6.076172,-3.324219 z m -14.46875,3.53125 3.166015,2.792969 a 2.3177346,2.3177346 0 0 1 -2.673828,1.587891 2.3177346,2.3177346 0 0 1 -1.8125,-2.730469 2.3177346,2.3177346 0 0 1 1.320313,-1.650391 z m 7.871094,1.470703 c -3e-6,0 0.306333,5.689228 -2.603516,4.242188 -2.909848,-1.44704 2.603513,-4.242185 2.603516,-4.242188 z M 39.849609,48.8125 c -0.588321,0.138893 -1.918976,1.354059 -1.759765,1.710938 0.181955,0.407853 3.58331,2.548826 3.779297,2.378906 0.195986,-0.16992 -1.442371,-3.840191 -1.820313,-4.078125 -0.04724,-0.02974 -0.115173,-0.03156 -0.199219,-0.01172 z m -11.707031,0.09961 c -6.473492,-0.342967 -2.79414,22.922512 7.986328,26.734375 3.204685,1.133134 5.970694,1.599039 8.347656,1.671875 0.0065,-0.383092 0.03292,-0.782002 0.0918,-1.203125 0.264295,-1.890486 1.540626,-4.714477 3.523438,-7.498046 -2.976714,0.133278 -7.463668,0.0031 -9.9375,-1.695313 -3.677351,-2.524693 -3.22432,-12.580319 -4.675781,-13.386719 -1.451463,-0.8064 -1.935547,1.291016 -1.935547,1.291016 0,0 -0.359239,-5.168134 -2.742188,-5.806641 -0.230053,-0.06164 -0.449381,-0.09636 -0.658203,-0.107422 z m 36.53711,0.867188 a 2.3177346,2.3177346 0 0 1 0.574218,2.035156 2.3177346,2.3177346 0 0 1 -2.732422,1.810547 2.3177346,2.3177346 0 0 1 -1.84375,-2.501953 z m -17.730469,1.423828 a 2.3947891,1.8246014 11.441755 0 1 0.642578,0.06055 2.3947891,1.8246014 11.441755 0 1 1.984375,2.263672 2.3947891,1.8246014 11.441755 0 1 -2.708984,1.3125 2.3947891,1.8246014 11.441755 0 1 -1.986329,-2.261719 2.3947891,1.8246014 11.441755 0 1 2.06836,-1.375 z m 6.982422,2.353516 c 0.348523,-0.0208 0.736138,0.0082 1.167968,0.0957 3.454644,0.6992 2.894138,3.819161 1.6875,5.173828 -1.188322,1.334186 -4.677904,0.6287 -5.253906,-1.0625 -0.511774,-1.502613 -0.04123,-4.059938 2.398438,-4.207031 z m 8.474609,0.773437 a 2.3947891,1.8246013 11.441755 0 1 0.002,0 2.3947891,1.8246013 11.441755 0 1 0.640625,0.0625 2.3947891,1.8246013 11.441755 0 1 1.986328,2.263672 2.3947891,1.8246013 11.441755 0 1 -2.708984,1.3125 2.3947891,1.8246013 11.441755 0 1 -1.986328,-2.261719 2.3947891,1.8246013 11.441755 0 1 2.066406,-1.376953 z M 41.310547,54.79297 c -0.84023,-0.03121 -3.914483,0.484453 -4.201172,0.75 -0.327645,0.303482 0.691756,2.404179 1.132813,2.333984 0.44105,-0.07019 3.390748,-2.801869 3.277343,-3.035156 -0.01418,-0.02916 -0.08895,-0.04437 -0.208984,-0.04883 z m 14.953125,8.925781 v 1.697266 c 1.149726,0.632106 2.417626,0.73472 3.871094,0 v -1.080078 c -0.724489,-0.04792 -1.452751,-0.127441 -2.183594,-0.275391 z"
       style="color:#000000;display:inline;overflow:visible;visibility:visible;opacity:1;vector-effect:none;fill:#ffffff;fill-opacity:1;fill-rule:nonzero;stroke:none;stroke-width:2.5;stroke-linecap:round;stroke-linejoin:round;stroke-miterlimit:4;stroke-dasharray:none;stroke-dashoffset:0;stroke-opacity:1;marker:none;enable-background:accumulate" />
  </g>
</svg>
