<?xml version="1.0" encoding="UTF-8" standalone="no"?>
<svg
   xmlns:dc="http://purl.org/dc/elements/1.1/"
   xmlns:cc="http://creativecommons.org/ns#"
   xmlns:rdf="http://www.w3.org/1999/02/22-rdf-syntax-ns#"
   xmlns:svg="http://www.w3.org/2000/svg"
   xmlns="http://www.w3.org/2000/svg"
   id="svg8"
   version="1.1"
   viewBox="0 0 90.626221 140.37238"
   height="140.37238mm"
   width="90.626221mm">
  <defs
     id="defs2" />
  <metadata
     id="metadata5">
    <rdf:RDF>
      <cc:Work
         rdf:about="">
        <dc:format>image/svg+xml</dc:format>
        <dc:type
           rdf:resource="http://purl.org/dc/dcmitype/StillImage" />
        <dc:title></dc:title>
      </cc:Work>
    </rdf:RDF>
  </metadata>
  <g
     transform="translate(-7.3723804,-98.467329)"
     id="layer1">
    <g
       transform="translate(-95.250038)"
       id="g5423">
      <ellipse
         style="color:#000000;display:inline;overflow:visible;visibility:visible;opacity:1;vector-effect:none;fill:#000000;fill-opacity:1;fill-rule:nonzero;stroke:none;stroke-width:0.39687499;stroke-linecap:round;stroke-linejoin:round;stroke-miterlimit:4;stroke-dasharray:none;stroke-dashoffset:0;stroke-opacity:1;marker:none;enable-background:accumulate"
         id="path4994-9"
         cx="162.41193"
         cy="233.9386"
         rx="24.085453"
         ry="4.9011092" />
      <ellipse
         style="color:#000000;display:inline;overflow:visible;visibility:visible;opacity:1;vector-effect:none;fill:#c1c1c1;fill-opacity:1;fill-rule:nonzero;stroke:none;stroke-width:0.39687502;stroke-linecap:round;stroke-linejoin:round;stroke-miterlimit:4;stroke-dasharray:none;stroke-dashoffset:0;stroke-opacity:1;marker:none;enable-background:accumulate"
         id="path4485-48"
         cx="165.53108"
         cy="125.75738"
         rx="24.498512"
         ry="27.290049" />
      <path
         style="color:#000000;display:inline;overflow:visible;visibility:visible;opacity:1;vector-effect:none;fill:#7e7e7e;fill-opacity:1;fill-rule:nonzero;stroke:none;stroke-width:0.39687499;stroke-linecap:round;stroke-linejoin:round;stroke-miterlimit:4;stroke-dasharray:none;stroke-dashoffset:0;stroke-opacity:1;marker:none;enable-background:accumulate"
         d="m 179.83388,139.6119 4.55481,-1.33674 1.38624,-4.35677 -0.14852,-5.54497 -3.06954,0.0495 z"
         id="path4684" />
      <path
         style="color:#000000;display:inline;overflow:visible;visibility:visible;opacity:1;vector-effect:none;fill:#7e7e7e;fill-opacity:1;fill-rule:nonzero;stroke:none;stroke-width:0.39687499;stroke-linecap:round;stroke-linejoin:round;stroke-miterlimit:4;stroke-dasharray:none;stroke-dashoffset:0;stroke-opacity:1;marker:none;enable-background:accumulate"
         d="m 140.45836,169.85121 c 0,0 -8.96203,19.60445 -7.84177,27.44622 1.12025,7.84178 3.82815,11.01234 4.63581,11.4826 1.22084,0.71084 3.37442,0.58556 4.20095,-0.56013 0.32101,-0.44496 -1.28743,-6.75549 -1.28743,-6.75549 0,0 0.6786,3.0356 1.34935,3.11467 0.92713,0.10929 1.52863,-1.67415 1.68038,-2.24051 0.16906,-0.63094 4.2643,-31.3671 4.2643,-31.3671 z"
         id="path4714" />
      <path
         style="color:#000000;display:inline;overflow:visible;visibility:visible;opacity:1;vector-effect:none;fill:#c1c1c1;fill-opacity:1;fill-rule:nonzero;stroke:none;stroke-width:0.39687496;stroke-linecap:round;stroke-linejoin:round;stroke-miterlimit:4;stroke-dasharray:none;stroke-dashoffset:0;stroke-opacity:1;marker:none;enable-background:accumulate"
         d="m 145.07941,191.34609 c 0,0 -0.0842,15.23292 0.63824,22.33431 0.67808,6.66557 6.37953,19.45489 6.37953,19.45489 0,0 1.19668,-11.08632 2.2204,-15.25029 0.5514,-2.24279 2.32254,-8.96059 2.32254,-8.96059 h 9.25918 c 0,0 1.13099,8.02601 1.5503,10.13455 1.10135,5.5383 4.00292,14.07633 4.00292,14.07633 0,0 2.88534,-11.75445 5.04114,-17.43767 0.84649,-2.23155 3.14956,-7.68278 3.31362,-11.02922 0.28229,-5.75823 -0.70017,-14.9327 -0.70017,-14.9327 z"
         id="path4765" />
      <path
         style="color:#000000;display:inline;overflow:visible;visibility:visible;opacity:1;vector-effect:none;fill:#7e7e7e;fill-opacity:1;fill-rule:nonzero;stroke:none;stroke-width:0.39687499;stroke-linecap:round;stroke-linejoin:round;stroke-miterlimit:4;stroke-dasharray:none;stroke-dashoffset:0;stroke-opacity:1;marker:none;enable-background:accumulate"
         d="m 162.2516,197.61585 c 0.0208,0.22586 0.0193,0.50008 -0.009,0.83095 -0.30836,3.56463 -2.46652,3.06958 -2.46652,3.06958 l -0.0543,-3.21944 c -0.45859,0.23934 -0.78031,0.447 -0.78031,0.447 l 0.0992,3.66386 c 0,0 3.46539,0.49505 3.96048,-3.06958 0.15721,-1.13189 -0.19568,-1.604 -0.74931,-1.72237 z"
         id="path4767" />
      <path
         style="color:#000000;display:inline;overflow:visible;visibility:visible;opacity:1;vector-effect:none;fill:#7e7e7e;fill-opacity:1;fill-rule:nonzero;stroke:none;stroke-width:0.39687499;stroke-linecap:round;stroke-linejoin:round;stroke-miterlimit:4;stroke-dasharray:none;stroke-dashoffset:0;stroke-opacity:1;marker:none;enable-background:accumulate"
         d="m 149.25497,197.88249 c 0.01,1.62894 -0.70049,4.39847 -4.05143,5.79138 0.007,0.27645 0.0151,0.55271 0.0227,0.82941 5.89884,-1.53962 4.80333,-6.54534 4.80333,-6.54534 z"
         id="path4785" />
      <path
         style="color:#000000;display:inline;overflow:visible;visibility:visible;opacity:1;vector-effect:none;fill:#7e7e7e;fill-opacity:1;fill-rule:nonzero;stroke:none;stroke-width:0.39687499;stroke-linecap:round;stroke-linejoin:round;stroke-miterlimit:4;stroke-dasharray:none;stroke-dashoffset:0;stroke-opacity:1;marker:none;enable-background:accumulate"
         d="m 172.65355,197.86958 -0.90589,0.0885 c -0.52757,2.53815 1.17181,6.46482 6.17938,6.67692 l 0.26984,-6.66514 -1.05006,0.10957 -0.0238,5.67031 c -4.58505,-1.23438 -4.61817,-4.64595 -4.4695,-5.88015 z"
         id="path4785-8" />
      <path
         style="color:#000000;display:inline;overflow:visible;visibility:visible;opacity:1;vector-effect:none;fill:#7e7e7e;fill-opacity:1;fill-rule:nonzero;stroke:none;stroke-width:0.39687499;stroke-linecap:round;stroke-linejoin:round;stroke-miterlimit:4;stroke-dasharray:none;stroke-dashoffset:0;stroke-opacity:1;marker:none;enable-background:accumulate"
         d="m 179.1069,189.7357 -34.02738,1.61024 c 0,0 -0.0206,4.44201 0.0698,9.62939 h 34.69401 c -0.10268,-5.31557 -0.73639,-11.23963 -0.73639,-11.23963 z"
         id="path4686-4" />
      <path
         style="color:#000000;display:inline;overflow:visible;visibility:visible;opacity:1;vector-effect:none;fill:#555555;fill-opacity:1;fill-rule:nonzero;stroke:none;stroke-width:0.39687499;stroke-linecap:round;stroke-linejoin:round;stroke-miterlimit:4;stroke-dasharray:none;stroke-dashoffset:0;stroke-opacity:1;marker:none;enable-background:accumulate"
         d="m 162.2516,197.61584 c 0.0208,0.22586 0.0193,0.50009 -0.009,0.83096 -0.11491,1.32836 -0.4867,2.09198 -0.90796,2.52853 h 1.09657 c 0.26907,-0.4176 0.4748,-0.95173 0.57,-1.63711 0.1572,-1.13189 -0.19568,-1.60401 -0.74931,-1.72238 z m -2.53008,0.6811 c -0.45859,0.23934 -0.78031,0.447 -0.78031,0.447 l 0.0605,2.23139 h 0.76481 z"
         id="path4686-4-9" />
      <path
         style="color:#000000;display:inline;overflow:visible;visibility:visible;opacity:1;vector-effect:none;fill:#555555;fill-opacity:1;fill-rule:nonzero;stroke:none;stroke-width:0.39687499;stroke-linecap:round;stroke-linejoin:round;stroke-miterlimit:4;stroke-dasharray:none;stroke-dashoffset:0;stroke-opacity:1;marker:none;enable-background:accumulate"
         d="m 149.25497,197.88249 c 0.005,0.84216 -0.18623,1.9888 -0.83147,3.09284 h 1.30018 c 0.62032,-1.57465 0.30593,-3.01739 0.30593,-3.01739 z"
         id="path4785-6" />
      <path
         style="color:#000000;display:inline;overflow:visible;visibility:visible;opacity:1;vector-effect:none;fill:#555555;fill-opacity:1;fill-rule:nonzero;stroke:none;stroke-width:0.39687499;stroke-linecap:round;stroke-linejoin:round;stroke-miterlimit:4;stroke-dasharray:none;stroke-dashoffset:0;stroke-opacity:1;marker:none;enable-background:accumulate"
         d="m 172.65355,197.86957 -0.90589,0.0884 c -0.18837,0.90625 -0.0907,1.9894 0.33796,3.01739 h 1.11311 c -0.65,-1.21551 -0.62306,-2.45926 -0.54518,-3.10576 z m 5.54333,0.10026 -1.05007,0.10955 -0.0119,2.89595 h 0.94051 z"
         id="path4785-8-2" />
      <path
         style="color:#000000;display:inline;overflow:visible;visibility:visible;opacity:1;vector-effect:none;fill:#3e3e3e;fill-opacity:1;fill-rule:nonzero;stroke:none;stroke-width:0.39687499;stroke-linecap:round;stroke-linejoin:round;stroke-miterlimit:4;stroke-dasharray:none;stroke-dashoffset:0;stroke-opacity:1;marker:none;enable-background:accumulate"
         d="m 163.28461,153.77304 c -5.78745,0.0217 -11.4128,0.68543 -13.9175,1.60817 -2.32309,0.85583 -7.47731,7.37548 -10.55801,16.3375 1.49833,1.49833 4.38518,2.43077 6.95823,2.9962 -0.93282,5.42272 -1.35622,17.84627 -1.35702,21.87205 7.9e-4,0.93534 0.0309,1.87007 0.0899,2.80087 h 36.77294 c 0.0642,-0.93041 0.0994,-1.86513 0.10543,-2.80087 -0.004,-3.89355 -0.34829,-16.19064 -1.18443,-21.51083 l 0.75344,2.36058 5.47099,-0.29714 -0.0636,-4.89582 c 0.21686,-0.16978 0.41744,-0.34457 0.5979,-0.52504 -3.0807,-8.54193 -7.60975,-15.2641 -10.55801,-16.3375 -1.96981,-0.71718 -8.95585,-1.5701 -11.95172,-1.60403 -0.3864,-0.004 -0.77276,-0.006 -1.15859,-0.004 z"
         id="path4686" />
      <path
         style="color:#000000;display:inline;overflow:visible;visibility:visible;opacity:1;vector-effect:none;fill:#7e7e7e;fill-opacity:1;fill-rule:nonzero;stroke:none;stroke-width:0.39687499;stroke-linecap:round;stroke-linejoin:round;stroke-miterlimit:4;stroke-dasharray:none;stroke-dashoffset:0;stroke-opacity:1;marker:none;enable-background:accumulate"
         d="m 186.35503,172.24375 c -1.55251,1.21547 -3.9625,2.15792 -6.16086,2.83238 -0.33551,0.10294 -0.87256,0.23729 -1.50275,0.39119 l 2.04276,23.93457 0.25064,2.93666 c 0.0794,0.93024 0.75332,2.35002 1.68052,2.24069 0.43828,-0.0517 1.34927,-3.11505 1.34927,-3.11505 0,0 -2.04736,5.99556 -1.28726,6.75566 1.20895,1.20895 2.97739,1.2665 4.20078,0.56017 1.20505,-0.69574 5.10314,-3.64072 6.22339,-11.4825 0.88212,-6.17478 -4.47385,-19.60678 -6.79649,-25.05377 z"
         id="path4714-3" />
      <path
         style="color:#000000;display:inline;overflow:visible;visibility:visible;opacity:1;vector-effect:none;fill:#555555;fill-opacity:1;fill-rule:nonzero;stroke:none;stroke-width:0.39687499;stroke-linecap:round;stroke-linejoin:round;stroke-miterlimit:4;stroke-dasharray:none;stroke-dashoffset:0;stroke-opacity:1;marker:none;enable-background:accumulate"
         d="m 167.9518,151.44447 0.79214,3.36659 c -4.27626,1.55372 -8.66604,2.31277 -13.46637,0.19804 l 0.99018,-3.76266 z"
         id="path4712" />
      <path
         style="color:#000000;display:inline;overflow:visible;visibility:visible;opacity:1;vector-effect:none;fill:#7e7e7e;fill-opacity:1;fill-rule:nonzero;stroke:none;stroke-width:0.39687499;stroke-linecap:round;stroke-linejoin:round;stroke-miterlimit:4;stroke-dasharray:none;stroke-dashoffset:0;stroke-opacity:1;marker:none;enable-background:accumulate"
         d="m 163.98379,106.04365 c -11.75536,-1.1e-4 -21.28501,10.52209 -21.285,23.50193 0.006,1.51732 0.14556,3.03041 0.41599,4.51807 -1.74476,1.91806 -2.66585,4.09179 -2.67167,6.30504 -1.4e-4,7.00223 8.9682,12.67873 20.03134,12.67881 h 3.50934 c 11.75516,-2e-4 21.2845,-10.52231 21.28449,-23.50192 1e-5,-12.97961 -9.52933,-23.50172 -21.28449,-23.50193 z"
         id="path4485" />
      <ellipse
         style="color:#000000;display:inline;overflow:visible;visibility:visible;opacity:1;vector-effect:none;fill:#555555;fill-opacity:1;fill-rule:nonzero;stroke:none;stroke-width:0.39687499;stroke-linecap:round;stroke-linejoin:round;stroke-miterlimit:4;stroke-dasharray:none;stroke-dashoffset:0;stroke-opacity:1;marker:none;enable-background:accumulate"
         id="path4502"
         cx="148.1884"
         cy="133.25632"
         rx="1.9988893"
         ry="4.4648671" />
      <ellipse
         style="color:#000000;display:inline;overflow:visible;visibility:visible;opacity:1;vector-effect:none;fill:#555555;fill-opacity:1;fill-rule:nonzero;stroke:none;stroke-width:0.39687499;stroke-linecap:round;stroke-linejoin:round;stroke-miterlimit:4;stroke-dasharray:none;stroke-dashoffset:0;stroke-opacity:1;marker:none;enable-background:accumulate"
         id="path4502-0"
         cx="165.96724"
         cy="133.25632"
         rx="1.9988893"
         ry="4.4648671" />
      <path
         style="color:#000000;display:inline;overflow:visible;visibility:visible;opacity:1;vector-effect:none;fill:#555555;fill-opacity:1;fill-rule:nonzero;stroke:none;stroke-width:0.39687499;stroke-linecap:round;stroke-linejoin:round;stroke-miterlimit:4;stroke-dasharray:none;stroke-dashoffset:0;stroke-opacity:1;marker:none;enable-background:accumulate"
         d="m 151.07587,145.3736 h 12.00392 c 0,0 -2.53691,-1.96796 -6.00196,-1.96796 -3.46505,0 -6.00196,1.96796 -6.00196,1.96796 z"
         id="path4519" />
      <path
         style="color:#000000;display:inline;overflow:visible;visibility:visible;opacity:1;vector-effect:none;fill:#555555;fill-opacity:1;fill-rule:nonzero;stroke:none;stroke-width:0.39687499;stroke-linecap:round;stroke-linejoin:round;stroke-miterlimit:4;stroke-dasharray:none;stroke-dashoffset:0;stroke-opacity:1;marker:none;enable-background:accumulate"
         d="m 156.9821,132.32861 c 0,0 -4.20095,6.18472 -0.98022,6.64858 3.22073,0.46384 0.98022,-6.64858 0.98022,-6.64858 z"
         id="path4521" />
      <path
         style="color:#000000;display:inline;overflow:visible;visibility:visible;opacity:1;vector-effect:none;fill:#555555;fill-opacity:1;fill-rule:nonzero;stroke:none;stroke-width:0.39687499;stroke-linecap:round;stroke-linejoin:round;stroke-miterlimit:4;stroke-dasharray:none;stroke-dashoffset:0;stroke-opacity:1;marker:none;enable-background:accumulate"
         d="m 163.98379,106.04365 a 21.284818,23.501911 0 0 0 -20.59461,17.68265 c 4.11531,1.58201 10.0115,1.77456 15.13344,-2.0252 0.4201,3.71083 10.92254,5.1025 13.44311,-0.92759 -0.14003,3.71082 2.38022,4.94801 2.38022,4.94801 l 5.29012,-5.7645 3.64525,-0.26562 a 21.284818,23.501911 0 0 0 -19.29753,-13.64775 z"
         id="path4538-6" />
      <path
         style="color:#000000;display:inline;overflow:visible;visibility:visible;opacity:1;vector-effect:none;fill:#c1c1c1;fill-opacity:1;fill-rule:nonzero;stroke:none;stroke-width:0.39687499;stroke-linecap:round;stroke-linejoin:round;stroke-miterlimit:4;stroke-dasharray:none;stroke-dashoffset:0;stroke-opacity:1;marker:none;enable-background:accumulate"
         d="m 149.70045,109.90904 c 0,0 -5.88133,-3.71083 -7.42168,0 -1.54034,3.71082 1.96045,4.4839 1.96045,4.4839 0,0 -6.02137,-0.9277 -6.02137,2.93775 0,3.86544 11.34257,9.43168 20.3046,2.78312 0.42009,3.71083 10.92247,5.10238 13.44304,-0.92771 -0.14003,3.71083 2.38055,4.94777 2.38055,4.94777 0,0 -1.28432,12.9148 1.43429,12.78455 2.71861,-0.13025 2.20653,-8.45525 2.20653,-8.45525 0,0 3.41747,-2.28816 5.60127,-0.50178 2.52904,2.06879 3.00862,10.20838 -2.94067,10.55194 0.70016,4.94776 -0.56012,7.42165 -0.56012,7.42165 l 3.64082,-4.79315 2.80063,-7.11242 0.14004,-11.13248 -5.60127,-11.44172 -10.78245,-6.49395 -9.94225,-0.92771 -6.72152,3.24698 z"
         id="path4538" />
      <path
         style="color:#000000;display:inline;overflow:visible;visibility:visible;opacity:1;vector-effect:none;fill:#c1c1c1;fill-opacity:1;fill-rule:nonzero;stroke:none;stroke-width:0.39687499;stroke-linecap:round;stroke-linejoin:round;stroke-miterlimit:4;stroke-dasharray:none;stroke-dashoffset:0;stroke-opacity:1;marker:none;enable-background:accumulate"
         d="m 181.34763,106.81667 c 0,0 -0.4201,-5.41162 2.38053,-4.94776 2.80064,0.46385 0.70016,4.63853 0.70016,4.63853 0,0 3.5008,-1.23695 3.78086,1.08232 0.28006,2.31926 -4.20095,2.62851 -4.20095,2.62851 z"
         id="path4540" />
      <path
         style="color:#000000;display:inline;overflow:visible;visibility:visible;opacity:1;vector-effect:none;fill:#3e3e3e;fill-opacity:1;fill-rule:nonzero;stroke:none;stroke-width:0.39687499;stroke-linecap:round;stroke-linejoin:round;stroke-miterlimit:4;stroke-dasharray:none;stroke-dashoffset:0;stroke-opacity:1;marker:none;enable-background:accumulate"
         d="m 148.18837,128.79162 a 1.9988893,4.464867 0 0 0 -1.94355,3.44372 h 3.8871 a 1.9988893,4.464867 0 0 0 -1.94355,-3.44372 z"
         id="rect4579" />
      <path
         style="color:#000000;display:inline;overflow:visible;visibility:visible;opacity:1;vector-effect:none;fill:#3e3e3e;fill-opacity:1;fill-rule:nonzero;stroke:none;stroke-width:0.39687499;stroke-linecap:round;stroke-linejoin:round;stroke-miterlimit:4;stroke-dasharray:none;stroke-dashoffset:0;stroke-opacity:1;marker:none;enable-background:accumulate"
         d="m 165.96713,128.79162 a 1.9988893,4.464867 0 0 0 -1.94355,3.44372 h 3.8871 a 1.9988893,4.464867 0 0 0 -1.94355,-3.44372 z"
         id="rect4579-9" />
      <ellipse
         style="color:#000000;display:inline;overflow:visible;visibility:visible;opacity:1;vector-effect:none;fill:#c1c1c1;fill-opacity:1;fill-rule:nonzero;stroke:none;stroke-width:0.39687496;stroke-linecap:round;stroke-linejoin:round;stroke-miterlimit:4;stroke-dasharray:none;stroke-dashoffset:0;stroke-opacity:1;marker:none;enable-background:accumulate"
         id="path4502-5"
         cx="147.7274"
         cy="133.25632"
         rx="1.0087156"
         ry="2.2531419" />
      <ellipse
         style="color:#000000;display:inline;overflow:visible;visibility:visible;opacity:1;vector-effect:none;fill:#c1c1c1;fill-opacity:1;fill-rule:nonzero;stroke:none;stroke-width:0.39687496;stroke-linecap:round;stroke-linejoin:round;stroke-miterlimit:4;stroke-dasharray:none;stroke-dashoffset:0;stroke-opacity:1;marker:none;enable-background:accumulate"
         id="path4502-5-6"
         cx="165.50624"
         cy="133.25632"
         rx="1.0087156"
         ry="2.2531419" />
      <path
         style="color:#000000;display:inline;overflow:visible;visibility:visible;opacity:1;vector-effect:none;fill:#555555;fill-opacity:1;fill-rule:nonzero;stroke:none;stroke-width:0.39687502;stroke-linecap:round;stroke-linejoin:round;stroke-miterlimit:4;stroke-dasharray:none;stroke-dashoffset:0;stroke-opacity:1;marker:none;enable-background:accumulate"
         d="m 182.5639,130.7927 c 0,0 -1.27415,-1.57987 -2.83323,-0.35388 -1.70164,1.33812 -0.81642,3.57459 -0.81642,3.57459 0,0 0.56872,-3.82481 3.64965,-3.22071 z"
         id="path4667" />
      <path
         style="color:#000000;display:inline;overflow:visible;visibility:visible;opacity:1;vector-effect:none;fill:#555555;fill-opacity:1;fill-rule:nonzero;stroke:none;stroke-width:0.39687502;stroke-linecap:round;stroke-linejoin:round;stroke-miterlimit:4;stroke-dasharray:none;stroke-dashoffset:0;stroke-opacity:1;marker:none;enable-background:accumulate"
         d="m 180.00327,130.46885 c 0,0 2.03597,-0.13594 2.44215,2.23421 0.4433,2.58687 -1.72285,3.59567 -1.72285,3.59567 0,0 2.08109,-3.57641 -0.7193,-5.82988 z"
         id="path4667-2" />
      <path
         style="color:#000000;display:inline;overflow:visible;visibility:visible;opacity:1;vector-effect:none;fill:#7e7e7e;fill-opacity:1;fill-rule:nonzero;stroke:none;stroke-width:0.39687499;stroke-linecap:round;stroke-linejoin:round;stroke-miterlimit:4;stroke-dasharray:none;stroke-dashoffset:0;stroke-opacity:1;marker:none;enable-background:accumulate"
         d="m 147.88004,217.88209 3.22073,0.07 -1.74093,1.40032 z"
         id="path4977" />
      <path
         style="color:#000000;display:inline;overflow:visible;visibility:visible;opacity:1;vector-effect:none;fill:#7e7e7e;fill-opacity:1;fill-rule:nonzero;stroke:none;stroke-width:0.39687502;stroke-linecap:round;stroke-linejoin:round;stroke-miterlimit:4;stroke-dasharray:none;stroke-dashoffset:0;stroke-opacity:1;marker:none;enable-background:accumulate"
         d="m 169.04671,217.88209 3.0807,0.07 -1.66524,1.40032 z"
         id="path4977-8" />
    </g>
  </g>
</svg>
