<?xml version="1.0" encoding="UTF-8" standalone="no"?>
<svg
   xmlns:dc="http://purl.org/dc/elements/1.1/"
   xmlns:cc="http://creativecommons.org/ns#"
   xmlns:rdf="http://www.w3.org/1999/02/22-rdf-syntax-ns#"
   xmlns:svg="http://www.w3.org/2000/svg"
   xmlns="http://www.w3.org/2000/svg"
   id="svg8"
   version="1.1"
   viewBox="0 0 90.626221 140.37238"
   height="140.37238mm"
   width="90.626221mm">
  <defs
     id="defs2" />
  <metadata
     id="metadata5">
    <rdf:RDF>
      <cc:Work
         rdf:about="">
        <dc:format>image/svg+xml</dc:format>
        <dc:type
           rdf:resource="http://purl.org/dc/dcmitype/StillImage" />
        <dc:title></dc:title>
      </cc:Work>
    </rdf:RDF>
  </metadata>
  <g
     transform="translate(-7.3723804,-98.467329)"
     style="display:inline"
     id="layer2">
    <g
       id="g5559">
      <ellipse
         style="color:#000000;display:inline;overflow:visible;visibility:visible;opacity:1;vector-effect:none;fill:#000000;fill-opacity:1;fill-rule:nonzero;stroke:none;stroke-width:0.39687499;stroke-linecap:round;stroke-linejoin:round;stroke-miterlimit:4;stroke-dasharray:none;stroke-dashoffset:0;stroke-opacity:1;marker:none;enable-background:accumulate"
         id="path4994"
         cx="67.161888"
         cy="233.9386"
         rx="24.085453"
         ry="4.9011092" />
      <ellipse
         style="color:#000000;display:inline;overflow:visible;visibility:visible;opacity:1;vector-effect:none;fill:#fa3ca8;fill-opacity:1;fill-rule:nonzero;stroke:none;stroke-width:0.39687502;stroke-linecap:round;stroke-linejoin:round;stroke-miterlimit:4;stroke-dasharray:none;stroke-dashoffset:0;stroke-opacity:1;marker:none;enable-background:accumulate"
         id="path4485-48-4"
         cx="70.28109"
         cy="125.75738"
         rx="24.498512"
         ry="27.290049" />
      <path
         style="color:#000000;display:inline;overflow:visible;visibility:visible;opacity:1;vector-effect:none;fill:#fa3ca8;fill-opacity:1;fill-rule:nonzero;stroke:none;stroke-width:0.39687496;stroke-linecap:round;stroke-linejoin:round;stroke-miterlimit:4;stroke-dasharray:none;stroke-dashoffset:0;stroke-opacity:1;marker:none;enable-background:accumulate"
         d="m 49.829405,191.34609 c 0,0 -0.08418,15.23292 0.638237,22.33431 0.678084,6.66557 6.379538,19.45489 6.379538,19.45489 0,0 1.196677,-11.08632 2.220398,-15.25029 0.551396,-2.24279 2.322538,-8.96059 2.322538,-8.96059 h 9.259183 c 0,0 1.130991,8.02601 1.5503,10.13455 1.101347,5.5383 4.002916,14.07633 4.002916,14.07633 0,0 2.885337,-11.75445 5.041137,-17.43767 0.84649,-2.23155 3.149557,-7.68278 3.313617,-11.02922 0.28229,-5.75823 -0.700167,-14.9327 -0.700167,-14.9327 z"
         id="path4765-4" />
      <path
         style="color:#000000;display:inline;overflow:visible;visibility:visible;opacity:1;vector-effect:none;fill:#cd0066;fill-opacity:1;fill-rule:nonzero;stroke:none;stroke-width:0.39687499;stroke-linecap:round;stroke-linejoin:round;stroke-miterlimit:4;stroke-dasharray:none;stroke-dashoffset:0;stroke-opacity:1;marker:none;enable-background:accumulate"
         d="m 67.001595,197.61585 c 0.0208,0.22586 0.01931,0.50008 -0.0093,0.83095 -0.308356,3.56463 -2.466517,3.06958 -2.466517,3.06958 l -0.05426,-3.21944 c -0.458594,0.23934 -0.780316,0.447 -0.780316,0.447 l 0.09922,3.66386 c 0,0 3.465391,0.49505 3.960482,-3.06958 0.157208,-1.13189 -0.195678,-1.604 -0.749308,-1.72237 z"
         id="path4767-2" />
      <path
         style="color:#000000;display:inline;overflow:visible;visibility:visible;opacity:1;vector-effect:none;fill:#cd0066;fill-opacity:1;fill-rule:nonzero;stroke:none;stroke-width:0.39687499;stroke-linecap:round;stroke-linejoin:round;stroke-miterlimit:4;stroke-dasharray:none;stroke-dashoffset:0;stroke-opacity:1;marker:none;enable-background:accumulate"
         d="m 54.004971,197.88249 c 0.0096,1.62894 -0.700495,4.39847 -4.051432,5.79138 0.0069,0.27645 0.01505,0.55271 0.02273,0.82941 5.898835,-1.53961 4.803326,-6.54534 4.803326,-6.54534 z"
         id="path4785-7" />
      <path
         style="color:#000000;display:inline;overflow:visible;visibility:visible;opacity:1;vector-effect:none;fill:#cd0066;fill-opacity:1;fill-rule:nonzero;stroke:none;stroke-width:0.39687499;stroke-linecap:round;stroke-linejoin:round;stroke-miterlimit:4;stroke-dasharray:none;stroke-dashoffset:0;stroke-opacity:1;marker:none;enable-background:accumulate"
         d="m 77.403543,197.86958 -0.905888,0.0885 c -0.527572,2.53815 1.171813,6.46482 6.179377,6.67692 l 0.26984,-6.66514 -1.05006,0.10957 -0.0238,5.67031 c -4.585044,-1.23438 -4.618165,-4.64595 -4.469498,-5.88015 z"
         id="path4785-8-4" />
      <path
         style="color:#000000;display:inline;overflow:visible;visibility:visible;opacity:1;vector-effect:none;fill:#cd0066;fill-opacity:1;fill-rule:nonzero;stroke:none;stroke-width:0.39687499;stroke-linecap:round;stroke-linejoin:round;stroke-miterlimit:4;stroke-dasharray:none;stroke-dashoffset:0;stroke-opacity:1;marker:none;enable-background:accumulate"
         d="m 83.856892,189.7357 -34.027377,1.61024 c 0,0 -0.02058,4.44202 0.06976,9.62939 h 34.694004 c -0.10267,-5.31556 -0.736387,-11.23963 -0.736387,-11.23963 z"
         id="path4686-4-7" />
      <path
         style="color:#000000;display:inline;overflow:visible;visibility:visible;opacity:1;vector-effect:none;fill:#0f0005;fill-opacity:1;fill-rule:nonzero;stroke:none;stroke-width:0.39687499;stroke-linecap:round;stroke-linejoin:round;stroke-miterlimit:4;stroke-dasharray:none;stroke-dashoffset:0;stroke-opacity:1;marker:none;enable-background:accumulate"
         d="m 67.001595,197.61584 c 0.0208,0.22586 0.01931,0.50009 -0.0093,0.83096 -0.114908,1.32836 -0.486698,2.09199 -0.907954,2.52853 h 1.096573 c 0.269066,-0.41759 0.474798,-0.95173 0.569992,-1.63711 0.157205,-1.13189 -0.19568,-1.60401 -0.749308,-1.72238 z m -2.530078,0.6811 c -0.458595,0.23934 -0.780314,0.447 -0.780314,0.447 l 0.06046,2.23139 h 0.764812 z"
         id="path4686-4-9-9" />
      <path
         style="color:#000000;display:inline;overflow:visible;visibility:visible;opacity:1;vector-effect:none;fill:#0f0005;fill-opacity:1;fill-rule:nonzero;stroke:none;stroke-width:0.39687499;stroke-linecap:round;stroke-linejoin:round;stroke-miterlimit:4;stroke-dasharray:none;stroke-dashoffset:0;stroke-opacity:1;marker:none;enable-background:accumulate"
         d="m 54.004971,197.88249 c 0.005,0.84216 -0.186232,1.9888 -0.831474,3.09284 h 1.300181 c 0.620321,-1.57465 0.305924,-3.01739 0.305924,-3.01739 z"
         id="path4785-6-1" />
      <path
         style="color:#000000;display:inline;overflow:visible;visibility:visible;opacity:1;vector-effect:none;fill:#0f0005;fill-opacity:1;fill-rule:nonzero;stroke:none;stroke-width:0.39687499;stroke-linecap:round;stroke-linejoin:round;stroke-miterlimit:4;stroke-dasharray:none;stroke-dashoffset:0;stroke-opacity:1;marker:none;enable-background:accumulate"
         d="m 77.403543,197.86958 -0.905888,0.0884 c -0.188371,0.90624 -0.09069,1.98939 0.337962,3.01738 h 1.113113 c -0.650007,-1.21551 -0.623062,-2.45925 -0.545187,-3.10575 z m 5.543329,0.10025 -1.05006,0.10955 -0.0119,2.89595 h 0.94051 z"
         id="path4785-8-2-3" />
      <path
         style="color:#000000;display:inline;overflow:visible;visibility:visible;opacity:1;vector-effect:none;fill:#44d7fb;fill-opacity:1;fill-rule:nonzero;stroke:none;stroke-width:2.5;stroke-linecap:round;stroke-linejoin:round;stroke-miterlimit:4;stroke-dasharray:none;stroke-dashoffset:0;stroke-opacity:1;marker:none;enable-background:accumulate"
         d="m 51.041578,156.54271 c 0,0 -7.220133,6.18283 -12.869534,6.5883 -5.6494,0.40547 -6.094675,-11.98863 -7.811558,-15.21142 -1.716882,-3.22279 -9.644717,-5.24086 -10.655286,-3.07186 -1.01057,2.169 2.551472,4.13008 2.551472,4.13008 0,0 -13.9380979,-5.01134 -14.8639374,-0.30766 -0.4837761,2.45779 7.8166844,4.25667 7.8166844,4.25667 0,0 -5.3474939,9.41767 5.241575,10.51808 0,0 1.443733,13.69272 17.543037,12.87468 12.386119,-0.62938 17.167725,-11.31187 17.167725,-11.31187 z"
         id="path5276" />
      <path
         style="color:#000000;font-style:normal;font-variant:normal;font-weight:normal;font-stretch:normal;font-size:medium;line-height:normal;font-family:sans-serif;font-variant-ligatures:normal;font-variant-position:normal;font-variant-caps:normal;font-variant-numeric:normal;font-variant-alternates:normal;font-feature-settings:normal;text-indent:0;text-align:start;text-decoration:none;text-decoration-line:none;text-decoration-style:solid;text-decoration-color:#000000;letter-spacing:normal;word-spacing:normal;text-transform:none;writing-mode:lr-tb;direction:ltr;text-orientation:mixed;dominant-baseline:auto;baseline-shift:baseline;text-anchor:start;white-space:normal;shape-padding:0;clip-rule:nonzero;display:inline;overflow:visible;visibility:visible;opacity:1;isolation:auto;mix-blend-mode:normal;color-interpolation:sRGB;color-interpolation-filters:linearRGB;solid-color:#000000;solid-opacity:1;vector-effect:none;fill:#40a298;fill-opacity:1;fill-rule:nonzero;stroke:none;stroke-width:2.5;stroke-linecap:round;stroke-linejoin:round;stroke-miterlimit:4;stroke-dasharray:none;stroke-dashoffset:0;stroke-opacity:1;marker:none;color-rendering:auto;image-rendering:auto;shape-rendering:auto;text-rendering:auto;enable-background:accumulate"
         d="m 52.260375,159.04662 c -1.182918,0.13841 -2.294572,0.40722 -3.234428,0.83406 -1.064646,0.48351 -2.130401,1.25678 -2.216917,2.59622 -0.05276,0.81686 0.266438,1.53586 0.686263,2.09755 -0.984975,0.11492 -2.0265,0.25839 -3.094387,0.4625 -1.865024,0.35646 -3.724373,0.8498 -5.20795,1.66812 -0.741788,0.40916 -1.406165,0.90457 -1.887741,1.59163 -0.481576,0.68705 -0.725985,1.60891 -0.564306,2.51199 0.117414,0.65581 0.537062,1.20648 0.996839,1.5441 0.459777,0.33761 0.96139,0.52567 1.48363,0.66197 1.044479,0.27262 2.209199,0.32685 3.345016,0.31316 1.084339,-0.0131 2.117558,-0.10315 2.927987,-0.18965 -0.0019,0.26527 -0.02035,0.46616 -0.0041,0.77204 a 1.250125,1.250125 0 0 0 0.137459,0.50437 c 6.766467,-3.23735 9.534302,-9.40718 9.534302,-9.40718 z m -0.137975,2.57245 1.639692,3.36827 c -0.503833,0.97628 -2.215129,3.96255 -5.727298,6.53552 a 1.250125,1.250125 0 0 0 -1.431438,-1.04024 c 0,0 -2.034469,0.32018 -4.066934,0.34468 -1.016233,0.0122 -2.031228,-0.0618 -2.683558,-0.23203 -0.326165,-0.0851 -0.552209,-0.19713 -0.635619,-0.25838 -0.01609,-0.0118 -0.0092,-0.005 -0.01601,-0.009 -0.03708,-0.24373 -0.0056,-0.37355 0.150894,-0.59686 0.166463,-0.23749 0.520457,-0.54668 1.047999,-0.83768 1.055081,-0.58195 2.738948,-1.0706 4.470011,-1.40146 3.462128,-0.66172 7.096207,-0.76326 7.096207,-0.76326 a 1.250125,1.250125 0 0 0 0.13126,-2.48874 c 0,0 -0.870427,-0.12673 -1.659848,-0.4718 -0.394711,-0.17254 -0.740553,-0.39885 -0.921909,-0.59532 -0.181351,-0.19646 -0.227663,-0.29088 -0.211873,-0.53536 -0.0068,0.10495 0.07189,-0.17041 0.756026,-0.48111 0.508775,-0.23106 1.257837,-0.40827 2.062408,-0.53744 z"
         id="path5276-6-7" />
      <path
         style="color:#000000;display:inline;overflow:visible;visibility:visible;opacity:1;vector-effect:none;fill:#ffdb63;fill-opacity:1;fill-rule:nonzero;stroke:none;stroke-width:0.39687499;stroke-linecap:round;stroke-linejoin:round;stroke-miterlimit:4;stroke-dasharray:none;stroke-dashoffset:0;stroke-opacity:1;marker:none;enable-background:accumulate"
         d="m 68.034605,153.77304 c -5.787445,0.0217 -11.878861,-0.12152 -14.477623,0.48792 -4.843659,1.13589 -10.030654,3.59256 -10.558011,7.0954 -0.315457,2.09534 4.385174,11.95293 7.798421,10.27785 -0.932823,5.42272 -1.636288,20.92697 -1.637087,24.95276 7.93e-4,0.93534 0.03087,1.87006 0.08992,2.80086 h 36.772944 c 0.0642,-0.93041 0.0994,-1.86513 0.10542,-2.80086 -0.004,-3.89355 -0.488312,-19.13132 -1.324452,-24.45151 l 1.760603,2.26569 c 2.208637,2.84226 5.798943,-5.51793 3.413837,-11.12998 -1.409019,-3.31536 -5.348846,-6.92595 -8.693673,-8.17002 -2.873824,-1.06889 -9.095878,-1.29004 -12.091753,-1.32397 -0.386397,-0.004 -0.772755,-0.006 -1.158586,-0.004 z"
         id="path4686-7" />
      <path
         style="color:#000000;display:inline;overflow:visible;visibility:visible;opacity:1;vector-effect:none;fill:#40a298;fill-opacity:1;fill-rule:nonzero;stroke:none;stroke-width:0.39687499;stroke-linecap:round;stroke-linejoin:round;stroke-miterlimit:4;stroke-dasharray:none;stroke-dashoffset:0;stroke-opacity:1;marker:none;enable-background:accumulate"
         d="m 72.701794,151.44447 0.792139,3.36659 c -4.276257,1.55372 -8.666041,2.31277 -13.466363,0.19804 l 0.990174,-3.76266 z"
         id="path4712-2" />
      <path
         style="color:#000000;display:inline;overflow:visible;visibility:visible;opacity:1;vector-effect:none;fill:#44d7fb;fill-opacity:1;fill-rule:nonzero;stroke:none;stroke-width:0.39687499;stroke-linecap:round;stroke-linejoin:round;stroke-miterlimit:4;stroke-dasharray:none;stroke-dashoffset:0;stroke-opacity:1;marker:none;enable-background:accumulate"
         d="m 68.733787,106.04365 c -11.755361,-1.1e-4 -21.285015,10.5221 -21.285007,23.50193 0.0062,1.51732 0.145566,3.03041 0.415997,4.51807 -1.744766,1.91806 -2.665852,4.09179 -2.671673,6.30504 -1.35e-4,7.00223 8.968203,12.67872 20.031337,12.67881 h 3.509346 c 8.887526,-1.5e-4 16.499112,-6.01693 19.685622,-14.56087 l 0.71933,-0.21135 1.385957,-4.35684 -0.14831,-5.54488 -0.38447,0.006 c -0.5504,-12.43791 -9.857091,-22.33591 -21.258129,-22.33611 z"
         id="path4684-5" />
      <path
         style="color:#000000;display:inline;overflow:visible;visibility:visible;opacity:1;vector-effect:none;fill:#0f0005;fill-opacity:1;fill-rule:nonzero;stroke:none;stroke-width:0.39687499;stroke-linecap:round;stroke-linejoin:round;stroke-miterlimit:4;stroke-dasharray:none;stroke-dashoffset:0;stroke-opacity:1;marker:none;enable-background:accumulate"
         d="m 58.395001,128.39982 h 7.164067 v 1.75377 h -7.235 z"
         id="path5167" />
      <path
         style="color:#000000;display:inline;overflow:visible;visibility:visible;opacity:1;vector-effect:none;fill:#0f0005;fill-opacity:1;fill-rule:nonzero;stroke:none;stroke-width:0.39687493;stroke-linecap:round;stroke-linejoin:round;stroke-miterlimit:4;stroke-dasharray:none;stroke-dashoffset:0;stroke-opacity:1;marker:none;enable-background:accumulate"
         d="M 56.105929,142.00531 H 67.54972 c 0,0 0.522133,5.88885 -5.721896,5.88885 -6.244029,0 -5.721895,-5.88885 -5.721895,-5.88885 z"
         id="path4519-5" />
      <path
         style="color:#000000;display:inline;overflow:visible;visibility:visible;opacity:1;vector-effect:none;fill:#40a298;fill-opacity:1;fill-rule:nonzero;stroke:none;stroke-width:0.39687499;stroke-linecap:round;stroke-linejoin:round;stroke-miterlimit:4;stroke-dasharray:none;stroke-dashoffset:0;stroke-opacity:1;marker:none;enable-background:accumulate"
         d="m 61.732098,132.32861 c 0,0 -4.200951,6.18472 -0.980221,6.64858 3.220728,0.46384 0.980221,-6.64858 0.980221,-6.64858 z"
         id="path4521-8" />
      <path
         style="color:#000000;display:inline;overflow:visible;visibility:visible;opacity:1;vector-effect:none;fill:#40a298;fill-opacity:1;fill-rule:nonzero;stroke:none;stroke-width:0.39687499;stroke-linecap:round;stroke-linejoin:round;stroke-miterlimit:4;stroke-dasharray:none;stroke-dashoffset:0;stroke-opacity:1;marker:none;enable-background:accumulate"
         d="M 68.733787,106.04366 A 21.284818,23.501911 0 0 0 48.13918,123.7263 c 4.115302,1.58201 10.011492,1.77456 15.133441,-2.0252 0.420098,3.71083 10.922537,5.1025 13.443108,-0.92759 -0.140033,3.71083 2.380213,4.94801 2.380213,4.94801 l 5.290117,-5.7645 3.64526,-0.26562 A 21.284818,23.501911 0 0 0 68.733787,106.04366 Z"
         id="path4538-6-6" />
      <path
         style="color:#000000;display:inline;overflow:visible;visibility:visible;opacity:1;vector-effect:none;fill:#fa3ca8;fill-opacity:1;fill-rule:nonzero;stroke:none;stroke-width:0.39687499;stroke-linecap:round;stroke-linejoin:round;stroke-miterlimit:4;stroke-dasharray:none;stroke-dashoffset:0;stroke-opacity:1;marker:none;enable-background:accumulate"
         d="m 54.45045,109.90904 c 0,0 -5.881331,-3.71083 -7.421679,0 -1.540349,3.71082 1.960443,4.4839 1.960443,4.4839 0,0 -6.021363,-0.9277 -6.021363,2.93775 0,3.86544 11.342568,9.43168 20.304595,2.78312 0.420095,3.71083 10.922474,5.10238 13.443045,-0.92771 -0.140033,3.71083 2.380541,4.94777 2.380541,4.94777 0,0 -1.284311,12.9148 1.43429,12.78455 2.71861,-0.13025 2.20653,-8.45525 2.20653,-8.45525 0,0 3.417467,-2.28816 5.601267,-0.50178 2.529037,2.06879 3.008617,10.20838 -2.94067,10.55194 0.70016,4.94776 -0.56012,7.42165 -0.56012,7.42165 l 3.64082,-4.79315 2.800627,-7.11242 0.14004,-11.13248 -5.601267,-11.44172 -10.78244,-6.49395 -9.94225,-0.92771 -6.721523,3.24698 z"
         id="path4538-2" />
      <path
         style="color:#000000;display:inline;overflow:visible;visibility:visible;opacity:1;vector-effect:none;fill:#fa3ca8;fill-opacity:1;fill-rule:nonzero;stroke:none;stroke-width:0.39687499;stroke-linecap:round;stroke-linejoin:round;stroke-miterlimit:4;stroke-dasharray:none;stroke-dashoffset:0;stroke-opacity:1;marker:none;enable-background:accumulate"
         d="m 86.097619,106.81667 c 0,0 -0.4201,-5.41162 2.38053,-4.94776 2.800637,0.46385 0.70016,4.63853 0.70016,4.63853 0,0 3.500797,-1.23695 3.780857,1.08232 0.28006,2.31926 -4.200947,2.62851 -4.200947,2.62851 z"
         id="path4540-4" />
      <path
         style="color:#000000;display:inline;overflow:visible;visibility:visible;opacity:1;vector-effect:none;fill:#40a298;fill-opacity:1;fill-rule:nonzero;stroke:none;stroke-width:0.39687502;stroke-linecap:round;stroke-linejoin:round;stroke-miterlimit:4;stroke-dasharray:none;stroke-dashoffset:0;stroke-opacity:1;marker:none;enable-background:accumulate"
         d="m 87.313889,130.7927 c 0,0 -1.27415,-1.57987 -2.83323,-0.35388 -1.701637,1.33812 -0.816417,3.57459 -0.816417,3.57459 0,0 0.568717,-3.82481 3.649647,-3.22071 z"
         id="path4667-0" />
      <path
         style="color:#000000;display:inline;overflow:visible;visibility:visible;opacity:1;vector-effect:none;fill:#40a298;fill-opacity:1;fill-rule:nonzero;stroke:none;stroke-width:0.39687502;stroke-linecap:round;stroke-linejoin:round;stroke-miterlimit:4;stroke-dasharray:none;stroke-dashoffset:0;stroke-opacity:1;marker:none;enable-background:accumulate"
         d="m 84.753259,130.46885 c 0,0 2.03597,-0.13594 2.44215,2.23421 0.4433,2.58687 -1.72285,3.59567 -1.72285,3.59567 0,0 2.08109,-3.57641 -0.7193,-5.82988 z"
         id="path4667-2-4" />
      <path
         style="color:#000000;display:inline;overflow:visible;visibility:visible;opacity:1;vector-effect:none;fill:#cd0066;fill-opacity:1;fill-rule:nonzero;stroke:none;stroke-width:0.39687499;stroke-linecap:round;stroke-linejoin:round;stroke-miterlimit:4;stroke-dasharray:none;stroke-dashoffset:0;stroke-opacity:1;marker:none;enable-background:accumulate"
         d="m 52.630037,217.88209 3.220731,0.07 -1.740936,1.40032 z"
         id="path4977-5" />
      <path
         style="color:#000000;display:inline;overflow:visible;visibility:visible;opacity:1;vector-effect:none;fill:#cd0066;fill-opacity:1;fill-rule:nonzero;stroke:none;stroke-width:0.39687502;stroke-linecap:round;stroke-linejoin:round;stroke-miterlimit:4;stroke-dasharray:none;stroke-dashoffset:0;stroke-opacity:1;marker:none;enable-background:accumulate"
         d="m 73.796709,217.88209 3.080699,0.07 -1.665245,1.40032 z"
         id="path4977-8-3" />
      <path
         style="color:#000000;display:inline;overflow:visible;visibility:visible;opacity:1;vector-effect:none;fill:#0f0005;fill-opacity:1;fill-rule:nonzero;stroke:none;stroke-width:0.39687499;stroke-linecap:round;stroke-linejoin:round;stroke-miterlimit:4;stroke-dasharray:none;stroke-dashoffset:0;stroke-opacity:1;marker:none;enable-background:accumulate"
         d="m 47.091695,127.17914 c 1.342632,-1.75629 11.130372,-1.4771 12.058552,0.1677 0.928179,1.6448 -0.218236,8.26773 -1.507321,9.72688 -1.289084,1.45916 -7.577665,0.98372 -8.742449,-0.1677 -1.164785,-1.1514 -3.151416,-7.9706 -1.808782,-9.72688 z"
         id="path5133" />
      <path
         style="color:#000000;display:inline;overflow:visible;visibility:visible;opacity:1;vector-effect:none;fill:#0f0005;fill-opacity:1;fill-rule:nonzero;stroke:none;stroke-width:0.39687499;stroke-linecap:round;stroke-linejoin:round;stroke-miterlimit:4;stroke-dasharray:none;stroke-dashoffset:0;stroke-opacity:1;marker:none;enable-background:accumulate"
         d="m 76.88049,127.17914 c -1.342642,-1.75629 -11.130375,-1.4771 -12.058555,0.1677 -0.928179,1.6448 0.218236,8.26773 1.50732,9.72688 1.289085,1.45916 7.577665,0.98372 8.74245,-0.1677 1.164789,-1.1514 3.151416,-7.9706 1.808785,-9.72688 z"
         id="path5133-3" />
      <path
         style="color:#000000;display:inline;overflow:visible;visibility:visible;opacity:1;vector-effect:none;fill:#ffffff;fill-opacity:1;fill-rule:nonzero;stroke:none;stroke-width:0.39687499;stroke-linecap:round;stroke-linejoin:round;stroke-miterlimit:4;stroke-dasharray:none;stroke-dashoffset:0;stroke-opacity:1;marker:none;enable-background:accumulate"
         d="m 49.760586,125.2208 -1.176662,2.95693 -2.458996,-0.41152 2.124644,1.55171 -0.14291,2.95052 1.473141,-2.56044 1.94462,0.0543 -1.582405,-1.28953 z"
         id="path5150" />
      <path
         style="color:#000000;display:inline;overflow:visible;visibility:visible;opacity:1;vector-effect:none;fill:#ffffff;fill-opacity:1;fill-rule:nonzero;stroke:none;stroke-width:0.39687499;stroke-linecap:round;stroke-linejoin:round;stroke-miterlimit:4;stroke-dasharray:none;stroke-dashoffset:0;stroke-opacity:1;marker:none;enable-background:accumulate"
         d="m 65.750212,132.69441 1.273489,-2.91654 2.444095,0.49235 -2.072341,-1.6209 0.240087,-2.94421 -1.556738,2.51049 -1.941773,-0.11837 1.539039,1.34099 z"
         id="path5150-1" />
      <path
         style="color:#000000;display:inline;overflow:visible;visibility:visible;opacity:1;vector-effect:none;fill:#fa3ca8;fill-opacity:1;fill-rule:nonzero;stroke:none;stroke-width:0.39687493;stroke-linecap:round;stroke-linejoin:round;stroke-miterlimit:4;stroke-dasharray:none;stroke-dashoffset:0;stroke-opacity:1;marker:none;enable-background:accumulate"
         d="m 65.069411,143.05431 c -0.907942,-0.0306 -1.964314,0.19204 -3.180683,0.81339 -1.895491,0.96827 -2.778332,2.18844 -3.120223,3.37602 0.776001,0.39743 1.771888,0.65061 3.059244,0.65061 3.964123,0 5.197962,-2.37083 5.572787,-4.10414 -0.63092,-0.4073 -1.402916,-0.70457 -2.331125,-0.73588 z"
         id="path4519-5-7" />
      <path
         style="color:#000000;display:inline;overflow:visible;visibility:visible;opacity:1;vector-effect:none;fill:#0f0005;fill-opacity:1;fill-rule:nonzero;stroke:none;stroke-width:0.39687499;stroke-linecap:round;stroke-linejoin:round;stroke-miterlimit:4;stroke-dasharray:none;stroke-dashoffset:0;stroke-opacity:1;marker:none;enable-background:accumulate"
         d="m 75.870303,127.0863 0.396357,1.6831 2.554366,-0.12092 2.887679,-0.13695 1.028361,-0.0486 c 0,0 1.619843,-1.08403 3.341913,-1.17667 l 10e-4,-5.2e-4 -4.321705,-0.0842 -2.728515,-0.0532 -0.14986,-0.003 z"
         id="path5200" />
      <ellipse
         style="color:#000000;display:inline;overflow:visible;visibility:visible;opacity:1;vector-effect:none;fill:#fa3ca8;fill-opacity:1;fill-rule:nonzero;stroke:none;stroke-width:0.39687499;stroke-linecap:round;stroke-linejoin:round;stroke-miterlimit:4;stroke-dasharray:none;stroke-dashoffset:0;stroke-opacity:1;marker:none;enable-background:accumulate"
         id="path5238"
         cx="48.814175"
         cy="139.63937"
         rx="4.1659427"
         ry="1.4353249" />
      <ellipse
         style="color:#000000;display:inline;overflow:visible;visibility:visible;opacity:1;vector-effect:none;fill:#fa3ca8;fill-opacity:1;fill-rule:nonzero;stroke:none;stroke-width:0.39687499;stroke-linecap:round;stroke-linejoin:round;stroke-miterlimit:4;stroke-dasharray:none;stroke-dashoffset:0;stroke-opacity:1;marker:none;enable-background:accumulate"
         id="path5238-6"
         cx="74.214172"
         cy="139.63937"
         rx="4.1659427"
         ry="1.4353249" />
      <path
         style="color:#000000;display:inline;overflow:visible;visibility:visible;opacity:1;vector-effect:none;fill:none;fill-opacity:1;fill-rule:nonzero;stroke:#40a298;stroke-width:2.5;stroke-linecap:round;stroke-linejoin:round;stroke-miterlimit:4;stroke-dasharray:none;stroke-dashoffset:0;stroke-opacity:1;marker:none;enable-background:accumulate"
         d="m 67.215213,162.56958 -8.681966,7.56171 9.522155,2.52057 z"
         id="path5255" />
      <circle
         style="color:#000000;display:inline;overflow:visible;visibility:visible;opacity:1;vector-effect:none;fill:#fa3ca8;fill-opacity:1;fill-rule:nonzero;stroke:none;stroke-width:2.5;stroke-linecap:round;stroke-linejoin:round;stroke-miterlimit:4;stroke-dasharray:none;stroke-dashoffset:0;stroke-opacity:1;marker:none;enable-background:accumulate"
         id="path5257"
         cx="70.85601"
         cy="174.89236"
         r="6.7215219" />
      <circle
         style="color:#000000;display:inline;overflow:visible;visibility:visible;opacity:1;vector-effect:none;fill:#fa3ca8;fill-opacity:1;fill-rule:nonzero;stroke:none;stroke-width:2.5;stroke-linecap:round;stroke-linejoin:round;stroke-miterlimit:4;stroke-dasharray:none;stroke-dashoffset:0;stroke-opacity:1;marker:none;enable-background:accumulate"
         id="path5259"
         cx="-57.667019"
         cy="188.41638"
         r="2.9406657"
         transform="scale(-1,1)" />
      <path
         style="color:#000000;display:inline;overflow:visible;visibility:visible;opacity:1;vector-effect:none;fill:none;fill-opacity:1;fill-rule:nonzero;stroke:#40a298;stroke-width:2.5;stroke-linecap:round;stroke-linejoin:round;stroke-miterlimit:4;stroke-dasharray:none;stroke-dashoffset:0;stroke-opacity:1;marker:none;enable-background:accumulate"
         d="m 65.134667,189.91167 6.372759,-3.60786 -0.496994,6.23487 z"
         id="path5255-9" />
      <path
         style="color:#000000;display:inline;overflow:visible;visibility:visible;opacity:1;vector-effect:none;fill:#44d7fb;fill-opacity:1;fill-rule:nonzero;stroke:none;stroke-width:2.5;stroke-linecap:round;stroke-linejoin:round;stroke-miterlimit:4;stroke-dasharray:none;stroke-dashoffset:0;stroke-opacity:1;marker:none;enable-background:accumulate"
         d="m 53.968282,160.1897 c -2.920633,0.0216 -5.820201,0.94949 -5.911784,2.3673 -0.154242,2.38789 3.876765,2.9223 3.876765,2.9223 0,0 -14.806777,0.38984 -13.961938,5.10874 0.441454,2.46575 8.828918,1.12913 8.828918,1.12913 0,0 -1.563862,10.71638 8.702312,7.89771 0,0 6.315829,12.23414 21.019905,5.62756 6.709243,-3.01449 9.642422,-8.35227 10.918714,-12.19771 -4.162129,-2.19814 -7.055411,-4.46829 -8.965346,-6.28178 -1.74666,2.35082 -4.083547,4.94355 -6.575308,6.12624 -5.116817,2.42864 -10.031076,-8.95814 -12.800769,-11.33781 -1.125186,-0.96675 -3.133143,-1.37647 -5.131469,-1.36168 z"
         id="path5276-6" />
      <path
         style="color:#000000;display:inline;overflow:visible;visibility:visible;opacity:1;vector-effect:none;fill:#fa3ca8;fill-opacity:1;fill-rule:nonzero;stroke:none;stroke-width:2.5;stroke-linecap:round;stroke-linejoin:round;stroke-miterlimit:4;stroke-dasharray:none;stroke-dashoffset:0;stroke-opacity:1;marker:none;enable-background:accumulate"
         d="m 33.764921,157.08846 c -1.6233,-0.15672 -13.254183,7.11898 -14.060466,8.5155 -0.664433,1.15083 0.248044,3.07967 1.485261,3.56462 1.123236,0.44027 14.159811,-7.92972 14.555553,-9.40665 0.287034,-1.07123 -0.924142,-2.5715 -1.980348,-2.67347 z"
         id="path5465" />
    </g>
  </g>
</svg>
